<?xml version="1.0" encoding="utf-8" standalone="no"?>
<!DOCTYPE svg PUBLIC "-//W3C//DTD SVG 1.1//EN"
  "http://www.w3.org/Graphics/SVG/1.1/DTD/svg11.dtd">
<svg xmlns:xlink="http://www.w3.org/1999/xlink" width="723.905pt" height="285.570469pt" viewBox="0 0 723.905 285.570469" xmlns="http://www.w3.org/2000/svg" version="1.1">
 <metadata>
  <rdf:RDF xmlns:dc="http://purl.org/dc/elements/1.1/" xmlns:cc="http://creativecommons.org/ns#" xmlns:rdf="http://www.w3.org/1999/02/22-rdf-syntax-ns#">
   <cc:Work>
    <dc:type rdf:resource="http://purl.org/dc/dcmitype/StillImage"/>
    <dc:date>2023-08-11T00:37:52.983388</dc:date>
    <dc:format>image/svg+xml</dc:format>
    <dc:creator>
     <cc:Agent>
      <dc:title>Matplotlib v3.7.1, https://matplotlib.org/</dc:title>
     </cc:Agent>
    </dc:creator>
   </cc:Work>
  </rdf:RDF>
 </metadata>
 <defs>
  <style type="text/css">*{stroke-linejoin: round; stroke-linecap: butt}</style>
 </defs>
 <g id="figure_1">
  <g id="patch_1">
   <path d="M -0 285.570469 
L 723.905 285.570469 
L 723.905 0 
L -0 0 
z
" style="fill: #ffffff"/>
  </g>
  <g id="axes_1">
   <g id="patch_2">
    <path d="M 47.105 243.695625 
L 351.468636 243.695625 
L 351.468636 21.935625 
L 47.105 21.935625 
z
" style="fill: #ffffff"/>
   </g>
   <g id="matplotlib.axis_1">
    <g id="xtick_1">
     <g id="text_1">
      <!-- 0.6 -->
      <g style="fill: #262626" transform="translate(48.117487 261.069219) scale(0.11 -0.11)">
       <defs>
        <path id="ArialMT-30" d="M 266 2259 
Q 266 3072 433 3567 
Q 600 4063 929 4331 
Q 1259 4600 1759 4600 
Q 2128 4600 2406 4451 
Q 2684 4303 2865 4023 
Q 3047 3744 3150 3342 
Q 3253 2941 3253 2259 
Q 3253 1453 3087 958 
Q 2922 463 2592 192 
Q 2263 -78 1759 -78 
Q 1097 -78 719 397 
Q 266 969 266 2259 
z
M 844 2259 
Q 844 1131 1108 757 
Q 1372 384 1759 384 
Q 2147 384 2411 759 
Q 2675 1134 2675 2259 
Q 2675 3391 2411 3762 
Q 2147 4134 1753 4134 
Q 1366 4134 1134 3806 
Q 844 3388 844 2259 
z
" transform="scale(0.015625)"/>
        <path id="ArialMT-2e" d="M 581 0 
L 581 641 
L 1222 641 
L 1222 0 
L 581 0 
z
" transform="scale(0.015625)"/>
        <path id="ArialMT-36" d="M 3184 3459 
L 2625 3416 
Q 2550 3747 2413 3897 
Q 2184 4138 1850 4138 
Q 1581 4138 1378 3988 
Q 1113 3794 959 3422 
Q 806 3050 800 2363 
Q 1003 2672 1297 2822 
Q 1591 2972 1913 2972 
Q 2475 2972 2870 2558 
Q 3266 2144 3266 1488 
Q 3266 1056 3080 686 
Q 2894 316 2569 119 
Q 2244 -78 1831 -78 
Q 1128 -78 684 439 
Q 241 956 241 2144 
Q 241 3472 731 4075 
Q 1159 4600 1884 4600 
Q 2425 4600 2770 4297 
Q 3116 3994 3184 3459 
z
M 888 1484 
Q 888 1194 1011 928 
Q 1134 663 1356 523 
Q 1578 384 1822 384 
Q 2178 384 2434 671 
Q 2691 959 2691 1453 
Q 2691 1928 2437 2201 
Q 2184 2475 1800 2475 
Q 1419 2475 1153 2201 
Q 888 1928 888 1484 
z
" transform="scale(0.015625)"/>
       </defs>
       <use xlink:href="#ArialMT-30"/>
       <use xlink:href="#ArialMT-2e" x="55.615234"/>
       <use xlink:href="#ArialMT-36" x="83.398438"/>
      </g>
     </g>
    </g>
    <g id="xtick_2">
     <g id="text_2">
      <!-- 0.7 -->
      <g style="fill: #262626" transform="translate(83.136834 261.069219) scale(0.11 -0.11)">
       <defs>
        <path id="ArialMT-37" d="M 303 3981 
L 303 4522 
L 3269 4522 
L 3269 4084 
Q 2831 3619 2401 2847 
Q 1972 2075 1738 1259 
Q 1569 684 1522 0 
L 944 0 
Q 953 541 1156 1306 
Q 1359 2072 1739 2783 
Q 2119 3494 2547 3981 
L 303 3981 
z
" transform="scale(0.015625)"/>
       </defs>
       <use xlink:href="#ArialMT-30"/>
       <use xlink:href="#ArialMT-2e" x="55.615234"/>
       <use xlink:href="#ArialMT-37" x="83.398438"/>
      </g>
     </g>
    </g>
    <g id="xtick_3">
     <g id="text_3">
      <!-- 0.8 -->
      <g style="fill: #262626" transform="translate(118.156181 261.069219) scale(0.11 -0.11)">
       <defs>
        <path id="ArialMT-38" d="M 1131 2484 
Q 781 2613 612 2850 
Q 444 3088 444 3419 
Q 444 3919 803 4259 
Q 1163 4600 1759 4600 
Q 2359 4600 2725 4251 
Q 3091 3903 3091 3403 
Q 3091 3084 2923 2848 
Q 2756 2613 2416 2484 
Q 2838 2347 3058 2040 
Q 3278 1734 3278 1309 
Q 3278 722 2862 322 
Q 2447 -78 1769 -78 
Q 1091 -78 675 323 
Q 259 725 259 1325 
Q 259 1772 486 2073 
Q 713 2375 1131 2484 
z
M 1019 3438 
Q 1019 3113 1228 2906 
Q 1438 2700 1772 2700 
Q 2097 2700 2305 2904 
Q 2513 3109 2513 3406 
Q 2513 3716 2298 3927 
Q 2084 4138 1766 4138 
Q 1444 4138 1231 3931 
Q 1019 3725 1019 3438 
z
M 838 1322 
Q 838 1081 952 856 
Q 1066 631 1291 507 
Q 1516 384 1775 384 
Q 2178 384 2440 643 
Q 2703 903 2703 1303 
Q 2703 1709 2433 1975 
Q 2163 2241 1756 2241 
Q 1359 2241 1098 1978 
Q 838 1716 838 1322 
z
" transform="scale(0.015625)"/>
       </defs>
       <use xlink:href="#ArialMT-30"/>
       <use xlink:href="#ArialMT-2e" x="55.615234"/>
       <use xlink:href="#ArialMT-38" x="83.398438"/>
      </g>
     </g>
    </g>
    <g id="xtick_4">
     <g id="text_4">
      <!-- 0.9 -->
      <g style="fill: #262626" transform="translate(153.175529 261.069219) scale(0.11 -0.11)">
       <defs>
        <path id="ArialMT-39" d="M 350 1059 
L 891 1109 
Q 959 728 1153 556 
Q 1347 384 1650 384 
Q 1909 384 2104 503 
Q 2300 622 2425 820 
Q 2550 1019 2634 1356 
Q 2719 1694 2719 2044 
Q 2719 2081 2716 2156 
Q 2547 1888 2255 1720 
Q 1963 1553 1622 1553 
Q 1053 1553 659 1965 
Q 266 2378 266 3053 
Q 266 3750 677 4175 
Q 1088 4600 1706 4600 
Q 2153 4600 2523 4359 
Q 2894 4119 3086 3673 
Q 3278 3228 3278 2384 
Q 3278 1506 3087 986 
Q 2897 466 2520 194 
Q 2144 -78 1638 -78 
Q 1100 -78 759 220 
Q 419 519 350 1059 
z
M 2653 3081 
Q 2653 3566 2395 3850 
Q 2138 4134 1775 4134 
Q 1400 4134 1122 3828 
Q 844 3522 844 3034 
Q 844 2597 1108 2323 
Q 1372 2050 1759 2050 
Q 2150 2050 2401 2323 
Q 2653 2597 2653 3081 
z
" transform="scale(0.015625)"/>
       </defs>
       <use xlink:href="#ArialMT-30"/>
       <use xlink:href="#ArialMT-2e" x="55.615234"/>
       <use xlink:href="#ArialMT-39" x="83.398438"/>
      </g>
     </g>
    </g>
    <g id="xtick_5">
     <g id="text_5">
      <!-- 1.0 -->
      <g style="fill: #262626" transform="translate(188.194876 261.069219) scale(0.11 -0.11)">
       <defs>
        <path id="ArialMT-31" d="M 2384 0 
L 1822 0 
L 1822 3584 
Q 1619 3391 1289 3197 
Q 959 3003 697 2906 
L 697 3450 
Q 1169 3672 1522 3987 
Q 1875 4303 2022 4600 
L 2384 4600 
L 2384 0 
z
" transform="scale(0.015625)"/>
       </defs>
       <use xlink:href="#ArialMT-31"/>
       <use xlink:href="#ArialMT-2e" x="55.615234"/>
       <use xlink:href="#ArialMT-30" x="83.398438"/>
      </g>
     </g>
    </g>
    <g id="xtick_6">
     <g id="text_6">
      <!-- 1.1 -->
      <g style="fill: #262626" transform="translate(223.214223 261.069219) scale(0.11 -0.11)">
       <use xlink:href="#ArialMT-31"/>
       <use xlink:href="#ArialMT-2e" x="55.615234"/>
       <use xlink:href="#ArialMT-31" x="83.398438"/>
      </g>
     </g>
    </g>
    <g id="xtick_7">
     <g id="text_7">
      <!-- 1.2 -->
      <g style="fill: #262626" transform="translate(258.23357 261.069219) scale(0.11 -0.11)">
       <defs>
        <path id="ArialMT-32" d="M 3222 541 
L 3222 0 
L 194 0 
Q 188 203 259 391 
Q 375 700 629 1000 
Q 884 1300 1366 1694 
Q 2113 2306 2375 2664 
Q 2638 3022 2638 3341 
Q 2638 3675 2398 3904 
Q 2159 4134 1775 4134 
Q 1369 4134 1125 3890 
Q 881 3647 878 3216 
L 300 3275 
Q 359 3922 746 4261 
Q 1134 4600 1788 4600 
Q 2447 4600 2831 4234 
Q 3216 3869 3216 3328 
Q 3216 3053 3103 2787 
Q 2991 2522 2730 2228 
Q 2469 1934 1863 1422 
Q 1356 997 1212 845 
Q 1069 694 975 541 
L 3222 541 
z
" transform="scale(0.015625)"/>
       </defs>
       <use xlink:href="#ArialMT-31"/>
       <use xlink:href="#ArialMT-2e" x="55.615234"/>
       <use xlink:href="#ArialMT-32" x="83.398438"/>
      </g>
     </g>
    </g>
    <g id="xtick_8">
     <g id="text_8">
      <!-- 1.3 -->
      <g style="fill: #262626" transform="translate(293.252918 261.069219) scale(0.11 -0.11)">
       <defs>
        <path id="ArialMT-33" d="M 269 1209 
L 831 1284 
Q 928 806 1161 595 
Q 1394 384 1728 384 
Q 2125 384 2398 659 
Q 2672 934 2672 1341 
Q 2672 1728 2419 1979 
Q 2166 2231 1775 2231 
Q 1616 2231 1378 2169 
L 1441 2663 
Q 1497 2656 1531 2656 
Q 1891 2656 2178 2843 
Q 2466 3031 2466 3422 
Q 2466 3731 2256 3934 
Q 2047 4138 1716 4138 
Q 1388 4138 1169 3931 
Q 950 3725 888 3313 
L 325 3413 
Q 428 3978 793 4289 
Q 1159 4600 1703 4600 
Q 2078 4600 2393 4439 
Q 2709 4278 2876 4000 
Q 3044 3722 3044 3409 
Q 3044 3113 2884 2869 
Q 2725 2625 2413 2481 
Q 2819 2388 3044 2092 
Q 3269 1797 3269 1353 
Q 3269 753 2831 336 
Q 2394 -81 1725 -81 
Q 1122 -81 723 278 
Q 325 638 269 1209 
z
" transform="scale(0.015625)"/>
       </defs>
       <use xlink:href="#ArialMT-31"/>
       <use xlink:href="#ArialMT-2e" x="55.615234"/>
       <use xlink:href="#ArialMT-33" x="83.398438"/>
      </g>
     </g>
    </g>
    <g id="xtick_9">
     <g id="text_9">
      <!-- 1.4 -->
      <g style="fill: #262626" transform="translate(328.272265 261.069219) scale(0.11 -0.11)">
       <defs>
        <path id="ArialMT-34" d="M 2069 0 
L 2069 1097 
L 81 1097 
L 81 1613 
L 2172 4581 
L 2631 4581 
L 2631 1613 
L 3250 1613 
L 3250 1097 
L 2631 1097 
L 2631 0 
L 2069 0 
z
M 2069 1613 
L 2069 3678 
L 634 1613 
L 2069 1613 
z
" transform="scale(0.015625)"/>
       </defs>
       <use xlink:href="#ArialMT-31"/>
       <use xlink:href="#ArialMT-2e" x="55.615234"/>
       <use xlink:href="#ArialMT-34" x="83.398438"/>
      </g>
     </g>
    </g>
    <g id="text_10">
     <!-- y_train -->
     <g style="fill: #262626" transform="translate(181.279318 275.844844) scale(0.12 -0.12)">
      <defs>
       <path id="ArialMT-79" d="M 397 -1278 
L 334 -750 
Q 519 -800 656 -800 
Q 844 -800 956 -737 
Q 1069 -675 1141 -563 
Q 1194 -478 1313 -144 
Q 1328 -97 1363 -6 
L 103 3319 
L 709 3319 
L 1400 1397 
Q 1534 1031 1641 628 
Q 1738 1016 1872 1384 
L 2581 3319 
L 3144 3319 
L 1881 -56 
Q 1678 -603 1566 -809 
Q 1416 -1088 1222 -1217 
Q 1028 -1347 759 -1347 
Q 597 -1347 397 -1278 
z
" transform="scale(0.015625)"/>
       <path id="ArialMT-5f" d="M -97 -1272 
L -97 -866 
L 3631 -866 
L 3631 -1272 
L -97 -1272 
z
" transform="scale(0.015625)"/>
       <path id="ArialMT-74" d="M 1650 503 
L 1731 6 
Q 1494 -44 1306 -44 
Q 1000 -44 831 53 
Q 663 150 594 308 
Q 525 466 525 972 
L 525 2881 
L 113 2881 
L 113 3319 
L 525 3319 
L 525 4141 
L 1084 4478 
L 1084 3319 
L 1650 3319 
L 1650 2881 
L 1084 2881 
L 1084 941 
Q 1084 700 1114 631 
Q 1144 563 1211 522 
Q 1278 481 1403 481 
Q 1497 481 1650 503 
z
" transform="scale(0.015625)"/>
       <path id="ArialMT-72" d="M 416 0 
L 416 3319 
L 922 3319 
L 922 2816 
Q 1116 3169 1280 3281 
Q 1444 3394 1641 3394 
Q 1925 3394 2219 3213 
L 2025 2691 
Q 1819 2813 1613 2813 
Q 1428 2813 1281 2702 
Q 1134 2591 1072 2394 
Q 978 2094 978 1738 
L 978 0 
L 416 0 
z
" transform="scale(0.015625)"/>
       <path id="ArialMT-61" d="M 2588 409 
Q 2275 144 1986 34 
Q 1697 -75 1366 -75 
Q 819 -75 525 192 
Q 231 459 231 875 
Q 231 1119 342 1320 
Q 453 1522 633 1644 
Q 813 1766 1038 1828 
Q 1203 1872 1538 1913 
Q 2219 1994 2541 2106 
Q 2544 2222 2544 2253 
Q 2544 2597 2384 2738 
Q 2169 2928 1744 2928 
Q 1347 2928 1158 2789 
Q 969 2650 878 2297 
L 328 2372 
Q 403 2725 575 2942 
Q 747 3159 1072 3276 
Q 1397 3394 1825 3394 
Q 2250 3394 2515 3294 
Q 2781 3194 2906 3042 
Q 3031 2891 3081 2659 
Q 3109 2516 3109 2141 
L 3109 1391 
Q 3109 606 3145 398 
Q 3181 191 3288 0 
L 2700 0 
Q 2613 175 2588 409 
z
M 2541 1666 
Q 2234 1541 1622 1453 
Q 1275 1403 1131 1340 
Q 988 1278 909 1158 
Q 831 1038 831 891 
Q 831 666 1001 516 
Q 1172 366 1500 366 
Q 1825 366 2078 508 
Q 2331 650 2450 897 
Q 2541 1088 2541 1459 
L 2541 1666 
z
" transform="scale(0.015625)"/>
       <path id="ArialMT-69" d="M 425 3934 
L 425 4581 
L 988 4581 
L 988 3934 
L 425 3934 
z
M 425 0 
L 425 3319 
L 988 3319 
L 988 0 
L 425 0 
z
" transform="scale(0.015625)"/>
       <path id="ArialMT-6e" d="M 422 0 
L 422 3319 
L 928 3319 
L 928 2847 
Q 1294 3394 1984 3394 
Q 2284 3394 2536 3286 
Q 2788 3178 2913 3003 
Q 3038 2828 3088 2588 
Q 3119 2431 3119 2041 
L 3119 0 
L 2556 0 
L 2556 2019 
Q 2556 2363 2490 2533 
Q 2425 2703 2258 2804 
Q 2091 2906 1866 2906 
Q 1506 2906 1245 2678 
Q 984 2450 984 1813 
L 984 0 
L 422 0 
z
" transform="scale(0.015625)"/>
      </defs>
      <use xlink:href="#ArialMT-79"/>
      <use xlink:href="#ArialMT-5f" x="50"/>
      <use xlink:href="#ArialMT-74" x="105.615234"/>
      <use xlink:href="#ArialMT-72" x="133.398438"/>
      <use xlink:href="#ArialMT-61" x="166.699219"/>
      <use xlink:href="#ArialMT-69" x="222.314453"/>
      <use xlink:href="#ArialMT-6e" x="244.53125"/>
     </g>
    </g>
    <g id="text_11">
     <!-- 1e8 -->
     <g style="fill: #262626" transform="translate(333.117543 274.129063) scale(0.11 -0.11)">
      <defs>
       <path id="ArialMT-65" d="M 2694 1069 
L 3275 997 
Q 3138 488 2766 206 
Q 2394 -75 1816 -75 
Q 1088 -75 661 373 
Q 234 822 234 1631 
Q 234 2469 665 2931 
Q 1097 3394 1784 3394 
Q 2450 3394 2872 2941 
Q 3294 2488 3294 1666 
Q 3294 1616 3291 1516 
L 816 1516 
Q 847 969 1125 678 
Q 1403 388 1819 388 
Q 2128 388 2347 550 
Q 2566 713 2694 1069 
z
M 847 1978 
L 2700 1978 
Q 2663 2397 2488 2606 
Q 2219 2931 1791 2931 
Q 1403 2931 1139 2672 
Q 875 2413 847 1978 
z
" transform="scale(0.015625)"/>
      </defs>
      <use xlink:href="#ArialMT-31"/>
      <use xlink:href="#ArialMT-65" x="55.615234"/>
      <use xlink:href="#ArialMT-38" x="111.230469"/>
     </g>
    </g>
   </g>
   <g id="matplotlib.axis_2">
    <g id="ytick_1">
     <g id="text_12">
      <!-- 0.6 -->
      <g style="fill: #262626" transform="translate(22.315 241.324558) scale(0.11 -0.11)">
       <use xlink:href="#ArialMT-30"/>
       <use xlink:href="#ArialMT-2e" x="55.615234"/>
       <use xlink:href="#ArialMT-36" x="83.398438"/>
      </g>
     </g>
    </g>
    <g id="ytick_2">
     <g id="text_13">
      <!-- 0.7 -->
      <g style="fill: #262626" transform="translate(22.315 215.809387) scale(0.11 -0.11)">
       <use xlink:href="#ArialMT-30"/>
       <use xlink:href="#ArialMT-2e" x="55.615234"/>
       <use xlink:href="#ArialMT-37" x="83.398438"/>
      </g>
     </g>
    </g>
    <g id="ytick_3">
     <g id="text_14">
      <!-- 0.8 -->
      <g style="fill: #262626" transform="translate(22.315 190.294215) scale(0.11 -0.11)">
       <use xlink:href="#ArialMT-30"/>
       <use xlink:href="#ArialMT-2e" x="55.615234"/>
       <use xlink:href="#ArialMT-38" x="83.398438"/>
      </g>
     </g>
    </g>
    <g id="ytick_4">
     <g id="text_15">
      <!-- 0.9 -->
      <g style="fill: #262626" transform="translate(22.315 164.779043) scale(0.11 -0.11)">
       <use xlink:href="#ArialMT-30"/>
       <use xlink:href="#ArialMT-2e" x="55.615234"/>
       <use xlink:href="#ArialMT-39" x="83.398438"/>
      </g>
     </g>
    </g>
    <g id="ytick_5">
     <g id="text_16">
      <!-- 1.0 -->
      <g style="fill: #262626" transform="translate(22.315 139.263871) scale(0.11 -0.11)">
       <use xlink:href="#ArialMT-31"/>
       <use xlink:href="#ArialMT-2e" x="55.615234"/>
       <use xlink:href="#ArialMT-30" x="83.398438"/>
      </g>
     </g>
    </g>
    <g id="ytick_6">
     <g id="text_17">
      <!-- 1.1 -->
      <g style="fill: #262626" transform="translate(22.315 113.7487) scale(0.11 -0.11)">
       <use xlink:href="#ArialMT-31"/>
       <use xlink:href="#ArialMT-2e" x="55.615234"/>
       <use xlink:href="#ArialMT-31" x="83.398438"/>
      </g>
     </g>
    </g>
    <g id="ytick_7">
     <g id="text_18">
      <!-- 1.2 -->
      <g style="fill: #262626" transform="translate(22.315 88.233528) scale(0.11 -0.11)">
       <use xlink:href="#ArialMT-31"/>
       <use xlink:href="#ArialMT-2e" x="55.615234"/>
       <use xlink:href="#ArialMT-32" x="83.398438"/>
      </g>
     </g>
    </g>
    <g id="ytick_8">
     <g id="text_19">
      <!-- 1.3 -->
      <g style="fill: #262626" transform="translate(22.315 62.718356) scale(0.11 -0.11)">
       <use xlink:href="#ArialMT-31"/>
       <use xlink:href="#ArialMT-2e" x="55.615234"/>
       <use xlink:href="#ArialMT-33" x="83.398438"/>
      </g>
     </g>
    </g>
    <g id="ytick_9">
     <g id="text_20">
      <!-- 1.4 -->
      <g style="fill: #262626" transform="translate(22.315 37.203185) scale(0.11 -0.11)">
       <use xlink:href="#ArialMT-31"/>
       <use xlink:href="#ArialMT-2e" x="55.615234"/>
       <use xlink:href="#ArialMT-34" x="83.398438"/>
      </g>
     </g>
    </g>
    <g id="text_21">
     <!-- y_pred -->
     <g style="fill: #262626" transform="translate(15.789375 151.159688) rotate(-90) scale(0.12 -0.12)">
      <defs>
       <path id="ArialMT-70" d="M 422 -1272 
L 422 3319 
L 934 3319 
L 934 2888 
Q 1116 3141 1344 3267 
Q 1572 3394 1897 3394 
Q 2322 3394 2647 3175 
Q 2972 2956 3137 2557 
Q 3303 2159 3303 1684 
Q 3303 1175 3120 767 
Q 2938 359 2589 142 
Q 2241 -75 1856 -75 
Q 1575 -75 1351 44 
Q 1128 163 984 344 
L 984 -1272 
L 422 -1272 
z
M 931 1641 
Q 931 1000 1190 694 
Q 1450 388 1819 388 
Q 2194 388 2461 705 
Q 2728 1022 2728 1688 
Q 2728 2322 2467 2637 
Q 2206 2953 1844 2953 
Q 1484 2953 1207 2617 
Q 931 2281 931 1641 
z
" transform="scale(0.015625)"/>
       <path id="ArialMT-64" d="M 2575 0 
L 2575 419 
Q 2259 -75 1647 -75 
Q 1250 -75 917 144 
Q 584 363 401 755 
Q 219 1147 219 1656 
Q 219 2153 384 2558 
Q 550 2963 881 3178 
Q 1213 3394 1622 3394 
Q 1922 3394 2156 3267 
Q 2391 3141 2538 2938 
L 2538 4581 
L 3097 4581 
L 3097 0 
L 2575 0 
z
M 797 1656 
Q 797 1019 1065 703 
Q 1334 388 1700 388 
Q 2069 388 2326 689 
Q 2584 991 2584 1609 
Q 2584 2291 2321 2609 
Q 2059 2928 1675 2928 
Q 1300 2928 1048 2622 
Q 797 2316 797 1656 
z
" transform="scale(0.015625)"/>
      </defs>
      <use xlink:href="#ArialMT-79"/>
      <use xlink:href="#ArialMT-5f" x="50"/>
      <use xlink:href="#ArialMT-70" x="105.615234"/>
      <use xlink:href="#ArialMT-72" x="161.230469"/>
      <use xlink:href="#ArialMT-65" x="194.53125"/>
      <use xlink:href="#ArialMT-64" x="250.146484"/>
     </g>
    </g>
    <g id="text_22">
     <!-- 1e8 -->
     <g style="fill: #262626" transform="translate(47.105 18.935625) scale(0.11 -0.11)">
      <use xlink:href="#ArialMT-31"/>
      <use xlink:href="#ArialMT-65" x="55.615234"/>
      <use xlink:href="#ArialMT-38" x="111.230469"/>
     </g>
    </g>
   </g>
   <g id="PathCollection_1">
    <defs>
     <path id="m1fb2aad246" d="M 0 3 
C 0.795609 3 1.55874 2.683901 2.12132 2.12132 
C 2.683901 1.55874 3 0.795609 3 0 
C 3 -0.795609 2.683901 -1.55874 2.12132 -2.12132 
C 1.55874 -2.683901 0.795609 -3 0 -3 
C -0.795609 -3 -1.55874 -2.683901 -2.12132 -2.12132 
C -2.683901 -1.55874 -3 -0.795609 -3 0 
C -3 0.795609 -2.683901 1.55874 -2.12132 2.12132 
C -1.55874 2.683901 -0.795609 3 0 3 
z
" style="stroke: #2e1e3b; stroke-opacity: 0.1"/>
    </defs>
    <g clip-path="url(#p4763ff4eea)">
     <use xlink:href="#m1fb2aad246" x="158.841387" y="152.07751" style="fill: #2e1e3b; fill-opacity: 0.1; stroke: #2e1e3b; stroke-opacity: 0.1"/>
     <use xlink:href="#m1fb2aad246" x="130.289519" y="175.546317" style="fill: #2e1e3b; fill-opacity: 0.1; stroke: #2e1e3b; stroke-opacity: 0.1"/>
     <use xlink:href="#m1fb2aad246" x="124.669439" y="175.854137" style="fill: #2e1e3b; fill-opacity: 0.1; stroke: #2e1e3b; stroke-opacity: 0.1"/>
     <use xlink:href="#m1fb2aad246" x="151.527504" y="173.444349" style="fill: #2e1e3b; fill-opacity: 0.1; stroke: #2e1e3b; stroke-opacity: 0.1"/>
     <use xlink:href="#m1fb2aad246" x="128.754756" y="184.300785" style="fill: #2e1e3b; fill-opacity: 0.1; stroke: #2e1e3b; stroke-opacity: 0.1"/>
     <use xlink:href="#m1fb2aad246" x="142.411149" y="176.926521" style="fill: #2e1e3b; fill-opacity: 0.1; stroke: #2e1e3b; stroke-opacity: 0.1"/>
     <use xlink:href="#m1fb2aad246" x="148.251018" y="168.336965" style="fill: #2e1e3b; fill-opacity: 0.1; stroke: #2e1e3b; stroke-opacity: 0.1"/>
     <use xlink:href="#m1fb2aad246" x="157.935967" y="172.512689" style="fill: #2e1e3b; fill-opacity: 0.1; stroke: #2e1e3b; stroke-opacity: 0.1"/>
     <use xlink:href="#m1fb2aad246" x="139.158688" y="168.199534" style="fill: #2e1e3b; fill-opacity: 0.1; stroke: #2e1e3b; stroke-opacity: 0.1"/>
     <use xlink:href="#m1fb2aad246" x="237.134136" y="138.767344" style="fill: #2e1e3b; fill-opacity: 0.1; stroke: #2e1e3b; stroke-opacity: 0.1"/>
     <use xlink:href="#m1fb2aad246" x="191.89621" y="146.126324" style="fill: #2e1e3b; fill-opacity: 0.1; stroke: #2e1e3b; stroke-opacity: 0.1"/>
     <use xlink:href="#m1fb2aad246" x="148.132994" y="167.160539" style="fill: #2e1e3b; fill-opacity: 0.1; stroke: #2e1e3b; stroke-opacity: 0.1"/>
     <use xlink:href="#m1fb2aad246" x="179.542663" y="155.442306" style="fill: #2e1e3b; fill-opacity: 0.1; stroke: #2e1e3b; stroke-opacity: 0.1"/>
     <use xlink:href="#m1fb2aad246" x="165.706159" y="149.634141" style="fill: #2e1e3b; fill-opacity: 0.1; stroke: #2e1e3b; stroke-opacity: 0.1"/>
     <use xlink:href="#m1fb2aad246" x="190.440875" y="144.819838" style="fill: #2e1e3b; fill-opacity: 0.1; stroke: #2e1e3b; stroke-opacity: 0.1"/>
     <use xlink:href="#m1fb2aad246" x="194.977294" y="137.072715" style="fill: #2e1e3b; fill-opacity: 0.1; stroke: #2e1e3b; stroke-opacity: 0.1"/>
     <use xlink:href="#m1fb2aad246" x="183.030247" y="154.561411" style="fill: #2e1e3b; fill-opacity: 0.1; stroke: #2e1e3b; stroke-opacity: 0.1"/>
     <use xlink:href="#m1fb2aad246" x="151.26953" y="155.384282" style="fill: #2e1e3b; fill-opacity: 0.1; stroke: #2e1e3b; stroke-opacity: 0.1"/>
     <use xlink:href="#m1fb2aad246" x="203.18334" y="145.948748" style="fill: #2e1e3b; fill-opacity: 0.1; stroke: #2e1e3b; stroke-opacity: 0.1"/>
     <use xlink:href="#m1fb2aad246" x="143.863973" y="156.15973" style="fill: #2e1e3b; fill-opacity: 0.1; stroke: #2e1e3b; stroke-opacity: 0.1"/>
     <use xlink:href="#m1fb2aad246" x="150.793134" y="155.262329" style="fill: #2e1e3b; fill-opacity: 0.1; stroke: #2e1e3b; stroke-opacity: 0.1"/>
     <use xlink:href="#m1fb2aad246" x="133.891841" y="169.662172" style="fill: #2e1e3b; fill-opacity: 0.1; stroke: #2e1e3b; stroke-opacity: 0.1"/>
     <use xlink:href="#m1fb2aad246" x="132.521154" y="172.270721" style="fill: #2e1e3b; fill-opacity: 0.1; stroke: #2e1e3b; stroke-opacity: 0.1"/>
     <use xlink:href="#m1fb2aad246" x="161.03996" y="170.456847" style="fill: #2e1e3b; fill-opacity: 0.1; stroke: #2e1e3b; stroke-opacity: 0.1"/>
     <use xlink:href="#m1fb2aad246" x="147.785582" y="179.814893" style="fill: #2e1e3b; fill-opacity: 0.1; stroke: #2e1e3b; stroke-opacity: 0.1"/>
     <use xlink:href="#m1fb2aad246" x="126.90946" y="177.503679" style="fill: #2e1e3b; fill-opacity: 0.1; stroke: #2e1e3b; stroke-opacity: 0.1"/>
     <use xlink:href="#m1fb2aad246" x="128.143836" y="180.280974" style="fill: #2e1e3b; fill-opacity: 0.1; stroke: #2e1e3b; stroke-opacity: 0.1"/>
     <use xlink:href="#m1fb2aad246" x="161.806721" y="176.391432" style="fill: #2e1e3b; fill-opacity: 0.1; stroke: #2e1e3b; stroke-opacity: 0.1"/>
     <use xlink:href="#m1fb2aad246" x="140.87486" y="180.074562" style="fill: #2e1e3b; fill-opacity: 0.1; stroke: #2e1e3b; stroke-opacity: 0.1"/>
     <use xlink:href="#m1fb2aad246" x="124.820312" y="179.659685" style="fill: #2e1e3b; fill-opacity: 0.1; stroke: #2e1e3b; stroke-opacity: 0.1"/>
     <use xlink:href="#m1fb2aad246" x="107.986584" y="191.696201" style="fill: #2e1e3b; fill-opacity: 0.1; stroke: #2e1e3b; stroke-opacity: 0.1"/>
     <use xlink:href="#m1fb2aad246" x="112.856029" y="192.732386" style="fill: #2e1e3b; fill-opacity: 0.1; stroke: #2e1e3b; stroke-opacity: 0.1"/>
     <use xlink:href="#m1fb2aad246" x="121.415879" y="188.855037" style="fill: #2e1e3b; fill-opacity: 0.1; stroke: #2e1e3b; stroke-opacity: 0.1"/>
     <use xlink:href="#m1fb2aad246" x="125.243434" y="195.514885" style="fill: #2e1e3b; fill-opacity: 0.1; stroke: #2e1e3b; stroke-opacity: 0.1"/>
     <use xlink:href="#m1fb2aad246" x="93.878253" y="199.48918" style="fill: #2e1e3b; fill-opacity: 0.1; stroke: #2e1e3b; stroke-opacity: 0.1"/>
     <use xlink:href="#m1fb2aad246" x="142.083956" y="196.830339" style="fill: #2e1e3b; fill-opacity: 0.1; stroke: #2e1e3b; stroke-opacity: 0.1"/>
     <use xlink:href="#m1fb2aad246" x="116.882035" y="196.486238" style="fill: #2e1e3b; fill-opacity: 0.1; stroke: #2e1e3b; stroke-opacity: 0.1"/>
     <use xlink:href="#m1fb2aad246" x="117.296732" y="201.24041" style="fill: #2e1e3b; fill-opacity: 0.1; stroke: #2e1e3b; stroke-opacity: 0.1"/>
     <use xlink:href="#m1fb2aad246" x="84.784475" y="197.679026" style="fill: #2e1e3b; fill-opacity: 0.1; stroke: #2e1e3b; stroke-opacity: 0.1"/>
     <use xlink:href="#m1fb2aad246" x="60.939711" y="199.262998" style="fill: #2e1e3b; fill-opacity: 0.1; stroke: #2e1e3b; stroke-opacity: 0.1"/>
     <use xlink:href="#m1fb2aad246" x="118.960465" y="196.226922" style="fill: #2e1e3b; fill-opacity: 0.1; stroke: #2e1e3b; stroke-opacity: 0.1"/>
     <use xlink:href="#m1fb2aad246" x="112.278213" y="194.53709" style="fill: #2e1e3b; fill-opacity: 0.1; stroke: #2e1e3b; stroke-opacity: 0.1"/>
     <use xlink:href="#m1fb2aad246" x="83.896713" y="198.577517" style="fill: #2e1e3b; fill-opacity: 0.1; stroke: #2e1e3b; stroke-opacity: 0.1"/>
     <use xlink:href="#m1fb2aad246" x="104.113713" y="189.340826" style="fill: #2e1e3b; fill-opacity: 0.1; stroke: #2e1e3b; stroke-opacity: 0.1"/>
     <use xlink:href="#m1fb2aad246" x="205.917574" y="150.354397" style="fill: #2e1e3b; fill-opacity: 0.1; stroke: #2e1e3b; stroke-opacity: 0.1"/>
     <use xlink:href="#m1fb2aad246" x="180.855149" y="147.362985" style="fill: #2e1e3b; fill-opacity: 0.1; stroke: #2e1e3b; stroke-opacity: 0.1"/>
     <use xlink:href="#m1fb2aad246" x="171.997441" y="146.234765" style="fill: #2e1e3b; fill-opacity: 0.1; stroke: #2e1e3b; stroke-opacity: 0.1"/>
     <use xlink:href="#m1fb2aad246" x="159.437069" y="150.181466" style="fill: #2e1e3b; fill-opacity: 0.1; stroke: #2e1e3b; stroke-opacity: 0.1"/>
     <use xlink:href="#m1fb2aad246" x="174.864743" y="127.823893" style="fill: #2e1e3b; fill-opacity: 0.1; stroke: #2e1e3b; stroke-opacity: 0.1"/>
     <use xlink:href="#m1fb2aad246" x="337.633926" y="107.641044" style="fill: #2e1e3b; fill-opacity: 0.1; stroke: #2e1e3b; stroke-opacity: 0.1"/>
     <use xlink:href="#m1fb2aad246" x="192.665082" y="126.585864" style="fill: #2e1e3b; fill-opacity: 0.1; stroke: #2e1e3b; stroke-opacity: 0.1"/>
     <use xlink:href="#m1fb2aad246" x="157.46463" y="133.144672" style="fill: #2e1e3b; fill-opacity: 0.1; stroke: #2e1e3b; stroke-opacity: 0.1"/>
     <use xlink:href="#m1fb2aad246" x="195.911594" y="129.5165" style="fill: #2e1e3b; fill-opacity: 0.1; stroke: #2e1e3b; stroke-opacity: 0.1"/>
     <use xlink:href="#m1fb2aad246" x="180.266137" y="128.595725" style="fill: #2e1e3b; fill-opacity: 0.1; stroke: #2e1e3b; stroke-opacity: 0.1"/>
     <use xlink:href="#m1fb2aad246" x="192.255351" y="126.585864" style="fill: #2e1e3b; fill-opacity: 0.1; stroke: #2e1e3b; stroke-opacity: 0.1"/>
     <use xlink:href="#m1fb2aad246" x="192.473318" y="133.144672" style="fill: #2e1e3b; fill-opacity: 0.1; stroke: #2e1e3b; stroke-opacity: 0.1"/>
     <use xlink:href="#m1fb2aad246" x="187.591125" y="132.043772" style="fill: #2e1e3b; fill-opacity: 0.1; stroke: #2e1e3b; stroke-opacity: 0.1"/>
     <use xlink:href="#m1fb2aad246" x="166.420538" y="128.595725" style="fill: #2e1e3b; fill-opacity: 0.1; stroke: #2e1e3b; stroke-opacity: 0.1"/>
     <use xlink:href="#m1fb2aad246" x="195.903824" y="126.585864" style="fill: #2e1e3b; fill-opacity: 0.1; stroke: #2e1e3b; stroke-opacity: 0.1"/>
     <use xlink:href="#m1fb2aad246" x="201.045316" y="128.595725" style="fill: #2e1e3b; fill-opacity: 0.1; stroke: #2e1e3b; stroke-opacity: 0.1"/>
     <use xlink:href="#m1fb2aad246" x="226.408002" y="128.595725" style="fill: #2e1e3b; fill-opacity: 0.1; stroke: #2e1e3b; stroke-opacity: 0.1"/>
     <use xlink:href="#m1fb2aad246" x="256.363468" y="128.595725" style="fill: #2e1e3b; fill-opacity: 0.1; stroke: #2e1e3b; stroke-opacity: 0.1"/>
     <use xlink:href="#m1fb2aad246" x="287.258153" y="128.595725" style="fill: #2e1e3b; fill-opacity: 0.1; stroke: #2e1e3b; stroke-opacity: 0.1"/>
     <use xlink:href="#m1fb2aad246" x="224.952937" y="128.595725" style="fill: #2e1e3b; fill-opacity: 0.1; stroke: #2e1e3b; stroke-opacity: 0.1"/>
     <use xlink:href="#m1fb2aad246" x="198.048689" y="128.595725" style="fill: #2e1e3b; fill-opacity: 0.1; stroke: #2e1e3b; stroke-opacity: 0.1"/>
    </g>
   </g>
   <g id="line2d_1">
    <path d="M 158.841387 162.284253 
L 130.289519 183.087206 
L 124.669439 187.182008 
L 151.527504 167.613164 
L 128.754756 184.205437 
L 142.411149 174.25536 
L 148.251018 170.000419 
L 157.935967 162.943944 
L 139.158688 176.62511 
L 237.134136 105.239988 
L 191.89621 138.200438 
L 148.132994 170.086411 
L 179.542663 147.201259 
L 165.706159 157.282566 
L 190.440875 139.260798 
L 194.977294 135.955553 
L 183.030247 144.660198 
L 151.26953 167.801125 
L 203.18334 129.976611 
L 143.863973 173.196829 
L 150.793134 168.148228 
L 133.891841 180.462546 
L 132.521154 181.461231 
L 161.03996 160.682368 
L 147.785582 170.339536 
L 126.90946 185.549924 
L 128.143836 184.650555 
L 161.806721 160.123704 
L 140.87486 175.374703 
L 124.820312 187.072081 
L 107.986584 199.337172 
L 112.856029 195.789284 
L 121.415879 189.552559 
L 125.243434 186.763794 
L 93.878253 209.616532 
L 142.083956 174.493753 
L 116.882035 192.855927 
L 117.296732 192.553778 
L 84.784475 216.242279 
L 60.939711 233.615625 
L 118.960465 191.341579 
L 112.278213 196.210282 
L 83.896713 216.889103 
L 104.113713 202.158954 
L 205.917574 127.984442 
L 180.855149 146.244979 
L 171.997441 152.698724 
L 159.437069 161.850238 
L 174.864743 150.609602 
L 337.633926 32.015625 
L 192.665082 137.640236 
L 157.46463 163.287362 
L 195.911594 135.27482 
L 180.266137 146.674134 
L 192.255351 137.938767 
L 192.473318 137.779956 
L 187.591125 141.337132 
L 166.420538 156.762068 
L 195.903824 135.280482 
L 201.045316 131.534379 
L 226.408002 113.055072 
L 256.363468 91.229455 
L 287.258153 68.719521 
L 224.952937 114.115236 
L 198.048689 133.717728 
" clip-path="url(#p4763ff4eea)" style="fill: none; stroke-dasharray: 1.5,2.475; stroke-dashoffset: 0; stroke: #ff0000; stroke-width: 1.5"/>
   </g>
   <g id="patch_3">
    <path d="M 47.105 243.695625 
L 47.105 21.935625 
" style="fill: none; stroke: #262626; stroke-width: 1.25; stroke-linejoin: miter; stroke-linecap: square"/>
   </g>
   <g id="patch_4">
    <path d="M 351.468636 243.695625 
L 351.468636 21.935625 
" style="fill: none; stroke: #262626; stroke-width: 1.25; stroke-linejoin: miter; stroke-linecap: square"/>
   </g>
   <g id="patch_5">
    <path d="M 47.105 243.695625 
L 351.468636 243.695625 
" style="fill: none; stroke: #262626; stroke-width: 1.25; stroke-linejoin: miter; stroke-linecap: square"/>
   </g>
   <g id="patch_6">
    <path d="M 47.105 21.935625 
L 351.468636 21.935625 
" style="fill: none; stroke: #262626; stroke-width: 1.25; stroke-linejoin: miter; stroke-linecap: square"/>
   </g>
   <g id="text_23">
    <!-- Train MAPE: 0.0537 (&lt;&gt; 0.1146) -->
    <g style="fill: #262626" transform="translate(113.243068 15.935625) scale(0.12 -0.12)">
     <defs>
      <path id="ArialMT-54" d="M 1659 0 
L 1659 4041 
L 150 4041 
L 150 4581 
L 3781 4581 
L 3781 4041 
L 2266 4041 
L 2266 0 
L 1659 0 
z
" transform="scale(0.015625)"/>
      <path id="ArialMT-20" transform="scale(0.015625)"/>
      <path id="ArialMT-4d" d="M 475 0 
L 475 4581 
L 1388 4581 
L 2472 1338 
Q 2622 884 2691 659 
Q 2769 909 2934 1394 
L 4031 4581 
L 4847 4581 
L 4847 0 
L 4263 0 
L 4263 3834 
L 2931 0 
L 2384 0 
L 1059 3900 
L 1059 0 
L 475 0 
z
" transform="scale(0.015625)"/>
      <path id="ArialMT-41" d="M -9 0 
L 1750 4581 
L 2403 4581 
L 4278 0 
L 3588 0 
L 3053 1388 
L 1138 1388 
L 634 0 
L -9 0 
z
M 1313 1881 
L 2866 1881 
L 2388 3150 
Q 2169 3728 2063 4100 
Q 1975 3659 1816 3225 
L 1313 1881 
z
" transform="scale(0.015625)"/>
      <path id="ArialMT-50" d="M 494 0 
L 494 4581 
L 2222 4581 
Q 2678 4581 2919 4538 
Q 3256 4481 3484 4323 
Q 3713 4166 3852 3881 
Q 3991 3597 3991 3256 
Q 3991 2672 3619 2267 
Q 3247 1863 2275 1863 
L 1100 1863 
L 1100 0 
L 494 0 
z
M 1100 2403 
L 2284 2403 
Q 2872 2403 3119 2622 
Q 3366 2841 3366 3238 
Q 3366 3525 3220 3729 
Q 3075 3934 2838 4000 
Q 2684 4041 2272 4041 
L 1100 4041 
L 1100 2403 
z
" transform="scale(0.015625)"/>
      <path id="ArialMT-45" d="M 506 0 
L 506 4581 
L 3819 4581 
L 3819 4041 
L 1113 4041 
L 1113 2638 
L 3647 2638 
L 3647 2100 
L 1113 2100 
L 1113 541 
L 3925 541 
L 3925 0 
L 506 0 
z
" transform="scale(0.015625)"/>
      <path id="ArialMT-3a" d="M 578 2678 
L 578 3319 
L 1219 3319 
L 1219 2678 
L 578 2678 
z
M 578 0 
L 578 641 
L 1219 641 
L 1219 0 
L 578 0 
z
" transform="scale(0.015625)"/>
      <path id="ArialMT-35" d="M 266 1200 
L 856 1250 
Q 922 819 1161 601 
Q 1400 384 1738 384 
Q 2144 384 2425 690 
Q 2706 997 2706 1503 
Q 2706 1984 2436 2262 
Q 2166 2541 1728 2541 
Q 1456 2541 1237 2417 
Q 1019 2294 894 2097 
L 366 2166 
L 809 4519 
L 3088 4519 
L 3088 3981 
L 1259 3981 
L 1013 2750 
Q 1425 3038 1878 3038 
Q 2478 3038 2890 2622 
Q 3303 2206 3303 1553 
Q 3303 931 2941 478 
Q 2500 -78 1738 -78 
Q 1113 -78 717 272 
Q 322 622 266 1200 
z
" transform="scale(0.015625)"/>
      <path id="ArialMT-28" d="M 1497 -1347 
Q 1031 -759 709 28 
Q 388 816 388 1659 
Q 388 2403 628 3084 
Q 909 3875 1497 4659 
L 1900 4659 
Q 1522 4009 1400 3731 
Q 1209 3300 1100 2831 
Q 966 2247 966 1656 
Q 966 153 1900 -1347 
L 1497 -1347 
z
" transform="scale(0.015625)"/>
      <path id="ArialMT-3c" d="M 350 2003 
L 350 2528 
L 3384 3809 
L 3384 3250 
L 978 2263 
L 3384 1266 
L 3384 706 
L 350 2003 
z
" transform="scale(0.015625)"/>
      <path id="ArialMT-3e" d="M 3384 2003 
L 350 706 
L 350 1266 
L 2753 2263 
L 350 3250 
L 350 3809 
L 3384 2528 
L 3384 2003 
z
" transform="scale(0.015625)"/>
      <path id="ArialMT-29" d="M 791 -1347 
L 388 -1347 
Q 1322 153 1322 1656 
Q 1322 2244 1188 2822 
Q 1081 3291 891 3722 
Q 769 4003 388 4659 
L 791 4659 
Q 1378 3875 1659 3084 
Q 1900 2403 1900 1659 
Q 1900 816 1576 28 
Q 1253 -759 791 -1347 
z
" transform="scale(0.015625)"/>
     </defs>
     <use xlink:href="#ArialMT-54"/>
     <use xlink:href="#ArialMT-72" x="57.333984"/>
     <use xlink:href="#ArialMT-61" x="90.634766"/>
     <use xlink:href="#ArialMT-69" x="146.25"/>
     <use xlink:href="#ArialMT-6e" x="168.466797"/>
     <use xlink:href="#ArialMT-20" x="224.082031"/>
     <use xlink:href="#ArialMT-4d" x="251.865234"/>
     <use xlink:href="#ArialMT-41" x="335.166016"/>
     <use xlink:href="#ArialMT-50" x="401.865234"/>
     <use xlink:href="#ArialMT-45" x="468.564453"/>
     <use xlink:href="#ArialMT-3a" x="535.263672"/>
     <use xlink:href="#ArialMT-20" x="563.046875"/>
     <use xlink:href="#ArialMT-30" x="590.830078"/>
     <use xlink:href="#ArialMT-2e" x="646.445312"/>
     <use xlink:href="#ArialMT-30" x="674.228516"/>
     <use xlink:href="#ArialMT-35" x="729.84375"/>
     <use xlink:href="#ArialMT-33" x="785.458984"/>
     <use xlink:href="#ArialMT-37" x="841.074219"/>
     <use xlink:href="#ArialMT-20" x="896.689453"/>
     <use xlink:href="#ArialMT-28" x="924.472656"/>
     <use xlink:href="#ArialMT-3c" x="957.773438"/>
     <use xlink:href="#ArialMT-3e" x="1016.171875"/>
     <use xlink:href="#ArialMT-20" x="1074.570312"/>
     <use xlink:href="#ArialMT-30" x="1102.353516"/>
     <use xlink:href="#ArialMT-2e" x="1157.96875"/>
     <use xlink:href="#ArialMT-31" x="1185.751953"/>
     <use xlink:href="#ArialMT-31" x="1233.992188"/>
     <use xlink:href="#ArialMT-34" x="1289.607422"/>
     <use xlink:href="#ArialMT-36" x="1345.222656"/>
     <use xlink:href="#ArialMT-29" x="1400.837891"/>
    </g>
   </g>
  </g>
  <g id="axes_2">
   <g id="patch_7">
    <path d="M 412.341364 243.695625 
L 716.705 243.695625 
L 716.705 21.935625 
L 412.341364 21.935625 
z
" style="fill: #ffffff"/>
   </g>
   <g id="matplotlib.axis_3">
    <g id="xtick_10">
     <g id="text_24">
      <!-- 0.6 -->
      <g style="fill: #262626" transform="translate(413.353851 261.069219) scale(0.11 -0.11)">
       <use xlink:href="#ArialMT-30"/>
       <use xlink:href="#ArialMT-2e" x="55.615234"/>
       <use xlink:href="#ArialMT-36" x="83.398438"/>
      </g>
     </g>
    </g>
    <g id="xtick_11">
     <g id="text_25">
      <!-- 0.7 -->
      <g style="fill: #262626" transform="translate(448.373198 261.069219) scale(0.11 -0.11)">
       <use xlink:href="#ArialMT-30"/>
       <use xlink:href="#ArialMT-2e" x="55.615234"/>
       <use xlink:href="#ArialMT-37" x="83.398438"/>
      </g>
     </g>
    </g>
    <g id="xtick_12">
     <g id="text_26">
      <!-- 0.8 -->
      <g style="fill: #262626" transform="translate(483.392545 261.069219) scale(0.11 -0.11)">
       <use xlink:href="#ArialMT-30"/>
       <use xlink:href="#ArialMT-2e" x="55.615234"/>
       <use xlink:href="#ArialMT-38" x="83.398438"/>
      </g>
     </g>
    </g>
    <g id="xtick_13">
     <g id="text_27">
      <!-- 0.9 -->
      <g style="fill: #262626" transform="translate(518.411892 261.069219) scale(0.11 -0.11)">
       <use xlink:href="#ArialMT-30"/>
       <use xlink:href="#ArialMT-2e" x="55.615234"/>
       <use xlink:href="#ArialMT-39" x="83.398438"/>
      </g>
     </g>
    </g>
    <g id="xtick_14">
     <g id="text_28">
      <!-- 1.0 -->
      <g style="fill: #262626" transform="translate(553.431239 261.069219) scale(0.11 -0.11)">
       <use xlink:href="#ArialMT-31"/>
       <use xlink:href="#ArialMT-2e" x="55.615234"/>
       <use xlink:href="#ArialMT-30" x="83.398438"/>
      </g>
     </g>
    </g>
    <g id="xtick_15">
     <g id="text_29">
      <!-- 1.1 -->
      <g style="fill: #262626" transform="translate(588.450587 261.069219) scale(0.11 -0.11)">
       <use xlink:href="#ArialMT-31"/>
       <use xlink:href="#ArialMT-2e" x="55.615234"/>
       <use xlink:href="#ArialMT-31" x="83.398438"/>
      </g>
     </g>
    </g>
    <g id="xtick_16">
     <g id="text_30">
      <!-- 1.2 -->
      <g style="fill: #262626" transform="translate(623.469934 261.069219) scale(0.11 -0.11)">
       <use xlink:href="#ArialMT-31"/>
       <use xlink:href="#ArialMT-2e" x="55.615234"/>
       <use xlink:href="#ArialMT-32" x="83.398438"/>
      </g>
     </g>
    </g>
    <g id="xtick_17">
     <g id="text_31">
      <!-- 1.3 -->
      <g style="fill: #262626" transform="translate(658.489281 261.069219) scale(0.11 -0.11)">
       <use xlink:href="#ArialMT-31"/>
       <use xlink:href="#ArialMT-2e" x="55.615234"/>
       <use xlink:href="#ArialMT-33" x="83.398438"/>
      </g>
     </g>
    </g>
    <g id="xtick_18">
     <g id="text_32">
      <!-- 1.4 -->
      <g style="fill: #262626" transform="translate(693.508628 261.069219) scale(0.11 -0.11)">
       <use xlink:href="#ArialMT-31"/>
       <use xlink:href="#ArialMT-2e" x="55.615234"/>
       <use xlink:href="#ArialMT-34" x="83.398438"/>
      </g>
     </g>
    </g>
    <g id="text_33">
     <!-- y_test -->
     <g style="fill: #262626" transform="translate(548.516307 275.704219) scale(0.12 -0.12)">
      <defs>
       <path id="ArialMT-73" d="M 197 991 
L 753 1078 
Q 800 744 1014 566 
Q 1228 388 1613 388 
Q 2000 388 2187 545 
Q 2375 703 2375 916 
Q 2375 1106 2209 1216 
Q 2094 1291 1634 1406 
Q 1016 1563 777 1677 
Q 538 1791 414 1992 
Q 291 2194 291 2438 
Q 291 2659 392 2848 
Q 494 3038 669 3163 
Q 800 3259 1026 3326 
Q 1253 3394 1513 3394 
Q 1903 3394 2198 3281 
Q 2494 3169 2634 2976 
Q 2775 2784 2828 2463 
L 2278 2388 
Q 2241 2644 2061 2787 
Q 1881 2931 1553 2931 
Q 1166 2931 1000 2803 
Q 834 2675 834 2503 
Q 834 2394 903 2306 
Q 972 2216 1119 2156 
Q 1203 2125 1616 2013 
Q 2213 1853 2448 1751 
Q 2684 1650 2818 1456 
Q 2953 1263 2953 975 
Q 2953 694 2789 445 
Q 2625 197 2315 61 
Q 2006 -75 1616 -75 
Q 969 -75 630 194 
Q 291 463 197 991 
z
" transform="scale(0.015625)"/>
      </defs>
      <use xlink:href="#ArialMT-79"/>
      <use xlink:href="#ArialMT-5f" x="50"/>
      <use xlink:href="#ArialMT-74" x="105.615234"/>
      <use xlink:href="#ArialMT-65" x="133.398438"/>
      <use xlink:href="#ArialMT-73" x="189.013672"/>
      <use xlink:href="#ArialMT-74" x="239.013672"/>
     </g>
    </g>
    <g id="text_34">
     <!-- 1e8 -->
     <g style="fill: #262626" transform="translate(698.353906 274.129063) scale(0.11 -0.11)">
      <use xlink:href="#ArialMT-31"/>
      <use xlink:href="#ArialMT-65" x="55.615234"/>
      <use xlink:href="#ArialMT-38" x="111.230469"/>
     </g>
    </g>
   </g>
   <g id="matplotlib.axis_4">
    <g id="ytick_10">
     <g id="text_35">
      <!-- 0.6 -->
      <g style="fill: #262626" transform="translate(387.551364 241.324558) scale(0.11 -0.11)">
       <use xlink:href="#ArialMT-30"/>
       <use xlink:href="#ArialMT-2e" x="55.615234"/>
       <use xlink:href="#ArialMT-36" x="83.398438"/>
      </g>
     </g>
    </g>
    <g id="ytick_11">
     <g id="text_36">
      <!-- 0.7 -->
      <g style="fill: #262626" transform="translate(387.551364 215.809387) scale(0.11 -0.11)">
       <use xlink:href="#ArialMT-30"/>
       <use xlink:href="#ArialMT-2e" x="55.615234"/>
       <use xlink:href="#ArialMT-37" x="83.398438"/>
      </g>
     </g>
    </g>
    <g id="ytick_12">
     <g id="text_37">
      <!-- 0.8 -->
      <g style="fill: #262626" transform="translate(387.551364 190.294215) scale(0.11 -0.11)">
       <use xlink:href="#ArialMT-30"/>
       <use xlink:href="#ArialMT-2e" x="55.615234"/>
       <use xlink:href="#ArialMT-38" x="83.398438"/>
      </g>
     </g>
    </g>
    <g id="ytick_13">
     <g id="text_38">
      <!-- 0.9 -->
      <g style="fill: #262626" transform="translate(387.551364 164.779043) scale(0.11 -0.11)">
       <use xlink:href="#ArialMT-30"/>
       <use xlink:href="#ArialMT-2e" x="55.615234"/>
       <use xlink:href="#ArialMT-39" x="83.398438"/>
      </g>
     </g>
    </g>
    <g id="ytick_14">
     <g id="text_39">
      <!-- 1.0 -->
      <g style="fill: #262626" transform="translate(387.551364 139.263871) scale(0.11 -0.11)">
       <use xlink:href="#ArialMT-31"/>
       <use xlink:href="#ArialMT-2e" x="55.615234"/>
       <use xlink:href="#ArialMT-30" x="83.398438"/>
      </g>
     </g>
    </g>
    <g id="ytick_15">
     <g id="text_40">
      <!-- 1.1 -->
      <g style="fill: #262626" transform="translate(387.551364 113.7487) scale(0.11 -0.11)">
       <use xlink:href="#ArialMT-31"/>
       <use xlink:href="#ArialMT-2e" x="55.615234"/>
       <use xlink:href="#ArialMT-31" x="83.398438"/>
      </g>
     </g>
    </g>
    <g id="ytick_16">
     <g id="text_41">
      <!-- 1.2 -->
      <g style="fill: #262626" transform="translate(387.551364 88.233528) scale(0.11 -0.11)">
       <use xlink:href="#ArialMT-31"/>
       <use xlink:href="#ArialMT-2e" x="55.615234"/>
       <use xlink:href="#ArialMT-32" x="83.398438"/>
      </g>
     </g>
    </g>
    <g id="ytick_17">
     <g id="text_42">
      <!-- 1.3 -->
      <g style="fill: #262626" transform="translate(387.551364 62.718356) scale(0.11 -0.11)">
       <use xlink:href="#ArialMT-31"/>
       <use xlink:href="#ArialMT-2e" x="55.615234"/>
       <use xlink:href="#ArialMT-33" x="83.398438"/>
      </g>
     </g>
    </g>
    <g id="ytick_18">
     <g id="text_43">
      <!-- 1.4 -->
      <g style="fill: #262626" transform="translate(387.551364 37.203185) scale(0.11 -0.11)">
       <use xlink:href="#ArialMT-31"/>
       <use xlink:href="#ArialMT-2e" x="55.615234"/>
       <use xlink:href="#ArialMT-34" x="83.398438"/>
      </g>
     </g>
    </g>
    <g id="text_44">
     <!-- y_pred -->
     <g style="fill: #262626" transform="translate(381.025739 151.159688) rotate(-90) scale(0.12 -0.12)">
      <use xlink:href="#ArialMT-79"/>
      <use xlink:href="#ArialMT-5f" x="50"/>
      <use xlink:href="#ArialMT-70" x="105.615234"/>
      <use xlink:href="#ArialMT-72" x="161.230469"/>
      <use xlink:href="#ArialMT-65" x="194.53125"/>
      <use xlink:href="#ArialMT-64" x="250.146484"/>
     </g>
    </g>
    <g id="text_45">
     <!-- 1e8 -->
     <g style="fill: #262626" transform="translate(412.341364 18.935625) scale(0.11 -0.11)">
      <use xlink:href="#ArialMT-31"/>
      <use xlink:href="#ArialMT-65" x="55.615234"/>
      <use xlink:href="#ArialMT-38" x="111.230469"/>
     </g>
    </g>
   </g>
   <g id="PathCollection_2">
    <g clip-path="url(#pb57ae4fc25)">
     <use xlink:href="#m1fb2aad246" x="592.237817" y="128.595725" style="fill: #2e1e3b; fill-opacity: 0.1; stroke: #2e1e3b; stroke-opacity: 0.1"/>
     <use xlink:href="#m1fb2aad246" x="593.524991" y="128.595725" style="fill: #2e1e3b; fill-opacity: 0.1; stroke: #2e1e3b; stroke-opacity: 0.1"/>
     <use xlink:href="#m1fb2aad246" x="549.628265" y="128.595725" style="fill: #2e1e3b; fill-opacity: 0.1; stroke: #2e1e3b; stroke-opacity: 0.1"/>
     <use xlink:href="#m1fb2aad246" x="577.04511" y="128.595725" style="fill: #2e1e3b; fill-opacity: 0.1; stroke: #2e1e3b; stroke-opacity: 0.1"/>
     <use xlink:href="#m1fb2aad246" x="560.275113" y="128.595725" style="fill: #2e1e3b; fill-opacity: 0.1; stroke: #2e1e3b; stroke-opacity: 0.1"/>
     <use xlink:href="#m1fb2aad246" x="590.977121" y="128.595725" style="fill: #2e1e3b; fill-opacity: 0.1; stroke: #2e1e3b; stroke-opacity: 0.1"/>
     <use xlink:href="#m1fb2aad246" x="549.915462" y="146.40435" style="fill: #2e1e3b; fill-opacity: 0.1; stroke: #2e1e3b; stroke-opacity: 0.1"/>
     <use xlink:href="#m1fb2aad246" x="522.373064" y="128.595725" style="fill: #2e1e3b; fill-opacity: 0.1; stroke: #2e1e3b; stroke-opacity: 0.1"/>
     <use xlink:href="#m1fb2aad246" x="518.894833" y="146.40435" style="fill: #2e1e3b; fill-opacity: 0.1; stroke: #2e1e3b; stroke-opacity: 0.1"/>
     <use xlink:href="#m1fb2aad246" x="508.62111" y="147.558736" style="fill: #2e1e3b; fill-opacity: 0.1; stroke: #2e1e3b; stroke-opacity: 0.1"/>
     <use xlink:href="#m1fb2aad246" x="533.890855" y="147.558736" style="fill: #2e1e3b; fill-opacity: 0.1; stroke: #2e1e3b; stroke-opacity: 0.1"/>
     <use xlink:href="#m1fb2aad246" x="539.956235" y="152.707835" style="fill: #2e1e3b; fill-opacity: 0.1; stroke: #2e1e3b; stroke-opacity: 0.1"/>
     <use xlink:href="#m1fb2aad246" x="532.508023" y="153.807615" style="fill: #2e1e3b; fill-opacity: 0.1; stroke: #2e1e3b; stroke-opacity: 0.1"/>
     <use xlink:href="#m1fb2aad246" x="535.68273" y="151.123802" style="fill: #2e1e3b; fill-opacity: 0.1; stroke: #2e1e3b; stroke-opacity: 0.1"/>
    </g>
   </g>
   <g id="line2d_2">
    <path d="M 524.07775 162.284253 
L 495.525883 183.087206 
L 489.905802 187.182008 
L 516.763868 167.613164 
L 493.99112 184.205437 
L 507.647513 174.25536 
L 513.487381 170.000419 
L 523.172331 162.943944 
L 504.395052 176.62511 
L 602.3705 105.239988 
L 557.132574 138.200438 
L 513.369358 170.086411 
L 544.779027 147.201259 
L 530.942522 157.282566 
L 555.677239 139.260798 
L 560.213658 135.955553 
L 548.266611 144.660198 
L 516.505893 167.801125 
L 568.419704 129.976611 
L 509.100336 173.196829 
L 516.029498 168.148228 
L 499.128205 180.462546 
L 497.757518 181.461231 
L 526.276324 160.682368 
L 513.021946 170.339536 
L 492.145824 185.549924 
L 493.380199 184.650555 
L 527.043085 160.123704 
L 506.111224 175.374703 
L 490.056676 187.072081 
L 473.222947 199.337172 
L 478.092393 195.789284 
L 486.652243 189.552559 
L 490.479797 186.763794 
L 459.114617 209.616532 
L 507.32032 174.493753 
L 482.118399 192.855927 
L 482.533095 192.553778 
L 450.020839 216.242279 
L 426.176074 233.615625 
L 484.196828 191.341579 
L 477.514576 196.210282 
L 449.133077 216.889103 
L 469.350077 202.158954 
L 571.153938 127.984442 
L 546.091513 146.244979 
L 537.233804 152.698724 
L 524.673432 161.850238 
L 540.101106 150.609602 
L 702.870289 32.015625 
L 557.901446 137.640236 
L 522.700993 163.287362 
L 561.147958 135.27482 
L 545.5025 146.674134 
L 557.491715 137.938767 
L 557.709682 137.779956 
L 552.827488 141.337132 
L 531.656901 156.762068 
L 561.140188 135.280482 
L 566.28168 131.534379 
L 591.644366 113.055072 
L 621.599831 91.229455 
L 652.494517 68.719521 
L 590.189301 114.115236 
L 563.285053 133.717728 
" clip-path="url(#pb57ae4fc25)" style="fill: none; stroke-dasharray: 1.5,2.475; stroke-dashoffset: 0; stroke: #ff0000; stroke-width: 1.5"/>
   </g>
   <g id="patch_8">
    <path d="M 412.341364 243.695625 
L 412.341364 21.935625 
" style="fill: none; stroke: #262626; stroke-width: 1.25; stroke-linejoin: miter; stroke-linecap: square"/>
   </g>
   <g id="patch_9">
    <path d="M 716.705 243.695625 
L 716.705 21.935625 
" style="fill: none; stroke: #262626; stroke-width: 1.25; stroke-linejoin: miter; stroke-linecap: square"/>
   </g>
   <g id="patch_10">
    <path d="M 412.341364 243.695625 
L 716.705 243.695625 
" style="fill: none; stroke: #262626; stroke-width: 1.25; stroke-linejoin: miter; stroke-linecap: square"/>
   </g>
   <g id="patch_11">
    <path d="M 412.341364 21.935625 
L 716.705 21.935625 
" style="fill: none; stroke: #262626; stroke-width: 1.25; stroke-linejoin: miter; stroke-linecap: square"/>
   </g>
   <g id="text_46">
    <!-- Test MAPE: 0.0511 (&lt;&gt; 0.0788) -->
    <g style="fill: #262626" transform="translate(480.922557 15.935625) scale(0.12 -0.12)">
     <use xlink:href="#ArialMT-54"/>
     <use xlink:href="#ArialMT-65" x="49.958984"/>
     <use xlink:href="#ArialMT-73" x="105.574219"/>
     <use xlink:href="#ArialMT-74" x="155.574219"/>
     <use xlink:href="#ArialMT-20" x="183.357422"/>
     <use xlink:href="#ArialMT-4d" x="211.140625"/>
     <use xlink:href="#ArialMT-41" x="294.441406"/>
     <use xlink:href="#ArialMT-50" x="361.140625"/>
     <use xlink:href="#ArialMT-45" x="427.839844"/>
     <use xlink:href="#ArialMT-3a" x="494.539062"/>
     <use xlink:href="#ArialMT-20" x="522.322266"/>
     <use xlink:href="#ArialMT-30" x="550.105469"/>
     <use xlink:href="#ArialMT-2e" x="605.720703"/>
     <use xlink:href="#ArialMT-30" x="633.503906"/>
     <use xlink:href="#ArialMT-35" x="689.119141"/>
     <use xlink:href="#ArialMT-31" x="744.734375"/>
     <use xlink:href="#ArialMT-31" x="792.974609"/>
     <use xlink:href="#ArialMT-20" x="848.589844"/>
     <use xlink:href="#ArialMT-28" x="876.373047"/>
     <use xlink:href="#ArialMT-3c" x="909.673828"/>
     <use xlink:href="#ArialMT-3e" x="968.072266"/>
     <use xlink:href="#ArialMT-20" x="1026.470703"/>
     <use xlink:href="#ArialMT-30" x="1054.253906"/>
     <use xlink:href="#ArialMT-2e" x="1109.869141"/>
     <use xlink:href="#ArialMT-30" x="1137.652344"/>
     <use xlink:href="#ArialMT-37" x="1193.267578"/>
     <use xlink:href="#ArialMT-38" x="1248.882812"/>
     <use xlink:href="#ArialMT-38" x="1304.498047"/>
     <use xlink:href="#ArialMT-29" x="1360.113281"/>
    </g>
   </g>
  </g>
 </g>
 <defs>
  <clipPath id="p4763ff4eea">
   <rect x="47.105" y="21.935625" width="304.363636" height="221.76"/>
  </clipPath>
  <clipPath id="pb57ae4fc25">
   <rect x="412.341364" y="21.935625" width="304.363636" height="221.76"/>
  </clipPath>
 </defs>
</svg>
