<?xml version="1.0" encoding="utf-8" standalone="no"?>
<!DOCTYPE svg PUBLIC "-//W3C//DTD SVG 1.1//EN"
  "http://www.w3.org/Graphics/SVG/1.1/DTD/svg11.dtd">
<svg xmlns:xlink="http://www.w3.org/1999/xlink" width="894.261094pt" height="241.624406pt" viewBox="0 0 894.261094 241.624406" xmlns="http://www.w3.org/2000/svg" version="1.1">
 <metadata>
  <rdf:RDF xmlns:dc="http://purl.org/dc/elements/1.1/" xmlns:cc="http://creativecommons.org/ns#" xmlns:rdf="http://www.w3.org/1999/02/22-rdf-syntax-ns#">
   <cc:Work>
    <dc:type rdf:resource="http://purl.org/dc/dcmitype/StillImage"/>
    <dc:date>2023-08-13T00:33:13.762683</dc:date>
    <dc:format>image/svg+xml</dc:format>
    <dc:creator>
     <cc:Agent>
      <dc:title>Matplotlib v3.7.1, https://matplotlib.org/</dc:title>
     </cc:Agent>
    </dc:creator>
   </cc:Work>
  </rdf:RDF>
 </metadata>
 <defs>
  <style type="text/css">*{stroke-linejoin: round; stroke-linecap: butt}</style>
 </defs>
 <g id="figure_1">
  <g id="patch_1">
   <path d="M 0 241.624406 
L 894.261094 241.624406 
L 894.261094 -0 
L 0 -0 
z
" style="fill: #ffffff"/>
  </g>
  <g id="axes_1">
   <g id="patch_2">
    <path d="M 50.061094 188.255625 
L 887.061094 188.255625 
L 887.061094 21.935625 
L 50.061094 21.935625 
z
" style="fill: #ffffff"/>
   </g>
   <g id="patch_3">
    <path d="M 50.061094 188.255625 
L 50.061094 21.935625 
L 390.092344 21.935625 
L 390.092344 188.255625 
z
" clip-path="url(#p9e390c2391)" style="fill: #44af69; opacity: 0.25; stroke: #44af69; stroke-linejoin: miter"/>
   </g>
   <g id="patch_4">
    <path d="M 390.092344 188.255625 
L 390.092344 21.935625 
L 458.098594 21.935625 
L 458.098594 188.255625 
z
" clip-path="url(#p9e390c2391)" style="fill: #f2dc5d; opacity: 0.125; stroke: #f2dc5d; stroke-linejoin: miter"/>
   </g>
   <g id="matplotlib.axis_1">
    <g id="xtick_1"/>
    <g id="xtick_2">
     <g id="text_1">
      <!-- Jan -->
      <g style="fill: #262626" transform="translate(276.600313 205.629219) scale(0.11 -0.11)">
       <defs>
        <path id="ArialMT-4a" d="M 184 1300 
L 731 1375 
Q 753 850 928 656 
Q 1103 463 1413 463 
Q 1641 463 1806 567 
Q 1972 672 2034 851 
Q 2097 1031 2097 1425 
L 2097 4581 
L 2703 4581 
L 2703 1459 
Q 2703 884 2564 568 
Q 2425 253 2123 87 
Q 1822 -78 1416 -78 
Q 813 -78 492 269 
Q 172 616 184 1300 
z
" transform="scale(0.015625)"/>
        <path id="ArialMT-61" d="M 2588 409 
Q 2275 144 1986 34 
Q 1697 -75 1366 -75 
Q 819 -75 525 192 
Q 231 459 231 875 
Q 231 1119 342 1320 
Q 453 1522 633 1644 
Q 813 1766 1038 1828 
Q 1203 1872 1538 1913 
Q 2219 1994 2541 2106 
Q 2544 2222 2544 2253 
Q 2544 2597 2384 2738 
Q 2169 2928 1744 2928 
Q 1347 2928 1158 2789 
Q 969 2650 878 2297 
L 328 2372 
Q 403 2725 575 2942 
Q 747 3159 1072 3276 
Q 1397 3394 1825 3394 
Q 2250 3394 2515 3294 
Q 2781 3194 2906 3042 
Q 3031 2891 3081 2659 
Q 3109 2516 3109 2141 
L 3109 1391 
Q 3109 606 3145 398 
Q 3181 191 3288 0 
L 2700 0 
Q 2613 175 2588 409 
z
M 2541 1666 
Q 2234 1541 1622 1453 
Q 1275 1403 1131 1340 
Q 988 1278 909 1158 
Q 831 1038 831 891 
Q 831 666 1001 516 
Q 1172 366 1500 366 
Q 1825 366 2078 508 
Q 2331 650 2450 897 
Q 2541 1088 2541 1459 
L 2541 1666 
z
" transform="scale(0.015625)"/>
        <path id="ArialMT-6e" d="M 422 0 
L 422 3319 
L 928 3319 
L 928 2847 
Q 1294 3394 1984 3394 
Q 2284 3394 2536 3286 
Q 2788 3178 2913 3003 
Q 3038 2828 3088 2588 
Q 3119 2431 3119 2041 
L 3119 0 
L 2556 0 
L 2556 2019 
Q 2556 2363 2490 2533 
Q 2425 2703 2258 2804 
Q 2091 2906 1866 2906 
Q 1506 2906 1245 2678 
Q 984 2450 984 1813 
L 984 0 
L 422 0 
z
" transform="scale(0.015625)"/>
       </defs>
       <use xlink:href="#ArialMT-4a"/>
       <use xlink:href="#ArialMT-61" x="50"/>
       <use xlink:href="#ArialMT-6e" x="105.615234"/>
      </g>
      <!-- 2016 -->
      <g style="fill: #262626" transform="translate(273.233281 217.263781) scale(0.11 -0.11)">
       <defs>
        <path id="ArialMT-32" d="M 3222 541 
L 3222 0 
L 194 0 
Q 188 203 259 391 
Q 375 700 629 1000 
Q 884 1300 1366 1694 
Q 2113 2306 2375 2664 
Q 2638 3022 2638 3341 
Q 2638 3675 2398 3904 
Q 2159 4134 1775 4134 
Q 1369 4134 1125 3890 
Q 881 3647 878 3216 
L 300 3275 
Q 359 3922 746 4261 
Q 1134 4600 1788 4600 
Q 2447 4600 2831 4234 
Q 3216 3869 3216 3328 
Q 3216 3053 3103 2787 
Q 2991 2522 2730 2228 
Q 2469 1934 1863 1422 
Q 1356 997 1212 845 
Q 1069 694 975 541 
L 3222 541 
z
" transform="scale(0.015625)"/>
        <path id="ArialMT-30" d="M 266 2259 
Q 266 3072 433 3567 
Q 600 4063 929 4331 
Q 1259 4600 1759 4600 
Q 2128 4600 2406 4451 
Q 2684 4303 2865 4023 
Q 3047 3744 3150 3342 
Q 3253 2941 3253 2259 
Q 3253 1453 3087 958 
Q 2922 463 2592 192 
Q 2263 -78 1759 -78 
Q 1097 -78 719 397 
Q 266 969 266 2259 
z
M 844 2259 
Q 844 1131 1108 757 
Q 1372 384 1759 384 
Q 2147 384 2411 759 
Q 2675 1134 2675 2259 
Q 2675 3391 2411 3762 
Q 2147 4134 1753 4134 
Q 1366 4134 1134 3806 
Q 844 3388 844 2259 
z
" transform="scale(0.015625)"/>
        <path id="ArialMT-31" d="M 2384 0 
L 1822 0 
L 1822 3584 
Q 1619 3391 1289 3197 
Q 959 3003 697 2906 
L 697 3450 
Q 1169 3672 1522 3987 
Q 1875 4303 2022 4600 
L 2384 4600 
L 2384 0 
z
" transform="scale(0.015625)"/>
        <path id="ArialMT-36" d="M 3184 3459 
L 2625 3416 
Q 2550 3747 2413 3897 
Q 2184 4138 1850 4138 
Q 1581 4138 1378 3988 
Q 1113 3794 959 3422 
Q 806 3050 800 2363 
Q 1003 2672 1297 2822 
Q 1591 2972 1913 2972 
Q 2475 2972 2870 2558 
Q 3266 2144 3266 1488 
Q 3266 1056 3080 686 
Q 2894 316 2569 119 
Q 2244 -78 1831 -78 
Q 1128 -78 684 439 
Q 241 956 241 2144 
Q 241 3472 731 4075 
Q 1159 4600 1884 4600 
Q 2425 4600 2770 4297 
Q 3116 3994 3184 3459 
z
M 888 1484 
Q 888 1194 1011 928 
Q 1134 663 1356 523 
Q 1578 384 1822 384 
Q 2178 384 2434 671 
Q 2691 959 2691 1453 
Q 2691 1928 2437 2201 
Q 2184 2475 1800 2475 
Q 1419 2475 1153 2201 
Q 888 1928 888 1484 
z
" transform="scale(0.015625)"/>
       </defs>
       <use xlink:href="#ArialMT-32"/>
       <use xlink:href="#ArialMT-30" x="55.615234"/>
       <use xlink:href="#ArialMT-31" x="111.230469"/>
       <use xlink:href="#ArialMT-36" x="166.845703"/>
      </g>
     </g>
    </g>
    <g id="xtick_3">
     <g id="text_2">
      <!-- Jan -->
      <g style="fill: #262626" transform="translate(548.625313 205.629219) scale(0.11 -0.11)">
       <use xlink:href="#ArialMT-4a"/>
       <use xlink:href="#ArialMT-61" x="50"/>
       <use xlink:href="#ArialMT-6e" x="105.615234"/>
      </g>
      <!-- 2017 -->
      <g style="fill: #262626" transform="translate(545.258281 217.263781) scale(0.11 -0.11)">
       <defs>
        <path id="ArialMT-37" d="M 303 3981 
L 303 4522 
L 3269 4522 
L 3269 4084 
Q 2831 3619 2401 2847 
Q 1972 2075 1738 1259 
Q 1569 684 1522 0 
L 944 0 
Q 953 541 1156 1306 
Q 1359 2072 1739 2783 
Q 2119 3494 2547 3981 
L 303 3981 
z
" transform="scale(0.015625)"/>
       </defs>
       <use xlink:href="#ArialMT-32"/>
       <use xlink:href="#ArialMT-30" x="55.615234"/>
       <use xlink:href="#ArialMT-31" x="111.230469"/>
       <use xlink:href="#ArialMT-37" x="166.845703"/>
      </g>
     </g>
    </g>
    <g id="xtick_4">
     <g id="text_3">
      <!-- Jan -->
      <g style="fill: #262626" transform="translate(820.650312 205.629219) scale(0.11 -0.11)">
       <use xlink:href="#ArialMT-4a"/>
       <use xlink:href="#ArialMT-61" x="50"/>
       <use xlink:href="#ArialMT-6e" x="105.615234"/>
      </g>
      <!-- 2018 -->
      <g style="fill: #262626" transform="translate(817.283281 217.263781) scale(0.11 -0.11)">
       <defs>
        <path id="ArialMT-38" d="M 1131 2484 
Q 781 2613 612 2850 
Q 444 3088 444 3419 
Q 444 3919 803 4259 
Q 1163 4600 1759 4600 
Q 2359 4600 2725 4251 
Q 3091 3903 3091 3403 
Q 3091 3084 2923 2848 
Q 2756 2613 2416 2484 
Q 2838 2347 3058 2040 
Q 3278 1734 3278 1309 
Q 3278 722 2862 322 
Q 2447 -78 1769 -78 
Q 1091 -78 675 323 
Q 259 725 259 1325 
Q 259 1772 486 2073 
Q 713 2375 1131 2484 
z
M 1019 3438 
Q 1019 3113 1228 2906 
Q 1438 2700 1772 2700 
Q 2097 2700 2305 2904 
Q 2513 3109 2513 3406 
Q 2513 3716 2298 3927 
Q 2084 4138 1766 4138 
Q 1444 4138 1231 3931 
Q 1019 3725 1019 3438 
z
M 838 1322 
Q 838 1081 952 856 
Q 1066 631 1291 507 
Q 1516 384 1775 384 
Q 2178 384 2440 643 
Q 2703 903 2703 1303 
Q 2703 1709 2433 1975 
Q 2163 2241 1756 2241 
Q 1359 2241 1098 1978 
Q 838 1716 838 1322 
z
" transform="scale(0.015625)"/>
       </defs>
       <use xlink:href="#ArialMT-32"/>
       <use xlink:href="#ArialMT-30" x="55.615234"/>
       <use xlink:href="#ArialMT-31" x="111.230469"/>
       <use xlink:href="#ArialMT-38" x="166.845703"/>
      </g>
     </g>
    </g>
    <g id="xtick_5"/>
    <g id="xtick_6"/>
    <g id="xtick_7"/>
    <g id="xtick_8"/>
    <g id="xtick_9"/>
    <g id="xtick_10">
     <g id="text_4">
      <!-- Jul -->
      <g style="fill: #262626" transform="translate(142.424297 203.529219) scale(0.11 -0.11)">
       <defs>
        <path id="ArialMT-75" d="M 2597 0 
L 2597 488 
Q 2209 -75 1544 -75 
Q 1250 -75 995 37 
Q 741 150 617 320 
Q 494 491 444 738 
Q 409 903 409 1263 
L 409 3319 
L 972 3319 
L 972 1478 
Q 972 1038 1006 884 
Q 1059 663 1231 536 
Q 1403 409 1656 409 
Q 1909 409 2131 539 
Q 2353 669 2445 892 
Q 2538 1116 2538 1541 
L 2538 3319 
L 3100 3319 
L 3100 0 
L 2597 0 
z
" transform="scale(0.015625)"/>
        <path id="ArialMT-6c" d="M 409 0 
L 409 4581 
L 972 4581 
L 972 0 
L 409 0 
z
" transform="scale(0.015625)"/>
       </defs>
       <use xlink:href="#ArialMT-4a"/>
       <use xlink:href="#ArialMT-75" x="50"/>
       <use xlink:href="#ArialMT-6c" x="105.615234"/>
      </g>
     </g>
    </g>
    <g id="xtick_11"/>
    <g id="xtick_12"/>
    <g id="xtick_13"/>
    <g id="xtick_14"/>
    <g id="xtick_15"/>
    <g id="xtick_16"/>
    <g id="xtick_17"/>
    <g id="xtick_18"/>
    <g id="xtick_19"/>
    <g id="xtick_20"/>
    <g id="xtick_21">
     <g id="text_5">
      <!-- Jul -->
      <g style="fill: #262626" transform="translate(414.449297 203.529219) scale(0.11 -0.11)">
       <use xlink:href="#ArialMT-4a"/>
       <use xlink:href="#ArialMT-75" x="50"/>
       <use xlink:href="#ArialMT-6c" x="105.615234"/>
      </g>
     </g>
    </g>
    <g id="xtick_22"/>
    <g id="xtick_23"/>
    <g id="xtick_24"/>
    <g id="xtick_25"/>
    <g id="xtick_26"/>
    <g id="xtick_27"/>
    <g id="xtick_28"/>
    <g id="xtick_29"/>
    <g id="xtick_30"/>
    <g id="xtick_31"/>
    <g id="xtick_32">
     <g id="text_6">
      <!-- Jul -->
      <g style="fill: #262626" transform="translate(686.474297 203.529219) scale(0.11 -0.11)">
       <use xlink:href="#ArialMT-4a"/>
       <use xlink:href="#ArialMT-75" x="50"/>
       <use xlink:href="#ArialMT-6c" x="105.615234"/>
      </g>
     </g>
    </g>
    <g id="xtick_33"/>
    <g id="xtick_34"/>
    <g id="xtick_35"/>
    <g id="xtick_36"/>
    <g id="xtick_37"/>
    <g id="xtick_38"/>
    <g id="xtick_39"/>
    <g id="text_7">
     <!-- Date -->
     <g style="fill: #262626" transform="translate(455.887969 232.039406) scale(0.12 -0.12)">
      <defs>
       <path id="ArialMT-44" d="M 494 0 
L 494 4581 
L 2072 4581 
Q 2606 4581 2888 4516 
Q 3281 4425 3559 4188 
Q 3922 3881 4101 3404 
Q 4281 2928 4281 2316 
Q 4281 1794 4159 1391 
Q 4038 988 3847 723 
Q 3656 459 3429 307 
Q 3203 156 2883 78 
Q 2563 0 2147 0 
L 494 0 
z
M 1100 541 
L 2078 541 
Q 2531 541 2789 625 
Q 3047 709 3200 863 
Q 3416 1078 3536 1442 
Q 3656 1806 3656 2325 
Q 3656 3044 3420 3430 
Q 3184 3816 2847 3947 
Q 2603 4041 2063 4041 
L 1100 4041 
L 1100 541 
z
" transform="scale(0.015625)"/>
       <path id="ArialMT-74" d="M 1650 503 
L 1731 6 
Q 1494 -44 1306 -44 
Q 1000 -44 831 53 
Q 663 150 594 308 
Q 525 466 525 972 
L 525 2881 
L 113 2881 
L 113 3319 
L 525 3319 
L 525 4141 
L 1084 4478 
L 1084 3319 
L 1650 3319 
L 1650 2881 
L 1084 2881 
L 1084 941 
Q 1084 700 1114 631 
Q 1144 563 1211 522 
Q 1278 481 1403 481 
Q 1497 481 1650 503 
z
" transform="scale(0.015625)"/>
       <path id="ArialMT-65" d="M 2694 1069 
L 3275 997 
Q 3138 488 2766 206 
Q 2394 -75 1816 -75 
Q 1088 -75 661 373 
Q 234 822 234 1631 
Q 234 2469 665 2931 
Q 1097 3394 1784 3394 
Q 2450 3394 2872 2941 
Q 3294 2488 3294 1666 
Q 3294 1616 3291 1516 
L 816 1516 
Q 847 969 1125 678 
Q 1403 388 1819 388 
Q 2128 388 2347 550 
Q 2566 713 2694 1069 
z
M 847 1978 
L 2700 1978 
Q 2663 2397 2488 2606 
Q 2219 2931 1791 2931 
Q 1403 2931 1139 2672 
Q 875 2413 847 1978 
z
" transform="scale(0.015625)"/>
      </defs>
      <use xlink:href="#ArialMT-44"/>
      <use xlink:href="#ArialMT-61" x="72.216797"/>
      <use xlink:href="#ArialMT-74" x="127.832031"/>
      <use xlink:href="#ArialMT-65" x="155.615234"/>
     </g>
    </g>
   </g>
   <g id="matplotlib.axis_2">
    <g id="ytick_1">
     <g id="text_8">
      <!-- 60 -->
      <g style="fill: #262626" transform="translate(28.327031 180.799912) scale(0.11 -0.11)">
       <use xlink:href="#ArialMT-36"/>
       <use xlink:href="#ArialMT-30" x="55.615234"/>
      </g>
     </g>
    </g>
    <g id="ytick_2">
     <g id="text_9">
      <!-- 80 -->
      <g style="fill: #262626" transform="translate(28.327031 153.804049) scale(0.11 -0.11)">
       <use xlink:href="#ArialMT-38"/>
       <use xlink:href="#ArialMT-30" x="55.615234"/>
      </g>
     </g>
    </g>
    <g id="ytick_3">
     <g id="text_10">
      <!-- 100 -->
      <g style="fill: #262626" transform="translate(22.21 126.808186) scale(0.11 -0.11)">
       <use xlink:href="#ArialMT-31"/>
       <use xlink:href="#ArialMT-30" x="55.615234"/>
       <use xlink:href="#ArialMT-30" x="111.230469"/>
      </g>
     </g>
    </g>
    <g id="ytick_4">
     <g id="text_11">
      <!-- 120 -->
      <g style="fill: #262626" transform="translate(22.21 99.812323) scale(0.11 -0.11)">
       <use xlink:href="#ArialMT-31"/>
       <use xlink:href="#ArialMT-32" x="55.615234"/>
       <use xlink:href="#ArialMT-30" x="111.230469"/>
      </g>
     </g>
    </g>
    <g id="ytick_5">
     <g id="text_12">
      <!-- 140 -->
      <g style="fill: #262626" transform="translate(22.21 72.816459) scale(0.11 -0.11)">
       <defs>
        <path id="ArialMT-34" d="M 2069 0 
L 2069 1097 
L 81 1097 
L 81 1613 
L 2172 4581 
L 2631 4581 
L 2631 1613 
L 3250 1613 
L 3250 1097 
L 2631 1097 
L 2631 0 
L 2069 0 
z
M 2069 1613 
L 2069 3678 
L 634 1613 
L 2069 1613 
z
" transform="scale(0.015625)"/>
       </defs>
       <use xlink:href="#ArialMT-31"/>
       <use xlink:href="#ArialMT-34" x="55.615234"/>
       <use xlink:href="#ArialMT-30" x="111.230469"/>
      </g>
     </g>
    </g>
    <g id="ytick_6">
     <g id="text_13">
      <!-- 160 -->
      <g style="fill: #262626" transform="translate(22.21 45.820596) scale(0.11 -0.11)">
       <use xlink:href="#ArialMT-31"/>
       <use xlink:href="#ArialMT-36" x="55.615234"/>
       <use xlink:href="#ArialMT-30" x="111.230469"/>
      </g>
     </g>
    </g>
    <g id="text_14">
     <!-- Demand [1e6 units] -->
     <g style="fill: #262626" transform="translate(15.825 157.123125) rotate(-90) scale(0.12 -0.12)">
      <defs>
       <path id="ArialMT-6d" d="M 422 0 
L 422 3319 
L 925 3319 
L 925 2853 
Q 1081 3097 1340 3245 
Q 1600 3394 1931 3394 
Q 2300 3394 2536 3241 
Q 2772 3088 2869 2813 
Q 3263 3394 3894 3394 
Q 4388 3394 4653 3120 
Q 4919 2847 4919 2278 
L 4919 0 
L 4359 0 
L 4359 2091 
Q 4359 2428 4304 2576 
Q 4250 2725 4106 2815 
Q 3963 2906 3769 2906 
Q 3419 2906 3187 2673 
Q 2956 2441 2956 1928 
L 2956 0 
L 2394 0 
L 2394 2156 
Q 2394 2531 2256 2718 
Q 2119 2906 1806 2906 
Q 1569 2906 1367 2781 
Q 1166 2656 1075 2415 
Q 984 2175 984 1722 
L 984 0 
L 422 0 
z
" transform="scale(0.015625)"/>
       <path id="ArialMT-64" d="M 2575 0 
L 2575 419 
Q 2259 -75 1647 -75 
Q 1250 -75 917 144 
Q 584 363 401 755 
Q 219 1147 219 1656 
Q 219 2153 384 2558 
Q 550 2963 881 3178 
Q 1213 3394 1622 3394 
Q 1922 3394 2156 3267 
Q 2391 3141 2538 2938 
L 2538 4581 
L 3097 4581 
L 3097 0 
L 2575 0 
z
M 797 1656 
Q 797 1019 1065 703 
Q 1334 388 1700 388 
Q 2069 388 2326 689 
Q 2584 991 2584 1609 
Q 2584 2291 2321 2609 
Q 2059 2928 1675 2928 
Q 1300 2928 1048 2622 
Q 797 2316 797 1656 
z
" transform="scale(0.015625)"/>
       <path id="ArialMT-20" transform="scale(0.015625)"/>
       <path id="ArialMT-5b" d="M 434 -1272 
L 434 4581 
L 1675 4581 
L 1675 4116 
L 997 4116 
L 997 -806 
L 1675 -806 
L 1675 -1272 
L 434 -1272 
z
" transform="scale(0.015625)"/>
       <path id="ArialMT-69" d="M 425 3934 
L 425 4581 
L 988 4581 
L 988 3934 
L 425 3934 
z
M 425 0 
L 425 3319 
L 988 3319 
L 988 0 
L 425 0 
z
" transform="scale(0.015625)"/>
       <path id="ArialMT-73" d="M 197 991 
L 753 1078 
Q 800 744 1014 566 
Q 1228 388 1613 388 
Q 2000 388 2187 545 
Q 2375 703 2375 916 
Q 2375 1106 2209 1216 
Q 2094 1291 1634 1406 
Q 1016 1563 777 1677 
Q 538 1791 414 1992 
Q 291 2194 291 2438 
Q 291 2659 392 2848 
Q 494 3038 669 3163 
Q 800 3259 1026 3326 
Q 1253 3394 1513 3394 
Q 1903 3394 2198 3281 
Q 2494 3169 2634 2976 
Q 2775 2784 2828 2463 
L 2278 2388 
Q 2241 2644 2061 2787 
Q 1881 2931 1553 2931 
Q 1166 2931 1000 2803 
Q 834 2675 834 2503 
Q 834 2394 903 2306 
Q 972 2216 1119 2156 
Q 1203 2125 1616 2013 
Q 2213 1853 2448 1751 
Q 2684 1650 2818 1456 
Q 2953 1263 2953 975 
Q 2953 694 2789 445 
Q 2625 197 2315 61 
Q 2006 -75 1616 -75 
Q 969 -75 630 194 
Q 291 463 197 991 
z
" transform="scale(0.015625)"/>
       <path id="ArialMT-5d" d="M 1363 -1272 
L 122 -1272 
L 122 -806 
L 800 -806 
L 800 4116 
L 122 4116 
L 122 4581 
L 1363 4581 
L 1363 -1272 
z
" transform="scale(0.015625)"/>
      </defs>
      <use xlink:href="#ArialMT-44"/>
      <use xlink:href="#ArialMT-65" x="72.216797"/>
      <use xlink:href="#ArialMT-6d" x="127.832031"/>
      <use xlink:href="#ArialMT-61" x="211.132812"/>
      <use xlink:href="#ArialMT-6e" x="266.748047"/>
      <use xlink:href="#ArialMT-64" x="322.363281"/>
      <use xlink:href="#ArialMT-20" x="377.978516"/>
      <use xlink:href="#ArialMT-5b" x="405.761719"/>
      <use xlink:href="#ArialMT-31" x="433.544922"/>
      <use xlink:href="#ArialMT-65" x="489.160156"/>
      <use xlink:href="#ArialMT-36" x="544.775391"/>
      <use xlink:href="#ArialMT-20" x="600.390625"/>
      <use xlink:href="#ArialMT-75" x="628.173828"/>
      <use xlink:href="#ArialMT-6e" x="683.789062"/>
      <use xlink:href="#ArialMT-69" x="739.404297"/>
      <use xlink:href="#ArialMT-74" x="761.621094"/>
      <use xlink:href="#ArialMT-73" x="789.404297"/>
      <use xlink:href="#ArialMT-5d" x="839.404297"/>
     </g>
    </g>
   </g>
   <g id="line2d_1">
    <path d="M 50.061094 137.132165 
L 55.292344 148.137258 
L 60.523594 150.303473 
L 65.754844 139.951244 
L 70.986094 148.72882 
L 76.217344 143.465071 
L 81.448594 141.214139 
L 86.679844 137.481152 
L 91.911094 144.718706 
L 97.142344 106.954841 
L 102.373594 124.391444 
L 107.604844 141.25963 
L 112.836094 129.153021 
L 118.067344 134.486193 
L 123.298594 124.952391 
L 128.529844 123.203864 
L 133.761094 127.808759 
L 138.992344 140.050678 
L 144.223594 120.040908 
L 149.454844 142.905091 
L 154.686094 140.234301 
L 159.917344 146.748771 
L 165.148594 147.277091 
L 170.379844 136.284742 
L 175.611094 141.393538 
L 180.842344 149.440075 
L 186.073594 148.964294 
L 191.304844 135.9892 
L 196.536094 144.057221 
L 201.767344 150.24532 
L 206.998594 156.733748 
L 212.229844 154.856859 
L 217.461094 151.557532 
L 222.692344 150.082231 
L 227.923594 162.171693 
L 233.154844 143.591185 
L 238.386094 153.305066 
L 243.617344 153.145225 
L 248.848594 165.676818 
L 254.079844 174.867595 
L 259.311094 152.503952 
L 264.542344 155.079574 
L 269.773594 166.018999 
L 275.004844 158.226516 
L 280.236094 118.987019 
L 285.467344 128.647134 
L 290.698594 132.061268 
L 295.929844 136.902564 
L 301.161094 130.956089 
L 306.392344 68.217989 
L 311.623594 124.095088 
L 316.854844 137.662825 
L 322.086094 122.843745 
L 327.317344 128.874164 
L 332.548594 124.253016 
L 337.779844 124.169002 
L 343.011094 126.050805 
L 348.242344 134.210841 
L 353.473594 122.84674 
L 358.704844 120.864993 
L 363.936094 111.089145 
L 369.167344 99.543047 
L 374.398594 87.634934 
L 379.629844 111.649989 
L 384.861094 122.020019 
L 390.092344 110.860404 
L 395.323594 110.364273 
L 400.554844 127.28392 
L 405.786094 116.716313 
L 411.017344 123.180177 
L 416.248594 111.34633 
L 421.479844 127.173223 
L 426.711094 137.789223 
L 431.942344 139.12988 
L 437.173594 143.089805 
L 442.404844 133.349781 
L 447.636094 131.011928 
L 452.867344 133.882783 
L 458.098594 132.659117 
L 463.329844 121.429482 
L 468.561094 131.519092 
L 473.792344 143.059274 
L 479.023594 146.360488 
L 484.254844 148.636508 
L 489.486094 151.404539 
L 494.717344 155.412286 
L 499.948594 166.906634 
L 505.179844 180.695625 
L 510.411094 174.426043 
L 515.642344 168.501153 
L 520.873594 164.64164 
L 526.104844 172.605201 
L 531.336094 141.969836 
L 536.567344 146.76273 
L 541.798594 148.880411 
L 547.029844 146.403934 
L 552.261094 116.866838 
L 557.492344 118.234701 
L 562.723594 117.692485 
L 567.954844 102.978573 
L 573.186094 113.591646 
L 578.417344 35.937944 
L 583.648594 106.952824 
L 588.879844 131.211189 
L 594.111094 120.917661 
L 599.342344 131.606843 
L 604.573594 138.825806 
L 609.804844 140.430238 
L 615.036094 136.094603 
L 620.267344 129.514622 
L 625.498594 128.901805 
L 630.729844 126.964991 
L 635.961094 126.217649 
L 641.192344 116.506154 
L 646.423594 83.82952 
L 651.654844 121.709537 
L 656.886094 130.487717 
L 662.117344 120.727872 
L 667.348594 119.347101 
L 672.579844 120.721425 
L 677.811094 116.777881 
L 683.042344 120.586924 
L 688.273594 118.469693 
L 693.504844 113.486946 
L 698.736094 138.164125 
L 703.967344 137.231211 
L 709.198594 140.87977 
L 714.429844 138.226638 
L 719.661094 137.225934 
L 724.892344 147.464753 
L 730.123594 151.805938 
L 735.354844 158.412466 
L 740.586094 159.714974 
L 745.817344 163.279787 
L 751.048594 165.602122 
L 761.511094 166.320801 
L 766.742344 163.946695 
L 771.973594 158.021665 
L 777.204844 145.381563 
L 782.436094 139.33192 
L 787.667344 138.531044 
L 792.898594 149.728044 
L 798.129844 165.777868 
L 803.361094 132.980194 
L 808.592344 125.457301 
L 813.823594 143.675287 
L 819.054844 149.870518 
L 824.286094 117.265871 
L 829.517344 121.795409 
L 834.748594 120.134373 
L 839.979844 99.807269 
L 845.211094 109.650086 
L 850.442344 29.495625 
L 855.673594 99.14524 
L 860.904844 120.453501 
L 866.136094 110.410849 
L 871.367344 106.883184 
L 876.598594 107.395741 
L 881.829844 104.414345 
L 887.061094 98.212082 
L 887.061094 98.212082 
" clip-path="url(#p9e390c2391)" style="fill: none; stroke: #0000ff; stroke-width: 1.5; stroke-linecap: round"/>
   </g>
   <g id="line2d_2">
    <path d="M 50.061094 131.732636 
L 55.292344 144.148007 
L 60.523594 144.310849 
L 65.754844 143.036033 
L 70.986094 148.77926 
L 76.217344 144.878158 
L 81.448594 140.334146 
L 86.679844 142.54317 
L 91.911094 140.261442 
L 97.142344 124.691346 
L 102.373594 128.584364 
L 107.604844 139.711798 
L 112.836094 133.512666 
L 118.067344 130.440054 
L 123.298594 127.893211 
L 128.529844 123.79486 
L 133.761094 133.046658 
L 138.992344 133.481971 
L 144.223594 128.490423 
L 149.454844 133.892195 
L 154.686094 133.417455 
L 159.917344 141.035201 
L 165.148594 142.415165 
L 170.379844 141.455597 
L 175.611094 146.406152 
L 180.842344 145.183483 
L 186.073594 146.652716 
L 191.304844 144.595087 
L 196.536094 146.543521 
L 201.767344 146.324045 
L 206.998594 152.691553 
L 212.229844 153.239711 
L 217.461094 151.188532 
L 222.692344 154.711698 
L 227.923594 156.814163 
L 233.154844 155.407594 
L 238.386094 155.225559 
L 243.617344 157.740591 
L 248.848594 155.856562 
L 254.079844 156.694509 
L 259.311094 155.088377 
L 264.542344 154.194428 
L 269.773594 156.331879 
L 275.004844 151.445522 
L 280.236094 130.821081 
L 285.467344 129.238577 
L 290.698594 128.641731 
L 295.929844 130.729598 
L 301.161094 118.902087 
L 306.392344 108.225038 
L 311.623594 118.24715 
L 316.854844 121.716863 
L 322.086094 119.797502 
L 327.317344 119.310398 
L 332.548594 118.24715 
L 337.779844 121.716863 
L 343.011094 121.134469 
L 348.242344 119.310398 
L 353.473594 118.24715 
L 358.704844 119.310398 
L 416.248594 119.310398 
L 421.479844 128.731444 
L 426.711094 119.310398 
L 431.942344 128.731444 
L 437.173594 129.342132 
L 442.404844 129.342132 
L 447.636094 132.066087 
L 452.867344 132.647888 
L 458.098594 131.228109 
L 463.329844 128.936417 
L 468.561094 128.492813 
L 473.792344 127.685831 
L 479.023594 131.609901 
L 484.254844 137.415452 
L 489.486094 137.550307 
L 494.717344 145.225546 
L 499.948594 144.120368 
L 505.179844 145.06521 
L 510.411094 144.977228 
L 515.642344 146.460764 
L 520.873594 146.147163 
L 541.798594 146.147163 
L 547.029844 143.144549 
L 552.261094 144.817323 
L 557.492344 136.016058 
L 562.723594 126.664391 
L 567.954844 127.863352 
L 573.186094 120.520741 
L 578.417344 127.668196 
L 583.648594 127.668196 
L 588.879844 119.310398 
L 594.111094 119.310398 
L 599.342344 118.450913 
L 604.573594 119.310398 
L 609.804844 119.921086 
L 615.036094 120.108461 
L 620.267344 121.043279 
L 625.498594 129.234508 
L 630.729844 129.090244 
L 635.961094 134.013044 
L 641.192344 128.143714 
L 651.654844 131.963612 
L 703.967344 131.963612 
L 709.198594 133.755458 
L 714.429844 132.5743 
L 719.661094 135.034151 
L 724.892344 135.050126 
L 730.123594 138.755628 
L 735.354844 137.712494 
L 740.586094 143.53654 
L 745.817344 145.004003 
L 751.048594 145.453522 
L 756.279844 146.460764 
L 761.511094 146.460764 
L 766.742344 146.147163 
L 782.436094 146.147163 
L 787.667344 144.748968 
L 792.898594 140.108648 
L 798.129844 138.938779 
L 803.361094 140.48323 
L 808.592344 143.089641 
L 813.823594 133.192885 
L 819.054844 132.854797 
L 824.286094 136.757131 
L 829.517344 129.716579 
L 834.748594 132.360575 
L 839.979844 130.781621 
L 845.211094 124.580348 
L 850.442344 129.332456 
L 855.673594 122.047805 
L 860.904844 132.836757 
L 866.136094 130.433534 
L 871.367344 121.012488 
L 876.598594 131.91707 
L 881.829844 125.481529 
L 887.061094 130.214979 
L 887.061094 130.214979 
" clip-path="url(#p9e390c2391)" style="fill: none; stroke: #ff0000; stroke-width: 1.5; stroke-linecap: round"/>
   </g>
   <g id="line2d_3">
    <path d="M 50.061094 137.132165 
L 55.292344 148.137258 
L 60.523594 150.303473 
L 65.754844 139.951244 
L 70.986094 148.72882 
L 76.217344 143.465071 
L 81.448594 141.214139 
L 86.679844 137.481152 
L 91.911094 144.718706 
L 97.142344 106.954841 
L 102.373594 124.391444 
L 107.604844 141.25963 
L 112.836094 129.153021 
L 118.067344 134.486193 
L 123.298594 124.952391 
L 128.529844 123.203864 
L 133.761094 127.808759 
L 138.992344 140.050678 
L 144.223594 120.040908 
L 149.454844 142.905091 
L 154.686094 140.234301 
L 159.917344 146.748771 
L 165.148594 147.277091 
L 170.379844 136.284742 
L 175.611094 141.393538 
L 180.842344 149.440075 
L 186.073594 148.964294 
L 191.304844 135.9892 
L 196.536094 144.057221 
L 201.767344 150.24532 
L 206.998594 156.733748 
L 212.229844 154.856859 
L 217.461094 151.557532 
L 222.692344 150.082231 
L 227.923594 162.171693 
L 233.154844 143.591185 
L 238.386094 153.305066 
L 243.617344 153.145225 
L 248.848594 165.676818 
L 254.079844 174.867595 
L 259.311094 152.503952 
L 264.542344 155.079574 
L 269.773594 166.018999 
L 275.004844 158.226516 
L 280.236094 118.987019 
L 285.467344 128.647134 
L 290.698594 132.061268 
L 295.929844 136.902564 
L 301.161094 130.956089 
L 306.392344 68.217989 
L 311.623594 124.095088 
L 316.854844 137.662825 
L 322.086094 122.843745 
L 327.317344 128.874164 
L 332.548594 124.253016 
L 337.779844 124.169002 
L 343.011094 126.050805 
L 348.242344 134.210841 
L 353.473594 122.84674 
L 358.704844 120.864993 
L 363.936094 111.089145 
L 369.167344 99.543047 
L 374.398594 87.634934 
L 379.629844 111.649989 
L 384.861094 122.020019 
L 390.092344 110.860404 
L 395.323594 110.364273 
L 400.554844 127.28392 
L 405.786094 116.716313 
L 411.017344 123.180177 
L 416.248594 111.34633 
L 421.479844 127.173223 
L 426.711094 137.789223 
L 431.942344 139.12988 
L 437.173594 143.089805 
L 442.404844 133.349781 
L 447.636094 131.011928 
L 452.867344 133.882783 
L 458.098594 132.659117 
L 463.329844 121.429482 
L 468.561094 131.519092 
L 473.792344 143.059274 
L 479.023594 146.360488 
L 484.254844 148.636508 
L 489.486094 151.404539 
L 494.717344 155.412286 
L 499.948594 166.906634 
L 505.179844 180.695625 
L 510.411094 174.426043 
L 515.642344 168.501153 
L 520.873594 164.64164 
L 526.104844 172.605201 
L 531.336094 141.969836 
L 536.567344 146.76273 
L 541.798594 148.880411 
L 547.029844 146.403934 
L 552.261094 116.866838 
L 557.492344 118.234701 
L 562.723594 117.692485 
L 567.954844 102.978573 
L 573.186094 113.591646 
L 578.417344 35.937944 
L 583.648594 106.952824 
L 588.879844 131.211189 
L 594.111094 120.917661 
L 599.342344 131.606843 
L 604.573594 138.825806 
L 609.804844 140.430238 
L 615.036094 136.094603 
L 620.267344 129.514622 
L 625.498594 128.901805 
L 630.729844 126.964991 
L 635.961094 126.217649 
L 641.192344 116.506154 
L 646.423594 83.82952 
L 651.654844 121.709537 
L 656.886094 130.487717 
L 662.117344 120.727872 
L 667.348594 119.347101 
L 672.579844 120.721425 
L 677.811094 116.777881 
L 683.042344 120.586924 
L 688.273594 118.469693 
L 693.504844 113.486946 
L 698.736094 138.164125 
L 703.967344 137.231211 
L 709.198594 140.87977 
L 714.429844 138.226638 
L 719.661094 137.225934 
L 724.892344 147.464753 
L 730.123594 151.805938 
L 735.354844 158.412466 
L 740.586094 159.714974 
L 745.817344 163.279787 
L 751.048594 165.602122 
L 761.511094 166.320801 
L 766.742344 163.946695 
L 771.973594 158.021665 
L 777.204844 145.381563 
L 782.436094 139.33192 
L 787.667344 138.531044 
L 792.898594 149.728044 
L 798.129844 165.777868 
L 803.361094 132.980194 
L 808.592344 125.457301 
L 813.823594 143.675287 
L 819.054844 149.870518 
L 824.286094 117.265871 
L 829.517344 121.795409 
L 834.748594 120.134373 
L 839.979844 99.807269 
L 845.211094 109.650086 
L 850.442344 29.495625 
L 855.673594 99.14524 
L 860.904844 120.453501 
L 866.136094 110.410849 
L 871.367344 106.883184 
L 876.598594 107.395741 
L 881.829844 104.414345 
L 887.061094 98.212082 
L 887.061094 98.212082 
" clip-path="url(#p9e390c2391)" style="fill: none; stroke: #0000ff; stroke-opacity: 0.125; stroke-width: 1.5; stroke-linecap: round"/>
   </g>
   <g id="line2d_4">
    <path d="M 50.061094 131.732636 
L 55.292344 144.148007 
L 60.523594 144.310849 
L 65.754844 143.036033 
L 70.986094 148.77926 
L 76.217344 144.878158 
L 81.448594 140.334146 
L 86.679844 142.54317 
L 91.911094 140.261442 
L 97.142344 124.691346 
L 102.373594 128.584364 
L 107.604844 139.711798 
L 112.836094 133.512666 
L 118.067344 130.440054 
L 123.298594 127.893211 
L 128.529844 123.79486 
L 133.761094 133.046658 
L 138.992344 133.481971 
L 144.223594 128.490423 
L 149.454844 133.892195 
L 154.686094 133.417455 
L 159.917344 141.035201 
L 165.148594 142.415165 
L 170.379844 141.455597 
L 175.611094 146.406152 
L 180.842344 145.183483 
L 186.073594 146.652716 
L 191.304844 144.595087 
L 196.536094 146.543521 
L 201.767344 146.324045 
L 206.998594 152.691553 
L 212.229844 153.239711 
L 217.461094 151.188532 
L 222.692344 154.711698 
L 227.923594 156.814163 
L 233.154844 155.407594 
L 238.386094 155.225559 
L 243.617344 157.740591 
L 248.848594 155.856562 
L 254.079844 156.694509 
L 259.311094 155.088377 
L 264.542344 154.194428 
L 269.773594 156.331879 
L 275.004844 151.445522 
L 280.236094 130.821081 
L 285.467344 129.238577 
L 290.698594 128.641731 
L 295.929844 130.729598 
L 301.161094 118.902087 
L 306.392344 108.225038 
L 311.623594 118.24715 
L 316.854844 121.716863 
L 322.086094 119.797502 
L 327.317344 119.310398 
L 332.548594 118.24715 
L 337.779844 121.716863 
L 343.011094 121.134469 
L 348.242344 119.310398 
L 353.473594 118.24715 
L 358.704844 119.310398 
L 416.248594 119.310398 
L 421.479844 128.731444 
L 426.711094 119.310398 
L 431.942344 128.731444 
L 437.173594 129.342132 
L 442.404844 129.342132 
L 447.636094 132.066087 
L 452.867344 132.647888 
L 458.098594 131.228109 
L 463.329844 128.936417 
L 468.561094 128.492813 
L 473.792344 127.685831 
L 479.023594 131.609901 
L 484.254844 137.415452 
L 489.486094 137.550307 
L 494.717344 145.225546 
L 499.948594 144.120368 
L 505.179844 145.06521 
L 510.411094 144.977228 
L 515.642344 146.460764 
L 520.873594 146.147163 
L 541.798594 146.147163 
L 547.029844 143.144549 
L 552.261094 144.817323 
L 557.492344 136.016058 
L 562.723594 126.664391 
L 567.954844 127.863352 
L 573.186094 120.520741 
L 578.417344 127.668196 
L 583.648594 127.668196 
L 588.879844 119.310398 
L 594.111094 119.310398 
L 599.342344 118.450913 
L 604.573594 119.310398 
L 609.804844 119.921086 
L 615.036094 120.108461 
L 620.267344 121.043279 
L 625.498594 129.234508 
L 630.729844 129.090244 
L 635.961094 134.013044 
L 641.192344 128.143714 
L 651.654844 131.963612 
L 703.967344 131.963612 
L 709.198594 133.755458 
L 714.429844 132.5743 
L 719.661094 135.034151 
L 724.892344 135.050126 
L 730.123594 138.755628 
L 735.354844 137.712494 
L 740.586094 143.53654 
L 745.817344 145.004003 
L 751.048594 145.453522 
L 756.279844 146.460764 
L 761.511094 146.460764 
L 766.742344 146.147163 
L 782.436094 146.147163 
L 787.667344 144.748968 
L 792.898594 140.108648 
L 798.129844 138.938779 
L 803.361094 140.48323 
L 808.592344 143.089641 
L 813.823594 133.192885 
L 819.054844 132.854797 
L 824.286094 136.757131 
L 829.517344 129.716579 
L 834.748594 132.360575 
L 839.979844 130.781621 
L 845.211094 124.580348 
L 850.442344 129.332456 
L 855.673594 122.047805 
L 860.904844 132.836757 
L 866.136094 130.433534 
L 871.367344 121.012488 
L 876.598594 131.91707 
L 881.829844 125.481529 
L 887.061094 130.214979 
L 887.061094 130.214979 
" clip-path="url(#p9e390c2391)" style="fill: none; stroke: #ff0000; stroke-opacity: 0.125; stroke-width: 1.5; stroke-linecap: round"/>
   </g>
   <g id="patch_5">
    <path d="M 50.061094 188.255625 
L 50.061094 21.935625 
" style="fill: none; stroke: #262626; stroke-width: 1.25; stroke-linejoin: miter; stroke-linecap: square"/>
   </g>
   <g id="patch_6">
    <path d="M 887.061094 188.255625 
L 887.061094 21.935625 
" style="fill: none; stroke: #262626; stroke-width: 1.25; stroke-linejoin: miter; stroke-linecap: square"/>
   </g>
   <g id="patch_7">
    <path d="M 50.061094 188.255625 
L 887.061094 188.255625 
" style="fill: none; stroke: #262626; stroke-width: 1.25; stroke-linejoin: miter; stroke-linecap: square"/>
   </g>
   <g id="patch_8">
    <path d="M 50.061094 21.935625 
L 887.061094 21.935625 
" style="fill: none; stroke: #262626; stroke-width: 1.25; stroke-linejoin: miter; stroke-linecap: square"/>
   </g>
   <g id="text_15">
    <!-- Weekly demand in millions of avocados -->
    <g style="fill: #262626" transform="translate(363.622031 15.935625) scale(0.12 -0.12)">
     <defs>
      <path id="ArialMT-57" d="M 1294 0 
L 78 4581 
L 700 4581 
L 1397 1578 
Q 1509 1106 1591 641 
Q 1766 1375 1797 1488 
L 2669 4581 
L 3400 4581 
L 4056 2263 
Q 4303 1400 4413 641 
Q 4500 1075 4641 1638 
L 5359 4581 
L 5969 4581 
L 4713 0 
L 4128 0 
L 3163 3491 
Q 3041 3928 3019 4028 
Q 2947 3713 2884 3491 
L 1913 0 
L 1294 0 
z
" transform="scale(0.015625)"/>
      <path id="ArialMT-6b" d="M 425 0 
L 425 4581 
L 988 4581 
L 988 1969 
L 2319 3319 
L 3047 3319 
L 1778 2088 
L 3175 0 
L 2481 0 
L 1384 1697 
L 988 1316 
L 988 0 
L 425 0 
z
" transform="scale(0.015625)"/>
      <path id="ArialMT-79" d="M 397 -1278 
L 334 -750 
Q 519 -800 656 -800 
Q 844 -800 956 -737 
Q 1069 -675 1141 -563 
Q 1194 -478 1313 -144 
Q 1328 -97 1363 -6 
L 103 3319 
L 709 3319 
L 1400 1397 
Q 1534 1031 1641 628 
Q 1738 1016 1872 1384 
L 2581 3319 
L 3144 3319 
L 1881 -56 
Q 1678 -603 1566 -809 
Q 1416 -1088 1222 -1217 
Q 1028 -1347 759 -1347 
Q 597 -1347 397 -1278 
z
" transform="scale(0.015625)"/>
      <path id="ArialMT-6f" d="M 213 1659 
Q 213 2581 725 3025 
Q 1153 3394 1769 3394 
Q 2453 3394 2887 2945 
Q 3322 2497 3322 1706 
Q 3322 1066 3130 698 
Q 2938 331 2570 128 
Q 2203 -75 1769 -75 
Q 1072 -75 642 372 
Q 213 819 213 1659 
z
M 791 1659 
Q 791 1022 1069 705 
Q 1347 388 1769 388 
Q 2188 388 2466 706 
Q 2744 1025 2744 1678 
Q 2744 2294 2464 2611 
Q 2184 2928 1769 2928 
Q 1347 2928 1069 2612 
Q 791 2297 791 1659 
z
" transform="scale(0.015625)"/>
      <path id="ArialMT-66" d="M 556 0 
L 556 2881 
L 59 2881 
L 59 3319 
L 556 3319 
L 556 3672 
Q 556 4006 616 4169 
Q 697 4388 901 4523 
Q 1106 4659 1475 4659 
Q 1713 4659 2000 4603 
L 1916 4113 
Q 1741 4144 1584 4144 
Q 1328 4144 1222 4034 
Q 1116 3925 1116 3625 
L 1116 3319 
L 1763 3319 
L 1763 2881 
L 1116 2881 
L 1116 0 
L 556 0 
z
" transform="scale(0.015625)"/>
      <path id="ArialMT-76" d="M 1344 0 
L 81 3319 
L 675 3319 
L 1388 1331 
Q 1503 1009 1600 663 
Q 1675 925 1809 1294 
L 2547 3319 
L 3125 3319 
L 1869 0 
L 1344 0 
z
" transform="scale(0.015625)"/>
      <path id="ArialMT-63" d="M 2588 1216 
L 3141 1144 
Q 3050 572 2676 248 
Q 2303 -75 1759 -75 
Q 1078 -75 664 370 
Q 250 816 250 1647 
Q 250 2184 428 2587 
Q 606 2991 970 3192 
Q 1334 3394 1763 3394 
Q 2303 3394 2647 3120 
Q 2991 2847 3088 2344 
L 2541 2259 
Q 2463 2594 2264 2762 
Q 2066 2931 1784 2931 
Q 1359 2931 1093 2626 
Q 828 2322 828 1663 
Q 828 994 1084 691 
Q 1341 388 1753 388 
Q 2084 388 2306 591 
Q 2528 794 2588 1216 
z
" transform="scale(0.015625)"/>
     </defs>
     <use xlink:href="#ArialMT-57"/>
     <use xlink:href="#ArialMT-65" x="92.634766"/>
     <use xlink:href="#ArialMT-65" x="148.25"/>
     <use xlink:href="#ArialMT-6b" x="203.865234"/>
     <use xlink:href="#ArialMT-6c" x="253.865234"/>
     <use xlink:href="#ArialMT-79" x="276.082031"/>
     <use xlink:href="#ArialMT-20" x="326.082031"/>
     <use xlink:href="#ArialMT-64" x="353.865234"/>
     <use xlink:href="#ArialMT-65" x="409.480469"/>
     <use xlink:href="#ArialMT-6d" x="465.095703"/>
     <use xlink:href="#ArialMT-61" x="548.396484"/>
     <use xlink:href="#ArialMT-6e" x="604.011719"/>
     <use xlink:href="#ArialMT-64" x="659.626953"/>
     <use xlink:href="#ArialMT-20" x="715.242188"/>
     <use xlink:href="#ArialMT-69" x="743.025391"/>
     <use xlink:href="#ArialMT-6e" x="765.242188"/>
     <use xlink:href="#ArialMT-20" x="820.857422"/>
     <use xlink:href="#ArialMT-6d" x="848.640625"/>
     <use xlink:href="#ArialMT-69" x="931.941406"/>
     <use xlink:href="#ArialMT-6c" x="954.158203"/>
     <use xlink:href="#ArialMT-6c" x="976.375"/>
     <use xlink:href="#ArialMT-69" x="998.591797"/>
     <use xlink:href="#ArialMT-6f" x="1020.808594"/>
     <use xlink:href="#ArialMT-6e" x="1076.423828"/>
     <use xlink:href="#ArialMT-73" x="1132.039062"/>
     <use xlink:href="#ArialMT-20" x="1182.039062"/>
     <use xlink:href="#ArialMT-6f" x="1209.822266"/>
     <use xlink:href="#ArialMT-66" x="1265.4375"/>
     <use xlink:href="#ArialMT-20" x="1293.220703"/>
     <use xlink:href="#ArialMT-61" x="1321.003906"/>
     <use xlink:href="#ArialMT-76" x="1376.619141"/>
     <use xlink:href="#ArialMT-6f" x="1426.619141"/>
     <use xlink:href="#ArialMT-63" x="1482.234375"/>
     <use xlink:href="#ArialMT-61" x="1532.234375"/>
     <use xlink:href="#ArialMT-64" x="1587.849609"/>
     <use xlink:href="#ArialMT-6f" x="1643.464844"/>
     <use xlink:href="#ArialMT-73" x="1699.080078"/>
    </g>
   </g>
   <g id="legend_1">
    <g id="patch_9">
     <path d="M 57.761094 92.975 
L 184.07375 92.975 
Q 186.27375 92.975 186.27375 90.775 
L 186.27375 29.635625 
Q 186.27375 27.435625 184.07375 27.435625 
L 57.761094 27.435625 
Q 55.561094 27.435625 55.561094 29.635625 
L 55.561094 90.775 
Q 55.561094 92.975 57.761094 92.975 
z
" style="fill: #ffffff; opacity: 0.8; stroke: #cccccc; stroke-linejoin: miter"/>
    </g>
    <g id="line2d_5">
     <path d="M 59.961094 35.859219 
L 70.961094 35.859219 
L 81.961094 35.859219 
" style="fill: none; stroke: #0000ff; stroke-width: 1.5; stroke-linecap: round"/>
    </g>
    <g id="text_16">
     <!-- demand -->
     <g style="fill: #262626" transform="translate(90.761094 39.709219) scale(0.11 -0.11)">
      <use xlink:href="#ArialMT-64"/>
      <use xlink:href="#ArialMT-65" x="55.615234"/>
      <use xlink:href="#ArialMT-6d" x="111.230469"/>
      <use xlink:href="#ArialMT-61" x="194.53125"/>
      <use xlink:href="#ArialMT-6e" x="250.146484"/>
      <use xlink:href="#ArialMT-64" x="305.761719"/>
     </g>
    </g>
    <g id="line2d_6">
     <path d="M 59.961094 51.419063 
L 70.961094 51.419063 
L 81.961094 51.419063 
" style="fill: none; stroke: #ff0000; stroke-width: 1.5; stroke-linecap: round"/>
    </g>
    <g id="text_17">
     <!-- predicted_demand -->
     <g style="fill: #262626" transform="translate(90.761094 55.269063) scale(0.11 -0.11)">
      <defs>
       <path id="ArialMT-70" d="M 422 -1272 
L 422 3319 
L 934 3319 
L 934 2888 
Q 1116 3141 1344 3267 
Q 1572 3394 1897 3394 
Q 2322 3394 2647 3175 
Q 2972 2956 3137 2557 
Q 3303 2159 3303 1684 
Q 3303 1175 3120 767 
Q 2938 359 2589 142 
Q 2241 -75 1856 -75 
Q 1575 -75 1351 44 
Q 1128 163 984 344 
L 984 -1272 
L 422 -1272 
z
M 931 1641 
Q 931 1000 1190 694 
Q 1450 388 1819 388 
Q 2194 388 2461 705 
Q 2728 1022 2728 1688 
Q 2728 2322 2467 2637 
Q 2206 2953 1844 2953 
Q 1484 2953 1207 2617 
Q 931 2281 931 1641 
z
" transform="scale(0.015625)"/>
       <path id="ArialMT-72" d="M 416 0 
L 416 3319 
L 922 3319 
L 922 2816 
Q 1116 3169 1280 3281 
Q 1444 3394 1641 3394 
Q 1925 3394 2219 3213 
L 2025 2691 
Q 1819 2813 1613 2813 
Q 1428 2813 1281 2702 
Q 1134 2591 1072 2394 
Q 978 2094 978 1738 
L 978 0 
L 416 0 
z
" transform="scale(0.015625)"/>
       <path id="ArialMT-5f" d="M -97 -1272 
L -97 -866 
L 3631 -866 
L 3631 -1272 
L -97 -1272 
z
" transform="scale(0.015625)"/>
      </defs>
      <use xlink:href="#ArialMT-70"/>
      <use xlink:href="#ArialMT-72" x="55.615234"/>
      <use xlink:href="#ArialMT-65" x="88.916016"/>
      <use xlink:href="#ArialMT-64" x="144.53125"/>
      <use xlink:href="#ArialMT-69" x="200.146484"/>
      <use xlink:href="#ArialMT-63" x="222.363281"/>
      <use xlink:href="#ArialMT-74" x="272.363281"/>
      <use xlink:href="#ArialMT-65" x="300.146484"/>
      <use xlink:href="#ArialMT-64" x="355.761719"/>
      <use xlink:href="#ArialMT-5f" x="411.376953"/>
      <use xlink:href="#ArialMT-64" x="466.992188"/>
      <use xlink:href="#ArialMT-65" x="522.607422"/>
      <use xlink:href="#ArialMT-6d" x="578.222656"/>
      <use xlink:href="#ArialMT-61" x="661.523438"/>
      <use xlink:href="#ArialMT-6e" x="717.138672"/>
      <use xlink:href="#ArialMT-64" x="772.753906"/>
     </g>
    </g>
    <g id="patch_10">
     <path d="M 59.961094 70.828906 
L 81.961094 70.828906 
L 81.961094 63.128906 
L 59.961094 63.128906 
z
" style="fill: #44af69; opacity: 0.25; stroke: #44af69; stroke-linejoin: miter"/>
    </g>
    <g id="text_18">
     <!-- Train -->
     <g style="fill: #262626" transform="translate(90.761094 70.828906) scale(0.11 -0.11)">
      <defs>
       <path id="ArialMT-54" d="M 1659 0 
L 1659 4041 
L 150 4041 
L 150 4581 
L 3781 4581 
L 3781 4041 
L 2266 4041 
L 2266 0 
L 1659 0 
z
" transform="scale(0.015625)"/>
      </defs>
      <use xlink:href="#ArialMT-54"/>
      <use xlink:href="#ArialMT-72" x="57.333984"/>
      <use xlink:href="#ArialMT-61" x="90.634766"/>
      <use xlink:href="#ArialMT-69" x="146.25"/>
      <use xlink:href="#ArialMT-6e" x="168.466797"/>
     </g>
    </g>
    <g id="patch_11">
     <path d="M 59.961094 86.38875 
L 81.961094 86.38875 
L 81.961094 78.68875 
L 59.961094 78.68875 
z
" style="fill: #f2dc5d; opacity: 0.125; stroke: #f2dc5d; stroke-linejoin: miter"/>
    </g>
    <g id="text_19">
     <!-- Test -->
     <g style="fill: #262626" transform="translate(90.761094 86.38875) scale(0.11 -0.11)">
      <use xlink:href="#ArialMT-54"/>
      <use xlink:href="#ArialMT-65" x="49.958984"/>
      <use xlink:href="#ArialMT-73" x="105.574219"/>
      <use xlink:href="#ArialMT-74" x="155.574219"/>
     </g>
    </g>
   </g>
  </g>
 </g>
 <defs>
  <clipPath id="p9e390c2391">
   <rect x="50.061094" y="21.935625" width="837" height="166.32"/>
  </clipPath>
 </defs>
</svg>
