<?xml version="1.0" encoding="utf-8" standalone="no"?>
<!DOCTYPE svg PUBLIC "-//W3C//DTD SVG 1.1//EN"
  "http://www.w3.org/Graphics/SVG/1.1/DTD/svg11.dtd">
<svg xmlns:xlink="http://www.w3.org/1999/xlink" width="894.261094pt" height="285.429844pt" viewBox="0 0 894.261094 285.429844" xmlns="http://www.w3.org/2000/svg" version="1.1">
 <metadata>
  <rdf:RDF xmlns:dc="http://purl.org/dc/elements/1.1/" xmlns:cc="http://creativecommons.org/ns#" xmlns:rdf="http://www.w3.org/1999/02/22-rdf-syntax-ns#">
   <cc:Work>
    <dc:type rdf:resource="http://purl.org/dc/dcmitype/StillImage"/>
    <dc:date>2023-08-13T00:32:58.650221</dc:date>
    <dc:format>image/svg+xml</dc:format>
    <dc:creator>
     <cc:Agent>
      <dc:title>Matplotlib v3.7.1, https://matplotlib.org/</dc:title>
     </cc:Agent>
    </dc:creator>
   </cc:Work>
  </rdf:RDF>
 </metadata>
 <defs>
  <style type="text/css">*{stroke-linejoin: round; stroke-linecap: butt}</style>
 </defs>
 <g id="figure_1">
  <g id="patch_1">
   <path d="M 0 285.429844 
L 894.261094 285.429844 
L 894.261094 0 
L 0 0 
z
" style="fill: #ffffff"/>
  </g>
  <g id="axes_1">
   <g id="patch_2">
    <path d="M 50.061094 243.695625 
L 430.515639 243.695625 
L 430.515639 21.935625 
L 50.061094 21.935625 
z
" style="fill: #ffffff"/>
   </g>
   <g id="matplotlib.axis_1">
    <g id="xtick_1">
     <g id="text_1">
      <!-- 1 -->
      <g style="fill: #262626" transform="translate(85.048033 261.069219) scale(0.11 -0.11)">
       <defs>
        <path id="ArialMT-31" d="M 2384 0 
L 1822 0 
L 1822 3584 
Q 1619 3391 1289 3197 
Q 959 3003 697 2906 
L 697 3450 
Q 1169 3672 1522 3987 
Q 1875 4303 2022 4600 
L 2384 4600 
L 2384 0 
z
" transform="scale(0.015625)"/>
       </defs>
       <use xlink:href="#ArialMT-31"/>
      </g>
     </g>
    </g>
    <g id="xtick_2">
     <g id="text_2">
      <!-- 2 -->
      <g style="fill: #262626" transform="translate(161.138942 261.069219) scale(0.11 -0.11)">
       <defs>
        <path id="ArialMT-32" d="M 3222 541 
L 3222 0 
L 194 0 
Q 188 203 259 391 
Q 375 700 629 1000 
Q 884 1300 1366 1694 
Q 2113 2306 2375 2664 
Q 2638 3022 2638 3341 
Q 2638 3675 2398 3904 
Q 2159 4134 1775 4134 
Q 1369 4134 1125 3890 
Q 881 3647 878 3216 
L 300 3275 
Q 359 3922 746 4261 
Q 1134 4600 1788 4600 
Q 2447 4600 2831 4234 
Q 3216 3869 3216 3328 
Q 3216 3053 3103 2787 
Q 2991 2522 2730 2228 
Q 2469 1934 1863 1422 
Q 1356 997 1212 845 
Q 1069 694 975 541 
L 3222 541 
z
" transform="scale(0.015625)"/>
       </defs>
       <use xlink:href="#ArialMT-32"/>
      </g>
     </g>
    </g>
    <g id="xtick_3">
     <g id="text_3">
      <!-- 3 -->
      <g style="fill: #262626" transform="translate(237.229851 261.069219) scale(0.11 -0.11)">
       <defs>
        <path id="ArialMT-33" d="M 269 1209 
L 831 1284 
Q 928 806 1161 595 
Q 1394 384 1728 384 
Q 2125 384 2398 659 
Q 2672 934 2672 1341 
Q 2672 1728 2419 1979 
Q 2166 2231 1775 2231 
Q 1616 2231 1378 2169 
L 1441 2663 
Q 1497 2656 1531 2656 
Q 1891 2656 2178 2843 
Q 2466 3031 2466 3422 
Q 2466 3731 2256 3934 
Q 2047 4138 1716 4138 
Q 1388 4138 1169 3931 
Q 950 3725 888 3313 
L 325 3413 
Q 428 3978 793 4289 
Q 1159 4600 1703 4600 
Q 2078 4600 2393 4439 
Q 2709 4278 2876 4000 
Q 3044 3722 3044 3409 
Q 3044 3113 2884 2869 
Q 2725 2625 2413 2481 
Q 2819 2388 3044 2092 
Q 3269 1797 3269 1353 
Q 3269 753 2831 336 
Q 2394 -81 1725 -81 
Q 1122 -81 723 278 
Q 325 638 269 1209 
z
" transform="scale(0.015625)"/>
       </defs>
       <use xlink:href="#ArialMT-33"/>
      </g>
     </g>
    </g>
    <g id="xtick_4">
     <g id="text_4">
      <!-- 4 -->
      <g style="fill: #262626" transform="translate(313.32076 261.069219) scale(0.11 -0.11)">
       <defs>
        <path id="ArialMT-34" d="M 2069 0 
L 2069 1097 
L 81 1097 
L 81 1613 
L 2172 4581 
L 2631 4581 
L 2631 1613 
L 3250 1613 
L 3250 1097 
L 2631 1097 
L 2631 0 
L 2069 0 
z
M 2069 1613 
L 2069 3678 
L 634 1613 
L 2069 1613 
z
" transform="scale(0.015625)"/>
       </defs>
       <use xlink:href="#ArialMT-34"/>
      </g>
     </g>
    </g>
    <g id="xtick_5">
     <g id="text_5">
      <!-- 5 -->
      <g style="fill: #262626" transform="translate(389.411669 261.069219) scale(0.11 -0.11)">
       <defs>
        <path id="ArialMT-35" d="M 266 1200 
L 856 1250 
Q 922 819 1161 601 
Q 1400 384 1738 384 
Q 2144 384 2425 690 
Q 2706 997 2706 1503 
Q 2706 1984 2436 2262 
Q 2166 2541 1728 2541 
Q 1456 2541 1237 2417 
Q 1019 2294 894 2097 
L 366 2166 
L 809 4519 
L 3088 4519 
L 3088 3981 
L 1259 3981 
L 1013 2750 
Q 1425 3038 1878 3038 
Q 2478 3038 2890 2622 
Q 3303 2206 3303 1553 
Q 3303 931 2941 478 
Q 2500 -78 1738 -78 
Q 1113 -78 717 272 
Q 322 622 266 1200 
z
" transform="scale(0.015625)"/>
       </defs>
       <use xlink:href="#ArialMT-35"/>
      </g>
     </g>
    </g>
    <g id="text_6">
     <!-- week_in_month -->
     <g style="fill: #262626" transform="translate(198.264929 275.844844) scale(0.12 -0.12)">
      <defs>
       <path id="ArialMT-77" d="M 1034 0 
L 19 3319 
L 600 3319 
L 1128 1403 
L 1325 691 
Q 1338 744 1497 1375 
L 2025 3319 
L 2603 3319 
L 3100 1394 
L 3266 759 
L 3456 1400 
L 4025 3319 
L 4572 3319 
L 3534 0 
L 2950 0 
L 2422 1988 
L 2294 2553 
L 1622 0 
L 1034 0 
z
" transform="scale(0.015625)"/>
       <path id="ArialMT-65" d="M 2694 1069 
L 3275 997 
Q 3138 488 2766 206 
Q 2394 -75 1816 -75 
Q 1088 -75 661 373 
Q 234 822 234 1631 
Q 234 2469 665 2931 
Q 1097 3394 1784 3394 
Q 2450 3394 2872 2941 
Q 3294 2488 3294 1666 
Q 3294 1616 3291 1516 
L 816 1516 
Q 847 969 1125 678 
Q 1403 388 1819 388 
Q 2128 388 2347 550 
Q 2566 713 2694 1069 
z
M 847 1978 
L 2700 1978 
Q 2663 2397 2488 2606 
Q 2219 2931 1791 2931 
Q 1403 2931 1139 2672 
Q 875 2413 847 1978 
z
" transform="scale(0.015625)"/>
       <path id="ArialMT-6b" d="M 425 0 
L 425 4581 
L 988 4581 
L 988 1969 
L 2319 3319 
L 3047 3319 
L 1778 2088 
L 3175 0 
L 2481 0 
L 1384 1697 
L 988 1316 
L 988 0 
L 425 0 
z
" transform="scale(0.015625)"/>
       <path id="ArialMT-5f" d="M -97 -1272 
L -97 -866 
L 3631 -866 
L 3631 -1272 
L -97 -1272 
z
" transform="scale(0.015625)"/>
       <path id="ArialMT-69" d="M 425 3934 
L 425 4581 
L 988 4581 
L 988 3934 
L 425 3934 
z
M 425 0 
L 425 3319 
L 988 3319 
L 988 0 
L 425 0 
z
" transform="scale(0.015625)"/>
       <path id="ArialMT-6e" d="M 422 0 
L 422 3319 
L 928 3319 
L 928 2847 
Q 1294 3394 1984 3394 
Q 2284 3394 2536 3286 
Q 2788 3178 2913 3003 
Q 3038 2828 3088 2588 
Q 3119 2431 3119 2041 
L 3119 0 
L 2556 0 
L 2556 2019 
Q 2556 2363 2490 2533 
Q 2425 2703 2258 2804 
Q 2091 2906 1866 2906 
Q 1506 2906 1245 2678 
Q 984 2450 984 1813 
L 984 0 
L 422 0 
z
" transform="scale(0.015625)"/>
       <path id="ArialMT-6d" d="M 422 0 
L 422 3319 
L 925 3319 
L 925 2853 
Q 1081 3097 1340 3245 
Q 1600 3394 1931 3394 
Q 2300 3394 2536 3241 
Q 2772 3088 2869 2813 
Q 3263 3394 3894 3394 
Q 4388 3394 4653 3120 
Q 4919 2847 4919 2278 
L 4919 0 
L 4359 0 
L 4359 2091 
Q 4359 2428 4304 2576 
Q 4250 2725 4106 2815 
Q 3963 2906 3769 2906 
Q 3419 2906 3187 2673 
Q 2956 2441 2956 1928 
L 2956 0 
L 2394 0 
L 2394 2156 
Q 2394 2531 2256 2718 
Q 2119 2906 1806 2906 
Q 1569 2906 1367 2781 
Q 1166 2656 1075 2415 
Q 984 2175 984 1722 
L 984 0 
L 422 0 
z
" transform="scale(0.015625)"/>
       <path id="ArialMT-6f" d="M 213 1659 
Q 213 2581 725 3025 
Q 1153 3394 1769 3394 
Q 2453 3394 2887 2945 
Q 3322 2497 3322 1706 
Q 3322 1066 3130 698 
Q 2938 331 2570 128 
Q 2203 -75 1769 -75 
Q 1072 -75 642 372 
Q 213 819 213 1659 
z
M 791 1659 
Q 791 1022 1069 705 
Q 1347 388 1769 388 
Q 2188 388 2466 706 
Q 2744 1025 2744 1678 
Q 2744 2294 2464 2611 
Q 2184 2928 1769 2928 
Q 1347 2928 1069 2612 
Q 791 2297 791 1659 
z
" transform="scale(0.015625)"/>
       <path id="ArialMT-74" d="M 1650 503 
L 1731 6 
Q 1494 -44 1306 -44 
Q 1000 -44 831 53 
Q 663 150 594 308 
Q 525 466 525 972 
L 525 2881 
L 113 2881 
L 113 3319 
L 525 3319 
L 525 4141 
L 1084 4478 
L 1084 3319 
L 1650 3319 
L 1650 2881 
L 1084 2881 
L 1084 941 
Q 1084 700 1114 631 
Q 1144 563 1211 522 
Q 1278 481 1403 481 
Q 1497 481 1650 503 
z
" transform="scale(0.015625)"/>
       <path id="ArialMT-68" d="M 422 0 
L 422 4581 
L 984 4581 
L 984 2938 
Q 1378 3394 1978 3394 
Q 2347 3394 2619 3248 
Q 2891 3103 3008 2847 
Q 3125 2591 3125 2103 
L 3125 0 
L 2563 0 
L 2563 2103 
Q 2563 2525 2380 2717 
Q 2197 2909 1863 2909 
Q 1613 2909 1392 2779 
Q 1172 2650 1078 2428 
Q 984 2206 984 1816 
L 984 0 
L 422 0 
z
" transform="scale(0.015625)"/>
      </defs>
      <use xlink:href="#ArialMT-77"/>
      <use xlink:href="#ArialMT-65" x="72.216797"/>
      <use xlink:href="#ArialMT-65" x="127.832031"/>
      <use xlink:href="#ArialMT-6b" x="183.447266"/>
      <use xlink:href="#ArialMT-5f" x="233.447266"/>
      <use xlink:href="#ArialMT-69" x="289.0625"/>
      <use xlink:href="#ArialMT-6e" x="311.279297"/>
      <use xlink:href="#ArialMT-5f" x="366.894531"/>
      <use xlink:href="#ArialMT-6d" x="422.509766"/>
      <use xlink:href="#ArialMT-6f" x="505.810547"/>
      <use xlink:href="#ArialMT-6e" x="561.425781"/>
      <use xlink:href="#ArialMT-74" x="617.041016"/>
      <use xlink:href="#ArialMT-68" x="644.824219"/>
     </g>
    </g>
   </g>
   <g id="matplotlib.axis_2">
    <g id="ytick_1">
     <g id="text_7">
      <!-- 60 -->
      <g style="fill: #262626" transform="translate(28.327031 241.324558) scale(0.11 -0.11)">
       <defs>
        <path id="ArialMT-36" d="M 3184 3459 
L 2625 3416 
Q 2550 3747 2413 3897 
Q 2184 4138 1850 4138 
Q 1581 4138 1378 3988 
Q 1113 3794 959 3422 
Q 806 3050 800 2363 
Q 1003 2672 1297 2822 
Q 1591 2972 1913 2972 
Q 2475 2972 2870 2558 
Q 3266 2144 3266 1488 
Q 3266 1056 3080 686 
Q 2894 316 2569 119 
Q 2244 -78 1831 -78 
Q 1128 -78 684 439 
Q 241 956 241 2144 
Q 241 3472 731 4075 
Q 1159 4600 1884 4600 
Q 2425 4600 2770 4297 
Q 3116 3994 3184 3459 
z
M 888 1484 
Q 888 1194 1011 928 
Q 1134 663 1356 523 
Q 1578 384 1822 384 
Q 2178 384 2434 671 
Q 2691 959 2691 1453 
Q 2691 1928 2437 2201 
Q 2184 2475 1800 2475 
Q 1419 2475 1153 2201 
Q 888 1928 888 1484 
z
" transform="scale(0.015625)"/>
        <path id="ArialMT-30" d="M 266 2259 
Q 266 3072 433 3567 
Q 600 4063 929 4331 
Q 1259 4600 1759 4600 
Q 2128 4600 2406 4451 
Q 2684 4303 2865 4023 
Q 3047 3744 3150 3342 
Q 3253 2941 3253 2259 
Q 3253 1453 3087 958 
Q 2922 463 2592 192 
Q 2263 -78 1759 -78 
Q 1097 -78 719 397 
Q 266 969 266 2259 
z
M 844 2259 
Q 844 1131 1108 757 
Q 1372 384 1759 384 
Q 2147 384 2411 759 
Q 2675 1134 2675 2259 
Q 2675 3391 2411 3762 
Q 2147 4134 1753 4134 
Q 1366 4134 1134 3806 
Q 844 3388 844 2259 
z
" transform="scale(0.015625)"/>
       </defs>
       <use xlink:href="#ArialMT-36"/>
       <use xlink:href="#ArialMT-30" x="55.615234"/>
      </g>
     </g>
    </g>
    <g id="ytick_2">
     <g id="text_8">
      <!-- 70 -->
      <g style="fill: #262626" transform="translate(28.327031 215.809387) scale(0.11 -0.11)">
       <defs>
        <path id="ArialMT-37" d="M 303 3981 
L 303 4522 
L 3269 4522 
L 3269 4084 
Q 2831 3619 2401 2847 
Q 1972 2075 1738 1259 
Q 1569 684 1522 0 
L 944 0 
Q 953 541 1156 1306 
Q 1359 2072 1739 2783 
Q 2119 3494 2547 3981 
L 303 3981 
z
" transform="scale(0.015625)"/>
       </defs>
       <use xlink:href="#ArialMT-37"/>
       <use xlink:href="#ArialMT-30" x="55.615234"/>
      </g>
     </g>
    </g>
    <g id="ytick_3">
     <g id="text_9">
      <!-- 80 -->
      <g style="fill: #262626" transform="translate(28.327031 190.294215) scale(0.11 -0.11)">
       <defs>
        <path id="ArialMT-38" d="M 1131 2484 
Q 781 2613 612 2850 
Q 444 3088 444 3419 
Q 444 3919 803 4259 
Q 1163 4600 1759 4600 
Q 2359 4600 2725 4251 
Q 3091 3903 3091 3403 
Q 3091 3084 2923 2848 
Q 2756 2613 2416 2484 
Q 2838 2347 3058 2040 
Q 3278 1734 3278 1309 
Q 3278 722 2862 322 
Q 2447 -78 1769 -78 
Q 1091 -78 675 323 
Q 259 725 259 1325 
Q 259 1772 486 2073 
Q 713 2375 1131 2484 
z
M 1019 3438 
Q 1019 3113 1228 2906 
Q 1438 2700 1772 2700 
Q 2097 2700 2305 2904 
Q 2513 3109 2513 3406 
Q 2513 3716 2298 3927 
Q 2084 4138 1766 4138 
Q 1444 4138 1231 3931 
Q 1019 3725 1019 3438 
z
M 838 1322 
Q 838 1081 952 856 
Q 1066 631 1291 507 
Q 1516 384 1775 384 
Q 2178 384 2440 643 
Q 2703 903 2703 1303 
Q 2703 1709 2433 1975 
Q 2163 2241 1756 2241 
Q 1359 2241 1098 1978 
Q 838 1716 838 1322 
z
" transform="scale(0.015625)"/>
       </defs>
       <use xlink:href="#ArialMT-38"/>
       <use xlink:href="#ArialMT-30" x="55.615234"/>
      </g>
     </g>
    </g>
    <g id="ytick_4">
     <g id="text_10">
      <!-- 90 -->
      <g style="fill: #262626" transform="translate(28.327031 164.779043) scale(0.11 -0.11)">
       <defs>
        <path id="ArialMT-39" d="M 350 1059 
L 891 1109 
Q 959 728 1153 556 
Q 1347 384 1650 384 
Q 1909 384 2104 503 
Q 2300 622 2425 820 
Q 2550 1019 2634 1356 
Q 2719 1694 2719 2044 
Q 2719 2081 2716 2156 
Q 2547 1888 2255 1720 
Q 1963 1553 1622 1553 
Q 1053 1553 659 1965 
Q 266 2378 266 3053 
Q 266 3750 677 4175 
Q 1088 4600 1706 4600 
Q 2153 4600 2523 4359 
Q 2894 4119 3086 3673 
Q 3278 3228 3278 2384 
Q 3278 1506 3087 986 
Q 2897 466 2520 194 
Q 2144 -78 1638 -78 
Q 1100 -78 759 220 
Q 419 519 350 1059 
z
M 2653 3081 
Q 2653 3566 2395 3850 
Q 2138 4134 1775 4134 
Q 1400 4134 1122 3828 
Q 844 3522 844 3034 
Q 844 2597 1108 2323 
Q 1372 2050 1759 2050 
Q 2150 2050 2401 2323 
Q 2653 2597 2653 3081 
z
" transform="scale(0.015625)"/>
       </defs>
       <use xlink:href="#ArialMT-39"/>
       <use xlink:href="#ArialMT-30" x="55.615234"/>
      </g>
     </g>
    </g>
    <g id="ytick_5">
     <g id="text_11">
      <!-- 100 -->
      <g style="fill: #262626" transform="translate(22.21 139.263871) scale(0.11 -0.11)">
       <use xlink:href="#ArialMT-31"/>
       <use xlink:href="#ArialMT-30" x="55.615234"/>
       <use xlink:href="#ArialMT-30" x="111.230469"/>
      </g>
     </g>
    </g>
    <g id="ytick_6">
     <g id="text_12">
      <!-- 110 -->
      <g style="fill: #262626" transform="translate(23.02125 113.7487) scale(0.11 -0.11)">
       <use xlink:href="#ArialMT-31"/>
       <use xlink:href="#ArialMT-31" x="48.240234"/>
       <use xlink:href="#ArialMT-30" x="103.855469"/>
      </g>
     </g>
    </g>
    <g id="ytick_7">
     <g id="text_13">
      <!-- 120 -->
      <g style="fill: #262626" transform="translate(22.21 88.233528) scale(0.11 -0.11)">
       <use xlink:href="#ArialMT-31"/>
       <use xlink:href="#ArialMT-32" x="55.615234"/>
       <use xlink:href="#ArialMT-30" x="111.230469"/>
      </g>
     </g>
    </g>
    <g id="ytick_8">
     <g id="text_14">
      <!-- 130 -->
      <g style="fill: #262626" transform="translate(22.21 62.718356) scale(0.11 -0.11)">
       <use xlink:href="#ArialMT-31"/>
       <use xlink:href="#ArialMT-33" x="55.615234"/>
       <use xlink:href="#ArialMT-30" x="111.230469"/>
      </g>
     </g>
    </g>
    <g id="ytick_9">
     <g id="text_15">
      <!-- 140 -->
      <g style="fill: #262626" transform="translate(22.21 37.203185) scale(0.11 -0.11)">
       <use xlink:href="#ArialMT-31"/>
       <use xlink:href="#ArialMT-34" x="55.615234"/>
       <use xlink:href="#ArialMT-30" x="111.230469"/>
      </g>
     </g>
    </g>
    <g id="text_16">
     <!-- Demand [1e6 units] -->
     <g style="fill: #262626" transform="translate(15.825 184.843125) rotate(-90) scale(0.12 -0.12)">
      <defs>
       <path id="ArialMT-44" d="M 494 0 
L 494 4581 
L 2072 4581 
Q 2606 4581 2888 4516 
Q 3281 4425 3559 4188 
Q 3922 3881 4101 3404 
Q 4281 2928 4281 2316 
Q 4281 1794 4159 1391 
Q 4038 988 3847 723 
Q 3656 459 3429 307 
Q 3203 156 2883 78 
Q 2563 0 2147 0 
L 494 0 
z
M 1100 541 
L 2078 541 
Q 2531 541 2789 625 
Q 3047 709 3200 863 
Q 3416 1078 3536 1442 
Q 3656 1806 3656 2325 
Q 3656 3044 3420 3430 
Q 3184 3816 2847 3947 
Q 2603 4041 2063 4041 
L 1100 4041 
L 1100 541 
z
" transform="scale(0.015625)"/>
       <path id="ArialMT-61" d="M 2588 409 
Q 2275 144 1986 34 
Q 1697 -75 1366 -75 
Q 819 -75 525 192 
Q 231 459 231 875 
Q 231 1119 342 1320 
Q 453 1522 633 1644 
Q 813 1766 1038 1828 
Q 1203 1872 1538 1913 
Q 2219 1994 2541 2106 
Q 2544 2222 2544 2253 
Q 2544 2597 2384 2738 
Q 2169 2928 1744 2928 
Q 1347 2928 1158 2789 
Q 969 2650 878 2297 
L 328 2372 
Q 403 2725 575 2942 
Q 747 3159 1072 3276 
Q 1397 3394 1825 3394 
Q 2250 3394 2515 3294 
Q 2781 3194 2906 3042 
Q 3031 2891 3081 2659 
Q 3109 2516 3109 2141 
L 3109 1391 
Q 3109 606 3145 398 
Q 3181 191 3288 0 
L 2700 0 
Q 2613 175 2588 409 
z
M 2541 1666 
Q 2234 1541 1622 1453 
Q 1275 1403 1131 1340 
Q 988 1278 909 1158 
Q 831 1038 831 891 
Q 831 666 1001 516 
Q 1172 366 1500 366 
Q 1825 366 2078 508 
Q 2331 650 2450 897 
Q 2541 1088 2541 1459 
L 2541 1666 
z
" transform="scale(0.015625)"/>
       <path id="ArialMT-64" d="M 2575 0 
L 2575 419 
Q 2259 -75 1647 -75 
Q 1250 -75 917 144 
Q 584 363 401 755 
Q 219 1147 219 1656 
Q 219 2153 384 2558 
Q 550 2963 881 3178 
Q 1213 3394 1622 3394 
Q 1922 3394 2156 3267 
Q 2391 3141 2538 2938 
L 2538 4581 
L 3097 4581 
L 3097 0 
L 2575 0 
z
M 797 1656 
Q 797 1019 1065 703 
Q 1334 388 1700 388 
Q 2069 388 2326 689 
Q 2584 991 2584 1609 
Q 2584 2291 2321 2609 
Q 2059 2928 1675 2928 
Q 1300 2928 1048 2622 
Q 797 2316 797 1656 
z
" transform="scale(0.015625)"/>
       <path id="ArialMT-20" transform="scale(0.015625)"/>
       <path id="ArialMT-5b" d="M 434 -1272 
L 434 4581 
L 1675 4581 
L 1675 4116 
L 997 4116 
L 997 -806 
L 1675 -806 
L 1675 -1272 
L 434 -1272 
z
" transform="scale(0.015625)"/>
       <path id="ArialMT-75" d="M 2597 0 
L 2597 488 
Q 2209 -75 1544 -75 
Q 1250 -75 995 37 
Q 741 150 617 320 
Q 494 491 444 738 
Q 409 903 409 1263 
L 409 3319 
L 972 3319 
L 972 1478 
Q 972 1038 1006 884 
Q 1059 663 1231 536 
Q 1403 409 1656 409 
Q 1909 409 2131 539 
Q 2353 669 2445 892 
Q 2538 1116 2538 1541 
L 2538 3319 
L 3100 3319 
L 3100 0 
L 2597 0 
z
" transform="scale(0.015625)"/>
       <path id="ArialMT-73" d="M 197 991 
L 753 1078 
Q 800 744 1014 566 
Q 1228 388 1613 388 
Q 2000 388 2187 545 
Q 2375 703 2375 916 
Q 2375 1106 2209 1216 
Q 2094 1291 1634 1406 
Q 1016 1563 777 1677 
Q 538 1791 414 1992 
Q 291 2194 291 2438 
Q 291 2659 392 2848 
Q 494 3038 669 3163 
Q 800 3259 1026 3326 
Q 1253 3394 1513 3394 
Q 1903 3394 2198 3281 
Q 2494 3169 2634 2976 
Q 2775 2784 2828 2463 
L 2278 2388 
Q 2241 2644 2061 2787 
Q 1881 2931 1553 2931 
Q 1166 2931 1000 2803 
Q 834 2675 834 2503 
Q 834 2394 903 2306 
Q 972 2216 1119 2156 
Q 1203 2125 1616 2013 
Q 2213 1853 2448 1751 
Q 2684 1650 2818 1456 
Q 2953 1263 2953 975 
Q 2953 694 2789 445 
Q 2625 197 2315 61 
Q 2006 -75 1616 -75 
Q 969 -75 630 194 
Q 291 463 197 991 
z
" transform="scale(0.015625)"/>
       <path id="ArialMT-5d" d="M 1363 -1272 
L 122 -1272 
L 122 -806 
L 800 -806 
L 800 4116 
L 122 4116 
L 122 4581 
L 1363 4581 
L 1363 -1272 
z
" transform="scale(0.015625)"/>
      </defs>
      <use xlink:href="#ArialMT-44"/>
      <use xlink:href="#ArialMT-65" x="72.216797"/>
      <use xlink:href="#ArialMT-6d" x="127.832031"/>
      <use xlink:href="#ArialMT-61" x="211.132812"/>
      <use xlink:href="#ArialMT-6e" x="266.748047"/>
      <use xlink:href="#ArialMT-64" x="322.363281"/>
      <use xlink:href="#ArialMT-20" x="377.978516"/>
      <use xlink:href="#ArialMT-5b" x="405.761719"/>
      <use xlink:href="#ArialMT-31" x="433.544922"/>
      <use xlink:href="#ArialMT-65" x="489.160156"/>
      <use xlink:href="#ArialMT-36" x="544.775391"/>
      <use xlink:href="#ArialMT-20" x="600.390625"/>
      <use xlink:href="#ArialMT-75" x="628.173828"/>
      <use xlink:href="#ArialMT-6e" x="683.789062"/>
      <use xlink:href="#ArialMT-69" x="739.404297"/>
      <use xlink:href="#ArialMT-74" x="761.621094"/>
      <use xlink:href="#ArialMT-73" x="789.404297"/>
      <use xlink:href="#ArialMT-5d" x="839.404297"/>
     </g>
    </g>
   </g>
   <g id="patch_3">
    <path d="M 57.670185 179.230954 
L 118.542912 179.230954 
L 118.542912 137.789501 
L 57.670185 137.789501 
L 57.670185 179.230954 
z
" clip-path="url(#p74c85ee035)" style="fill: #2e2237; stroke: #1b1b1b; stroke-width: 1.5; stroke-linejoin: miter"/>
   </g>
   <g id="patch_4">
    <path d="M 133.761094 186.917938 
L 194.633821 186.917938 
L 194.633821 148.679461 
L 133.761094 148.679461 
L 133.761094 186.917938 
z
" clip-path="url(#p74c85ee035)" style="fill: #474473; stroke: #1b1b1b; stroke-width: 1.5; stroke-linejoin: miter"/>
   </g>
   <g id="patch_5">
    <path d="M 209.852003 192.443548 
L 270.72473 192.443548 
L 270.72473 144.269196 
L 209.852003 144.269196 
L 209.852003 192.443548 
z
" clip-path="url(#p74c85ee035)" style="fill: #446791; stroke: #1b1b1b; stroke-width: 1.5; stroke-linejoin: miter"/>
   </g>
   <g id="patch_6">
    <path d="M 285.942912 182.833334 
L 346.815639 182.833334 
L 346.815639 138.325373 
L 285.942912 138.325373 
L 285.942912 182.833334 
z
" clip-path="url(#p74c85ee035)" style="fill: #428799; stroke: #1b1b1b; stroke-width: 1.5; stroke-linejoin: miter"/>
   </g>
   <g id="patch_7">
    <path d="M 362.033821 174.25536 
L 422.906548 174.25536 
L 422.906548 139.260798 
L 362.033821 139.260798 
L 362.033821 174.25536 
z
" clip-path="url(#p74c85ee035)" style="fill: #4fa8a1; stroke: #1b1b1b; stroke-width: 1.5; stroke-linejoin: miter"/>
   </g>
   <g id="line2d_1">
    <path d="M 88.106548 179.230954 
L 88.106548 196.210282 
" clip-path="url(#p74c85ee035)" style="fill: none; stroke: #1b1b1b; stroke-width: 1.5; stroke-linecap: round"/>
   </g>
   <g id="line2d_2">
    <path d="M 88.106548 137.789501 
L 88.106548 135.280482 
" clip-path="url(#p74c85ee035)" style="fill: none; stroke: #1b1b1b; stroke-width: 1.5; stroke-linecap: round"/>
   </g>
   <g id="line2d_3">
    <path d="M 72.888366 196.210282 
L 103.32473 196.210282 
" clip-path="url(#p74c85ee035)" style="fill: none; stroke: #1b1b1b; stroke-width: 1.5; stroke-linecap: round"/>
   </g>
   <g id="line2d_4">
    <path d="M 72.888366 135.280482 
L 103.32473 135.280482 
" clip-path="url(#p74c85ee035)" style="fill: none; stroke: #1b1b1b; stroke-width: 1.5; stroke-linecap: round"/>
   </g>
   <g id="line2d_5">
    <defs>
     <path id="mc7aac458d9" d="M -0 3.535534 
L 2.12132 0 
L -0 -3.535534 
L -2.12132 -0 
z
" style="stroke: #1b1b1b; stroke-linejoin: miter"/>
    </defs>
    <g clip-path="url(#p74c85ee035)">
     <use xlink:href="#mc7aac458d9" x="88.106548" y="68.719521" style="fill: #1b1b1b; stroke: #1b1b1b; stroke-linejoin: miter"/>
    </g>
   </g>
   <g id="line2d_6">
    <path d="M 164.197457 186.917938 
L 164.197457 216.889103 
" clip-path="url(#p74c85ee035)" style="fill: none; stroke: #1b1b1b; stroke-width: 1.5; stroke-linecap: round"/>
   </g>
   <g id="line2d_7">
    <path d="M 164.197457 148.679461 
L 164.197457 114.115236 
" clip-path="url(#p74c85ee035)" style="fill: none; stroke: #1b1b1b; stroke-width: 1.5; stroke-linecap: round"/>
   </g>
   <g id="line2d_8">
    <path d="M 148.979276 216.889103 
L 179.415639 216.889103 
" clip-path="url(#p74c85ee035)" style="fill: none; stroke: #1b1b1b; stroke-width: 1.5; stroke-linecap: round"/>
   </g>
   <g id="line2d_9">
    <path d="M 148.979276 114.115236 
L 179.415639 114.115236 
" clip-path="url(#p74c85ee035)" style="fill: none; stroke: #1b1b1b; stroke-width: 1.5; stroke-linecap: round"/>
   </g>
   <g id="line2d_10"/>
   <g id="line2d_11">
    <path d="M 240.288366 192.443548 
L 240.288366 216.242279 
" clip-path="url(#p74c85ee035)" style="fill: none; stroke: #1b1b1b; stroke-width: 1.5; stroke-linecap: round"/>
   </g>
   <g id="line2d_12">
    <path d="M 240.288366 144.269196 
L 240.288366 113.055072 
" clip-path="url(#p74c85ee035)" style="fill: none; stroke: #1b1b1b; stroke-width: 1.5; stroke-linecap: round"/>
   </g>
   <g id="line2d_13">
    <path d="M 225.070185 216.242279 
L 255.506548 216.242279 
" clip-path="url(#p74c85ee035)" style="fill: none; stroke: #1b1b1b; stroke-width: 1.5; stroke-linecap: round"/>
   </g>
   <g id="line2d_14">
    <path d="M 225.070185 113.055072 
L 255.506548 113.055072 
" clip-path="url(#p74c85ee035)" style="fill: none; stroke: #1b1b1b; stroke-width: 1.5; stroke-linecap: round"/>
   </g>
   <g id="line2d_15"/>
   <g id="line2d_16">
    <path d="M 316.379276 182.833334 
L 316.379276 233.615625 
" clip-path="url(#p74c85ee035)" style="fill: none; stroke: #1b1b1b; stroke-width: 1.5; stroke-linecap: round"/>
   </g>
   <g id="line2d_17">
    <path d="M 316.379276 138.325373 
L 316.379276 91.229455 
" clip-path="url(#p74c85ee035)" style="fill: none; stroke: #1b1b1b; stroke-width: 1.5; stroke-linecap: round"/>
   </g>
   <g id="line2d_18">
    <path d="M 301.161094 233.615625 
L 331.597457 233.615625 
" clip-path="url(#p74c85ee035)" style="fill: none; stroke: #1b1b1b; stroke-width: 1.5; stroke-linecap: round"/>
   </g>
   <g id="line2d_19">
    <path d="M 301.161094 91.229455 
L 331.597457 91.229455 
" clip-path="url(#p74c85ee035)" style="fill: none; stroke: #1b1b1b; stroke-width: 1.5; stroke-linecap: round"/>
   </g>
   <g id="line2d_20"/>
   <g id="line2d_21">
    <path d="M 392.470185 174.25536 
L 392.470185 191.341579 
" clip-path="url(#p74c85ee035)" style="fill: none; stroke: #1b1b1b; stroke-width: 1.5; stroke-linecap: round"/>
   </g>
   <g id="line2d_22">
    <path d="M 392.470185 139.260798 
L 392.470185 139.260798 
" clip-path="url(#p74c85ee035)" style="fill: none; stroke: #1b1b1b; stroke-width: 1.5; stroke-linecap: round"/>
   </g>
   <g id="line2d_23">
    <path d="M 377.252003 191.341579 
L 407.688366 191.341579 
" clip-path="url(#p74c85ee035)" style="fill: none; stroke: #1b1b1b; stroke-width: 1.5; stroke-linecap: round"/>
   </g>
   <g id="line2d_24">
    <path d="M 377.252003 139.260798 
L 407.688366 139.260798 
" clip-path="url(#p74c85ee035)" style="fill: none; stroke: #1b1b1b; stroke-width: 1.5; stroke-linecap: round"/>
   </g>
   <g id="line2d_25">
    <g clip-path="url(#p74c85ee035)">
     <use xlink:href="#mc7aac458d9" x="392.470185" y="32.015625" style="fill: #1b1b1b; stroke: #1b1b1b; stroke-linejoin: miter"/>
    </g>
   </g>
   <g id="line2d_26">
    <path d="M 57.670185 160.682368 
L 118.542912 160.682368 
" clip-path="url(#p74c85ee035)" style="fill: none; stroke: #1b1b1b; stroke-width: 1.5; stroke-linecap: round"/>
   </g>
   <g id="line2d_27">
    <path d="M 133.761094 168.148228 
L 194.633821 168.148228 
" clip-path="url(#p74c85ee035)" style="fill: none; stroke: #1b1b1b; stroke-width: 1.5; stroke-linecap: round"/>
   </g>
   <g id="line2d_28">
    <path d="M 209.852003 167.801125 
L 270.72473 167.801125 
" clip-path="url(#p74c85ee035)" style="fill: none; stroke: #1b1b1b; stroke-width: 1.5; stroke-linecap: round"/>
   </g>
   <g id="line2d_29">
    <path d="M 285.942912 157.282566 
L 346.815639 157.282566 
" clip-path="url(#p74c85ee035)" style="fill: none; stroke: #1b1b1b; stroke-width: 1.5; stroke-linecap: round"/>
   </g>
   <g id="line2d_30">
    <path d="M 362.033821 160.123704 
L 422.906548 160.123704 
" clip-path="url(#p74c85ee035)" style="fill: none; stroke: #1b1b1b; stroke-width: 1.5; stroke-linecap: round"/>
   </g>
   <g id="patch_8">
    <path d="M 50.061094 243.695625 
L 50.061094 21.935625 
" style="fill: none; stroke: #262626; stroke-width: 1.25; stroke-linejoin: miter; stroke-linecap: square"/>
   </g>
   <g id="patch_9">
    <path d="M 430.515639 243.695625 
L 430.515639 21.935625 
" style="fill: none; stroke: #262626; stroke-width: 1.25; stroke-linejoin: miter; stroke-linecap: square"/>
   </g>
   <g id="patch_10">
    <path d="M 50.061094 243.695625 
L 430.515639 243.695625 
" style="fill: none; stroke: #262626; stroke-width: 1.25; stroke-linejoin: miter; stroke-linecap: square"/>
   </g>
   <g id="patch_11">
    <path d="M 50.061094 21.935625 
L 430.515639 21.935625 
" style="fill: none; stroke: #262626; stroke-width: 1.25; stroke-linejoin: miter; stroke-linecap: square"/>
   </g>
   <g id="text_17">
    <!-- Distribution of weekly avocados demand per week in a month -->
    <g style="fill: #262626" transform="translate(77.212116 15.935625) scale(0.12 -0.12)">
     <defs>
      <path id="ArialMT-72" d="M 416 0 
L 416 3319 
L 922 3319 
L 922 2816 
Q 1116 3169 1280 3281 
Q 1444 3394 1641 3394 
Q 1925 3394 2219 3213 
L 2025 2691 
Q 1819 2813 1613 2813 
Q 1428 2813 1281 2702 
Q 1134 2591 1072 2394 
Q 978 2094 978 1738 
L 978 0 
L 416 0 
z
" transform="scale(0.015625)"/>
      <path id="ArialMT-62" d="M 941 0 
L 419 0 
L 419 4581 
L 981 4581 
L 981 2947 
Q 1338 3394 1891 3394 
Q 2197 3394 2470 3270 
Q 2744 3147 2920 2923 
Q 3097 2700 3197 2384 
Q 3297 2069 3297 1709 
Q 3297 856 2875 390 
Q 2453 -75 1863 -75 
Q 1275 -75 941 416 
L 941 0 
z
M 934 1684 
Q 934 1088 1097 822 
Q 1363 388 1816 388 
Q 2184 388 2453 708 
Q 2722 1028 2722 1663 
Q 2722 2313 2464 2622 
Q 2206 2931 1841 2931 
Q 1472 2931 1203 2611 
Q 934 2291 934 1684 
z
" transform="scale(0.015625)"/>
      <path id="ArialMT-66" d="M 556 0 
L 556 2881 
L 59 2881 
L 59 3319 
L 556 3319 
L 556 3672 
Q 556 4006 616 4169 
Q 697 4388 901 4523 
Q 1106 4659 1475 4659 
Q 1713 4659 2000 4603 
L 1916 4113 
Q 1741 4144 1584 4144 
Q 1328 4144 1222 4034 
Q 1116 3925 1116 3625 
L 1116 3319 
L 1763 3319 
L 1763 2881 
L 1116 2881 
L 1116 0 
L 556 0 
z
" transform="scale(0.015625)"/>
      <path id="ArialMT-6c" d="M 409 0 
L 409 4581 
L 972 4581 
L 972 0 
L 409 0 
z
" transform="scale(0.015625)"/>
      <path id="ArialMT-79" d="M 397 -1278 
L 334 -750 
Q 519 -800 656 -800 
Q 844 -800 956 -737 
Q 1069 -675 1141 -563 
Q 1194 -478 1313 -144 
Q 1328 -97 1363 -6 
L 103 3319 
L 709 3319 
L 1400 1397 
Q 1534 1031 1641 628 
Q 1738 1016 1872 1384 
L 2581 3319 
L 3144 3319 
L 1881 -56 
Q 1678 -603 1566 -809 
Q 1416 -1088 1222 -1217 
Q 1028 -1347 759 -1347 
Q 597 -1347 397 -1278 
z
" transform="scale(0.015625)"/>
      <path id="ArialMT-76" d="M 1344 0 
L 81 3319 
L 675 3319 
L 1388 1331 
Q 1503 1009 1600 663 
Q 1675 925 1809 1294 
L 2547 3319 
L 3125 3319 
L 1869 0 
L 1344 0 
z
" transform="scale(0.015625)"/>
      <path id="ArialMT-63" d="M 2588 1216 
L 3141 1144 
Q 3050 572 2676 248 
Q 2303 -75 1759 -75 
Q 1078 -75 664 370 
Q 250 816 250 1647 
Q 250 2184 428 2587 
Q 606 2991 970 3192 
Q 1334 3394 1763 3394 
Q 2303 3394 2647 3120 
Q 2991 2847 3088 2344 
L 2541 2259 
Q 2463 2594 2264 2762 
Q 2066 2931 1784 2931 
Q 1359 2931 1093 2626 
Q 828 2322 828 1663 
Q 828 994 1084 691 
Q 1341 388 1753 388 
Q 2084 388 2306 591 
Q 2528 794 2588 1216 
z
" transform="scale(0.015625)"/>
      <path id="ArialMT-70" d="M 422 -1272 
L 422 3319 
L 934 3319 
L 934 2888 
Q 1116 3141 1344 3267 
Q 1572 3394 1897 3394 
Q 2322 3394 2647 3175 
Q 2972 2956 3137 2557 
Q 3303 2159 3303 1684 
Q 3303 1175 3120 767 
Q 2938 359 2589 142 
Q 2241 -75 1856 -75 
Q 1575 -75 1351 44 
Q 1128 163 984 344 
L 984 -1272 
L 422 -1272 
z
M 931 1641 
Q 931 1000 1190 694 
Q 1450 388 1819 388 
Q 2194 388 2461 705 
Q 2728 1022 2728 1688 
Q 2728 2322 2467 2637 
Q 2206 2953 1844 2953 
Q 1484 2953 1207 2617 
Q 931 2281 931 1641 
z
" transform="scale(0.015625)"/>
     </defs>
     <use xlink:href="#ArialMT-44"/>
     <use xlink:href="#ArialMT-69" x="72.216797"/>
     <use xlink:href="#ArialMT-73" x="94.433594"/>
     <use xlink:href="#ArialMT-74" x="144.433594"/>
     <use xlink:href="#ArialMT-72" x="172.216797"/>
     <use xlink:href="#ArialMT-69" x="205.517578"/>
     <use xlink:href="#ArialMT-62" x="227.734375"/>
     <use xlink:href="#ArialMT-75" x="283.349609"/>
     <use xlink:href="#ArialMT-74" x="338.964844"/>
     <use xlink:href="#ArialMT-69" x="366.748047"/>
     <use xlink:href="#ArialMT-6f" x="388.964844"/>
     <use xlink:href="#ArialMT-6e" x="444.580078"/>
     <use xlink:href="#ArialMT-20" x="500.195312"/>
     <use xlink:href="#ArialMT-6f" x="527.978516"/>
     <use xlink:href="#ArialMT-66" x="583.59375"/>
     <use xlink:href="#ArialMT-20" x="611.376953"/>
     <use xlink:href="#ArialMT-77" x="639.160156"/>
     <use xlink:href="#ArialMT-65" x="711.376953"/>
     <use xlink:href="#ArialMT-65" x="766.992188"/>
     <use xlink:href="#ArialMT-6b" x="822.607422"/>
     <use xlink:href="#ArialMT-6c" x="872.607422"/>
     <use xlink:href="#ArialMT-79" x="894.824219"/>
     <use xlink:href="#ArialMT-20" x="944.824219"/>
     <use xlink:href="#ArialMT-61" x="972.607422"/>
     <use xlink:href="#ArialMT-76" x="1028.222656"/>
     <use xlink:href="#ArialMT-6f" x="1078.222656"/>
     <use xlink:href="#ArialMT-63" x="1133.837891"/>
     <use xlink:href="#ArialMT-61" x="1183.837891"/>
     <use xlink:href="#ArialMT-64" x="1239.453125"/>
     <use xlink:href="#ArialMT-6f" x="1295.068359"/>
     <use xlink:href="#ArialMT-73" x="1350.683594"/>
     <use xlink:href="#ArialMT-20" x="1400.683594"/>
     <use xlink:href="#ArialMT-64" x="1428.466797"/>
     <use xlink:href="#ArialMT-65" x="1484.082031"/>
     <use xlink:href="#ArialMT-6d" x="1539.697266"/>
     <use xlink:href="#ArialMT-61" x="1622.998047"/>
     <use xlink:href="#ArialMT-6e" x="1678.613281"/>
     <use xlink:href="#ArialMT-64" x="1734.228516"/>
     <use xlink:href="#ArialMT-20" x="1789.84375"/>
     <use xlink:href="#ArialMT-70" x="1817.626953"/>
     <use xlink:href="#ArialMT-65" x="1873.242188"/>
     <use xlink:href="#ArialMT-72" x="1928.857422"/>
     <use xlink:href="#ArialMT-20" x="1962.158203"/>
     <use xlink:href="#ArialMT-77" x="1989.941406"/>
     <use xlink:href="#ArialMT-65" x="2062.158203"/>
     <use xlink:href="#ArialMT-65" x="2117.773438"/>
     <use xlink:href="#ArialMT-6b" x="2173.388672"/>
     <use xlink:href="#ArialMT-20" x="2223.388672"/>
     <use xlink:href="#ArialMT-69" x="2251.171875"/>
     <use xlink:href="#ArialMT-6e" x="2273.388672"/>
     <use xlink:href="#ArialMT-20" x="2329.003906"/>
     <use xlink:href="#ArialMT-61" x="2356.787109"/>
     <use xlink:href="#ArialMT-20" x="2412.402344"/>
     <use xlink:href="#ArialMT-6d" x="2440.185547"/>
     <use xlink:href="#ArialMT-6f" x="2523.486328"/>
     <use xlink:href="#ArialMT-6e" x="2579.101562"/>
     <use xlink:href="#ArialMT-74" x="2634.716797"/>
     <use xlink:href="#ArialMT-68" x="2662.5"/>
    </g>
   </g>
  </g>
  <g id="axes_2">
   <g id="patch_12">
    <path d="M 506.606548 243.695625 
L 887.061094 243.695625 
L 887.061094 21.935625 
L 506.606548 21.935625 
z
" style="fill: #ffffff"/>
   </g>
   <g id="matplotlib.axis_3">
    <g id="xtick_6">
     <g id="text_18">
      <!-- 1 -->
      <g style="fill: #262626" transform="translate(519.400305 261.069219) scale(0.11 -0.11)">
       <use xlink:href="#ArialMT-31"/>
      </g>
     </g>
    </g>
    <g id="xtick_7">
     <g id="text_19">
      <!-- 2 -->
      <g style="fill: #262626" transform="translate(551.104851 261.069219) scale(0.11 -0.11)">
       <use xlink:href="#ArialMT-32"/>
      </g>
     </g>
    </g>
    <g id="xtick_8">
     <g id="text_20">
      <!-- 3 -->
      <g style="fill: #262626" transform="translate(582.809396 261.069219) scale(0.11 -0.11)">
       <use xlink:href="#ArialMT-33"/>
      </g>
     </g>
    </g>
    <g id="xtick_9">
     <g id="text_21">
      <!-- 4 -->
      <g style="fill: #262626" transform="translate(614.513942 261.069219) scale(0.11 -0.11)">
       <use xlink:href="#ArialMT-34"/>
      </g>
     </g>
    </g>
    <g id="xtick_10">
     <g id="text_22">
      <!-- 5 -->
      <g style="fill: #262626" transform="translate(646.218487 261.069219) scale(0.11 -0.11)">
       <use xlink:href="#ArialMT-35"/>
      </g>
     </g>
    </g>
    <g id="xtick_11">
     <g id="text_23">
      <!-- 6 -->
      <g style="fill: #262626" transform="translate(677.923033 261.069219) scale(0.11 -0.11)">
       <use xlink:href="#ArialMT-36"/>
      </g>
     </g>
    </g>
    <g id="xtick_12">
     <g id="text_24">
      <!-- 7 -->
      <g style="fill: #262626" transform="translate(709.627578 261.069219) scale(0.11 -0.11)">
       <use xlink:href="#ArialMT-37"/>
      </g>
     </g>
    </g>
    <g id="xtick_13">
     <g id="text_25">
      <!-- 8 -->
      <g style="fill: #262626" transform="translate(741.332124 261.069219) scale(0.11 -0.11)">
       <use xlink:href="#ArialMT-38"/>
      </g>
     </g>
    </g>
    <g id="xtick_14">
     <g id="text_26">
      <!-- 9 -->
      <g style="fill: #262626" transform="translate(773.036669 261.069219) scale(0.11 -0.11)">
       <use xlink:href="#ArialMT-39"/>
      </g>
     </g>
    </g>
    <g id="xtick_15">
     <g id="text_27">
      <!-- 10 -->
      <g style="fill: #262626" transform="translate(801.682699 261.069219) scale(0.11 -0.11)">
       <use xlink:href="#ArialMT-31"/>
       <use xlink:href="#ArialMT-30" x="55.615234"/>
      </g>
     </g>
    </g>
    <g id="xtick_16">
     <g id="text_28">
      <!-- 11 -->
      <g style="fill: #262626" transform="translate(833.792869 261.069219) scale(0.11 -0.11)">
       <use xlink:href="#ArialMT-31"/>
       <use xlink:href="#ArialMT-31" x="48.240234"/>
      </g>
     </g>
    </g>
    <g id="xtick_17">
     <g id="text_29">
      <!-- 12 -->
      <g style="fill: #262626" transform="translate(865.09179 261.069219) scale(0.11 -0.11)">
       <use xlink:href="#ArialMT-31"/>
       <use xlink:href="#ArialMT-32" x="55.615234"/>
      </g>
     </g>
    </g>
    <g id="text_30">
     <!-- month -->
     <g style="fill: #262626" transform="translate(680.159446 275.844844) scale(0.12 -0.12)">
      <use xlink:href="#ArialMT-6d"/>
      <use xlink:href="#ArialMT-6f" x="83.300781"/>
      <use xlink:href="#ArialMT-6e" x="138.916016"/>
      <use xlink:href="#ArialMT-74" x="194.53125"/>
      <use xlink:href="#ArialMT-68" x="222.314453"/>
     </g>
    </g>
   </g>
   <g id="matplotlib.axis_4">
    <g id="ytick_10">
     <g id="text_31">
      <!-- 60 -->
      <g style="fill: #262626" transform="translate(484.872486 241.324558) scale(0.11 -0.11)">
       <use xlink:href="#ArialMT-36"/>
       <use xlink:href="#ArialMT-30" x="55.615234"/>
      </g>
     </g>
    </g>
    <g id="ytick_11">
     <g id="text_32">
      <!-- 70 -->
      <g style="fill: #262626" transform="translate(484.872486 215.809387) scale(0.11 -0.11)">
       <use xlink:href="#ArialMT-37"/>
       <use xlink:href="#ArialMT-30" x="55.615234"/>
      </g>
     </g>
    </g>
    <g id="ytick_12">
     <g id="text_33">
      <!-- 80 -->
      <g style="fill: #262626" transform="translate(484.872486 190.294215) scale(0.11 -0.11)">
       <use xlink:href="#ArialMT-38"/>
       <use xlink:href="#ArialMT-30" x="55.615234"/>
      </g>
     </g>
    </g>
    <g id="ytick_13">
     <g id="text_34">
      <!-- 90 -->
      <g style="fill: #262626" transform="translate(484.872486 164.779043) scale(0.11 -0.11)">
       <use xlink:href="#ArialMT-39"/>
       <use xlink:href="#ArialMT-30" x="55.615234"/>
      </g>
     </g>
    </g>
    <g id="ytick_14">
     <g id="text_35">
      <!-- 100 -->
      <g style="fill: #262626" transform="translate(478.755455 139.263871) scale(0.11 -0.11)">
       <use xlink:href="#ArialMT-31"/>
       <use xlink:href="#ArialMT-30" x="55.615234"/>
       <use xlink:href="#ArialMT-30" x="111.230469"/>
      </g>
     </g>
    </g>
    <g id="ytick_15">
     <g id="text_36">
      <!-- 110 -->
      <g style="fill: #262626" transform="translate(479.566705 113.7487) scale(0.11 -0.11)">
       <use xlink:href="#ArialMT-31"/>
       <use xlink:href="#ArialMT-31" x="48.240234"/>
       <use xlink:href="#ArialMT-30" x="103.855469"/>
      </g>
     </g>
    </g>
    <g id="ytick_16">
     <g id="text_37">
      <!-- 120 -->
      <g style="fill: #262626" transform="translate(478.755455 88.233528) scale(0.11 -0.11)">
       <use xlink:href="#ArialMT-31"/>
       <use xlink:href="#ArialMT-32" x="55.615234"/>
       <use xlink:href="#ArialMT-30" x="111.230469"/>
      </g>
     </g>
    </g>
    <g id="ytick_17">
     <g id="text_38">
      <!-- 130 -->
      <g style="fill: #262626" transform="translate(478.755455 62.718356) scale(0.11 -0.11)">
       <use xlink:href="#ArialMT-31"/>
       <use xlink:href="#ArialMT-33" x="55.615234"/>
       <use xlink:href="#ArialMT-30" x="111.230469"/>
      </g>
     </g>
    </g>
    <g id="ytick_18">
     <g id="text_39">
      <!-- 140 -->
      <g style="fill: #262626" transform="translate(478.755455 37.203185) scale(0.11 -0.11)">
       <use xlink:href="#ArialMT-31"/>
       <use xlink:href="#ArialMT-34" x="55.615234"/>
       <use xlink:href="#ArialMT-30" x="111.230469"/>
      </g>
     </g>
    </g>
    <g id="text_40">
     <!-- Demand [1e6 units] -->
     <g style="fill: #262626" transform="translate(472.370455 184.843125) rotate(-90) scale(0.12 -0.12)">
      <use xlink:href="#ArialMT-44"/>
      <use xlink:href="#ArialMT-65" x="72.216797"/>
      <use xlink:href="#ArialMT-6d" x="127.832031"/>
      <use xlink:href="#ArialMT-61" x="211.132812"/>
      <use xlink:href="#ArialMT-6e" x="266.748047"/>
      <use xlink:href="#ArialMT-64" x="322.363281"/>
      <use xlink:href="#ArialMT-20" x="377.978516"/>
      <use xlink:href="#ArialMT-5b" x="405.761719"/>
      <use xlink:href="#ArialMT-31" x="433.544922"/>
      <use xlink:href="#ArialMT-65" x="489.160156"/>
      <use xlink:href="#ArialMT-36" x="544.775391"/>
      <use xlink:href="#ArialMT-20" x="600.390625"/>
      <use xlink:href="#ArialMT-75" x="628.173828"/>
      <use xlink:href="#ArialMT-6e" x="683.789062"/>
      <use xlink:href="#ArialMT-69" x="739.404297"/>
      <use xlink:href="#ArialMT-74" x="761.621094"/>
      <use xlink:href="#ArialMT-73" x="789.404297"/>
      <use xlink:href="#ArialMT-5d" x="839.404297"/>
     </g>
    </g>
   </g>
   <g id="patch_13">
    <path d="M 509.777003 152.698724 
L 535.140639 152.698724 
L 535.140639 146.244979 
L 509.777003 146.244979 
L 509.777003 152.698724 
z
" clip-path="url(#p141fac1079)" style="fill: #1e141f; stroke: #0f0f0f; stroke-width: 1.5; stroke-linejoin: miter"/>
   </g>
   <g id="patch_14">
    <path d="M 541.481548 162.284253 
L 566.845185 162.284253 
L 566.845185 137.640236 
L 541.481548 137.640236 
L 541.481548 162.284253 
z
" clip-path="url(#p141fac1079)" style="fill: #31253c; stroke: #0f0f0f; stroke-width: 1.5; stroke-linejoin: miter"/>
   </g>
   <g id="patch_15">
    <path d="M 573.186094 183.087206 
L 598.54973 183.087206 
L 598.54973 141.337132 
L 573.186094 141.337132 
L 573.186094 183.087206 
z
" clip-path="url(#p141fac1079)" style="fill: #40375c; stroke: #0f0f0f; stroke-width: 1.5; stroke-linejoin: miter"/>
   </g>
   <g id="patch_16">
    <path d="M 604.890639 164.708063 
L 630.254276 164.708063 
L 630.254276 111.101301 
L 604.890639 111.101301 
L 604.890639 164.708063 
z
" clip-path="url(#p141fac1079)" style="fill: #494a7b; stroke: #0f0f0f; stroke-width: 1.5; stroke-linejoin: miter"/>
   </g>
   <g id="patch_17">
    <path d="M 636.595185 149.721586 
L 661.958821 149.721586 
L 661.958821 128.817105 
L 636.595185 128.817105 
L 636.595185 149.721586 
z
" clip-path="url(#p141fac1079)" style="fill: #475d8e; stroke: #0f0f0f; stroke-width: 1.5; stroke-linejoin: miter"/>
   </g>
   <g id="patch_18">
    <path d="M 668.29973 150.445429 
L 693.663366 150.445429 
L 693.663366 134.460818 
L 668.29973 134.460818 
L 668.29973 150.445429 
z
" clip-path="url(#p141fac1079)" style="fill: #436e93; stroke: #0f0f0f; stroke-width: 1.5; stroke-linejoin: miter"/>
   </g>
   <g id="patch_19">
    <path d="M 700.004276 180.712217 
L 725.367912 180.712217 
L 725.367912 171.934679 
L 700.004276 171.934679 
L 700.004276 180.712217 
z
" clip-path="url(#p141fac1079)" style="fill: #427f97; stroke: #0f0f0f; stroke-width: 1.5; stroke-linejoin: miter"/>
   </g>
   <g id="patch_20">
    <path d="M 731.708821 184.650555 
L 757.072457 184.650555 
L 757.072457 160.682368 
L 731.708821 160.682368 
L 731.708821 184.650555 
z
" clip-path="url(#p141fac1079)" style="fill: #43909b; stroke: #0f0f0f; stroke-width: 1.5; stroke-linejoin: miter"/>
   </g>
   <g id="patch_21">
    <path d="M 763.413366 196.676256 
L 788.777003 196.676256 
L 788.777003 184.147737 
L 763.413366 184.147737 
L 763.413366 196.676256 
z
" clip-path="url(#p141fac1079)" style="fill: #4ba39f; stroke: #0f0f0f; stroke-width: 1.5; stroke-linejoin: miter"/>
   </g>
   <g id="patch_22">
    <path d="M 795.117912 194.568552 
L 820.481548 194.568552 
L 820.481548 183.696284 
L 795.117912 183.696284 
L 795.117912 194.568552 
z
" clip-path="url(#p141fac1079)" style="fill: #5fb8a5; stroke: #0f0f0f; stroke-width: 1.5; stroke-linejoin: miter"/>
   </g>
   <g id="patch_23">
    <path d="M 826.822457 216.242279 
L 852.186094 216.242279 
L 852.186094 192.553778 
L 826.822457 192.553778 
L 826.822457 216.242279 
z
" clip-path="url(#p141fac1079)" style="fill: #8dcdaf; stroke: #0f0f0f; stroke-width: 1.5; stroke-linejoin: miter"/>
   </g>
   <g id="patch_24">
    <path d="M 858.527003 205.841491 
L 883.890639 205.841491 
L 883.890639 179.153822 
L 858.527003 179.153822 
L 858.527003 205.841491 
z
" clip-path="url(#p141fac1079)" style="fill: #bde0c8; stroke: #0f0f0f; stroke-width: 1.5; stroke-linejoin: miter"/>
   </g>
   <g id="line2d_31">
    <path d="M 522.458821 152.698724 
L 522.458821 161.850238 
" clip-path="url(#p141fac1079)" style="fill: none; stroke: #0f0f0f; stroke-width: 1.5; stroke-linecap: round"/>
   </g>
   <g id="line2d_32">
    <path d="M 522.458821 146.244979 
L 522.458821 146.244979 
" clip-path="url(#p141fac1079)" style="fill: none; stroke: #0f0f0f; stroke-width: 1.5; stroke-linecap: round"/>
   </g>
   <g id="line2d_33">
    <path d="M 516.117912 161.850238 
L 528.79973 161.850238 
" clip-path="url(#p141fac1079)" style="fill: none; stroke: #0f0f0f; stroke-width: 1.5; stroke-linecap: round"/>
   </g>
   <g id="line2d_34">
    <path d="M 516.117912 146.244979 
L 528.79973 146.244979 
" clip-path="url(#p141fac1079)" style="fill: none; stroke: #0f0f0f; stroke-width: 1.5; stroke-linecap: round"/>
   </g>
   <g id="line2d_35">
    <defs>
     <path id="m5989c642d3" d="M -0 3.535534 
L 2.12132 0 
L -0 -3.535534 
L -2.12132 -0 
z
" style="stroke: #0f0f0f; stroke-linejoin: miter"/>
    </defs>
    <g clip-path="url(#p141fac1079)">
     <use xlink:href="#m5989c642d3" x="522.458821" y="32.015625" style="fill: #0f0f0f; stroke: #0f0f0f; stroke-linejoin: miter"/>
    </g>
   </g>
   <g id="line2d_36">
    <path d="M 554.163366 162.284253 
L 554.163366 163.287362 
" clip-path="url(#p141fac1079)" style="fill: none; stroke: #0f0f0f; stroke-width: 1.5; stroke-linecap: round"/>
   </g>
   <g id="line2d_37">
    <path d="M 554.163366 137.640236 
L 554.163366 135.27482 
" clip-path="url(#p141fac1079)" style="fill: none; stroke: #0f0f0f; stroke-width: 1.5; stroke-linecap: round"/>
   </g>
   <g id="line2d_38">
    <path d="M 547.822457 163.287362 
L 560.504276 163.287362 
" clip-path="url(#p141fac1079)" style="fill: none; stroke: #0f0f0f; stroke-width: 1.5; stroke-linecap: round"/>
   </g>
   <g id="line2d_39">
    <path d="M 547.822457 135.27482 
L 560.504276 135.27482 
" clip-path="url(#p141fac1079)" style="fill: none; stroke: #0f0f0f; stroke-width: 1.5; stroke-linecap: round"/>
   </g>
   <g id="line2d_40"/>
   <g id="line2d_41">
    <path d="M 585.867912 183.087206 
L 585.867912 187.182008 
" clip-path="url(#p141fac1079)" style="fill: none; stroke: #0f0f0f; stroke-width: 1.5; stroke-linecap: round"/>
   </g>
   <g id="line2d_42">
    <path d="M 585.867912 141.337132 
L 585.867912 137.779956 
" clip-path="url(#p141fac1079)" style="fill: none; stroke: #0f0f0f; stroke-width: 1.5; stroke-linecap: round"/>
   </g>
   <g id="line2d_43">
    <path d="M 579.527003 187.182008 
L 592.208821 187.182008 
" clip-path="url(#p141fac1079)" style="fill: none; stroke: #0f0f0f; stroke-width: 1.5; stroke-linecap: round"/>
   </g>
   <g id="line2d_44">
    <path d="M 579.527003 137.779956 
L 592.208821 137.779956 
" clip-path="url(#p141fac1079)" style="fill: none; stroke: #0f0f0f; stroke-width: 1.5; stroke-linecap: round"/>
   </g>
   <g id="line2d_45"/>
   <g id="line2d_46">
    <path d="M 617.572457 164.708063 
L 617.572457 176.62511 
" clip-path="url(#p141fac1079)" style="fill: none; stroke: #0f0f0f; stroke-width: 1.5; stroke-linecap: round"/>
   </g>
   <g id="line2d_47">
    <path d="M 617.572457 111.101301 
L 617.572457 91.229455 
" clip-path="url(#p141fac1079)" style="fill: none; stroke: #0f0f0f; stroke-width: 1.5; stroke-linecap: round"/>
   </g>
   <g id="line2d_48">
    <path d="M 611.231548 176.62511 
L 623.913366 176.62511 
" clip-path="url(#p141fac1079)" style="fill: none; stroke: #0f0f0f; stroke-width: 1.5; stroke-linecap: round"/>
   </g>
   <g id="line2d_49">
    <path d="M 611.231548 91.229455 
L 623.913366 91.229455 
" clip-path="url(#p141fac1079)" style="fill: none; stroke: #0f0f0f; stroke-width: 1.5; stroke-linecap: round"/>
   </g>
   <g id="line2d_50"/>
   <g id="line2d_51">
    <path d="M 649.277003 149.721586 
L 649.277003 170.086411 
" clip-path="url(#p141fac1079)" style="fill: none; stroke: #0f0f0f; stroke-width: 1.5; stroke-linecap: round"/>
   </g>
   <g id="line2d_52">
    <path d="M 649.277003 128.817105 
L 649.277003 114.115236 
" clip-path="url(#p141fac1079)" style="fill: none; stroke: #0f0f0f; stroke-width: 1.5; stroke-linecap: round"/>
   </g>
   <g id="line2d_53">
    <path d="M 642.936094 170.086411 
L 655.617912 170.086411 
" clip-path="url(#p141fac1079)" style="fill: none; stroke: #0f0f0f; stroke-width: 1.5; stroke-linecap: round"/>
   </g>
   <g id="line2d_54">
    <path d="M 642.936094 114.115236 
L 655.617912 114.115236 
" clip-path="url(#p141fac1079)" style="fill: none; stroke: #0f0f0f; stroke-width: 1.5; stroke-linecap: round"/>
   </g>
   <g id="line2d_55">
    <g clip-path="url(#p141fac1079)">
     <use xlink:href="#m5989c642d3" x="649.277003" y="68.719521" style="fill: #0f0f0f; stroke: #0f0f0f; stroke-linejoin: miter"/>
    </g>
   </g>
   <g id="line2d_56">
    <path d="M 680.981548 150.445429 
L 680.981548 167.801125 
" clip-path="url(#p141fac1079)" style="fill: none; stroke: #0f0f0f; stroke-width: 1.5; stroke-linecap: round"/>
   </g>
   <g id="line2d_57">
    <path d="M 680.981548 134.460818 
L 680.981548 129.976611 
" clip-path="url(#p141fac1079)" style="fill: none; stroke: #0f0f0f; stroke-width: 1.5; stroke-linecap: round"/>
   </g>
   <g id="line2d_58">
    <path d="M 674.640639 167.801125 
L 687.322457 167.801125 
" clip-path="url(#p141fac1079)" style="fill: none; stroke: #0f0f0f; stroke-width: 1.5; stroke-linecap: round"/>
   </g>
   <g id="line2d_59">
    <path d="M 674.640639 129.976611 
L 687.322457 129.976611 
" clip-path="url(#p141fac1079)" style="fill: none; stroke: #0f0f0f; stroke-width: 1.5; stroke-linecap: round"/>
   </g>
   <g id="line2d_60"/>
   <g id="line2d_61">
    <path d="M 712.686094 180.712217 
L 712.686094 181.461231 
" clip-path="url(#p141fac1079)" style="fill: none; stroke: #0f0f0f; stroke-width: 1.5; stroke-linecap: round"/>
   </g>
   <g id="line2d_62">
    <path d="M 712.686094 171.934679 
L 712.686094 168.148228 
" clip-path="url(#p141fac1079)" style="fill: none; stroke: #0f0f0f; stroke-width: 1.5; stroke-linecap: round"/>
   </g>
   <g id="line2d_63">
    <path d="M 706.345185 181.461231 
L 719.027003 181.461231 
" clip-path="url(#p141fac1079)" style="fill: none; stroke: #0f0f0f; stroke-width: 1.5; stroke-linecap: round"/>
   </g>
   <g id="line2d_64">
    <path d="M 706.345185 168.148228 
L 719.027003 168.148228 
" clip-path="url(#p141fac1079)" style="fill: none; stroke: #0f0f0f; stroke-width: 1.5; stroke-linecap: round"/>
   </g>
   <g id="line2d_65"/>
   <g id="line2d_66">
    <path d="M 744.390639 184.650555 
L 744.390639 185.549924 
" clip-path="url(#p141fac1079)" style="fill: none; stroke: #0f0f0f; stroke-width: 1.5; stroke-linecap: round"/>
   </g>
   <g id="line2d_67">
    <path d="M 744.390639 160.682368 
L 744.390639 160.123704 
" clip-path="url(#p141fac1079)" style="fill: none; stroke: #0f0f0f; stroke-width: 1.5; stroke-linecap: round"/>
   </g>
   <g id="line2d_68">
    <path d="M 738.04973 185.549924 
L 750.731548 185.549924 
" clip-path="url(#p141fac1079)" style="fill: none; stroke: #0f0f0f; stroke-width: 1.5; stroke-linecap: round"/>
   </g>
   <g id="line2d_69">
    <path d="M 738.04973 160.123704 
L 750.731548 160.123704 
" clip-path="url(#p141fac1079)" style="fill: none; stroke: #0f0f0f; stroke-width: 1.5; stroke-linecap: round"/>
   </g>
   <g id="line2d_70"/>
   <g id="line2d_71">
    <path d="M 776.095185 196.676256 
L 776.095185 199.337172 
" clip-path="url(#p141fac1079)" style="fill: none; stroke: #0f0f0f; stroke-width: 1.5; stroke-linecap: round"/>
   </g>
   <g id="line2d_72">
    <path d="M 776.095185 184.147737 
L 776.095185 175.374703 
" clip-path="url(#p141fac1079)" style="fill: none; stroke: #0f0f0f; stroke-width: 1.5; stroke-linecap: round"/>
   </g>
   <g id="line2d_73">
    <path d="M 769.754276 199.337172 
L 782.436094 199.337172 
" clip-path="url(#p141fac1079)" style="fill: none; stroke: #0f0f0f; stroke-width: 1.5; stroke-linecap: round"/>
   </g>
   <g id="line2d_74">
    <path d="M 769.754276 175.374703 
L 782.436094 175.374703 
" clip-path="url(#p141fac1079)" style="fill: none; stroke: #0f0f0f; stroke-width: 1.5; stroke-linecap: round"/>
   </g>
   <g id="line2d_75"/>
   <g id="line2d_76">
    <path d="M 807.79973 194.568552 
L 807.79973 209.616532 
" clip-path="url(#p141fac1079)" style="fill: none; stroke: #0f0f0f; stroke-width: 1.5; stroke-linecap: round"/>
   </g>
   <g id="line2d_77">
    <path d="M 807.79973 183.696284 
L 807.79973 174.493753 
" clip-path="url(#p141fac1079)" style="fill: none; stroke: #0f0f0f; stroke-width: 1.5; stroke-linecap: round"/>
   </g>
   <g id="line2d_78">
    <path d="M 801.458821 209.616532 
L 814.140639 209.616532 
" clip-path="url(#p141fac1079)" style="fill: none; stroke: #0f0f0f; stroke-width: 1.5; stroke-linecap: round"/>
   </g>
   <g id="line2d_79">
    <path d="M 801.458821 174.493753 
L 814.140639 174.493753 
" clip-path="url(#p141fac1079)" style="fill: none; stroke: #0f0f0f; stroke-width: 1.5; stroke-linecap: round"/>
   </g>
   <g id="line2d_80"/>
   <g id="line2d_81">
    <path d="M 839.504276 216.242279 
L 839.504276 233.615625 
" clip-path="url(#p141fac1079)" style="fill: none; stroke: #0f0f0f; stroke-width: 1.5; stroke-linecap: round"/>
   </g>
   <g id="line2d_82">
    <path d="M 839.504276 192.553778 
L 839.504276 191.341579 
" clip-path="url(#p141fac1079)" style="fill: none; stroke: #0f0f0f; stroke-width: 1.5; stroke-linecap: round"/>
   </g>
   <g id="line2d_83">
    <path d="M 833.163366 233.615625 
L 845.845185 233.615625 
" clip-path="url(#p141fac1079)" style="fill: none; stroke: #0f0f0f; stroke-width: 1.5; stroke-linecap: round"/>
   </g>
   <g id="line2d_84">
    <path d="M 833.163366 191.341579 
L 845.845185 191.341579 
" clip-path="url(#p141fac1079)" style="fill: none; stroke: #0f0f0f; stroke-width: 1.5; stroke-linecap: round"/>
   </g>
   <g id="line2d_85"/>
   <g id="line2d_86">
    <path d="M 871.208821 205.841491 
L 871.208821 216.889103 
" clip-path="url(#p141fac1079)" style="fill: none; stroke: #0f0f0f; stroke-width: 1.5; stroke-linecap: round"/>
   </g>
   <g id="line2d_87">
    <path d="M 871.208821 179.153822 
L 871.208821 179.153822 
" clip-path="url(#p141fac1079)" style="fill: none; stroke: #0f0f0f; stroke-width: 1.5; stroke-linecap: round"/>
   </g>
   <g id="line2d_88">
    <path d="M 864.867912 216.889103 
L 877.54973 216.889103 
" clip-path="url(#p141fac1079)" style="fill: none; stroke: #0f0f0f; stroke-width: 1.5; stroke-linecap: round"/>
   </g>
   <g id="line2d_89">
    <path d="M 864.867912 179.153822 
L 877.54973 179.153822 
" clip-path="url(#p141fac1079)" style="fill: none; stroke: #0f0f0f; stroke-width: 1.5; stroke-linecap: round"/>
   </g>
   <g id="line2d_90">
    <g clip-path="url(#p141fac1079)">
     <use xlink:href="#m5989c642d3" x="871.208821" y="127.984442" style="fill: #0f0f0f; stroke: #0f0f0f; stroke-linejoin: miter"/>
    </g>
   </g>
   <g id="line2d_91">
    <path d="M 509.777003 150.609602 
L 535.140639 150.609602 
" clip-path="url(#p141fac1079)" style="fill: none; stroke: #0f0f0f; stroke-width: 1.5; stroke-linecap: round"/>
   </g>
   <g id="line2d_92">
    <path d="M 541.481548 146.674134 
L 566.845185 146.674134 
" clip-path="url(#p141fac1079)" style="fill: none; stroke: #0f0f0f; stroke-width: 1.5; stroke-linecap: round"/>
   </g>
   <g id="line2d_93">
    <path d="M 573.186094 167.613164 
L 598.54973 167.613164 
" clip-path="url(#p141fac1079)" style="fill: none; stroke: #0f0f0f; stroke-width: 1.5; stroke-linecap: round"/>
   </g>
   <g id="line2d_94">
    <path d="M 604.890639 133.407431 
L 630.254276 133.407431 
" clip-path="url(#p141fac1079)" style="fill: none; stroke: #0f0f0f; stroke-width: 1.5; stroke-linecap: round"/>
   </g>
   <g id="line2d_95">
    <path d="M 636.595185 138.730618 
L 661.958821 138.730618 
" clip-path="url(#p141fac1079)" style="fill: none; stroke: #0f0f0f; stroke-width: 1.5; stroke-linecap: round"/>
   </g>
   <g id="line2d_96">
    <path d="M 668.29973 140.307876 
L 693.663366 140.307876 
" clip-path="url(#p141fac1079)" style="fill: none; stroke: #0f0f0f; stroke-width: 1.5; stroke-linecap: round"/>
   </g>
   <g id="line2d_97">
    <path d="M 700.004276 176.829688 
L 725.367912 176.829688 
" clip-path="url(#p141fac1079)" style="fill: none; stroke: #0f0f0f; stroke-width: 1.5; stroke-linecap: round"/>
   </g>
   <g id="line2d_98">
    <path d="M 731.708821 170.339536 
L 757.072457 170.339536 
" clip-path="url(#p141fac1079)" style="fill: none; stroke: #0f0f0f; stroke-width: 1.5; stroke-linecap: round"/>
   </g>
   <g id="line2d_99">
    <path d="M 763.413366 191.430683 
L 788.777003 191.430683 
" clip-path="url(#p141fac1079)" style="fill: none; stroke: #0f0f0f; stroke-width: 1.5; stroke-linecap: round"/>
   </g>
   <g id="line2d_100">
    <path d="M 795.117912 188.158176 
L 820.481548 188.158176 
" clip-path="url(#p141fac1079)" style="fill: none; stroke: #0f0f0f; stroke-width: 1.5; stroke-linecap: round"/>
   </g>
   <g id="line2d_101">
    <path d="M 826.822457 192.855927 
L 852.186094 192.855927 
" clip-path="url(#p141fac1079)" style="fill: none; stroke: #0f0f0f; stroke-width: 1.5; stroke-linecap: round"/>
   </g>
   <g id="line2d_102">
    <path d="M 858.527003 199.184618 
L 883.890639 199.184618 
" clip-path="url(#p141fac1079)" style="fill: none; stroke: #0f0f0f; stroke-width: 1.5; stroke-linecap: round"/>
   </g>
   <g id="patch_25">
    <path d="M 506.606548 243.695625 
L 506.606548 21.935625 
" style="fill: none; stroke: #262626; stroke-width: 1.25; stroke-linejoin: miter; stroke-linecap: square"/>
   </g>
   <g id="patch_26">
    <path d="M 887.061094 243.695625 
L 887.061094 21.935625 
" style="fill: none; stroke: #262626; stroke-width: 1.25; stroke-linejoin: miter; stroke-linecap: square"/>
   </g>
   <g id="patch_27">
    <path d="M 506.606548 243.695625 
L 887.061094 243.695625 
" style="fill: none; stroke: #262626; stroke-width: 1.25; stroke-linejoin: miter; stroke-linecap: square"/>
   </g>
   <g id="patch_28">
    <path d="M 506.606548 21.935625 
L 887.061094 21.935625 
" style="fill: none; stroke: #262626; stroke-width: 1.25; stroke-linejoin: miter; stroke-linecap: square"/>
   </g>
   <g id="text_41">
    <!-- Distribution of weekly avocados demand per month -->
    <g style="fill: #262626" transform="translate(560.770696 15.935625) scale(0.12 -0.12)">
     <use xlink:href="#ArialMT-44"/>
     <use xlink:href="#ArialMT-69" x="72.216797"/>
     <use xlink:href="#ArialMT-73" x="94.433594"/>
     <use xlink:href="#ArialMT-74" x="144.433594"/>
     <use xlink:href="#ArialMT-72" x="172.216797"/>
     <use xlink:href="#ArialMT-69" x="205.517578"/>
     <use xlink:href="#ArialMT-62" x="227.734375"/>
     <use xlink:href="#ArialMT-75" x="283.349609"/>
     <use xlink:href="#ArialMT-74" x="338.964844"/>
     <use xlink:href="#ArialMT-69" x="366.748047"/>
     <use xlink:href="#ArialMT-6f" x="388.964844"/>
     <use xlink:href="#ArialMT-6e" x="444.580078"/>
     <use xlink:href="#ArialMT-20" x="500.195312"/>
     <use xlink:href="#ArialMT-6f" x="527.978516"/>
     <use xlink:href="#ArialMT-66" x="583.59375"/>
     <use xlink:href="#ArialMT-20" x="611.376953"/>
     <use xlink:href="#ArialMT-77" x="639.160156"/>
     <use xlink:href="#ArialMT-65" x="711.376953"/>
     <use xlink:href="#ArialMT-65" x="766.992188"/>
     <use xlink:href="#ArialMT-6b" x="822.607422"/>
     <use xlink:href="#ArialMT-6c" x="872.607422"/>
     <use xlink:href="#ArialMT-79" x="894.824219"/>
     <use xlink:href="#ArialMT-20" x="944.824219"/>
     <use xlink:href="#ArialMT-61" x="972.607422"/>
     <use xlink:href="#ArialMT-76" x="1028.222656"/>
     <use xlink:href="#ArialMT-6f" x="1078.222656"/>
     <use xlink:href="#ArialMT-63" x="1133.837891"/>
     <use xlink:href="#ArialMT-61" x="1183.837891"/>
     <use xlink:href="#ArialMT-64" x="1239.453125"/>
     <use xlink:href="#ArialMT-6f" x="1295.068359"/>
     <use xlink:href="#ArialMT-73" x="1350.683594"/>
     <use xlink:href="#ArialMT-20" x="1400.683594"/>
     <use xlink:href="#ArialMT-64" x="1428.466797"/>
     <use xlink:href="#ArialMT-65" x="1484.082031"/>
     <use xlink:href="#ArialMT-6d" x="1539.697266"/>
     <use xlink:href="#ArialMT-61" x="1622.998047"/>
     <use xlink:href="#ArialMT-6e" x="1678.613281"/>
     <use xlink:href="#ArialMT-64" x="1734.228516"/>
     <use xlink:href="#ArialMT-20" x="1789.84375"/>
     <use xlink:href="#ArialMT-70" x="1817.626953"/>
     <use xlink:href="#ArialMT-65" x="1873.242188"/>
     <use xlink:href="#ArialMT-72" x="1928.857422"/>
     <use xlink:href="#ArialMT-20" x="1962.158203"/>
     <use xlink:href="#ArialMT-6d" x="1989.941406"/>
     <use xlink:href="#ArialMT-6f" x="2073.242188"/>
     <use xlink:href="#ArialMT-6e" x="2128.857422"/>
     <use xlink:href="#ArialMT-74" x="2184.472656"/>
     <use xlink:href="#ArialMT-68" x="2212.255859"/>
    </g>
   </g>
  </g>
 </g>
 <defs>
  <clipPath id="p74c85ee035">
   <rect x="50.061094" y="21.935625" width="380.454545" height="221.76"/>
  </clipPath>
  <clipPath id="p141fac1079">
   <rect x="506.606548" y="21.935625" width="380.454545" height="221.76"/>
  </clipPath>
 </defs>
</svg>
