<?xml version="1.0" encoding="utf-8" standalone="no"?>
<!DOCTYPE svg PUBLIC "-//W3C//DTD SVG 1.1//EN"
  "http://www.w3.org/Graphics/SVG/1.1/DTD/svg11.dtd">
<svg xmlns:xlink="http://www.w3.org/1999/xlink" width="858.280625pt" height="285.283594pt" viewBox="0 0 858.280625 285.283594" xmlns="http://www.w3.org/2000/svg" version="1.1">
 <metadata>
  <rdf:RDF xmlns:dc="http://purl.org/dc/elements/1.1/" xmlns:cc="http://creativecommons.org/ns#" xmlns:rdf="http://www.w3.org/1999/02/22-rdf-syntax-ns#">
   <cc:Work>
    <dc:type rdf:resource="http://purl.org/dc/dcmitype/StillImage"/>
    <dc:date>2023-08-11T00:37:54.136814</dc:date>
    <dc:format>image/svg+xml</dc:format>
    <dc:creator>
     <cc:Agent>
      <dc:title>Matplotlib v3.7.1, https://matplotlib.org/</dc:title>
     </cc:Agent>
    </dc:creator>
   </cc:Work>
  </rdf:RDF>
 </metadata>
 <defs>
  <style type="text/css">*{stroke-linejoin: round; stroke-linecap: butt}</style>
 </defs>
 <g id="figure_1">
  <g id="patch_1">
   <path d="M 0 285.283594 
L 858.280625 285.283594 
L 858.280625 0 
L 0 0 
z
" style="fill: #ffffff"/>
  </g>
  <g id="axes_1">
   <g id="patch_2">
    <path d="M 181.480625 243.549375 
L 851.080625 243.549375 
L 851.080625 21.789375 
L 181.480625 21.789375 
z
" style="fill: #ffffff"/>
   </g>
   <g id="matplotlib.axis_1">
    <g id="xtick_1">
     <g id="line2d_1">
      <path d="M 181.480625 243.549375 
L 181.480625 21.789375 
" clip-path="url(#p568ec85f93)" style="fill: none; stroke: #cccccc; stroke-linecap: round"/>
     </g>
     <g id="text_1">
      <!-- 0 -->
      <g style="fill: #262626" transform="translate(178.422109 260.922969) scale(0.11 -0.11)">
       <defs>
        <path id="ArialMT-30" d="M 266 2259 
Q 266 3072 433 3567 
Q 600 4063 929 4331 
Q 1259 4600 1759 4600 
Q 2128 4600 2406 4451 
Q 2684 4303 2865 4023 
Q 3047 3744 3150 3342 
Q 3253 2941 3253 2259 
Q 3253 1453 3087 958 
Q 2922 463 2592 192 
Q 2263 -78 1759 -78 
Q 1097 -78 719 397 
Q 266 969 266 2259 
z
M 844 2259 
Q 844 1131 1108 757 
Q 1372 384 1759 384 
Q 2147 384 2411 759 
Q 2675 1134 2675 2259 
Q 2675 3391 2411 3762 
Q 2147 4134 1753 4134 
Q 1366 4134 1134 3806 
Q 844 3388 844 2259 
z
" transform="scale(0.015625)"/>
       </defs>
       <use xlink:href="#ArialMT-30"/>
      </g>
     </g>
    </g>
    <g id="xtick_2">
     <g id="line2d_2">
      <path d="M 319.827732 243.549375 
L 319.827732 21.789375 
" clip-path="url(#p568ec85f93)" style="fill: none; stroke: #cccccc; stroke-linecap: round"/>
     </g>
     <g id="text_2">
      <!-- 5 -->
      <g style="fill: #262626" transform="translate(316.769217 260.922969) scale(0.11 -0.11)">
       <defs>
        <path id="ArialMT-35" d="M 266 1200 
L 856 1250 
Q 922 819 1161 601 
Q 1400 384 1738 384 
Q 2144 384 2425 690 
Q 2706 997 2706 1503 
Q 2706 1984 2436 2262 
Q 2166 2541 1728 2541 
Q 1456 2541 1237 2417 
Q 1019 2294 894 2097 
L 366 2166 
L 809 4519 
L 3088 4519 
L 3088 3981 
L 1259 3981 
L 1013 2750 
Q 1425 3038 1878 3038 
Q 2478 3038 2890 2622 
Q 3303 2206 3303 1553 
Q 3303 931 2941 478 
Q 2500 -78 1738 -78 
Q 1113 -78 717 272 
Q 322 622 266 1200 
z
" transform="scale(0.015625)"/>
       </defs>
       <use xlink:href="#ArialMT-35"/>
      </g>
     </g>
    </g>
    <g id="xtick_3">
     <g id="line2d_3">
      <path d="M 458.17484 243.549375 
L 458.17484 21.789375 
" clip-path="url(#p568ec85f93)" style="fill: none; stroke: #cccccc; stroke-linecap: round"/>
     </g>
     <g id="text_3">
      <!-- 10 -->
      <g style="fill: #262626" transform="translate(452.057809 260.922969) scale(0.11 -0.11)">
       <defs>
        <path id="ArialMT-31" d="M 2384 0 
L 1822 0 
L 1822 3584 
Q 1619 3391 1289 3197 
Q 959 3003 697 2906 
L 697 3450 
Q 1169 3672 1522 3987 
Q 1875 4303 2022 4600 
L 2384 4600 
L 2384 0 
z
" transform="scale(0.015625)"/>
       </defs>
       <use xlink:href="#ArialMT-31"/>
       <use xlink:href="#ArialMT-30" x="55.615234"/>
      </g>
     </g>
    </g>
    <g id="xtick_4">
     <g id="line2d_4">
      <path d="M 596.521947 243.549375 
L 596.521947 21.789375 
" clip-path="url(#p568ec85f93)" style="fill: none; stroke: #cccccc; stroke-linecap: round"/>
     </g>
     <g id="text_4">
      <!-- 15 -->
      <g style="fill: #262626" transform="translate(590.404916 260.922969) scale(0.11 -0.11)">
       <use xlink:href="#ArialMT-31"/>
       <use xlink:href="#ArialMT-35" x="55.615234"/>
      </g>
     </g>
    </g>
    <g id="xtick_5">
     <g id="line2d_5">
      <path d="M 734.869055 243.549375 
L 734.869055 21.789375 
" clip-path="url(#p568ec85f93)" style="fill: none; stroke: #cccccc; stroke-linecap: round"/>
     </g>
     <g id="text_5">
      <!-- 20 -->
      <g style="fill: #262626" transform="translate(728.752024 260.922969) scale(0.11 -0.11)">
       <defs>
        <path id="ArialMT-32" d="M 3222 541 
L 3222 0 
L 194 0 
Q 188 203 259 391 
Q 375 700 629 1000 
Q 884 1300 1366 1694 
Q 2113 2306 2375 2664 
Q 2638 3022 2638 3341 
Q 2638 3675 2398 3904 
Q 2159 4134 1775 4134 
Q 1369 4134 1125 3890 
Q 881 3647 878 3216 
L 300 3275 
Q 359 3922 746 4261 
Q 1134 4600 1788 4600 
Q 2447 4600 2831 4234 
Q 3216 3869 3216 3328 
Q 3216 3053 3103 2787 
Q 2991 2522 2730 2228 
Q 2469 1934 1863 1422 
Q 1356 997 1212 845 
Q 1069 694 975 541 
L 3222 541 
z
" transform="scale(0.015625)"/>
       </defs>
       <use xlink:href="#ArialMT-32"/>
       <use xlink:href="#ArialMT-30" x="55.615234"/>
      </g>
     </g>
    </g>
    <g id="text_6">
     <!-- Feature importance -->
     <g style="fill: #262626" transform="translate(464.259688 275.698594) scale(0.12 -0.12)">
      <defs>
       <path id="ArialMT-46" d="M 525 0 
L 525 4581 
L 3616 4581 
L 3616 4041 
L 1131 4041 
L 1131 2622 
L 3281 2622 
L 3281 2081 
L 1131 2081 
L 1131 0 
L 525 0 
z
" transform="scale(0.015625)"/>
       <path id="ArialMT-65" d="M 2694 1069 
L 3275 997 
Q 3138 488 2766 206 
Q 2394 -75 1816 -75 
Q 1088 -75 661 373 
Q 234 822 234 1631 
Q 234 2469 665 2931 
Q 1097 3394 1784 3394 
Q 2450 3394 2872 2941 
Q 3294 2488 3294 1666 
Q 3294 1616 3291 1516 
L 816 1516 
Q 847 969 1125 678 
Q 1403 388 1819 388 
Q 2128 388 2347 550 
Q 2566 713 2694 1069 
z
M 847 1978 
L 2700 1978 
Q 2663 2397 2488 2606 
Q 2219 2931 1791 2931 
Q 1403 2931 1139 2672 
Q 875 2413 847 1978 
z
" transform="scale(0.015625)"/>
       <path id="ArialMT-61" d="M 2588 409 
Q 2275 144 1986 34 
Q 1697 -75 1366 -75 
Q 819 -75 525 192 
Q 231 459 231 875 
Q 231 1119 342 1320 
Q 453 1522 633 1644 
Q 813 1766 1038 1828 
Q 1203 1872 1538 1913 
Q 2219 1994 2541 2106 
Q 2544 2222 2544 2253 
Q 2544 2597 2384 2738 
Q 2169 2928 1744 2928 
Q 1347 2928 1158 2789 
Q 969 2650 878 2297 
L 328 2372 
Q 403 2725 575 2942 
Q 747 3159 1072 3276 
Q 1397 3394 1825 3394 
Q 2250 3394 2515 3294 
Q 2781 3194 2906 3042 
Q 3031 2891 3081 2659 
Q 3109 2516 3109 2141 
L 3109 1391 
Q 3109 606 3145 398 
Q 3181 191 3288 0 
L 2700 0 
Q 2613 175 2588 409 
z
M 2541 1666 
Q 2234 1541 1622 1453 
Q 1275 1403 1131 1340 
Q 988 1278 909 1158 
Q 831 1038 831 891 
Q 831 666 1001 516 
Q 1172 366 1500 366 
Q 1825 366 2078 508 
Q 2331 650 2450 897 
Q 2541 1088 2541 1459 
L 2541 1666 
z
" transform="scale(0.015625)"/>
       <path id="ArialMT-74" d="M 1650 503 
L 1731 6 
Q 1494 -44 1306 -44 
Q 1000 -44 831 53 
Q 663 150 594 308 
Q 525 466 525 972 
L 525 2881 
L 113 2881 
L 113 3319 
L 525 3319 
L 525 4141 
L 1084 4478 
L 1084 3319 
L 1650 3319 
L 1650 2881 
L 1084 2881 
L 1084 941 
Q 1084 700 1114 631 
Q 1144 563 1211 522 
Q 1278 481 1403 481 
Q 1497 481 1650 503 
z
" transform="scale(0.015625)"/>
       <path id="ArialMT-75" d="M 2597 0 
L 2597 488 
Q 2209 -75 1544 -75 
Q 1250 -75 995 37 
Q 741 150 617 320 
Q 494 491 444 738 
Q 409 903 409 1263 
L 409 3319 
L 972 3319 
L 972 1478 
Q 972 1038 1006 884 
Q 1059 663 1231 536 
Q 1403 409 1656 409 
Q 1909 409 2131 539 
Q 2353 669 2445 892 
Q 2538 1116 2538 1541 
L 2538 3319 
L 3100 3319 
L 3100 0 
L 2597 0 
z
" transform="scale(0.015625)"/>
       <path id="ArialMT-72" d="M 416 0 
L 416 3319 
L 922 3319 
L 922 2816 
Q 1116 3169 1280 3281 
Q 1444 3394 1641 3394 
Q 1925 3394 2219 3213 
L 2025 2691 
Q 1819 2813 1613 2813 
Q 1428 2813 1281 2702 
Q 1134 2591 1072 2394 
Q 978 2094 978 1738 
L 978 0 
L 416 0 
z
" transform="scale(0.015625)"/>
       <path id="ArialMT-20" transform="scale(0.015625)"/>
       <path id="ArialMT-69" d="M 425 3934 
L 425 4581 
L 988 4581 
L 988 3934 
L 425 3934 
z
M 425 0 
L 425 3319 
L 988 3319 
L 988 0 
L 425 0 
z
" transform="scale(0.015625)"/>
       <path id="ArialMT-6d" d="M 422 0 
L 422 3319 
L 925 3319 
L 925 2853 
Q 1081 3097 1340 3245 
Q 1600 3394 1931 3394 
Q 2300 3394 2536 3241 
Q 2772 3088 2869 2813 
Q 3263 3394 3894 3394 
Q 4388 3394 4653 3120 
Q 4919 2847 4919 2278 
L 4919 0 
L 4359 0 
L 4359 2091 
Q 4359 2428 4304 2576 
Q 4250 2725 4106 2815 
Q 3963 2906 3769 2906 
Q 3419 2906 3187 2673 
Q 2956 2441 2956 1928 
L 2956 0 
L 2394 0 
L 2394 2156 
Q 2394 2531 2256 2718 
Q 2119 2906 1806 2906 
Q 1569 2906 1367 2781 
Q 1166 2656 1075 2415 
Q 984 2175 984 1722 
L 984 0 
L 422 0 
z
" transform="scale(0.015625)"/>
       <path id="ArialMT-70" d="M 422 -1272 
L 422 3319 
L 934 3319 
L 934 2888 
Q 1116 3141 1344 3267 
Q 1572 3394 1897 3394 
Q 2322 3394 2647 3175 
Q 2972 2956 3137 2557 
Q 3303 2159 3303 1684 
Q 3303 1175 3120 767 
Q 2938 359 2589 142 
Q 2241 -75 1856 -75 
Q 1575 -75 1351 44 
Q 1128 163 984 344 
L 984 -1272 
L 422 -1272 
z
M 931 1641 
Q 931 1000 1190 694 
Q 1450 388 1819 388 
Q 2194 388 2461 705 
Q 2728 1022 2728 1688 
Q 2728 2322 2467 2637 
Q 2206 2953 1844 2953 
Q 1484 2953 1207 2617 
Q 931 2281 931 1641 
z
" transform="scale(0.015625)"/>
       <path id="ArialMT-6f" d="M 213 1659 
Q 213 2581 725 3025 
Q 1153 3394 1769 3394 
Q 2453 3394 2887 2945 
Q 3322 2497 3322 1706 
Q 3322 1066 3130 698 
Q 2938 331 2570 128 
Q 2203 -75 1769 -75 
Q 1072 -75 642 372 
Q 213 819 213 1659 
z
M 791 1659 
Q 791 1022 1069 705 
Q 1347 388 1769 388 
Q 2188 388 2466 706 
Q 2744 1025 2744 1678 
Q 2744 2294 2464 2611 
Q 2184 2928 1769 2928 
Q 1347 2928 1069 2612 
Q 791 2297 791 1659 
z
" transform="scale(0.015625)"/>
       <path id="ArialMT-6e" d="M 422 0 
L 422 3319 
L 928 3319 
L 928 2847 
Q 1294 3394 1984 3394 
Q 2284 3394 2536 3286 
Q 2788 3178 2913 3003 
Q 3038 2828 3088 2588 
Q 3119 2431 3119 2041 
L 3119 0 
L 2556 0 
L 2556 2019 
Q 2556 2363 2490 2533 
Q 2425 2703 2258 2804 
Q 2091 2906 1866 2906 
Q 1506 2906 1245 2678 
Q 984 2450 984 1813 
L 984 0 
L 422 0 
z
" transform="scale(0.015625)"/>
       <path id="ArialMT-63" d="M 2588 1216 
L 3141 1144 
Q 3050 572 2676 248 
Q 2303 -75 1759 -75 
Q 1078 -75 664 370 
Q 250 816 250 1647 
Q 250 2184 428 2587 
Q 606 2991 970 3192 
Q 1334 3394 1763 3394 
Q 2303 3394 2647 3120 
Q 2991 2847 3088 2344 
L 2541 2259 
Q 2463 2594 2264 2762 
Q 2066 2931 1784 2931 
Q 1359 2931 1093 2626 
Q 828 2322 828 1663 
Q 828 994 1084 691 
Q 1341 388 1753 388 
Q 2084 388 2306 591 
Q 2528 794 2588 1216 
z
" transform="scale(0.015625)"/>
      </defs>
      <use xlink:href="#ArialMT-46"/>
      <use xlink:href="#ArialMT-65" x="61.083984"/>
      <use xlink:href="#ArialMT-61" x="116.699219"/>
      <use xlink:href="#ArialMT-74" x="172.314453"/>
      <use xlink:href="#ArialMT-75" x="200.097656"/>
      <use xlink:href="#ArialMT-72" x="255.712891"/>
      <use xlink:href="#ArialMT-65" x="289.013672"/>
      <use xlink:href="#ArialMT-20" x="344.628906"/>
      <use xlink:href="#ArialMT-69" x="372.412109"/>
      <use xlink:href="#ArialMT-6d" x="394.628906"/>
      <use xlink:href="#ArialMT-70" x="477.929688"/>
      <use xlink:href="#ArialMT-6f" x="533.544922"/>
      <use xlink:href="#ArialMT-72" x="589.160156"/>
      <use xlink:href="#ArialMT-74" x="622.460938"/>
      <use xlink:href="#ArialMT-61" x="650.244141"/>
      <use xlink:href="#ArialMT-6e" x="705.859375"/>
      <use xlink:href="#ArialMT-63" x="761.474609"/>
      <use xlink:href="#ArialMT-65" x="811.474609"/>
     </g>
    </g>
   </g>
   <g id="matplotlib.axis_2">
    <g id="ytick_1">
     <g id="line2d_6">
      <path d="M 181.480625 223.389375 
L 851.080625 223.389375 
" clip-path="url(#p568ec85f93)" style="fill: none; stroke: #cccccc; stroke-linecap: round"/>
     </g>
     <g id="text_7">
      <!-- total_volume_2_weeks_ago -->
      <g style="fill: #262626" transform="translate(35.618438 227.3425) scale(0.11 -0.11)">
       <defs>
        <path id="ArialMT-6c" d="M 409 0 
L 409 4581 
L 972 4581 
L 972 0 
L 409 0 
z
" transform="scale(0.015625)"/>
        <path id="ArialMT-5f" d="M -97 -1272 
L -97 -866 
L 3631 -866 
L 3631 -1272 
L -97 -1272 
z
" transform="scale(0.015625)"/>
        <path id="ArialMT-76" d="M 1344 0 
L 81 3319 
L 675 3319 
L 1388 1331 
Q 1503 1009 1600 663 
Q 1675 925 1809 1294 
L 2547 3319 
L 3125 3319 
L 1869 0 
L 1344 0 
z
" transform="scale(0.015625)"/>
        <path id="ArialMT-77" d="M 1034 0 
L 19 3319 
L 600 3319 
L 1128 1403 
L 1325 691 
Q 1338 744 1497 1375 
L 2025 3319 
L 2603 3319 
L 3100 1394 
L 3266 759 
L 3456 1400 
L 4025 3319 
L 4572 3319 
L 3534 0 
L 2950 0 
L 2422 1988 
L 2294 2553 
L 1622 0 
L 1034 0 
z
" transform="scale(0.015625)"/>
        <path id="ArialMT-6b" d="M 425 0 
L 425 4581 
L 988 4581 
L 988 1969 
L 2319 3319 
L 3047 3319 
L 1778 2088 
L 3175 0 
L 2481 0 
L 1384 1697 
L 988 1316 
L 988 0 
L 425 0 
z
" transform="scale(0.015625)"/>
        <path id="ArialMT-73" d="M 197 991 
L 753 1078 
Q 800 744 1014 566 
Q 1228 388 1613 388 
Q 2000 388 2187 545 
Q 2375 703 2375 916 
Q 2375 1106 2209 1216 
Q 2094 1291 1634 1406 
Q 1016 1563 777 1677 
Q 538 1791 414 1992 
Q 291 2194 291 2438 
Q 291 2659 392 2848 
Q 494 3038 669 3163 
Q 800 3259 1026 3326 
Q 1253 3394 1513 3394 
Q 1903 3394 2198 3281 
Q 2494 3169 2634 2976 
Q 2775 2784 2828 2463 
L 2278 2388 
Q 2241 2644 2061 2787 
Q 1881 2931 1553 2931 
Q 1166 2931 1000 2803 
Q 834 2675 834 2503 
Q 834 2394 903 2306 
Q 972 2216 1119 2156 
Q 1203 2125 1616 2013 
Q 2213 1853 2448 1751 
Q 2684 1650 2818 1456 
Q 2953 1263 2953 975 
Q 2953 694 2789 445 
Q 2625 197 2315 61 
Q 2006 -75 1616 -75 
Q 969 -75 630 194 
Q 291 463 197 991 
z
" transform="scale(0.015625)"/>
        <path id="ArialMT-67" d="M 319 -275 
L 866 -356 
Q 900 -609 1056 -725 
Q 1266 -881 1628 -881 
Q 2019 -881 2231 -725 
Q 2444 -569 2519 -288 
Q 2563 -116 2559 434 
Q 2191 0 1641 0 
Q 956 0 581 494 
Q 206 988 206 1678 
Q 206 2153 378 2554 
Q 550 2956 876 3175 
Q 1203 3394 1644 3394 
Q 2231 3394 2613 2919 
L 2613 3319 
L 3131 3319 
L 3131 450 
Q 3131 -325 2973 -648 
Q 2816 -972 2473 -1159 
Q 2131 -1347 1631 -1347 
Q 1038 -1347 672 -1080 
Q 306 -813 319 -275 
z
M 784 1719 
Q 784 1066 1043 766 
Q 1303 466 1694 466 
Q 2081 466 2343 764 
Q 2606 1063 2606 1700 
Q 2606 2309 2336 2618 
Q 2066 2928 1684 2928 
Q 1309 2928 1046 2623 
Q 784 2319 784 1719 
z
" transform="scale(0.015625)"/>
       </defs>
       <use xlink:href="#ArialMT-74"/>
       <use xlink:href="#ArialMT-6f" x="27.783203"/>
       <use xlink:href="#ArialMT-74" x="83.398438"/>
       <use xlink:href="#ArialMT-61" x="111.181641"/>
       <use xlink:href="#ArialMT-6c" x="166.796875"/>
       <use xlink:href="#ArialMT-5f" x="189.013672"/>
       <use xlink:href="#ArialMT-76" x="244.628906"/>
       <use xlink:href="#ArialMT-6f" x="294.628906"/>
       <use xlink:href="#ArialMT-6c" x="350.244141"/>
       <use xlink:href="#ArialMT-75" x="372.460938"/>
       <use xlink:href="#ArialMT-6d" x="428.076172"/>
       <use xlink:href="#ArialMT-65" x="511.376953"/>
       <use xlink:href="#ArialMT-5f" x="566.992188"/>
       <use xlink:href="#ArialMT-32" x="622.607422"/>
       <use xlink:href="#ArialMT-5f" x="678.222656"/>
       <use xlink:href="#ArialMT-77" x="733.837891"/>
       <use xlink:href="#ArialMT-65" x="806.054688"/>
       <use xlink:href="#ArialMT-65" x="861.669922"/>
       <use xlink:href="#ArialMT-6b" x="917.285156"/>
       <use xlink:href="#ArialMT-73" x="967.285156"/>
       <use xlink:href="#ArialMT-5f" x="1017.285156"/>
       <use xlink:href="#ArialMT-61" x="1072.900391"/>
       <use xlink:href="#ArialMT-67" x="1128.515625"/>
       <use xlink:href="#ArialMT-6f" x="1184.130859"/>
      </g>
     </g>
    </g>
    <g id="ytick_2">
     <g id="line2d_7">
      <path d="M 181.480625 203.229375 
L 851.080625 203.229375 
" clip-path="url(#p568ec85f93)" style="fill: none; stroke: #cccccc; stroke-linecap: round"/>
     </g>
     <g id="text_8">
      <!-- total_volume_in_last_1_weeks -->
      <g style="fill: #262626" transform="translate(22.174375 207.1825) scale(0.11 -0.11)">
       <use xlink:href="#ArialMT-74"/>
       <use xlink:href="#ArialMT-6f" x="27.783203"/>
       <use xlink:href="#ArialMT-74" x="83.398438"/>
       <use xlink:href="#ArialMT-61" x="111.181641"/>
       <use xlink:href="#ArialMT-6c" x="166.796875"/>
       <use xlink:href="#ArialMT-5f" x="189.013672"/>
       <use xlink:href="#ArialMT-76" x="244.628906"/>
       <use xlink:href="#ArialMT-6f" x="294.628906"/>
       <use xlink:href="#ArialMT-6c" x="350.244141"/>
       <use xlink:href="#ArialMT-75" x="372.460938"/>
       <use xlink:href="#ArialMT-6d" x="428.076172"/>
       <use xlink:href="#ArialMT-65" x="511.376953"/>
       <use xlink:href="#ArialMT-5f" x="566.992188"/>
       <use xlink:href="#ArialMT-69" x="622.607422"/>
       <use xlink:href="#ArialMT-6e" x="644.824219"/>
       <use xlink:href="#ArialMT-5f" x="700.439453"/>
       <use xlink:href="#ArialMT-6c" x="756.054688"/>
       <use xlink:href="#ArialMT-61" x="778.271484"/>
       <use xlink:href="#ArialMT-73" x="833.886719"/>
       <use xlink:href="#ArialMT-74" x="883.886719"/>
       <use xlink:href="#ArialMT-5f" x="911.669922"/>
       <use xlink:href="#ArialMT-31" x="967.285156"/>
       <use xlink:href="#ArialMT-5f" x="1022.900391"/>
       <use xlink:href="#ArialMT-77" x="1078.515625"/>
       <use xlink:href="#ArialMT-65" x="1150.732422"/>
       <use xlink:href="#ArialMT-65" x="1206.347656"/>
       <use xlink:href="#ArialMT-6b" x="1261.962891"/>
       <use xlink:href="#ArialMT-73" x="1311.962891"/>
      </g>
     </g>
    </g>
    <g id="ytick_3">
     <g id="line2d_8">
      <path d="M 181.480625 183.069375 
L 851.080625 183.069375 
" clip-path="url(#p568ec85f93)" style="fill: none; stroke: #cccccc; stroke-linecap: round"/>
     </g>
     <g id="text_9">
      <!-- average_price_3_weeks_ago -->
      <g style="fill: #262626" transform="translate(28.277656 187.0225) scale(0.11 -0.11)">
       <defs>
        <path id="ArialMT-33" d="M 269 1209 
L 831 1284 
Q 928 806 1161 595 
Q 1394 384 1728 384 
Q 2125 384 2398 659 
Q 2672 934 2672 1341 
Q 2672 1728 2419 1979 
Q 2166 2231 1775 2231 
Q 1616 2231 1378 2169 
L 1441 2663 
Q 1497 2656 1531 2656 
Q 1891 2656 2178 2843 
Q 2466 3031 2466 3422 
Q 2466 3731 2256 3934 
Q 2047 4138 1716 4138 
Q 1388 4138 1169 3931 
Q 950 3725 888 3313 
L 325 3413 
Q 428 3978 793 4289 
Q 1159 4600 1703 4600 
Q 2078 4600 2393 4439 
Q 2709 4278 2876 4000 
Q 3044 3722 3044 3409 
Q 3044 3113 2884 2869 
Q 2725 2625 2413 2481 
Q 2819 2388 3044 2092 
Q 3269 1797 3269 1353 
Q 3269 753 2831 336 
Q 2394 -81 1725 -81 
Q 1122 -81 723 278 
Q 325 638 269 1209 
z
" transform="scale(0.015625)"/>
       </defs>
       <use xlink:href="#ArialMT-61"/>
       <use xlink:href="#ArialMT-76" x="55.615234"/>
       <use xlink:href="#ArialMT-65" x="105.615234"/>
       <use xlink:href="#ArialMT-72" x="161.230469"/>
       <use xlink:href="#ArialMT-61" x="194.53125"/>
       <use xlink:href="#ArialMT-67" x="250.146484"/>
       <use xlink:href="#ArialMT-65" x="305.761719"/>
       <use xlink:href="#ArialMT-5f" x="361.376953"/>
       <use xlink:href="#ArialMT-70" x="416.992188"/>
       <use xlink:href="#ArialMT-72" x="472.607422"/>
       <use xlink:href="#ArialMT-69" x="505.908203"/>
       <use xlink:href="#ArialMT-63" x="528.125"/>
       <use xlink:href="#ArialMT-65" x="578.125"/>
       <use xlink:href="#ArialMT-5f" x="633.740234"/>
       <use xlink:href="#ArialMT-33" x="689.355469"/>
       <use xlink:href="#ArialMT-5f" x="744.970703"/>
       <use xlink:href="#ArialMT-77" x="800.585938"/>
       <use xlink:href="#ArialMT-65" x="872.802734"/>
       <use xlink:href="#ArialMT-65" x="928.417969"/>
       <use xlink:href="#ArialMT-6b" x="984.033203"/>
       <use xlink:href="#ArialMT-73" x="1034.033203"/>
       <use xlink:href="#ArialMT-5f" x="1084.033203"/>
       <use xlink:href="#ArialMT-61" x="1139.648438"/>
       <use xlink:href="#ArialMT-67" x="1195.263672"/>
       <use xlink:href="#ArialMT-6f" x="1250.878906"/>
      </g>
     </g>
    </g>
    <g id="ytick_4">
     <g id="line2d_9">
      <path d="M 181.480625 162.909375 
L 851.080625 162.909375 
" clip-path="url(#p568ec85f93)" style="fill: none; stroke: #cccccc; stroke-linecap: round"/>
     </g>
     <g id="text_10">
      <!-- total_volume_in_last_3_weeks -->
      <g style="fill: #262626" transform="translate(22.174375 166.8625) scale(0.11 -0.11)">
       <use xlink:href="#ArialMT-74"/>
       <use xlink:href="#ArialMT-6f" x="27.783203"/>
       <use xlink:href="#ArialMT-74" x="83.398438"/>
       <use xlink:href="#ArialMT-61" x="111.181641"/>
       <use xlink:href="#ArialMT-6c" x="166.796875"/>
       <use xlink:href="#ArialMT-5f" x="189.013672"/>
       <use xlink:href="#ArialMT-76" x="244.628906"/>
       <use xlink:href="#ArialMT-6f" x="294.628906"/>
       <use xlink:href="#ArialMT-6c" x="350.244141"/>
       <use xlink:href="#ArialMT-75" x="372.460938"/>
       <use xlink:href="#ArialMT-6d" x="428.076172"/>
       <use xlink:href="#ArialMT-65" x="511.376953"/>
       <use xlink:href="#ArialMT-5f" x="566.992188"/>
       <use xlink:href="#ArialMT-69" x="622.607422"/>
       <use xlink:href="#ArialMT-6e" x="644.824219"/>
       <use xlink:href="#ArialMT-5f" x="700.439453"/>
       <use xlink:href="#ArialMT-6c" x="756.054688"/>
       <use xlink:href="#ArialMT-61" x="778.271484"/>
       <use xlink:href="#ArialMT-73" x="833.886719"/>
       <use xlink:href="#ArialMT-74" x="883.886719"/>
       <use xlink:href="#ArialMT-5f" x="911.669922"/>
       <use xlink:href="#ArialMT-33" x="967.285156"/>
       <use xlink:href="#ArialMT-5f" x="1022.900391"/>
       <use xlink:href="#ArialMT-77" x="1078.515625"/>
       <use xlink:href="#ArialMT-65" x="1150.732422"/>
       <use xlink:href="#ArialMT-65" x="1206.347656"/>
       <use xlink:href="#ArialMT-6b" x="1261.962891"/>
       <use xlink:href="#ArialMT-73" x="1311.962891"/>
      </g>
     </g>
    </g>
    <g id="ytick_5">
     <g id="line2d_10">
      <path d="M 181.480625 142.749375 
L 851.080625 142.749375 
" clip-path="url(#p568ec85f93)" style="fill: none; stroke: #cccccc; stroke-linecap: round"/>
     </g>
     <g id="text_11">
      <!-- total_volume_in_last_7_weeks -->
      <g style="fill: #262626" transform="translate(22.174375 146.686172) scale(0.11 -0.11)">
       <defs>
        <path id="ArialMT-37" d="M 303 3981 
L 303 4522 
L 3269 4522 
L 3269 4084 
Q 2831 3619 2401 2847 
Q 1972 2075 1738 1259 
Q 1569 684 1522 0 
L 944 0 
Q 953 541 1156 1306 
Q 1359 2072 1739 2783 
Q 2119 3494 2547 3981 
L 303 3981 
z
" transform="scale(0.015625)"/>
       </defs>
       <use xlink:href="#ArialMT-74"/>
       <use xlink:href="#ArialMT-6f" x="27.783203"/>
       <use xlink:href="#ArialMT-74" x="83.398438"/>
       <use xlink:href="#ArialMT-61" x="111.181641"/>
       <use xlink:href="#ArialMT-6c" x="166.796875"/>
       <use xlink:href="#ArialMT-5f" x="189.013672"/>
       <use xlink:href="#ArialMT-76" x="244.628906"/>
       <use xlink:href="#ArialMT-6f" x="294.628906"/>
       <use xlink:href="#ArialMT-6c" x="350.244141"/>
       <use xlink:href="#ArialMT-75" x="372.460938"/>
       <use xlink:href="#ArialMT-6d" x="428.076172"/>
       <use xlink:href="#ArialMT-65" x="511.376953"/>
       <use xlink:href="#ArialMT-5f" x="566.992188"/>
       <use xlink:href="#ArialMT-69" x="622.607422"/>
       <use xlink:href="#ArialMT-6e" x="644.824219"/>
       <use xlink:href="#ArialMT-5f" x="700.439453"/>
       <use xlink:href="#ArialMT-6c" x="756.054688"/>
       <use xlink:href="#ArialMT-61" x="778.271484"/>
       <use xlink:href="#ArialMT-73" x="833.886719"/>
       <use xlink:href="#ArialMT-74" x="883.886719"/>
       <use xlink:href="#ArialMT-5f" x="911.669922"/>
       <use xlink:href="#ArialMT-37" x="967.285156"/>
       <use xlink:href="#ArialMT-5f" x="1022.900391"/>
       <use xlink:href="#ArialMT-77" x="1078.515625"/>
       <use xlink:href="#ArialMT-65" x="1150.732422"/>
       <use xlink:href="#ArialMT-65" x="1206.347656"/>
       <use xlink:href="#ArialMT-6b" x="1261.962891"/>
       <use xlink:href="#ArialMT-73" x="1311.962891"/>
      </g>
     </g>
    </g>
    <g id="ytick_6">
     <g id="line2d_11">
      <path d="M 181.480625 122.589375 
L 851.080625 122.589375 
" clip-path="url(#p568ec85f93)" style="fill: none; stroke: #cccccc; stroke-linecap: round"/>
     </g>
     <g id="text_12">
      <!-- days_until_next_holiday -->
      <g style="fill: #262626" transform="translate(54.571094 126.526172) scale(0.11 -0.11)">
       <defs>
        <path id="ArialMT-64" d="M 2575 0 
L 2575 419 
Q 2259 -75 1647 -75 
Q 1250 -75 917 144 
Q 584 363 401 755 
Q 219 1147 219 1656 
Q 219 2153 384 2558 
Q 550 2963 881 3178 
Q 1213 3394 1622 3394 
Q 1922 3394 2156 3267 
Q 2391 3141 2538 2938 
L 2538 4581 
L 3097 4581 
L 3097 0 
L 2575 0 
z
M 797 1656 
Q 797 1019 1065 703 
Q 1334 388 1700 388 
Q 2069 388 2326 689 
Q 2584 991 2584 1609 
Q 2584 2291 2321 2609 
Q 2059 2928 1675 2928 
Q 1300 2928 1048 2622 
Q 797 2316 797 1656 
z
" transform="scale(0.015625)"/>
        <path id="ArialMT-79" d="M 397 -1278 
L 334 -750 
Q 519 -800 656 -800 
Q 844 -800 956 -737 
Q 1069 -675 1141 -563 
Q 1194 -478 1313 -144 
Q 1328 -97 1363 -6 
L 103 3319 
L 709 3319 
L 1400 1397 
Q 1534 1031 1641 628 
Q 1738 1016 1872 1384 
L 2581 3319 
L 3144 3319 
L 1881 -56 
Q 1678 -603 1566 -809 
Q 1416 -1088 1222 -1217 
Q 1028 -1347 759 -1347 
Q 597 -1347 397 -1278 
z
" transform="scale(0.015625)"/>
        <path id="ArialMT-78" d="M 47 0 
L 1259 1725 
L 138 3319 
L 841 3319 
L 1350 2541 
Q 1494 2319 1581 2169 
Q 1719 2375 1834 2534 
L 2394 3319 
L 3066 3319 
L 1919 1756 
L 3153 0 
L 2463 0 
L 1781 1031 
L 1600 1309 
L 728 0 
L 47 0 
z
" transform="scale(0.015625)"/>
        <path id="ArialMT-68" d="M 422 0 
L 422 4581 
L 984 4581 
L 984 2938 
Q 1378 3394 1978 3394 
Q 2347 3394 2619 3248 
Q 2891 3103 3008 2847 
Q 3125 2591 3125 2103 
L 3125 0 
L 2563 0 
L 2563 2103 
Q 2563 2525 2380 2717 
Q 2197 2909 1863 2909 
Q 1613 2909 1392 2779 
Q 1172 2650 1078 2428 
Q 984 2206 984 1816 
L 984 0 
L 422 0 
z
" transform="scale(0.015625)"/>
       </defs>
       <use xlink:href="#ArialMT-64"/>
       <use xlink:href="#ArialMT-61" x="55.615234"/>
       <use xlink:href="#ArialMT-79" x="111.230469"/>
       <use xlink:href="#ArialMT-73" x="161.230469"/>
       <use xlink:href="#ArialMT-5f" x="211.230469"/>
       <use xlink:href="#ArialMT-75" x="266.845703"/>
       <use xlink:href="#ArialMT-6e" x="322.460938"/>
       <use xlink:href="#ArialMT-74" x="378.076172"/>
       <use xlink:href="#ArialMT-69" x="405.859375"/>
       <use xlink:href="#ArialMT-6c" x="428.076172"/>
       <use xlink:href="#ArialMT-5f" x="450.292969"/>
       <use xlink:href="#ArialMT-6e" x="505.908203"/>
       <use xlink:href="#ArialMT-65" x="561.523438"/>
       <use xlink:href="#ArialMT-78" x="617.138672"/>
       <use xlink:href="#ArialMT-74" x="667.138672"/>
       <use xlink:href="#ArialMT-5f" x="694.921875"/>
       <use xlink:href="#ArialMT-68" x="750.537109"/>
       <use xlink:href="#ArialMT-6f" x="806.152344"/>
       <use xlink:href="#ArialMT-6c" x="861.767578"/>
       <use xlink:href="#ArialMT-69" x="883.984375"/>
       <use xlink:href="#ArialMT-64" x="906.201172"/>
       <use xlink:href="#ArialMT-61" x="961.816406"/>
       <use xlink:href="#ArialMT-79" x="1017.431641"/>
      </g>
     </g>
    </g>
    <g id="ytick_7">
     <g id="line2d_12">
      <path d="M 181.480625 102.429375 
L 851.080625 102.429375 
" clip-path="url(#p568ec85f93)" style="fill: none; stroke: #cccccc; stroke-linecap: round"/>
     </g>
     <g id="text_13">
      <!-- total_volume_4_weeks_ago -->
      <g style="fill: #262626" transform="translate(35.618438 106.366172) scale(0.11 -0.11)">
       <defs>
        <path id="ArialMT-34" d="M 2069 0 
L 2069 1097 
L 81 1097 
L 81 1613 
L 2172 4581 
L 2631 4581 
L 2631 1613 
L 3250 1613 
L 3250 1097 
L 2631 1097 
L 2631 0 
L 2069 0 
z
M 2069 1613 
L 2069 3678 
L 634 1613 
L 2069 1613 
z
" transform="scale(0.015625)"/>
       </defs>
       <use xlink:href="#ArialMT-74"/>
       <use xlink:href="#ArialMT-6f" x="27.783203"/>
       <use xlink:href="#ArialMT-74" x="83.398438"/>
       <use xlink:href="#ArialMT-61" x="111.181641"/>
       <use xlink:href="#ArialMT-6c" x="166.796875"/>
       <use xlink:href="#ArialMT-5f" x="189.013672"/>
       <use xlink:href="#ArialMT-76" x="244.628906"/>
       <use xlink:href="#ArialMT-6f" x="294.628906"/>
       <use xlink:href="#ArialMT-6c" x="350.244141"/>
       <use xlink:href="#ArialMT-75" x="372.460938"/>
       <use xlink:href="#ArialMT-6d" x="428.076172"/>
       <use xlink:href="#ArialMT-65" x="511.376953"/>
       <use xlink:href="#ArialMT-5f" x="566.992188"/>
       <use xlink:href="#ArialMT-34" x="622.607422"/>
       <use xlink:href="#ArialMT-5f" x="678.222656"/>
       <use xlink:href="#ArialMT-77" x="733.837891"/>
       <use xlink:href="#ArialMT-65" x="806.054688"/>
       <use xlink:href="#ArialMT-65" x="861.669922"/>
       <use xlink:href="#ArialMT-6b" x="917.285156"/>
       <use xlink:href="#ArialMT-73" x="967.285156"/>
       <use xlink:href="#ArialMT-5f" x="1017.285156"/>
       <use xlink:href="#ArialMT-61" x="1072.900391"/>
       <use xlink:href="#ArialMT-67" x="1128.515625"/>
       <use xlink:href="#ArialMT-6f" x="1184.130859"/>
      </g>
     </g>
    </g>
    <g id="ytick_8">
     <g id="line2d_13">
      <path d="M 181.480625 82.269375 
L 851.080625 82.269375 
" clip-path="url(#p568ec85f93)" style="fill: none; stroke: #cccccc; stroke-linecap: round"/>
     </g>
     <g id="text_14">
      <!-- total_volume_3_weeks_ago -->
      <g style="fill: #262626" transform="translate(35.618438 86.2225) scale(0.11 -0.11)">
       <use xlink:href="#ArialMT-74"/>
       <use xlink:href="#ArialMT-6f" x="27.783203"/>
       <use xlink:href="#ArialMT-74" x="83.398438"/>
       <use xlink:href="#ArialMT-61" x="111.181641"/>
       <use xlink:href="#ArialMT-6c" x="166.796875"/>
       <use xlink:href="#ArialMT-5f" x="189.013672"/>
       <use xlink:href="#ArialMT-76" x="244.628906"/>
       <use xlink:href="#ArialMT-6f" x="294.628906"/>
       <use xlink:href="#ArialMT-6c" x="350.244141"/>
       <use xlink:href="#ArialMT-75" x="372.460938"/>
       <use xlink:href="#ArialMT-6d" x="428.076172"/>
       <use xlink:href="#ArialMT-65" x="511.376953"/>
       <use xlink:href="#ArialMT-5f" x="566.992188"/>
       <use xlink:href="#ArialMT-33" x="622.607422"/>
       <use xlink:href="#ArialMT-5f" x="678.222656"/>
       <use xlink:href="#ArialMT-77" x="733.837891"/>
       <use xlink:href="#ArialMT-65" x="806.054688"/>
       <use xlink:href="#ArialMT-65" x="861.669922"/>
       <use xlink:href="#ArialMT-6b" x="917.285156"/>
       <use xlink:href="#ArialMT-73" x="967.285156"/>
       <use xlink:href="#ArialMT-5f" x="1017.285156"/>
       <use xlink:href="#ArialMT-61" x="1072.900391"/>
       <use xlink:href="#ArialMT-67" x="1128.515625"/>
       <use xlink:href="#ArialMT-6f" x="1184.130859"/>
      </g>
     </g>
    </g>
    <g id="ytick_9">
     <g id="line2d_14">
      <path d="M 181.480625 62.109375 
L 851.080625 62.109375 
" clip-path="url(#p568ec85f93)" style="fill: none; stroke: #cccccc; stroke-linecap: round"/>
     </g>
     <g id="text_15">
      <!-- average_price_5_weeks_ago -->
      <g style="fill: #262626" transform="translate(28.277656 66.046172) scale(0.11 -0.11)">
       <use xlink:href="#ArialMT-61"/>
       <use xlink:href="#ArialMT-76" x="55.615234"/>
       <use xlink:href="#ArialMT-65" x="105.615234"/>
       <use xlink:href="#ArialMT-72" x="161.230469"/>
       <use xlink:href="#ArialMT-61" x="194.53125"/>
       <use xlink:href="#ArialMT-67" x="250.146484"/>
       <use xlink:href="#ArialMT-65" x="305.761719"/>
       <use xlink:href="#ArialMT-5f" x="361.376953"/>
       <use xlink:href="#ArialMT-70" x="416.992188"/>
       <use xlink:href="#ArialMT-72" x="472.607422"/>
       <use xlink:href="#ArialMT-69" x="505.908203"/>
       <use xlink:href="#ArialMT-63" x="528.125"/>
       <use xlink:href="#ArialMT-65" x="578.125"/>
       <use xlink:href="#ArialMT-5f" x="633.740234"/>
       <use xlink:href="#ArialMT-35" x="689.355469"/>
       <use xlink:href="#ArialMT-5f" x="744.970703"/>
       <use xlink:href="#ArialMT-77" x="800.585938"/>
       <use xlink:href="#ArialMT-65" x="872.802734"/>
       <use xlink:href="#ArialMT-65" x="928.417969"/>
       <use xlink:href="#ArialMT-6b" x="984.033203"/>
       <use xlink:href="#ArialMT-73" x="1034.033203"/>
       <use xlink:href="#ArialMT-5f" x="1084.033203"/>
       <use xlink:href="#ArialMT-61" x="1139.648438"/>
       <use xlink:href="#ArialMT-67" x="1195.263672"/>
       <use xlink:href="#ArialMT-6f" x="1250.878906"/>
      </g>
     </g>
    </g>
    <g id="ytick_10">
     <g id="line2d_15">
      <path d="M 181.480625 41.949375 
L 851.080625 41.949375 
" clip-path="url(#p568ec85f93)" style="fill: none; stroke: #cccccc; stroke-linecap: round"/>
     </g>
     <g id="text_16">
      <!-- average_price_6_weeks_ago -->
      <g style="fill: #262626" transform="translate(28.277656 45.9025) scale(0.11 -0.11)">
       <defs>
        <path id="ArialMT-36" d="M 3184 3459 
L 2625 3416 
Q 2550 3747 2413 3897 
Q 2184 4138 1850 4138 
Q 1581 4138 1378 3988 
Q 1113 3794 959 3422 
Q 806 3050 800 2363 
Q 1003 2672 1297 2822 
Q 1591 2972 1913 2972 
Q 2475 2972 2870 2558 
Q 3266 2144 3266 1488 
Q 3266 1056 3080 686 
Q 2894 316 2569 119 
Q 2244 -78 1831 -78 
Q 1128 -78 684 439 
Q 241 956 241 2144 
Q 241 3472 731 4075 
Q 1159 4600 1884 4600 
Q 2425 4600 2770 4297 
Q 3116 3994 3184 3459 
z
M 888 1484 
Q 888 1194 1011 928 
Q 1134 663 1356 523 
Q 1578 384 1822 384 
Q 2178 384 2434 671 
Q 2691 959 2691 1453 
Q 2691 1928 2437 2201 
Q 2184 2475 1800 2475 
Q 1419 2475 1153 2201 
Q 888 1928 888 1484 
z
" transform="scale(0.015625)"/>
       </defs>
       <use xlink:href="#ArialMT-61"/>
       <use xlink:href="#ArialMT-76" x="55.615234"/>
       <use xlink:href="#ArialMT-65" x="105.615234"/>
       <use xlink:href="#ArialMT-72" x="161.230469"/>
       <use xlink:href="#ArialMT-61" x="194.53125"/>
       <use xlink:href="#ArialMT-67" x="250.146484"/>
       <use xlink:href="#ArialMT-65" x="305.761719"/>
       <use xlink:href="#ArialMT-5f" x="361.376953"/>
       <use xlink:href="#ArialMT-70" x="416.992188"/>
       <use xlink:href="#ArialMT-72" x="472.607422"/>
       <use xlink:href="#ArialMT-69" x="505.908203"/>
       <use xlink:href="#ArialMT-63" x="528.125"/>
       <use xlink:href="#ArialMT-65" x="578.125"/>
       <use xlink:href="#ArialMT-5f" x="633.740234"/>
       <use xlink:href="#ArialMT-36" x="689.355469"/>
       <use xlink:href="#ArialMT-5f" x="744.970703"/>
       <use xlink:href="#ArialMT-77" x="800.585938"/>
       <use xlink:href="#ArialMT-65" x="872.802734"/>
       <use xlink:href="#ArialMT-65" x="928.417969"/>
       <use xlink:href="#ArialMT-6b" x="984.033203"/>
       <use xlink:href="#ArialMT-73" x="1034.033203"/>
       <use xlink:href="#ArialMT-5f" x="1084.033203"/>
       <use xlink:href="#ArialMT-61" x="1139.648438"/>
       <use xlink:href="#ArialMT-67" x="1195.263672"/>
       <use xlink:href="#ArialMT-6f" x="1250.878906"/>
      </g>
     </g>
    </g>
    <g id="text_17">
     <!-- Features -->
     <g style="fill: #262626" transform="translate(15.789375 156.345) rotate(-90) scale(0.12 -0.12)">
      <use xlink:href="#ArialMT-46"/>
      <use xlink:href="#ArialMT-65" x="61.083984"/>
      <use xlink:href="#ArialMT-61" x="116.699219"/>
      <use xlink:href="#ArialMT-74" x="172.314453"/>
      <use xlink:href="#ArialMT-75" x="200.097656"/>
      <use xlink:href="#ArialMT-72" x="255.712891"/>
      <use xlink:href="#ArialMT-65" x="289.013672"/>
      <use xlink:href="#ArialMT-73" x="344.628906"/>
     </g>
    </g>
   </g>
   <g id="patch_3">
    <path d="M 181.480625 225.405375 
L 319.827732 225.405375 
L 319.827732 221.373375 
L 181.480625 221.373375 
z
" clip-path="url(#p568ec85f93)" style="fill: #2e1e3b; stroke: #ffffff; stroke-linejoin: miter"/>
   </g>
   <g id="patch_4">
    <path d="M 181.480625 205.245375 
L 375.166575 205.245375 
L 375.166575 201.213375 
L 181.480625 201.213375 
z
" clip-path="url(#p568ec85f93)" style="fill: #2e1e3b; stroke: #ffffff; stroke-linejoin: miter"/>
   </g>
   <g id="patch_5">
    <path d="M 181.480625 185.085375 
L 430.505418 185.085375 
L 430.505418 181.053375 
L 181.480625 181.053375 
z
" clip-path="url(#p568ec85f93)" style="fill: #2e1e3b; stroke: #ffffff; stroke-linejoin: miter"/>
   </g>
   <g id="patch_6">
    <path d="M 181.480625 164.925375 
L 430.505418 164.925375 
L 430.505418 160.893375 
L 181.480625 160.893375 
z
" clip-path="url(#p568ec85f93)" style="fill: #2e1e3b; stroke: #ffffff; stroke-linejoin: miter"/>
   </g>
   <g id="patch_7">
    <path d="M 181.480625 144.765375 
L 430.505418 144.765375 
L 430.505418 140.733375 
L 181.480625 140.733375 
z
" clip-path="url(#p568ec85f93)" style="fill: #2e1e3b; stroke: #ffffff; stroke-linejoin: miter"/>
   </g>
   <g id="patch_8">
    <path d="M 181.480625 124.605375 
L 458.17484 124.605375 
L 458.17484 120.573375 
L 181.480625 120.573375 
z
" clip-path="url(#p568ec85f93)" style="fill: #2e1e3b; stroke: #ffffff; stroke-linejoin: miter"/>
   </g>
   <g id="patch_9">
    <path d="M 181.480625 104.445375 
L 458.17484 104.445375 
L 458.17484 100.413375 
L 181.480625 100.413375 
z
" clip-path="url(#p568ec85f93)" style="fill: #2e1e3b; stroke: #ffffff; stroke-linejoin: miter"/>
   </g>
   <g id="patch_10">
    <path d="M 181.480625 84.285375 
L 541.183104 84.285375 
L 541.183104 80.253375 
L 181.480625 80.253375 
z
" clip-path="url(#p568ec85f93)" style="fill: #2e1e3b; stroke: #ffffff; stroke-linejoin: miter"/>
   </g>
   <g id="patch_11">
    <path d="M 181.480625 64.125375 
L 734.869055 64.125375 
L 734.869055 60.093375 
L 181.480625 60.093375 
z
" clip-path="url(#p568ec85f93)" style="fill: #2e1e3b; stroke: #ffffff; stroke-linejoin: miter"/>
   </g>
   <g id="patch_12">
    <path d="M 181.480625 43.965375 
L 790.207898 43.965375 
L 790.207898 39.933375 
L 181.480625 39.933375 
z
" clip-path="url(#p568ec85f93)" style="fill: #2e1e3b; stroke: #ffffff; stroke-linejoin: miter"/>
   </g>
   <g id="patch_13">
    <path d="M 181.480625 243.549375 
L 181.480625 21.789375 
" style="fill: none; stroke: #262626; stroke-width: 1.25; stroke-linejoin: miter; stroke-linecap: square"/>
   </g>
   <g id="patch_14">
    <path d="M 851.080625 243.549375 
L 851.080625 21.789375 
" style="fill: none; stroke: #262626; stroke-width: 1.25; stroke-linejoin: miter; stroke-linecap: square"/>
   </g>
   <g id="patch_15">
    <path d="M 181.480625 243.549375 
L 851.080625 243.549375 
" style="fill: none; stroke: #262626; stroke-width: 1.25; stroke-linejoin: miter; stroke-linecap: square"/>
   </g>
   <g id="patch_16">
    <path d="M 181.480625 21.789375 
L 851.080625 21.789375 
" style="fill: none; stroke: #262626; stroke-width: 1.25; stroke-linejoin: miter; stroke-linecap: square"/>
   </g>
   <g id="text_18">
    <!-- 5 -->
    <g style="fill: #262626" transform="translate(347.497154 226.491563) scale(0.12 -0.12)">
     <use xlink:href="#ArialMT-35"/>
    </g>
   </g>
   <g id="text_19">
    <!-- 7 -->
    <g style="fill: #262626" transform="translate(402.835997 206.331563) scale(0.12 -0.12)">
     <use xlink:href="#ArialMT-37"/>
    </g>
   </g>
   <g id="text_20">
    <!-- 9 -->
    <g style="fill: #262626" transform="translate(458.17484 186.171562) scale(0.12 -0.12)">
     <defs>
      <path id="ArialMT-39" d="M 350 1059 
L 891 1109 
Q 959 728 1153 556 
Q 1347 384 1650 384 
Q 1909 384 2104 503 
Q 2300 622 2425 820 
Q 2550 1019 2634 1356 
Q 2719 1694 2719 2044 
Q 2719 2081 2716 2156 
Q 2547 1888 2255 1720 
Q 1963 1553 1622 1553 
Q 1053 1553 659 1965 
Q 266 2378 266 3053 
Q 266 3750 677 4175 
Q 1088 4600 1706 4600 
Q 2153 4600 2523 4359 
Q 2894 4119 3086 3673 
Q 3278 3228 3278 2384 
Q 3278 1506 3087 986 
Q 2897 466 2520 194 
Q 2144 -78 1638 -78 
Q 1100 -78 759 220 
Q 419 519 350 1059 
z
M 2653 3081 
Q 2653 3566 2395 3850 
Q 2138 4134 1775 4134 
Q 1400 4134 1122 3828 
Q 844 3522 844 3034 
Q 844 2597 1108 2323 
Q 1372 2050 1759 2050 
Q 2150 2050 2401 2323 
Q 2653 2597 2653 3081 
z
" transform="scale(0.015625)"/>
     </defs>
     <use xlink:href="#ArialMT-39"/>
    </g>
   </g>
   <g id="text_21">
    <!-- 9 -->
    <g style="fill: #262626" transform="translate(458.17484 166.011563) scale(0.12 -0.12)">
     <use xlink:href="#ArialMT-39"/>
    </g>
   </g>
   <g id="text_22">
    <!-- 9 -->
    <g style="fill: #262626" transform="translate(458.17484 145.851563) scale(0.12 -0.12)">
     <use xlink:href="#ArialMT-39"/>
    </g>
   </g>
   <g id="text_23">
    <!-- 10 -->
    <g style="fill: #262626" transform="translate(485.844261 125.691563) scale(0.12 -0.12)">
     <use xlink:href="#ArialMT-31"/>
     <use xlink:href="#ArialMT-30" x="55.615234"/>
    </g>
   </g>
   <g id="text_24">
    <!-- 10 -->
    <g style="fill: #262626" transform="translate(485.844261 105.531563) scale(0.12 -0.12)">
     <use xlink:href="#ArialMT-31"/>
     <use xlink:href="#ArialMT-30" x="55.615234"/>
    </g>
   </g>
   <g id="text_25">
    <!-- 13 -->
    <g style="fill: #262626" transform="translate(568.852526 85.371563) scale(0.12 -0.12)">
     <use xlink:href="#ArialMT-31"/>
     <use xlink:href="#ArialMT-33" x="55.615234"/>
    </g>
   </g>
   <g id="text_26">
    <!-- 20 -->
    <g style="fill: #262626" transform="translate(762.538476 65.211563) scale(0.12 -0.12)">
     <use xlink:href="#ArialMT-32"/>
     <use xlink:href="#ArialMT-30" x="55.615234"/>
    </g>
   </g>
   <g id="text_27">
    <!-- 22 -->
    <g style="fill: #262626" transform="translate(817.877319 45.051563) scale(0.12 -0.12)">
     <use xlink:href="#ArialMT-32"/>
     <use xlink:href="#ArialMT-32" x="55.615234"/>
    </g>
   </g>
   <g id="text_28">
    <!-- Feature importance -->
    <g style="fill: #262626" transform="translate(464.259688 15.789375) scale(0.12 -0.12)">
     <use xlink:href="#ArialMT-46"/>
     <use xlink:href="#ArialMT-65" x="61.083984"/>
     <use xlink:href="#ArialMT-61" x="116.699219"/>
     <use xlink:href="#ArialMT-74" x="172.314453"/>
     <use xlink:href="#ArialMT-75" x="200.097656"/>
     <use xlink:href="#ArialMT-72" x="255.712891"/>
     <use xlink:href="#ArialMT-65" x="289.013672"/>
     <use xlink:href="#ArialMT-20" x="344.628906"/>
     <use xlink:href="#ArialMT-69" x="372.412109"/>
     <use xlink:href="#ArialMT-6d" x="394.628906"/>
     <use xlink:href="#ArialMT-70" x="477.929688"/>
     <use xlink:href="#ArialMT-6f" x="533.544922"/>
     <use xlink:href="#ArialMT-72" x="589.160156"/>
     <use xlink:href="#ArialMT-74" x="622.460938"/>
     <use xlink:href="#ArialMT-61" x="650.244141"/>
     <use xlink:href="#ArialMT-6e" x="705.859375"/>
     <use xlink:href="#ArialMT-63" x="761.474609"/>
     <use xlink:href="#ArialMT-65" x="811.474609"/>
    </g>
   </g>
  </g>
 </g>
 <defs>
  <clipPath id="p568ec85f93">
   <rect x="181.480625" y="21.789375" width="669.6" height="221.76"/>
  </clipPath>
 </defs>
</svg>
