<?xml version="1.0" encoding="utf-8" standalone="no"?>
<!DOCTYPE svg PUBLIC "-//W3C//DTD SVG 1.1//EN"
  "http://www.w3.org/Graphics/SVG/1.1/DTD/svg11.dtd">
<svg xmlns:xlink="http://www.w3.org/1999/xlink" width="894.261094pt" height="285.429844pt" viewBox="0 0 894.261094 285.429844" xmlns="http://www.w3.org/2000/svg" version="1.1">
 <metadata>
  <rdf:RDF xmlns:dc="http://purl.org/dc/elements/1.1/" xmlns:cc="http://creativecommons.org/ns#" xmlns:rdf="http://www.w3.org/1999/02/22-rdf-syntax-ns#">
   <cc:Work>
    <dc:type rdf:resource="http://purl.org/dc/dcmitype/StillImage"/>
    <dc:date>2023-08-13T03:37:55.071026</dc:date>
    <dc:format>image/svg+xml</dc:format>
    <dc:creator>
     <cc:Agent>
      <dc:title>Matplotlib v3.7.1, https://matplotlib.org/</dc:title>
     </cc:Agent>
    </dc:creator>
   </cc:Work>
  </rdf:RDF>
 </metadata>
 <defs>
  <style type="text/css">*{stroke-linejoin: round; stroke-linecap: butt}</style>
 </defs>
 <g id="figure_1">
  <g id="patch_1">
   <path d="M 0 285.429844 
L 894.261094 285.429844 
L 894.261094 0 
L 0 0 
z
" style="fill: #ffffff"/>
  </g>
  <g id="axes_1">
   <g id="patch_2">
    <path d="M 50.061094 243.549375 
L 887.061094 243.549375 
L 887.061094 21.789375 
L 50.061094 21.789375 
z
" style="fill: #ffffff"/>
   </g>
   <g id="matplotlib.axis_1">
    <g id="xtick_1">
     <g id="text_1">
      <!-- 1.15 -->
      <g style="fill: #262626" transform="translate(61.879076 260.922969) scale(0.11 -0.11)">
       <defs>
        <path id="ArialMT-31" d="M 2384 0 
L 1822 0 
L 1822 3584 
Q 1619 3391 1289 3197 
Q 959 3003 697 2906 
L 697 3450 
Q 1169 3672 1522 3987 
Q 1875 4303 2022 4600 
L 2384 4600 
L 2384 0 
z
" transform="scale(0.015625)"/>
        <path id="ArialMT-2e" d="M 581 0 
L 581 641 
L 1222 641 
L 1222 0 
L 581 0 
z
" transform="scale(0.015625)"/>
        <path id="ArialMT-35" d="M 266 1200 
L 856 1250 
Q 922 819 1161 601 
Q 1400 384 1738 384 
Q 2144 384 2425 690 
Q 2706 997 2706 1503 
Q 2706 1984 2436 2262 
Q 2166 2541 1728 2541 
Q 1456 2541 1237 2417 
Q 1019 2294 894 2097 
L 366 2166 
L 809 4519 
L 3088 4519 
L 3088 3981 
L 1259 3981 
L 1013 2750 
Q 1425 3038 1878 3038 
Q 2478 3038 2890 2622 
Q 3303 2206 3303 1553 
Q 3303 931 2941 478 
Q 2500 -78 1738 -78 
Q 1113 -78 717 272 
Q 322 622 266 1200 
z
" transform="scale(0.015625)"/>
       </defs>
       <use xlink:href="#ArialMT-31"/>
       <use xlink:href="#ArialMT-2e" x="55.615234"/>
       <use xlink:href="#ArialMT-31" x="83.398438"/>
       <use xlink:href="#ArialMT-35" x="139.013672"/>
      </g>
     </g>
    </g>
    <g id="xtick_2">
     <g id="text_2">
      <!-- 1.20 -->
      <g style="fill: #262626" transform="translate(188.893267 260.922969) scale(0.11 -0.11)">
       <defs>
        <path id="ArialMT-32" d="M 3222 541 
L 3222 0 
L 194 0 
Q 188 203 259 391 
Q 375 700 629 1000 
Q 884 1300 1366 1694 
Q 2113 2306 2375 2664 
Q 2638 3022 2638 3341 
Q 2638 3675 2398 3904 
Q 2159 4134 1775 4134 
Q 1369 4134 1125 3890 
Q 881 3647 878 3216 
L 300 3275 
Q 359 3922 746 4261 
Q 1134 4600 1788 4600 
Q 2447 4600 2831 4234 
Q 3216 3869 3216 3328 
Q 3216 3053 3103 2787 
Q 2991 2522 2730 2228 
Q 2469 1934 1863 1422 
Q 1356 997 1212 845 
Q 1069 694 975 541 
L 3222 541 
z
" transform="scale(0.015625)"/>
        <path id="ArialMT-30" d="M 266 2259 
Q 266 3072 433 3567 
Q 600 4063 929 4331 
Q 1259 4600 1759 4600 
Q 2128 4600 2406 4451 
Q 2684 4303 2865 4023 
Q 3047 3744 3150 3342 
Q 3253 2941 3253 2259 
Q 3253 1453 3087 958 
Q 2922 463 2592 192 
Q 2263 -78 1759 -78 
Q 1097 -78 719 397 
Q 266 969 266 2259 
z
M 844 2259 
Q 844 1131 1108 757 
Q 1372 384 1759 384 
Q 2147 384 2411 759 
Q 2675 1134 2675 2259 
Q 2675 3391 2411 3762 
Q 2147 4134 1753 4134 
Q 1366 4134 1134 3806 
Q 844 3388 844 2259 
z
" transform="scale(0.015625)"/>
       </defs>
       <use xlink:href="#ArialMT-31"/>
       <use xlink:href="#ArialMT-2e" x="55.615234"/>
       <use xlink:href="#ArialMT-32" x="83.398438"/>
       <use xlink:href="#ArialMT-30" x="139.013672"/>
      </g>
     </g>
    </g>
    <g id="xtick_3">
     <g id="text_3">
      <!-- 1.25 -->
      <g style="fill: #262626" transform="translate(315.907459 260.922969) scale(0.11 -0.11)">
       <use xlink:href="#ArialMT-31"/>
       <use xlink:href="#ArialMT-2e" x="55.615234"/>
       <use xlink:href="#ArialMT-32" x="83.398438"/>
       <use xlink:href="#ArialMT-35" x="139.013672"/>
      </g>
     </g>
    </g>
    <g id="xtick_4">
     <g id="text_4">
      <!-- 1.30 -->
      <g style="fill: #262626" transform="translate(442.92165 260.922969) scale(0.11 -0.11)">
       <defs>
        <path id="ArialMT-33" d="M 269 1209 
L 831 1284 
Q 928 806 1161 595 
Q 1394 384 1728 384 
Q 2125 384 2398 659 
Q 2672 934 2672 1341 
Q 2672 1728 2419 1979 
Q 2166 2231 1775 2231 
Q 1616 2231 1378 2169 
L 1441 2663 
Q 1497 2656 1531 2656 
Q 1891 2656 2178 2843 
Q 2466 3031 2466 3422 
Q 2466 3731 2256 3934 
Q 2047 4138 1716 4138 
Q 1388 4138 1169 3931 
Q 950 3725 888 3313 
L 325 3413 
Q 428 3978 793 4289 
Q 1159 4600 1703 4600 
Q 2078 4600 2393 4439 
Q 2709 4278 2876 4000 
Q 3044 3722 3044 3409 
Q 3044 3113 2884 2869 
Q 2725 2625 2413 2481 
Q 2819 2388 3044 2092 
Q 3269 1797 3269 1353 
Q 3269 753 2831 336 
Q 2394 -81 1725 -81 
Q 1122 -81 723 278 
Q 325 638 269 1209 
z
" transform="scale(0.015625)"/>
       </defs>
       <use xlink:href="#ArialMT-31"/>
       <use xlink:href="#ArialMT-2e" x="55.615234"/>
       <use xlink:href="#ArialMT-33" x="83.398438"/>
       <use xlink:href="#ArialMT-30" x="139.013672"/>
      </g>
     </g>
    </g>
    <g id="xtick_5">
     <g id="text_5">
      <!-- 1.35 -->
      <g style="fill: #262626" transform="translate(569.935841 260.922969) scale(0.11 -0.11)">
       <use xlink:href="#ArialMT-31"/>
       <use xlink:href="#ArialMT-2e" x="55.615234"/>
       <use xlink:href="#ArialMT-33" x="83.398438"/>
       <use xlink:href="#ArialMT-35" x="139.013672"/>
      </g>
     </g>
    </g>
    <g id="xtick_6">
     <g id="text_6">
      <!-- 1.40 -->
      <g style="fill: #262626" transform="translate(696.950033 260.922969) scale(0.11 -0.11)">
       <defs>
        <path id="ArialMT-34" d="M 2069 0 
L 2069 1097 
L 81 1097 
L 81 1613 
L 2172 4581 
L 2631 4581 
L 2631 1613 
L 3250 1613 
L 3250 1097 
L 2631 1097 
L 2631 0 
L 2069 0 
z
M 2069 1613 
L 2069 3678 
L 634 1613 
L 2069 1613 
z
" transform="scale(0.015625)"/>
       </defs>
       <use xlink:href="#ArialMT-31"/>
       <use xlink:href="#ArialMT-2e" x="55.615234"/>
       <use xlink:href="#ArialMT-34" x="83.398438"/>
       <use xlink:href="#ArialMT-30" x="139.013672"/>
      </g>
     </g>
    </g>
    <g id="xtick_7">
     <g id="text_7">
      <!-- 1.45 -->
      <g style="fill: #262626" transform="translate(823.964224 260.922969) scale(0.11 -0.11)">
       <use xlink:href="#ArialMT-31"/>
       <use xlink:href="#ArialMT-2e" x="55.615234"/>
       <use xlink:href="#ArialMT-34" x="83.398438"/>
       <use xlink:href="#ArialMT-35" x="139.013672"/>
      </g>
     </g>
    </g>
    <g id="text_8">
     <!-- Previous week unit price [USD] -->
     <g style="fill: #262626" transform="translate(385.865156 275.844844) scale(0.12 -0.12)">
      <defs>
       <path id="ArialMT-50" d="M 494 0 
L 494 4581 
L 2222 4581 
Q 2678 4581 2919 4538 
Q 3256 4481 3484 4323 
Q 3713 4166 3852 3881 
Q 3991 3597 3991 3256 
Q 3991 2672 3619 2267 
Q 3247 1863 2275 1863 
L 1100 1863 
L 1100 0 
L 494 0 
z
M 1100 2403 
L 2284 2403 
Q 2872 2403 3119 2622 
Q 3366 2841 3366 3238 
Q 3366 3525 3220 3729 
Q 3075 3934 2838 4000 
Q 2684 4041 2272 4041 
L 1100 4041 
L 1100 2403 
z
" transform="scale(0.015625)"/>
       <path id="ArialMT-72" d="M 416 0 
L 416 3319 
L 922 3319 
L 922 2816 
Q 1116 3169 1280 3281 
Q 1444 3394 1641 3394 
Q 1925 3394 2219 3213 
L 2025 2691 
Q 1819 2813 1613 2813 
Q 1428 2813 1281 2702 
Q 1134 2591 1072 2394 
Q 978 2094 978 1738 
L 978 0 
L 416 0 
z
" transform="scale(0.015625)"/>
       <path id="ArialMT-65" d="M 2694 1069 
L 3275 997 
Q 3138 488 2766 206 
Q 2394 -75 1816 -75 
Q 1088 -75 661 373 
Q 234 822 234 1631 
Q 234 2469 665 2931 
Q 1097 3394 1784 3394 
Q 2450 3394 2872 2941 
Q 3294 2488 3294 1666 
Q 3294 1616 3291 1516 
L 816 1516 
Q 847 969 1125 678 
Q 1403 388 1819 388 
Q 2128 388 2347 550 
Q 2566 713 2694 1069 
z
M 847 1978 
L 2700 1978 
Q 2663 2397 2488 2606 
Q 2219 2931 1791 2931 
Q 1403 2931 1139 2672 
Q 875 2413 847 1978 
z
" transform="scale(0.015625)"/>
       <path id="ArialMT-76" d="M 1344 0 
L 81 3319 
L 675 3319 
L 1388 1331 
Q 1503 1009 1600 663 
Q 1675 925 1809 1294 
L 2547 3319 
L 3125 3319 
L 1869 0 
L 1344 0 
z
" transform="scale(0.015625)"/>
       <path id="ArialMT-69" d="M 425 3934 
L 425 4581 
L 988 4581 
L 988 3934 
L 425 3934 
z
M 425 0 
L 425 3319 
L 988 3319 
L 988 0 
L 425 0 
z
" transform="scale(0.015625)"/>
       <path id="ArialMT-6f" d="M 213 1659 
Q 213 2581 725 3025 
Q 1153 3394 1769 3394 
Q 2453 3394 2887 2945 
Q 3322 2497 3322 1706 
Q 3322 1066 3130 698 
Q 2938 331 2570 128 
Q 2203 -75 1769 -75 
Q 1072 -75 642 372 
Q 213 819 213 1659 
z
M 791 1659 
Q 791 1022 1069 705 
Q 1347 388 1769 388 
Q 2188 388 2466 706 
Q 2744 1025 2744 1678 
Q 2744 2294 2464 2611 
Q 2184 2928 1769 2928 
Q 1347 2928 1069 2612 
Q 791 2297 791 1659 
z
" transform="scale(0.015625)"/>
       <path id="ArialMT-75" d="M 2597 0 
L 2597 488 
Q 2209 -75 1544 -75 
Q 1250 -75 995 37 
Q 741 150 617 320 
Q 494 491 444 738 
Q 409 903 409 1263 
L 409 3319 
L 972 3319 
L 972 1478 
Q 972 1038 1006 884 
Q 1059 663 1231 536 
Q 1403 409 1656 409 
Q 1909 409 2131 539 
Q 2353 669 2445 892 
Q 2538 1116 2538 1541 
L 2538 3319 
L 3100 3319 
L 3100 0 
L 2597 0 
z
" transform="scale(0.015625)"/>
       <path id="ArialMT-73" d="M 197 991 
L 753 1078 
Q 800 744 1014 566 
Q 1228 388 1613 388 
Q 2000 388 2187 545 
Q 2375 703 2375 916 
Q 2375 1106 2209 1216 
Q 2094 1291 1634 1406 
Q 1016 1563 777 1677 
Q 538 1791 414 1992 
Q 291 2194 291 2438 
Q 291 2659 392 2848 
Q 494 3038 669 3163 
Q 800 3259 1026 3326 
Q 1253 3394 1513 3394 
Q 1903 3394 2198 3281 
Q 2494 3169 2634 2976 
Q 2775 2784 2828 2463 
L 2278 2388 
Q 2241 2644 2061 2787 
Q 1881 2931 1553 2931 
Q 1166 2931 1000 2803 
Q 834 2675 834 2503 
Q 834 2394 903 2306 
Q 972 2216 1119 2156 
Q 1203 2125 1616 2013 
Q 2213 1853 2448 1751 
Q 2684 1650 2818 1456 
Q 2953 1263 2953 975 
Q 2953 694 2789 445 
Q 2625 197 2315 61 
Q 2006 -75 1616 -75 
Q 969 -75 630 194 
Q 291 463 197 991 
z
" transform="scale(0.015625)"/>
       <path id="ArialMT-20" transform="scale(0.015625)"/>
       <path id="ArialMT-77" d="M 1034 0 
L 19 3319 
L 600 3319 
L 1128 1403 
L 1325 691 
Q 1338 744 1497 1375 
L 2025 3319 
L 2603 3319 
L 3100 1394 
L 3266 759 
L 3456 1400 
L 4025 3319 
L 4572 3319 
L 3534 0 
L 2950 0 
L 2422 1988 
L 2294 2553 
L 1622 0 
L 1034 0 
z
" transform="scale(0.015625)"/>
       <path id="ArialMT-6b" d="M 425 0 
L 425 4581 
L 988 4581 
L 988 1969 
L 2319 3319 
L 3047 3319 
L 1778 2088 
L 3175 0 
L 2481 0 
L 1384 1697 
L 988 1316 
L 988 0 
L 425 0 
z
" transform="scale(0.015625)"/>
       <path id="ArialMT-6e" d="M 422 0 
L 422 3319 
L 928 3319 
L 928 2847 
Q 1294 3394 1984 3394 
Q 2284 3394 2536 3286 
Q 2788 3178 2913 3003 
Q 3038 2828 3088 2588 
Q 3119 2431 3119 2041 
L 3119 0 
L 2556 0 
L 2556 2019 
Q 2556 2363 2490 2533 
Q 2425 2703 2258 2804 
Q 2091 2906 1866 2906 
Q 1506 2906 1245 2678 
Q 984 2450 984 1813 
L 984 0 
L 422 0 
z
" transform="scale(0.015625)"/>
       <path id="ArialMT-74" d="M 1650 503 
L 1731 6 
Q 1494 -44 1306 -44 
Q 1000 -44 831 53 
Q 663 150 594 308 
Q 525 466 525 972 
L 525 2881 
L 113 2881 
L 113 3319 
L 525 3319 
L 525 4141 
L 1084 4478 
L 1084 3319 
L 1650 3319 
L 1650 2881 
L 1084 2881 
L 1084 941 
Q 1084 700 1114 631 
Q 1144 563 1211 522 
Q 1278 481 1403 481 
Q 1497 481 1650 503 
z
" transform="scale(0.015625)"/>
       <path id="ArialMT-70" d="M 422 -1272 
L 422 3319 
L 934 3319 
L 934 2888 
Q 1116 3141 1344 3267 
Q 1572 3394 1897 3394 
Q 2322 3394 2647 3175 
Q 2972 2956 3137 2557 
Q 3303 2159 3303 1684 
Q 3303 1175 3120 767 
Q 2938 359 2589 142 
Q 2241 -75 1856 -75 
Q 1575 -75 1351 44 
Q 1128 163 984 344 
L 984 -1272 
L 422 -1272 
z
M 931 1641 
Q 931 1000 1190 694 
Q 1450 388 1819 388 
Q 2194 388 2461 705 
Q 2728 1022 2728 1688 
Q 2728 2322 2467 2637 
Q 2206 2953 1844 2953 
Q 1484 2953 1207 2617 
Q 931 2281 931 1641 
z
" transform="scale(0.015625)"/>
       <path id="ArialMT-63" d="M 2588 1216 
L 3141 1144 
Q 3050 572 2676 248 
Q 2303 -75 1759 -75 
Q 1078 -75 664 370 
Q 250 816 250 1647 
Q 250 2184 428 2587 
Q 606 2991 970 3192 
Q 1334 3394 1763 3394 
Q 2303 3394 2647 3120 
Q 2991 2847 3088 2344 
L 2541 2259 
Q 2463 2594 2264 2762 
Q 2066 2931 1784 2931 
Q 1359 2931 1093 2626 
Q 828 2322 828 1663 
Q 828 994 1084 691 
Q 1341 388 1753 388 
Q 2084 388 2306 591 
Q 2528 794 2588 1216 
z
" transform="scale(0.015625)"/>
       <path id="ArialMT-5b" d="M 434 -1272 
L 434 4581 
L 1675 4581 
L 1675 4116 
L 997 4116 
L 997 -806 
L 1675 -806 
L 1675 -1272 
L 434 -1272 
z
" transform="scale(0.015625)"/>
       <path id="ArialMT-55" d="M 3500 4581 
L 4106 4581 
L 4106 1934 
Q 4106 1244 3950 837 
Q 3794 431 3386 176 
Q 2978 -78 2316 -78 
Q 1672 -78 1262 144 
Q 853 366 678 786 
Q 503 1206 503 1934 
L 503 4581 
L 1109 4581 
L 1109 1938 
Q 1109 1341 1220 1058 
Q 1331 775 1601 622 
Q 1872 469 2263 469 
Q 2931 469 3215 772 
Q 3500 1075 3500 1938 
L 3500 4581 
z
" transform="scale(0.015625)"/>
       <path id="ArialMT-53" d="M 288 1472 
L 859 1522 
Q 900 1178 1048 958 
Q 1197 738 1509 602 
Q 1822 466 2213 466 
Q 2559 466 2825 569 
Q 3091 672 3220 851 
Q 3350 1031 3350 1244 
Q 3350 1459 3225 1620 
Q 3100 1781 2813 1891 
Q 2628 1963 1997 2114 
Q 1366 2266 1113 2400 
Q 784 2572 623 2826 
Q 463 3081 463 3397 
Q 463 3744 659 4045 
Q 856 4347 1234 4503 
Q 1613 4659 2075 4659 
Q 2584 4659 2973 4495 
Q 3363 4331 3572 4012 
Q 3781 3694 3797 3291 
L 3216 3247 
Q 3169 3681 2898 3903 
Q 2628 4125 2100 4125 
Q 1550 4125 1298 3923 
Q 1047 3722 1047 3438 
Q 1047 3191 1225 3031 
Q 1400 2872 2139 2705 
Q 2878 2538 3153 2413 
Q 3553 2228 3743 1945 
Q 3934 1663 3934 1294 
Q 3934 928 3725 604 
Q 3516 281 3123 101 
Q 2731 -78 2241 -78 
Q 1619 -78 1198 103 
Q 778 284 539 648 
Q 300 1013 288 1472 
z
" transform="scale(0.015625)"/>
       <path id="ArialMT-44" d="M 494 0 
L 494 4581 
L 2072 4581 
Q 2606 4581 2888 4516 
Q 3281 4425 3559 4188 
Q 3922 3881 4101 3404 
Q 4281 2928 4281 2316 
Q 4281 1794 4159 1391 
Q 4038 988 3847 723 
Q 3656 459 3429 307 
Q 3203 156 2883 78 
Q 2563 0 2147 0 
L 494 0 
z
M 1100 541 
L 2078 541 
Q 2531 541 2789 625 
Q 3047 709 3200 863 
Q 3416 1078 3536 1442 
Q 3656 1806 3656 2325 
Q 3656 3044 3420 3430 
Q 3184 3816 2847 3947 
Q 2603 4041 2063 4041 
L 1100 4041 
L 1100 541 
z
" transform="scale(0.015625)"/>
       <path id="ArialMT-5d" d="M 1363 -1272 
L 122 -1272 
L 122 -806 
L 800 -806 
L 800 4116 
L 122 4116 
L 122 4581 
L 1363 4581 
L 1363 -1272 
z
" transform="scale(0.015625)"/>
      </defs>
      <use xlink:href="#ArialMT-50"/>
      <use xlink:href="#ArialMT-72" x="66.699219"/>
      <use xlink:href="#ArialMT-65" x="100"/>
      <use xlink:href="#ArialMT-76" x="155.615234"/>
      <use xlink:href="#ArialMT-69" x="205.615234"/>
      <use xlink:href="#ArialMT-6f" x="227.832031"/>
      <use xlink:href="#ArialMT-75" x="283.447266"/>
      <use xlink:href="#ArialMT-73" x="339.0625"/>
      <use xlink:href="#ArialMT-20" x="389.0625"/>
      <use xlink:href="#ArialMT-77" x="416.845703"/>
      <use xlink:href="#ArialMT-65" x="489.0625"/>
      <use xlink:href="#ArialMT-65" x="544.677734"/>
      <use xlink:href="#ArialMT-6b" x="600.292969"/>
      <use xlink:href="#ArialMT-20" x="650.292969"/>
      <use xlink:href="#ArialMT-75" x="678.076172"/>
      <use xlink:href="#ArialMT-6e" x="733.691406"/>
      <use xlink:href="#ArialMT-69" x="789.306641"/>
      <use xlink:href="#ArialMT-74" x="811.523438"/>
      <use xlink:href="#ArialMT-20" x="839.306641"/>
      <use xlink:href="#ArialMT-70" x="867.089844"/>
      <use xlink:href="#ArialMT-72" x="922.705078"/>
      <use xlink:href="#ArialMT-69" x="956.005859"/>
      <use xlink:href="#ArialMT-63" x="978.222656"/>
      <use xlink:href="#ArialMT-65" x="1028.222656"/>
      <use xlink:href="#ArialMT-20" x="1083.837891"/>
      <use xlink:href="#ArialMT-5b" x="1111.621094"/>
      <use xlink:href="#ArialMT-55" x="1139.404297"/>
      <use xlink:href="#ArialMT-53" x="1211.621094"/>
      <use xlink:href="#ArialMT-44" x="1278.320312"/>
      <use xlink:href="#ArialMT-5d" x="1350.537109"/>
     </g>
    </g>
   </g>
   <g id="matplotlib.axis_2">
    <g id="ytick_1">
     <g id="text_9">
      <!-- 60 -->
      <g style="fill: #262626" transform="translate(28.327031 241.178308) scale(0.11 -0.11)">
       <defs>
        <path id="ArialMT-36" d="M 3184 3459 
L 2625 3416 
Q 2550 3747 2413 3897 
Q 2184 4138 1850 4138 
Q 1581 4138 1378 3988 
Q 1113 3794 959 3422 
Q 806 3050 800 2363 
Q 1003 2672 1297 2822 
Q 1591 2972 1913 2972 
Q 2475 2972 2870 2558 
Q 3266 2144 3266 1488 
Q 3266 1056 3080 686 
Q 2894 316 2569 119 
Q 2244 -78 1831 -78 
Q 1128 -78 684 439 
Q 241 956 241 2144 
Q 241 3472 731 4075 
Q 1159 4600 1884 4600 
Q 2425 4600 2770 4297 
Q 3116 3994 3184 3459 
z
M 888 1484 
Q 888 1194 1011 928 
Q 1134 663 1356 523 
Q 1578 384 1822 384 
Q 2178 384 2434 671 
Q 2691 959 2691 1453 
Q 2691 1928 2437 2201 
Q 2184 2475 1800 2475 
Q 1419 2475 1153 2201 
Q 888 1928 888 1484 
z
" transform="scale(0.015625)"/>
       </defs>
       <use xlink:href="#ArialMT-36"/>
       <use xlink:href="#ArialMT-30" x="55.615234"/>
      </g>
     </g>
    </g>
    <g id="ytick_2">
     <g id="text_10">
      <!-- 70 -->
      <g style="fill: #262626" transform="translate(28.327031 215.663137) scale(0.11 -0.11)">
       <defs>
        <path id="ArialMT-37" d="M 303 3981 
L 303 4522 
L 3269 4522 
L 3269 4084 
Q 2831 3619 2401 2847 
Q 1972 2075 1738 1259 
Q 1569 684 1522 0 
L 944 0 
Q 953 541 1156 1306 
Q 1359 2072 1739 2783 
Q 2119 3494 2547 3981 
L 303 3981 
z
" transform="scale(0.015625)"/>
       </defs>
       <use xlink:href="#ArialMT-37"/>
       <use xlink:href="#ArialMT-30" x="55.615234"/>
      </g>
     </g>
    </g>
    <g id="ytick_3">
     <g id="text_11">
      <!-- 80 -->
      <g style="fill: #262626" transform="translate(28.327031 190.147965) scale(0.11 -0.11)">
       <defs>
        <path id="ArialMT-38" d="M 1131 2484 
Q 781 2613 612 2850 
Q 444 3088 444 3419 
Q 444 3919 803 4259 
Q 1163 4600 1759 4600 
Q 2359 4600 2725 4251 
Q 3091 3903 3091 3403 
Q 3091 3084 2923 2848 
Q 2756 2613 2416 2484 
Q 2838 2347 3058 2040 
Q 3278 1734 3278 1309 
Q 3278 722 2862 322 
Q 2447 -78 1769 -78 
Q 1091 -78 675 323 
Q 259 725 259 1325 
Q 259 1772 486 2073 
Q 713 2375 1131 2484 
z
M 1019 3438 
Q 1019 3113 1228 2906 
Q 1438 2700 1772 2700 
Q 2097 2700 2305 2904 
Q 2513 3109 2513 3406 
Q 2513 3716 2298 3927 
Q 2084 4138 1766 4138 
Q 1444 4138 1231 3931 
Q 1019 3725 1019 3438 
z
M 838 1322 
Q 838 1081 952 856 
Q 1066 631 1291 507 
Q 1516 384 1775 384 
Q 2178 384 2440 643 
Q 2703 903 2703 1303 
Q 2703 1709 2433 1975 
Q 2163 2241 1756 2241 
Q 1359 2241 1098 1978 
Q 838 1716 838 1322 
z
" transform="scale(0.015625)"/>
       </defs>
       <use xlink:href="#ArialMT-38"/>
       <use xlink:href="#ArialMT-30" x="55.615234"/>
      </g>
     </g>
    </g>
    <g id="ytick_4">
     <g id="text_12">
      <!-- 90 -->
      <g style="fill: #262626" transform="translate(28.327031 164.632793) scale(0.11 -0.11)">
       <defs>
        <path id="ArialMT-39" d="M 350 1059 
L 891 1109 
Q 959 728 1153 556 
Q 1347 384 1650 384 
Q 1909 384 2104 503 
Q 2300 622 2425 820 
Q 2550 1019 2634 1356 
Q 2719 1694 2719 2044 
Q 2719 2081 2716 2156 
Q 2547 1888 2255 1720 
Q 1963 1553 1622 1553 
Q 1053 1553 659 1965 
Q 266 2378 266 3053 
Q 266 3750 677 4175 
Q 1088 4600 1706 4600 
Q 2153 4600 2523 4359 
Q 2894 4119 3086 3673 
Q 3278 3228 3278 2384 
Q 3278 1506 3087 986 
Q 2897 466 2520 194 
Q 2144 -78 1638 -78 
Q 1100 -78 759 220 
Q 419 519 350 1059 
z
M 2653 3081 
Q 2653 3566 2395 3850 
Q 2138 4134 1775 4134 
Q 1400 4134 1122 3828 
Q 844 3522 844 3034 
Q 844 2597 1108 2323 
Q 1372 2050 1759 2050 
Q 2150 2050 2401 2323 
Q 2653 2597 2653 3081 
z
" transform="scale(0.015625)"/>
       </defs>
       <use xlink:href="#ArialMT-39"/>
       <use xlink:href="#ArialMT-30" x="55.615234"/>
      </g>
     </g>
    </g>
    <g id="ytick_5">
     <g id="text_13">
      <!-- 100 -->
      <g style="fill: #262626" transform="translate(22.21 139.117621) scale(0.11 -0.11)">
       <use xlink:href="#ArialMT-31"/>
       <use xlink:href="#ArialMT-30" x="55.615234"/>
       <use xlink:href="#ArialMT-30" x="111.230469"/>
      </g>
     </g>
    </g>
    <g id="ytick_6">
     <g id="text_14">
      <!-- 110 -->
      <g style="fill: #262626" transform="translate(23.02125 113.60245) scale(0.11 -0.11)">
       <use xlink:href="#ArialMT-31"/>
       <use xlink:href="#ArialMT-31" x="48.240234"/>
       <use xlink:href="#ArialMT-30" x="103.855469"/>
      </g>
     </g>
    </g>
    <g id="ytick_7">
     <g id="text_15">
      <!-- 120 -->
      <g style="fill: #262626" transform="translate(22.21 88.087278) scale(0.11 -0.11)">
       <use xlink:href="#ArialMT-31"/>
       <use xlink:href="#ArialMT-32" x="55.615234"/>
       <use xlink:href="#ArialMT-30" x="111.230469"/>
      </g>
     </g>
    </g>
    <g id="ytick_8">
     <g id="text_16">
      <!-- 130 -->
      <g style="fill: #262626" transform="translate(22.21 62.572106) scale(0.11 -0.11)">
       <use xlink:href="#ArialMT-31"/>
       <use xlink:href="#ArialMT-33" x="55.615234"/>
       <use xlink:href="#ArialMT-30" x="111.230469"/>
      </g>
     </g>
    </g>
    <g id="ytick_9">
     <g id="text_17">
      <!-- 140 -->
      <g style="fill: #262626" transform="translate(22.21 37.056935) scale(0.11 -0.11)">
       <use xlink:href="#ArialMT-31"/>
       <use xlink:href="#ArialMT-34" x="55.615234"/>
       <use xlink:href="#ArialMT-30" x="111.230469"/>
      </g>
     </g>
    </g>
    <g id="text_18">
     <!-- Demand [1e6 units] -->
     <g style="fill: #262626" transform="translate(15.825 184.696875) rotate(-90) scale(0.12 -0.12)">
      <defs>
       <path id="ArialMT-6d" d="M 422 0 
L 422 3319 
L 925 3319 
L 925 2853 
Q 1081 3097 1340 3245 
Q 1600 3394 1931 3394 
Q 2300 3394 2536 3241 
Q 2772 3088 2869 2813 
Q 3263 3394 3894 3394 
Q 4388 3394 4653 3120 
Q 4919 2847 4919 2278 
L 4919 0 
L 4359 0 
L 4359 2091 
Q 4359 2428 4304 2576 
Q 4250 2725 4106 2815 
Q 3963 2906 3769 2906 
Q 3419 2906 3187 2673 
Q 2956 2441 2956 1928 
L 2956 0 
L 2394 0 
L 2394 2156 
Q 2394 2531 2256 2718 
Q 2119 2906 1806 2906 
Q 1569 2906 1367 2781 
Q 1166 2656 1075 2415 
Q 984 2175 984 1722 
L 984 0 
L 422 0 
z
" transform="scale(0.015625)"/>
       <path id="ArialMT-61" d="M 2588 409 
Q 2275 144 1986 34 
Q 1697 -75 1366 -75 
Q 819 -75 525 192 
Q 231 459 231 875 
Q 231 1119 342 1320 
Q 453 1522 633 1644 
Q 813 1766 1038 1828 
Q 1203 1872 1538 1913 
Q 2219 1994 2541 2106 
Q 2544 2222 2544 2253 
Q 2544 2597 2384 2738 
Q 2169 2928 1744 2928 
Q 1347 2928 1158 2789 
Q 969 2650 878 2297 
L 328 2372 
Q 403 2725 575 2942 
Q 747 3159 1072 3276 
Q 1397 3394 1825 3394 
Q 2250 3394 2515 3294 
Q 2781 3194 2906 3042 
Q 3031 2891 3081 2659 
Q 3109 2516 3109 2141 
L 3109 1391 
Q 3109 606 3145 398 
Q 3181 191 3288 0 
L 2700 0 
Q 2613 175 2588 409 
z
M 2541 1666 
Q 2234 1541 1622 1453 
Q 1275 1403 1131 1340 
Q 988 1278 909 1158 
Q 831 1038 831 891 
Q 831 666 1001 516 
Q 1172 366 1500 366 
Q 1825 366 2078 508 
Q 2331 650 2450 897 
Q 2541 1088 2541 1459 
L 2541 1666 
z
" transform="scale(0.015625)"/>
       <path id="ArialMT-64" d="M 2575 0 
L 2575 419 
Q 2259 -75 1647 -75 
Q 1250 -75 917 144 
Q 584 363 401 755 
Q 219 1147 219 1656 
Q 219 2153 384 2558 
Q 550 2963 881 3178 
Q 1213 3394 1622 3394 
Q 1922 3394 2156 3267 
Q 2391 3141 2538 2938 
L 2538 4581 
L 3097 4581 
L 3097 0 
L 2575 0 
z
M 797 1656 
Q 797 1019 1065 703 
Q 1334 388 1700 388 
Q 2069 388 2326 689 
Q 2584 991 2584 1609 
Q 2584 2291 2321 2609 
Q 2059 2928 1675 2928 
Q 1300 2928 1048 2622 
Q 797 2316 797 1656 
z
" transform="scale(0.015625)"/>
      </defs>
      <use xlink:href="#ArialMT-44"/>
      <use xlink:href="#ArialMT-65" x="72.216797"/>
      <use xlink:href="#ArialMT-6d" x="127.832031"/>
      <use xlink:href="#ArialMT-61" x="211.132812"/>
      <use xlink:href="#ArialMT-6e" x="266.748047"/>
      <use xlink:href="#ArialMT-64" x="322.363281"/>
      <use xlink:href="#ArialMT-20" x="377.978516"/>
      <use xlink:href="#ArialMT-5b" x="405.761719"/>
      <use xlink:href="#ArialMT-31" x="433.544922"/>
      <use xlink:href="#ArialMT-65" x="489.160156"/>
      <use xlink:href="#ArialMT-36" x="544.775391"/>
      <use xlink:href="#ArialMT-20" x="600.390625"/>
      <use xlink:href="#ArialMT-75" x="628.173828"/>
      <use xlink:href="#ArialMT-6e" x="683.789062"/>
      <use xlink:href="#ArialMT-69" x="739.404297"/>
      <use xlink:href="#ArialMT-74" x="761.621094"/>
      <use xlink:href="#ArialMT-73" x="789.404297"/>
      <use xlink:href="#ArialMT-5d" x="839.404297"/>
     </g>
    </g>
   </g>
   <g id="PathCollection_1">
    <defs>
     <path id="m4b014043fc" d="M 0 3 
C 0.795609 3 1.55874 2.683901 2.12132 2.12132 
C 2.683901 1.55874 3 0.795609 3 0 
C 3 -0.795609 2.683901 -1.55874 2.12132 -2.12132 
C 1.55874 -2.683901 0.795609 -3 0 -3 
C -0.795609 -3 -1.55874 -2.683901 -2.12132 -2.12132 
C -2.683901 -1.55874 -3 -0.795609 -3 0 
C -3 0.795609 -2.683901 1.55874 -2.12132 2.12132 
C -1.55874 2.683901 -0.795609 3 0 3 
z
" style="stroke: #000000; stroke-opacity: 0.8"/>
    </defs>
    <g clip-path="url(#p4686691544)">
     <use xlink:href="#m4b014043fc" x="644.49927" y="162.138003" style="fill-opacity: 0.8; stroke: #000000; stroke-opacity: 0.8"/>
     <use xlink:href="#m4b014043fc" x="547.239329" y="182.940956" style="fill-opacity: 0.8; stroke: #000000; stroke-opacity: 0.8"/>
     <use xlink:href="#m4b014043fc" x="543.946368" y="187.035758" style="fill-opacity: 0.8; stroke: #000000; stroke-opacity: 0.8"/>
     <use xlink:href="#m4b014043fc" x="646.733779" y="167.466914" style="fill-opacity: 0.8; stroke: #000000; stroke-opacity: 0.8"/>
     <use xlink:href="#m4b014043fc" x="632.973908" y="184.059187" style="fill-opacity: 0.8; stroke: #000000; stroke-opacity: 0.8"/>
     <use xlink:href="#m4b014043fc" x="640.147858" y="174.10911" style="fill-opacity: 0.8; stroke: #000000; stroke-opacity: 0.8"/>
     <use xlink:href="#m4b014043fc" x="721.060602" y="169.854169" style="fill-opacity: 0.8; stroke: #000000; stroke-opacity: 0.8"/>
     <use xlink:href="#m4b014043fc" x="678.369721" y="162.797694" style="fill-opacity: 0.8; stroke: #000000; stroke-opacity: 0.8"/>
     <use xlink:href="#m4b014043fc" x="625.917564" y="176.47886" style="fill-opacity: 0.8; stroke: #000000; stroke-opacity: 0.8"/>
     <use xlink:href="#m4b014043fc" x="652.849277" y="105.093738" style="fill-opacity: 0.8; stroke: #000000; stroke-opacity: 0.8"/>
     <use xlink:href="#m4b014043fc" x="541.359042" y="138.054188" style="fill-opacity: 0.8; stroke: #000000; stroke-opacity: 0.8"/>
     <use xlink:href="#m4b014043fc" x="463.033624" y="169.940161" style="fill-opacity: 0.8; stroke: #000000; stroke-opacity: 0.8"/>
     <use xlink:href="#m4b014043fc" x="551.002712" y="147.055009" style="fill-opacity: 0.8; stroke: #000000; stroke-opacity: 0.8"/>
     <use xlink:href="#m4b014043fc" x="623.330238" y="157.136316" style="fill-opacity: 0.8; stroke: #000000; stroke-opacity: 0.8"/>
     <use xlink:href="#m4b014043fc" x="660.49365" y="139.114548" style="fill-opacity: 0.8; stroke: #000000; stroke-opacity: 0.8"/>
     <use xlink:href="#m4b014043fc" x="661.081678" y="135.809303" style="fill-opacity: 0.8; stroke: #000000; stroke-opacity: 0.8"/>
     <use xlink:href="#m4b014043fc" x="684.014796" y="144.513948" style="fill-opacity: 0.8; stroke: #000000; stroke-opacity: 0.8"/>
     <use xlink:href="#m4b014043fc" x="718.943699" y="167.654875" style="fill-opacity: 0.8; stroke: #000000; stroke-opacity: 0.8"/>
     <use xlink:href="#m4b014043fc" x="726.588071" y="129.830361" style="fill-opacity: 0.8; stroke: #000000; stroke-opacity: 0.8"/>
     <use xlink:href="#m4b014043fc" x="733.409204" y="173.050579" style="fill-opacity: 0.8; stroke: #000000; stroke-opacity: 0.8"/>
     <use xlink:href="#m4b014043fc" x="745.052171" y="168.001978" style="fill-opacity: 0.8; stroke: #000000; stroke-opacity: 0.8"/>
     <use xlink:href="#m4b014043fc" x="711.652143" y="180.316296" style="fill-opacity: 0.8; stroke: #000000; stroke-opacity: 0.8"/>
     <use xlink:href="#m4b014043fc" x="718.238064" y="181.314981" style="fill-opacity: 0.8; stroke: #000000; stroke-opacity: 0.8"/>
     <use xlink:href="#m4b014043fc" x="832.315625" y="160.536118" style="fill-opacity: 0.8; stroke: #000000; stroke-opacity: 0.8"/>
     <use xlink:href="#m4b014043fc" x="845.605073" y="170.193286" style="fill-opacity: 0.8; stroke: #000000; stroke-opacity: 0.8"/>
     <use xlink:href="#m4b014043fc" x="810.67617" y="185.403674" style="fill-opacity: 0.8; stroke: #000000; stroke-opacity: 0.8"/>
     <use xlink:href="#m4b014043fc" x="827.49379" y="184.504305" style="fill-opacity: 0.8; stroke: #000000; stroke-opacity: 0.8"/>
     <use xlink:href="#m4b014043fc" x="788.91911" y="159.977454" style="fill-opacity: 0.8; stroke: #000000; stroke-opacity: 0.8"/>
     <use xlink:href="#m4b014043fc" x="775.982479" y="175.228453" style="fill-opacity: 0.8; stroke: #000000; stroke-opacity: 0.8"/>
     <use xlink:href="#m4b014043fc" x="831.609991" y="186.925831" style="fill-opacity: 0.8; stroke: #000000; stroke-opacity: 0.8"/>
     <use xlink:href="#m4b014043fc" x="849.015639" y="199.190922" style="fill-opacity: 0.8; stroke: #000000; stroke-opacity: 0.8"/>
     <use xlink:href="#m4b014043fc" x="833.374077" y="195.643034" style="fill-opacity: 0.8; stroke: #000000; stroke-opacity: 0.8"/>
     <use xlink:href="#m4b014043fc" x="796.681088" y="189.406309" style="fill-opacity: 0.8; stroke: #000000; stroke-opacity: 0.8"/>
     <use xlink:href="#m4b014043fc" x="698.127484" y="186.617544" style="fill-opacity: 0.8; stroke: #000000; stroke-opacity: 0.8"/>
     <use xlink:href="#m4b014043fc" x="664.021822" y="209.470282" style="fill-opacity: 0.8; stroke: #000000; stroke-opacity: 0.8"/>
     <use xlink:href="#m4b014043fc" x="676.370424" y="174.347503" style="fill-opacity: 0.8; stroke: #000000; stroke-opacity: 0.8"/>
     <use xlink:href="#m4b014043fc" x="565.350612" y="192.709677" style="fill-opacity: 0.8; stroke: #000000; stroke-opacity: 0.8"/>
     <use xlink:href="#m4b014043fc" x="503.489996" y="192.407528" style="fill-opacity: 0.8; stroke: #000000; stroke-opacity: 0.8"/>
     <use xlink:href="#m4b014043fc" x="548.062569" y="216.096029" style="fill-opacity: 0.8; stroke: #000000; stroke-opacity: 0.8"/>
     <use xlink:href="#m4b014043fc" x="543.711157" y="233.469375" style="fill-opacity: 0.8; stroke: #000000; stroke-opacity: 0.8"/>
     <use xlink:href="#m4b014043fc" x="547.356935" y="191.195329" style="fill-opacity: 0.8; stroke: #000000; stroke-opacity: 0.8"/>
     <use xlink:href="#m4b014043fc" x="494.306857" y="196.064032" style="fill-opacity: 0.8; stroke: #000000; stroke-opacity: 0.8"/>
     <use xlink:href="#m4b014043fc" x="424.449052" y="216.742853" style="fill-opacity: 0.8; stroke: #000000; stroke-opacity: 0.8"/>
     <use xlink:href="#m4b014043fc" x="495.845624" y="202.012704" style="fill-opacity: 0.8; stroke: #000000; stroke-opacity: 0.8"/>
     <use xlink:href="#m4b014043fc" x="509.252677" y="127.838192" style="fill-opacity: 0.8; stroke: #000000; stroke-opacity: 0.8"/>
     <use xlink:href="#m4b014043fc" x="332.726472" y="146.098729" style="fill-opacity: 0.8; stroke: #000000; stroke-opacity: 0.8"/>
     <use xlink:href="#m4b014043fc" x="242.875693" y="152.552474" style="fill-opacity: 0.8; stroke: #000000; stroke-opacity: 0.8"/>
     <use xlink:href="#m4b014043fc" x="325.787734" y="161.703988" style="fill-opacity: 0.8; stroke: #000000; stroke-opacity: 0.8"/>
     <use xlink:href="#m4b014043fc" x="344.251834" y="150.463352" style="fill-opacity: 0.8; stroke: #000000; stroke-opacity: 0.8"/>
     <use xlink:href="#m4b014043fc" x="320.495476" y="31.869375" style="fill-opacity: 0.8; stroke: #000000; stroke-opacity: 0.8"/>
     <use xlink:href="#m4b014043fc" x="233.702445" y="137.493986" style="fill-opacity: 0.8; stroke: #000000; stroke-opacity: 0.8"/>
     <use xlink:href="#m4b014043fc" x="207.476367" y="163.141112" style="fill-opacity: 0.8; stroke: #000000; stroke-opacity: 0.8"/>
     <use xlink:href="#m4b014043fc" x="338.01873" y="135.12857" style="fill-opacity: 0.8; stroke: #000000; stroke-opacity: 0.8"/>
     <use xlink:href="#m4b014043fc" x="380.239188" y="146.527884" style="fill-opacity: 0.8; stroke: #000000; stroke-opacity: 0.8"/>
     <use xlink:href="#m4b014043fc" x="355.189167" y="137.792517" style="fill-opacity: 0.8; stroke: #000000; stroke-opacity: 0.8"/>
     <use xlink:href="#m4b014043fc" x="268.160925" y="137.633706" style="fill-opacity: 0.8; stroke: #000000; stroke-opacity: 0.8"/>
     <use xlink:href="#m4b014043fc" x="192.893256" y="141.190882" style="fill-opacity: 0.8; stroke: #000000; stroke-opacity: 0.8"/>
     <use xlink:href="#m4b014043fc" x="254.048237" y="156.615818" style="fill-opacity: 0.8; stroke: #000000; stroke-opacity: 0.8"/>
     <use xlink:href="#m4b014043fc" x="301.91377" y="135.134232" style="fill-opacity: 0.8; stroke: #000000; stroke-opacity: 0.8"/>
     <use xlink:href="#m4b014043fc" x="211.23975" y="131.388129" style="fill-opacity: 0.8; stroke: #000000; stroke-opacity: 0.8"/>
     <use xlink:href="#m4b014043fc" x="193.363679" y="112.908822" style="fill-opacity: 0.8; stroke: #000000; stroke-opacity: 0.8"/>
     <use xlink:href="#m4b014043fc" x="213.474259" y="91.083205" style="fill-opacity: 0.8; stroke: #000000; stroke-opacity: 0.8"/>
     <use xlink:href="#m4b014043fc" x="140.323494" y="68.573271" style="fill-opacity: 0.8; stroke: #000000; stroke-opacity: 0.8"/>
     <use xlink:href="#m4b014043fc" x="88.106548" y="113.968986" style="fill-opacity: 0.8; stroke: #000000; stroke-opacity: 0.8"/>
     <use xlink:href="#m4b014043fc" x="154.318576" y="133.571478" style="fill-opacity: 0.8; stroke: #000000; stroke-opacity: 0.8"/>
    </g>
   </g>
   <g id="PolyCollection_1">
    <defs>
     <path id="mc763ce2b04" d="M 88.106548 -161.85268 
L 88.106548 -161.85268 
L 95.792499 -161.207595 
L 103.478449 -160.574675 
L 111.1644 -159.945253 
L 118.85035 -159.292503 
L 126.5363 -158.646942 
L 134.222251 -158.01883 
L 141.908201 -157.374919 
L 149.594152 -156.748581 
L 157.280102 -156.121003 
L 164.966052 -155.45785 
L 172.652003 -154.818351 
L 180.337953 -154.138721 
L 188.023904 -153.527454 
L 195.709854 -152.871214 
L 203.395804 -152.275007 
L 211.081755 -151.643256 
L 218.767705 -151.026063 
L 226.453656 -150.386092 
L 234.139606 -149.783524 
L 241.825557 -149.124065 
L 249.511507 -148.443645 
L 257.197457 -147.802692 
L 264.883408 -147.194831 
L 272.569358 -146.565082 
L 280.255309 -145.917811 
L 287.941259 -145.30845 
L 295.627209 -144.689721 
L 303.31316 -144.052323 
L 310.99911 -143.41016 
L 318.685061 -142.782493 
L 326.371011 -142.121303 
L 334.056962 -141.472043 
L 341.742912 -140.85101 
L 349.428862 -140.198501 
L 357.114813 -139.536075 
L 364.800763 -138.902373 
L 372.486714 -138.265496 
L 380.172664 -137.614763 
L 387.858614 -136.947271 
L 395.544565 -136.327735 
L 403.230515 -135.676356 
L 410.916466 -135.046362 
L 418.602416 -134.403291 
L 426.288366 -133.775605 
L 433.974317 -133.13252 
L 441.660267 -132.528536 
L 449.346218 -131.885091 
L 457.032168 -131.271772 
L 464.718119 -130.602562 
L 472.404069 -129.949262 
L 480.090019 -129.309758 
L 487.77597 -128.704686 
L 495.46192 -128.123276 
L 503.147871 -127.461586 
L 510.833821 -126.828654 
L 518.519771 -126.179993 
L 526.205722 -125.567497 
L 533.891672 -124.940506 
L 541.577623 -124.336454 
L 549.263573 -123.693465 
L 556.949524 -123.053143 
L 564.635474 -122.379472 
L 572.321424 -121.720902 
L 580.007375 -121.091198 
L 587.693325 -120.415794 
L 595.379276 -119.733511 
L 603.065226 -119.081808 
L 610.751176 -118.421082 
L 618.437127 -117.807072 
L 626.123077 -117.164303 
L 633.809028 -116.537468 
L 641.494978 -115.882647 
L 649.180928 -115.231243 
L 656.866879 -114.586347 
L 664.552829 -113.910803 
L 672.23878 -113.310739 
L 679.92473 -112.673722 
L 687.610681 -112.029376 
L 695.296631 -111.416489 
L 702.982581 -110.741469 
L 710.668532 -110.121431 
L 718.354482 -109.511545 
L 726.040433 -108.896222 
L 733.726383 -108.268414 
L 741.412333 -107.642592 
L 749.098284 -107.043069 
L 756.784234 -106.421409 
L 764.470185 -105.773838 
L 772.156135 -105.132195 
L 779.842085 -104.468828 
L 787.528036 -103.811677 
L 795.213986 -103.19695 
L 802.899937 -102.565312 
L 810.585887 -101.952512 
L 818.271838 -101.313543 
L 825.957788 -100.698299 
L 833.643738 -100.054218 
L 841.329689 -99.416339 
L 849.015639 -98.790096 
L 849.015639 -98.790096 
L 849.015639 -98.790096 
L 841.329689 -99.416339 
L 833.643738 -100.054218 
L 825.957788 -100.698299 
L 818.271838 -101.313543 
L 810.585887 -101.952512 
L 802.899937 -102.565312 
L 795.213986 -103.19695 
L 787.528036 -103.811677 
L 779.842085 -104.468828 
L 772.156135 -105.132195 
L 764.470185 -105.773838 
L 756.784234 -106.421409 
L 749.098284 -107.043069 
L 741.412333 -107.642592 
L 733.726383 -108.268414 
L 726.040433 -108.896222 
L 718.354482 -109.511545 
L 710.668532 -110.121431 
L 702.982581 -110.741469 
L 695.296631 -111.416489 
L 687.610681 -112.029376 
L 679.92473 -112.673722 
L 672.23878 -113.310739 
L 664.552829 -113.910803 
L 656.866879 -114.586347 
L 649.180928 -115.231243 
L 641.494978 -115.882647 
L 633.809028 -116.537468 
L 626.123077 -117.164303 
L 618.437127 -117.807072 
L 610.751176 -118.421082 
L 603.065226 -119.081808 
L 595.379276 -119.733511 
L 587.693325 -120.415794 
L 580.007375 -121.091198 
L 572.321424 -121.720902 
L 564.635474 -122.379472 
L 556.949524 -123.053143 
L 549.263573 -123.693465 
L 541.577623 -124.336454 
L 533.891672 -124.940506 
L 526.205722 -125.567497 
L 518.519771 -126.179993 
L 510.833821 -126.828654 
L 503.147871 -127.461586 
L 495.46192 -128.123276 
L 487.77597 -128.704686 
L 480.090019 -129.309758 
L 472.404069 -129.949262 
L 464.718119 -130.602562 
L 457.032168 -131.271772 
L 449.346218 -131.885091 
L 441.660267 -132.528536 
L 433.974317 -133.13252 
L 426.288366 -133.775605 
L 418.602416 -134.403291 
L 410.916466 -135.046362 
L 403.230515 -135.676356 
L 395.544565 -136.327735 
L 387.858614 -136.947271 
L 380.172664 -137.614763 
L 372.486714 -138.265496 
L 364.800763 -138.902373 
L 357.114813 -139.536075 
L 349.428862 -140.198501 
L 341.742912 -140.85101 
L 334.056962 -141.472043 
L 326.371011 -142.121303 
L 318.685061 -142.782493 
L 310.99911 -143.41016 
L 303.31316 -144.052323 
L 295.627209 -144.689721 
L 287.941259 -145.30845 
L 280.255309 -145.917811 
L 272.569358 -146.565082 
L 264.883408 -147.194831 
L 257.197457 -147.802692 
L 249.511507 -148.443645 
L 241.825557 -149.124065 
L 234.139606 -149.783524 
L 226.453656 -150.386092 
L 218.767705 -151.026063 
L 211.081755 -151.643256 
L 203.395804 -152.275007 
L 195.709854 -152.871214 
L 188.023904 -153.527454 
L 180.337953 -154.138721 
L 172.652003 -154.818351 
L 164.966052 -155.45785 
L 157.280102 -156.121003 
L 149.594152 -156.748581 
L 141.908201 -157.374919 
L 134.222251 -158.01883 
L 126.5363 -158.646942 
L 118.85035 -159.292503 
L 111.1644 -159.945253 
L 103.478449 -160.574675 
L 95.792499 -161.207595 
L 88.106548 -161.85268 
z
" style="stroke: #ffffff; stroke-opacity: 0.15"/>
    </defs>
    <g clip-path="url(#p4686691544)">
     <use xlink:href="#mc763ce2b04" x="0" y="285.429844" style="fill: #ff0000; fill-opacity: 0.15; stroke: #ffffff; stroke-opacity: 0.15"/>
    </g>
   </g>
   <g id="line2d_1">
    <path d="M 88.106548 123.086537 
L 95.792499 123.729276 
L 103.478449 124.372015 
L 111.1644 125.014754 
L 118.85035 125.657492 
L 126.5363 126.300231 
L 134.222251 126.94297 
L 141.908201 127.585708 
L 149.594152 128.228447 
L 157.280102 128.871186 
L 164.966052 129.513925 
L 172.652003 130.156663 
L 180.337953 130.799402 
L 188.023904 131.442141 
L 195.709854 132.084879 
L 203.395804 132.727618 
L 211.081755 133.370357 
L 218.767705 134.013096 
L 226.453656 134.655834 
L 234.139606 135.298573 
L 241.825557 135.941312 
L 249.511507 136.584051 
L 257.197457 137.226789 
L 264.883408 137.869528 
L 272.569358 138.512267 
L 280.255309 139.155005 
L 287.941259 139.797744 
L 295.627209 140.440483 
L 303.31316 141.083222 
L 310.99911 141.72596 
L 318.685061 142.368699 
L 326.371011 143.011438 
L 334.056962 143.654176 
L 341.742912 144.296915 
L 349.428862 144.939654 
L 357.114813 145.582393 
L 364.800763 146.225131 
L 372.486714 146.86787 
L 380.172664 147.510609 
L 387.858614 148.153347 
L 395.544565 148.796086 
L 403.230515 149.438825 
L 410.916466 150.081564 
L 418.602416 150.724302 
L 426.288366 151.367041 
L 433.974317 152.00978 
L 441.660267 152.652519 
L 449.346218 153.295257 
L 457.032168 153.937996 
L 464.718119 154.580735 
L 472.404069 155.223473 
L 480.090019 155.866212 
L 487.77597 156.508951 
L 495.46192 157.15169 
L 503.147871 157.794428 
L 510.833821 158.437167 
L 518.519771 159.079906 
L 526.205722 159.722644 
L 533.891672 160.365383 
L 541.577623 161.008122 
L 549.263573 161.650861 
L 556.949524 162.293599 
L 564.635474 162.936338 
L 572.321424 163.579077 
L 580.007375 164.221815 
L 587.693325 164.864554 
L 595.379276 165.507293 
L 603.065226 166.150032 
L 610.751176 166.79277 
L 618.437127 167.435509 
L 626.123077 168.078248 
L 633.809028 168.720986 
L 641.494978 169.363725 
L 649.180928 170.006464 
L 656.866879 170.649203 
L 664.552829 171.291941 
L 672.23878 171.93468 
L 679.92473 172.577419 
L 687.610681 173.220158 
L 695.296631 173.862896 
L 702.982581 174.505635 
L 710.668532 175.148374 
L 718.354482 175.791112 
L 726.040433 176.433851 
L 733.726383 177.07659 
L 741.412333 177.719329 
L 749.098284 178.362067 
L 756.784234 179.004806 
L 764.470185 179.647545 
L 772.156135 180.290283 
L 779.842085 180.933022 
L 787.528036 181.575761 
L 795.213986 182.2185 
L 802.899937 182.861238 
L 810.585887 183.503977 
L 818.271838 184.146716 
L 825.957788 184.789454 
L 833.643738 185.432193 
L 841.329689 186.074932 
L 849.015639 186.717671 
" clip-path="url(#p4686691544)" style="fill: none; stroke-dasharray: 8.325,3.6; stroke-dashoffset: 0; stroke: #ff0000; stroke-width: 2.25"/>
   </g>
   <g id="patch_3">
    <path d="M 50.061094 243.549375 
L 50.061094 21.789375 
" style="fill: none; stroke: #262626; stroke-width: 1.25; stroke-linejoin: miter; stroke-linecap: square"/>
   </g>
   <g id="patch_4">
    <path d="M 887.061094 243.549375 
L 887.061094 21.789375 
" style="fill: none; stroke: #262626; stroke-width: 1.25; stroke-linejoin: miter; stroke-linecap: square"/>
   </g>
   <g id="patch_5">
    <path d="M 50.061094 243.549375 
L 887.061094 243.549375 
" style="fill: none; stroke: #262626; stroke-width: 1.25; stroke-linejoin: miter; stroke-linecap: square"/>
   </g>
   <g id="patch_6">
    <path d="M 50.061094 21.789375 
L 887.061094 21.789375 
" style="fill: none; stroke: #262626; stroke-width: 1.25; stroke-linejoin: miter; stroke-linecap: square"/>
   </g>
   <g id="text_19">
    <!-- Weekly avocados demand with respect price -->
    <g style="fill: #262626" transform="translate(349.950469 15.789375) scale(0.12 -0.12)">
     <defs>
      <path id="ArialMT-57" d="M 1294 0 
L 78 4581 
L 700 4581 
L 1397 1578 
Q 1509 1106 1591 641 
Q 1766 1375 1797 1488 
L 2669 4581 
L 3400 4581 
L 4056 2263 
Q 4303 1400 4413 641 
Q 4500 1075 4641 1638 
L 5359 4581 
L 5969 4581 
L 4713 0 
L 4128 0 
L 3163 3491 
Q 3041 3928 3019 4028 
Q 2947 3713 2884 3491 
L 1913 0 
L 1294 0 
z
" transform="scale(0.015625)"/>
      <path id="ArialMT-6c" d="M 409 0 
L 409 4581 
L 972 4581 
L 972 0 
L 409 0 
z
" transform="scale(0.015625)"/>
      <path id="ArialMT-79" d="M 397 -1278 
L 334 -750 
Q 519 -800 656 -800 
Q 844 -800 956 -737 
Q 1069 -675 1141 -563 
Q 1194 -478 1313 -144 
Q 1328 -97 1363 -6 
L 103 3319 
L 709 3319 
L 1400 1397 
Q 1534 1031 1641 628 
Q 1738 1016 1872 1384 
L 2581 3319 
L 3144 3319 
L 1881 -56 
Q 1678 -603 1566 -809 
Q 1416 -1088 1222 -1217 
Q 1028 -1347 759 -1347 
Q 597 -1347 397 -1278 
z
" transform="scale(0.015625)"/>
      <path id="ArialMT-68" d="M 422 0 
L 422 4581 
L 984 4581 
L 984 2938 
Q 1378 3394 1978 3394 
Q 2347 3394 2619 3248 
Q 2891 3103 3008 2847 
Q 3125 2591 3125 2103 
L 3125 0 
L 2563 0 
L 2563 2103 
Q 2563 2525 2380 2717 
Q 2197 2909 1863 2909 
Q 1613 2909 1392 2779 
Q 1172 2650 1078 2428 
Q 984 2206 984 1816 
L 984 0 
L 422 0 
z
" transform="scale(0.015625)"/>
     </defs>
     <use xlink:href="#ArialMT-57"/>
     <use xlink:href="#ArialMT-65" x="92.634766"/>
     <use xlink:href="#ArialMT-65" x="148.25"/>
     <use xlink:href="#ArialMT-6b" x="203.865234"/>
     <use xlink:href="#ArialMT-6c" x="253.865234"/>
     <use xlink:href="#ArialMT-79" x="276.082031"/>
     <use xlink:href="#ArialMT-20" x="326.082031"/>
     <use xlink:href="#ArialMT-61" x="353.865234"/>
     <use xlink:href="#ArialMT-76" x="409.480469"/>
     <use xlink:href="#ArialMT-6f" x="459.480469"/>
     <use xlink:href="#ArialMT-63" x="515.095703"/>
     <use xlink:href="#ArialMT-61" x="565.095703"/>
     <use xlink:href="#ArialMT-64" x="620.710938"/>
     <use xlink:href="#ArialMT-6f" x="676.326172"/>
     <use xlink:href="#ArialMT-73" x="731.941406"/>
     <use xlink:href="#ArialMT-20" x="781.941406"/>
     <use xlink:href="#ArialMT-64" x="809.724609"/>
     <use xlink:href="#ArialMT-65" x="865.339844"/>
     <use xlink:href="#ArialMT-6d" x="920.955078"/>
     <use xlink:href="#ArialMT-61" x="1004.255859"/>
     <use xlink:href="#ArialMT-6e" x="1059.871094"/>
     <use xlink:href="#ArialMT-64" x="1115.486328"/>
     <use xlink:href="#ArialMT-20" x="1171.101562"/>
     <use xlink:href="#ArialMT-77" x="1198.884766"/>
     <use xlink:href="#ArialMT-69" x="1271.101562"/>
     <use xlink:href="#ArialMT-74" x="1293.318359"/>
     <use xlink:href="#ArialMT-68" x="1321.101562"/>
     <use xlink:href="#ArialMT-20" x="1376.716797"/>
     <use xlink:href="#ArialMT-72" x="1404.5"/>
     <use xlink:href="#ArialMT-65" x="1437.800781"/>
     <use xlink:href="#ArialMT-73" x="1493.416016"/>
     <use xlink:href="#ArialMT-70" x="1543.416016"/>
     <use xlink:href="#ArialMT-65" x="1599.03125"/>
     <use xlink:href="#ArialMT-63" x="1654.646484"/>
     <use xlink:href="#ArialMT-74" x="1704.646484"/>
     <use xlink:href="#ArialMT-20" x="1732.429688"/>
     <use xlink:href="#ArialMT-70" x="1760.212891"/>
     <use xlink:href="#ArialMT-72" x="1815.828125"/>
     <use xlink:href="#ArialMT-69" x="1849.128906"/>
     <use xlink:href="#ArialMT-63" x="1871.345703"/>
     <use xlink:href="#ArialMT-65" x="1921.345703"/>
    </g>
   </g>
  </g>
 </g>
 <defs>
  <clipPath id="p4686691544">
   <rect x="50.061094" y="21.789375" width="837" height="221.76"/>
  </clipPath>
 </defs>
</svg>
