<?xml version="1.0" encoding="utf-8" standalone="no"?>
<!DOCTYPE svg PUBLIC "-//W3C//DTD SVG 1.1//EN"
  "http://www.w3.org/Graphics/SVG/1.1/DTD/svg11.dtd">
<svg xmlns:xlink="http://www.w3.org/1999/xlink" width="891.2pt" height="229.989844pt" viewBox="0 0 891.2 229.989844" xmlns="http://www.w3.org/2000/svg" version="1.1">
 <metadata>
  <rdf:RDF xmlns:dc="http://purl.org/dc/elements/1.1/" xmlns:cc="http://creativecommons.org/ns#" xmlns:rdf="http://www.w3.org/1999/02/22-rdf-syntax-ns#">
   <cc:Work>
    <dc:type rdf:resource="http://purl.org/dc/dcmitype/StillImage"/>
    <dc:date>2023-08-13T03:39:06.941273</dc:date>
    <dc:format>image/svg+xml</dc:format>
    <dc:creator>
     <cc:Agent>
      <dc:title>Matplotlib v3.7.1, https://matplotlib.org/</dc:title>
     </cc:Agent>
    </dc:creator>
   </cc:Work>
  </rdf:RDF>
 </metadata>
 <defs>
  <style type="text/css">*{stroke-linejoin: round; stroke-linecap: butt}</style>
 </defs>
 <g id="figure_1">
  <g id="patch_1">
   <path d="M 0 229.989844 
L 891.2 229.989844 
L 891.2 0 
L 0 0 
z
" style="fill: #ffffff"/>
  </g>
  <g id="axes_1">
   <g id="patch_2">
    <path d="M 47 188.255625 
L 884 188.255625 
L 884 21.935625 
L 47 21.935625 
z
" style="fill: #ffffff"/>
   </g>
   <g id="patch_3">
    <path d="M 47 188.255625 
L 47 21.935625 
L 137.70936 21.935625 
L 137.70936 188.255625 
z
" clip-path="url(#p1776a3d3a2)" style="fill: #44af69; opacity: 0.25; stroke: #44af69; stroke-linejoin: miter"/>
   </g>
   <g id="patch_4">
    <path d="M 137.70936 188.255625 
L 137.70936 21.935625 
L 155.576355 21.935625 
L 155.576355 188.255625 
z
" clip-path="url(#p1776a3d3a2)" style="fill: #f2dc5d; opacity: 0.125; stroke: #f2dc5d; stroke-linejoin: miter"/>
   </g>
   <g id="matplotlib.axis_1">
    <g id="xtick_1"/>
    <g id="xtick_2">
     <g id="text_1">
      <!-- 2012 -->
      <g style="fill: #262626" transform="translate(89.741307 205.629219) scale(0.11 -0.11)">
       <defs>
        <path id="ArialMT-32" d="M 3222 541 
L 3222 0 
L 194 0 
Q 188 203 259 391 
Q 375 700 629 1000 
Q 884 1300 1366 1694 
Q 2113 2306 2375 2664 
Q 2638 3022 2638 3341 
Q 2638 3675 2398 3904 
Q 2159 4134 1775 4134 
Q 1369 4134 1125 3890 
Q 881 3647 878 3216 
L 300 3275 
Q 359 3922 746 4261 
Q 1134 4600 1788 4600 
Q 2447 4600 2831 4234 
Q 3216 3869 3216 3328 
Q 3216 3053 3103 2787 
Q 2991 2522 2730 2228 
Q 2469 1934 1863 1422 
Q 1356 997 1212 845 
Q 1069 694 975 541 
L 3222 541 
z
" transform="scale(0.015625)"/>
        <path id="ArialMT-30" d="M 266 2259 
Q 266 3072 433 3567 
Q 600 4063 929 4331 
Q 1259 4600 1759 4600 
Q 2128 4600 2406 4451 
Q 2684 4303 2865 4023 
Q 3047 3744 3150 3342 
Q 3253 2941 3253 2259 
Q 3253 1453 3087 958 
Q 2922 463 2592 192 
Q 2263 -78 1759 -78 
Q 1097 -78 719 397 
Q 266 969 266 2259 
z
M 844 2259 
Q 844 1131 1108 757 
Q 1372 384 1759 384 
Q 2147 384 2411 759 
Q 2675 1134 2675 2259 
Q 2675 3391 2411 3762 
Q 2147 4134 1753 4134 
Q 1366 4134 1134 3806 
Q 844 3388 844 2259 
z
" transform="scale(0.015625)"/>
        <path id="ArialMT-31" d="M 2384 0 
L 1822 0 
L 1822 3584 
Q 1619 3391 1289 3197 
Q 959 3003 697 2906 
L 697 3450 
Q 1169 3672 1522 3987 
Q 1875 4303 2022 4600 
L 2384 4600 
L 2384 0 
z
" transform="scale(0.015625)"/>
       </defs>
       <use xlink:href="#ArialMT-32"/>
       <use xlink:href="#ArialMT-30" x="55.615234"/>
       <use xlink:href="#ArialMT-31" x="111.230469"/>
       <use xlink:href="#ArialMT-32" x="166.845703"/>
      </g>
     </g>
    </g>
    <g id="xtick_3">
     <g id="text_2">
      <!-- 2014 -->
      <g style="fill: #262626" transform="translate(234.051652 205.629219) scale(0.11 -0.11)">
       <defs>
        <path id="ArialMT-34" d="M 2069 0 
L 2069 1097 
L 81 1097 
L 81 1613 
L 2172 4581 
L 2631 4581 
L 2631 1613 
L 3250 1613 
L 3250 1097 
L 2631 1097 
L 2631 0 
L 2069 0 
z
M 2069 1613 
L 2069 3678 
L 634 1613 
L 2069 1613 
z
" transform="scale(0.015625)"/>
       </defs>
       <use xlink:href="#ArialMT-32"/>
       <use xlink:href="#ArialMT-30" x="55.615234"/>
       <use xlink:href="#ArialMT-31" x="111.230469"/>
       <use xlink:href="#ArialMT-34" x="166.845703"/>
      </g>
     </g>
    </g>
    <g id="xtick_4">
     <g id="text_3">
      <!-- 2016 -->
      <g style="fill: #262626" transform="translate(376.987612 205.629219) scale(0.11 -0.11)">
       <defs>
        <path id="ArialMT-36" d="M 3184 3459 
L 2625 3416 
Q 2550 3747 2413 3897 
Q 2184 4138 1850 4138 
Q 1581 4138 1378 3988 
Q 1113 3794 959 3422 
Q 806 3050 800 2363 
Q 1003 2672 1297 2822 
Q 1591 2972 1913 2972 
Q 2475 2972 2870 2558 
Q 3266 2144 3266 1488 
Q 3266 1056 3080 686 
Q 2894 316 2569 119 
Q 2244 -78 1831 -78 
Q 1128 -78 684 439 
Q 241 956 241 2144 
Q 241 3472 731 4075 
Q 1159 4600 1884 4600 
Q 2425 4600 2770 4297 
Q 3116 3994 3184 3459 
z
M 888 1484 
Q 888 1194 1011 928 
Q 1134 663 1356 523 
Q 1578 384 1822 384 
Q 2178 384 2434 671 
Q 2691 959 2691 1453 
Q 2691 1928 2437 2201 
Q 2184 2475 1800 2475 
Q 1419 2475 1153 2201 
Q 888 1928 888 1484 
z
" transform="scale(0.015625)"/>
       </defs>
       <use xlink:href="#ArialMT-32"/>
       <use xlink:href="#ArialMT-30" x="55.615234"/>
       <use xlink:href="#ArialMT-31" x="111.230469"/>
       <use xlink:href="#ArialMT-36" x="166.845703"/>
      </g>
     </g>
    </g>
    <g id="xtick_5">
     <g id="text_4">
      <!-- 2018 -->
      <g style="fill: #262626" transform="translate(519.923573 205.629219) scale(0.11 -0.11)">
       <defs>
        <path id="ArialMT-38" d="M 1131 2484 
Q 781 2613 612 2850 
Q 444 3088 444 3419 
Q 444 3919 803 4259 
Q 1163 4600 1759 4600 
Q 2359 4600 2725 4251 
Q 3091 3903 3091 3403 
Q 3091 3084 2923 2848 
Q 2756 2613 2416 2484 
Q 2838 2347 3058 2040 
Q 3278 1734 3278 1309 
Q 3278 722 2862 322 
Q 2447 -78 1769 -78 
Q 1091 -78 675 323 
Q 259 725 259 1325 
Q 259 1772 486 2073 
Q 713 2375 1131 2484 
z
M 1019 3438 
Q 1019 3113 1228 2906 
Q 1438 2700 1772 2700 
Q 2097 2700 2305 2904 
Q 2513 3109 2513 3406 
Q 2513 3716 2298 3927 
Q 2084 4138 1766 4138 
Q 1444 4138 1231 3931 
Q 1019 3725 1019 3438 
z
M 838 1322 
Q 838 1081 952 856 
Q 1066 631 1291 507 
Q 1516 384 1775 384 
Q 2178 384 2440 643 
Q 2703 903 2703 1303 
Q 2703 1709 2433 1975 
Q 2163 2241 1756 2241 
Q 1359 2241 1098 1978 
Q 838 1716 838 1322 
z
" transform="scale(0.015625)"/>
       </defs>
       <use xlink:href="#ArialMT-32"/>
       <use xlink:href="#ArialMT-30" x="55.615234"/>
       <use xlink:href="#ArialMT-31" x="111.230469"/>
       <use xlink:href="#ArialMT-38" x="166.845703"/>
      </g>
     </g>
    </g>
    <g id="xtick_6">
     <g id="text_5">
      <!-- 2020 -->
      <g style="fill: #262626" transform="translate(664.233918 205.629219) scale(0.11 -0.11)">
       <use xlink:href="#ArialMT-32"/>
       <use xlink:href="#ArialMT-30" x="55.615234"/>
       <use xlink:href="#ArialMT-32" x="111.230469"/>
       <use xlink:href="#ArialMT-30" x="166.845703"/>
      </g>
     </g>
    </g>
    <g id="xtick_7">
     <g id="text_6">
      <!-- 2022 -->
      <g style="fill: #262626" transform="translate(807.169878 205.629219) scale(0.11 -0.11)">
       <use xlink:href="#ArialMT-32"/>
       <use xlink:href="#ArialMT-30" x="55.615234"/>
       <use xlink:href="#ArialMT-32" x="111.230469"/>
       <use xlink:href="#ArialMT-32" x="166.845703"/>
      </g>
     </g>
    </g>
    <g id="xtick_8"/>
    <g id="xtick_9"/>
    <g id="xtick_10"/>
    <g id="xtick_11"/>
    <g id="xtick_12"/>
    <g id="xtick_13"/>
    <g id="text_7">
     <!-- Date -->
     <g style="fill: #262626" transform="translate(452.826875 220.404844) scale(0.12 -0.12)">
      <defs>
       <path id="ArialMT-44" d="M 494 0 
L 494 4581 
L 2072 4581 
Q 2606 4581 2888 4516 
Q 3281 4425 3559 4188 
Q 3922 3881 4101 3404 
Q 4281 2928 4281 2316 
Q 4281 1794 4159 1391 
Q 4038 988 3847 723 
Q 3656 459 3429 307 
Q 3203 156 2883 78 
Q 2563 0 2147 0 
L 494 0 
z
M 1100 541 
L 2078 541 
Q 2531 541 2789 625 
Q 3047 709 3200 863 
Q 3416 1078 3536 1442 
Q 3656 1806 3656 2325 
Q 3656 3044 3420 3430 
Q 3184 3816 2847 3947 
Q 2603 4041 2063 4041 
L 1100 4041 
L 1100 541 
z
" transform="scale(0.015625)"/>
       <path id="ArialMT-61" d="M 2588 409 
Q 2275 144 1986 34 
Q 1697 -75 1366 -75 
Q 819 -75 525 192 
Q 231 459 231 875 
Q 231 1119 342 1320 
Q 453 1522 633 1644 
Q 813 1766 1038 1828 
Q 1203 1872 1538 1913 
Q 2219 1994 2541 2106 
Q 2544 2222 2544 2253 
Q 2544 2597 2384 2738 
Q 2169 2928 1744 2928 
Q 1347 2928 1158 2789 
Q 969 2650 878 2297 
L 328 2372 
Q 403 2725 575 2942 
Q 747 3159 1072 3276 
Q 1397 3394 1825 3394 
Q 2250 3394 2515 3294 
Q 2781 3194 2906 3042 
Q 3031 2891 3081 2659 
Q 3109 2516 3109 2141 
L 3109 1391 
Q 3109 606 3145 398 
Q 3181 191 3288 0 
L 2700 0 
Q 2613 175 2588 409 
z
M 2541 1666 
Q 2234 1541 1622 1453 
Q 1275 1403 1131 1340 
Q 988 1278 909 1158 
Q 831 1038 831 891 
Q 831 666 1001 516 
Q 1172 366 1500 366 
Q 1825 366 2078 508 
Q 2331 650 2450 897 
Q 2541 1088 2541 1459 
L 2541 1666 
z
" transform="scale(0.015625)"/>
       <path id="ArialMT-74" d="M 1650 503 
L 1731 6 
Q 1494 -44 1306 -44 
Q 1000 -44 831 53 
Q 663 150 594 308 
Q 525 466 525 972 
L 525 2881 
L 113 2881 
L 113 3319 
L 525 3319 
L 525 4141 
L 1084 4478 
L 1084 3319 
L 1650 3319 
L 1650 2881 
L 1084 2881 
L 1084 941 
Q 1084 700 1114 631 
Q 1144 563 1211 522 
Q 1278 481 1403 481 
Q 1497 481 1650 503 
z
" transform="scale(0.015625)"/>
       <path id="ArialMT-65" d="M 2694 1069 
L 3275 997 
Q 3138 488 2766 206 
Q 2394 -75 1816 -75 
Q 1088 -75 661 373 
Q 234 822 234 1631 
Q 234 2469 665 2931 
Q 1097 3394 1784 3394 
Q 2450 3394 2872 2941 
Q 3294 2488 3294 1666 
Q 3294 1616 3291 1516 
L 816 1516 
Q 847 969 1125 678 
Q 1403 388 1819 388 
Q 2128 388 2347 550 
Q 2566 713 2694 1069 
z
M 847 1978 
L 2700 1978 
Q 2663 2397 2488 2606 
Q 2219 2931 1791 2931 
Q 1403 2931 1139 2672 
Q 875 2413 847 1978 
z
" transform="scale(0.015625)"/>
      </defs>
      <use xlink:href="#ArialMT-44"/>
      <use xlink:href="#ArialMT-61" x="72.216797"/>
      <use xlink:href="#ArialMT-74" x="127.832031"/>
      <use xlink:href="#ArialMT-65" x="155.615234"/>
     </g>
    </g>
   </g>
   <g id="matplotlib.axis_2">
    <g id="ytick_1">
     <g id="text_8">
      <!-- 0.0 -->
      <g style="fill: #262626" transform="translate(22.21 184.645235) scale(0.11 -0.11)">
       <defs>
        <path id="ArialMT-2e" d="M 581 0 
L 581 641 
L 1222 641 
L 1222 0 
L 581 0 
z
" transform="scale(0.015625)"/>
       </defs>
       <use xlink:href="#ArialMT-30"/>
       <use xlink:href="#ArialMT-2e" x="55.615234"/>
       <use xlink:href="#ArialMT-30" x="83.398438"/>
      </g>
     </g>
    </g>
    <g id="ytick_2">
     <g id="text_9">
      <!-- 0.5 -->
      <g style="fill: #262626" transform="translate(22.21 151.077864) scale(0.11 -0.11)">
       <defs>
        <path id="ArialMT-35" d="M 266 1200 
L 856 1250 
Q 922 819 1161 601 
Q 1400 384 1738 384 
Q 2144 384 2425 690 
Q 2706 997 2706 1503 
Q 2706 1984 2436 2262 
Q 2166 2541 1728 2541 
Q 1456 2541 1237 2417 
Q 1019 2294 894 2097 
L 366 2166 
L 809 4519 
L 3088 4519 
L 3088 3981 
L 1259 3981 
L 1013 2750 
Q 1425 3038 1878 3038 
Q 2478 3038 2890 2622 
Q 3303 2206 3303 1553 
Q 3303 931 2941 478 
Q 2500 -78 1738 -78 
Q 1113 -78 717 272 
Q 322 622 266 1200 
z
" transform="scale(0.015625)"/>
       </defs>
       <use xlink:href="#ArialMT-30"/>
       <use xlink:href="#ArialMT-2e" x="55.615234"/>
       <use xlink:href="#ArialMT-35" x="83.398438"/>
      </g>
     </g>
    </g>
    <g id="ytick_3">
     <g id="text_10">
      <!-- 1.0 -->
      <g style="fill: #262626" transform="translate(22.21 117.510492) scale(0.11 -0.11)">
       <use xlink:href="#ArialMT-31"/>
       <use xlink:href="#ArialMT-2e" x="55.615234"/>
       <use xlink:href="#ArialMT-30" x="83.398438"/>
      </g>
     </g>
    </g>
    <g id="ytick_4">
     <g id="text_11">
      <!-- 1.5 -->
      <g style="fill: #262626" transform="translate(22.21 83.94312) scale(0.11 -0.11)">
       <use xlink:href="#ArialMT-31"/>
       <use xlink:href="#ArialMT-2e" x="55.615234"/>
       <use xlink:href="#ArialMT-35" x="83.398438"/>
      </g>
     </g>
    </g>
    <g id="ytick_5">
     <g id="text_12">
      <!-- 2.0 -->
      <g style="fill: #262626" transform="translate(22.21 50.375748) scale(0.11 -0.11)">
       <use xlink:href="#ArialMT-32"/>
       <use xlink:href="#ArialMT-2e" x="55.615234"/>
       <use xlink:href="#ArialMT-30" x="83.398438"/>
      </g>
     </g>
    </g>
    <g id="text_13">
     <!-- absolute_error [1e3 trips] -->
     <g style="fill: #262626" transform="translate(15.825 171.793125) rotate(-90) scale(0.12 -0.12)">
      <defs>
       <path id="ArialMT-62" d="M 941 0 
L 419 0 
L 419 4581 
L 981 4581 
L 981 2947 
Q 1338 3394 1891 3394 
Q 2197 3394 2470 3270 
Q 2744 3147 2920 2923 
Q 3097 2700 3197 2384 
Q 3297 2069 3297 1709 
Q 3297 856 2875 390 
Q 2453 -75 1863 -75 
Q 1275 -75 941 416 
L 941 0 
z
M 934 1684 
Q 934 1088 1097 822 
Q 1363 388 1816 388 
Q 2184 388 2453 708 
Q 2722 1028 2722 1663 
Q 2722 2313 2464 2622 
Q 2206 2931 1841 2931 
Q 1472 2931 1203 2611 
Q 934 2291 934 1684 
z
" transform="scale(0.015625)"/>
       <path id="ArialMT-73" d="M 197 991 
L 753 1078 
Q 800 744 1014 566 
Q 1228 388 1613 388 
Q 2000 388 2187 545 
Q 2375 703 2375 916 
Q 2375 1106 2209 1216 
Q 2094 1291 1634 1406 
Q 1016 1563 777 1677 
Q 538 1791 414 1992 
Q 291 2194 291 2438 
Q 291 2659 392 2848 
Q 494 3038 669 3163 
Q 800 3259 1026 3326 
Q 1253 3394 1513 3394 
Q 1903 3394 2198 3281 
Q 2494 3169 2634 2976 
Q 2775 2784 2828 2463 
L 2278 2388 
Q 2241 2644 2061 2787 
Q 1881 2931 1553 2931 
Q 1166 2931 1000 2803 
Q 834 2675 834 2503 
Q 834 2394 903 2306 
Q 972 2216 1119 2156 
Q 1203 2125 1616 2013 
Q 2213 1853 2448 1751 
Q 2684 1650 2818 1456 
Q 2953 1263 2953 975 
Q 2953 694 2789 445 
Q 2625 197 2315 61 
Q 2006 -75 1616 -75 
Q 969 -75 630 194 
Q 291 463 197 991 
z
" transform="scale(0.015625)"/>
       <path id="ArialMT-6f" d="M 213 1659 
Q 213 2581 725 3025 
Q 1153 3394 1769 3394 
Q 2453 3394 2887 2945 
Q 3322 2497 3322 1706 
Q 3322 1066 3130 698 
Q 2938 331 2570 128 
Q 2203 -75 1769 -75 
Q 1072 -75 642 372 
Q 213 819 213 1659 
z
M 791 1659 
Q 791 1022 1069 705 
Q 1347 388 1769 388 
Q 2188 388 2466 706 
Q 2744 1025 2744 1678 
Q 2744 2294 2464 2611 
Q 2184 2928 1769 2928 
Q 1347 2928 1069 2612 
Q 791 2297 791 1659 
z
" transform="scale(0.015625)"/>
       <path id="ArialMT-6c" d="M 409 0 
L 409 4581 
L 972 4581 
L 972 0 
L 409 0 
z
" transform="scale(0.015625)"/>
       <path id="ArialMT-75" d="M 2597 0 
L 2597 488 
Q 2209 -75 1544 -75 
Q 1250 -75 995 37 
Q 741 150 617 320 
Q 494 491 444 738 
Q 409 903 409 1263 
L 409 3319 
L 972 3319 
L 972 1478 
Q 972 1038 1006 884 
Q 1059 663 1231 536 
Q 1403 409 1656 409 
Q 1909 409 2131 539 
Q 2353 669 2445 892 
Q 2538 1116 2538 1541 
L 2538 3319 
L 3100 3319 
L 3100 0 
L 2597 0 
z
" transform="scale(0.015625)"/>
       <path id="ArialMT-5f" d="M -97 -1272 
L -97 -866 
L 3631 -866 
L 3631 -1272 
L -97 -1272 
z
" transform="scale(0.015625)"/>
       <path id="ArialMT-72" d="M 416 0 
L 416 3319 
L 922 3319 
L 922 2816 
Q 1116 3169 1280 3281 
Q 1444 3394 1641 3394 
Q 1925 3394 2219 3213 
L 2025 2691 
Q 1819 2813 1613 2813 
Q 1428 2813 1281 2702 
Q 1134 2591 1072 2394 
Q 978 2094 978 1738 
L 978 0 
L 416 0 
z
" transform="scale(0.015625)"/>
       <path id="ArialMT-20" transform="scale(0.015625)"/>
       <path id="ArialMT-5b" d="M 434 -1272 
L 434 4581 
L 1675 4581 
L 1675 4116 
L 997 4116 
L 997 -806 
L 1675 -806 
L 1675 -1272 
L 434 -1272 
z
" transform="scale(0.015625)"/>
       <path id="ArialMT-33" d="M 269 1209 
L 831 1284 
Q 928 806 1161 595 
Q 1394 384 1728 384 
Q 2125 384 2398 659 
Q 2672 934 2672 1341 
Q 2672 1728 2419 1979 
Q 2166 2231 1775 2231 
Q 1616 2231 1378 2169 
L 1441 2663 
Q 1497 2656 1531 2656 
Q 1891 2656 2178 2843 
Q 2466 3031 2466 3422 
Q 2466 3731 2256 3934 
Q 2047 4138 1716 4138 
Q 1388 4138 1169 3931 
Q 950 3725 888 3313 
L 325 3413 
Q 428 3978 793 4289 
Q 1159 4600 1703 4600 
Q 2078 4600 2393 4439 
Q 2709 4278 2876 4000 
Q 3044 3722 3044 3409 
Q 3044 3113 2884 2869 
Q 2725 2625 2413 2481 
Q 2819 2388 3044 2092 
Q 3269 1797 3269 1353 
Q 3269 753 2831 336 
Q 2394 -81 1725 -81 
Q 1122 -81 723 278 
Q 325 638 269 1209 
z
" transform="scale(0.015625)"/>
       <path id="ArialMT-69" d="M 425 3934 
L 425 4581 
L 988 4581 
L 988 3934 
L 425 3934 
z
M 425 0 
L 425 3319 
L 988 3319 
L 988 0 
L 425 0 
z
" transform="scale(0.015625)"/>
       <path id="ArialMT-70" d="M 422 -1272 
L 422 3319 
L 934 3319 
L 934 2888 
Q 1116 3141 1344 3267 
Q 1572 3394 1897 3394 
Q 2322 3394 2647 3175 
Q 2972 2956 3137 2557 
Q 3303 2159 3303 1684 
Q 3303 1175 3120 767 
Q 2938 359 2589 142 
Q 2241 -75 1856 -75 
Q 1575 -75 1351 44 
Q 1128 163 984 344 
L 984 -1272 
L 422 -1272 
z
M 931 1641 
Q 931 1000 1190 694 
Q 1450 388 1819 388 
Q 2194 388 2461 705 
Q 2728 1022 2728 1688 
Q 2728 2322 2467 2637 
Q 2206 2953 1844 2953 
Q 1484 2953 1207 2617 
Q 931 2281 931 1641 
z
" transform="scale(0.015625)"/>
       <path id="ArialMT-5d" d="M 1363 -1272 
L 122 -1272 
L 122 -806 
L 800 -806 
L 800 4116 
L 122 4116 
L 122 4581 
L 1363 4581 
L 1363 -1272 
z
" transform="scale(0.015625)"/>
      </defs>
      <use xlink:href="#ArialMT-61"/>
      <use xlink:href="#ArialMT-62" x="55.615234"/>
      <use xlink:href="#ArialMT-73" x="111.230469"/>
      <use xlink:href="#ArialMT-6f" x="161.230469"/>
      <use xlink:href="#ArialMT-6c" x="216.845703"/>
      <use xlink:href="#ArialMT-75" x="239.0625"/>
      <use xlink:href="#ArialMT-74" x="294.677734"/>
      <use xlink:href="#ArialMT-65" x="322.460938"/>
      <use xlink:href="#ArialMT-5f" x="378.076172"/>
      <use xlink:href="#ArialMT-65" x="433.691406"/>
      <use xlink:href="#ArialMT-72" x="489.306641"/>
      <use xlink:href="#ArialMT-72" x="522.607422"/>
      <use xlink:href="#ArialMT-6f" x="555.908203"/>
      <use xlink:href="#ArialMT-72" x="611.523438"/>
      <use xlink:href="#ArialMT-20" x="644.824219"/>
      <use xlink:href="#ArialMT-5b" x="672.607422"/>
      <use xlink:href="#ArialMT-31" x="700.390625"/>
      <use xlink:href="#ArialMT-65" x="756.005859"/>
      <use xlink:href="#ArialMT-33" x="811.621094"/>
      <use xlink:href="#ArialMT-20" x="867.236328"/>
      <use xlink:href="#ArialMT-74" x="895.019531"/>
      <use xlink:href="#ArialMT-72" x="922.802734"/>
      <use xlink:href="#ArialMT-69" x="956.103516"/>
      <use xlink:href="#ArialMT-70" x="978.320312"/>
      <use xlink:href="#ArialMT-73" x="1033.935547"/>
      <use xlink:href="#ArialMT-5d" x="1083.935547"/>
     </g>
    </g>
   </g>
   <g id="line2d_1">
    <path d="M 47 179.926399 
L 48.374384 179.515995 
L 49.748768 180.005966 
L 51.123153 180.694513 
L 52.497537 179.114962 
L 53.871921 180.263293 
L 55.246305 180.636871 
L 56.62069 179.936659 
L 57.995074 179.792864 
L 59.369458 180.357454 
L 60.743842 179.929458 
L 62.118227 179.629813 
L 63.492611 179.881046 
L 66.241379 180.644095 
L 70.364532 180.689653 
L 71.738916 180.36426 
L 73.1133 180.554289 
L 88.231527 180.686924 
L 89.605911 180.392377 
L 92.35468 180.537114 
L 93.729064 180.137651 
L 95.103448 180.490216 
L 97.852217 180.427409 
L 101.975369 180.601887 
L 103.349754 180.533923 
L 106.098522 180.588776 
L 107.472906 180.467746 
L 108.847291 180.460779 
L 110.221675 180.232214 
L 111.596059 180.329313 
L 112.970443 180.631299 
L 115.719212 180.309546 
L 117.093596 180.332578 
L 118.46798 179.782066 
L 121.216749 179.587757 
L 122.591133 180.492921 
L 123.965517 179.34951 
L 125.339901 180.354944 
L 126.714286 180.488199 
L 128.08867 180.507574 
L 129.463054 180.01452 
L 130.837438 180.434081 
L 132.211823 179.911409 
L 133.586207 179.845286 
L 134.960591 180.220191 
L 136.334975 180.47167 
L 137.70936 168.694041 
L 139.083744 179.510203 
L 140.458128 168.355721 
L 141.832512 175.663715 
L 143.206897 175.189628 
L 144.581281 157.392622 
L 145.955665 163.144819 
L 147.330049 153.52802 
L 148.704433 155.624629 
L 150.078818 164.247705 
L 151.453202 177.831686 
L 152.827586 160.066338 
L 154.20197 166.882541 
L 155.576355 162.16416 
L 156.950739 163.084982 
L 158.325123 154.055573 
L 159.699507 167.721799 
L 161.073892 105.354815 
L 162.448276 165.304479 
L 163.82266 155.459532 
L 165.197044 155.623417 
L 166.571429 147.805953 
L 167.945813 153.903961 
L 169.320197 164.734032 
L 170.694581 141.987446 
L 172.068966 177.642389 
L 173.44335 143.628675 
L 174.817734 146.159688 
L 176.192118 142.535835 
L 177.566502 131.647352 
L 178.940887 143.065842 
L 180.315271 179.980476 
L 181.689655 122.360373 
L 183.064039 143.899377 
L 184.438424 149.06922 
L 185.812808 162.279408 
L 187.187192 153.713839 
L 188.561576 153.972917 
L 189.935961 153.454512 
L 191.310345 147.790003 
L 192.684729 144.414774 
L 194.059113 156.687211 
L 195.433498 161.419848 
L 196.807882 156.999674 
L 198.182266 153.257436 
L 199.55665 156.17351 
L 200.931034 147.093632 
L 202.305419 163.500875 
L 203.679803 168.53419 
L 205.054187 171.258964 
L 206.428571 172.81028 
L 207.802956 149.181263 
L 209.17734 176.38013 
L 210.551724 164.818067 
L 211.926108 169.695517 
L 213.300493 162.191004 
L 214.674877 143.822148 
L 216.049261 178.193687 
L 217.423645 157.239706 
L 218.79803 130.784407 
L 220.172414 149.140147 
L 221.546798 146.128573 
L 222.921182 147.414496 
L 224.295567 145.832545 
L 225.669951 166.491337 
L 227.044335 172.512222 
L 228.418719 169.313353 
L 229.793103 168.625034 
L 231.167488 161.152088 
L 232.541872 160.220223 
L 233.916256 160.103414 
L 235.29064 168.254252 
L 236.665025 137.540581 
L 238.039409 161.897807 
L 239.413793 163.570376 
L 240.788177 169.124487 
L 242.162562 148.323696 
L 243.536946 173.225774 
L 244.91133 160.690469 
L 246.285714 142.89998 
L 247.660099 149.367768 
L 249.034483 166.695482 
L 250.408867 154.918688 
L 251.783251 179.151789 
L 253.157635 149.676403 
L 254.53202 165.307355 
L 255.906404 150.298413 
L 257.280788 158.534674 
L 258.655172 161.614488 
L 260.029557 166.330729 
L 261.403941 155.446187 
L 262.778325 155.288792 
L 264.152709 150.91441 
L 265.527094 165.173288 
L 266.901478 139.190092 
L 268.275862 161.848025 
L 269.650246 166.761827 
L 271.024631 169.378563 
L 272.399015 156.110587 
L 273.773399 167.518096 
L 275.147783 171.438061 
L 276.522167 177.041252 
L 277.896552 178.228237 
L 279.270936 161.33421 
L 280.64532 174.872713 
L 282.019704 175.62743 
L 283.394089 180.546686 
L 284.768473 169.093576 
L 286.142857 162.765055 
L 287.517241 152.061273 
L 288.891626 147.264795 
L 290.26601 143.978957 
L 291.640394 155.090242 
L 293.014778 159.244763 
L 294.389163 154.014057 
L 295.763547 158.226261 
L 297.137931 176.386376 
L 298.512315 173.818884 
L 299.8867 168.478904 
L 301.261084 159.8161 
L 302.635468 162.704951 
L 304.009852 167.566325 
L 305.384236 161.691406 
L 306.758621 170.384508 
L 308.133005 135.023401 
L 309.507389 161.707301 
L 310.881773 167.288825 
L 312.256158 171.52887 
L 313.630542 139.619618 
L 315.004926 171.860521 
L 316.37931 164.626425 
L 317.753695 151.146848 
L 319.128079 147.117152 
L 320.502463 156.883782 
L 321.876847 163.461272 
L 323.251232 175.522528 
L 324.625616 134.181147 
L 326 157.828424 
L 327.374384 158.837488 
L 328.748768 170.561729 
L 330.123153 172.538484 
L 331.497537 167.512281 
L 332.871921 151.661082 
L 334.246305 161.600239 
L 335.62069 157.71064 
L 336.995074 167.378315 
L 338.369458 144.370734 
L 339.743842 167.460123 
L 341.118227 173.183529 
L 342.492611 173.720242 
L 343.866995 164.862544 
L 345.241379 174.560925 
L 346.615764 175.377608 
L 347.990148 179.605432 
L 349.364532 175.21017 
L 350.738916 166.759833 
L 352.1133 159.608245 
L 353.487685 170.432538 
L 354.862069 168.010611 
L 356.236453 176.091123 
L 357.610837 172.952413 
L 358.985222 162.640964 
L 360.359606 166.056414 
L 361.73399 160.353117 
L 363.108374 170.340682 
L 364.482759 163.484143 
L 365.857143 171.425208 
L 367.231527 162.462204 
L 368.605911 175.577719 
L 369.980296 171.991216 
L 371.35468 177.055294 
L 372.729064 171.454722 
L 374.103448 175.534029 
L 375.477833 178.419671 
L 376.852217 178.728 
L 378.226601 179.355046 
L 379.600985 162.62951 
L 380.975369 143.311408 
L 382.349754 178.393879 
L 383.724138 179.877473 
L 385.098522 159.502112 
L 386.472906 156.795044 
L 387.847291 178.163776 
L 389.221675 172.789856 
L 390.596059 166.1871 
L 391.970443 162.696288 
L 393.344828 171.734539 
L 394.719212 177.961833 
L 396.093596 179.47481 
L 397.46798 161.868401 
L 398.842365 161.530268 
L 400.216749 179.997638 
L 401.591133 167.997937 
L 402.965517 180.219663 
L 404.339901 175.199214 
L 405.714286 165.677773 
L 407.08867 159.582186 
L 408.463054 166.728534 
L 409.837438 169.027266 
L 411.211823 177.040082 
L 412.586207 172.54074 
L 413.960591 178.798555 
L 415.334975 179.246638 
L 416.70936 176.155556 
L 418.083744 172.259642 
L 419.458128 175.162859 
L 420.832512 166.463346 
L 422.206897 173.499023 
L 423.581281 159.960798 
L 424.955665 155.121431 
L 426.330049 169.429772 
L 427.704433 164.800936 
L 429.078818 167.724256 
L 430.453202 172.645104 
L 431.827586 179.325894 
L 433.20197 177.640821 
L 434.576355 173.89289 
L 435.950739 150.557414 
L 437.325123 154.900089 
L 438.699507 154.947484 
L 440.073892 162.691562 
L 441.448276 179.171273 
L 442.82266 174.647824 
L 444.197044 168.697173 
L 445.571429 178.809149 
L 446.945813 178.362989 
L 448.320197 177.140296 
L 449.694581 170.682708 
L 451.068966 172.281736 
L 452.44335 158.02501 
L 453.817734 172.243193 
L 455.192118 178.629453 
L 456.566502 173.364756 
L 457.940887 162.447579 
L 459.315271 158.472309 
L 460.689655 175.678037 
L 462.064039 174.016787 
L 463.438424 168.278926 
L 464.812808 180.080777 
L 467.561576 138.749533 
L 468.935961 167.878812 
L 470.310345 153.177751 
L 471.684729 159.883668 
L 473.059113 141.058453 
L 474.433498 114.704885 
L 475.807882 138.20915 
L 477.182266 165.414482 
L 478.55665 164.826333 
L 479.931034 147.312805 
L 481.305419 153.842325 
L 482.679803 162.239457 
L 484.054187 159.519343 
L 485.428571 151.035813 
L 486.802956 158.000958 
L 488.17734 162.66496 
L 489.551724 153.161489 
L 490.926108 156.703192 
L 492.300493 152.312398 
L 493.674877 148.848093 
L 495.049261 140.994682 
L 496.423645 126.533523 
L 497.79803 151.668456 
L 499.172414 142.377478 
L 500.546798 136.277344 
L 501.921182 142.128718 
L 503.295567 151.089266 
L 504.669951 150.889311 
L 506.044335 160.997852 
L 507.418719 126.501541 
L 508.793103 130.431818 
L 510.167488 130.247239 
L 511.541872 114.520476 
L 512.916256 136.958176 
L 515.665025 144.443571 
L 517.039409 151.927059 
L 518.413793 151.502783 
L 519.788177 142.399312 
L 521.162562 146.263147 
L 522.536946 158.349923 
L 523.91133 136.657928 
L 525.285714 160.125758 
L 526.660099 164.019249 
L 528.034483 155.27725 
L 529.408867 160.362878 
L 530.783251 143.950264 
L 532.157635 156.421123 
L 533.53202 164.445675 
L 536.280788 159.663054 
L 537.655172 144.022875 
L 539.029557 142.424043 
L 540.403941 155.573758 
L 541.778325 142.57084 
L 544.527094 127.224881 
L 545.901478 135.953102 
L 547.275862 124.82713 
L 548.650246 150.897412 
L 550.024631 151.829347 
L 551.399015 153.301764 
L 552.773399 149.728425 
L 554.147783 151.143081 
L 555.522167 148.447382 
L 556.896552 138.770946 
L 558.270936 136.430481 
L 559.64532 137.806274 
L 561.019704 138.36903 
L 562.394089 140.101889 
L 563.768473 130.375034 
L 565.142857 133.475041 
L 566.517241 130.606317 
L 567.891626 106.669531 
L 569.26601 135.029251 
L 570.640394 129.944578 
L 572.014778 125.501681 
L 573.389163 127.970823 
L 574.763547 145.355638 
L 576.137931 140.634951 
L 577.512315 143.602078 
L 578.8867 125.968739 
L 580.261084 117.033888 
L 581.635468 114.84511 
L 583.009852 113.619527 
L 584.384236 123.811538 
L 585.758621 126.576577 
L 587.133005 122.106456 
L 588.507389 128.217706 
L 589.881773 131.532871 
L 591.256158 125.561134 
L 592.630542 132.630928 
L 594.004926 137.05338 
L 595.37931 125.458735 
L 596.753695 140.52525 
L 598.128079 141.152021 
L 599.502463 127.11294 
L 600.876847 151.081467 
L 602.251232 125.927772 
L 603.625616 140.283504 
L 605 133.622782 
L 606.374384 136.493437 
L 607.748768 137.006722 
L 609.123153 128.211023 
L 610.497537 123.106679 
L 611.871921 124.735909 
L 613.246305 117.251456 
L 614.62069 118.804342 
L 615.995074 104.45293 
L 617.369458 104.013969 
L 618.743842 115.30226 
L 620.118227 139.652597 
L 621.492611 141.836217 
L 622.866995 138.759815 
L 624.241379 124.440013 
L 625.615764 128.957102 
L 626.990148 138.842071 
L 628.364532 123.987006 
L 629.738916 126.648784 
L 631.1133 131.746864 
L 633.862069 122.890366 
L 635.236453 117.883712 
L 636.610837 122.516667 
L 637.985222 121.167582 
L 639.359606 95.051294 
L 640.73399 118.544951 
L 642.108374 121.242134 
L 644.857143 113.932253 
L 646.231527 131.684365 
L 647.605911 127.122344 
L 648.980296 137.280737 
L 650.35468 113.893098 
L 651.729064 104.275514 
L 653.103448 114.176316 
L 654.477833 117.641485 
L 655.852217 118.603356 
L 657.226601 123.897962 
L 658.600985 117.858031 
L 659.975369 120.684523 
L 661.349754 121.696645 
L 662.724138 117.086926 
L 664.098522 119.203392 
L 665.472906 132.815858 
L 666.847291 147.753749 
L 668.221675 111.475208 
L 669.596059 136.685351 
L 670.970443 132.400714 
L 672.344828 145.886025 
L 673.719212 111.922326 
L 675.093596 132.190848 
L 676.46798 124.589313 
L 677.842365 136.18705 
L 679.216749 132.748733 
L 680.591133 122.131779 
L 681.965517 124.158187 
L 683.339901 131.299359 
L 684.714286 122.019962 
L 686.08867 126.708294 
L 687.463054 106.060922 
L 688.837438 61.871175 
L 690.211823 29.495625 
L 691.586207 79.420208 
L 692.960591 71.313225 
L 694.334975 71.26727 
L 695.70936 95.151889 
L 697.083744 120.975552 
L 698.458128 118.969648 
L 699.832512 113.616101 
L 701.206897 113.621873 
L 702.581281 120.579904 
L 705.330049 122.044258 
L 706.704433 121.878619 
L 708.078818 134.806467 
L 709.453202 128.031661 
L 710.827586 138.876832 
L 712.20197 137.761212 
L 713.576355 135.486393 
L 714.950739 134.499658 
L 716.325123 141.442977 
L 717.699507 142.986471 
L 719.073892 148.023119 
L 720.448276 149.60988 
L 721.82266 142.159652 
L 723.197044 128.620808 
L 724.571429 130.448597 
L 725.945813 137.743381 
L 727.320197 148.543575 
L 728.694581 145.208222 
L 730.068966 146.527909 
L 731.44335 144.918488 
L 732.817734 149.232311 
L 734.192118 143.589961 
L 735.566502 144.333508 
L 736.940887 147.148333 
L 738.315271 149.408316 
L 739.689655 139.017241 
L 741.064039 145.017025 
L 742.438424 140.263479 
L 743.812808 139.658365 
L 745.187192 150.485316 
L 746.561576 149.181334 
L 747.935961 141.557423 
L 749.310345 144.172066 
L 750.684729 147.762173 
L 752.059113 147.722149 
L 753.433498 134.72863 
L 754.807882 145.85572 
L 756.182266 146.802604 
L 757.55665 152.20148 
L 758.931034 149.320988 
L 760.305419 139.812265 
L 761.679803 132.836157 
L 763.054187 140.017143 
L 764.428571 157.767348 
L 765.802956 146.749268 
L 767.17734 150.320397 
L 768.551724 154.546199 
L 769.926108 156.978235 
L 771.300493 156.318943 
L 772.674877 146.400094 
L 774.049261 147.985779 
L 775.423645 149.267796 
L 776.79803 152.017823 
L 778.172414 151.10813 
L 779.546798 152.339794 
L 780.921182 155.714623 
L 782.295567 141.031495 
L 783.669951 150.20115 
L 785.044335 153.513224 
L 786.418719 148.060877 
L 787.793103 145.922692 
L 789.167488 151.26695 
L 790.541872 154.515454 
L 791.916256 153.789897 
L 793.29064 157.464486 
L 794.665025 147.822492 
L 796.039409 134.438157 
L 797.413793 135.751906 
L 798.788177 140.914017 
L 800.162562 156.435071 
L 801.536946 151.021978 
L 802.91133 150.08434 
L 804.285714 148.752228 
L 805.660099 154.278874 
L 807.034483 145.04881 
L 808.408867 148.819388 
L 809.783251 154.185796 
L 811.157635 142.540227 
L 812.53202 148.288676 
L 813.906404 151.670868 
L 815.280788 134.500843 
L 816.655172 122.662741 
L 818.029557 142.181707 
L 819.403941 142.583265 
L 820.778325 139.444993 
L 822.152709 147.789538 
L 823.527094 146.381256 
L 824.901478 144.564013 
L 826.275862 151.498214 
L 827.650246 155.677141 
L 829.024631 157.276443 
L 830.399015 151.246367 
L 831.773399 137.062349 
L 833.147783 130.512918 
L 834.522167 143.424171 
L 835.896552 163.915964 
L 837.270936 150.771473 
L 838.64532 143.784955 
L 840.019704 148.028019 
L 841.394089 152.985103 
L 842.768473 143.339418 
L 844.142857 137.298243 
L 845.517241 137.370572 
L 846.891626 138.950838 
L 848.26601 136.029774 
L 849.640394 141.150986 
L 851.014778 139.26513 
L 852.389163 139.403185 
L 853.763547 125.702013 
L 855.137931 134.27274 
L 856.512315 143.980059 
L 857.8867 141.028219 
L 859.261084 138.792733 
L 860.635468 146.013973 
L 862.009852 148.624671 
L 863.384236 149.158569 
L 864.758621 153.885757 
L 866.133005 144.952813 
L 867.507389 131.414584 
L 868.881773 124.148732 
L 870.256158 134.521888 
L 871.630542 151.472151 
L 873.004926 147.193947 
L 874.37931 147.044254 
L 875.753695 145.270639 
L 877.128079 150.450782 
L 878.502463 134.771823 
L 879.876847 140.965669 
L 881.251232 132.928953 
L 882.625616 137.663861 
L 884 169.172306 
L 884 169.172306 
" clip-path="url(#p1776a3d3a2)" style="fill: none; stroke: #2e1e3b; stroke-width: 1.5; stroke-linecap: round"/>
   </g>
   <g id="patch_5">
    <path d="M 47 188.255625 
L 47 21.935625 
" style="fill: none; stroke: #262626; stroke-width: 1.25; stroke-linejoin: miter; stroke-linecap: square"/>
   </g>
   <g id="patch_6">
    <path d="M 884 188.255625 
L 884 21.935625 
" style="fill: none; stroke: #262626; stroke-width: 1.25; stroke-linejoin: miter; stroke-linecap: square"/>
   </g>
   <g id="patch_7">
    <path d="M 47 188.255625 
L 884 188.255625 
" style="fill: none; stroke: #262626; stroke-width: 1.25; stroke-linejoin: miter; stroke-linecap: square"/>
   </g>
   <g id="patch_8">
    <path d="M 47 21.935625 
L 884 21.935625 
" style="fill: none; stroke: #262626; stroke-width: 1.25; stroke-linejoin: miter; stroke-linecap: square"/>
   </g>
   <g id="text_14">
    <!-- Daily absolute_error in thousands of trips -->
    <g style="fill: #262626" transform="translate(356.45 15.935625) scale(0.12 -0.12)">
     <defs>
      <path id="ArialMT-79" d="M 397 -1278 
L 334 -750 
Q 519 -800 656 -800 
Q 844 -800 956 -737 
Q 1069 -675 1141 -563 
Q 1194 -478 1313 -144 
Q 1328 -97 1363 -6 
L 103 3319 
L 709 3319 
L 1400 1397 
Q 1534 1031 1641 628 
Q 1738 1016 1872 1384 
L 2581 3319 
L 3144 3319 
L 1881 -56 
Q 1678 -603 1566 -809 
Q 1416 -1088 1222 -1217 
Q 1028 -1347 759 -1347 
Q 597 -1347 397 -1278 
z
" transform="scale(0.015625)"/>
      <path id="ArialMT-6e" d="M 422 0 
L 422 3319 
L 928 3319 
L 928 2847 
Q 1294 3394 1984 3394 
Q 2284 3394 2536 3286 
Q 2788 3178 2913 3003 
Q 3038 2828 3088 2588 
Q 3119 2431 3119 2041 
L 3119 0 
L 2556 0 
L 2556 2019 
Q 2556 2363 2490 2533 
Q 2425 2703 2258 2804 
Q 2091 2906 1866 2906 
Q 1506 2906 1245 2678 
Q 984 2450 984 1813 
L 984 0 
L 422 0 
z
" transform="scale(0.015625)"/>
      <path id="ArialMT-68" d="M 422 0 
L 422 4581 
L 984 4581 
L 984 2938 
Q 1378 3394 1978 3394 
Q 2347 3394 2619 3248 
Q 2891 3103 3008 2847 
Q 3125 2591 3125 2103 
L 3125 0 
L 2563 0 
L 2563 2103 
Q 2563 2525 2380 2717 
Q 2197 2909 1863 2909 
Q 1613 2909 1392 2779 
Q 1172 2650 1078 2428 
Q 984 2206 984 1816 
L 984 0 
L 422 0 
z
" transform="scale(0.015625)"/>
      <path id="ArialMT-64" d="M 2575 0 
L 2575 419 
Q 2259 -75 1647 -75 
Q 1250 -75 917 144 
Q 584 363 401 755 
Q 219 1147 219 1656 
Q 219 2153 384 2558 
Q 550 2963 881 3178 
Q 1213 3394 1622 3394 
Q 1922 3394 2156 3267 
Q 2391 3141 2538 2938 
L 2538 4581 
L 3097 4581 
L 3097 0 
L 2575 0 
z
M 797 1656 
Q 797 1019 1065 703 
Q 1334 388 1700 388 
Q 2069 388 2326 689 
Q 2584 991 2584 1609 
Q 2584 2291 2321 2609 
Q 2059 2928 1675 2928 
Q 1300 2928 1048 2622 
Q 797 2316 797 1656 
z
" transform="scale(0.015625)"/>
      <path id="ArialMT-66" d="M 556 0 
L 556 2881 
L 59 2881 
L 59 3319 
L 556 3319 
L 556 3672 
Q 556 4006 616 4169 
Q 697 4388 901 4523 
Q 1106 4659 1475 4659 
Q 1713 4659 2000 4603 
L 1916 4113 
Q 1741 4144 1584 4144 
Q 1328 4144 1222 4034 
Q 1116 3925 1116 3625 
L 1116 3319 
L 1763 3319 
L 1763 2881 
L 1116 2881 
L 1116 0 
L 556 0 
z
" transform="scale(0.015625)"/>
     </defs>
     <use xlink:href="#ArialMT-44"/>
     <use xlink:href="#ArialMT-61" x="72.216797"/>
     <use xlink:href="#ArialMT-69" x="127.832031"/>
     <use xlink:href="#ArialMT-6c" x="150.048828"/>
     <use xlink:href="#ArialMT-79" x="172.265625"/>
     <use xlink:href="#ArialMT-20" x="222.265625"/>
     <use xlink:href="#ArialMT-61" x="250.048828"/>
     <use xlink:href="#ArialMT-62" x="305.664062"/>
     <use xlink:href="#ArialMT-73" x="361.279297"/>
     <use xlink:href="#ArialMT-6f" x="411.279297"/>
     <use xlink:href="#ArialMT-6c" x="466.894531"/>
     <use xlink:href="#ArialMT-75" x="489.111328"/>
     <use xlink:href="#ArialMT-74" x="544.726562"/>
     <use xlink:href="#ArialMT-65" x="572.509766"/>
     <use xlink:href="#ArialMT-5f" x="628.125"/>
     <use xlink:href="#ArialMT-65" x="683.740234"/>
     <use xlink:href="#ArialMT-72" x="739.355469"/>
     <use xlink:href="#ArialMT-72" x="772.65625"/>
     <use xlink:href="#ArialMT-6f" x="805.957031"/>
     <use xlink:href="#ArialMT-72" x="861.572266"/>
     <use xlink:href="#ArialMT-20" x="894.873047"/>
     <use xlink:href="#ArialMT-69" x="922.65625"/>
     <use xlink:href="#ArialMT-6e" x="944.873047"/>
     <use xlink:href="#ArialMT-20" x="1000.488281"/>
     <use xlink:href="#ArialMT-74" x="1028.271484"/>
     <use xlink:href="#ArialMT-68" x="1056.054688"/>
     <use xlink:href="#ArialMT-6f" x="1111.669922"/>
     <use xlink:href="#ArialMT-75" x="1167.285156"/>
     <use xlink:href="#ArialMT-73" x="1222.900391"/>
     <use xlink:href="#ArialMT-61" x="1272.900391"/>
     <use xlink:href="#ArialMT-6e" x="1328.515625"/>
     <use xlink:href="#ArialMT-64" x="1384.130859"/>
     <use xlink:href="#ArialMT-73" x="1439.746094"/>
     <use xlink:href="#ArialMT-20" x="1489.746094"/>
     <use xlink:href="#ArialMT-6f" x="1517.529297"/>
     <use xlink:href="#ArialMT-66" x="1573.144531"/>
     <use xlink:href="#ArialMT-20" x="1600.927734"/>
     <use xlink:href="#ArialMT-74" x="1628.710938"/>
     <use xlink:href="#ArialMT-72" x="1656.494141"/>
     <use xlink:href="#ArialMT-69" x="1689.794922"/>
     <use xlink:href="#ArialMT-70" x="1712.011719"/>
     <use xlink:href="#ArialMT-73" x="1767.626953"/>
    </g>
   </g>
   <g id="legend_1">
    <g id="patch_9">
     <path d="M 770.175781 77.415156 
L 876.3 77.415156 
Q 878.5 77.415156 878.5 75.215156 
L 878.5 29.635625 
Q 878.5 27.435625 876.3 27.435625 
L 770.175781 27.435625 
Q 767.975781 27.435625 767.975781 29.635625 
L 767.975781 75.215156 
Q 767.975781 77.415156 770.175781 77.415156 
z
" style="fill: #ffffff; opacity: 0.8; stroke: #cccccc; stroke-linejoin: miter"/>
    </g>
    <g id="line2d_2">
     <path d="M 772.375781 35.859219 
L 783.375781 35.859219 
L 794.375781 35.859219 
" style="fill: none; stroke: #2e1e3b; stroke-width: 1.5; stroke-linecap: round"/>
    </g>
    <g id="text_15">
     <!-- absolute_error -->
     <g style="fill: #262626" transform="translate(803.175781 39.709219) scale(0.11 -0.11)">
      <use xlink:href="#ArialMT-61"/>
      <use xlink:href="#ArialMT-62" x="55.615234"/>
      <use xlink:href="#ArialMT-73" x="111.230469"/>
      <use xlink:href="#ArialMT-6f" x="161.230469"/>
      <use xlink:href="#ArialMT-6c" x="216.845703"/>
      <use xlink:href="#ArialMT-75" x="239.0625"/>
      <use xlink:href="#ArialMT-74" x="294.677734"/>
      <use xlink:href="#ArialMT-65" x="322.460938"/>
      <use xlink:href="#ArialMT-5f" x="378.076172"/>
      <use xlink:href="#ArialMT-65" x="433.691406"/>
      <use xlink:href="#ArialMT-72" x="489.306641"/>
      <use xlink:href="#ArialMT-72" x="522.607422"/>
      <use xlink:href="#ArialMT-6f" x="555.908203"/>
      <use xlink:href="#ArialMT-72" x="611.523438"/>
     </g>
    </g>
    <g id="patch_10">
     <path d="M 772.375781 55.269062 
L 794.375781 55.269062 
L 794.375781 47.569062 
L 772.375781 47.569062 
z
" style="fill: #44af69; opacity: 0.25; stroke: #44af69; stroke-linejoin: miter"/>
    </g>
    <g id="text_16">
     <!-- Train -->
     <g style="fill: #262626" transform="translate(803.175781 55.269062) scale(0.11 -0.11)">
      <defs>
       <path id="ArialMT-54" d="M 1659 0 
L 1659 4041 
L 150 4041 
L 150 4581 
L 3781 4581 
L 3781 4041 
L 2266 4041 
L 2266 0 
L 1659 0 
z
" transform="scale(0.015625)"/>
      </defs>
      <use xlink:href="#ArialMT-54"/>
      <use xlink:href="#ArialMT-72" x="57.333984"/>
      <use xlink:href="#ArialMT-61" x="90.634766"/>
      <use xlink:href="#ArialMT-69" x="146.25"/>
      <use xlink:href="#ArialMT-6e" x="168.466797"/>
     </g>
    </g>
    <g id="patch_11">
     <path d="M 772.375781 70.828906 
L 794.375781 70.828906 
L 794.375781 63.128906 
L 772.375781 63.128906 
z
" style="fill: #f2dc5d; opacity: 0.125; stroke: #f2dc5d; stroke-linejoin: miter"/>
    </g>
    <g id="text_17">
     <!-- Test -->
     <g style="fill: #262626" transform="translate(803.175781 70.828906) scale(0.11 -0.11)">
      <use xlink:href="#ArialMT-54"/>
      <use xlink:href="#ArialMT-65" x="49.958984"/>
      <use xlink:href="#ArialMT-73" x="105.574219"/>
      <use xlink:href="#ArialMT-74" x="155.574219"/>
     </g>
    </g>
   </g>
  </g>
 </g>
 <defs>
  <clipPath id="p1776a3d3a2">
   <rect x="47" y="21.935625" width="837" height="166.32"/>
  </clipPath>
 </defs>
</svg>
