<?xml version="1.0" encoding="utf-8" standalone="no"?>
<!DOCTYPE svg PUBLIC "-//W3C//DTD SVG 1.1//EN"
  "http://www.w3.org/Graphics/SVG/1.1/DTD/svg11.dtd">
<svg xmlns:xlink="http://www.w3.org/1999/xlink" width="891.2pt" height="229.989844pt" viewBox="0 0 891.2 229.989844" xmlns="http://www.w3.org/2000/svg" version="1.1">
 <metadata>
  <rdf:RDF xmlns:dc="http://purl.org/dc/elements/1.1/" xmlns:cc="http://creativecommons.org/ns#" xmlns:rdf="http://www.w3.org/1999/02/22-rdf-syntax-ns#">
   <cc:Work>
    <dc:type rdf:resource="http://purl.org/dc/dcmitype/StillImage"/>
    <dc:date>2023-08-13T02:27:41.465415</dc:date>
    <dc:format>image/svg+xml</dc:format>
    <dc:creator>
     <cc:Agent>
      <dc:title>Matplotlib v3.7.1, https://matplotlib.org/</dc:title>
     </cc:Agent>
    </dc:creator>
   </cc:Work>
  </rdf:RDF>
 </metadata>
 <defs>
  <style type="text/css">*{stroke-linejoin: round; stroke-linecap: butt}</style>
 </defs>
 <g id="figure_1">
  <g id="patch_1">
   <path d="M 0 229.989844 
L 891.2 229.989844 
L 891.2 0 
L 0 0 
z
" style="fill: #ffffff"/>
  </g>
  <g id="axes_1">
   <g id="patch_2">
    <path d="M 47 188.255625 
L 884 188.255625 
L 884 21.935625 
L 47 21.935625 
z
" style="fill: #ffffff"/>
   </g>
   <g id="patch_3">
    <path d="M 47 188.255625 
L 47 21.935625 
L 134.75 21.935625 
L 134.75 188.255625 
z
" clip-path="url(#p79d5a34e10)" style="fill: #44af69; opacity: 0.25; stroke: #44af69; stroke-linejoin: miter"/>
   </g>
   <g id="patch_4">
    <path d="M 134.75 188.255625 
L 134.75 21.935625 
L 152.3 21.935625 
L 152.3 188.255625 
z
" clip-path="url(#p79d5a34e10)" style="fill: #f2dc5d; opacity: 0.125; stroke: #f2dc5d; stroke-linejoin: miter"/>
   </g>
   <g id="matplotlib.axis_1">
    <g id="xtick_1"/>
    <g id="xtick_2">
     <g id="text_1">
      <!-- 2012 -->
      <g style="fill: #262626" transform="translate(103.615938 205.629219) scale(0.11 -0.11)">
       <defs>
        <path id="ArialMT-32" d="M 3222 541 
L 3222 0 
L 194 0 
Q 188 203 259 391 
Q 375 700 629 1000 
Q 884 1300 1366 1694 
Q 2113 2306 2375 2664 
Q 2638 3022 2638 3341 
Q 2638 3675 2398 3904 
Q 2159 4134 1775 4134 
Q 1369 4134 1125 3890 
Q 881 3647 878 3216 
L 300 3275 
Q 359 3922 746 4261 
Q 1134 4600 1788 4600 
Q 2447 4600 2831 4234 
Q 3216 3869 3216 3328 
Q 3216 3053 3103 2787 
Q 2991 2522 2730 2228 
Q 2469 1934 1863 1422 
Q 1356 997 1212 845 
Q 1069 694 975 541 
L 3222 541 
z
" transform="scale(0.015625)"/>
        <path id="ArialMT-30" d="M 266 2259 
Q 266 3072 433 3567 
Q 600 4063 929 4331 
Q 1259 4600 1759 4600 
Q 2128 4600 2406 4451 
Q 2684 4303 2865 4023 
Q 3047 3744 3150 3342 
Q 3253 2941 3253 2259 
Q 3253 1453 3087 958 
Q 2922 463 2592 192 
Q 2263 -78 1759 -78 
Q 1097 -78 719 397 
Q 266 969 266 2259 
z
M 844 2259 
Q 844 1131 1108 757 
Q 1372 384 1759 384 
Q 2147 384 2411 759 
Q 2675 1134 2675 2259 
Q 2675 3391 2411 3762 
Q 2147 4134 1753 4134 
Q 1366 4134 1134 3806 
Q 844 3388 844 2259 
z
" transform="scale(0.015625)"/>
        <path id="ArialMT-31" d="M 2384 0 
L 1822 0 
L 1822 3584 
Q 1619 3391 1289 3197 
Q 959 3003 697 2906 
L 697 3450 
Q 1169 3672 1522 3987 
Q 1875 4303 2022 4600 
L 2384 4600 
L 2384 0 
z
" transform="scale(0.015625)"/>
       </defs>
       <use xlink:href="#ArialMT-32"/>
       <use xlink:href="#ArialMT-30" x="55.615234"/>
       <use xlink:href="#ArialMT-31" x="111.230469"/>
       <use xlink:href="#ArialMT-32" x="166.845703"/>
      </g>
     </g>
    </g>
    <g id="xtick_3">
     <g id="text_2">
      <!-- 2014 -->
      <g style="fill: #262626" transform="translate(245.365938 205.629219) scale(0.11 -0.11)">
       <defs>
        <path id="ArialMT-34" d="M 2069 0 
L 2069 1097 
L 81 1097 
L 81 1613 
L 2172 4581 
L 2631 4581 
L 2631 1613 
L 3250 1613 
L 3250 1097 
L 2631 1097 
L 2631 0 
L 2069 0 
z
M 2069 1613 
L 2069 3678 
L 634 1613 
L 2069 1613 
z
" transform="scale(0.015625)"/>
       </defs>
       <use xlink:href="#ArialMT-32"/>
       <use xlink:href="#ArialMT-30" x="55.615234"/>
       <use xlink:href="#ArialMT-31" x="111.230469"/>
       <use xlink:href="#ArialMT-34" x="166.845703"/>
      </g>
     </g>
    </g>
    <g id="xtick_4">
     <g id="text_3">
      <!-- 2016 -->
      <g style="fill: #262626" transform="translate(385.765938 205.629219) scale(0.11 -0.11)">
       <defs>
        <path id="ArialMT-36" d="M 3184 3459 
L 2625 3416 
Q 2550 3747 2413 3897 
Q 2184 4138 1850 4138 
Q 1581 4138 1378 3988 
Q 1113 3794 959 3422 
Q 806 3050 800 2363 
Q 1003 2672 1297 2822 
Q 1591 2972 1913 2972 
Q 2475 2972 2870 2558 
Q 3266 2144 3266 1488 
Q 3266 1056 3080 686 
Q 2894 316 2569 119 
Q 2244 -78 1831 -78 
Q 1128 -78 684 439 
Q 241 956 241 2144 
Q 241 3472 731 4075 
Q 1159 4600 1884 4600 
Q 2425 4600 2770 4297 
Q 3116 3994 3184 3459 
z
M 888 1484 
Q 888 1194 1011 928 
Q 1134 663 1356 523 
Q 1578 384 1822 384 
Q 2178 384 2434 671 
Q 2691 959 2691 1453 
Q 2691 1928 2437 2201 
Q 2184 2475 1800 2475 
Q 1419 2475 1153 2201 
Q 888 1928 888 1484 
z
" transform="scale(0.015625)"/>
       </defs>
       <use xlink:href="#ArialMT-32"/>
       <use xlink:href="#ArialMT-30" x="55.615234"/>
       <use xlink:href="#ArialMT-31" x="111.230469"/>
       <use xlink:href="#ArialMT-36" x="166.845703"/>
      </g>
     </g>
    </g>
    <g id="xtick_5">
     <g id="text_4">
      <!-- 2018 -->
      <g style="fill: #262626" transform="translate(526.165938 205.629219) scale(0.11 -0.11)">
       <defs>
        <path id="ArialMT-38" d="M 1131 2484 
Q 781 2613 612 2850 
Q 444 3088 444 3419 
Q 444 3919 803 4259 
Q 1163 4600 1759 4600 
Q 2359 4600 2725 4251 
Q 3091 3903 3091 3403 
Q 3091 3084 2923 2848 
Q 2756 2613 2416 2484 
Q 2838 2347 3058 2040 
Q 3278 1734 3278 1309 
Q 3278 722 2862 322 
Q 2447 -78 1769 -78 
Q 1091 -78 675 323 
Q 259 725 259 1325 
Q 259 1772 486 2073 
Q 713 2375 1131 2484 
z
M 1019 3438 
Q 1019 3113 1228 2906 
Q 1438 2700 1772 2700 
Q 2097 2700 2305 2904 
Q 2513 3109 2513 3406 
Q 2513 3716 2298 3927 
Q 2084 4138 1766 4138 
Q 1444 4138 1231 3931 
Q 1019 3725 1019 3438 
z
M 838 1322 
Q 838 1081 952 856 
Q 1066 631 1291 507 
Q 1516 384 1775 384 
Q 2178 384 2440 643 
Q 2703 903 2703 1303 
Q 2703 1709 2433 1975 
Q 2163 2241 1756 2241 
Q 1359 2241 1098 1978 
Q 838 1716 838 1322 
z
" transform="scale(0.015625)"/>
       </defs>
       <use xlink:href="#ArialMT-32"/>
       <use xlink:href="#ArialMT-30" x="55.615234"/>
       <use xlink:href="#ArialMT-31" x="111.230469"/>
       <use xlink:href="#ArialMT-38" x="166.845703"/>
      </g>
     </g>
    </g>
    <g id="xtick_6">
     <g id="text_5">
      <!-- 2020 -->
      <g style="fill: #262626" transform="translate(667.915938 205.629219) scale(0.11 -0.11)">
       <use xlink:href="#ArialMT-32"/>
       <use xlink:href="#ArialMT-30" x="55.615234"/>
       <use xlink:href="#ArialMT-32" x="111.230469"/>
       <use xlink:href="#ArialMT-30" x="166.845703"/>
      </g>
     </g>
    </g>
    <g id="xtick_7">
     <g id="text_6">
      <!-- 2022 -->
      <g style="fill: #262626" transform="translate(808.315938 205.629219) scale(0.11 -0.11)">
       <use xlink:href="#ArialMT-32"/>
       <use xlink:href="#ArialMT-30" x="55.615234"/>
       <use xlink:href="#ArialMT-32" x="111.230469"/>
       <use xlink:href="#ArialMT-32" x="166.845703"/>
      </g>
     </g>
    </g>
    <g id="xtick_8"/>
    <g id="xtick_9"/>
    <g id="xtick_10"/>
    <g id="xtick_11"/>
    <g id="xtick_12"/>
    <g id="xtick_13"/>
    <g id="text_7">
     <!-- Date -->
     <g style="fill: #262626" transform="translate(452.826875 220.404844) scale(0.12 -0.12)">
      <defs>
       <path id="ArialMT-44" d="M 494 0 
L 494 4581 
L 2072 4581 
Q 2606 4581 2888 4516 
Q 3281 4425 3559 4188 
Q 3922 3881 4101 3404 
Q 4281 2928 4281 2316 
Q 4281 1794 4159 1391 
Q 4038 988 3847 723 
Q 3656 459 3429 307 
Q 3203 156 2883 78 
Q 2563 0 2147 0 
L 494 0 
z
M 1100 541 
L 2078 541 
Q 2531 541 2789 625 
Q 3047 709 3200 863 
Q 3416 1078 3536 1442 
Q 3656 1806 3656 2325 
Q 3656 3044 3420 3430 
Q 3184 3816 2847 3947 
Q 2603 4041 2063 4041 
L 1100 4041 
L 1100 541 
z
" transform="scale(0.015625)"/>
       <path id="ArialMT-61" d="M 2588 409 
Q 2275 144 1986 34 
Q 1697 -75 1366 -75 
Q 819 -75 525 192 
Q 231 459 231 875 
Q 231 1119 342 1320 
Q 453 1522 633 1644 
Q 813 1766 1038 1828 
Q 1203 1872 1538 1913 
Q 2219 1994 2541 2106 
Q 2544 2222 2544 2253 
Q 2544 2597 2384 2738 
Q 2169 2928 1744 2928 
Q 1347 2928 1158 2789 
Q 969 2650 878 2297 
L 328 2372 
Q 403 2725 575 2942 
Q 747 3159 1072 3276 
Q 1397 3394 1825 3394 
Q 2250 3394 2515 3294 
Q 2781 3194 2906 3042 
Q 3031 2891 3081 2659 
Q 3109 2516 3109 2141 
L 3109 1391 
Q 3109 606 3145 398 
Q 3181 191 3288 0 
L 2700 0 
Q 2613 175 2588 409 
z
M 2541 1666 
Q 2234 1541 1622 1453 
Q 1275 1403 1131 1340 
Q 988 1278 909 1158 
Q 831 1038 831 891 
Q 831 666 1001 516 
Q 1172 366 1500 366 
Q 1825 366 2078 508 
Q 2331 650 2450 897 
Q 2541 1088 2541 1459 
L 2541 1666 
z
" transform="scale(0.015625)"/>
       <path id="ArialMT-74" d="M 1650 503 
L 1731 6 
Q 1494 -44 1306 -44 
Q 1000 -44 831 53 
Q 663 150 594 308 
Q 525 466 525 972 
L 525 2881 
L 113 2881 
L 113 3319 
L 525 3319 
L 525 4141 
L 1084 4478 
L 1084 3319 
L 1650 3319 
L 1650 2881 
L 1084 2881 
L 1084 941 
Q 1084 700 1114 631 
Q 1144 563 1211 522 
Q 1278 481 1403 481 
Q 1497 481 1650 503 
z
" transform="scale(0.015625)"/>
       <path id="ArialMT-65" d="M 2694 1069 
L 3275 997 
Q 3138 488 2766 206 
Q 2394 -75 1816 -75 
Q 1088 -75 661 373 
Q 234 822 234 1631 
Q 234 2469 665 2931 
Q 1097 3394 1784 3394 
Q 2450 3394 2872 2941 
Q 3294 2488 3294 1666 
Q 3294 1616 3291 1516 
L 816 1516 
Q 847 969 1125 678 
Q 1403 388 1819 388 
Q 2128 388 2347 550 
Q 2566 713 2694 1069 
z
M 847 1978 
L 2700 1978 
Q 2663 2397 2488 2606 
Q 2219 2931 1791 2931 
Q 1403 2931 1139 2672 
Q 875 2413 847 1978 
z
" transform="scale(0.015625)"/>
      </defs>
      <use xlink:href="#ArialMT-44"/>
      <use xlink:href="#ArialMT-61" x="72.216797"/>
      <use xlink:href="#ArialMT-74" x="127.832031"/>
      <use xlink:href="#ArialMT-65" x="155.615234"/>
     </g>
    </g>
   </g>
   <g id="matplotlib.axis_2">
    <g id="ytick_1">
     <g id="text_8">
      <!-- 0.0 -->
      <g style="fill: #262626" transform="translate(22.21 184.645367) scale(0.11 -0.11)">
       <defs>
        <path id="ArialMT-2e" d="M 581 0 
L 581 641 
L 1222 641 
L 1222 0 
L 581 0 
z
" transform="scale(0.015625)"/>
       </defs>
       <use xlink:href="#ArialMT-30"/>
       <use xlink:href="#ArialMT-2e" x="55.615234"/>
       <use xlink:href="#ArialMT-30" x="83.398438"/>
      </g>
     </g>
    </g>
    <g id="ytick_2">
     <g id="text_9">
      <!-- 0.5 -->
      <g style="fill: #262626" transform="translate(22.21 148.20825) scale(0.11 -0.11)">
       <defs>
        <path id="ArialMT-35" d="M 266 1200 
L 856 1250 
Q 922 819 1161 601 
Q 1400 384 1738 384 
Q 2144 384 2425 690 
Q 2706 997 2706 1503 
Q 2706 1984 2436 2262 
Q 2166 2541 1728 2541 
Q 1456 2541 1237 2417 
Q 1019 2294 894 2097 
L 366 2166 
L 809 4519 
L 3088 4519 
L 3088 3981 
L 1259 3981 
L 1013 2750 
Q 1425 3038 1878 3038 
Q 2478 3038 2890 2622 
Q 3303 2206 3303 1553 
Q 3303 931 2941 478 
Q 2500 -78 1738 -78 
Q 1113 -78 717 272 
Q 322 622 266 1200 
z
" transform="scale(0.015625)"/>
       </defs>
       <use xlink:href="#ArialMT-30"/>
       <use xlink:href="#ArialMT-2e" x="55.615234"/>
       <use xlink:href="#ArialMT-35" x="83.398438"/>
      </g>
     </g>
    </g>
    <g id="ytick_3">
     <g id="text_10">
      <!-- 1.0 -->
      <g style="fill: #262626" transform="translate(22.21 111.771133) scale(0.11 -0.11)">
       <use xlink:href="#ArialMT-31"/>
       <use xlink:href="#ArialMT-2e" x="55.615234"/>
       <use xlink:href="#ArialMT-30" x="83.398438"/>
      </g>
     </g>
    </g>
    <g id="ytick_4">
     <g id="text_11">
      <!-- 1.5 -->
      <g style="fill: #262626" transform="translate(22.21 75.334016) scale(0.11 -0.11)">
       <use xlink:href="#ArialMT-31"/>
       <use xlink:href="#ArialMT-2e" x="55.615234"/>
       <use xlink:href="#ArialMT-35" x="83.398438"/>
      </g>
     </g>
    </g>
    <g id="ytick_5">
     <g id="text_12">
      <!-- 2.0 -->
      <g style="fill: #262626" transform="translate(22.21 38.896899) scale(0.11 -0.11)">
       <use xlink:href="#ArialMT-32"/>
       <use xlink:href="#ArialMT-2e" x="55.615234"/>
       <use xlink:href="#ArialMT-30" x="83.398438"/>
      </g>
     </g>
    </g>
    <g id="text_13">
     <!-- absolute_error [1e3 trips] -->
     <g style="fill: #262626" transform="translate(15.825 171.793125) rotate(-90) scale(0.12 -0.12)">
      <defs>
       <path id="ArialMT-62" d="M 941 0 
L 419 0 
L 419 4581 
L 981 4581 
L 981 2947 
Q 1338 3394 1891 3394 
Q 2197 3394 2470 3270 
Q 2744 3147 2920 2923 
Q 3097 2700 3197 2384 
Q 3297 2069 3297 1709 
Q 3297 856 2875 390 
Q 2453 -75 1863 -75 
Q 1275 -75 941 416 
L 941 0 
z
M 934 1684 
Q 934 1088 1097 822 
Q 1363 388 1816 388 
Q 2184 388 2453 708 
Q 2722 1028 2722 1663 
Q 2722 2313 2464 2622 
Q 2206 2931 1841 2931 
Q 1472 2931 1203 2611 
Q 934 2291 934 1684 
z
" transform="scale(0.015625)"/>
       <path id="ArialMT-73" d="M 197 991 
L 753 1078 
Q 800 744 1014 566 
Q 1228 388 1613 388 
Q 2000 388 2187 545 
Q 2375 703 2375 916 
Q 2375 1106 2209 1216 
Q 2094 1291 1634 1406 
Q 1016 1563 777 1677 
Q 538 1791 414 1992 
Q 291 2194 291 2438 
Q 291 2659 392 2848 
Q 494 3038 669 3163 
Q 800 3259 1026 3326 
Q 1253 3394 1513 3394 
Q 1903 3394 2198 3281 
Q 2494 3169 2634 2976 
Q 2775 2784 2828 2463 
L 2278 2388 
Q 2241 2644 2061 2787 
Q 1881 2931 1553 2931 
Q 1166 2931 1000 2803 
Q 834 2675 834 2503 
Q 834 2394 903 2306 
Q 972 2216 1119 2156 
Q 1203 2125 1616 2013 
Q 2213 1853 2448 1751 
Q 2684 1650 2818 1456 
Q 2953 1263 2953 975 
Q 2953 694 2789 445 
Q 2625 197 2315 61 
Q 2006 -75 1616 -75 
Q 969 -75 630 194 
Q 291 463 197 991 
z
" transform="scale(0.015625)"/>
       <path id="ArialMT-6f" d="M 213 1659 
Q 213 2581 725 3025 
Q 1153 3394 1769 3394 
Q 2453 3394 2887 2945 
Q 3322 2497 3322 1706 
Q 3322 1066 3130 698 
Q 2938 331 2570 128 
Q 2203 -75 1769 -75 
Q 1072 -75 642 372 
Q 213 819 213 1659 
z
M 791 1659 
Q 791 1022 1069 705 
Q 1347 388 1769 388 
Q 2188 388 2466 706 
Q 2744 1025 2744 1678 
Q 2744 2294 2464 2611 
Q 2184 2928 1769 2928 
Q 1347 2928 1069 2612 
Q 791 2297 791 1659 
z
" transform="scale(0.015625)"/>
       <path id="ArialMT-6c" d="M 409 0 
L 409 4581 
L 972 4581 
L 972 0 
L 409 0 
z
" transform="scale(0.015625)"/>
       <path id="ArialMT-75" d="M 2597 0 
L 2597 488 
Q 2209 -75 1544 -75 
Q 1250 -75 995 37 
Q 741 150 617 320 
Q 494 491 444 738 
Q 409 903 409 1263 
L 409 3319 
L 972 3319 
L 972 1478 
Q 972 1038 1006 884 
Q 1059 663 1231 536 
Q 1403 409 1656 409 
Q 1909 409 2131 539 
Q 2353 669 2445 892 
Q 2538 1116 2538 1541 
L 2538 3319 
L 3100 3319 
L 3100 0 
L 2597 0 
z
" transform="scale(0.015625)"/>
       <path id="ArialMT-5f" d="M -97 -1272 
L -97 -866 
L 3631 -866 
L 3631 -1272 
L -97 -1272 
z
" transform="scale(0.015625)"/>
       <path id="ArialMT-72" d="M 416 0 
L 416 3319 
L 922 3319 
L 922 2816 
Q 1116 3169 1280 3281 
Q 1444 3394 1641 3394 
Q 1925 3394 2219 3213 
L 2025 2691 
Q 1819 2813 1613 2813 
Q 1428 2813 1281 2702 
Q 1134 2591 1072 2394 
Q 978 2094 978 1738 
L 978 0 
L 416 0 
z
" transform="scale(0.015625)"/>
       <path id="ArialMT-20" transform="scale(0.015625)"/>
       <path id="ArialMT-5b" d="M 434 -1272 
L 434 4581 
L 1675 4581 
L 1675 4116 
L 997 4116 
L 997 -806 
L 1675 -806 
L 1675 -1272 
L 434 -1272 
z
" transform="scale(0.015625)"/>
       <path id="ArialMT-33" d="M 269 1209 
L 831 1284 
Q 928 806 1161 595 
Q 1394 384 1728 384 
Q 2125 384 2398 659 
Q 2672 934 2672 1341 
Q 2672 1728 2419 1979 
Q 2166 2231 1775 2231 
Q 1616 2231 1378 2169 
L 1441 2663 
Q 1497 2656 1531 2656 
Q 1891 2656 2178 2843 
Q 2466 3031 2466 3422 
Q 2466 3731 2256 3934 
Q 2047 4138 1716 4138 
Q 1388 4138 1169 3931 
Q 950 3725 888 3313 
L 325 3413 
Q 428 3978 793 4289 
Q 1159 4600 1703 4600 
Q 2078 4600 2393 4439 
Q 2709 4278 2876 4000 
Q 3044 3722 3044 3409 
Q 3044 3113 2884 2869 
Q 2725 2625 2413 2481 
Q 2819 2388 3044 2092 
Q 3269 1797 3269 1353 
Q 3269 753 2831 336 
Q 2394 -81 1725 -81 
Q 1122 -81 723 278 
Q 325 638 269 1209 
z
" transform="scale(0.015625)"/>
       <path id="ArialMT-69" d="M 425 3934 
L 425 4581 
L 988 4581 
L 988 3934 
L 425 3934 
z
M 425 0 
L 425 3319 
L 988 3319 
L 988 0 
L 425 0 
z
" transform="scale(0.015625)"/>
       <path id="ArialMT-70" d="M 422 -1272 
L 422 3319 
L 934 3319 
L 934 2888 
Q 1116 3141 1344 3267 
Q 1572 3394 1897 3394 
Q 2322 3394 2647 3175 
Q 2972 2956 3137 2557 
Q 3303 2159 3303 1684 
Q 3303 1175 3120 767 
Q 2938 359 2589 142 
Q 2241 -75 1856 -75 
Q 1575 -75 1351 44 
Q 1128 163 984 344 
L 984 -1272 
L 422 -1272 
z
M 931 1641 
Q 931 1000 1190 694 
Q 1450 388 1819 388 
Q 2194 388 2461 705 
Q 2728 1022 2728 1688 
Q 2728 2322 2467 2637 
Q 2206 2953 1844 2953 
Q 1484 2953 1207 2617 
Q 931 2281 931 1641 
z
" transform="scale(0.015625)"/>
       <path id="ArialMT-5d" d="M 1363 -1272 
L 122 -1272 
L 122 -806 
L 800 -806 
L 800 4116 
L 122 4116 
L 122 4581 
L 1363 4581 
L 1363 -1272 
z
" transform="scale(0.015625)"/>
      </defs>
      <use xlink:href="#ArialMT-61"/>
      <use xlink:href="#ArialMT-62" x="55.615234"/>
      <use xlink:href="#ArialMT-73" x="111.230469"/>
      <use xlink:href="#ArialMT-6f" x="161.230469"/>
      <use xlink:href="#ArialMT-6c" x="216.845703"/>
      <use xlink:href="#ArialMT-75" x="239.0625"/>
      <use xlink:href="#ArialMT-74" x="294.677734"/>
      <use xlink:href="#ArialMT-65" x="322.460938"/>
      <use xlink:href="#ArialMT-5f" x="378.076172"/>
      <use xlink:href="#ArialMT-65" x="433.691406"/>
      <use xlink:href="#ArialMT-72" x="489.306641"/>
      <use xlink:href="#ArialMT-72" x="522.607422"/>
      <use xlink:href="#ArialMT-6f" x="555.908203"/>
      <use xlink:href="#ArialMT-72" x="611.523438"/>
      <use xlink:href="#ArialMT-20" x="644.824219"/>
      <use xlink:href="#ArialMT-5b" x="672.607422"/>
      <use xlink:href="#ArialMT-31" x="700.390625"/>
      <use xlink:href="#ArialMT-65" x="756.005859"/>
      <use xlink:href="#ArialMT-33" x="811.621094"/>
      <use xlink:href="#ArialMT-20" x="867.236328"/>
      <use xlink:href="#ArialMT-74" x="895.019531"/>
      <use xlink:href="#ArialMT-72" x="922.802734"/>
      <use xlink:href="#ArialMT-69" x="956.103516"/>
      <use xlink:href="#ArialMT-70" x="978.320312"/>
      <use xlink:href="#ArialMT-73" x="1033.935547"/>
      <use xlink:href="#ArialMT-5d" x="1083.935547"/>
     </g>
    </g>
   </g>
   <g id="line2d_1">
    <path d="M 47 180.614211 
L 48.35 180.165673 
L 49.7 180.513282 
L 51.05 179.710543 
L 52.4 180.667987 
L 53.75 177.599564 
L 55.1 180.399545 
L 56.45 180.483996 
L 57.8 179.553484 
L 59.15 180.658815 
L 60.5 180.579973 
L 61.85 178.959529 
L 63.2 179.845331 
L 64.55 179.301161 
L 65.9 180.578731 
L 67.25 180.430947 
L 71.3 180.574974 
L 76.7 180.506614 
L 78.05 180.621342 
L 79.4 180.579706 
L 80.75 180.287611 
L 82.1 180.619222 
L 86.15 180.609726 
L 87.5 180.695625 
L 90.2 180.575916 
L 91.55 180.584927 
L 92.9 180.269161 
L 94.25 180.687322 
L 95.6 180.473974 
L 96.95 180.661822 
L 98.3 180.649139 
L 99.65 180.521369 
L 101 180.254099 
L 102.35 180.599204 
L 103.7 180.637155 
L 105.05 180.469283 
L 106.4 180.611745 
L 107.75 180.260676 
L 109.1 180.680211 
L 111.8 180.344493 
L 113.15 180.666973 
L 114.5 180.468064 
L 115.85 180.587714 
L 118.55 179.777659 
L 119.9 180.470816 
L 121.25 179.896817 
L 122.6 180.425851 
L 123.95 177.831526 
L 125.3 180.572932 
L 126.65 180.554069 
L 128 179.34808 
L 129.35 180.406356 
L 130.7 180.246335 
L 132.05 178.623799 
L 133.4 179.557617 
L 134.75 177.532925 
L 136.1 177.039106 
L 137.45 147.929162 
L 138.8 174.293479 
L 140.15 178.452506 
L 141.5 171.096269 
L 142.85 162.328839 
L 144.2 170.9264 
L 145.55 161.662824 
L 146.9 164.246099 
L 148.25 167.070756 
L 149.6 158.143994 
L 150.95 178.993656 
L 152.3 178.577157 
L 153.65 169.288882 
L 155 174.746268 
L 156.35 174.463291 
L 157.7 155.20248 
L 159.05 157.666386 
L 160.4 147.021719 
L 161.75 157.749326 
L 163.1 163.950469 
L 164.45 179.77878 
L 165.8 155.945625 
L 167.15 169.12672 
L 168.5 159.811281 
L 169.85 163.555676 
L 171.2 158.088878 
L 172.55 169.27394 
L 173.9 103.256952 
L 175.25 161.262033 
L 176.6 149.584024 
L 177.95 161.824657 
L 179.3 150.04556 
L 180.65 150.748799 
L 182 164.426093 
L 183.35 139.802418 
L 184.7 180.488367 
L 186.05 148.049414 
L 187.4 157.208524 
L 188.75 153.73777 
L 190.1 133.856162 
L 191.45 144.466632 
L 192.8 176.23141 
L 194.15 144.805092 
L 195.5 144.214957 
L 196.85 158.870289 
L 198.2 161.610885 
L 199.55 160.242755 
L 200.9 157.121211 
L 202.25 141.85891 
L 203.6 136.938926 
L 204.95 138.290251 
L 206.3 155.663002 
L 207.65 178.695548 
L 209 156.828585 
L 210.35 153.816451 
L 211.7 160.421547 
L 213.05 146.67675 
L 214.4 145.956929 
L 215.75 165.82881 
L 217.1 162.386755 
L 218.45 164.015013 
L 219.8 136.069265 
L 221.15 172.993146 
L 222.5 167.32872 
L 223.85 170.51429 
L 225.2 158.648487 
L 226.55 132.456793 
L 227.9 180.452006 
L 229.25 153.528418 
L 230.6 129.898074 
L 231.95 159.042776 
L 233.3 141.8772 
L 234.65 148.068091 
L 236 137.568847 
L 237.35 165.453662 
L 238.7 165.312393 
L 240.05 164.264034 
L 241.4 162.716189 
L 242.75 159.106635 
L 244.1 148.754119 
L 245.45 146.494902 
L 246.8 161.419482 
L 248.15 123.36898 
L 249.5 159.180131 
L 250.85 161.125593 
L 252.2 169.727927 
L 253.55 146.027234 
L 254.9 177.628282 
L 257.6 147.629828 
L 258.95 153.636893 
L 260.3 172.775333 
L 261.65 158.223335 
L 263 174.89658 
L 264.35 164.917959 
L 265.7 162.758297 
L 267.05 156.094947 
L 268.4 153.370077 
L 269.75 160.002484 
L 271.1 162.552016 
L 272.45 148.100793 
L 273.8 146.317161 
L 275.15 148.393824 
L 276.5 171.385762 
L 277.85 165.69006 
L 279.2 167.586896 
L 280.55 167.594655 
L 281.9 178.500059 
L 283.25 151.107891 
L 284.6 154.468356 
L 285.95 170.856948 
L 287.3 166.489381 
L 288.65 168.920533 
L 290 148.99224 
L 291.35 179.146553 
L 292.7 174.687772 
L 294.05 179.981597 
L 295.4 159.693226 
L 296.75 163.527988 
L 298.1 148.525852 
L 299.45 145.908375 
L 300.8 142.07329 
L 302.15 159.24597 
L 303.5 149.02151 
L 304.85 154.505912 
L 306.2 151.256862 
L 307.55 175.705796 
L 308.9 169.007642 
L 310.25 163.460078 
L 311.6 155.539456 
L 312.95 161.706984 
L 314.3 154.527073 
L 315.65 149.112678 
L 317 158.017457 
L 318.35 126.809193 
L 319.7 169.113911 
L 321.05 158.788921 
L 322.4 163.825638 
L 323.75 130.629541 
L 325.1 173.576332 
L 326.45 157.479136 
L 327.8 151.695902 
L 329.15 149.763751 
L 330.5 155.143559 
L 331.85 158.94537 
L 333.2 178.169456 
L 334.55 144.983607 
L 335.9 157.59095 
L 337.25 167.872195 
L 338.6 172.926573 
L 339.95 175.763191 
L 341.3 166.567557 
L 342.65 146.284177 
L 344 155.099629 
L 345.35 152.087064 
L 346.7 162.611319 
L 348.05 159.887798 
L 349.4 170.641615 
L 350.75 172.714527 
L 352.1 171.999153 
L 353.45 157.455212 
L 354.8 160.117275 
L 356.15 168.288104 
L 357.5 163.761101 
L 358.85 169.274967 
L 360.2 148.626468 
L 361.55 176.136753 
L 364.25 171.326781 
L 365.6 168.401184 
L 366.95 168.882611 
L 368.3 159.312149 
L 369.65 165.361518 
L 371 151.298832 
L 372.35 172.752859 
L 373.7 172.316285 
L 375.05 176.604611 
L 376.4 163.72238 
L 377.75 180.681447 
L 379.1 178.27111 
L 380.45 175.477253 
L 381.8 171.527782 
L 383.15 173.620599 
L 384.5 165.481172 
L 385.85 164.279647 
L 387.2 167.197938 
L 388.55 155.215685 
L 389.9 159.472394 
L 391.25 172.644319 
L 392.6 176.773968 
L 393.95 145.148903 
L 395.3 168.32214 
L 396.65 172.150685 
L 398 179.883085 
L 400.7 153.499527 
L 402.05 165.90106 
L 403.4 172.870267 
L 404.75 178.385051 
L 406.1 164.796558 
L 407.45 163.57178 
L 408.8 180.116196 
L 410.15 168.769931 
L 411.5 174.522682 
L 412.85 174.609631 
L 414.2 168.634274 
L 415.55 152.600601 
L 416.9 164.77765 
L 419.6 180.07801 
L 420.95 178.351029 
L 422.3 180.667399 
L 423.65 180.339939 
L 425 170.980964 
L 426.35 175.181592 
L 427.7 178.769825 
L 429.05 179.192053 
L 430.4 178.19713 
L 431.75 172.433743 
L 433.1 169.369224 
L 434.45 174.869459 
L 435.8 168.388543 
L 437.15 180.021234 
L 438.5 171.313638 
L 439.85 171.72256 
L 441.2 177.888815 
L 442.55 172.115566 
L 443.9 161.182199 
L 445.25 180.023103 
L 446.6 168.34632 
L 447.95 170.480242 
L 449.3 177.844231 
L 450.65 178.093448 
L 452 169.353367 
L 453.35 177.131063 
L 454.7 173.610604 
L 456.05 179.552086 
L 457.4 179.552765 
L 458.75 178.994132 
L 460.1 161.813132 
L 461.45 174.908384 
L 462.8 178.62353 
L 464.15 177.947339 
L 465.5 163.466181 
L 466.85 166.365049 
L 468.2 178.446458 
L 469.55 179.377639 
L 470.9 173.462318 
L 473.6 167.183496 
L 474.95 140.216821 
L 476.3 175.147526 
L 477.65 175.700873 
L 479 168.269822 
L 480.35 154.67812 
L 481.7 120.720827 
L 483.05 154.328307 
L 484.4 179.077393 
L 485.75 179.6364 
L 487.1 147.38956 
L 488.45 163.22909 
L 489.8 168.61872 
L 491.15 157.973773 
L 492.5 155.224143 
L 493.85 169.433173 
L 495.2 173.357008 
L 496.55 174.855489 
L 497.9 179.617436 
L 499.25 180.196336 
L 500.6 170.184584 
L 501.95 169.432131 
L 503.3 158.320523 
L 504.65 153.376448 
L 506 146.335514 
L 507.35 153.524553 
L 508.7 151.311052 
L 510.05 159.443364 
L 511.4 156.78948 
L 512.75 164.48195 
L 514.1 137.78633 
L 515.45 152.611008 
L 516.8 140.739587 
L 518.15 132.539457 
L 519.5 152.953034 
L 520.85 161.1388 
L 522.2 153.574618 
L 523.55 154.910655 
L 524.9 165.243849 
L 526.25 159.389204 
L 527.6 171.907647 
L 528.95 172.598159 
L 530.3 140.625911 
L 531.65 174.79516 
L 533 177.357134 
L 534.35 172.649815 
L 535.7 172.104654 
L 537.05 160.898515 
L 538.4 157.816814 
L 539.75 163.547476 
L 541.1 162.264501 
L 542.45 165.074288 
L 543.8 154.117032 
L 545.15 147.714199 
L 546.5 164.191823 
L 547.85 159.579389 
L 549.2 147.942122 
L 550.55 141.322179 
L 551.9 143.81855 
L 553.25 137.931649 
L 555.95 174.141635 
L 557.3 161.635501 
L 558.65 164.243311 
L 560 160.256009 
L 561.35 150.800875 
L 562.7 154.27164 
L 564.05 153.039121 
L 565.4 148.554326 
L 566.75 159.314368 
L 568.1 158.6169 
L 569.45 155.815322 
L 570.8 150.895105 
L 572.15 162.511695 
L 573.5 135.355218 
L 574.85 136.591509 
L 576.2 134.413513 
L 577.55 145.065615 
L 578.9 139.4942 
L 580.25 151.767285 
L 581.6 146.761235 
L 582.95 146.996613 
L 584.3 129.733252 
L 585.65 132.492199 
L 587 122.997215 
L 588.35 129.025323 
L 589.7 135.810882 
L 591.05 144.627839 
L 592.4 138.519201 
L 593.75 138.719421 
L 595.1 144.001017 
L 596.45 148.747574 
L 597.8 156.950462 
L 599.15 153.844329 
L 600.5 136.48924 
L 601.85 157.897002 
L 603.2 152.069177 
L 604.55 141.475404 
L 605.9 153.116477 
L 607.25 129.383481 
L 608.6 143.410379 
L 611.3 141.744226 
L 612.65 137.107046 
L 614 128.431879 
L 615.35 120.756685 
L 616.7 130.663262 
L 618.05 132.152089 
L 619.4 130.024342 
L 620.75 124.814355 
L 622.1 112.520652 
L 623.45 125.620681 
L 626.15 162.532586 
L 627.5 139.121674 
L 628.85 140.682933 
L 630.2 139.885799 
L 631.55 144.325622 
L 632.9 144.378249 
L 634.25 143.49132 
L 635.6 144.527223 
L 636.95 147.606234 
L 638.3 141.239304 
L 639.65 140.351898 
L 641 142.022649 
L 642.35 153.484495 
L 643.7 122.937197 
L 645.05 126.594873 
L 646.4 131.401747 
L 647.75 134.612597 
L 649.1 129.593611 
L 650.45 133.999343 
L 651.8 130.750638 
L 653.15 140.439554 
L 654.5 119.592658 
L 655.85 118.246805 
L 657.2 123.96756 
L 658.55 128.387639 
L 659.9 129.204575 
L 661.25 133.026207 
L 662.6 130.201166 
L 663.95 131.182701 
L 665.3 137.499644 
L 666.65 139.39186 
L 668 144.345212 
L 669.35 153.782931 
L 670.7 155.174635 
L 672.05 133.186381 
L 673.4 146.361947 
L 674.75 154.541639 
L 676.1 155.451159 
L 677.45 123.414999 
L 678.8 142.124598 
L 680.15 137.340693 
L 681.5 146.860687 
L 684.2 127.453654 
L 685.55 126.553829 
L 686.9 139.778698 
L 688.25 137.95322 
L 689.6 133.104381 
L 690.95 120.666219 
L 692.3 67.222241 
L 693.65 29.495625 
L 695 77.024434 
L 696.35 89.597191 
L 697.7 64.733663 
L 699.05 96.42062 
L 700.4 102.233376 
L 701.75 94.050316 
L 703.1 99.234109 
L 704.45 100.431315 
L 705.8 108.51302 
L 707.15 106.601958 
L 708.5 113.461977 
L 709.85 121.368502 
L 711.2 136.93939 
L 712.55 141.253835 
L 713.9 141.214333 
L 715.25 140.256783 
L 716.6 133.388668 
L 717.95 138.741276 
L 719.3 145.689314 
L 720.65 156.823149 
L 722 158.723797 
L 723.35 160.213307 
L 726.05 123.403711 
L 727.4 131.058773 
L 728.75 135.535405 
L 730.1 155.094735 
L 731.45 155.431961 
L 732.8 144.478401 
L 734.15 144.636005 
L 735.5 153.31998 
L 736.85 145.211883 
L 738.2 152.198925 
L 739.55 149.727942 
L 740.9 148.38539 
L 743.6 137.080351 
L 744.95 144.965287 
L 746.3 154.157825 
L 747.65 156.955403 
L 749 149.660857 
L 750.35 148.575563 
L 751.7 149.846393 
L 753.05 146.612478 
L 754.4 145.159094 
L 755.75 138.676154 
L 757.1 140.362329 
L 758.45 146.48359 
L 759.8 141.919467 
L 761.15 148.205312 
L 762.5 141.338073 
L 763.85 125.269637 
L 765.2 131.2567 
L 766.55 150.734782 
L 767.9 152.709849 
L 769.25 143.622719 
L 770.6 155.572716 
L 771.95 154.350308 
L 773.3 145.78677 
L 774.65 151.602852 
L 776 149.530451 
L 777.35 154.705878 
L 778.7 154.279451 
L 780.05 160.284579 
L 781.4 155.305255 
L 782.75 154.424226 
L 784.1 153.822048 
L 786.8 156.892814 
L 788.15 145.915563 
L 789.5 148.463574 
L 790.85 155.052654 
L 792.2 167.223408 
L 793.55 165.509775 
L 794.9 168.528105 
L 796.25 147.888152 
L 797.6 136.599798 
L 798.95 138.297886 
L 800.3 137.565862 
L 801.65 154.828726 
L 803 156.506301 
L 804.35 150.796091 
L 805.7 146.706474 
L 807.05 156.187715 
L 808.4 148.065539 
L 809.75 153.898874 
L 811.1 152.896534 
L 812.45 145.296275 
L 813.8 149.707291 
L 815.15 151.801283 
L 816.5 132.956576 
L 817.85 134.729155 
L 819.2 149.463621 
L 820.55 147.298479 
L 821.9 148.184837 
L 823.25 146.961127 
L 824.6 140.901265 
L 825.95 144.444904 
L 827.3 143.485943 
L 828.65 148.25399 
L 830 159.4534 
L 831.35 144.250206 
L 832.7 139.234821 
L 834.05 122.29031 
L 835.4 137.882758 
L 836.75 159.65844 
L 838.1 154.441629 
L 839.45 138.932516 
L 840.8 151.568324 
L 842.15 149.62572 
L 843.5 137.405353 
L 844.85 141.422944 
L 846.2 138.65418 
L 847.55 143.350484 
L 848.9 140.217394 
L 850.25 147.775625 
L 851.6 143.692841 
L 852.95 137.085819 
L 854.3 139.247012 
L 855.65 140.794577 
L 857 143.908175 
L 858.35 140.005826 
L 859.7 140.191185 
L 861.05 146.305851 
L 862.4 156.094082 
L 863.75 157.173586 
L 865.1 161.319141 
L 866.45 141.806326 
L 869.15 125.305626 
L 870.5 129.898147 
L 871.85 152.260056 
L 873.2 154.537122 
L 874.55 147.007349 
L 875.9 141.639304 
L 877.25 151.816802 
L 878.6 136.719354 
L 879.95 144.992264 
L 881.3 129.497825 
L 882.65 136.179525 
L 884 169.677894 
L 884 169.677894 
" clip-path="url(#p79d5a34e10)" style="fill: none; stroke: #2e1e3b; stroke-width: 1.5; stroke-linecap: round"/>
   </g>
   <g id="patch_5">
    <path d="M 47 188.255625 
L 47 21.935625 
" style="fill: none; stroke: #262626; stroke-width: 1.25; stroke-linejoin: miter; stroke-linecap: square"/>
   </g>
   <g id="patch_6">
    <path d="M 884 188.255625 
L 884 21.935625 
" style="fill: none; stroke: #262626; stroke-width: 1.25; stroke-linejoin: miter; stroke-linecap: square"/>
   </g>
   <g id="patch_7">
    <path d="M 47 188.255625 
L 884 188.255625 
" style="fill: none; stroke: #262626; stroke-width: 1.25; stroke-linejoin: miter; stroke-linecap: square"/>
   </g>
   <g id="patch_8">
    <path d="M 47 21.935625 
L 884 21.935625 
" style="fill: none; stroke: #262626; stroke-width: 1.25; stroke-linejoin: miter; stroke-linecap: square"/>
   </g>
   <g id="text_14">
    <!-- Daily absolute_error in thousands of trips -->
    <g style="fill: #262626" transform="translate(356.45 15.935625) scale(0.12 -0.12)">
     <defs>
      <path id="ArialMT-79" d="M 397 -1278 
L 334 -750 
Q 519 -800 656 -800 
Q 844 -800 956 -737 
Q 1069 -675 1141 -563 
Q 1194 -478 1313 -144 
Q 1328 -97 1363 -6 
L 103 3319 
L 709 3319 
L 1400 1397 
Q 1534 1031 1641 628 
Q 1738 1016 1872 1384 
L 2581 3319 
L 3144 3319 
L 1881 -56 
Q 1678 -603 1566 -809 
Q 1416 -1088 1222 -1217 
Q 1028 -1347 759 -1347 
Q 597 -1347 397 -1278 
z
" transform="scale(0.015625)"/>
      <path id="ArialMT-6e" d="M 422 0 
L 422 3319 
L 928 3319 
L 928 2847 
Q 1294 3394 1984 3394 
Q 2284 3394 2536 3286 
Q 2788 3178 2913 3003 
Q 3038 2828 3088 2588 
Q 3119 2431 3119 2041 
L 3119 0 
L 2556 0 
L 2556 2019 
Q 2556 2363 2490 2533 
Q 2425 2703 2258 2804 
Q 2091 2906 1866 2906 
Q 1506 2906 1245 2678 
Q 984 2450 984 1813 
L 984 0 
L 422 0 
z
" transform="scale(0.015625)"/>
      <path id="ArialMT-68" d="M 422 0 
L 422 4581 
L 984 4581 
L 984 2938 
Q 1378 3394 1978 3394 
Q 2347 3394 2619 3248 
Q 2891 3103 3008 2847 
Q 3125 2591 3125 2103 
L 3125 0 
L 2563 0 
L 2563 2103 
Q 2563 2525 2380 2717 
Q 2197 2909 1863 2909 
Q 1613 2909 1392 2779 
Q 1172 2650 1078 2428 
Q 984 2206 984 1816 
L 984 0 
L 422 0 
z
" transform="scale(0.015625)"/>
      <path id="ArialMT-64" d="M 2575 0 
L 2575 419 
Q 2259 -75 1647 -75 
Q 1250 -75 917 144 
Q 584 363 401 755 
Q 219 1147 219 1656 
Q 219 2153 384 2558 
Q 550 2963 881 3178 
Q 1213 3394 1622 3394 
Q 1922 3394 2156 3267 
Q 2391 3141 2538 2938 
L 2538 4581 
L 3097 4581 
L 3097 0 
L 2575 0 
z
M 797 1656 
Q 797 1019 1065 703 
Q 1334 388 1700 388 
Q 2069 388 2326 689 
Q 2584 991 2584 1609 
Q 2584 2291 2321 2609 
Q 2059 2928 1675 2928 
Q 1300 2928 1048 2622 
Q 797 2316 797 1656 
z
" transform="scale(0.015625)"/>
      <path id="ArialMT-66" d="M 556 0 
L 556 2881 
L 59 2881 
L 59 3319 
L 556 3319 
L 556 3672 
Q 556 4006 616 4169 
Q 697 4388 901 4523 
Q 1106 4659 1475 4659 
Q 1713 4659 2000 4603 
L 1916 4113 
Q 1741 4144 1584 4144 
Q 1328 4144 1222 4034 
Q 1116 3925 1116 3625 
L 1116 3319 
L 1763 3319 
L 1763 2881 
L 1116 2881 
L 1116 0 
L 556 0 
z
" transform="scale(0.015625)"/>
     </defs>
     <use xlink:href="#ArialMT-44"/>
     <use xlink:href="#ArialMT-61" x="72.216797"/>
     <use xlink:href="#ArialMT-69" x="127.832031"/>
     <use xlink:href="#ArialMT-6c" x="150.048828"/>
     <use xlink:href="#ArialMT-79" x="172.265625"/>
     <use xlink:href="#ArialMT-20" x="222.265625"/>
     <use xlink:href="#ArialMT-61" x="250.048828"/>
     <use xlink:href="#ArialMT-62" x="305.664062"/>
     <use xlink:href="#ArialMT-73" x="361.279297"/>
     <use xlink:href="#ArialMT-6f" x="411.279297"/>
     <use xlink:href="#ArialMT-6c" x="466.894531"/>
     <use xlink:href="#ArialMT-75" x="489.111328"/>
     <use xlink:href="#ArialMT-74" x="544.726562"/>
     <use xlink:href="#ArialMT-65" x="572.509766"/>
     <use xlink:href="#ArialMT-5f" x="628.125"/>
     <use xlink:href="#ArialMT-65" x="683.740234"/>
     <use xlink:href="#ArialMT-72" x="739.355469"/>
     <use xlink:href="#ArialMT-72" x="772.65625"/>
     <use xlink:href="#ArialMT-6f" x="805.957031"/>
     <use xlink:href="#ArialMT-72" x="861.572266"/>
     <use xlink:href="#ArialMT-20" x="894.873047"/>
     <use xlink:href="#ArialMT-69" x="922.65625"/>
     <use xlink:href="#ArialMT-6e" x="944.873047"/>
     <use xlink:href="#ArialMT-20" x="1000.488281"/>
     <use xlink:href="#ArialMT-74" x="1028.271484"/>
     <use xlink:href="#ArialMT-68" x="1056.054688"/>
     <use xlink:href="#ArialMT-6f" x="1111.669922"/>
     <use xlink:href="#ArialMT-75" x="1167.285156"/>
     <use xlink:href="#ArialMT-73" x="1222.900391"/>
     <use xlink:href="#ArialMT-61" x="1272.900391"/>
     <use xlink:href="#ArialMT-6e" x="1328.515625"/>
     <use xlink:href="#ArialMT-64" x="1384.130859"/>
     <use xlink:href="#ArialMT-73" x="1439.746094"/>
     <use xlink:href="#ArialMT-20" x="1489.746094"/>
     <use xlink:href="#ArialMT-6f" x="1517.529297"/>
     <use xlink:href="#ArialMT-66" x="1573.144531"/>
     <use xlink:href="#ArialMT-20" x="1600.927734"/>
     <use xlink:href="#ArialMT-74" x="1628.710938"/>
     <use xlink:href="#ArialMT-72" x="1656.494141"/>
     <use xlink:href="#ArialMT-69" x="1689.794922"/>
     <use xlink:href="#ArialMT-70" x="1712.011719"/>
     <use xlink:href="#ArialMT-73" x="1767.626953"/>
    </g>
   </g>
   <g id="legend_1">
    <g id="patch_9">
     <path d="M 770.175781 77.415156 
L 876.3 77.415156 
Q 878.5 77.415156 878.5 75.215156 
L 878.5 29.635625 
Q 878.5 27.435625 876.3 27.435625 
L 770.175781 27.435625 
Q 767.975781 27.435625 767.975781 29.635625 
L 767.975781 75.215156 
Q 767.975781 77.415156 770.175781 77.415156 
z
" style="fill: #ffffff; opacity: 0.8; stroke: #cccccc; stroke-linejoin: miter"/>
    </g>
    <g id="line2d_2">
     <path d="M 772.375781 35.859219 
L 783.375781 35.859219 
L 794.375781 35.859219 
" style="fill: none; stroke: #2e1e3b; stroke-width: 1.5; stroke-linecap: round"/>
    </g>
    <g id="text_15">
     <!-- absolute_error -->
     <g style="fill: #262626" transform="translate(803.175781 39.709219) scale(0.11 -0.11)">
      <use xlink:href="#ArialMT-61"/>
      <use xlink:href="#ArialMT-62" x="55.615234"/>
      <use xlink:href="#ArialMT-73" x="111.230469"/>
      <use xlink:href="#ArialMT-6f" x="161.230469"/>
      <use xlink:href="#ArialMT-6c" x="216.845703"/>
      <use xlink:href="#ArialMT-75" x="239.0625"/>
      <use xlink:href="#ArialMT-74" x="294.677734"/>
      <use xlink:href="#ArialMT-65" x="322.460938"/>
      <use xlink:href="#ArialMT-5f" x="378.076172"/>
      <use xlink:href="#ArialMT-65" x="433.691406"/>
      <use xlink:href="#ArialMT-72" x="489.306641"/>
      <use xlink:href="#ArialMT-72" x="522.607422"/>
      <use xlink:href="#ArialMT-6f" x="555.908203"/>
      <use xlink:href="#ArialMT-72" x="611.523438"/>
     </g>
    </g>
    <g id="patch_10">
     <path d="M 772.375781 55.269062 
L 794.375781 55.269062 
L 794.375781 47.569062 
L 772.375781 47.569062 
z
" style="fill: #44af69; opacity: 0.25; stroke: #44af69; stroke-linejoin: miter"/>
    </g>
    <g id="text_16">
     <!-- Train -->
     <g style="fill: #262626" transform="translate(803.175781 55.269062) scale(0.11 -0.11)">
      <defs>
       <path id="ArialMT-54" d="M 1659 0 
L 1659 4041 
L 150 4041 
L 150 4581 
L 3781 4581 
L 3781 4041 
L 2266 4041 
L 2266 0 
L 1659 0 
z
" transform="scale(0.015625)"/>
      </defs>
      <use xlink:href="#ArialMT-54"/>
      <use xlink:href="#ArialMT-72" x="57.333984"/>
      <use xlink:href="#ArialMT-61" x="90.634766"/>
      <use xlink:href="#ArialMT-69" x="146.25"/>
      <use xlink:href="#ArialMT-6e" x="168.466797"/>
     </g>
    </g>
    <g id="patch_11">
     <path d="M 772.375781 70.828906 
L 794.375781 70.828906 
L 794.375781 63.128906 
L 772.375781 63.128906 
z
" style="fill: #f2dc5d; opacity: 0.125; stroke: #f2dc5d; stroke-linejoin: miter"/>
    </g>
    <g id="text_17">
     <!-- Test -->
     <g style="fill: #262626" transform="translate(803.175781 70.828906) scale(0.11 -0.11)">
      <use xlink:href="#ArialMT-54"/>
      <use xlink:href="#ArialMT-65" x="49.958984"/>
      <use xlink:href="#ArialMT-73" x="105.574219"/>
      <use xlink:href="#ArialMT-74" x="155.574219"/>
     </g>
    </g>
   </g>
  </g>
 </g>
 <defs>
  <clipPath id="p79d5a34e10">
   <rect x="47" y="21.935625" width="837" height="166.32"/>
  </clipPath>
 </defs>
</svg>
