<?xml version="1.0" encoding="utf-8" standalone="no"?>
<!DOCTYPE svg PUBLIC "-//W3C//DTD SVG 1.1//EN"
  "http://www.w3.org/Graphics/SVG/1.1/DTD/svg11.dtd">
<svg xmlns:xlink="http://www.w3.org/1999/xlink" width="897.415476pt" height="285.570469pt" viewBox="0 0 897.415476 285.570469" xmlns="http://www.w3.org/2000/svg" version="1.1">
 <metadata>
  <rdf:RDF xmlns:dc="http://purl.org/dc/elements/1.1/" xmlns:cc="http://creativecommons.org/ns#" xmlns:rdf="http://www.w3.org/1999/02/22-rdf-syntax-ns#">
   <cc:Work>
    <dc:type rdf:resource="http://purl.org/dc/dcmitype/StillImage"/>
    <dc:date>2023-08-13T03:38:48.268672</dc:date>
    <dc:format>image/svg+xml</dc:format>
    <dc:creator>
     <cc:Agent>
      <dc:title>Matplotlib v3.7.1, https://matplotlib.org/</dc:title>
     </cc:Agent>
    </dc:creator>
   </cc:Work>
  </rdf:RDF>
 </metadata>
 <defs>
  <style type="text/css">*{stroke-linejoin: round; stroke-linecap: butt}</style>
 </defs>
 <g id="figure_1">
  <g id="patch_1">
   <path d="M 0 285.570469 
L 897.415476 285.570469 
L 897.415476 0 
L 0 0 
z
" style="fill: #ffffff"/>
  </g>
  <g id="axes_1">
   <g id="patch_2">
    <path d="M 50.061094 243.695625 
L 582.697457 243.695625 
L 582.697457 21.935625 
L 50.061094 21.935625 
z
" style="fill: #ffffff"/>
   </g>
   <g id="matplotlib.axis_1">
    <g id="xtick_1">
     <g id="text_1">
      <!-- 2011-05 -->
      <g style="fill: #262626" transform="translate(85.154935 261.069219) scale(0.11 -0.11)">
       <defs>
        <path id="ArialMT-32" d="M 3222 541 
L 3222 0 
L 194 0 
Q 188 203 259 391 
Q 375 700 629 1000 
Q 884 1300 1366 1694 
Q 2113 2306 2375 2664 
Q 2638 3022 2638 3341 
Q 2638 3675 2398 3904 
Q 2159 4134 1775 4134 
Q 1369 4134 1125 3890 
Q 881 3647 878 3216 
L 300 3275 
Q 359 3922 746 4261 
Q 1134 4600 1788 4600 
Q 2447 4600 2831 4234 
Q 3216 3869 3216 3328 
Q 3216 3053 3103 2787 
Q 2991 2522 2730 2228 
Q 2469 1934 1863 1422 
Q 1356 997 1212 845 
Q 1069 694 975 541 
L 3222 541 
z
" transform="scale(0.015625)"/>
        <path id="ArialMT-30" d="M 266 2259 
Q 266 3072 433 3567 
Q 600 4063 929 4331 
Q 1259 4600 1759 4600 
Q 2128 4600 2406 4451 
Q 2684 4303 2865 4023 
Q 3047 3744 3150 3342 
Q 3253 2941 3253 2259 
Q 3253 1453 3087 958 
Q 2922 463 2592 192 
Q 2263 -78 1759 -78 
Q 1097 -78 719 397 
Q 266 969 266 2259 
z
M 844 2259 
Q 844 1131 1108 757 
Q 1372 384 1759 384 
Q 2147 384 2411 759 
Q 2675 1134 2675 2259 
Q 2675 3391 2411 3762 
Q 2147 4134 1753 4134 
Q 1366 4134 1134 3806 
Q 844 3388 844 2259 
z
" transform="scale(0.015625)"/>
        <path id="ArialMT-31" d="M 2384 0 
L 1822 0 
L 1822 3584 
Q 1619 3391 1289 3197 
Q 959 3003 697 2906 
L 697 3450 
Q 1169 3672 1522 3987 
Q 1875 4303 2022 4600 
L 2384 4600 
L 2384 0 
z
" transform="scale(0.015625)"/>
        <path id="ArialMT-2d" d="M 203 1375 
L 203 1941 
L 1931 1941 
L 1931 1375 
L 203 1375 
z
" transform="scale(0.015625)"/>
        <path id="ArialMT-35" d="M 266 1200 
L 856 1250 
Q 922 819 1161 601 
Q 1400 384 1738 384 
Q 2144 384 2425 690 
Q 2706 997 2706 1503 
Q 2706 1984 2436 2262 
Q 2166 2541 1728 2541 
Q 1456 2541 1237 2417 
Q 1019 2294 894 2097 
L 366 2166 
L 809 4519 
L 3088 4519 
L 3088 3981 
L 1259 3981 
L 1013 2750 
Q 1425 3038 1878 3038 
Q 2478 3038 2890 2622 
Q 3303 2206 3303 1553 
Q 3303 931 2941 478 
Q 2500 -78 1738 -78 
Q 1113 -78 717 272 
Q 322 622 266 1200 
z
" transform="scale(0.015625)"/>
       </defs>
       <use xlink:href="#ArialMT-32"/>
       <use xlink:href="#ArialMT-30" x="55.615234"/>
       <use xlink:href="#ArialMT-31" x="111.230469"/>
       <use xlink:href="#ArialMT-31" x="159.470703"/>
       <use xlink:href="#ArialMT-2d" x="215.085938"/>
       <use xlink:href="#ArialMT-30" x="248.386719"/>
       <use xlink:href="#ArialMT-35" x="304.001953"/>
      </g>
     </g>
    </g>
    <g id="xtick_2">
     <g id="text_2">
      <!-- 2011-07 -->
      <g style="fill: #262626" transform="translate(149.646436 261.069219) scale(0.11 -0.11)">
       <defs>
        <path id="ArialMT-37" d="M 303 3981 
L 303 4522 
L 3269 4522 
L 3269 4084 
Q 2831 3619 2401 2847 
Q 1972 2075 1738 1259 
Q 1569 684 1522 0 
L 944 0 
Q 953 541 1156 1306 
Q 1359 2072 1739 2783 
Q 2119 3494 2547 3981 
L 303 3981 
z
" transform="scale(0.015625)"/>
       </defs>
       <use xlink:href="#ArialMT-32"/>
       <use xlink:href="#ArialMT-30" x="55.615234"/>
       <use xlink:href="#ArialMT-31" x="111.230469"/>
       <use xlink:href="#ArialMT-31" x="159.470703"/>
       <use xlink:href="#ArialMT-2d" x="215.085938"/>
       <use xlink:href="#ArialMT-30" x="248.386719"/>
       <use xlink:href="#ArialMT-37" x="304.001953"/>
      </g>
     </g>
    </g>
    <g id="xtick_3">
     <g id="text_3">
      <!-- 2011-09 -->
      <g style="fill: #262626" transform="translate(215.195174 261.069219) scale(0.11 -0.11)">
       <defs>
        <path id="ArialMT-39" d="M 350 1059 
L 891 1109 
Q 959 728 1153 556 
Q 1347 384 1650 384 
Q 1909 384 2104 503 
Q 2300 622 2425 820 
Q 2550 1019 2634 1356 
Q 2719 1694 2719 2044 
Q 2719 2081 2716 2156 
Q 2547 1888 2255 1720 
Q 1963 1553 1622 1553 
Q 1053 1553 659 1965 
Q 266 2378 266 3053 
Q 266 3750 677 4175 
Q 1088 4600 1706 4600 
Q 2153 4600 2523 4359 
Q 2894 4119 3086 3673 
Q 3278 3228 3278 2384 
Q 3278 1506 3087 986 
Q 2897 466 2520 194 
Q 2144 -78 1638 -78 
Q 1100 -78 759 220 
Q 419 519 350 1059 
z
M 2653 3081 
Q 2653 3566 2395 3850 
Q 2138 4134 1775 4134 
Q 1400 4134 1122 3828 
Q 844 3522 844 3034 
Q 844 2597 1108 2323 
Q 1372 2050 1759 2050 
Q 2150 2050 2401 2323 
Q 2653 2597 2653 3081 
z
" transform="scale(0.015625)"/>
       </defs>
       <use xlink:href="#ArialMT-32"/>
       <use xlink:href="#ArialMT-30" x="55.615234"/>
       <use xlink:href="#ArialMT-31" x="111.230469"/>
       <use xlink:href="#ArialMT-31" x="159.470703"/>
       <use xlink:href="#ArialMT-2d" x="215.085938"/>
       <use xlink:href="#ArialMT-30" x="248.386719"/>
       <use xlink:href="#ArialMT-39" x="304.001953"/>
      </g>
     </g>
    </g>
    <g id="xtick_4">
     <g id="text_4">
      <!-- 2011-11 -->
      <g style="fill: #262626" transform="translate(280.0923 261.069219) scale(0.11 -0.11)">
       <use xlink:href="#ArialMT-32"/>
       <use xlink:href="#ArialMT-30" x="55.615234"/>
       <use xlink:href="#ArialMT-31" x="111.230469"/>
       <use xlink:href="#ArialMT-31" x="159.470703"/>
       <use xlink:href="#ArialMT-2d" x="215.085938"/>
       <use xlink:href="#ArialMT-31" x="248.386719"/>
       <use xlink:href="#ArialMT-31" x="296.626953"/>
      </g>
     </g>
    </g>
    <g id="xtick_5">
     <g id="text_5">
      <!-- 2012-01 -->
      <g style="fill: #262626" transform="translate(343.772551 261.069219) scale(0.11 -0.11)">
       <use xlink:href="#ArialMT-32"/>
       <use xlink:href="#ArialMT-30" x="55.615234"/>
       <use xlink:href="#ArialMT-31" x="111.230469"/>
       <use xlink:href="#ArialMT-32" x="166.845703"/>
       <use xlink:href="#ArialMT-2d" x="222.460938"/>
       <use xlink:href="#ArialMT-30" x="255.761719"/>
       <use xlink:href="#ArialMT-31" x="311.376953"/>
      </g>
     </g>
    </g>
    <g id="xtick_6">
     <g id="text_6">
      <!-- 2012-03 -->
      <g style="fill: #262626" transform="translate(407.206814 261.069219) scale(0.11 -0.11)">
       <defs>
        <path id="ArialMT-33" d="M 269 1209 
L 831 1284 
Q 928 806 1161 595 
Q 1394 384 1728 384 
Q 2125 384 2398 659 
Q 2672 934 2672 1341 
Q 2672 1728 2419 1979 
Q 2166 2231 1775 2231 
Q 1616 2231 1378 2169 
L 1441 2663 
Q 1497 2656 1531 2656 
Q 1891 2656 2178 2843 
Q 2466 3031 2466 3422 
Q 2466 3731 2256 3934 
Q 2047 4138 1716 4138 
Q 1388 4138 1169 3931 
Q 950 3725 888 3313 
L 325 3413 
Q 428 3978 793 4289 
Q 1159 4600 1703 4600 
Q 2078 4600 2393 4439 
Q 2709 4278 2876 4000 
Q 3044 3722 3044 3409 
Q 3044 3113 2884 2869 
Q 2725 2625 2413 2481 
Q 2819 2388 3044 2092 
Q 3269 1797 3269 1353 
Q 3269 753 2831 336 
Q 2394 -81 1725 -81 
Q 1122 -81 723 278 
Q 325 638 269 1209 
z
" transform="scale(0.015625)"/>
       </defs>
       <use xlink:href="#ArialMT-32"/>
       <use xlink:href="#ArialMT-30" x="55.615234"/>
       <use xlink:href="#ArialMT-31" x="111.230469"/>
       <use xlink:href="#ArialMT-32" x="166.845703"/>
       <use xlink:href="#ArialMT-2d" x="222.460938"/>
       <use xlink:href="#ArialMT-30" x="255.761719"/>
       <use xlink:href="#ArialMT-33" x="311.376953"/>
      </g>
     </g>
    </g>
    <g id="xtick_7">
     <g id="text_7">
      <!-- 2012-05 -->
      <g style="fill: #262626" transform="translate(471.698315 261.069219) scale(0.11 -0.11)">
       <use xlink:href="#ArialMT-32"/>
       <use xlink:href="#ArialMT-30" x="55.615234"/>
       <use xlink:href="#ArialMT-31" x="111.230469"/>
       <use xlink:href="#ArialMT-32" x="166.845703"/>
       <use xlink:href="#ArialMT-2d" x="222.460938"/>
       <use xlink:href="#ArialMT-30" x="255.761719"/>
       <use xlink:href="#ArialMT-35" x="311.376953"/>
      </g>
     </g>
    </g>
    <g id="xtick_8">
     <g id="text_8">
      <!-- 2012-07 -->
      <g style="fill: #262626" transform="translate(536.189816 261.069219) scale(0.11 -0.11)">
       <use xlink:href="#ArialMT-32"/>
       <use xlink:href="#ArialMT-30" x="55.615234"/>
       <use xlink:href="#ArialMT-31" x="111.230469"/>
       <use xlink:href="#ArialMT-32" x="166.845703"/>
       <use xlink:href="#ArialMT-2d" x="222.460938"/>
       <use xlink:href="#ArialMT-30" x="255.761719"/>
       <use xlink:href="#ArialMT-37" x="311.376953"/>
      </g>
     </g>
    </g>
    <g id="text_9">
     <!-- Day -->
     <g style="fill: #262626" transform="translate(305.709588 275.844844) scale(0.12 -0.12)">
      <defs>
       <path id="ArialMT-44" d="M 494 0 
L 494 4581 
L 2072 4581 
Q 2606 4581 2888 4516 
Q 3281 4425 3559 4188 
Q 3922 3881 4101 3404 
Q 4281 2928 4281 2316 
Q 4281 1794 4159 1391 
Q 4038 988 3847 723 
Q 3656 459 3429 307 
Q 3203 156 2883 78 
Q 2563 0 2147 0 
L 494 0 
z
M 1100 541 
L 2078 541 
Q 2531 541 2789 625 
Q 3047 709 3200 863 
Q 3416 1078 3536 1442 
Q 3656 1806 3656 2325 
Q 3656 3044 3420 3430 
Q 3184 3816 2847 3947 
Q 2603 4041 2063 4041 
L 1100 4041 
L 1100 541 
z
" transform="scale(0.015625)"/>
       <path id="ArialMT-61" d="M 2588 409 
Q 2275 144 1986 34 
Q 1697 -75 1366 -75 
Q 819 -75 525 192 
Q 231 459 231 875 
Q 231 1119 342 1320 
Q 453 1522 633 1644 
Q 813 1766 1038 1828 
Q 1203 1872 1538 1913 
Q 2219 1994 2541 2106 
Q 2544 2222 2544 2253 
Q 2544 2597 2384 2738 
Q 2169 2928 1744 2928 
Q 1347 2928 1158 2789 
Q 969 2650 878 2297 
L 328 2372 
Q 403 2725 575 2942 
Q 747 3159 1072 3276 
Q 1397 3394 1825 3394 
Q 2250 3394 2515 3294 
Q 2781 3194 2906 3042 
Q 3031 2891 3081 2659 
Q 3109 2516 3109 2141 
L 3109 1391 
Q 3109 606 3145 398 
Q 3181 191 3288 0 
L 2700 0 
Q 2613 175 2588 409 
z
M 2541 1666 
Q 2234 1541 1622 1453 
Q 1275 1403 1131 1340 
Q 988 1278 909 1158 
Q 831 1038 831 891 
Q 831 666 1001 516 
Q 1172 366 1500 366 
Q 1825 366 2078 508 
Q 2331 650 2450 897 
Q 2541 1088 2541 1459 
L 2541 1666 
z
" transform="scale(0.015625)"/>
       <path id="ArialMT-79" d="M 397 -1278 
L 334 -750 
Q 519 -800 656 -800 
Q 844 -800 956 -737 
Q 1069 -675 1141 -563 
Q 1194 -478 1313 -144 
Q 1328 -97 1363 -6 
L 103 3319 
L 709 3319 
L 1400 1397 
Q 1534 1031 1641 628 
Q 1738 1016 1872 1384 
L 2581 3319 
L 3144 3319 
L 1881 -56 
Q 1678 -603 1566 -809 
Q 1416 -1088 1222 -1217 
Q 1028 -1347 759 -1347 
Q 597 -1347 397 -1278 
z
" transform="scale(0.015625)"/>
      </defs>
      <use xlink:href="#ArialMT-44"/>
      <use xlink:href="#ArialMT-61" x="72.216797"/>
      <use xlink:href="#ArialMT-79" x="127.832031"/>
     </g>
    </g>
   </g>
   <g id="matplotlib.axis_2">
    <g id="ytick_1">
     <g id="text_10">
      <!-- 0 -->
      <g style="fill: #262626" transform="translate(34.444063 241.79985) scale(0.11 -0.11)">
       <use xlink:href="#ArialMT-30"/>
      </g>
     </g>
    </g>
    <g id="ytick_2">
     <g id="text_11">
      <!-- 100 -->
      <g style="fill: #262626" transform="translate(22.21 206.786842) scale(0.11 -0.11)">
       <use xlink:href="#ArialMT-31"/>
       <use xlink:href="#ArialMT-30" x="55.615234"/>
       <use xlink:href="#ArialMT-30" x="111.230469"/>
      </g>
     </g>
    </g>
    <g id="ytick_3">
     <g id="text_12">
      <!-- 200 -->
      <g style="fill: #262626" transform="translate(22.21 171.773833) scale(0.11 -0.11)">
       <use xlink:href="#ArialMT-32"/>
       <use xlink:href="#ArialMT-30" x="55.615234"/>
       <use xlink:href="#ArialMT-30" x="111.230469"/>
      </g>
     </g>
    </g>
    <g id="ytick_4">
     <g id="text_13">
      <!-- 300 -->
      <g style="fill: #262626" transform="translate(22.21 136.760825) scale(0.11 -0.11)">
       <use xlink:href="#ArialMT-33"/>
       <use xlink:href="#ArialMT-30" x="55.615234"/>
       <use xlink:href="#ArialMT-30" x="111.230469"/>
      </g>
     </g>
    </g>
    <g id="ytick_5">
     <g id="text_14">
      <!-- 400 -->
      <g style="fill: #262626" transform="translate(22.21 101.747817) scale(0.11 -0.11)">
       <defs>
        <path id="ArialMT-34" d="M 2069 0 
L 2069 1097 
L 81 1097 
L 81 1613 
L 2172 4581 
L 2631 4581 
L 2631 1613 
L 3250 1613 
L 3250 1097 
L 2631 1097 
L 2631 0 
L 2069 0 
z
M 2069 1613 
L 2069 3678 
L 634 1613 
L 2069 1613 
z
" transform="scale(0.015625)"/>
       </defs>
       <use xlink:href="#ArialMT-34"/>
       <use xlink:href="#ArialMT-30" x="55.615234"/>
       <use xlink:href="#ArialMT-30" x="111.230469"/>
      </g>
     </g>
    </g>
    <g id="ytick_6">
     <g id="text_15">
      <!-- 500 -->
      <g style="fill: #262626" transform="translate(22.21 66.734808) scale(0.11 -0.11)">
       <use xlink:href="#ArialMT-35"/>
       <use xlink:href="#ArialMT-30" x="55.615234"/>
       <use xlink:href="#ArialMT-30" x="111.230469"/>
      </g>
     </g>
    </g>
    <g id="ytick_7">
     <g id="text_16">
      <!-- 600 -->
      <g style="fill: #262626" transform="translate(22.21 31.7218) scale(0.11 -0.11)">
       <defs>
        <path id="ArialMT-36" d="M 3184 3459 
L 2625 3416 
Q 2550 3747 2413 3897 
Q 2184 4138 1850 4138 
Q 1581 4138 1378 3988 
Q 1113 3794 959 3422 
Q 806 3050 800 2363 
Q 1003 2672 1297 2822 
Q 1591 2972 1913 2972 
Q 2475 2972 2870 2558 
Q 3266 2144 3266 1488 
Q 3266 1056 3080 686 
Q 2894 316 2569 119 
Q 2244 -78 1831 -78 
Q 1128 -78 684 439 
Q 241 956 241 2144 
Q 241 3472 731 4075 
Q 1159 4600 1884 4600 
Q 2425 4600 2770 4297 
Q 3116 3994 3184 3459 
z
M 888 1484 
Q 888 1194 1011 928 
Q 1134 663 1356 523 
Q 1578 384 1822 384 
Q 2178 384 2434 671 
Q 2691 959 2691 1453 
Q 2691 1928 2437 2201 
Q 2184 2475 1800 2475 
Q 1419 2475 1153 2201 
Q 888 1928 888 1484 
z
" transform="scale(0.015625)"/>
       </defs>
       <use xlink:href="#ArialMT-36"/>
       <use xlink:href="#ArialMT-30" x="55.615234"/>
       <use xlink:href="#ArialMT-30" x="111.230469"/>
      </g>
     </g>
    </g>
    <g id="text_17">
     <!-- Demand [1e3 trips] -->
     <g style="fill: #262626" transform="translate(15.825 183.504375) rotate(-90) scale(0.12 -0.12)">
      <defs>
       <path id="ArialMT-65" d="M 2694 1069 
L 3275 997 
Q 3138 488 2766 206 
Q 2394 -75 1816 -75 
Q 1088 -75 661 373 
Q 234 822 234 1631 
Q 234 2469 665 2931 
Q 1097 3394 1784 3394 
Q 2450 3394 2872 2941 
Q 3294 2488 3294 1666 
Q 3294 1616 3291 1516 
L 816 1516 
Q 847 969 1125 678 
Q 1403 388 1819 388 
Q 2128 388 2347 550 
Q 2566 713 2694 1069 
z
M 847 1978 
L 2700 1978 
Q 2663 2397 2488 2606 
Q 2219 2931 1791 2931 
Q 1403 2931 1139 2672 
Q 875 2413 847 1978 
z
" transform="scale(0.015625)"/>
       <path id="ArialMT-6d" d="M 422 0 
L 422 3319 
L 925 3319 
L 925 2853 
Q 1081 3097 1340 3245 
Q 1600 3394 1931 3394 
Q 2300 3394 2536 3241 
Q 2772 3088 2869 2813 
Q 3263 3394 3894 3394 
Q 4388 3394 4653 3120 
Q 4919 2847 4919 2278 
L 4919 0 
L 4359 0 
L 4359 2091 
Q 4359 2428 4304 2576 
Q 4250 2725 4106 2815 
Q 3963 2906 3769 2906 
Q 3419 2906 3187 2673 
Q 2956 2441 2956 1928 
L 2956 0 
L 2394 0 
L 2394 2156 
Q 2394 2531 2256 2718 
Q 2119 2906 1806 2906 
Q 1569 2906 1367 2781 
Q 1166 2656 1075 2415 
Q 984 2175 984 1722 
L 984 0 
L 422 0 
z
" transform="scale(0.015625)"/>
       <path id="ArialMT-6e" d="M 422 0 
L 422 3319 
L 928 3319 
L 928 2847 
Q 1294 3394 1984 3394 
Q 2284 3394 2536 3286 
Q 2788 3178 2913 3003 
Q 3038 2828 3088 2588 
Q 3119 2431 3119 2041 
L 3119 0 
L 2556 0 
L 2556 2019 
Q 2556 2363 2490 2533 
Q 2425 2703 2258 2804 
Q 2091 2906 1866 2906 
Q 1506 2906 1245 2678 
Q 984 2450 984 1813 
L 984 0 
L 422 0 
z
" transform="scale(0.015625)"/>
       <path id="ArialMT-64" d="M 2575 0 
L 2575 419 
Q 2259 -75 1647 -75 
Q 1250 -75 917 144 
Q 584 363 401 755 
Q 219 1147 219 1656 
Q 219 2153 384 2558 
Q 550 2963 881 3178 
Q 1213 3394 1622 3394 
Q 1922 3394 2156 3267 
Q 2391 3141 2538 2938 
L 2538 4581 
L 3097 4581 
L 3097 0 
L 2575 0 
z
M 797 1656 
Q 797 1019 1065 703 
Q 1334 388 1700 388 
Q 2069 388 2326 689 
Q 2584 991 2584 1609 
Q 2584 2291 2321 2609 
Q 2059 2928 1675 2928 
Q 1300 2928 1048 2622 
Q 797 2316 797 1656 
z
" transform="scale(0.015625)"/>
       <path id="ArialMT-20" transform="scale(0.015625)"/>
       <path id="ArialMT-5b" d="M 434 -1272 
L 434 4581 
L 1675 4581 
L 1675 4116 
L 997 4116 
L 997 -806 
L 1675 -806 
L 1675 -1272 
L 434 -1272 
z
" transform="scale(0.015625)"/>
       <path id="ArialMT-74" d="M 1650 503 
L 1731 6 
Q 1494 -44 1306 -44 
Q 1000 -44 831 53 
Q 663 150 594 308 
Q 525 466 525 972 
L 525 2881 
L 113 2881 
L 113 3319 
L 525 3319 
L 525 4141 
L 1084 4478 
L 1084 3319 
L 1650 3319 
L 1650 2881 
L 1084 2881 
L 1084 941 
Q 1084 700 1114 631 
Q 1144 563 1211 522 
Q 1278 481 1403 481 
Q 1497 481 1650 503 
z
" transform="scale(0.015625)"/>
       <path id="ArialMT-72" d="M 416 0 
L 416 3319 
L 922 3319 
L 922 2816 
Q 1116 3169 1280 3281 
Q 1444 3394 1641 3394 
Q 1925 3394 2219 3213 
L 2025 2691 
Q 1819 2813 1613 2813 
Q 1428 2813 1281 2702 
Q 1134 2591 1072 2394 
Q 978 2094 978 1738 
L 978 0 
L 416 0 
z
" transform="scale(0.015625)"/>
       <path id="ArialMT-69" d="M 425 3934 
L 425 4581 
L 988 4581 
L 988 3934 
L 425 3934 
z
M 425 0 
L 425 3319 
L 988 3319 
L 988 0 
L 425 0 
z
" transform="scale(0.015625)"/>
       <path id="ArialMT-70" d="M 422 -1272 
L 422 3319 
L 934 3319 
L 934 2888 
Q 1116 3141 1344 3267 
Q 1572 3394 1897 3394 
Q 2322 3394 2647 3175 
Q 2972 2956 3137 2557 
Q 3303 2159 3303 1684 
Q 3303 1175 3120 767 
Q 2938 359 2589 142 
Q 2241 -75 1856 -75 
Q 1575 -75 1351 44 
Q 1128 163 984 344 
L 984 -1272 
L 422 -1272 
z
M 931 1641 
Q 931 1000 1190 694 
Q 1450 388 1819 388 
Q 2194 388 2461 705 
Q 2728 1022 2728 1688 
Q 2728 2322 2467 2637 
Q 2206 2953 1844 2953 
Q 1484 2953 1207 2617 
Q 931 2281 931 1641 
z
" transform="scale(0.015625)"/>
       <path id="ArialMT-73" d="M 197 991 
L 753 1078 
Q 800 744 1014 566 
Q 1228 388 1613 388 
Q 2000 388 2187 545 
Q 2375 703 2375 916 
Q 2375 1106 2209 1216 
Q 2094 1291 1634 1406 
Q 1016 1563 777 1677 
Q 538 1791 414 1992 
Q 291 2194 291 2438 
Q 291 2659 392 2848 
Q 494 3038 669 3163 
Q 800 3259 1026 3326 
Q 1253 3394 1513 3394 
Q 1903 3394 2198 3281 
Q 2494 3169 2634 2976 
Q 2775 2784 2828 2463 
L 2278 2388 
Q 2241 2644 2061 2787 
Q 1881 2931 1553 2931 
Q 1166 2931 1000 2803 
Q 834 2675 834 2503 
Q 834 2394 903 2306 
Q 972 2216 1119 2156 
Q 1203 2125 1616 2013 
Q 2213 1853 2448 1751 
Q 2684 1650 2818 1456 
Q 2953 1263 2953 975 
Q 2953 694 2789 445 
Q 2625 197 2315 61 
Q 2006 -75 1616 -75 
Q 969 -75 630 194 
Q 291 463 197 991 
z
" transform="scale(0.015625)"/>
       <path id="ArialMT-5d" d="M 1363 -1272 
L 122 -1272 
L 122 -806 
L 800 -806 
L 800 4116 
L 122 4116 
L 122 4581 
L 1363 4581 
L 1363 -1272 
z
" transform="scale(0.015625)"/>
      </defs>
      <use xlink:href="#ArialMT-44"/>
      <use xlink:href="#ArialMT-65" x="72.216797"/>
      <use xlink:href="#ArialMT-6d" x="127.832031"/>
      <use xlink:href="#ArialMT-61" x="211.132812"/>
      <use xlink:href="#ArialMT-6e" x="266.748047"/>
      <use xlink:href="#ArialMT-64" x="322.363281"/>
      <use xlink:href="#ArialMT-20" x="377.978516"/>
      <use xlink:href="#ArialMT-5b" x="405.761719"/>
      <use xlink:href="#ArialMT-31" x="433.544922"/>
      <use xlink:href="#ArialMT-65" x="489.160156"/>
      <use xlink:href="#ArialMT-33" x="544.775391"/>
      <use xlink:href="#ArialMT-20" x="600.390625"/>
      <use xlink:href="#ArialMT-74" x="628.173828"/>
      <use xlink:href="#ArialMT-72" x="655.957031"/>
      <use xlink:href="#ArialMT-69" x="689.257812"/>
      <use xlink:href="#ArialMT-70" x="711.474609"/>
      <use xlink:href="#ArialMT-73" x="767.089844"/>
      <use xlink:href="#ArialMT-5d" x="817.089844"/>
     </g>
    </g>
   </g>
   <g id="line2d_1">
    <path d="M 74.271838 145.714767 
L 75.329075 153.610201 
L 76.386313 77.245429 
L 77.443551 53.88405 
L 78.500788 57.277861 
L 80.615264 40.106781 
L 81.672502 45.856617 
L 82.729739 71.588728 
L 83.786977 74.093908 
L 84.844215 54.270593 
L 85.901452 51.652671 
L 86.95869 51.306742 
L 88.015928 37.594598 
L 89.073166 36.075733 
L 90.130403 77.185907 
L 91.187641 77.982803 
L 92.244879 64.110649 
L 93.302117 56.68404 
L 94.359354 50.801504 
L 95.416592 48.010267 
L 96.47383 57.991076 
L 97.531067 83.502254 
L 98.588305 78.790203 
L 99.645543 61.61037 
L 100.702781 58.199753 
L 101.760018 48.47419 
L 102.817256 40.93729 
L 103.874494 48.157672 
L 104.931731 71.936757 
L 105.988969 70.068113 
L 107.046207 61.651335 
L 108.103445 48.962971 
L 109.160682 48.309629 
L 110.21792 41.393859 
L 111.275158 52.644939 
L 112.332395 80.813605 
L 113.389633 76.573529 
L 114.446871 59.540051 
L 115.504109 55.483094 
L 116.561346 48.872638 
L 117.618584 40.845906 
L 118.675822 42.577999 
L 119.73306 69.288373 
L 120.790297 64.921901 
L 121.847535 51.309893 
L 122.904773 56.081466 
L 123.96201 48.848129 
L 125.019248 43.724325 
L 126.076486 48.915004 
L 127.133724 68.189315 
L 128.190961 71.724928 
L 129.248199 59.253645 
L 130.305437 56.344414 
L 131.362674 55.781405 
L 132.419912 59.987867 
L 133.47715 82.655989 
L 134.534388 100.116626 
L 135.591625 114.829443 
L 136.648863 75.880272 
L 137.706101 57.559715 
L 138.763339 53.839583 
L 139.820576 49.535434 
L 140.877814 55.344442 
L 141.935052 81.247416 
L 142.992289 70.839449 
L 144.049527 55.206841 
L 145.106765 47.683246 
L 146.164003 46.820525 
L 147.22124 47.979456 
L 148.278478 49.947187 
L 149.335716 85.898894 
L 151.450191 63.241276 
L 152.507429 57.920349 
L 153.564667 49.973447 
L 154.621904 52.622881 
L 155.679142 56.673536 
L 156.73638 82.755776 
L 157.793617 77.850454 
L 158.850855 64.137259 
L 159.908093 56.066761 
L 160.965331 54.519886 
L 162.022568 49.320804 
L 163.079806 58.332803 
L 164.137044 83.845031 
L 165.194282 77.911026 
L 166.251519 66.248894 
L 167.308757 61.302606 
L 168.365995 60.360406 
L 169.423232 71.014164 
L 170.48047 104.259716 
L 171.537708 121.87476 
L 172.594946 129.224691 
L 173.652183 89.148451 
L 174.709421 73.099889 
L 175.766659 60.772859 
L 176.823896 55.940714 
L 177.881134 70.116781 
L 178.938372 86.13103 
L 179.99561 79.823787 
L 181.052847 61.935291 
L 182.110085 60.072599 
L 184.22456 52.548303 
L 185.281798 63.022795 
L 186.339036 80.523697 
L 187.396274 73.494135 
L 188.453511 64.593128 
L 189.510749 59.712315 
L 190.567987 45.453618 
L 191.625225 43.856324 
L 192.682462 57.19663 
L 193.7397 79.794376 
L 194.796938 80.214532 
L 195.854175 68.576558 
L 196.911413 63.498972 
L 197.968651 56.353517 
L 199.025889 53.927816 
L 200.083126 67.026883 
L 201.140364 82.240385 
L 202.197602 79.207208 
L 203.254839 66.356384 
L 204.312077 57.881485 
L 205.369315 62.295225 
L 206.426553 57.960264 
L 207.48379 68.973256 
L 208.541028 91.176405 
L 209.598266 86.905168 
L 210.655504 74.602997 
L 211.712741 67.298584 
L 212.769979 62.571127 
L 213.827217 61.101631 
L 214.884454 73.502188 
L 215.941692 160.12192 
L 216.99893 87.972715 
L 218.056168 72.822586 
L 220.170643 61.299455 
L 221.227881 64.149164 
L 222.285118 80.303115 
L 223.342356 157.923103 
L 224.399594 96.432908 
L 225.456832 82.472171 
L 226.514069 74.182141 
L 227.571307 66.888581 
L 228.628545 67.07345 
L 229.685782 164.896644 
L 230.74302 227.699477 
L 231.800258 120.651056 
L 232.857496 92.743587 
L 233.914733 75.95555 
L 234.971971 69.745293 
L 236.029209 67.973284 
L 237.086447 77.917679 
L 238.143684 92.219092 
L 239.200922 112.782232 
L 240.25816 74.826731 
L 241.315397 63.097023 
L 242.372635 54.888573 
L 243.429873 61.792088 
L 244.487111 53.29373 
L 245.544348 77.914178 
L 246.601586 75.583712 
L 247.658824 59.861821 
L 248.716061 53.350802 
L 249.773299 53.879848 
L 250.830537 48.926558 
L 251.887775 44.774715 
L 252.945012 71.127256 
L 254.00225 81.401123 
L 255.059488 79.121426 
L 256.116725 75.509484 
L 257.173963 62.396412 
L 258.231201 59.5362 
L 259.288439 48.107954 
L 260.345676 73.335877 
L 261.402914 77.425746 
L 262.460152 65.390725 
L 263.51739 63.092121 
L 264.574627 64.713573 
L 265.631865 50.641845 
L 266.689103 49.588654 
L 267.74634 77.976151 
L 268.803578 75.817249 
L 270.918054 59.24174 
L 271.975291 51.996849 
L 273.032529 49.038249 
L 274.089767 51.374317 
L 276.204242 91.334314 
L 277.26148 69.366802 
L 278.318718 57.079337 
L 279.375955 50.270007 
L 281.490431 42.044051 
L 282.547669 67.652215 
L 283.604906 76.691523 
L 284.662144 64.567569 
L 285.719382 64.216739 
L 286.776619 55.638552 
L 287.833857 44.497762 
L 288.891095 44.646918 
L 289.948333 70.907374 
L 291.00557 74.516165 
L 292.062808 64.477235 
L 293.120046 59.089434 
L 294.177283 55.152571 
L 295.234521 46.53762 
L 296.291759 32.015625 
L 297.348997 67.260069 
L 298.406234 78.786702 
L 299.463472 56.805885 
L 300.52071 61.777732 
L 302.635185 43.055577 
L 303.692423 40.199566 
L 304.749661 82.977759 
L 305.806898 76.868339 
L 306.864136 64.725478 
L 307.921374 57.910896 
L 308.978612 52.876375 
L 310.035849 51.133428 
L 311.093087 51.549732 
L 312.150325 76.017173 
L 313.207562 76.670165 
L 314.2648 65.667328 
L 315.322038 63.41249 
L 316.379276 52.078779 
L 317.436513 46.417876 
L 318.493751 43.540507 
L 319.550989 75.349475 
L 320.608226 77.850804 
L 321.665464 73.876828 
L 322.722702 72.331704 
L 323.77994 122.987824 
L 324.837177 109.027787 
L 325.894415 85.674811 
L 326.951653 94.310769 
L 328.00889 86.832341 
L 329.066128 71.444474 
L 330.123366 64.261905 
L 332.237841 44.209956 
L 333.295079 41.641751 
L 334.352317 70.863958 
L 335.409555 74.282278 
L 337.52403 60.99064 
L 338.581268 53.224055 
L 339.638505 43.986573 
L 340.695743 38.695057 
L 341.752981 66.761484 
L 342.810219 70.833847 
L 343.867456 58.886358 
L 344.924694 59.462672 
L 347.039169 38.053968 
L 348.096407 39.809871 
L 349.153645 59.77954 
L 350.210883 71.673109 
L 351.26812 63.706949 
L 352.325358 61.405194 
L 353.382596 64.255603 
L 354.439834 71.83732 
L 355.497071 107.136384 
L 356.554309 156.669637 
L 357.611547 136.825315 
L 358.668784 105.664087 
L 360.78326 77.795133 
L 361.840498 74.981838 
L 362.897735 70.938886 
L 363.954973 167.852092 
L 365.012211 132.689928 
L 366.069448 102.287783 
L 367.126686 92.195283 
L 368.183924 88.531172 
L 369.241162 80.501989 
L 370.298399 77.281843 
L 371.355637 95.199049 
L 372.412875 102.846591 
L 373.470112 93.063256 
L 374.52735 86.430742 
L 375.584588 81.736898 
L 376.641826 67.635409 
L 377.699063 70.320556 
L 378.756301 81.31254 
L 379.813539 108.780945 
L 380.870777 88.33685 
L 381.928014 80.867875 
L 382.985252 79.332555 
L 384.04249 63.364872 
L 385.099727 77.600811 
L 386.156965 95.587694 
L 387.214203 101.869728 
L 388.271441 94.601727 
L 389.328678 84.94514 
L 390.385916 77.030449 
L 391.443154 73.788595 
L 392.500391 69.30798 
L 393.557629 94.592974 
L 394.614867 98.908327 
L 395.672105 92.83252 
L 396.729342 75.157603 
L 397.78658 64.503845 
L 398.843818 48.916054 
L 399.901055 53.951625 
L 400.958293 81.04364 
L 402.015531 87.909691 
L 403.072769 78.961067 
L 405.187244 67.038087 
L 406.244482 60.307536 
L 407.30172 42.430945 
L 408.358957 72.195503 
L 409.416195 90.532516 
L 410.473433 82.048864 
L 411.53067 82.428755 
L 412.587908 83.162277 
L 413.645146 84.495923 
L 414.702384 85.3751 
L 415.759621 103.304211 
L 416.816859 104.498855 
L 417.874097 87.108944 
L 418.931334 80.18092 
L 422.103048 54.381935 
L 423.160285 87.749682 
L 424.217523 99.772449 
L 425.274761 84.062112 
L 426.331999 71.726679 
L 428.446474 35.34011 
L 429.503712 42.60636 
L 430.560949 67.701583 
L 431.618187 68.807994 
L 432.675425 57.502994 
L 433.732663 53.547575 
L 434.7899 46.141623 
L 435.847138 33.390936 
L 436.904376 33.37553 
L 437.961613 76.084748 
L 439.018851 79.775119 
L 440.076089 65.446045 
L 441.133327 57.745985 
L 442.190564 44.659172 
L 443.247802 40.630226 
L 444.30504 42.100072 
L 445.362277 77.095573 
L 446.419515 85.076439 
L 447.476753 70.893019 
L 448.533991 60.245563 
L 449.591228 52.252444 
L 450.648466 41.456533 
L 451.705704 43.958562 
L 452.762942 73.093236 
L 453.820179 71.232995 
L 454.877417 63.187706 
L 455.934655 58.655973 
L 458.04913 40.75032 
L 459.106368 34.096798 
L 460.163606 75.787487 
L 461.220843 85.452478 
L 462.278081 80.565713 
L 463.335319 83.299178 
L 464.392556 76.537116 
L 465.449794 66.282856 
L 466.507032 79.839193 
L 467.56427 109.822582 
L 468.621507 107.507522 
L 469.678745 80.335327 
L 470.735983 79.621762 
L 471.79322 74.281928 
L 473.907696 56.687191 
L 474.964934 84.694447 
L 476.022171 89.92539 
L 477.079409 77.078417 
L 478.136647 66.744328 
L 479.193885 65.651572 
L 480.251122 56.166548 
L 481.30836 58.821584 
L 483.422835 99.321831 
L 484.480073 96.22248 
L 485.537311 96.482976 
L 486.594549 77.154395 
L 487.651786 75.851561 
L 488.709024 89.270997 
L 489.766262 106.322682 
L 490.823499 93.389227 
L 491.880737 84.739964 
L 492.937975 72.837642 
L 493.995213 63.722705 
L 495.05245 51.524873 
L 496.109688 45.695207 
L 497.166926 84.932535 
L 498.224164 85.697219 
L 499.281401 76.431377 
L 500.338639 63.185606 
L 501.395877 66.413455 
L 502.453114 64.456578 
L 503.510352 67.3427 
L 504.56759 85.586578 
L 505.624828 84.243829 
L 506.682065 70.327209 
L 507.739303 65.237368 
L 508.796541 67.940372 
L 509.853778 94.224637 
L 510.911016 64.916299 
L 511.968254 82.768731 
L 513.025492 91.536689 
L 514.082729 78.448126 
L 515.139967 83.650009 
L 516.197205 89.410349 
L 517.254442 89.610273 
L 518.31168 98.460161 
L 519.368918 122.89749 
L 520.426156 135.052256 
L 521.483393 82.399694 
L 522.540631 81.507913 
L 523.597869 88.90161 
L 524.655107 45.710963 
L 525.712344 58.210957 
L 526.769582 79.516373 
L 527.82682 70.792532 
L 528.884057 58.737553 
L 529.941295 54.653286 
L 530.998533 49.488517 
L 532.055771 46.754001 
L 533.113008 54.566803 
L 534.170246 83.43888 
L 535.227484 73.458072 
L 536.284721 59.892632 
L 537.341959 55.438277 
L 538.399197 52.78149 
L 539.456435 49.63242 
L 540.513672 60.267621 
L 541.57091 85.009914 
L 542.628148 78.80806 
L 543.685385 63.909324 
L 544.742623 51.686983 
L 545.799861 44.947329 
L 546.857099 46.686426 
L 547.914336 59.661896 
L 548.971574 82.216576 
L 550.028812 78.18973 
L 551.08605 67.976085 
L 552.143287 60.154529 
L 553.200525 56.569898 
L 554.257763 51.502465 
L 556.372238 89.368683 
L 557.429476 94.574767 
L 558.486714 233.615625 
L 558.486714 233.615625 
" clip-path="url(#pa27e614f87)" style="fill: none; stroke: #2e1e3b; stroke-width: 1.5; stroke-linecap: round"/>
   </g>
   <g id="patch_3">
    <path d="M 50.061094 243.695625 
L 50.061094 21.935625 
" style="fill: none; stroke: #262626; stroke-width: 1.25; stroke-linejoin: miter; stroke-linecap: square"/>
   </g>
   <g id="patch_4">
    <path d="M 582.697457 243.695625 
L 582.697457 21.935625 
" style="fill: none; stroke: #262626; stroke-width: 1.25; stroke-linejoin: miter; stroke-linecap: square"/>
   </g>
   <g id="patch_5">
    <path d="M 50.061094 243.695625 
L 582.697457 243.695625 
" style="fill: none; stroke: #262626; stroke-width: 1.25; stroke-linejoin: miter; stroke-linecap: square"/>
   </g>
   <g id="patch_6">
    <path d="M 50.061094 21.935625 
L 582.697457 21.935625 
" style="fill: none; stroke: #262626; stroke-width: 1.25; stroke-linejoin: miter; stroke-linecap: square"/>
   </g>
   <g id="text_18">
    <!-- Demand in thousands of trips per day -->
    <g style="fill: #262626" transform="translate(216.663026 15.935625) scale(0.12 -0.12)">
     <defs>
      <path id="ArialMT-68" d="M 422 0 
L 422 4581 
L 984 4581 
L 984 2938 
Q 1378 3394 1978 3394 
Q 2347 3394 2619 3248 
Q 2891 3103 3008 2847 
Q 3125 2591 3125 2103 
L 3125 0 
L 2563 0 
L 2563 2103 
Q 2563 2525 2380 2717 
Q 2197 2909 1863 2909 
Q 1613 2909 1392 2779 
Q 1172 2650 1078 2428 
Q 984 2206 984 1816 
L 984 0 
L 422 0 
z
" transform="scale(0.015625)"/>
      <path id="ArialMT-6f" d="M 213 1659 
Q 213 2581 725 3025 
Q 1153 3394 1769 3394 
Q 2453 3394 2887 2945 
Q 3322 2497 3322 1706 
Q 3322 1066 3130 698 
Q 2938 331 2570 128 
Q 2203 -75 1769 -75 
Q 1072 -75 642 372 
Q 213 819 213 1659 
z
M 791 1659 
Q 791 1022 1069 705 
Q 1347 388 1769 388 
Q 2188 388 2466 706 
Q 2744 1025 2744 1678 
Q 2744 2294 2464 2611 
Q 2184 2928 1769 2928 
Q 1347 2928 1069 2612 
Q 791 2297 791 1659 
z
" transform="scale(0.015625)"/>
      <path id="ArialMT-75" d="M 2597 0 
L 2597 488 
Q 2209 -75 1544 -75 
Q 1250 -75 995 37 
Q 741 150 617 320 
Q 494 491 444 738 
Q 409 903 409 1263 
L 409 3319 
L 972 3319 
L 972 1478 
Q 972 1038 1006 884 
Q 1059 663 1231 536 
Q 1403 409 1656 409 
Q 1909 409 2131 539 
Q 2353 669 2445 892 
Q 2538 1116 2538 1541 
L 2538 3319 
L 3100 3319 
L 3100 0 
L 2597 0 
z
" transform="scale(0.015625)"/>
      <path id="ArialMT-66" d="M 556 0 
L 556 2881 
L 59 2881 
L 59 3319 
L 556 3319 
L 556 3672 
Q 556 4006 616 4169 
Q 697 4388 901 4523 
Q 1106 4659 1475 4659 
Q 1713 4659 2000 4603 
L 1916 4113 
Q 1741 4144 1584 4144 
Q 1328 4144 1222 4034 
Q 1116 3925 1116 3625 
L 1116 3319 
L 1763 3319 
L 1763 2881 
L 1116 2881 
L 1116 0 
L 556 0 
z
" transform="scale(0.015625)"/>
     </defs>
     <use xlink:href="#ArialMT-44"/>
     <use xlink:href="#ArialMT-65" x="72.216797"/>
     <use xlink:href="#ArialMT-6d" x="127.832031"/>
     <use xlink:href="#ArialMT-61" x="211.132812"/>
     <use xlink:href="#ArialMT-6e" x="266.748047"/>
     <use xlink:href="#ArialMT-64" x="322.363281"/>
     <use xlink:href="#ArialMT-20" x="377.978516"/>
     <use xlink:href="#ArialMT-69" x="405.761719"/>
     <use xlink:href="#ArialMT-6e" x="427.978516"/>
     <use xlink:href="#ArialMT-20" x="483.59375"/>
     <use xlink:href="#ArialMT-74" x="511.376953"/>
     <use xlink:href="#ArialMT-68" x="539.160156"/>
     <use xlink:href="#ArialMT-6f" x="594.775391"/>
     <use xlink:href="#ArialMT-75" x="650.390625"/>
     <use xlink:href="#ArialMT-73" x="706.005859"/>
     <use xlink:href="#ArialMT-61" x="756.005859"/>
     <use xlink:href="#ArialMT-6e" x="811.621094"/>
     <use xlink:href="#ArialMT-64" x="867.236328"/>
     <use xlink:href="#ArialMT-73" x="922.851562"/>
     <use xlink:href="#ArialMT-20" x="972.851562"/>
     <use xlink:href="#ArialMT-6f" x="1000.634766"/>
     <use xlink:href="#ArialMT-66" x="1056.25"/>
     <use xlink:href="#ArialMT-20" x="1084.033203"/>
     <use xlink:href="#ArialMT-74" x="1111.816406"/>
     <use xlink:href="#ArialMT-72" x="1139.599609"/>
     <use xlink:href="#ArialMT-69" x="1172.900391"/>
     <use xlink:href="#ArialMT-70" x="1195.117188"/>
     <use xlink:href="#ArialMT-73" x="1250.732422"/>
     <use xlink:href="#ArialMT-20" x="1300.732422"/>
     <use xlink:href="#ArialMT-70" x="1328.515625"/>
     <use xlink:href="#ArialMT-65" x="1384.130859"/>
     <use xlink:href="#ArialMT-72" x="1439.746094"/>
     <use xlink:href="#ArialMT-20" x="1473.046875"/>
     <use xlink:href="#ArialMT-64" x="1500.830078"/>
     <use xlink:href="#ArialMT-61" x="1556.445312"/>
     <use xlink:href="#ArialMT-79" x="1612.060547"/>
    </g>
   </g>
  </g>
  <g id="axes_2">
   <g id="patch_7">
    <path d="M 658.788366 243.695625 
L 887.061094 243.695625 
L 887.061094 21.935625 
L 658.788366 21.935625 
z
" style="fill: #ffffff"/>
   </g>
   <g id="matplotlib.axis_3">
    <g id="xtick_9">
     <g id="text_19">
      <!-- 0 -->
      <g style="fill: #262626" transform="translate(661.733716 261.069219) scale(0.11 -0.11)">
       <use xlink:href="#ArialMT-30"/>
      </g>
     </g>
    </g>
    <g id="xtick_10">
     <g id="text_20">
      <!-- 200 -->
      <g style="fill: #262626" transform="translate(727.69925 261.069219) scale(0.11 -0.11)">
       <use xlink:href="#ArialMT-32"/>
       <use xlink:href="#ArialMT-30" x="55.615234"/>
       <use xlink:href="#ArialMT-30" x="111.230469"/>
      </g>
     </g>
    </g>
    <g id="xtick_11">
     <g id="text_21">
      <!-- 400 -->
      <g style="fill: #262626" transform="translate(799.781816 261.069219) scale(0.11 -0.11)">
       <use xlink:href="#ArialMT-34"/>
       <use xlink:href="#ArialMT-30" x="55.615234"/>
       <use xlink:href="#ArialMT-30" x="111.230469"/>
      </g>
     </g>
    </g>
    <g id="xtick_12">
     <g id="text_22">
      <!-- 600 -->
      <g style="fill: #262626" transform="translate(871.864382 261.069219) scale(0.11 -0.11)">
       <use xlink:href="#ArialMT-36"/>
       <use xlink:href="#ArialMT-30" x="55.615234"/>
       <use xlink:href="#ArialMT-30" x="111.230469"/>
      </g>
     </g>
    </g>
    <g id="text_23">
     <!-- Demand [1e3 trips] -->
     <g style="fill: #262626" transform="translate(722.23598 275.880469) scale(0.12 -0.12)">
      <use xlink:href="#ArialMT-44"/>
      <use xlink:href="#ArialMT-65" x="72.216797"/>
      <use xlink:href="#ArialMT-6d" x="127.832031"/>
      <use xlink:href="#ArialMT-61" x="211.132812"/>
      <use xlink:href="#ArialMT-6e" x="266.748047"/>
      <use xlink:href="#ArialMT-64" x="322.363281"/>
      <use xlink:href="#ArialMT-20" x="377.978516"/>
      <use xlink:href="#ArialMT-5b" x="405.761719"/>
      <use xlink:href="#ArialMT-31" x="433.544922"/>
      <use xlink:href="#ArialMT-65" x="489.160156"/>
      <use xlink:href="#ArialMT-33" x="544.775391"/>
      <use xlink:href="#ArialMT-20" x="600.390625"/>
      <use xlink:href="#ArialMT-74" x="628.173828"/>
      <use xlink:href="#ArialMT-72" x="655.957031"/>
      <use xlink:href="#ArialMT-69" x="689.257812"/>
      <use xlink:href="#ArialMT-70" x="711.474609"/>
      <use xlink:href="#ArialMT-73" x="767.089844"/>
      <use xlink:href="#ArialMT-5d" x="817.089844"/>
     </g>
    </g>
   </g>
   <g id="matplotlib.axis_4">
    <g id="ytick_8">
     <g id="text_24">
      <!-- 0 -->
      <g style="fill: #262626" transform="translate(643.171335 247.632422) scale(0.11 -0.11)">
       <use xlink:href="#ArialMT-30"/>
      </g>
     </g>
    </g>
    <g id="ytick_9">
     <g id="text_25">
      <!-- 10 -->
      <g style="fill: #262626" transform="translate(637.054304 211.218629) scale(0.11 -0.11)">
       <use xlink:href="#ArialMT-31"/>
       <use xlink:href="#ArialMT-30" x="55.615234"/>
      </g>
     </g>
    </g>
    <g id="ytick_10">
     <g id="text_26">
      <!-- 20 -->
      <g style="fill: #262626" transform="translate(637.054304 174.804836) scale(0.11 -0.11)">
       <use xlink:href="#ArialMT-32"/>
       <use xlink:href="#ArialMT-30" x="55.615234"/>
      </g>
     </g>
    </g>
    <g id="ytick_11">
     <g id="text_27">
      <!-- 30 -->
      <g style="fill: #262626" transform="translate(637.054304 138.391043) scale(0.11 -0.11)">
       <use xlink:href="#ArialMT-33"/>
       <use xlink:href="#ArialMT-30" x="55.615234"/>
      </g>
     </g>
    </g>
    <g id="ytick_12">
     <g id="text_28">
      <!-- 40 -->
      <g style="fill: #262626" transform="translate(637.054304 101.977249) scale(0.11 -0.11)">
       <use xlink:href="#ArialMT-34"/>
       <use xlink:href="#ArialMT-30" x="55.615234"/>
      </g>
     </g>
    </g>
    <g id="ytick_13">
     <g id="text_29">
      <!-- 50 -->
      <g style="fill: #262626" transform="translate(637.054304 65.563456) scale(0.11 -0.11)">
       <use xlink:href="#ArialMT-35"/>
       <use xlink:href="#ArialMT-30" x="55.615234"/>
      </g>
     </g>
    </g>
    <g id="ytick_14">
     <g id="text_30">
      <!-- 60 -->
      <g style="fill: #262626" transform="translate(637.054304 29.149663) scale(0.11 -0.11)">
       <use xlink:href="#ArialMT-36"/>
       <use xlink:href="#ArialMT-30" x="55.615234"/>
      </g>
     </g>
    </g>
    <g id="text_31">
     <!-- Count -->
     <g style="fill: #262626" transform="translate(630.669304 148.825312) rotate(-90) scale(0.12 -0.12)">
      <defs>
       <path id="ArialMT-43" d="M 3763 1606 
L 4369 1453 
Q 4178 706 3683 314 
Q 3188 -78 2472 -78 
Q 1731 -78 1267 223 
Q 803 525 561 1097 
Q 319 1669 319 2325 
Q 319 3041 592 3573 
Q 866 4106 1370 4382 
Q 1875 4659 2481 4659 
Q 3169 4659 3637 4309 
Q 4106 3959 4291 3325 
L 3694 3184 
Q 3534 3684 3231 3912 
Q 2928 4141 2469 4141 
Q 1941 4141 1586 3887 
Q 1231 3634 1087 3207 
Q 944 2781 944 2328 
Q 944 1744 1114 1308 
Q 1284 872 1643 656 
Q 2003 441 2422 441 
Q 2931 441 3284 734 
Q 3638 1028 3763 1606 
z
" transform="scale(0.015625)"/>
      </defs>
      <use xlink:href="#ArialMT-43"/>
      <use xlink:href="#ArialMT-6f" x="72.216797"/>
      <use xlink:href="#ArialMT-75" x="127.832031"/>
      <use xlink:href="#ArialMT-6e" x="183.447266"/>
      <use xlink:href="#ArialMT-74" x="239.0625"/>
     </g>
    </g>
   </g>
   <g id="patch_8">
    <path d="M 669.1644 243.695625 
L 675.64942 243.695625 
L 675.64942 236.412866 
L 669.1644 236.412866 
z
" clip-path="url(#p9143766cce)" style="fill: #2e1e3b; fill-opacity: 0.75; stroke: #ffffff; stroke-width: 0.648502; stroke-linejoin: miter"/>
   </g>
   <g id="patch_9">
    <path d="M 675.64942 243.695625 
L 682.134441 243.695625 
L 682.134441 243.695625 
L 675.64942 243.695625 
z
" clip-path="url(#p9143766cce)" style="fill: #2e1e3b; fill-opacity: 0.75; stroke: #ffffff; stroke-width: 0.648502; stroke-linejoin: miter"/>
   </g>
   <g id="patch_10">
    <path d="M 682.134441 243.695625 
L 688.619462 243.695625 
L 688.619462 243.695625 
L 682.134441 243.695625 
z
" clip-path="url(#p9143766cce)" style="fill: #2e1e3b; fill-opacity: 0.75; stroke: #ffffff; stroke-width: 0.648502; stroke-linejoin: miter"/>
   </g>
   <g id="patch_11">
    <path d="M 688.619462 243.695625 
L 695.104482 243.695625 
L 695.104482 243.695625 
L 688.619462 243.695625 
z
" clip-path="url(#p9143766cce)" style="fill: #2e1e3b; fill-opacity: 0.75; stroke: #ffffff; stroke-width: 0.648502; stroke-linejoin: miter"/>
   </g>
   <g id="patch_12">
    <path d="M 695.104482 243.695625 
L 701.589503 243.695625 
L 701.589503 243.695625 
L 695.104482 243.695625 
z
" clip-path="url(#p9143766cce)" style="fill: #2e1e3b; fill-opacity: 0.75; stroke: #ffffff; stroke-width: 0.648502; stroke-linejoin: miter"/>
   </g>
   <g id="patch_13">
    <path d="M 701.589503 243.695625 
L 708.074524 243.695625 
L 708.074524 243.695625 
L 701.589503 243.695625 
z
" clip-path="url(#p9143766cce)" style="fill: #2e1e3b; fill-opacity: 0.75; stroke: #ffffff; stroke-width: 0.648502; stroke-linejoin: miter"/>
   </g>
   <g id="patch_14">
    <path d="M 708.074524 243.695625 
L 714.559544 243.695625 
L 714.559544 243.695625 
L 708.074524 243.695625 
z
" clip-path="url(#p9143766cce)" style="fill: #2e1e3b; fill-opacity: 0.75; stroke: #ffffff; stroke-width: 0.648502; stroke-linejoin: miter"/>
   </g>
   <g id="patch_15">
    <path d="M 714.559544 243.695625 
L 721.044565 243.695625 
L 721.044565 243.695625 
L 714.559544 243.695625 
z
" clip-path="url(#p9143766cce)" style="fill: #2e1e3b; fill-opacity: 0.75; stroke: #ffffff; stroke-width: 0.648502; stroke-linejoin: miter"/>
   </g>
   <g id="patch_16">
    <path d="M 721.044565 243.695625 
L 727.529585 243.695625 
L 727.529585 243.695625 
L 721.044565 243.695625 
z
" clip-path="url(#p9143766cce)" style="fill: #2e1e3b; fill-opacity: 0.75; stroke: #ffffff; stroke-width: 0.648502; stroke-linejoin: miter"/>
   </g>
   <g id="patch_17">
    <path d="M 727.529585 243.695625 
L 734.014606 243.695625 
L 734.014606 243.695625 
L 727.529585 243.695625 
z
" clip-path="url(#p9143766cce)" style="fill: #2e1e3b; fill-opacity: 0.75; stroke: #ffffff; stroke-width: 0.648502; stroke-linejoin: miter"/>
   </g>
   <g id="patch_18">
    <path d="M 734.014606 243.695625 
L 740.499627 243.695625 
L 740.499627 236.412866 
L 734.014606 236.412866 
z
" clip-path="url(#p9143766cce)" style="fill: #2e1e3b; fill-opacity: 0.75; stroke: #ffffff; stroke-width: 0.648502; stroke-linejoin: miter"/>
   </g>
   <g id="patch_19">
    <path d="M 740.499627 243.695625 
L 746.984647 243.695625 
L 746.984647 240.054246 
L 740.499627 240.054246 
z
" clip-path="url(#p9143766cce)" style="fill: #2e1e3b; fill-opacity: 0.75; stroke: #ffffff; stroke-width: 0.648502; stroke-linejoin: miter"/>
   </g>
   <g id="patch_20">
    <path d="M 746.984647 243.695625 
L 753.469668 243.695625 
L 753.469668 232.771487 
L 746.984647 232.771487 
z
" clip-path="url(#p9143766cce)" style="fill: #2e1e3b; fill-opacity: 0.75; stroke: #ffffff; stroke-width: 0.648502; stroke-linejoin: miter"/>
   </g>
   <g id="patch_21">
    <path d="M 753.469668 243.695625 
L 759.954689 243.695625 
L 759.954689 240.054246 
L 753.469668 240.054246 
z
" clip-path="url(#p9143766cce)" style="fill: #2e1e3b; fill-opacity: 0.75; stroke: #ffffff; stroke-width: 0.648502; stroke-linejoin: miter"/>
   </g>
   <g id="patch_22">
    <path d="M 759.954689 243.695625 
L 766.439709 243.695625 
L 766.439709 243.695625 
L 759.954689 243.695625 
z
" clip-path="url(#p9143766cce)" style="fill: #2e1e3b; fill-opacity: 0.75; stroke: #ffffff; stroke-width: 0.648502; stroke-linejoin: miter"/>
   </g>
   <g id="patch_23">
    <path d="M 766.439709 243.695625 
L 772.92473 243.695625 
L 772.92473 236.412866 
L 766.439709 236.412866 
z
" clip-path="url(#p9143766cce)" style="fill: #2e1e3b; fill-opacity: 0.75; stroke: #ffffff; stroke-width: 0.648502; stroke-linejoin: miter"/>
   </g>
   <g id="patch_24">
    <path d="M 772.92473 243.695625 
L 779.409751 243.695625 
L 779.409751 236.412866 
L 772.92473 236.412866 
z
" clip-path="url(#p9143766cce)" style="fill: #2e1e3b; fill-opacity: 0.75; stroke: #ffffff; stroke-width: 0.648502; stroke-linejoin: miter"/>
   </g>
   <g id="patch_25">
    <path d="M 779.409751 243.695625 
L 785.894771 243.695625 
L 785.894771 229.130108 
L 779.409751 229.130108 
z
" clip-path="url(#p9143766cce)" style="fill: #2e1e3b; fill-opacity: 0.75; stroke: #ffffff; stroke-width: 0.648502; stroke-linejoin: miter"/>
   </g>
   <g id="patch_26">
    <path d="M 785.894771 243.695625 
L 792.379792 243.695625 
L 792.379792 240.054246 
L 785.894771 240.054246 
z
" clip-path="url(#p9143766cce)" style="fill: #2e1e3b; fill-opacity: 0.75; stroke: #ffffff; stroke-width: 0.648502; stroke-linejoin: miter"/>
   </g>
   <g id="patch_27">
    <path d="M 792.379792 243.695625 
L 798.864813 243.695625 
L 798.864813 229.130108 
L 792.379792 229.130108 
z
" clip-path="url(#p9143766cce)" style="fill: #2e1e3b; fill-opacity: 0.75; stroke: #ffffff; stroke-width: 0.648502; stroke-linejoin: miter"/>
   </g>
   <g id="patch_28">
    <path d="M 798.864813 243.695625 
L 805.349833 243.695625 
L 805.349833 207.281832 
L 798.864813 207.281832 
z
" clip-path="url(#p9143766cce)" style="fill: #2e1e3b; fill-opacity: 0.75; stroke: #ffffff; stroke-width: 0.648502; stroke-linejoin: miter"/>
   </g>
   <g id="patch_29">
    <path d="M 805.349833 243.695625 
L 811.834854 243.695625 
L 811.834854 207.281832 
L 805.349833 207.281832 
z
" clip-path="url(#p9143766cce)" style="fill: #2e1e3b; fill-opacity: 0.75; stroke: #ffffff; stroke-width: 0.648502; stroke-linejoin: miter"/>
   </g>
   <g id="patch_30">
    <path d="M 811.834854 243.695625 
L 818.319875 243.695625 
L 818.319875 159.943901 
L 811.834854 159.943901 
z
" clip-path="url(#p9143766cce)" style="fill: #2e1e3b; fill-opacity: 0.75; stroke: #ffffff; stroke-width: 0.648502; stroke-linejoin: miter"/>
   </g>
   <g id="patch_31">
    <path d="M 818.319875 243.695625 
L 824.804895 243.695625 
L 824.804895 108.964591 
L 818.319875 108.964591 
z
" clip-path="url(#p9143766cce)" style="fill: #2e1e3b; fill-opacity: 0.75; stroke: #ffffff; stroke-width: 0.648502; stroke-linejoin: miter"/>
   </g>
   <g id="patch_32">
    <path d="M 824.804895 243.695625 
L 831.289916 243.695625 
L 831.289916 32.495625 
L 824.804895 32.495625 
z
" clip-path="url(#p9143766cce)" style="fill: #2e1e3b; fill-opacity: 0.75; stroke: #ffffff; stroke-width: 0.648502; stroke-linejoin: miter"/>
   </g>
   <g id="patch_33">
    <path d="M 831.289916 243.695625 
L 837.774937 243.695625 
L 837.774937 39.778384 
L 831.289916 39.778384 
z
" clip-path="url(#p9143766cce)" style="fill: #2e1e3b; fill-opacity: 0.75; stroke: #ffffff; stroke-width: 0.648502; stroke-linejoin: miter"/>
   </g>
   <g id="patch_34">
    <path d="M 837.774937 243.695625 
L 844.259957 243.695625 
L 844.259957 43.419763 
L 837.774937 43.419763 
z
" clip-path="url(#p9143766cce)" style="fill: #2e1e3b; fill-opacity: 0.75; stroke: #ffffff; stroke-width: 0.648502; stroke-linejoin: miter"/>
   </g>
   <g id="patch_35">
    <path d="M 844.259957 243.695625 
L 850.744978 243.695625 
L 850.744978 32.495625 
L 844.259957 32.495625 
z
" clip-path="url(#p9143766cce)" style="fill: #2e1e3b; fill-opacity: 0.75; stroke: #ffffff; stroke-width: 0.648502; stroke-linejoin: miter"/>
   </g>
   <g id="patch_36">
    <path d="M 850.744978 243.695625 
L 857.229999 243.695625 
L 857.229999 39.778384 
L 850.744978 39.778384 
z
" clip-path="url(#p9143766cce)" style="fill: #2e1e3b; fill-opacity: 0.75; stroke: #ffffff; stroke-width: 0.648502; stroke-linejoin: miter"/>
   </g>
   <g id="patch_37">
    <path d="M 857.229999 243.695625 
L 863.715019 243.695625 
L 863.715019 90.757694 
L 857.229999 90.757694 
z
" clip-path="url(#p9143766cce)" style="fill: #2e1e3b; fill-opacity: 0.75; stroke: #ffffff; stroke-width: 0.648502; stroke-linejoin: miter"/>
   </g>
   <g id="patch_38">
    <path d="M 863.715019 243.695625 
L 870.20004 243.695625 
L 870.20004 156.302522 
L 863.715019 156.302522 
z
" clip-path="url(#p9143766cce)" style="fill: #2e1e3b; fill-opacity: 0.75; stroke: #ffffff; stroke-width: 0.648502; stroke-linejoin: miter"/>
   </g>
   <g id="patch_39">
    <path d="M 870.20004 243.695625 
L 876.685061 243.695625 
L 876.685061 214.564591 
L 870.20004 214.564591 
z
" clip-path="url(#p9143766cce)" style="fill: #2e1e3b; fill-opacity: 0.75; stroke: #ffffff; stroke-width: 0.648502; stroke-linejoin: miter"/>
   </g>
   <g id="line2d_2">
    <path d="M 839.951064 243.695625 
L 839.951064 21.935625 
" clip-path="url(#p9143766cce)" style="fill: none; stroke-dasharray: 5.55,2.4; stroke-dashoffset: 0; stroke: #ff0000; stroke-width: 1.5"/>
   </g>
   <g id="patch_40">
    <path d="M 658.788366 243.695625 
L 658.788366 21.935625 
" style="fill: none; stroke: #262626; stroke-width: 1.25; stroke-linejoin: miter; stroke-linecap: square"/>
   </g>
   <g id="patch_41">
    <path d="M 887.061094 243.695625 
L 887.061094 21.935625 
" style="fill: none; stroke: #262626; stroke-width: 1.25; stroke-linejoin: miter; stroke-linecap: square"/>
   </g>
   <g id="patch_42">
    <path d="M 658.788366 243.695625 
L 887.061094 243.695625 
" style="fill: none; stroke: #262626; stroke-width: 1.25; stroke-linejoin: miter; stroke-linecap: square"/>
   </g>
   <g id="patch_43">
    <path d="M 658.788366 21.935625 
L 887.061094 21.935625 
" style="fill: none; stroke: #262626; stroke-width: 1.25; stroke-linejoin: miter; stroke-linecap: square"/>
   </g>
   <g id="text_32">
    <!-- Distribution of daily taxi demand -->
    <g style="fill: #262626" transform="translate(687.886918 15.935625) scale(0.12 -0.12)">
     <defs>
      <path id="ArialMT-62" d="M 941 0 
L 419 0 
L 419 4581 
L 981 4581 
L 981 2947 
Q 1338 3394 1891 3394 
Q 2197 3394 2470 3270 
Q 2744 3147 2920 2923 
Q 3097 2700 3197 2384 
Q 3297 2069 3297 1709 
Q 3297 856 2875 390 
Q 2453 -75 1863 -75 
Q 1275 -75 941 416 
L 941 0 
z
M 934 1684 
Q 934 1088 1097 822 
Q 1363 388 1816 388 
Q 2184 388 2453 708 
Q 2722 1028 2722 1663 
Q 2722 2313 2464 2622 
Q 2206 2931 1841 2931 
Q 1472 2931 1203 2611 
Q 934 2291 934 1684 
z
" transform="scale(0.015625)"/>
      <path id="ArialMT-6c" d="M 409 0 
L 409 4581 
L 972 4581 
L 972 0 
L 409 0 
z
" transform="scale(0.015625)"/>
      <path id="ArialMT-78" d="M 47 0 
L 1259 1725 
L 138 3319 
L 841 3319 
L 1350 2541 
Q 1494 2319 1581 2169 
Q 1719 2375 1834 2534 
L 2394 3319 
L 3066 3319 
L 1919 1756 
L 3153 0 
L 2463 0 
L 1781 1031 
L 1600 1309 
L 728 0 
L 47 0 
z
" transform="scale(0.015625)"/>
     </defs>
     <use xlink:href="#ArialMT-44"/>
     <use xlink:href="#ArialMT-69" x="72.216797"/>
     <use xlink:href="#ArialMT-73" x="94.433594"/>
     <use xlink:href="#ArialMT-74" x="144.433594"/>
     <use xlink:href="#ArialMT-72" x="172.216797"/>
     <use xlink:href="#ArialMT-69" x="205.517578"/>
     <use xlink:href="#ArialMT-62" x="227.734375"/>
     <use xlink:href="#ArialMT-75" x="283.349609"/>
     <use xlink:href="#ArialMT-74" x="338.964844"/>
     <use xlink:href="#ArialMT-69" x="366.748047"/>
     <use xlink:href="#ArialMT-6f" x="388.964844"/>
     <use xlink:href="#ArialMT-6e" x="444.580078"/>
     <use xlink:href="#ArialMT-20" x="500.195312"/>
     <use xlink:href="#ArialMT-6f" x="527.978516"/>
     <use xlink:href="#ArialMT-66" x="583.59375"/>
     <use xlink:href="#ArialMT-20" x="611.376953"/>
     <use xlink:href="#ArialMT-64" x="639.160156"/>
     <use xlink:href="#ArialMT-61" x="694.775391"/>
     <use xlink:href="#ArialMT-69" x="750.390625"/>
     <use xlink:href="#ArialMT-6c" x="772.607422"/>
     <use xlink:href="#ArialMT-79" x="794.824219"/>
     <use xlink:href="#ArialMT-20" x="844.824219"/>
     <use xlink:href="#ArialMT-74" x="872.607422"/>
     <use xlink:href="#ArialMT-61" x="900.390625"/>
     <use xlink:href="#ArialMT-78" x="956.005859"/>
     <use xlink:href="#ArialMT-69" x="1006.005859"/>
     <use xlink:href="#ArialMT-20" x="1028.222656"/>
     <use xlink:href="#ArialMT-64" x="1056.005859"/>
     <use xlink:href="#ArialMT-65" x="1111.621094"/>
     <use xlink:href="#ArialMT-6d" x="1167.236328"/>
     <use xlink:href="#ArialMT-61" x="1250.537109"/>
     <use xlink:href="#ArialMT-6e" x="1306.152344"/>
     <use xlink:href="#ArialMT-64" x="1361.767578"/>
    </g>
   </g>
  </g>
 </g>
 <defs>
  <clipPath id="pa27e614f87">
   <rect x="50.061094" y="21.935625" width="532.636364" height="221.76"/>
  </clipPath>
  <clipPath id="p9143766cce">
   <rect x="658.788366" y="21.935625" width="228.272727" height="221.76"/>
  </clipPath>
 </defs>
</svg>
