<?xml version="1.0" encoding="utf-8" standalone="no"?>
<!DOCTYPE svg PUBLIC "-//W3C//DTD SVG 1.1//EN"
  "http://www.w3.org/Graphics/SVG/1.1/DTD/svg11.dtd">
<svg xmlns:xlink="http://www.w3.org/1999/xlink" width="882.027031pt" height="229.989844pt" viewBox="0 0 882.027031 229.989844" xmlns="http://www.w3.org/2000/svg" version="1.1">
 <metadata>
  <rdf:RDF xmlns:dc="http://purl.org/dc/elements/1.1/" xmlns:cc="http://creativecommons.org/ns#" xmlns:rdf="http://www.w3.org/1999/02/22-rdf-syntax-ns#">
   <cc:Work>
    <dc:type rdf:resource="http://purl.org/dc/dcmitype/StillImage"/>
    <dc:date>2023-08-13T03:39:06.568894</dc:date>
    <dc:format>image/svg+xml</dc:format>
    <dc:creator>
     <cc:Agent>
      <dc:title>Matplotlib v3.7.1, https://matplotlib.org/</dc:title>
     </cc:Agent>
    </dc:creator>
   </cc:Work>
  </rdf:RDF>
 </metadata>
 <defs>
  <style type="text/css">*{stroke-linejoin: round; stroke-linecap: butt}</style>
 </defs>
 <g id="figure_1">
  <g id="patch_1">
   <path d="M 0 229.989844 
L 882.027031 229.989844 
L 882.027031 0 
L 0 0 
z
" style="fill: #ffffff"/>
  </g>
  <g id="axes_1">
   <g id="patch_2">
    <path d="M 37.827031 188.255625 
L 874.827031 188.255625 
L 874.827031 21.935625 
L 37.827031 21.935625 
z
" style="fill: #ffffff"/>
   </g>
   <g id="patch_3">
    <path d="M 37.827031 188.255625 
L 37.827031 21.935625 
L 128.536391 21.935625 
L 128.536391 188.255625 
z
" clip-path="url(#p12e4b00c65)" style="fill: #44af69; opacity: 0.25; stroke: #44af69; stroke-linejoin: miter"/>
   </g>
   <g id="patch_4">
    <path d="M 128.536391 188.255625 
L 128.536391 21.935625 
L 146.403386 21.935625 
L 146.403386 188.255625 
z
" clip-path="url(#p12e4b00c65)" style="fill: #f2dc5d; opacity: 0.125; stroke: #f2dc5d; stroke-linejoin: miter"/>
   </g>
   <g id="matplotlib.axis_1">
    <g id="xtick_1"/>
    <g id="xtick_2">
     <g id="text_1">
      <!-- 2012 -->
      <g style="fill: #262626" transform="translate(80.568338 205.629219) scale(0.11 -0.11)">
       <defs>
        <path id="ArialMT-32" d="M 3222 541 
L 3222 0 
L 194 0 
Q 188 203 259 391 
Q 375 700 629 1000 
Q 884 1300 1366 1694 
Q 2113 2306 2375 2664 
Q 2638 3022 2638 3341 
Q 2638 3675 2398 3904 
Q 2159 4134 1775 4134 
Q 1369 4134 1125 3890 
Q 881 3647 878 3216 
L 300 3275 
Q 359 3922 746 4261 
Q 1134 4600 1788 4600 
Q 2447 4600 2831 4234 
Q 3216 3869 3216 3328 
Q 3216 3053 3103 2787 
Q 2991 2522 2730 2228 
Q 2469 1934 1863 1422 
Q 1356 997 1212 845 
Q 1069 694 975 541 
L 3222 541 
z
" transform="scale(0.015625)"/>
        <path id="ArialMT-30" d="M 266 2259 
Q 266 3072 433 3567 
Q 600 4063 929 4331 
Q 1259 4600 1759 4600 
Q 2128 4600 2406 4451 
Q 2684 4303 2865 4023 
Q 3047 3744 3150 3342 
Q 3253 2941 3253 2259 
Q 3253 1453 3087 958 
Q 2922 463 2592 192 
Q 2263 -78 1759 -78 
Q 1097 -78 719 397 
Q 266 969 266 2259 
z
M 844 2259 
Q 844 1131 1108 757 
Q 1372 384 1759 384 
Q 2147 384 2411 759 
Q 2675 1134 2675 2259 
Q 2675 3391 2411 3762 
Q 2147 4134 1753 4134 
Q 1366 4134 1134 3806 
Q 844 3388 844 2259 
z
" transform="scale(0.015625)"/>
        <path id="ArialMT-31" d="M 2384 0 
L 1822 0 
L 1822 3584 
Q 1619 3391 1289 3197 
Q 959 3003 697 2906 
L 697 3450 
Q 1169 3672 1522 3987 
Q 1875 4303 2022 4600 
L 2384 4600 
L 2384 0 
z
" transform="scale(0.015625)"/>
       </defs>
       <use xlink:href="#ArialMT-32"/>
       <use xlink:href="#ArialMT-30" x="55.615234"/>
       <use xlink:href="#ArialMT-31" x="111.230469"/>
       <use xlink:href="#ArialMT-32" x="166.845703"/>
      </g>
     </g>
    </g>
    <g id="xtick_3">
     <g id="text_2">
      <!-- 2014 -->
      <g style="fill: #262626" transform="translate(224.878683 205.629219) scale(0.11 -0.11)">
       <defs>
        <path id="ArialMT-34" d="M 2069 0 
L 2069 1097 
L 81 1097 
L 81 1613 
L 2172 4581 
L 2631 4581 
L 2631 1613 
L 3250 1613 
L 3250 1097 
L 2631 1097 
L 2631 0 
L 2069 0 
z
M 2069 1613 
L 2069 3678 
L 634 1613 
L 2069 1613 
z
" transform="scale(0.015625)"/>
       </defs>
       <use xlink:href="#ArialMT-32"/>
       <use xlink:href="#ArialMT-30" x="55.615234"/>
       <use xlink:href="#ArialMT-31" x="111.230469"/>
       <use xlink:href="#ArialMT-34" x="166.845703"/>
      </g>
     </g>
    </g>
    <g id="xtick_4">
     <g id="text_3">
      <!-- 2016 -->
      <g style="fill: #262626" transform="translate(367.814644 205.629219) scale(0.11 -0.11)">
       <defs>
        <path id="ArialMT-36" d="M 3184 3459 
L 2625 3416 
Q 2550 3747 2413 3897 
Q 2184 4138 1850 4138 
Q 1581 4138 1378 3988 
Q 1113 3794 959 3422 
Q 806 3050 800 2363 
Q 1003 2672 1297 2822 
Q 1591 2972 1913 2972 
Q 2475 2972 2870 2558 
Q 3266 2144 3266 1488 
Q 3266 1056 3080 686 
Q 2894 316 2569 119 
Q 2244 -78 1831 -78 
Q 1128 -78 684 439 
Q 241 956 241 2144 
Q 241 3472 731 4075 
Q 1159 4600 1884 4600 
Q 2425 4600 2770 4297 
Q 3116 3994 3184 3459 
z
M 888 1484 
Q 888 1194 1011 928 
Q 1134 663 1356 523 
Q 1578 384 1822 384 
Q 2178 384 2434 671 
Q 2691 959 2691 1453 
Q 2691 1928 2437 2201 
Q 2184 2475 1800 2475 
Q 1419 2475 1153 2201 
Q 888 1928 888 1484 
z
" transform="scale(0.015625)"/>
       </defs>
       <use xlink:href="#ArialMT-32"/>
       <use xlink:href="#ArialMT-30" x="55.615234"/>
       <use xlink:href="#ArialMT-31" x="111.230469"/>
       <use xlink:href="#ArialMT-36" x="166.845703"/>
      </g>
     </g>
    </g>
    <g id="xtick_5">
     <g id="text_4">
      <!-- 2018 -->
      <g style="fill: #262626" transform="translate(510.750604 205.629219) scale(0.11 -0.11)">
       <defs>
        <path id="ArialMT-38" d="M 1131 2484 
Q 781 2613 612 2850 
Q 444 3088 444 3419 
Q 444 3919 803 4259 
Q 1163 4600 1759 4600 
Q 2359 4600 2725 4251 
Q 3091 3903 3091 3403 
Q 3091 3084 2923 2848 
Q 2756 2613 2416 2484 
Q 2838 2347 3058 2040 
Q 3278 1734 3278 1309 
Q 3278 722 2862 322 
Q 2447 -78 1769 -78 
Q 1091 -78 675 323 
Q 259 725 259 1325 
Q 259 1772 486 2073 
Q 713 2375 1131 2484 
z
M 1019 3438 
Q 1019 3113 1228 2906 
Q 1438 2700 1772 2700 
Q 2097 2700 2305 2904 
Q 2513 3109 2513 3406 
Q 2513 3716 2298 3927 
Q 2084 4138 1766 4138 
Q 1444 4138 1231 3931 
Q 1019 3725 1019 3438 
z
M 838 1322 
Q 838 1081 952 856 
Q 1066 631 1291 507 
Q 1516 384 1775 384 
Q 2178 384 2440 643 
Q 2703 903 2703 1303 
Q 2703 1709 2433 1975 
Q 2163 2241 1756 2241 
Q 1359 2241 1098 1978 
Q 838 1716 838 1322 
z
" transform="scale(0.015625)"/>
       </defs>
       <use xlink:href="#ArialMT-32"/>
       <use xlink:href="#ArialMT-30" x="55.615234"/>
       <use xlink:href="#ArialMT-31" x="111.230469"/>
       <use xlink:href="#ArialMT-38" x="166.845703"/>
      </g>
     </g>
    </g>
    <g id="xtick_6">
     <g id="text_5">
      <!-- 2020 -->
      <g style="fill: #262626" transform="translate(655.060949 205.629219) scale(0.11 -0.11)">
       <use xlink:href="#ArialMT-32"/>
       <use xlink:href="#ArialMT-30" x="55.615234"/>
       <use xlink:href="#ArialMT-32" x="111.230469"/>
       <use xlink:href="#ArialMT-30" x="166.845703"/>
      </g>
     </g>
    </g>
    <g id="xtick_7">
     <g id="text_6">
      <!-- 2022 -->
      <g style="fill: #262626" transform="translate(797.99691 205.629219) scale(0.11 -0.11)">
       <use xlink:href="#ArialMT-32"/>
       <use xlink:href="#ArialMT-30" x="55.615234"/>
       <use xlink:href="#ArialMT-32" x="111.230469"/>
       <use xlink:href="#ArialMT-32" x="166.845703"/>
      </g>
     </g>
    </g>
    <g id="xtick_8"/>
    <g id="xtick_9"/>
    <g id="xtick_10"/>
    <g id="xtick_11"/>
    <g id="xtick_12"/>
    <g id="xtick_13"/>
    <g id="text_7">
     <!-- Date -->
     <g style="fill: #262626" transform="translate(443.653906 220.404844) scale(0.12 -0.12)">
      <defs>
       <path id="ArialMT-44" d="M 494 0 
L 494 4581 
L 2072 4581 
Q 2606 4581 2888 4516 
Q 3281 4425 3559 4188 
Q 3922 3881 4101 3404 
Q 4281 2928 4281 2316 
Q 4281 1794 4159 1391 
Q 4038 988 3847 723 
Q 3656 459 3429 307 
Q 3203 156 2883 78 
Q 2563 0 2147 0 
L 494 0 
z
M 1100 541 
L 2078 541 
Q 2531 541 2789 625 
Q 3047 709 3200 863 
Q 3416 1078 3536 1442 
Q 3656 1806 3656 2325 
Q 3656 3044 3420 3430 
Q 3184 3816 2847 3947 
Q 2603 4041 2063 4041 
L 1100 4041 
L 1100 541 
z
" transform="scale(0.015625)"/>
       <path id="ArialMT-61" d="M 2588 409 
Q 2275 144 1986 34 
Q 1697 -75 1366 -75 
Q 819 -75 525 192 
Q 231 459 231 875 
Q 231 1119 342 1320 
Q 453 1522 633 1644 
Q 813 1766 1038 1828 
Q 1203 1872 1538 1913 
Q 2219 1994 2541 2106 
Q 2544 2222 2544 2253 
Q 2544 2597 2384 2738 
Q 2169 2928 1744 2928 
Q 1347 2928 1158 2789 
Q 969 2650 878 2297 
L 328 2372 
Q 403 2725 575 2942 
Q 747 3159 1072 3276 
Q 1397 3394 1825 3394 
Q 2250 3394 2515 3294 
Q 2781 3194 2906 3042 
Q 3031 2891 3081 2659 
Q 3109 2516 3109 2141 
L 3109 1391 
Q 3109 606 3145 398 
Q 3181 191 3288 0 
L 2700 0 
Q 2613 175 2588 409 
z
M 2541 1666 
Q 2234 1541 1622 1453 
Q 1275 1403 1131 1340 
Q 988 1278 909 1158 
Q 831 1038 831 891 
Q 831 666 1001 516 
Q 1172 366 1500 366 
Q 1825 366 2078 508 
Q 2331 650 2450 897 
Q 2541 1088 2541 1459 
L 2541 1666 
z
" transform="scale(0.015625)"/>
       <path id="ArialMT-74" d="M 1650 503 
L 1731 6 
Q 1494 -44 1306 -44 
Q 1000 -44 831 53 
Q 663 150 594 308 
Q 525 466 525 972 
L 525 2881 
L 113 2881 
L 113 3319 
L 525 3319 
L 525 4141 
L 1084 4478 
L 1084 3319 
L 1650 3319 
L 1650 2881 
L 1084 2881 
L 1084 941 
Q 1084 700 1114 631 
Q 1144 563 1211 522 
Q 1278 481 1403 481 
Q 1497 481 1650 503 
z
" transform="scale(0.015625)"/>
       <path id="ArialMT-65" d="M 2694 1069 
L 3275 997 
Q 3138 488 2766 206 
Q 2394 -75 1816 -75 
Q 1088 -75 661 373 
Q 234 822 234 1631 
Q 234 2469 665 2931 
Q 1097 3394 1784 3394 
Q 2450 3394 2872 2941 
Q 3294 2488 3294 1666 
Q 3294 1616 3291 1516 
L 816 1516 
Q 847 969 1125 678 
Q 1403 388 1819 388 
Q 2128 388 2347 550 
Q 2566 713 2694 1069 
z
M 847 1978 
L 2700 1978 
Q 2663 2397 2488 2606 
Q 2219 2931 1791 2931 
Q 1403 2931 1139 2672 
Q 875 2413 847 1978 
z
" transform="scale(0.015625)"/>
      </defs>
      <use xlink:href="#ArialMT-44"/>
      <use xlink:href="#ArialMT-61" x="72.216797"/>
      <use xlink:href="#ArialMT-74" x="127.832031"/>
      <use xlink:href="#ArialMT-65" x="155.615234"/>
     </g>
    </g>
   </g>
   <g id="matplotlib.axis_2">
    <g id="ytick_1">
     <g id="text_8">
      <!-- 0 -->
      <g style="fill: #262626" transform="translate(22.21 186.75339) scale(0.11 -0.11)">
       <use xlink:href="#ArialMT-30"/>
      </g>
     </g>
    </g>
    <g id="ytick_2">
     <g id="text_9">
      <!-- 1 -->
      <g style="fill: #262626" transform="translate(22.21 145.337946) scale(0.11 -0.11)">
       <use xlink:href="#ArialMT-31"/>
      </g>
     </g>
    </g>
    <g id="ytick_3">
     <g id="text_10">
      <!-- 2 -->
      <g style="fill: #262626" transform="translate(22.21 103.922502) scale(0.11 -0.11)">
       <use xlink:href="#ArialMT-32"/>
      </g>
     </g>
    </g>
    <g id="ytick_4">
     <g id="text_11">
      <!-- 3 -->
      <g style="fill: #262626" transform="translate(22.21 62.507058) scale(0.11 -0.11)">
       <defs>
        <path id="ArialMT-33" d="M 269 1209 
L 831 1284 
Q 928 806 1161 595 
Q 1394 384 1728 384 
Q 2125 384 2398 659 
Q 2672 934 2672 1341 
Q 2672 1728 2419 1979 
Q 2166 2231 1775 2231 
Q 1616 2231 1378 2169 
L 1441 2663 
Q 1497 2656 1531 2656 
Q 1891 2656 2178 2843 
Q 2466 3031 2466 3422 
Q 2466 3731 2256 3934 
Q 2047 4138 1716 4138 
Q 1388 4138 1169 3931 
Q 950 3725 888 3313 
L 325 3413 
Q 428 3978 793 4289 
Q 1159 4600 1703 4600 
Q 2078 4600 2393 4439 
Q 2709 4278 2876 4000 
Q 3044 3722 3044 3409 
Q 3044 3113 2884 2869 
Q 2725 2625 2413 2481 
Q 2819 2388 3044 2092 
Q 3269 1797 3269 1353 
Q 3269 753 2831 336 
Q 2394 -81 1725 -81 
Q 1122 -81 723 278 
Q 325 638 269 1209 
z
" transform="scale(0.015625)"/>
       </defs>
       <use xlink:href="#ArialMT-33"/>
      </g>
     </g>
    </g>
    <g id="text_12">
     <!-- Demand [1e3 trips] -->
     <g style="fill: #262626" transform="translate(15.825 155.784375) rotate(-90) scale(0.12 -0.12)">
      <defs>
       <path id="ArialMT-6d" d="M 422 0 
L 422 3319 
L 925 3319 
L 925 2853 
Q 1081 3097 1340 3245 
Q 1600 3394 1931 3394 
Q 2300 3394 2536 3241 
Q 2772 3088 2869 2813 
Q 3263 3394 3894 3394 
Q 4388 3394 4653 3120 
Q 4919 2847 4919 2278 
L 4919 0 
L 4359 0 
L 4359 2091 
Q 4359 2428 4304 2576 
Q 4250 2725 4106 2815 
Q 3963 2906 3769 2906 
Q 3419 2906 3187 2673 
Q 2956 2441 2956 1928 
L 2956 0 
L 2394 0 
L 2394 2156 
Q 2394 2531 2256 2718 
Q 2119 2906 1806 2906 
Q 1569 2906 1367 2781 
Q 1166 2656 1075 2415 
Q 984 2175 984 1722 
L 984 0 
L 422 0 
z
" transform="scale(0.015625)"/>
       <path id="ArialMT-6e" d="M 422 0 
L 422 3319 
L 928 3319 
L 928 2847 
Q 1294 3394 1984 3394 
Q 2284 3394 2536 3286 
Q 2788 3178 2913 3003 
Q 3038 2828 3088 2588 
Q 3119 2431 3119 2041 
L 3119 0 
L 2556 0 
L 2556 2019 
Q 2556 2363 2490 2533 
Q 2425 2703 2258 2804 
Q 2091 2906 1866 2906 
Q 1506 2906 1245 2678 
Q 984 2450 984 1813 
L 984 0 
L 422 0 
z
" transform="scale(0.015625)"/>
       <path id="ArialMT-64" d="M 2575 0 
L 2575 419 
Q 2259 -75 1647 -75 
Q 1250 -75 917 144 
Q 584 363 401 755 
Q 219 1147 219 1656 
Q 219 2153 384 2558 
Q 550 2963 881 3178 
Q 1213 3394 1622 3394 
Q 1922 3394 2156 3267 
Q 2391 3141 2538 2938 
L 2538 4581 
L 3097 4581 
L 3097 0 
L 2575 0 
z
M 797 1656 
Q 797 1019 1065 703 
Q 1334 388 1700 388 
Q 2069 388 2326 689 
Q 2584 991 2584 1609 
Q 2584 2291 2321 2609 
Q 2059 2928 1675 2928 
Q 1300 2928 1048 2622 
Q 797 2316 797 1656 
z
" transform="scale(0.015625)"/>
       <path id="ArialMT-20" transform="scale(0.015625)"/>
       <path id="ArialMT-5b" d="M 434 -1272 
L 434 4581 
L 1675 4581 
L 1675 4116 
L 997 4116 
L 997 -806 
L 1675 -806 
L 1675 -1272 
L 434 -1272 
z
" transform="scale(0.015625)"/>
       <path id="ArialMT-72" d="M 416 0 
L 416 3319 
L 922 3319 
L 922 2816 
Q 1116 3169 1280 3281 
Q 1444 3394 1641 3394 
Q 1925 3394 2219 3213 
L 2025 2691 
Q 1819 2813 1613 2813 
Q 1428 2813 1281 2702 
Q 1134 2591 1072 2394 
Q 978 2094 978 1738 
L 978 0 
L 416 0 
z
" transform="scale(0.015625)"/>
       <path id="ArialMT-69" d="M 425 3934 
L 425 4581 
L 988 4581 
L 988 3934 
L 425 3934 
z
M 425 0 
L 425 3319 
L 988 3319 
L 988 0 
L 425 0 
z
" transform="scale(0.015625)"/>
       <path id="ArialMT-70" d="M 422 -1272 
L 422 3319 
L 934 3319 
L 934 2888 
Q 1116 3141 1344 3267 
Q 1572 3394 1897 3394 
Q 2322 3394 2647 3175 
Q 2972 2956 3137 2557 
Q 3303 2159 3303 1684 
Q 3303 1175 3120 767 
Q 2938 359 2589 142 
Q 2241 -75 1856 -75 
Q 1575 -75 1351 44 
Q 1128 163 984 344 
L 984 -1272 
L 422 -1272 
z
M 931 1641 
Q 931 1000 1190 694 
Q 1450 388 1819 388 
Q 2194 388 2461 705 
Q 2728 1022 2728 1688 
Q 2728 2322 2467 2637 
Q 2206 2953 1844 2953 
Q 1484 2953 1207 2617 
Q 931 2281 931 1641 
z
" transform="scale(0.015625)"/>
       <path id="ArialMT-73" d="M 197 991 
L 753 1078 
Q 800 744 1014 566 
Q 1228 388 1613 388 
Q 2000 388 2187 545 
Q 2375 703 2375 916 
Q 2375 1106 2209 1216 
Q 2094 1291 1634 1406 
Q 1016 1563 777 1677 
Q 538 1791 414 1992 
Q 291 2194 291 2438 
Q 291 2659 392 2848 
Q 494 3038 669 3163 
Q 800 3259 1026 3326 
Q 1253 3394 1513 3394 
Q 1903 3394 2198 3281 
Q 2494 3169 2634 2976 
Q 2775 2784 2828 2463 
L 2278 2388 
Q 2241 2644 2061 2787 
Q 1881 2931 1553 2931 
Q 1166 2931 1000 2803 
Q 834 2675 834 2503 
Q 834 2394 903 2306 
Q 972 2216 1119 2156 
Q 1203 2125 1616 2013 
Q 2213 1853 2448 1751 
Q 2684 1650 2818 1456 
Q 2953 1263 2953 975 
Q 2953 694 2789 445 
Q 2625 197 2315 61 
Q 2006 -75 1616 -75 
Q 969 -75 630 194 
Q 291 463 197 991 
z
" transform="scale(0.015625)"/>
       <path id="ArialMT-5d" d="M 1363 -1272 
L 122 -1272 
L 122 -806 
L 800 -806 
L 800 4116 
L 122 4116 
L 122 4581 
L 1363 4581 
L 1363 -1272 
z
" transform="scale(0.015625)"/>
      </defs>
      <use xlink:href="#ArialMT-44"/>
      <use xlink:href="#ArialMT-65" x="72.216797"/>
      <use xlink:href="#ArialMT-6d" x="127.832031"/>
      <use xlink:href="#ArialMT-61" x="211.132812"/>
      <use xlink:href="#ArialMT-6e" x="266.748047"/>
      <use xlink:href="#ArialMT-64" x="322.363281"/>
      <use xlink:href="#ArialMT-20" x="377.978516"/>
      <use xlink:href="#ArialMT-5b" x="405.761719"/>
      <use xlink:href="#ArialMT-31" x="433.544922"/>
      <use xlink:href="#ArialMT-65" x="489.160156"/>
      <use xlink:href="#ArialMT-33" x="544.775391"/>
      <use xlink:href="#ArialMT-20" x="600.390625"/>
      <use xlink:href="#ArialMT-74" x="628.173828"/>
      <use xlink:href="#ArialMT-72" x="655.957031"/>
      <use xlink:href="#ArialMT-69" x="689.257812"/>
      <use xlink:href="#ArialMT-70" x="711.474609"/>
      <use xlink:href="#ArialMT-73" x="767.089844"/>
      <use xlink:href="#ArialMT-5d" x="817.089844"/>
     </g>
    </g>
   </g>
   <g id="line2d_1">
    <path d="M 37.827031 161.950829 
L 39.201415 32.498286 
L 40.5758 31.072228 
L 41.950184 37.802983 
L 43.324568 34.138918 
L 44.698952 33.634809 
L 47.447721 31.04974 
L 48.822105 43.336666 
L 50.196489 43.617173 
L 51.570874 33.697636 
L 52.945258 37.660514 
L 54.319642 38.393278 
L 55.694026 52.4573 
L 57.068411 52.630333 
L 58.442795 39.61698 
L 59.817179 36.030816 
L 61.191563 41.677564 
L 62.565948 43.098362 
L 63.940332 55.193494 
L 65.314716 55.79936 
L 66.6891 78.08675 
L 68.063484 56.506695 
L 70.812253 34.067766 
L 72.186637 42.572966 
L 73.561021 38.955824 
L 74.935406 36.359199 
L 77.684174 35.683755 
L 79.058558 33.067541 
L 80.432943 35.063103 
L 81.807327 36.856558 
L 83.181711 35.9168 
L 84.556095 61.102691 
L 85.93048 37.171853 
L 88.679248 30.271957 
L 90.053632 56.445027 
L 91.428016 71.798395 
L 92.802401 64.961948 
L 94.176785 54.867306 
L 95.551169 56.112337 
L 96.925553 56.380253 
L 98.299938 46.820037 
L 99.674322 42.869335 
L 101.048706 58.179506 
L 102.42309 50.618247 
L 105.171859 29.495625 
L 106.546243 34.061553 
L 107.920627 36.37092 
L 109.295012 32.422123 
L 110.669396 54.684332 
L 112.04378 50.738186 
L 113.418164 44.343103 
L 114.792548 61.642831 
L 116.166933 44.635123 
L 117.541317 46.086652 
L 118.915701 48.516827 
L 120.290085 63.226226 
L 121.66447 53.442407 
L 123.038854 35.360259 
L 124.413238 37.495184 
L 125.787622 36.482203 
L 127.162007 41.846373 
L 128.536391 62.212211 
L 129.910775 42.53068 
L 131.285159 43.182932 
L 132.659544 42.823073 
L 134.033928 44.91153 
L 135.408312 46.579289 
L 136.782696 49.643452 
L 138.157081 51.37354 
L 139.531465 54.113338 
L 140.905849 40.122745 
L 142.280233 37.146756 
L 143.654617 40.852858 
L 145.029002 45.071642 
L 146.403386 37.500651 
L 147.77777 39.021964 
L 149.152154 36.963285 
L 150.526539 40.550152 
L 151.900923 95.23527 
L 153.275307 43.722534 
L 154.649691 38.949943 
L 156.024076 60.913671 
L 157.39846 36.846701 
L 158.772844 36.216316 
L 160.147228 33.42007 
L 161.521613 41.196937 
L 162.895997 74.223932 
L 164.270381 56.220763 
L 167.019149 39.237366 
L 168.393534 37.887305 
L 169.767918 35.742648 
L 171.142302 47.572845 
L 172.516686 33.710019 
L 173.891071 36.52043 
L 175.265455 32.687762 
L 176.639839 34.004483 
L 178.014223 32.020559 
L 180.762992 43.283613 
L 182.137376 37.705574 
L 183.51176 36.029947 
L 184.886145 39.458483 
L 186.260529 50.012422 
L 187.634913 35.783069 
L 189.009297 36.428115 
L 190.383681 35.938833 
L 191.758066 46.461834 
L 193.13245 46.836147 
L 194.506834 41.769713 
L 195.881218 43.381809 
L 197.255603 45.67258 
L 198.629987 45.474822 
L 200.004371 71.261858 
L 201.378755 48.0391 
L 202.75314 44.611434 
L 204.127524 49.175126 
L 205.501908 88.846151 
L 206.876292 75.1002 
L 209.625061 62.171292 
L 210.999445 65.454709 
L 212.373829 52.005333 
L 213.748214 40.206197 
L 215.122598 41.301594 
L 216.496982 46.977871 
L 217.871366 43.401399 
L 219.24575 42.784433 
L 220.620135 43.368473 
L 221.994519 40.048363 
L 223.368903 39.679227 
L 224.743287 39.776181 
L 226.117672 41.674333 
L 227.492056 39.173462 
L 228.86644 64.053997 
L 230.240824 40.657377 
L 231.615209 40.279668 
L 232.989593 45.203468 
L 234.363977 79.160611 
L 235.738361 69.520711 
L 237.112746 47.047946 
L 238.48713 46.874167 
L 239.861514 59.759008 
L 241.235898 42.57135 
L 242.610282 47.873438 
L 243.984667 52.176752 
L 245.359051 50.63589 
L 246.733435 38.752101 
L 248.107819 34.754268 
L 249.482204 37.70516 
L 250.856588 40.983068 
L 252.230972 38.888441 
L 253.605356 40.279254 
L 254.979741 40.785102 
L 256.354125 44.802939 
L 257.728509 40.731511 
L 259.102893 40.078679 
L 260.477278 40.230011 
L 261.851662 43.295872 
L 263.226046 50.883306 
L 264.60043 51.014758 
L 265.974815 45.770196 
L 267.349199 47.040325 
L 268.723583 49.374872 
L 270.097967 51.988311 
L 271.472351 73.416248 
L 272.846736 57.159692 
L 274.22112 55.940131 
L 275.595504 54.905491 
L 276.969888 59.542612 
L 278.344273 61.114991 
L 279.718657 62.291521 
L 281.093041 65.307559 
L 282.467425 70.068058 
L 283.84181 54.7583 
L 285.216194 46.687466 
L 286.590578 50.950523 
L 287.964962 57.669226 
L 289.339347 52.592148 
L 290.713731 48.75538 
L 292.088115 48.229073 
L 293.462499 48.160613 
L 294.836883 47.005081 
L 296.211268 49.176203 
L 297.585652 50.945595 
L 298.960036 48.749582 
L 300.33442 72.744945 
L 301.708805 49.443249 
L 303.083189 48.194408 
L 304.457573 48.63863 
L 305.831957 88.835342 
L 307.206342 75.339208 
L 308.580726 58.198598 
L 309.95511 53.664684 
L 311.329494 59.7851 
L 312.703879 75.013973 
L 314.078263 58.389068 
L 315.452647 51.885435 
L 316.827031 55.559813 
L 318.201415 51.693102 
L 319.5758 60.655073 
L 320.950184 54.996646 
L 322.324568 56.641254 
L 323.698952 56.284791 
L 325.073337 60.016736 
L 326.447721 56.386838 
L 327.822105 55.154439 
L 329.196489 54.189376 
L 330.570874 55.205794 
L 331.945258 57.189097 
L 333.319642 56.109438 
L 334.694026 64.191206 
L 336.068411 66.966455 
L 337.442795 58.805376 
L 340.191563 64.91374 
L 341.565948 65.521222 
L 342.940332 86.560102 
L 344.314716 72.916943 
L 345.6891 70.821777 
L 348.437869 72.451475 
L 349.812253 76.20417 
L 351.186637 78.803734 
L 352.561021 78.007067 
L 353.935406 81.492674 
L 355.30979 82.794278 
L 356.684174 71.651204 
L 358.058558 66.982193 
L 359.432943 75.972782 
L 360.807327 73.075233 
L 362.181711 69.778357 
L 363.556095 67.019384 
L 364.93048 66.917626 
L 366.304864 67.346525 
L 367.679248 68.767861 
L 369.053632 68.363729 
L 370.428016 68.747775 
L 371.802401 87.688051 
L 373.176785 67.09389 
L 374.551169 67.110457 
L 375.925553 62.439167 
L 377.299938 98.601393 
L 378.674322 90.356945 
L 380.048706 78.376783 
L 381.42309 71.245664 
L 382.797475 93.090613 
L 384.171859 76.704758 
L 385.546243 71.788082 
L 386.920627 66.044175 
L 388.295012 69.836959 
L 389.669396 66.87327 
L 391.04378 65.824797 
L 392.418164 69.118899 
L 393.792548 65.526564 
L 395.166933 73.165684 
L 396.541317 68.91911 
L 397.915701 63.830975 
L 399.290085 65.438474 
L 400.66447 72.841153 
L 402.038854 71.037717 
L 403.413238 65.53464 
L 404.787622 68.962638 
L 406.162007 67.567476 
L 407.536391 79.911225 
L 408.910775 77.706888 
L 410.285159 74.084072 
L 411.659544 76.18719 
L 413.033928 76.266376 
L 414.408312 89.789181 
L 415.782696 93.148719 
L 417.157081 81.643467 
L 418.531465 81.380769 
L 419.905849 82.869654 
L 421.280233 87.876243 
L 422.654617 86.952969 
L 424.029002 89.114275 
L 426.77777 97.627178 
L 428.152154 83.576574 
L 429.526539 81.408932 
L 430.900923 85.081239 
L 432.275307 81.081004 
L 433.649691 82.805295 
L 435.024076 83.450175 
L 436.39846 79.35514 
L 437.772844 77.662905 
L 439.147228 79.523908 
L 440.521613 81.605903 
L 441.895997 80.44068 
L 443.270381 98.19809 
L 444.644765 80.844108 
L 446.019149 75.848784 
L 447.393534 74.192497 
L 448.767918 94.558294 
L 450.142302 104.591061 
L 451.516686 97.736349 
L 452.891071 89.731655 
L 454.265455 91.534386 
L 455.639839 86.689566 
L 457.014223 86.188646 
L 458.388608 91.654118 
L 459.762992 85.043344 
L 461.137376 89.752694 
L 462.51176 80.452856 
L 463.886145 80.729014 
L 465.260529 98.660038 
L 466.634913 88.578939 
L 469.383681 82.629776 
L 470.758066 91.968296 
L 472.13245 84.377963 
L 473.506834 83.880688 
L 474.881218 83.882013 
L 476.255603 85.557061 
L 477.629987 83.324934 
L 479.004371 94.815359 
L 480.378755 93.121716 
L 481.75314 87.474596 
L 483.127524 88.363993 
L 484.501908 91.603592 
L 485.876292 100.252296 
L 487.250677 112.254781 
L 488.625061 97.407676 
L 489.999445 96.481917 
L 491.373829 99.029753 
L 492.748214 101.008418 
L 494.122598 103.366489 
L 495.496982 104.792671 
L 496.871366 105.817828 
L 498.24575 109.977015 
L 499.620135 96.960969 
L 500.994519 90.374216 
L 502.368903 98.724604 
L 503.743287 92.761029 
L 505.117672 93.196181 
L 509.240824 88.088663 
L 510.615209 89.47579 
L 511.989593 88.298184 
L 513.363977 87.68362 
L 514.738361 107.729357 
L 516.112746 90.275315 
L 517.48713 85.245907 
L 518.861514 83.858614 
L 520.235898 96.008165 
L 521.610282 113.952069 
L 522.984667 114.542198 
L 524.359051 97.066951 
L 525.733435 97.8818 
L 527.107819 95.762365 
L 528.482204 94.125212 
L 529.856588 93.147145 
L 531.230972 94.549845 
L 532.605356 98.00087 
L 533.979741 93.446413 
L 535.354125 94.375734 
L 536.728509 90.100004 
L 538.102893 100.756405 
L 540.851662 94.388325 
L 542.226046 90.79599 
L 543.60043 91.000044 
L 544.974815 92.077426 
L 546.349199 91.473257 
L 547.723583 93.086969 
L 549.097967 93.038678 
L 550.472351 104.076267 
L 551.846736 101.063583 
L 553.22112 97.018578 
L 554.595504 99.634377 
L 555.969888 98.909276 
L 557.344273 102.08203 
L 558.718657 120.344005 
L 560.093041 105.814266 
L 561.467425 105.704846 
L 562.84181 105.290775 
L 564.216194 107.133389 
L 565.590578 107.032004 
L 566.964962 109.566878 
L 568.339347 113.183109 
L 569.713731 114.03958 
L 571.088115 104.816029 
L 572.462499 101.670651 
L 573.836883 102.809244 
L 575.211268 105.19117 
L 576.585652 101.227671 
L 577.960036 101.547191 
L 579.33442 98.137375 
L 580.708805 98.406658 
L 582.083189 100.296238 
L 583.457573 99.610149 
L 584.831957 102.332884 
L 586.206342 116.460396 
L 587.580726 100.010264 
L 588.95511 97.542111 
L 590.329494 96.61192 
L 591.703879 102.787667 
L 593.078263 127.346279 
L 594.452647 120.53874 
L 595.827031 108.757993 
L 597.201415 109.260362 
L 598.5758 109.260403 
L 599.950184 106.192099 
L 601.324568 107.001647 
L 602.698952 111.318585 
L 604.073337 114.410538 
L 605.447721 107.887357 
L 606.822105 106.477203 
L 608.196489 106.655455 
L 609.570874 111.28682 
L 610.945258 112.42181 
L 612.319642 107.578357 
L 613.694026 108.221207 
L 615.068411 113.103011 
L 616.442795 112.852075 
L 617.817179 107.568251 
L 619.191563 110.029405 
L 620.565948 109.165728 
L 621.940332 116.777099 
L 623.314716 116.897867 
L 624.6891 114.592725 
L 626.063484 115.108347 
L 627.437869 115.020091 
L 628.812253 116.709261 
L 630.186637 135.354163 
L 631.561021 121.129863 
L 632.935406 119.201394 
L 634.30979 120.96126 
L 635.684174 122.482201 
L 637.058558 124.652619 
L 638.432943 125.638224 
L 639.807327 126.40822 
L 641.181711 130.522637 
L 643.93048 115.297491 
L 645.304864 115.361147 
L 646.679248 119.390373 
L 648.053632 117.550119 
L 649.428016 116.658527 
L 650.802401 115.279517 
L 652.176785 114.300953 
L 653.551169 113.517787 
L 656.299938 113.766942 
L 657.674322 113.772119 
L 659.048706 128.159969 
L 660.42309 110.514049 
L 661.797475 108.496537 
L 663.171859 111.233559 
L 664.546243 137.222289 
L 665.920627 132.871265 
L 667.295012 122.256114 
L 668.669396 120.952025 
L 670.04378 121.750846 
L 671.418164 119.972384 
L 672.792548 119.063356 
L 674.166933 118.995642 
L 675.541317 123.976926 
L 676.915701 117.693251 
L 678.290085 120.348395 
L 679.66447 141.494251 
L 681.038854 173.286651 
L 682.413238 179.823126 
L 683.787622 180.370307 
L 685.162007 180.695625 
L 687.910775 180.53191 
L 692.033928 179.396878 
L 693.408312 179.51309 
L 694.782696 179.341257 
L 698.905849 177.509204 
L 700.280233 176.312587 
L 701.654617 176.513949 
L 704.403386 175.377509 
L 705.77777 174.987169 
L 707.152154 174.105185 
L 708.526539 173.913598 
L 714.024076 172.105896 
L 715.39846 170.96664 
L 716.772844 169.119884 
L 718.147228 168.321312 
L 720.895997 167.926208 
L 722.270381 167.547505 
L 723.644765 166.893307 
L 725.019149 165.925014 
L 726.393534 167.516278 
L 727.767918 166.877072 
L 729.142302 167.152361 
L 730.516686 170.907665 
L 731.891071 168.287268 
L 733.265455 167.458421 
L 736.014223 171.123273 
L 737.388608 171.850736 
L 738.762992 169.915475 
L 740.137376 169.353633 
L 741.51176 169.632814 
L 742.886145 169.176085 
L 744.260529 170.972107 
L 745.634913 167.386027 
L 747.009297 169.095325 
L 748.383681 167.004259 
L 749.758066 165.809341 
L 751.13245 165.101344 
L 752.506834 164.137233 
L 753.881218 164.455553 
L 755.255603 164.374378 
L 758.004371 161.572913 
L 759.378755 161.159049 
L 760.75314 160.320262 
L 762.127524 159.271209 
L 763.501908 159.0006 
L 764.876292 157.881389 
L 766.250677 159.498455 
L 767.625061 157.844157 
L 768.999445 155.769119 
L 770.373829 155.339226 
L 771.748214 154.787283 
L 773.122598 157.653977 
L 774.496982 157.581086 
L 775.871366 155.167725 
L 777.24575 155.840726 
L 778.620135 155.756818 
L 779.994519 156.424435 
L 781.368903 156.022623 
L 782.743287 157.118807 
L 784.117672 156.61358 
L 785.492056 157.246035 
L 786.86644 154.950253 
L 788.240824 153.096415 
L 789.615209 153.173489 
L 792.363977 151.092735 
L 793.738361 150.667026 
L 795.112746 149.766986 
L 796.48713 149.694509 
L 797.861514 148.27135 
L 799.235898 147.782647 
L 800.610282 146.806278 
L 801.984667 153.958063 
L 803.359051 147.389573 
L 804.733435 146.511359 
L 806.107819 149.333821 
L 807.482204 160.784156 
L 808.856588 162.516606 
L 810.230972 161.270249 
L 811.605356 159.130976 
L 812.979741 157.963433 
L 814.354125 159.462714 
L 815.728509 154.206804 
L 817.102893 152.12779 
L 818.477278 150.909513 
L 819.851662 151.307309 
L 821.226046 149.268137 
L 822.60043 149.139997 
L 823.974815 149.813122 
L 825.349199 148.901983 
L 826.723583 147.240643 
L 828.097967 147.421588 
L 829.472351 149.308972 
L 830.846736 148.552933 
L 832.22112 147.986577 
L 833.595504 148.72986 
L 834.969888 147.518665 
L 836.344273 147.996268 
L 837.718657 150.706785 
L 839.093041 149.952113 
L 840.467425 147.545171 
L 841.84181 147.852267 
L 843.216194 149.106533 
L 844.590578 153.218383 
L 845.964962 155.539677 
L 847.339347 151.459096 
L 848.713731 151.553979 
L 851.462499 152.744963 
L 852.836883 153.590874 
L 854.211268 153.541879 
L 855.585652 153.347061 
L 856.960036 153.902897 
L 858.33442 150.923512 
L 859.708805 154.884816 
L 861.083189 151.340317 
L 862.457573 149.794858 
L 863.831957 149.57635 
L 866.580726 147.104925 
L 867.95511 147.016462 
L 869.329494 147.804763 
L 870.703879 147.297714 
L 872.078263 156.620455 
L 873.452647 154.860174 
L 874.827031 168.588855 
L 874.827031 168.588855 
" clip-path="url(#p12e4b00c65)" style="fill: none; stroke: #0000ff; stroke-width: 1.5; stroke-linecap: round"/>
   </g>
   <g id="line2d_2">
    <path d="M 37.827031 161.468389 
L 39.201415 33.233905 
L 40.5758 31.505584 
L 41.950184 37.794393 
L 43.324568 35.121934 
L 44.698952 33.909419 
L 46.073337 32.329393 
L 47.447721 31.52585 
L 48.822105 43.901485 
L 50.196489 43.400651 
L 51.570874 33.217083 
L 52.945258 36.99511 
L 54.319642 37.882859 
L 55.694026 52.18888 
L 57.068411 52.59064 
L 58.442795 39.638887 
L 59.817179 36.068781 
L 61.191563 41.689153 
L 62.565948 43.310686 
L 63.940332 55.288589 
L 65.314716 55.889284 
L 66.6891 78.194864 
L 68.063484 56.458445 
L 70.812253 34.07567 
L 72.186637 42.441661 
L 73.561021 38.836289 
L 74.935406 36.32098 
L 76.30979 36.058212 
L 77.684174 35.574144 
L 79.058558 33.080814 
L 80.432943 35.258081 
L 81.807327 36.715075 
L 83.181711 35.81111 
L 84.556095 61.45481 
L 85.93048 37.037232 
L 88.679248 30.098591 
L 90.053632 56.572022 
L 91.428016 71.912302 
L 92.802401 65.02768 
L 94.176785 54.974965 
L 95.551169 56.034611 
L 96.925553 56.454073 
L 98.299938 46.671553 
L 99.674322 42.716553 
L 101.048706 57.885723 
L 102.42309 50.384364 
L 105.171859 29.655458 
L 106.546243 34.30763 
L 107.920627 36.139052 
L 109.295012 32.993603 
L 110.669396 54.041632 
L 112.04378 50.046837 
L 113.418164 44.21015 
L 114.792548 60.804508 
L 116.166933 44.417052 
L 117.541317 46.222517 
L 118.915701 48.392914 
L 120.290085 62.798148 
L 121.66447 53.611659 
L 123.038854 35.851947 
L 124.413238 38.027662 
L 125.787622 36.783403 
L 127.162007 41.992436 
L 128.536391 54.800525 
L 129.910775 43.269872 
L 131.285159 35.562537 
L 132.659544 45.935165 
L 134.033928 48.316086 
L 135.408312 60.962823 
L 136.782696 60.478454 
L 138.157081 68.141149 
L 139.531465 69.587547 
L 140.905849 50.277377 
L 142.280233 38.921425 
L 143.654617 53.586976 
L 145.029002 53.600842 
L 146.403386 48.940622 
L 147.77777 49.89388 
L 149.152154 53.405446 
L 150.526539 48.561614 
L 151.900923 48.749597 
L 153.275307 53.225241 
L 154.649691 54.526001 
L 156.024076 76.388628 
L 157.39846 57.144254 
L 158.772844 52.752007 
L 160.147228 43.274686 
L 161.521613 65.083929 
L 164.270381 79.09528 
L 165.644765 68.869828 
L 167.019149 62.786057 
L 168.393534 68.153104 
L 169.767918 58.964377 
L 171.142302 47.123765 
L 172.516686 69.704959 
L 173.891071 59.227951 
L 176.639839 45.373358 
L 178.014223 48.673536 
L 180.762992 60.096569 
L 182.137376 58.012967 
L 183.51176 58.41952 
L 184.886145 54.277186 
L 186.260529 61.911559 
L 187.634913 50.409013 
L 189.009297 53.362647 
L 190.383681 51.074437 
L 191.758066 67.198819 
L 193.13245 57.451498 
L 194.506834 49.28001 
L 195.881218 49.211193 
L 197.255603 50.544957 
L 198.629987 64.923946 
L 200.004371 68.591723 
L 201.378755 57.841875 
L 202.75314 51.405309 
L 204.127524 60.598537 
L 205.501908 66.090987 
L 206.876292 76.651551 
L 208.250677 82.928322 
L 209.625061 92.969442 
L 210.999445 84.929197 
L 212.373829 73.337662 
L 213.748214 60.74524 
L 215.122598 62.816544 
L 217.871366 48.457647 
L 219.24575 49.814065 
L 220.620135 50.82273 
L 221.994519 52.112681 
L 224.743287 52.487427 
L 226.117672 49.357325 
L 227.492056 65.803726 
L 228.86644 52.449712 
L 230.240824 51.229853 
L 231.615209 47.425811 
L 232.989593 65.181625 
L 234.363977 74.544553 
L 235.738361 81.869803 
L 237.112746 70.371996 
L 238.48713 66.208236 
L 239.861514 68.403605 
L 242.610282 48.833736 
L 243.984667 71.320424 
L 245.359051 60.136823 
L 246.733435 57.512055 
L 248.107819 48.43327 
L 249.482204 49.484224 
L 250.856588 49.852682 
L 252.230972 54.472731 
L 253.605356 55.960642 
L 254.979741 59.165047 
L 256.354125 54.386578 
L 257.728509 66.344191 
L 259.102893 51.713674 
L 260.477278 48.83368 
L 261.851662 50.285276 
L 263.226046 66.057728 
L 264.60043 59.151885 
L 265.974815 51.489095 
L 267.349199 49.302614 
L 268.723583 50.90491 
L 270.097967 63.940279 
L 271.472351 69.816187 
L 272.846736 60.294168 
L 274.22112 56.039916 
L 275.595504 62.070703 
L 278.344273 78.787436 
L 279.718657 82.922915 
L 281.093041 87.965988 
L 282.467425 85.871931 
L 283.84181 67.999248 
L 285.216194 63.155238 
L 286.590578 64.819785 
L 287.964962 60.335508 
L 289.339347 56.842316 
L 290.713731 56.299784 
L 292.088115 61.117563 
L 293.462499 59.26697 
L 294.836883 55.112455 
L 296.211268 60.907816 
L 297.585652 57.314431 
L 298.960036 76.932696 
L 300.33442 61.023137 
L 301.708805 57.721813 
L 303.083189 53.857287 
L 304.457573 73.986336 
L 305.831957 83.377059 
L 307.206342 85.260207 
L 308.580726 76.435153 
L 309.95511 74.387159 
L 311.329494 74.482538 
L 312.703879 64.37419 
L 314.078263 55.189878 
L 315.452647 80.588136 
L 316.827031 69.674502 
L 318.201415 65.185298 
L 319.5758 54.395565 
L 320.950184 60.036694 
L 322.324568 64.781967 
L 323.698952 74.204114 
L 325.073337 71.804591 
L 326.447721 70.574187 
L 327.822105 63.377796 
L 329.196489 76.606117 
L 330.570874 63.378684 
L 333.319642 60.420458 
L 334.694026 73.966543 
L 336.068411 70.758858 
L 337.442795 62.093967 
L 338.817179 62.664705 
L 340.191563 61.521856 
L 341.565948 74.12612 
L 342.940332 73.543386 
L 344.314716 66.577737 
L 345.6891 62.988484 
L 347.063484 68.766832 
L 348.437869 77.23617 
L 349.812253 87.350001 
L 351.186637 87.842573 
L 352.561021 90.564271 
L 353.935406 87.888546 
L 355.30979 72.168605 
L 356.684174 65.924377 
L 358.058558 78.238301 
L 360.807327 67.697576 
L 362.181711 67.52473 
L 363.556095 72.728005 
L 364.93048 70.109721 
L 366.304864 65.934583 
L 369.053632 69.198637 
L 370.428016 79.900672 
L 371.802401 64.617812 
L 373.176785 68.521743 
L 374.551169 66.597834 
L 377.299938 83.849213 
L 378.674322 88.787142 
L 380.048706 73.491806 
L 381.42309 80.203883 
L 382.797475 81.978912 
L 384.171859 82.24076 
L 385.546243 70.093701 
L 386.920627 65.283149 
L 388.295012 81.459384 
L 389.669396 78.704289 
L 391.04378 66.26329 
L 392.418164 61.277786 
L 393.792548 65.225038 
L 395.166933 69.767042 
L 396.541317 78.191533 
L 397.915701 76.863767 
L 399.290085 74.062681 
L 400.66447 65.635034 
L 402.038854 73.300728 
L 404.787622 67.784431 
L 406.162007 68.469261 
L 407.536391 77.10255 
L 408.910775 72.494823 
L 410.285159 70.663002 
L 411.659544 67.399388 
L 413.033928 71.818886 
L 414.408312 76.989955 
L 415.782696 77.364086 
L 417.157081 74.685655 
L 418.531465 71.567426 
L 419.905849 74.859708 
L 421.280233 82.901969 
L 422.654617 87.805861 
L 424.029002 91.006689 
L 425.403386 97.415191 
L 426.77777 79.027002 
L 428.152154 67.655396 
L 429.526539 65.516991 
L 432.275307 82.029282 
L 435.024076 76.040421 
L 436.39846 80.526812 
L 437.772844 79.109813 
L 440.521613 75.421027 
L 441.895997 75.242244 
L 443.270381 84.204676 
L 444.644765 75.621895 
L 446.019149 74.566257 
L 447.393534 69.662177 
L 448.767918 83.293164 
L 450.142302 90.873586 
L 451.516686 100.839605 
L 452.891071 85.603573 
L 454.265455 83.866616 
L 455.639839 86.302362 
L 457.014223 73.070625 
L 458.388608 65.769656 
L 459.762992 77.128743 
L 461.137376 72.769004 
L 462.51176 67.606049 
L 463.886145 56.268926 
L 465.260529 57.942425 
L 466.634913 62.361115 
L 468.009297 76.04249 
L 469.383681 72.8321 
L 470.758066 71.366519 
L 472.13245 67.80425 
L 473.506834 72.487168 
L 474.881218 70.810454 
L 476.255603 67.252009 
L 477.629987 69.316682 
L 479.004371 83.684332 
L 480.378755 76.127995 
L 481.75314 72.665752 
L 483.127524 70.846467 
L 484.501908 71.948934 
L 485.876292 75.752867 
L 487.250677 78.83426 
L 488.625061 79.492902 
L 489.999445 72.835535 
L 491.373829 71.620198 
L 492.748214 77.208576 
L 494.122598 85.094412 
L 495.496982 86.397242 
L 496.871366 93.658361 
L 498.24575 76.536763 
L 499.620135 65.945306 
L 500.994519 59.244686 
L 502.368903 57.89323 
L 503.743287 65.771479 
L 505.117672 68.614538 
L 506.492056 69.105218 
L 507.86644 72.018698 
L 509.240824 70.071685 
L 510.615209 65.842878 
L 511.989593 67.048872 
L 514.738361 80.554584 
L 516.112746 77.577854 
L 517.48713 74.950341 
L 518.861514 68.170106 
L 520.235898 83.456983 
L 522.984667 99.559345 
L 524.359051 87.034447 
L 525.733435 86.401082 
L 527.107819 82.77946 
L 528.482204 71.493877 
L 529.856588 69.52949 
L 531.230972 79.044253 
L 532.605356 74.473773 
L 533.979741 65.265749 
L 535.354125 61.381711 
L 536.728509 62.490423 
L 538.102893 66.283208 
L 539.477278 79.284209 
L 542.226046 73.888805 
L 543.60043 71.888464 
L 544.974815 73.838547 
L 546.349199 71.571402 
L 547.723583 67.215717 
L 549.097967 65.723592 
L 550.472351 77.609908 
L 551.846736 74.944389 
L 553.22112 71.968385 
L 554.595504 68.583685 
L 555.969888 69.770978 
L 557.344273 71.174016 
L 558.718657 74.66938 
L 560.093041 77.634761 
L 562.84181 71.233709 
L 564.216194 74.599538 
L 565.590578 85.22285 
L 566.964962 84.845531 
L 568.339347 90.292183 
L 569.713731 80.270643 
L 571.088115 65.535179 
L 572.462499 61.039543 
L 573.836883 61.422074 
L 575.211268 70.091455 
L 577.960036 65.39561 
L 579.33442 65.755826 
L 580.708805 68.070235 
L 582.083189 66.275849 
L 583.457573 69.951118 
L 584.831957 75.402065 
L 586.206342 82.376836 
L 587.580726 75.221243 
L 588.95511 73.139745 
L 590.329494 63.54884 
L 591.703879 84.510779 
L 593.078263 93.55207 
L 594.452647 95.600586 
L 595.827031 79.710837 
L 597.201415 81.984114 
L 598.5758 82.300801 
L 599.950184 73.806427 
L 601.324568 71.467103 
L 602.698952 76.789115 
L 604.073337 75.263906 
L 605.447721 69.698701 
L 606.822105 59.435156 
L 608.196489 59.342613 
L 609.570874 70.937728 
L 610.945258 87.094448 
L 612.319642 83.598071 
L 613.694026 82.343088 
L 615.068411 78.391002 
L 616.442795 80.926659 
L 617.817179 81.740876 
L 619.191563 75.037936 
L 620.565948 75.81631 
L 621.940332 86.572689 
L 623.314716 84.015619 
L 624.6891 78.924738 
L 626.063484 76.351754 
L 627.437869 79.121569 
L 628.812253 79.978488 
L 630.186637 82.512244 
L 631.561021 82.781188 
L 632.935406 82.516613 
L 635.684174 81.287952 
L 637.058558 94.409653 
L 638.432943 92.580946 
L 639.807327 99.617657 
L 641.181711 89.304233 
L 642.556095 75.730076 
L 643.93048 74.253804 
L 645.304864 76.455124 
L 646.679248 81.077728 
L 648.053632 82.503718 
L 649.428016 77.886091 
L 650.802401 78.250745 
L 652.176785 77.896559 
L 653.551169 74.269656 
L 654.925553 75.74838 
L 656.299938 84.221995 
L 657.674322 93.442361 
L 659.048706 85.449967 
L 660.42309 83.356193 
L 661.797475 78.695487 
L 663.171859 89.751602 
L 664.546243 94.788115 
L 665.920627 102.940749 
L 667.295012 87.636208 
L 668.669396 93.486766 
L 670.04378 92.164489 
L 671.418164 83.836424 
L 672.792548 84.177489 
L 674.166933 88.515165 
L 675.541317 87.771987 
L 676.915701 84.380545 
L 678.290085 74.298319 
L 679.66447 68.183506 
L 681.038854 80.003419 
L 682.413238 117.338386 
L 683.787622 112.884366 
L 685.162007 113.181334 
L 686.536391 127.833264 
L 687.910775 143.682674 
L 689.285159 142.03439 
L 690.659544 138.305289 
L 692.033928 138.011155 
L 693.408312 142.419779 
L 694.782696 142.735891 
L 696.157081 142.527175 
L 697.531465 141.736213 
L 698.905849 149.192263 
L 700.280233 143.816267 
L 701.654617 150.708018 
L 703.029002 149.434757 
L 704.403386 147.480015 
L 705.77777 146.480958 
L 707.152154 149.88231 
L 708.526539 150.642904 
L 709.900923 153.299621 
L 711.275307 153.809879 
L 712.649691 148.839766 
L 714.024076 139.973021 
L 715.39846 139.961329 
L 716.772844 142.614727 
L 718.147228 148.478798 
L 719.521613 146.220518 
L 720.895997 146.840229 
L 722.270381 145.468674 
L 723.644765 147.475674 
L 725.019149 143.026614 
L 726.393534 145.076573 
L 727.767918 146.173833 
L 729.142302 147.843306 
L 730.516686 145.188352 
L 731.891071 146.269224 
L 733.265455 142.507913 
L 734.639839 144.051987 
L 736.014223 152.47862 
L 737.388608 152.401655 
L 738.762992 145.763201 
L 740.137376 146.814334 
L 741.51176 149.308253 
L 742.886145 148.826833 
L 744.260529 142.607149 
L 745.634913 145.885374 
L 747.009297 148.178805 
L 748.383681 149.418308 
L 749.758066 146.446413 
L 751.13245 139.872481 
L 752.506834 134.604808 
L 753.881218 139.35308 
L 755.255603 150.222013 
L 756.629987 141.954708 
L 758.004371 142.826521 
L 759.378755 145.019555 
L 760.75314 145.681092 
L 762.127524 144.225322 
L 763.501908 137.835772 
L 764.876292 137.694771 
L 766.250677 140.102713 
L 767.625061 140.144907 
L 768.999445 137.508679 
L 770.373829 137.838601 
L 771.748214 139.36859 
L 773.122598 133.177258 
L 774.496982 138.76113 
L 775.871366 138.390989 
L 777.24575 135.700435 
L 778.620135 134.297481 
L 779.994519 138.261972 
L 781.368903 139.864163 
L 782.743287 140.51275 
L 784.117672 142.274378 
L 785.492056 136.958685 
L 786.86644 126.406102 
L 788.240824 125.362716 
L 789.615209 128.624298 
L 790.989593 137.143975 
L 792.363977 132.779149 
L 793.738361 131.77501 
L 795.112746 130.05319 
L 796.48713 133.390102 
L 797.861514 126.272914 
L 799.235898 128.110282 
L 800.610282 130.444452 
L 801.984667 130.412081 
L 803.359051 127.389812 
L 804.733435 128.598073 
L 806.107819 120.828342 
L 807.482204 124.975748 
L 808.856588 138.749453 
L 810.230972 137.750818 
L 811.605356 133.675544 
L 812.979741 137.655754 
L 814.354125 138.286264 
L 815.728509 131.909297 
L 817.102893 134.107994 
L 819.851662 136.852104 
L 821.226046 131.092976 
L 822.60043 122.214711 
L 823.974815 118.84749 
L 825.349199 125.901306 
L 826.723583 136.881361 
L 828.097967 128.953464 
L 829.472351 126.530864 
L 830.846736 128.392373 
L 832.22112 130.884043 
L 834.969888 120.738903 
L 836.344273 121.261125 
L 837.718657 124.946508 
L 839.093041 122.389831 
L 840.467425 123.142167 
L 841.84181 122.285877 
L 843.216194 123.62531 
L 844.590578 119.284902 
L 845.964962 126.893481 
L 847.339347 128.801348 
L 848.713731 127.075239 
L 850.088115 126.318021 
L 851.462499 131.341937 
L 852.836883 133.798387 
L 854.211268 134.078755 
L 855.585652 136.80014 
L 856.960036 131.845241 
L 858.33442 120.514118 
L 859.708805 119.993116 
L 861.083189 122.84782 
L 862.457573 131.758983 
L 863.831957 128.90125 
L 865.206342 127.645379 
L 866.580726 125.243336 
L 867.95511 128.350504 
L 869.329494 119.466451 
L 870.703879 122.780387 
L 872.078263 127.145275 
L 873.452647 128.305961 
L 874.827031 161.472212 
L 874.827031 161.472212 
" clip-path="url(#p12e4b00c65)" style="fill: none; stroke: #ff0000; stroke-width: 1.5; stroke-linecap: round"/>
   </g>
   <g id="line2d_3">
    <path d="M 37.827031 161.950829 
L 39.201415 32.498286 
L 40.5758 31.072228 
L 41.950184 37.802983 
L 43.324568 34.138918 
L 44.698952 33.634809 
L 47.447721 31.04974 
L 48.822105 43.336666 
L 50.196489 43.617173 
L 51.570874 33.697636 
L 52.945258 37.660514 
L 54.319642 38.393278 
L 55.694026 52.4573 
L 57.068411 52.630333 
L 58.442795 39.61698 
L 59.817179 36.030816 
L 61.191563 41.677564 
L 62.565948 43.098362 
L 63.940332 55.193494 
L 65.314716 55.79936 
L 66.6891 78.08675 
L 68.063484 56.506695 
L 70.812253 34.067766 
L 72.186637 42.572966 
L 73.561021 38.955824 
L 74.935406 36.359199 
L 77.684174 35.683755 
L 79.058558 33.067541 
L 80.432943 35.063103 
L 81.807327 36.856558 
L 83.181711 35.9168 
L 84.556095 61.102691 
L 85.93048 37.171853 
L 88.679248 30.271957 
L 90.053632 56.445027 
L 91.428016 71.798395 
L 92.802401 64.961948 
L 94.176785 54.867306 
L 95.551169 56.112337 
L 96.925553 56.380253 
L 98.299938 46.820037 
L 99.674322 42.869335 
L 101.048706 58.179506 
L 102.42309 50.618247 
L 105.171859 29.495625 
L 106.546243 34.061553 
L 107.920627 36.37092 
L 109.295012 32.422123 
L 110.669396 54.684332 
L 112.04378 50.738186 
L 113.418164 44.343103 
L 114.792548 61.642831 
L 116.166933 44.635123 
L 117.541317 46.086652 
L 118.915701 48.516827 
L 120.290085 63.226226 
L 121.66447 53.442407 
L 123.038854 35.360259 
L 124.413238 37.495184 
L 125.787622 36.482203 
L 127.162007 41.846373 
L 128.536391 62.212211 
L 129.910775 42.53068 
L 131.285159 43.182932 
L 132.659544 42.823073 
L 134.033928 44.91153 
L 135.408312 46.579289 
L 136.782696 49.643452 
L 138.157081 51.37354 
L 139.531465 54.113338 
L 140.905849 40.122745 
L 142.280233 37.146756 
L 143.654617 40.852858 
L 145.029002 45.071642 
L 146.403386 37.500651 
L 147.77777 39.021964 
L 149.152154 36.963285 
L 150.526539 40.550152 
L 151.900923 95.23527 
L 153.275307 43.722534 
L 154.649691 38.949943 
L 156.024076 60.913671 
L 157.39846 36.846701 
L 158.772844 36.216316 
L 160.147228 33.42007 
L 161.521613 41.196937 
L 162.895997 74.223932 
L 164.270381 56.220763 
L 167.019149 39.237366 
L 168.393534 37.887305 
L 169.767918 35.742648 
L 171.142302 47.572845 
L 172.516686 33.710019 
L 173.891071 36.52043 
L 175.265455 32.687762 
L 176.639839 34.004483 
L 178.014223 32.020559 
L 180.762992 43.283613 
L 182.137376 37.705574 
L 183.51176 36.029947 
L 184.886145 39.458483 
L 186.260529 50.012422 
L 187.634913 35.783069 
L 189.009297 36.428115 
L 190.383681 35.938833 
L 191.758066 46.461834 
L 193.13245 46.836147 
L 194.506834 41.769713 
L 195.881218 43.381809 
L 197.255603 45.67258 
L 198.629987 45.474822 
L 200.004371 71.261858 
L 201.378755 48.0391 
L 202.75314 44.611434 
L 204.127524 49.175126 
L 205.501908 88.846151 
L 206.876292 75.1002 
L 209.625061 62.171292 
L 210.999445 65.454709 
L 212.373829 52.005333 
L 213.748214 40.206197 
L 215.122598 41.301594 
L 216.496982 46.977871 
L 217.871366 43.401399 
L 219.24575 42.784433 
L 220.620135 43.368473 
L 221.994519 40.048363 
L 223.368903 39.679227 
L 224.743287 39.776181 
L 226.117672 41.674333 
L 227.492056 39.173462 
L 228.86644 64.053997 
L 230.240824 40.657377 
L 231.615209 40.279668 
L 232.989593 45.203468 
L 234.363977 79.160611 
L 235.738361 69.520711 
L 237.112746 47.047946 
L 238.48713 46.874167 
L 239.861514 59.759008 
L 241.235898 42.57135 
L 242.610282 47.873438 
L 243.984667 52.176752 
L 245.359051 50.63589 
L 246.733435 38.752101 
L 248.107819 34.754268 
L 249.482204 37.70516 
L 250.856588 40.983068 
L 252.230972 38.888441 
L 253.605356 40.279254 
L 254.979741 40.785102 
L 256.354125 44.802939 
L 257.728509 40.731511 
L 259.102893 40.078679 
L 260.477278 40.230011 
L 261.851662 43.295872 
L 263.226046 50.883306 
L 264.60043 51.014758 
L 265.974815 45.770196 
L 267.349199 47.040325 
L 268.723583 49.374872 
L 270.097967 51.988311 
L 271.472351 73.416248 
L 272.846736 57.159692 
L 274.22112 55.940131 
L 275.595504 54.905491 
L 276.969888 59.542612 
L 278.344273 61.114991 
L 279.718657 62.291521 
L 281.093041 65.307559 
L 282.467425 70.068058 
L 283.84181 54.7583 
L 285.216194 46.687466 
L 286.590578 50.950523 
L 287.964962 57.669226 
L 289.339347 52.592148 
L 290.713731 48.75538 
L 292.088115 48.229073 
L 293.462499 48.160613 
L 294.836883 47.005081 
L 296.211268 49.176203 
L 297.585652 50.945595 
L 298.960036 48.749582 
L 300.33442 72.744945 
L 301.708805 49.443249 
L 303.083189 48.194408 
L 304.457573 48.63863 
L 305.831957 88.835342 
L 307.206342 75.339208 
L 308.580726 58.198598 
L 309.95511 53.664684 
L 311.329494 59.7851 
L 312.703879 75.013973 
L 314.078263 58.389068 
L 315.452647 51.885435 
L 316.827031 55.559813 
L 318.201415 51.693102 
L 319.5758 60.655073 
L 320.950184 54.996646 
L 322.324568 56.641254 
L 323.698952 56.284791 
L 325.073337 60.016736 
L 326.447721 56.386838 
L 327.822105 55.154439 
L 329.196489 54.189376 
L 330.570874 55.205794 
L 331.945258 57.189097 
L 333.319642 56.109438 
L 334.694026 64.191206 
L 336.068411 66.966455 
L 337.442795 58.805376 
L 340.191563 64.91374 
L 341.565948 65.521222 
L 342.940332 86.560102 
L 344.314716 72.916943 
L 345.6891 70.821777 
L 348.437869 72.451475 
L 349.812253 76.20417 
L 351.186637 78.803734 
L 352.561021 78.007067 
L 353.935406 81.492674 
L 355.30979 82.794278 
L 356.684174 71.651204 
L 358.058558 66.982193 
L 359.432943 75.972782 
L 360.807327 73.075233 
L 362.181711 69.778357 
L 363.556095 67.019384 
L 364.93048 66.917626 
L 366.304864 67.346525 
L 367.679248 68.767861 
L 369.053632 68.363729 
L 370.428016 68.747775 
L 371.802401 87.688051 
L 373.176785 67.09389 
L 374.551169 67.110457 
L 375.925553 62.439167 
L 377.299938 98.601393 
L 378.674322 90.356945 
L 380.048706 78.376783 
L 381.42309 71.245664 
L 382.797475 93.090613 
L 384.171859 76.704758 
L 385.546243 71.788082 
L 386.920627 66.044175 
L 388.295012 69.836959 
L 389.669396 66.87327 
L 391.04378 65.824797 
L 392.418164 69.118899 
L 393.792548 65.526564 
L 395.166933 73.165684 
L 396.541317 68.91911 
L 397.915701 63.830975 
L 399.290085 65.438474 
L 400.66447 72.841153 
L 402.038854 71.037717 
L 403.413238 65.53464 
L 404.787622 68.962638 
L 406.162007 67.567476 
L 407.536391 79.911225 
L 408.910775 77.706888 
L 410.285159 74.084072 
L 411.659544 76.18719 
L 413.033928 76.266376 
L 414.408312 89.789181 
L 415.782696 93.148719 
L 417.157081 81.643467 
L 418.531465 81.380769 
L 419.905849 82.869654 
L 421.280233 87.876243 
L 422.654617 86.952969 
L 424.029002 89.114275 
L 426.77777 97.627178 
L 428.152154 83.576574 
L 429.526539 81.408932 
L 430.900923 85.081239 
L 432.275307 81.081004 
L 433.649691 82.805295 
L 435.024076 83.450175 
L 436.39846 79.35514 
L 437.772844 77.662905 
L 439.147228 79.523908 
L 440.521613 81.605903 
L 441.895997 80.44068 
L 443.270381 98.19809 
L 444.644765 80.844108 
L 446.019149 75.848784 
L 447.393534 74.192497 
L 448.767918 94.558294 
L 450.142302 104.591061 
L 451.516686 97.736349 
L 452.891071 89.731655 
L 454.265455 91.534386 
L 455.639839 86.689566 
L 457.014223 86.188646 
L 458.388608 91.654118 
L 459.762992 85.043344 
L 461.137376 89.752694 
L 462.51176 80.452856 
L 463.886145 80.729014 
L 465.260529 98.660038 
L 466.634913 88.578939 
L 469.383681 82.629776 
L 470.758066 91.968296 
L 472.13245 84.377963 
L 473.506834 83.880688 
L 474.881218 83.882013 
L 476.255603 85.557061 
L 477.629987 83.324934 
L 479.004371 94.815359 
L 480.378755 93.121716 
L 481.75314 87.474596 
L 483.127524 88.363993 
L 484.501908 91.603592 
L 485.876292 100.252296 
L 487.250677 112.254781 
L 488.625061 97.407676 
L 489.999445 96.481917 
L 491.373829 99.029753 
L 492.748214 101.008418 
L 494.122598 103.366489 
L 495.496982 104.792671 
L 496.871366 105.817828 
L 498.24575 109.977015 
L 499.620135 96.960969 
L 500.994519 90.374216 
L 502.368903 98.724604 
L 503.743287 92.761029 
L 505.117672 93.196181 
L 509.240824 88.088663 
L 510.615209 89.47579 
L 511.989593 88.298184 
L 513.363977 87.68362 
L 514.738361 107.729357 
L 516.112746 90.275315 
L 517.48713 85.245907 
L 518.861514 83.858614 
L 520.235898 96.008165 
L 521.610282 113.952069 
L 522.984667 114.542198 
L 524.359051 97.066951 
L 525.733435 97.8818 
L 527.107819 95.762365 
L 528.482204 94.125212 
L 529.856588 93.147145 
L 531.230972 94.549845 
L 532.605356 98.00087 
L 533.979741 93.446413 
L 535.354125 94.375734 
L 536.728509 90.100004 
L 538.102893 100.756405 
L 540.851662 94.388325 
L 542.226046 90.79599 
L 543.60043 91.000044 
L 544.974815 92.077426 
L 546.349199 91.473257 
L 547.723583 93.086969 
L 549.097967 93.038678 
L 550.472351 104.076267 
L 551.846736 101.063583 
L 553.22112 97.018578 
L 554.595504 99.634377 
L 555.969888 98.909276 
L 557.344273 102.08203 
L 558.718657 120.344005 
L 560.093041 105.814266 
L 561.467425 105.704846 
L 562.84181 105.290775 
L 564.216194 107.133389 
L 565.590578 107.032004 
L 566.964962 109.566878 
L 568.339347 113.183109 
L 569.713731 114.03958 
L 571.088115 104.816029 
L 572.462499 101.670651 
L 573.836883 102.809244 
L 575.211268 105.19117 
L 576.585652 101.227671 
L 577.960036 101.547191 
L 579.33442 98.137375 
L 580.708805 98.406658 
L 582.083189 100.296238 
L 583.457573 99.610149 
L 584.831957 102.332884 
L 586.206342 116.460396 
L 587.580726 100.010264 
L 588.95511 97.542111 
L 590.329494 96.61192 
L 591.703879 102.787667 
L 593.078263 127.346279 
L 594.452647 120.53874 
L 595.827031 108.757993 
L 597.201415 109.260362 
L 598.5758 109.260403 
L 599.950184 106.192099 
L 601.324568 107.001647 
L 602.698952 111.318585 
L 604.073337 114.410538 
L 605.447721 107.887357 
L 606.822105 106.477203 
L 608.196489 106.655455 
L 609.570874 111.28682 
L 610.945258 112.42181 
L 612.319642 107.578357 
L 613.694026 108.221207 
L 615.068411 113.103011 
L 616.442795 112.852075 
L 617.817179 107.568251 
L 619.191563 110.029405 
L 620.565948 109.165728 
L 621.940332 116.777099 
L 623.314716 116.897867 
L 624.6891 114.592725 
L 626.063484 115.108347 
L 627.437869 115.020091 
L 628.812253 116.709261 
L 630.186637 135.354163 
L 631.561021 121.129863 
L 632.935406 119.201394 
L 634.30979 120.96126 
L 635.684174 122.482201 
L 637.058558 124.652619 
L 638.432943 125.638224 
L 639.807327 126.40822 
L 641.181711 130.522637 
L 643.93048 115.297491 
L 645.304864 115.361147 
L 646.679248 119.390373 
L 648.053632 117.550119 
L 649.428016 116.658527 
L 650.802401 115.279517 
L 652.176785 114.300953 
L 653.551169 113.517787 
L 656.299938 113.766942 
L 657.674322 113.772119 
L 659.048706 128.159969 
L 660.42309 110.514049 
L 661.797475 108.496537 
L 663.171859 111.233559 
L 664.546243 137.222289 
L 665.920627 132.871265 
L 667.295012 122.256114 
L 668.669396 120.952025 
L 670.04378 121.750846 
L 671.418164 119.972384 
L 672.792548 119.063356 
L 674.166933 118.995642 
L 675.541317 123.976926 
L 676.915701 117.693251 
L 678.290085 120.348395 
L 679.66447 141.494251 
L 681.038854 173.286651 
L 682.413238 179.823126 
L 683.787622 180.370307 
L 685.162007 180.695625 
L 687.910775 180.53191 
L 692.033928 179.396878 
L 693.408312 179.51309 
L 694.782696 179.341257 
L 698.905849 177.509204 
L 700.280233 176.312587 
L 701.654617 176.513949 
L 704.403386 175.377509 
L 705.77777 174.987169 
L 707.152154 174.105185 
L 708.526539 173.913598 
L 714.024076 172.105896 
L 715.39846 170.96664 
L 716.772844 169.119884 
L 718.147228 168.321312 
L 720.895997 167.926208 
L 722.270381 167.547505 
L 723.644765 166.893307 
L 725.019149 165.925014 
L 726.393534 167.516278 
L 727.767918 166.877072 
L 729.142302 167.152361 
L 730.516686 170.907665 
L 731.891071 168.287268 
L 733.265455 167.458421 
L 736.014223 171.123273 
L 737.388608 171.850736 
L 738.762992 169.915475 
L 740.137376 169.353633 
L 741.51176 169.632814 
L 742.886145 169.176085 
L 744.260529 170.972107 
L 745.634913 167.386027 
L 747.009297 169.095325 
L 748.383681 167.004259 
L 749.758066 165.809341 
L 751.13245 165.101344 
L 752.506834 164.137233 
L 753.881218 164.455553 
L 755.255603 164.374378 
L 758.004371 161.572913 
L 759.378755 161.159049 
L 760.75314 160.320262 
L 762.127524 159.271209 
L 763.501908 159.0006 
L 764.876292 157.881389 
L 766.250677 159.498455 
L 767.625061 157.844157 
L 768.999445 155.769119 
L 770.373829 155.339226 
L 771.748214 154.787283 
L 773.122598 157.653977 
L 774.496982 157.581086 
L 775.871366 155.167725 
L 777.24575 155.840726 
L 778.620135 155.756818 
L 779.994519 156.424435 
L 781.368903 156.022623 
L 782.743287 157.118807 
L 784.117672 156.61358 
L 785.492056 157.246035 
L 786.86644 154.950253 
L 788.240824 153.096415 
L 789.615209 153.173489 
L 792.363977 151.092735 
L 793.738361 150.667026 
L 795.112746 149.766986 
L 796.48713 149.694509 
L 797.861514 148.27135 
L 799.235898 147.782647 
L 800.610282 146.806278 
L 801.984667 153.958063 
L 803.359051 147.389573 
L 804.733435 146.511359 
L 806.107819 149.333821 
L 807.482204 160.784156 
L 808.856588 162.516606 
L 810.230972 161.270249 
L 811.605356 159.130976 
L 812.979741 157.963433 
L 814.354125 159.462714 
L 815.728509 154.206804 
L 817.102893 152.12779 
L 818.477278 150.909513 
L 819.851662 151.307309 
L 821.226046 149.268137 
L 822.60043 149.139997 
L 823.974815 149.813122 
L 825.349199 148.901983 
L 826.723583 147.240643 
L 828.097967 147.421588 
L 829.472351 149.308972 
L 830.846736 148.552933 
L 832.22112 147.986577 
L 833.595504 148.72986 
L 834.969888 147.518665 
L 836.344273 147.996268 
L 837.718657 150.706785 
L 839.093041 149.952113 
L 840.467425 147.545171 
L 841.84181 147.852267 
L 843.216194 149.106533 
L 844.590578 153.218383 
L 845.964962 155.539677 
L 847.339347 151.459096 
L 848.713731 151.553979 
L 851.462499 152.744963 
L 852.836883 153.590874 
L 854.211268 153.541879 
L 855.585652 153.347061 
L 856.960036 153.902897 
L 858.33442 150.923512 
L 859.708805 154.884816 
L 861.083189 151.340317 
L 862.457573 149.794858 
L 863.831957 149.57635 
L 866.580726 147.104925 
L 867.95511 147.016462 
L 869.329494 147.804763 
L 870.703879 147.297714 
L 872.078263 156.620455 
L 873.452647 154.860174 
L 874.827031 168.588855 
L 874.827031 168.588855 
" clip-path="url(#p12e4b00c65)" style="fill: none; stroke: #0000ff; stroke-opacity: 0.125; stroke-width: 1.5; stroke-linecap: round"/>
   </g>
   <g id="line2d_4">
    <path d="M 37.827031 161.468389 
L 39.201415 33.233905 
L 40.5758 31.505584 
L 41.950184 37.794393 
L 43.324568 35.121934 
L 44.698952 33.909419 
L 46.073337 32.329393 
L 47.447721 31.52585 
L 48.822105 43.901485 
L 50.196489 43.400651 
L 51.570874 33.217083 
L 52.945258 36.99511 
L 54.319642 37.882859 
L 55.694026 52.18888 
L 57.068411 52.59064 
L 58.442795 39.638887 
L 59.817179 36.068781 
L 61.191563 41.689153 
L 62.565948 43.310686 
L 63.940332 55.288589 
L 65.314716 55.889284 
L 66.6891 78.194864 
L 68.063484 56.458445 
L 70.812253 34.07567 
L 72.186637 42.441661 
L 73.561021 38.836289 
L 74.935406 36.32098 
L 76.30979 36.058212 
L 77.684174 35.574144 
L 79.058558 33.080814 
L 80.432943 35.258081 
L 81.807327 36.715075 
L 83.181711 35.81111 
L 84.556095 61.45481 
L 85.93048 37.037232 
L 88.679248 30.098591 
L 90.053632 56.572022 
L 91.428016 71.912302 
L 92.802401 65.02768 
L 94.176785 54.974965 
L 95.551169 56.034611 
L 96.925553 56.454073 
L 98.299938 46.671553 
L 99.674322 42.716553 
L 101.048706 57.885723 
L 102.42309 50.384364 
L 105.171859 29.655458 
L 106.546243 34.30763 
L 107.920627 36.139052 
L 109.295012 32.993603 
L 110.669396 54.041632 
L 112.04378 50.046837 
L 113.418164 44.21015 
L 114.792548 60.804508 
L 116.166933 44.417052 
L 117.541317 46.222517 
L 118.915701 48.392914 
L 120.290085 62.798148 
L 121.66447 53.611659 
L 123.038854 35.851947 
L 124.413238 38.027662 
L 125.787622 36.783403 
L 127.162007 41.992436 
L 128.536391 54.800525 
L 129.910775 43.269872 
L 131.285159 35.562537 
L 132.659544 45.935165 
L 134.033928 48.316086 
L 135.408312 60.962823 
L 136.782696 60.478454 
L 138.157081 68.141149 
L 139.531465 69.587547 
L 140.905849 50.277377 
L 142.280233 38.921425 
L 143.654617 53.586976 
L 145.029002 53.600842 
L 146.403386 48.940622 
L 147.77777 49.89388 
L 149.152154 53.405446 
L 150.526539 48.561614 
L 151.900923 48.749597 
L 153.275307 53.225241 
L 154.649691 54.526001 
L 156.024076 76.388628 
L 157.39846 57.144254 
L 158.772844 52.752007 
L 160.147228 43.274686 
L 161.521613 65.083929 
L 164.270381 79.09528 
L 165.644765 68.869828 
L 167.019149 62.786057 
L 168.393534 68.153104 
L 169.767918 58.964377 
L 171.142302 47.123765 
L 172.516686 69.704959 
L 173.891071 59.227951 
L 176.639839 45.373358 
L 178.014223 48.673536 
L 180.762992 60.096569 
L 182.137376 58.012967 
L 183.51176 58.41952 
L 184.886145 54.277186 
L 186.260529 61.911559 
L 187.634913 50.409013 
L 189.009297 53.362647 
L 190.383681 51.074437 
L 191.758066 67.198819 
L 193.13245 57.451498 
L 194.506834 49.28001 
L 195.881218 49.211193 
L 197.255603 50.544957 
L 198.629987 64.923946 
L 200.004371 68.591723 
L 201.378755 57.841875 
L 202.75314 51.405309 
L 204.127524 60.598537 
L 205.501908 66.090987 
L 206.876292 76.651551 
L 208.250677 82.928322 
L 209.625061 92.969442 
L 210.999445 84.929197 
L 212.373829 73.337662 
L 213.748214 60.74524 
L 215.122598 62.816544 
L 217.871366 48.457647 
L 219.24575 49.814065 
L 220.620135 50.82273 
L 221.994519 52.112681 
L 224.743287 52.487427 
L 226.117672 49.357325 
L 227.492056 65.803726 
L 228.86644 52.449712 
L 230.240824 51.229853 
L 231.615209 47.425811 
L 232.989593 65.181625 
L 234.363977 74.544553 
L 235.738361 81.869803 
L 237.112746 70.371996 
L 238.48713 66.208236 
L 239.861514 68.403605 
L 242.610282 48.833736 
L 243.984667 71.320424 
L 245.359051 60.136823 
L 246.733435 57.512055 
L 248.107819 48.43327 
L 249.482204 49.484224 
L 250.856588 49.852682 
L 252.230972 54.472731 
L 253.605356 55.960642 
L 254.979741 59.165047 
L 256.354125 54.386578 
L 257.728509 66.344191 
L 259.102893 51.713674 
L 260.477278 48.83368 
L 261.851662 50.285276 
L 263.226046 66.057728 
L 264.60043 59.151885 
L 265.974815 51.489095 
L 267.349199 49.302614 
L 268.723583 50.90491 
L 270.097967 63.940279 
L 271.472351 69.816187 
L 272.846736 60.294168 
L 274.22112 56.039916 
L 275.595504 62.070703 
L 278.344273 78.787436 
L 279.718657 82.922915 
L 281.093041 87.965988 
L 282.467425 85.871931 
L 283.84181 67.999248 
L 285.216194 63.155238 
L 286.590578 64.819785 
L 287.964962 60.335508 
L 289.339347 56.842316 
L 290.713731 56.299784 
L 292.088115 61.117563 
L 293.462499 59.26697 
L 294.836883 55.112455 
L 296.211268 60.907816 
L 297.585652 57.314431 
L 298.960036 76.932696 
L 300.33442 61.023137 
L 301.708805 57.721813 
L 303.083189 53.857287 
L 304.457573 73.986336 
L 305.831957 83.377059 
L 307.206342 85.260207 
L 308.580726 76.435153 
L 309.95511 74.387159 
L 311.329494 74.482538 
L 312.703879 64.37419 
L 314.078263 55.189878 
L 315.452647 80.588136 
L 316.827031 69.674502 
L 318.201415 65.185298 
L 319.5758 54.395565 
L 320.950184 60.036694 
L 322.324568 64.781967 
L 323.698952 74.204114 
L 325.073337 71.804591 
L 326.447721 70.574187 
L 327.822105 63.377796 
L 329.196489 76.606117 
L 330.570874 63.378684 
L 333.319642 60.420458 
L 334.694026 73.966543 
L 336.068411 70.758858 
L 337.442795 62.093967 
L 338.817179 62.664705 
L 340.191563 61.521856 
L 341.565948 74.12612 
L 342.940332 73.543386 
L 344.314716 66.577737 
L 345.6891 62.988484 
L 347.063484 68.766832 
L 348.437869 77.23617 
L 349.812253 87.350001 
L 351.186637 87.842573 
L 352.561021 90.564271 
L 353.935406 87.888546 
L 355.30979 72.168605 
L 356.684174 65.924377 
L 358.058558 78.238301 
L 360.807327 67.697576 
L 362.181711 67.52473 
L 363.556095 72.728005 
L 364.93048 70.109721 
L 366.304864 65.934583 
L 369.053632 69.198637 
L 370.428016 79.900672 
L 371.802401 64.617812 
L 373.176785 68.521743 
L 374.551169 66.597834 
L 377.299938 83.849213 
L 378.674322 88.787142 
L 380.048706 73.491806 
L 381.42309 80.203883 
L 382.797475 81.978912 
L 384.171859 82.24076 
L 385.546243 70.093701 
L 386.920627 65.283149 
L 388.295012 81.459384 
L 389.669396 78.704289 
L 391.04378 66.26329 
L 392.418164 61.277786 
L 393.792548 65.225038 
L 395.166933 69.767042 
L 396.541317 78.191533 
L 397.915701 76.863767 
L 399.290085 74.062681 
L 400.66447 65.635034 
L 402.038854 73.300728 
L 404.787622 67.784431 
L 406.162007 68.469261 
L 407.536391 77.10255 
L 408.910775 72.494823 
L 410.285159 70.663002 
L 411.659544 67.399388 
L 413.033928 71.818886 
L 414.408312 76.989955 
L 415.782696 77.364086 
L 417.157081 74.685655 
L 418.531465 71.567426 
L 419.905849 74.859708 
L 421.280233 82.901969 
L 422.654617 87.805861 
L 424.029002 91.006689 
L 425.403386 97.415191 
L 426.77777 79.027002 
L 428.152154 67.655396 
L 429.526539 65.516991 
L 432.275307 82.029282 
L 435.024076 76.040421 
L 436.39846 80.526812 
L 437.772844 79.109813 
L 440.521613 75.421027 
L 441.895997 75.242244 
L 443.270381 84.204676 
L 444.644765 75.621895 
L 446.019149 74.566257 
L 447.393534 69.662177 
L 448.767918 83.293164 
L 450.142302 90.873586 
L 451.516686 100.839605 
L 452.891071 85.603573 
L 454.265455 83.866616 
L 455.639839 86.302362 
L 457.014223 73.070625 
L 458.388608 65.769656 
L 459.762992 77.128743 
L 461.137376 72.769004 
L 462.51176 67.606049 
L 463.886145 56.268926 
L 465.260529 57.942425 
L 466.634913 62.361115 
L 468.009297 76.04249 
L 469.383681 72.8321 
L 470.758066 71.366519 
L 472.13245 67.80425 
L 473.506834 72.487168 
L 474.881218 70.810454 
L 476.255603 67.252009 
L 477.629987 69.316682 
L 479.004371 83.684332 
L 480.378755 76.127995 
L 481.75314 72.665752 
L 483.127524 70.846467 
L 484.501908 71.948934 
L 485.876292 75.752867 
L 487.250677 78.83426 
L 488.625061 79.492902 
L 489.999445 72.835535 
L 491.373829 71.620198 
L 492.748214 77.208576 
L 494.122598 85.094412 
L 495.496982 86.397242 
L 496.871366 93.658361 
L 498.24575 76.536763 
L 499.620135 65.945306 
L 500.994519 59.244686 
L 502.368903 57.89323 
L 503.743287 65.771479 
L 505.117672 68.614538 
L 506.492056 69.105218 
L 507.86644 72.018698 
L 509.240824 70.071685 
L 510.615209 65.842878 
L 511.989593 67.048872 
L 514.738361 80.554584 
L 516.112746 77.577854 
L 517.48713 74.950341 
L 518.861514 68.170106 
L 520.235898 83.456983 
L 522.984667 99.559345 
L 524.359051 87.034447 
L 525.733435 86.401082 
L 527.107819 82.77946 
L 528.482204 71.493877 
L 529.856588 69.52949 
L 531.230972 79.044253 
L 532.605356 74.473773 
L 533.979741 65.265749 
L 535.354125 61.381711 
L 536.728509 62.490423 
L 538.102893 66.283208 
L 539.477278 79.284209 
L 542.226046 73.888805 
L 543.60043 71.888464 
L 544.974815 73.838547 
L 546.349199 71.571402 
L 547.723583 67.215717 
L 549.097967 65.723592 
L 550.472351 77.609908 
L 551.846736 74.944389 
L 553.22112 71.968385 
L 554.595504 68.583685 
L 555.969888 69.770978 
L 557.344273 71.174016 
L 558.718657 74.66938 
L 560.093041 77.634761 
L 562.84181 71.233709 
L 564.216194 74.599538 
L 565.590578 85.22285 
L 566.964962 84.845531 
L 568.339347 90.292183 
L 569.713731 80.270643 
L 571.088115 65.535179 
L 572.462499 61.039543 
L 573.836883 61.422074 
L 575.211268 70.091455 
L 577.960036 65.39561 
L 579.33442 65.755826 
L 580.708805 68.070235 
L 582.083189 66.275849 
L 583.457573 69.951118 
L 584.831957 75.402065 
L 586.206342 82.376836 
L 587.580726 75.221243 
L 588.95511 73.139745 
L 590.329494 63.54884 
L 591.703879 84.510779 
L 593.078263 93.55207 
L 594.452647 95.600586 
L 595.827031 79.710837 
L 597.201415 81.984114 
L 598.5758 82.300801 
L 599.950184 73.806427 
L 601.324568 71.467103 
L 602.698952 76.789115 
L 604.073337 75.263906 
L 605.447721 69.698701 
L 606.822105 59.435156 
L 608.196489 59.342613 
L 609.570874 70.937728 
L 610.945258 87.094448 
L 612.319642 83.598071 
L 613.694026 82.343088 
L 615.068411 78.391002 
L 616.442795 80.926659 
L 617.817179 81.740876 
L 619.191563 75.037936 
L 620.565948 75.81631 
L 621.940332 86.572689 
L 623.314716 84.015619 
L 624.6891 78.924738 
L 626.063484 76.351754 
L 627.437869 79.121569 
L 628.812253 79.978488 
L 630.186637 82.512244 
L 631.561021 82.781188 
L 632.935406 82.516613 
L 635.684174 81.287952 
L 637.058558 94.409653 
L 638.432943 92.580946 
L 639.807327 99.617657 
L 641.181711 89.304233 
L 642.556095 75.730076 
L 643.93048 74.253804 
L 645.304864 76.455124 
L 646.679248 81.077728 
L 648.053632 82.503718 
L 649.428016 77.886091 
L 650.802401 78.250745 
L 652.176785 77.896559 
L 653.551169 74.269656 
L 654.925553 75.74838 
L 656.299938 84.221995 
L 657.674322 93.442361 
L 659.048706 85.449967 
L 660.42309 83.356193 
L 661.797475 78.695487 
L 663.171859 89.751602 
L 664.546243 94.788115 
L 665.920627 102.940749 
L 667.295012 87.636208 
L 668.669396 93.486766 
L 670.04378 92.164489 
L 671.418164 83.836424 
L 672.792548 84.177489 
L 674.166933 88.515165 
L 675.541317 87.771987 
L 676.915701 84.380545 
L 678.290085 74.298319 
L 679.66447 68.183506 
L 681.038854 80.003419 
L 682.413238 117.338386 
L 683.787622 112.884366 
L 685.162007 113.181334 
L 686.536391 127.833264 
L 687.910775 143.682674 
L 689.285159 142.03439 
L 690.659544 138.305289 
L 692.033928 138.011155 
L 693.408312 142.419779 
L 694.782696 142.735891 
L 696.157081 142.527175 
L 697.531465 141.736213 
L 698.905849 149.192263 
L 700.280233 143.816267 
L 701.654617 150.708018 
L 703.029002 149.434757 
L 704.403386 147.480015 
L 705.77777 146.480958 
L 707.152154 149.88231 
L 708.526539 150.642904 
L 709.900923 153.299621 
L 711.275307 153.809879 
L 712.649691 148.839766 
L 714.024076 139.973021 
L 715.39846 139.961329 
L 716.772844 142.614727 
L 718.147228 148.478798 
L 719.521613 146.220518 
L 720.895997 146.840229 
L 722.270381 145.468674 
L 723.644765 147.475674 
L 725.019149 143.026614 
L 726.393534 145.076573 
L 727.767918 146.173833 
L 729.142302 147.843306 
L 730.516686 145.188352 
L 731.891071 146.269224 
L 733.265455 142.507913 
L 734.639839 144.051987 
L 736.014223 152.47862 
L 737.388608 152.401655 
L 738.762992 145.763201 
L 740.137376 146.814334 
L 741.51176 149.308253 
L 742.886145 148.826833 
L 744.260529 142.607149 
L 745.634913 145.885374 
L 747.009297 148.178805 
L 748.383681 149.418308 
L 749.758066 146.446413 
L 751.13245 139.872481 
L 752.506834 134.604808 
L 753.881218 139.35308 
L 755.255603 150.222013 
L 756.629987 141.954708 
L 758.004371 142.826521 
L 759.378755 145.019555 
L 760.75314 145.681092 
L 762.127524 144.225322 
L 763.501908 137.835772 
L 764.876292 137.694771 
L 766.250677 140.102713 
L 767.625061 140.144907 
L 768.999445 137.508679 
L 770.373829 137.838601 
L 771.748214 139.36859 
L 773.122598 133.177258 
L 774.496982 138.76113 
L 775.871366 138.390989 
L 777.24575 135.700435 
L 778.620135 134.297481 
L 779.994519 138.261972 
L 781.368903 139.864163 
L 782.743287 140.51275 
L 784.117672 142.274378 
L 785.492056 136.958685 
L 786.86644 126.406102 
L 788.240824 125.362716 
L 789.615209 128.624298 
L 790.989593 137.143975 
L 792.363977 132.779149 
L 793.738361 131.77501 
L 795.112746 130.05319 
L 796.48713 133.390102 
L 797.861514 126.272914 
L 799.235898 128.110282 
L 800.610282 130.444452 
L 801.984667 130.412081 
L 803.359051 127.389812 
L 804.733435 128.598073 
L 806.107819 120.828342 
L 807.482204 124.975748 
L 808.856588 138.749453 
L 810.230972 137.750818 
L 811.605356 133.675544 
L 812.979741 137.655754 
L 814.354125 138.286264 
L 815.728509 131.909297 
L 817.102893 134.107994 
L 819.851662 136.852104 
L 821.226046 131.092976 
L 822.60043 122.214711 
L 823.974815 118.84749 
L 825.349199 125.901306 
L 826.723583 136.881361 
L 828.097967 128.953464 
L 829.472351 126.530864 
L 830.846736 128.392373 
L 832.22112 130.884043 
L 834.969888 120.738903 
L 836.344273 121.261125 
L 837.718657 124.946508 
L 839.093041 122.389831 
L 840.467425 123.142167 
L 841.84181 122.285877 
L 843.216194 123.62531 
L 844.590578 119.284902 
L 845.964962 126.893481 
L 847.339347 128.801348 
L 848.713731 127.075239 
L 850.088115 126.318021 
L 851.462499 131.341937 
L 852.836883 133.798387 
L 854.211268 134.078755 
L 855.585652 136.80014 
L 856.960036 131.845241 
L 858.33442 120.514118 
L 859.708805 119.993116 
L 861.083189 122.84782 
L 862.457573 131.758983 
L 863.831957 128.90125 
L 865.206342 127.645379 
L 866.580726 125.243336 
L 867.95511 128.350504 
L 869.329494 119.466451 
L 870.703879 122.780387 
L 872.078263 127.145275 
L 873.452647 128.305961 
L 874.827031 161.472212 
L 874.827031 161.472212 
" clip-path="url(#p12e4b00c65)" style="fill: none; stroke: #ff0000; stroke-opacity: 0.125; stroke-width: 1.5; stroke-linecap: round"/>
   </g>
   <g id="patch_5">
    <path d="M 37.827031 188.255625 
L 37.827031 21.935625 
" style="fill: none; stroke: #262626; stroke-width: 1.25; stroke-linejoin: miter; stroke-linecap: square"/>
   </g>
   <g id="patch_6">
    <path d="M 874.827031 188.255625 
L 874.827031 21.935625 
" style="fill: none; stroke: #262626; stroke-width: 1.25; stroke-linejoin: miter; stroke-linecap: square"/>
   </g>
   <g id="patch_7">
    <path d="M 37.827031 188.255625 
L 874.827031 188.255625 
" style="fill: none; stroke: #262626; stroke-width: 1.25; stroke-linejoin: miter; stroke-linecap: square"/>
   </g>
   <g id="patch_8">
    <path d="M 37.827031 21.935625 
L 874.827031 21.935625 
" style="fill: none; stroke: #262626; stroke-width: 1.25; stroke-linejoin: miter; stroke-linecap: square"/>
   </g>
   <g id="text_13">
    <!-- Daily taxi demand in thousands of trips -->
    <g style="fill: #262626" transform="translate(353.278906 15.935625) scale(0.12 -0.12)">
     <defs>
      <path id="ArialMT-6c" d="M 409 0 
L 409 4581 
L 972 4581 
L 972 0 
L 409 0 
z
" transform="scale(0.015625)"/>
      <path id="ArialMT-79" d="M 397 -1278 
L 334 -750 
Q 519 -800 656 -800 
Q 844 -800 956 -737 
Q 1069 -675 1141 -563 
Q 1194 -478 1313 -144 
Q 1328 -97 1363 -6 
L 103 3319 
L 709 3319 
L 1400 1397 
Q 1534 1031 1641 628 
Q 1738 1016 1872 1384 
L 2581 3319 
L 3144 3319 
L 1881 -56 
Q 1678 -603 1566 -809 
Q 1416 -1088 1222 -1217 
Q 1028 -1347 759 -1347 
Q 597 -1347 397 -1278 
z
" transform="scale(0.015625)"/>
      <path id="ArialMT-78" d="M 47 0 
L 1259 1725 
L 138 3319 
L 841 3319 
L 1350 2541 
Q 1494 2319 1581 2169 
Q 1719 2375 1834 2534 
L 2394 3319 
L 3066 3319 
L 1919 1756 
L 3153 0 
L 2463 0 
L 1781 1031 
L 1600 1309 
L 728 0 
L 47 0 
z
" transform="scale(0.015625)"/>
      <path id="ArialMT-68" d="M 422 0 
L 422 4581 
L 984 4581 
L 984 2938 
Q 1378 3394 1978 3394 
Q 2347 3394 2619 3248 
Q 2891 3103 3008 2847 
Q 3125 2591 3125 2103 
L 3125 0 
L 2563 0 
L 2563 2103 
Q 2563 2525 2380 2717 
Q 2197 2909 1863 2909 
Q 1613 2909 1392 2779 
Q 1172 2650 1078 2428 
Q 984 2206 984 1816 
L 984 0 
L 422 0 
z
" transform="scale(0.015625)"/>
      <path id="ArialMT-6f" d="M 213 1659 
Q 213 2581 725 3025 
Q 1153 3394 1769 3394 
Q 2453 3394 2887 2945 
Q 3322 2497 3322 1706 
Q 3322 1066 3130 698 
Q 2938 331 2570 128 
Q 2203 -75 1769 -75 
Q 1072 -75 642 372 
Q 213 819 213 1659 
z
M 791 1659 
Q 791 1022 1069 705 
Q 1347 388 1769 388 
Q 2188 388 2466 706 
Q 2744 1025 2744 1678 
Q 2744 2294 2464 2611 
Q 2184 2928 1769 2928 
Q 1347 2928 1069 2612 
Q 791 2297 791 1659 
z
" transform="scale(0.015625)"/>
      <path id="ArialMT-75" d="M 2597 0 
L 2597 488 
Q 2209 -75 1544 -75 
Q 1250 -75 995 37 
Q 741 150 617 320 
Q 494 491 444 738 
Q 409 903 409 1263 
L 409 3319 
L 972 3319 
L 972 1478 
Q 972 1038 1006 884 
Q 1059 663 1231 536 
Q 1403 409 1656 409 
Q 1909 409 2131 539 
Q 2353 669 2445 892 
Q 2538 1116 2538 1541 
L 2538 3319 
L 3100 3319 
L 3100 0 
L 2597 0 
z
" transform="scale(0.015625)"/>
      <path id="ArialMT-66" d="M 556 0 
L 556 2881 
L 59 2881 
L 59 3319 
L 556 3319 
L 556 3672 
Q 556 4006 616 4169 
Q 697 4388 901 4523 
Q 1106 4659 1475 4659 
Q 1713 4659 2000 4603 
L 1916 4113 
Q 1741 4144 1584 4144 
Q 1328 4144 1222 4034 
Q 1116 3925 1116 3625 
L 1116 3319 
L 1763 3319 
L 1763 2881 
L 1116 2881 
L 1116 0 
L 556 0 
z
" transform="scale(0.015625)"/>
     </defs>
     <use xlink:href="#ArialMT-44"/>
     <use xlink:href="#ArialMT-61" x="72.216797"/>
     <use xlink:href="#ArialMT-69" x="127.832031"/>
     <use xlink:href="#ArialMT-6c" x="150.048828"/>
     <use xlink:href="#ArialMT-79" x="172.265625"/>
     <use xlink:href="#ArialMT-20" x="222.265625"/>
     <use xlink:href="#ArialMT-74" x="250.048828"/>
     <use xlink:href="#ArialMT-61" x="277.832031"/>
     <use xlink:href="#ArialMT-78" x="333.447266"/>
     <use xlink:href="#ArialMT-69" x="383.447266"/>
     <use xlink:href="#ArialMT-20" x="405.664062"/>
     <use xlink:href="#ArialMT-64" x="433.447266"/>
     <use xlink:href="#ArialMT-65" x="489.0625"/>
     <use xlink:href="#ArialMT-6d" x="544.677734"/>
     <use xlink:href="#ArialMT-61" x="627.978516"/>
     <use xlink:href="#ArialMT-6e" x="683.59375"/>
     <use xlink:href="#ArialMT-64" x="739.208984"/>
     <use xlink:href="#ArialMT-20" x="794.824219"/>
     <use xlink:href="#ArialMT-69" x="822.607422"/>
     <use xlink:href="#ArialMT-6e" x="844.824219"/>
     <use xlink:href="#ArialMT-20" x="900.439453"/>
     <use xlink:href="#ArialMT-74" x="928.222656"/>
     <use xlink:href="#ArialMT-68" x="956.005859"/>
     <use xlink:href="#ArialMT-6f" x="1011.621094"/>
     <use xlink:href="#ArialMT-75" x="1067.236328"/>
     <use xlink:href="#ArialMT-73" x="1122.851562"/>
     <use xlink:href="#ArialMT-61" x="1172.851562"/>
     <use xlink:href="#ArialMT-6e" x="1228.466797"/>
     <use xlink:href="#ArialMT-64" x="1284.082031"/>
     <use xlink:href="#ArialMT-73" x="1339.697266"/>
     <use xlink:href="#ArialMT-20" x="1389.697266"/>
     <use xlink:href="#ArialMT-6f" x="1417.480469"/>
     <use xlink:href="#ArialMT-66" x="1473.095703"/>
     <use xlink:href="#ArialMT-20" x="1500.878906"/>
     <use xlink:href="#ArialMT-74" x="1528.662109"/>
     <use xlink:href="#ArialMT-72" x="1556.445312"/>
     <use xlink:href="#ArialMT-69" x="1589.746094"/>
     <use xlink:href="#ArialMT-70" x="1611.962891"/>
     <use xlink:href="#ArialMT-73" x="1667.578125"/>
    </g>
   </g>
   <g id="legend_1">
    <g id="patch_9">
     <path d="M 740.814375 92.975 
L 867.127031 92.975 
Q 869.327031 92.975 869.327031 90.775 
L 869.327031 29.635625 
Q 869.327031 27.435625 867.127031 27.435625 
L 740.814375 27.435625 
Q 738.614375 27.435625 738.614375 29.635625 
L 738.614375 90.775 
Q 738.614375 92.975 740.814375 92.975 
z
" style="fill: #ffffff; opacity: 0.8; stroke: #cccccc; stroke-linejoin: miter"/>
    </g>
    <g id="line2d_5">
     <path d="M 743.014375 35.859219 
L 754.014375 35.859219 
L 765.014375 35.859219 
" style="fill: none; stroke: #0000ff; stroke-width: 1.5; stroke-linecap: round"/>
    </g>
    <g id="text_14">
     <!-- demand -->
     <g style="fill: #262626" transform="translate(773.814375 39.709219) scale(0.11 -0.11)">
      <use xlink:href="#ArialMT-64"/>
      <use xlink:href="#ArialMT-65" x="55.615234"/>
      <use xlink:href="#ArialMT-6d" x="111.230469"/>
      <use xlink:href="#ArialMT-61" x="194.53125"/>
      <use xlink:href="#ArialMT-6e" x="250.146484"/>
      <use xlink:href="#ArialMT-64" x="305.761719"/>
     </g>
    </g>
    <g id="line2d_6">
     <path d="M 743.014375 51.419062 
L 754.014375 51.419062 
L 765.014375 51.419062 
" style="fill: none; stroke: #ff0000; stroke-width: 1.5; stroke-linecap: round"/>
    </g>
    <g id="text_15">
     <!-- predicted_demand -->
     <g style="fill: #262626" transform="translate(773.814375 55.269062) scale(0.11 -0.11)">
      <defs>
       <path id="ArialMT-63" d="M 2588 1216 
L 3141 1144 
Q 3050 572 2676 248 
Q 2303 -75 1759 -75 
Q 1078 -75 664 370 
Q 250 816 250 1647 
Q 250 2184 428 2587 
Q 606 2991 970 3192 
Q 1334 3394 1763 3394 
Q 2303 3394 2647 3120 
Q 2991 2847 3088 2344 
L 2541 2259 
Q 2463 2594 2264 2762 
Q 2066 2931 1784 2931 
Q 1359 2931 1093 2626 
Q 828 2322 828 1663 
Q 828 994 1084 691 
Q 1341 388 1753 388 
Q 2084 388 2306 591 
Q 2528 794 2588 1216 
z
" transform="scale(0.015625)"/>
       <path id="ArialMT-5f" d="M -97 -1272 
L -97 -866 
L 3631 -866 
L 3631 -1272 
L -97 -1272 
z
" transform="scale(0.015625)"/>
      </defs>
      <use xlink:href="#ArialMT-70"/>
      <use xlink:href="#ArialMT-72" x="55.615234"/>
      <use xlink:href="#ArialMT-65" x="88.916016"/>
      <use xlink:href="#ArialMT-64" x="144.53125"/>
      <use xlink:href="#ArialMT-69" x="200.146484"/>
      <use xlink:href="#ArialMT-63" x="222.363281"/>
      <use xlink:href="#ArialMT-74" x="272.363281"/>
      <use xlink:href="#ArialMT-65" x="300.146484"/>
      <use xlink:href="#ArialMT-64" x="355.761719"/>
      <use xlink:href="#ArialMT-5f" x="411.376953"/>
      <use xlink:href="#ArialMT-64" x="466.992188"/>
      <use xlink:href="#ArialMT-65" x="522.607422"/>
      <use xlink:href="#ArialMT-6d" x="578.222656"/>
      <use xlink:href="#ArialMT-61" x="661.523438"/>
      <use xlink:href="#ArialMT-6e" x="717.138672"/>
      <use xlink:href="#ArialMT-64" x="772.753906"/>
     </g>
    </g>
    <g id="patch_10">
     <path d="M 743.014375 70.828906 
L 765.014375 70.828906 
L 765.014375 63.128906 
L 743.014375 63.128906 
z
" style="fill: #44af69; opacity: 0.25; stroke: #44af69; stroke-linejoin: miter"/>
    </g>
    <g id="text_16">
     <!-- Train -->
     <g style="fill: #262626" transform="translate(773.814375 70.828906) scale(0.11 -0.11)">
      <defs>
       <path id="ArialMT-54" d="M 1659 0 
L 1659 4041 
L 150 4041 
L 150 4581 
L 3781 4581 
L 3781 4041 
L 2266 4041 
L 2266 0 
L 1659 0 
z
" transform="scale(0.015625)"/>
      </defs>
      <use xlink:href="#ArialMT-54"/>
      <use xlink:href="#ArialMT-72" x="57.333984"/>
      <use xlink:href="#ArialMT-61" x="90.634766"/>
      <use xlink:href="#ArialMT-69" x="146.25"/>
      <use xlink:href="#ArialMT-6e" x="168.466797"/>
     </g>
    </g>
    <g id="patch_11">
     <path d="M 743.014375 86.38875 
L 765.014375 86.38875 
L 765.014375 78.68875 
L 743.014375 78.68875 
z
" style="fill: #f2dc5d; opacity: 0.125; stroke: #f2dc5d; stroke-linejoin: miter"/>
    </g>
    <g id="text_17">
     <!-- Test -->
     <g style="fill: #262626" transform="translate(773.814375 86.38875) scale(0.11 -0.11)">
      <use xlink:href="#ArialMT-54"/>
      <use xlink:href="#ArialMT-65" x="49.958984"/>
      <use xlink:href="#ArialMT-73" x="105.574219"/>
      <use xlink:href="#ArialMT-74" x="155.574219"/>
     </g>
    </g>
   </g>
  </g>
 </g>
 <defs>
  <clipPath id="p12e4b00c65">
   <rect x="37.827031" y="21.935625" width="837" height="166.32"/>
  </clipPath>
 </defs>
</svg>
