<?xml version="1.0" encoding="utf-8" standalone="no"?>
<!DOCTYPE svg PUBLIC "-//W3C//DTD SVG 1.1//EN"
  "http://www.w3.org/Graphics/SVG/1.1/DTD/svg11.dtd">
<svg xmlns:xlink="http://www.w3.org/1999/xlink" width="882.027031pt" height="229.989844pt" viewBox="0 0 882.027031 229.989844" xmlns="http://www.w3.org/2000/svg" version="1.1">
 <metadata>
  <rdf:RDF xmlns:dc="http://purl.org/dc/elements/1.1/" xmlns:cc="http://creativecommons.org/ns#" xmlns:rdf="http://www.w3.org/1999/02/22-rdf-syntax-ns#">
   <cc:Work>
    <dc:type rdf:resource="http://purl.org/dc/dcmitype/StillImage"/>
    <dc:date>2023-08-13T02:27:40.763878</dc:date>
    <dc:format>image/svg+xml</dc:format>
    <dc:creator>
     <cc:Agent>
      <dc:title>Matplotlib v3.7.1, https://matplotlib.org/</dc:title>
     </cc:Agent>
    </dc:creator>
   </cc:Work>
  </rdf:RDF>
 </metadata>
 <defs>
  <style type="text/css">*{stroke-linejoin: round; stroke-linecap: butt}</style>
 </defs>
 <g id="figure_1">
  <g id="patch_1">
   <path d="M 0 229.989844 
L 882.027031 229.989844 
L 882.027031 0 
L 0 0 
z
" style="fill: #ffffff"/>
  </g>
  <g id="axes_1">
   <g id="patch_2">
    <path d="M 37.827031 188.255625 
L 874.827031 188.255625 
L 874.827031 21.935625 
L 37.827031 21.935625 
z
" style="fill: #ffffff"/>
   </g>
   <g id="patch_3">
    <path d="M 37.827031 188.255625 
L 37.827031 21.935625 
L 125.577031 21.935625 
L 125.577031 188.255625 
z
" clip-path="url(#p402e3a3ec1)" style="fill: #44af69; opacity: 0.25; stroke: #44af69; stroke-linejoin: miter"/>
   </g>
   <g id="patch_4">
    <path d="M 125.577031 188.255625 
L 125.577031 21.935625 
L 143.127031 21.935625 
L 143.127031 188.255625 
z
" clip-path="url(#p402e3a3ec1)" style="fill: #f2dc5d; opacity: 0.125; stroke: #f2dc5d; stroke-linejoin: miter"/>
   </g>
   <g id="matplotlib.axis_1">
    <g id="xtick_1"/>
    <g id="xtick_2">
     <g id="text_1">
      <!-- 2012 -->
      <g style="fill: #262626" transform="translate(94.442969 205.629219) scale(0.11 -0.11)">
       <defs>
        <path id="ArialMT-32" d="M 3222 541 
L 3222 0 
L 194 0 
Q 188 203 259 391 
Q 375 700 629 1000 
Q 884 1300 1366 1694 
Q 2113 2306 2375 2664 
Q 2638 3022 2638 3341 
Q 2638 3675 2398 3904 
Q 2159 4134 1775 4134 
Q 1369 4134 1125 3890 
Q 881 3647 878 3216 
L 300 3275 
Q 359 3922 746 4261 
Q 1134 4600 1788 4600 
Q 2447 4600 2831 4234 
Q 3216 3869 3216 3328 
Q 3216 3053 3103 2787 
Q 2991 2522 2730 2228 
Q 2469 1934 1863 1422 
Q 1356 997 1212 845 
Q 1069 694 975 541 
L 3222 541 
z
" transform="scale(0.015625)"/>
        <path id="ArialMT-30" d="M 266 2259 
Q 266 3072 433 3567 
Q 600 4063 929 4331 
Q 1259 4600 1759 4600 
Q 2128 4600 2406 4451 
Q 2684 4303 2865 4023 
Q 3047 3744 3150 3342 
Q 3253 2941 3253 2259 
Q 3253 1453 3087 958 
Q 2922 463 2592 192 
Q 2263 -78 1759 -78 
Q 1097 -78 719 397 
Q 266 969 266 2259 
z
M 844 2259 
Q 844 1131 1108 757 
Q 1372 384 1759 384 
Q 2147 384 2411 759 
Q 2675 1134 2675 2259 
Q 2675 3391 2411 3762 
Q 2147 4134 1753 4134 
Q 1366 4134 1134 3806 
Q 844 3388 844 2259 
z
" transform="scale(0.015625)"/>
        <path id="ArialMT-31" d="M 2384 0 
L 1822 0 
L 1822 3584 
Q 1619 3391 1289 3197 
Q 959 3003 697 2906 
L 697 3450 
Q 1169 3672 1522 3987 
Q 1875 4303 2022 4600 
L 2384 4600 
L 2384 0 
z
" transform="scale(0.015625)"/>
       </defs>
       <use xlink:href="#ArialMT-32"/>
       <use xlink:href="#ArialMT-30" x="55.615234"/>
       <use xlink:href="#ArialMT-31" x="111.230469"/>
       <use xlink:href="#ArialMT-32" x="166.845703"/>
      </g>
     </g>
    </g>
    <g id="xtick_3">
     <g id="text_2">
      <!-- 2014 -->
      <g style="fill: #262626" transform="translate(236.192969 205.629219) scale(0.11 -0.11)">
       <defs>
        <path id="ArialMT-34" d="M 2069 0 
L 2069 1097 
L 81 1097 
L 81 1613 
L 2172 4581 
L 2631 4581 
L 2631 1613 
L 3250 1613 
L 3250 1097 
L 2631 1097 
L 2631 0 
L 2069 0 
z
M 2069 1613 
L 2069 3678 
L 634 1613 
L 2069 1613 
z
" transform="scale(0.015625)"/>
       </defs>
       <use xlink:href="#ArialMT-32"/>
       <use xlink:href="#ArialMT-30" x="55.615234"/>
       <use xlink:href="#ArialMT-31" x="111.230469"/>
       <use xlink:href="#ArialMT-34" x="166.845703"/>
      </g>
     </g>
    </g>
    <g id="xtick_4">
     <g id="text_3">
      <!-- 2016 -->
      <g style="fill: #262626" transform="translate(376.592969 205.629219) scale(0.11 -0.11)">
       <defs>
        <path id="ArialMT-36" d="M 3184 3459 
L 2625 3416 
Q 2550 3747 2413 3897 
Q 2184 4138 1850 4138 
Q 1581 4138 1378 3988 
Q 1113 3794 959 3422 
Q 806 3050 800 2363 
Q 1003 2672 1297 2822 
Q 1591 2972 1913 2972 
Q 2475 2972 2870 2558 
Q 3266 2144 3266 1488 
Q 3266 1056 3080 686 
Q 2894 316 2569 119 
Q 2244 -78 1831 -78 
Q 1128 -78 684 439 
Q 241 956 241 2144 
Q 241 3472 731 4075 
Q 1159 4600 1884 4600 
Q 2425 4600 2770 4297 
Q 3116 3994 3184 3459 
z
M 888 1484 
Q 888 1194 1011 928 
Q 1134 663 1356 523 
Q 1578 384 1822 384 
Q 2178 384 2434 671 
Q 2691 959 2691 1453 
Q 2691 1928 2437 2201 
Q 2184 2475 1800 2475 
Q 1419 2475 1153 2201 
Q 888 1928 888 1484 
z
" transform="scale(0.015625)"/>
       </defs>
       <use xlink:href="#ArialMT-32"/>
       <use xlink:href="#ArialMT-30" x="55.615234"/>
       <use xlink:href="#ArialMT-31" x="111.230469"/>
       <use xlink:href="#ArialMT-36" x="166.845703"/>
      </g>
     </g>
    </g>
    <g id="xtick_5">
     <g id="text_4">
      <!-- 2018 -->
      <g style="fill: #262626" transform="translate(516.992969 205.629219) scale(0.11 -0.11)">
       <defs>
        <path id="ArialMT-38" d="M 1131 2484 
Q 781 2613 612 2850 
Q 444 3088 444 3419 
Q 444 3919 803 4259 
Q 1163 4600 1759 4600 
Q 2359 4600 2725 4251 
Q 3091 3903 3091 3403 
Q 3091 3084 2923 2848 
Q 2756 2613 2416 2484 
Q 2838 2347 3058 2040 
Q 3278 1734 3278 1309 
Q 3278 722 2862 322 
Q 2447 -78 1769 -78 
Q 1091 -78 675 323 
Q 259 725 259 1325 
Q 259 1772 486 2073 
Q 713 2375 1131 2484 
z
M 1019 3438 
Q 1019 3113 1228 2906 
Q 1438 2700 1772 2700 
Q 2097 2700 2305 2904 
Q 2513 3109 2513 3406 
Q 2513 3716 2298 3927 
Q 2084 4138 1766 4138 
Q 1444 4138 1231 3931 
Q 1019 3725 1019 3438 
z
M 838 1322 
Q 838 1081 952 856 
Q 1066 631 1291 507 
Q 1516 384 1775 384 
Q 2178 384 2440 643 
Q 2703 903 2703 1303 
Q 2703 1709 2433 1975 
Q 2163 2241 1756 2241 
Q 1359 2241 1098 1978 
Q 838 1716 838 1322 
z
" transform="scale(0.015625)"/>
       </defs>
       <use xlink:href="#ArialMT-32"/>
       <use xlink:href="#ArialMT-30" x="55.615234"/>
       <use xlink:href="#ArialMT-31" x="111.230469"/>
       <use xlink:href="#ArialMT-38" x="166.845703"/>
      </g>
     </g>
    </g>
    <g id="xtick_6">
     <g id="text_5">
      <!-- 2020 -->
      <g style="fill: #262626" transform="translate(658.742969 205.629219) scale(0.11 -0.11)">
       <use xlink:href="#ArialMT-32"/>
       <use xlink:href="#ArialMT-30" x="55.615234"/>
       <use xlink:href="#ArialMT-32" x="111.230469"/>
       <use xlink:href="#ArialMT-30" x="166.845703"/>
      </g>
     </g>
    </g>
    <g id="xtick_7">
     <g id="text_6">
      <!-- 2022 -->
      <g style="fill: #262626" transform="translate(799.142969 205.629219) scale(0.11 -0.11)">
       <use xlink:href="#ArialMT-32"/>
       <use xlink:href="#ArialMT-30" x="55.615234"/>
       <use xlink:href="#ArialMT-32" x="111.230469"/>
       <use xlink:href="#ArialMT-32" x="166.845703"/>
      </g>
     </g>
    </g>
    <g id="xtick_8"/>
    <g id="xtick_9"/>
    <g id="xtick_10"/>
    <g id="xtick_11"/>
    <g id="xtick_12"/>
    <g id="xtick_13"/>
    <g id="text_7">
     <!-- Date -->
     <g style="fill: #262626" transform="translate(443.653906 220.404844) scale(0.12 -0.12)">
      <defs>
       <path id="ArialMT-44" d="M 494 0 
L 494 4581 
L 2072 4581 
Q 2606 4581 2888 4516 
Q 3281 4425 3559 4188 
Q 3922 3881 4101 3404 
Q 4281 2928 4281 2316 
Q 4281 1794 4159 1391 
Q 4038 988 3847 723 
Q 3656 459 3429 307 
Q 3203 156 2883 78 
Q 2563 0 2147 0 
L 494 0 
z
M 1100 541 
L 2078 541 
Q 2531 541 2789 625 
Q 3047 709 3200 863 
Q 3416 1078 3536 1442 
Q 3656 1806 3656 2325 
Q 3656 3044 3420 3430 
Q 3184 3816 2847 3947 
Q 2603 4041 2063 4041 
L 1100 4041 
L 1100 541 
z
" transform="scale(0.015625)"/>
       <path id="ArialMT-61" d="M 2588 409 
Q 2275 144 1986 34 
Q 1697 -75 1366 -75 
Q 819 -75 525 192 
Q 231 459 231 875 
Q 231 1119 342 1320 
Q 453 1522 633 1644 
Q 813 1766 1038 1828 
Q 1203 1872 1538 1913 
Q 2219 1994 2541 2106 
Q 2544 2222 2544 2253 
Q 2544 2597 2384 2738 
Q 2169 2928 1744 2928 
Q 1347 2928 1158 2789 
Q 969 2650 878 2297 
L 328 2372 
Q 403 2725 575 2942 
Q 747 3159 1072 3276 
Q 1397 3394 1825 3394 
Q 2250 3394 2515 3294 
Q 2781 3194 2906 3042 
Q 3031 2891 3081 2659 
Q 3109 2516 3109 2141 
L 3109 1391 
Q 3109 606 3145 398 
Q 3181 191 3288 0 
L 2700 0 
Q 2613 175 2588 409 
z
M 2541 1666 
Q 2234 1541 1622 1453 
Q 1275 1403 1131 1340 
Q 988 1278 909 1158 
Q 831 1038 831 891 
Q 831 666 1001 516 
Q 1172 366 1500 366 
Q 1825 366 2078 508 
Q 2331 650 2450 897 
Q 2541 1088 2541 1459 
L 2541 1666 
z
" transform="scale(0.015625)"/>
       <path id="ArialMT-74" d="M 1650 503 
L 1731 6 
Q 1494 -44 1306 -44 
Q 1000 -44 831 53 
Q 663 150 594 308 
Q 525 466 525 972 
L 525 2881 
L 113 2881 
L 113 3319 
L 525 3319 
L 525 4141 
L 1084 4478 
L 1084 3319 
L 1650 3319 
L 1650 2881 
L 1084 2881 
L 1084 941 
Q 1084 700 1114 631 
Q 1144 563 1211 522 
Q 1278 481 1403 481 
Q 1497 481 1650 503 
z
" transform="scale(0.015625)"/>
       <path id="ArialMT-65" d="M 2694 1069 
L 3275 997 
Q 3138 488 2766 206 
Q 2394 -75 1816 -75 
Q 1088 -75 661 373 
Q 234 822 234 1631 
Q 234 2469 665 2931 
Q 1097 3394 1784 3394 
Q 2450 3394 2872 2941 
Q 3294 2488 3294 1666 
Q 3294 1616 3291 1516 
L 816 1516 
Q 847 969 1125 678 
Q 1403 388 1819 388 
Q 2128 388 2347 550 
Q 2566 713 2694 1069 
z
M 847 1978 
L 2700 1978 
Q 2663 2397 2488 2606 
Q 2219 2931 1791 2931 
Q 1403 2931 1139 2672 
Q 875 2413 847 1978 
z
" transform="scale(0.015625)"/>
      </defs>
      <use xlink:href="#ArialMT-44"/>
      <use xlink:href="#ArialMT-61" x="72.216797"/>
      <use xlink:href="#ArialMT-74" x="127.832031"/>
      <use xlink:href="#ArialMT-65" x="155.615234"/>
     </g>
    </g>
   </g>
   <g id="matplotlib.axis_2">
    <g id="ytick_1">
     <g id="text_8">
      <!-- 0 -->
      <g style="fill: #262626" transform="translate(22.21 186.75339) scale(0.11 -0.11)">
       <use xlink:href="#ArialMT-30"/>
      </g>
     </g>
    </g>
    <g id="ytick_2">
     <g id="text_9">
      <!-- 1 -->
      <g style="fill: #262626" transform="translate(22.21 145.337946) scale(0.11 -0.11)">
       <use xlink:href="#ArialMT-31"/>
      </g>
     </g>
    </g>
    <g id="ytick_3">
     <g id="text_10">
      <!-- 2 -->
      <g style="fill: #262626" transform="translate(22.21 103.922502) scale(0.11 -0.11)">
       <use xlink:href="#ArialMT-32"/>
      </g>
     </g>
    </g>
    <g id="ytick_4">
     <g id="text_11">
      <!-- 3 -->
      <g style="fill: #262626" transform="translate(22.21 62.507058) scale(0.11 -0.11)">
       <defs>
        <path id="ArialMT-33" d="M 269 1209 
L 831 1284 
Q 928 806 1161 595 
Q 1394 384 1728 384 
Q 2125 384 2398 659 
Q 2672 934 2672 1341 
Q 2672 1728 2419 1979 
Q 2166 2231 1775 2231 
Q 1616 2231 1378 2169 
L 1441 2663 
Q 1497 2656 1531 2656 
Q 1891 2656 2178 2843 
Q 2466 3031 2466 3422 
Q 2466 3731 2256 3934 
Q 2047 4138 1716 4138 
Q 1388 4138 1169 3931 
Q 950 3725 888 3313 
L 325 3413 
Q 428 3978 793 4289 
Q 1159 4600 1703 4600 
Q 2078 4600 2393 4439 
Q 2709 4278 2876 4000 
Q 3044 3722 3044 3409 
Q 3044 3113 2884 2869 
Q 2725 2625 2413 2481 
Q 2819 2388 3044 2092 
Q 3269 1797 3269 1353 
Q 3269 753 2831 336 
Q 2394 -81 1725 -81 
Q 1122 -81 723 278 
Q 325 638 269 1209 
z
" transform="scale(0.015625)"/>
       </defs>
       <use xlink:href="#ArialMT-33"/>
      </g>
     </g>
    </g>
    <g id="text_12">
     <!-- Demand [1e3 trips] -->
     <g style="fill: #262626" transform="translate(15.825 155.784375) rotate(-90) scale(0.12 -0.12)">
      <defs>
       <path id="ArialMT-6d" d="M 422 0 
L 422 3319 
L 925 3319 
L 925 2853 
Q 1081 3097 1340 3245 
Q 1600 3394 1931 3394 
Q 2300 3394 2536 3241 
Q 2772 3088 2869 2813 
Q 3263 3394 3894 3394 
Q 4388 3394 4653 3120 
Q 4919 2847 4919 2278 
L 4919 0 
L 4359 0 
L 4359 2091 
Q 4359 2428 4304 2576 
Q 4250 2725 4106 2815 
Q 3963 2906 3769 2906 
Q 3419 2906 3187 2673 
Q 2956 2441 2956 1928 
L 2956 0 
L 2394 0 
L 2394 2156 
Q 2394 2531 2256 2718 
Q 2119 2906 1806 2906 
Q 1569 2906 1367 2781 
Q 1166 2656 1075 2415 
Q 984 2175 984 1722 
L 984 0 
L 422 0 
z
" transform="scale(0.015625)"/>
       <path id="ArialMT-6e" d="M 422 0 
L 422 3319 
L 928 3319 
L 928 2847 
Q 1294 3394 1984 3394 
Q 2284 3394 2536 3286 
Q 2788 3178 2913 3003 
Q 3038 2828 3088 2588 
Q 3119 2431 3119 2041 
L 3119 0 
L 2556 0 
L 2556 2019 
Q 2556 2363 2490 2533 
Q 2425 2703 2258 2804 
Q 2091 2906 1866 2906 
Q 1506 2906 1245 2678 
Q 984 2450 984 1813 
L 984 0 
L 422 0 
z
" transform="scale(0.015625)"/>
       <path id="ArialMT-64" d="M 2575 0 
L 2575 419 
Q 2259 -75 1647 -75 
Q 1250 -75 917 144 
Q 584 363 401 755 
Q 219 1147 219 1656 
Q 219 2153 384 2558 
Q 550 2963 881 3178 
Q 1213 3394 1622 3394 
Q 1922 3394 2156 3267 
Q 2391 3141 2538 2938 
L 2538 4581 
L 3097 4581 
L 3097 0 
L 2575 0 
z
M 797 1656 
Q 797 1019 1065 703 
Q 1334 388 1700 388 
Q 2069 388 2326 689 
Q 2584 991 2584 1609 
Q 2584 2291 2321 2609 
Q 2059 2928 1675 2928 
Q 1300 2928 1048 2622 
Q 797 2316 797 1656 
z
" transform="scale(0.015625)"/>
       <path id="ArialMT-20" transform="scale(0.015625)"/>
       <path id="ArialMT-5b" d="M 434 -1272 
L 434 4581 
L 1675 4581 
L 1675 4116 
L 997 4116 
L 997 -806 
L 1675 -806 
L 1675 -1272 
L 434 -1272 
z
" transform="scale(0.015625)"/>
       <path id="ArialMT-72" d="M 416 0 
L 416 3319 
L 922 3319 
L 922 2816 
Q 1116 3169 1280 3281 
Q 1444 3394 1641 3394 
Q 1925 3394 2219 3213 
L 2025 2691 
Q 1819 2813 1613 2813 
Q 1428 2813 1281 2702 
Q 1134 2591 1072 2394 
Q 978 2094 978 1738 
L 978 0 
L 416 0 
z
" transform="scale(0.015625)"/>
       <path id="ArialMT-69" d="M 425 3934 
L 425 4581 
L 988 4581 
L 988 3934 
L 425 3934 
z
M 425 0 
L 425 3319 
L 988 3319 
L 988 0 
L 425 0 
z
" transform="scale(0.015625)"/>
       <path id="ArialMT-70" d="M 422 -1272 
L 422 3319 
L 934 3319 
L 934 2888 
Q 1116 3141 1344 3267 
Q 1572 3394 1897 3394 
Q 2322 3394 2647 3175 
Q 2972 2956 3137 2557 
Q 3303 2159 3303 1684 
Q 3303 1175 3120 767 
Q 2938 359 2589 142 
Q 2241 -75 1856 -75 
Q 1575 -75 1351 44 
Q 1128 163 984 344 
L 984 -1272 
L 422 -1272 
z
M 931 1641 
Q 931 1000 1190 694 
Q 1450 388 1819 388 
Q 2194 388 2461 705 
Q 2728 1022 2728 1688 
Q 2728 2322 2467 2637 
Q 2206 2953 1844 2953 
Q 1484 2953 1207 2617 
Q 931 2281 931 1641 
z
" transform="scale(0.015625)"/>
       <path id="ArialMT-73" d="M 197 991 
L 753 1078 
Q 800 744 1014 566 
Q 1228 388 1613 388 
Q 2000 388 2187 545 
Q 2375 703 2375 916 
Q 2375 1106 2209 1216 
Q 2094 1291 1634 1406 
Q 1016 1563 777 1677 
Q 538 1791 414 1992 
Q 291 2194 291 2438 
Q 291 2659 392 2848 
Q 494 3038 669 3163 
Q 800 3259 1026 3326 
Q 1253 3394 1513 3394 
Q 1903 3394 2198 3281 
Q 2494 3169 2634 2976 
Q 2775 2784 2828 2463 
L 2278 2388 
Q 2241 2644 2061 2787 
Q 1881 2931 1553 2931 
Q 1166 2931 1000 2803 
Q 834 2675 834 2503 
Q 834 2394 903 2306 
Q 972 2216 1119 2156 
Q 1203 2125 1616 2013 
Q 2213 1853 2448 1751 
Q 2684 1650 2818 1456 
Q 2953 1263 2953 975 
Q 2953 694 2789 445 
Q 2625 197 2315 61 
Q 2006 -75 1616 -75 
Q 969 -75 630 194 
Q 291 463 197 991 
z
" transform="scale(0.015625)"/>
       <path id="ArialMT-5d" d="M 1363 -1272 
L 122 -1272 
L 122 -806 
L 800 -806 
L 800 4116 
L 122 4116 
L 122 4581 
L 1363 4581 
L 1363 -1272 
z
" transform="scale(0.015625)"/>
      </defs>
      <use xlink:href="#ArialMT-44"/>
      <use xlink:href="#ArialMT-65" x="72.216797"/>
      <use xlink:href="#ArialMT-6d" x="127.832031"/>
      <use xlink:href="#ArialMT-61" x="211.132812"/>
      <use xlink:href="#ArialMT-6e" x="266.748047"/>
      <use xlink:href="#ArialMT-64" x="322.363281"/>
      <use xlink:href="#ArialMT-20" x="377.978516"/>
      <use xlink:href="#ArialMT-5b" x="405.761719"/>
      <use xlink:href="#ArialMT-31" x="433.544922"/>
      <use xlink:href="#ArialMT-65" x="489.160156"/>
      <use xlink:href="#ArialMT-33" x="544.775391"/>
      <use xlink:href="#ArialMT-20" x="600.390625"/>
      <use xlink:href="#ArialMT-74" x="628.173828"/>
      <use xlink:href="#ArialMT-72" x="655.957031"/>
      <use xlink:href="#ArialMT-69" x="689.257812"/>
      <use xlink:href="#ArialMT-70" x="711.474609"/>
      <use xlink:href="#ArialMT-73" x="767.089844"/>
      <use xlink:href="#ArialMT-5d" x="817.089844"/>
     </g>
    </g>
   </g>
   <g id="line2d_1">
    <path d="M 37.827031 144.209033 
L 39.177031 45.182511 
L 40.527031 57.620273 
L 43.227031 31.360107 
L 44.577031 31.045101 
L 45.927031 37.219398 
L 47.277031 30.347996 
L 49.977031 32.486317 
L 51.327031 34.797299 
L 52.677031 67.37448 
L 54.027031 32.498286 
L 55.377031 31.072228 
L 56.727031 37.802983 
L 58.077031 34.138918 
L 59.427031 33.634809 
L 62.127031 31.04974 
L 63.477031 43.336666 
L 64.827031 43.617173 
L 66.177031 33.697636 
L 67.527031 37.660514 
L 68.877031 38.393278 
L 70.227031 52.4573 
L 71.577031 52.630333 
L 72.927031 39.61698 
L 74.277031 36.030816 
L 75.627031 41.677564 
L 76.977031 43.098362 
L 78.327031 55.193494 
L 79.677031 55.79936 
L 81.027031 78.08675 
L 82.377031 56.506695 
L 85.077031 34.067766 
L 86.427031 42.572966 
L 87.777031 38.955824 
L 89.127031 36.359199 
L 91.827031 35.683755 
L 93.177031 33.067541 
L 94.527031 35.063103 
L 95.877031 36.856558 
L 97.227031 35.9168 
L 98.577031 61.102691 
L 99.927031 37.171853 
L 102.627031 30.271957 
L 103.977031 56.445027 
L 105.327031 71.798395 
L 106.677031 64.961948 
L 108.027031 54.867306 
L 109.377031 56.112337 
L 110.727031 56.380253 
L 112.077031 46.820037 
L 113.427031 42.869335 
L 114.777031 58.179506 
L 116.127031 50.618247 
L 118.827031 29.495625 
L 120.177031 34.061553 
L 121.527031 36.37092 
L 122.877031 32.422123 
L 124.227031 54.684332 
L 125.577031 50.738186 
L 126.927031 44.343103 
L 128.277031 61.642831 
L 129.627031 44.635123 
L 130.977031 46.086652 
L 132.327031 48.516827 
L 133.677031 63.226226 
L 135.027031 53.442407 
L 136.377031 35.360259 
L 137.727031 37.495184 
L 139.077031 36.482203 
L 140.427031 41.846373 
L 141.777031 62.212211 
L 143.127031 42.53068 
L 144.477031 43.182932 
L 145.827031 42.823073 
L 147.177031 44.91153 
L 148.527031 46.579289 
L 149.877031 49.643452 
L 151.227031 51.37354 
L 152.577031 54.113338 
L 153.927031 40.122745 
L 155.277031 37.146756 
L 156.627031 40.852858 
L 157.977031 45.071642 
L 159.327031 37.500651 
L 160.677031 39.021964 
L 162.027031 36.963285 
L 163.377031 40.550152 
L 164.727031 95.23527 
L 166.077031 43.722534 
L 167.427031 38.949943 
L 168.777031 60.913671 
L 170.127031 36.846701 
L 171.477031 36.216316 
L 172.827031 33.42007 
L 174.177031 41.196937 
L 175.527031 74.223932 
L 176.877031 56.220763 
L 179.577031 39.237366 
L 180.927031 37.887305 
L 182.277031 35.742648 
L 183.627031 47.572845 
L 184.977031 33.710019 
L 186.327031 36.52043 
L 187.677031 32.687762 
L 189.027031 34.004483 
L 190.377031 32.020559 
L 193.077031 43.283613 
L 194.427031 37.705574 
L 195.777031 36.029947 
L 197.127031 39.458483 
L 198.477031 50.012422 
L 199.827031 35.783069 
L 201.177031 36.428115 
L 202.527031 35.938833 
L 203.877031 46.461834 
L 205.227031 46.836147 
L 206.577031 41.769713 
L 207.927031 43.381809 
L 209.277031 45.67258 
L 210.627031 45.474822 
L 211.977031 71.261858 
L 213.327031 48.0391 
L 214.677031 44.611434 
L 216.027031 49.175126 
L 217.377031 88.846151 
L 218.727031 75.1002 
L 221.427031 62.171292 
L 222.777031 65.454709 
L 224.127031 52.005333 
L 225.477031 40.206197 
L 226.827031 41.301594 
L 228.177031 46.977871 
L 229.527031 43.401399 
L 230.877031 42.784433 
L 232.227031 43.368473 
L 233.577031 40.048363 
L 234.927031 39.679227 
L 236.277031 39.776181 
L 237.627031 41.674333 
L 238.977031 39.173462 
L 240.327031 64.053997 
L 241.677031 40.657377 
L 243.027031 40.279668 
L 244.377031 45.203468 
L 245.727031 79.160611 
L 247.077031 69.520711 
L 248.427031 47.047946 
L 249.777031 46.874167 
L 251.127031 59.759008 
L 252.477031 42.57135 
L 253.827031 47.873438 
L 255.177031 52.176752 
L 256.527031 50.63589 
L 257.877031 38.752101 
L 259.227031 34.754268 
L 260.577031 37.70516 
L 261.927031 40.983068 
L 263.277031 38.888441 
L 264.627031 40.279254 
L 265.977031 40.785102 
L 267.327031 44.802939 
L 268.677031 40.731511 
L 270.027031 40.078679 
L 271.377031 40.230011 
L 272.727031 43.295872 
L 274.077031 50.883306 
L 275.427031 51.014758 
L 276.777031 45.770196 
L 278.127031 47.040325 
L 279.477031 49.374872 
L 280.827031 51.988311 
L 282.177031 73.416248 
L 283.527031 57.159692 
L 284.877031 55.940131 
L 286.227031 54.905491 
L 287.577031 59.542612 
L 288.927031 61.114991 
L 290.277031 62.291521 
L 291.627031 65.307559 
L 292.977031 70.068058 
L 294.327031 54.7583 
L 295.677031 46.687466 
L 297.027031 50.950523 
L 298.377031 57.669226 
L 299.727031 52.592148 
L 301.077031 48.75538 
L 302.427031 48.229073 
L 303.777031 48.160613 
L 305.127031 47.005081 
L 306.477031 49.176203 
L 307.827031 50.945595 
L 309.177031 48.749582 
L 310.527031 72.744945 
L 311.877031 49.443249 
L 313.227031 48.194408 
L 314.577031 48.63863 
L 315.927031 88.835342 
L 317.277031 75.339208 
L 318.627031 58.198598 
L 319.977031 53.664684 
L 321.327031 59.7851 
L 322.677031 75.013973 
L 324.027031 58.389068 
L 325.377031 51.885435 
L 326.727031 55.559813 
L 328.077031 51.693102 
L 329.427031 60.655073 
L 330.777031 54.996646 
L 332.127031 56.641254 
L 333.477031 56.284791 
L 334.827031 60.016736 
L 336.177031 56.386838 
L 337.527031 55.154439 
L 338.877031 54.189376 
L 340.227031 55.205794 
L 341.577031 57.189097 
L 342.927031 56.109438 
L 344.277031 64.191206 
L 345.627031 66.966455 
L 346.977031 58.805376 
L 349.677031 64.91374 
L 351.027031 65.521222 
L 352.377031 86.560102 
L 353.727031 72.916943 
L 355.077031 70.821777 
L 357.777031 72.451475 
L 359.127031 76.20417 
L 360.477031 78.803734 
L 361.827031 78.007067 
L 363.177031 81.492674 
L 364.527031 82.794278 
L 365.877031 71.651204 
L 367.227031 66.982193 
L 368.577031 75.972782 
L 369.927031 73.075233 
L 371.277031 69.778357 
L 372.627031 67.019384 
L 373.977031 66.917626 
L 375.327031 67.346525 
L 376.677031 68.767861 
L 378.027031 68.363729 
L 379.377031 68.747775 
L 380.727031 87.688051 
L 382.077031 67.09389 
L 383.427031 67.110457 
L 384.777031 62.439167 
L 386.127031 98.601393 
L 387.477031 90.356945 
L 388.827031 78.376783 
L 390.177031 71.245664 
L 391.527031 93.090613 
L 392.877031 76.704758 
L 394.227031 71.788082 
L 395.577031 66.044175 
L 396.927031 69.836959 
L 398.277031 66.87327 
L 399.627031 65.824797 
L 400.977031 69.118899 
L 402.327031 65.526564 
L 403.677031 73.165684 
L 405.027031 68.91911 
L 406.377031 63.830975 
L 407.727031 65.438474 
L 409.077031 72.841153 
L 410.427031 71.037717 
L 411.777031 65.53464 
L 413.127031 68.962638 
L 414.477031 67.567476 
L 415.827031 79.911225 
L 417.177031 77.706888 
L 418.527031 74.084072 
L 419.877031 76.18719 
L 421.227031 76.266376 
L 422.577031 89.789181 
L 423.927031 93.148719 
L 425.277031 81.643467 
L 426.627031 81.380769 
L 427.977031 82.869654 
L 429.327031 87.876243 
L 430.677031 86.952969 
L 432.027031 89.114275 
L 434.727031 97.627178 
L 436.077031 83.576574 
L 437.427031 81.408932 
L 438.777031 85.081239 
L 440.127031 81.081004 
L 441.477031 82.805295 
L 442.827031 83.450175 
L 444.177031 79.35514 
L 445.527031 77.662905 
L 446.877031 79.523908 
L 448.227031 81.605903 
L 449.577031 80.44068 
L 450.927031 98.19809 
L 452.277031 80.844108 
L 453.627031 75.848784 
L 454.977031 74.192497 
L 456.327031 94.558294 
L 457.677031 104.591061 
L 459.027031 97.736349 
L 460.377031 89.731655 
L 461.727031 91.534386 
L 463.077031 86.689566 
L 464.427031 86.188646 
L 465.777031 91.654118 
L 467.127031 85.043344 
L 468.477031 89.752694 
L 469.827031 80.452856 
L 471.177031 80.729014 
L 472.527031 98.660038 
L 473.877031 88.578939 
L 476.577031 82.629776 
L 477.927031 91.968296 
L 479.277031 84.377963 
L 480.627031 83.880688 
L 481.977031 83.882013 
L 483.327031 85.557061 
L 484.677031 83.324934 
L 486.027031 94.815359 
L 487.377031 93.121716 
L 488.727031 87.474596 
L 490.077031 88.363993 
L 491.427031 91.603592 
L 492.777031 100.252296 
L 494.127031 112.254781 
L 495.477031 97.407676 
L 496.827031 96.481917 
L 498.177031 99.029753 
L 499.527031 101.008418 
L 500.877031 103.366489 
L 502.227031 104.792671 
L 503.577031 105.817828 
L 504.927031 109.977015 
L 506.277031 96.960969 
L 507.627031 90.374216 
L 508.977031 98.724604 
L 510.327031 92.761029 
L 511.677031 93.196181 
L 515.727031 88.088663 
L 517.077031 89.47579 
L 518.427031 88.298184 
L 519.777031 87.68362 
L 521.127031 107.729357 
L 522.477031 90.275315 
L 523.827031 85.245907 
L 525.177031 83.858614 
L 526.527031 96.008165 
L 527.877031 113.952069 
L 529.227031 114.542198 
L 530.577031 97.066951 
L 531.927031 97.8818 
L 533.277031 95.762365 
L 534.627031 94.125212 
L 535.977031 93.147145 
L 537.327031 94.549845 
L 538.677031 98.00087 
L 540.027031 93.446413 
L 541.377031 94.375734 
L 542.727031 90.100004 
L 544.077031 100.756405 
L 546.777031 94.388325 
L 548.127031 90.79599 
L 549.477031 91.000044 
L 550.827031 92.077426 
L 552.177031 91.473257 
L 553.527031 93.086969 
L 554.877031 93.038678 
L 556.227031 104.076267 
L 557.577031 101.063583 
L 558.927031 97.018578 
L 560.277031 99.634377 
L 561.627031 98.909276 
L 562.977031 102.08203 
L 564.327031 120.344005 
L 565.677031 105.814266 
L 567.027031 105.704846 
L 568.377031 105.290775 
L 569.727031 107.133389 
L 571.077031 107.032004 
L 572.427031 109.566878 
L 573.777031 113.183109 
L 575.127031 114.03958 
L 576.477031 104.816029 
L 577.827031 101.670651 
L 579.177031 102.809244 
L 580.527031 105.19117 
L 581.877031 101.227671 
L 583.227031 101.547191 
L 584.577031 98.137375 
L 585.927031 98.406658 
L 587.277031 100.296238 
L 588.627031 99.610149 
L 589.977031 102.332884 
L 591.327031 116.460396 
L 592.677031 100.010264 
L 594.027031 97.542111 
L 595.377031 96.61192 
L 596.727031 102.787667 
L 598.077031 127.346279 
L 599.427031 120.53874 
L 600.777031 108.757993 
L 602.127031 109.260362 
L 603.477031 109.260403 
L 604.827031 106.192099 
L 606.177031 107.001647 
L 607.527031 111.318585 
L 608.877031 114.410538 
L 610.227031 107.887357 
L 611.577031 106.477203 
L 612.927031 106.655455 
L 614.277031 111.28682 
L 615.627031 112.42181 
L 616.977031 107.578357 
L 618.327031 108.221207 
L 619.677031 113.103011 
L 621.027031 112.852075 
L 622.377031 107.568251 
L 623.727031 110.029405 
L 625.077031 109.165728 
L 626.427031 116.777099 
L 627.777031 116.897867 
L 629.127031 114.592725 
L 630.477031 115.108347 
L 631.827031 115.020091 
L 633.177031 116.709261 
L 634.527031 135.354163 
L 635.877031 121.129863 
L 637.227031 119.201394 
L 638.577031 120.96126 
L 639.927031 122.482201 
L 641.277031 124.652619 
L 642.627031 125.638224 
L 643.977031 126.40822 
L 645.327031 130.522637 
L 648.027031 115.297491 
L 649.377031 115.361147 
L 650.727031 119.390373 
L 652.077031 117.550119 
L 653.427031 116.658527 
L 654.777031 115.279517 
L 656.127031 114.300953 
L 657.477031 113.517787 
L 660.177031 113.766942 
L 661.527031 113.772119 
L 662.877031 128.159969 
L 664.227031 110.514049 
L 665.577031 108.496537 
L 666.927031 111.233559 
L 668.277031 137.222289 
L 669.627031 132.871265 
L 670.977031 122.256114 
L 672.327031 120.952025 
L 673.677031 121.750846 
L 675.027031 119.972384 
L 676.377031 119.063356 
L 677.727031 118.995642 
L 679.077031 123.976926 
L 680.427031 117.693251 
L 681.777031 120.348395 
L 683.127031 141.494251 
L 684.477031 173.286651 
L 685.827031 179.823126 
L 687.177031 180.370307 
L 688.527031 180.695625 
L 691.227031 180.53191 
L 695.277031 179.396878 
L 696.627031 179.51309 
L 697.977031 179.341257 
L 702.027031 177.509204 
L 703.377031 176.312587 
L 704.727031 176.513949 
L 707.427031 175.377509 
L 708.777031 174.987169 
L 710.127031 174.105185 
L 711.477031 173.913598 
L 716.877031 172.105896 
L 718.227031 170.96664 
L 719.577031 169.119884 
L 720.927031 168.321312 
L 723.627031 167.926208 
L 724.977031 167.547505 
L 726.327031 166.893307 
L 727.677031 165.925014 
L 729.027031 167.516278 
L 730.377031 166.877072 
L 731.727031 167.152361 
L 733.077031 170.907665 
L 734.427031 168.287268 
L 735.777031 167.458421 
L 738.477031 171.123273 
L 739.827031 171.850736 
L 741.177031 169.915475 
L 742.527031 169.353633 
L 743.877031 169.632814 
L 745.227031 169.176085 
L 746.577031 170.972107 
L 747.927031 167.386027 
L 749.277031 169.095325 
L 750.627031 167.004259 
L 751.977031 165.809341 
L 753.327031 165.101344 
L 754.677031 164.137233 
L 756.027031 164.455553 
L 757.377031 164.374378 
L 760.077031 161.572913 
L 761.427031 161.159049 
L 762.777031 160.320262 
L 764.127031 159.271209 
L 765.477031 159.0006 
L 766.827031 157.881389 
L 768.177031 159.498455 
L 769.527031 157.844157 
L 770.877031 155.769119 
L 772.227031 155.339226 
L 773.577031 154.787283 
L 774.927031 157.653977 
L 776.277031 157.581086 
L 777.627031 155.167725 
L 778.977031 155.840726 
L 780.327031 155.756818 
L 781.677031 156.424435 
L 783.027031 156.022623 
L 784.377031 157.118807 
L 785.727031 156.61358 
L 787.077031 157.246035 
L 788.427031 154.950253 
L 789.777031 153.096415 
L 791.127031 153.173489 
L 793.827031 151.092735 
L 795.177031 150.667026 
L 796.527031 149.766986 
L 797.877031 149.694509 
L 799.227031 148.27135 
L 800.577031 147.782647 
L 801.927031 146.806278 
L 803.277031 153.958063 
L 804.627031 147.389573 
L 805.977031 146.511359 
L 807.327031 149.333821 
L 808.677031 160.784156 
L 810.027031 162.516606 
L 811.377031 161.270249 
L 812.727031 159.130976 
L 814.077031 157.963433 
L 815.427031 159.462714 
L 816.777031 154.206804 
L 818.127031 152.12779 
L 819.477031 150.909513 
L 820.827031 151.307309 
L 822.177031 149.268137 
L 823.527031 149.139997 
L 824.877031 149.813122 
L 826.227031 148.901983 
L 827.577031 147.240643 
L 828.927031 147.421588 
L 830.277031 149.308972 
L 831.627031 148.552933 
L 832.977031 147.986577 
L 834.327031 148.72986 
L 835.677031 147.518665 
L 837.027031 147.996268 
L 838.377031 150.706785 
L 839.727031 149.952113 
L 841.077031 147.545171 
L 842.427031 147.852267 
L 843.777031 149.106533 
L 845.127031 153.218383 
L 846.477031 155.539677 
L 847.827031 151.459096 
L 849.177031 151.553979 
L 851.877031 152.744963 
L 853.227031 153.590874 
L 854.577031 153.541879 
L 855.927031 153.347061 
L 857.277031 153.902897 
L 858.627031 150.923512 
L 859.977031 154.884816 
L 861.327031 151.340317 
L 862.677031 149.794858 
L 864.027031 149.57635 
L 866.727031 147.104925 
L 868.077031 147.016462 
L 869.427031 147.804763 
L 870.777031 147.297714 
L 872.127031 156.620455 
L 873.477031 154.860174 
L 874.827031 168.588855 
L 874.827031 168.588855 
" clip-path="url(#p402e3a3ec1)" style="fill: none; stroke: #0000ff; stroke-width: 1.5; stroke-linecap: round"/>
   </g>
   <g id="line2d_2">
    <path d="M 37.827031 144.155407 
L 39.177031 45.491047 
L 40.527031 57.731258 
L 43.227031 31.383171 
L 44.577031 32.811993 
L 45.927031 37.395022 
L 47.277031 30.475625 
L 48.627031 30.733515 
L 49.977031 32.45804 
L 51.327031 34.870383 
L 52.677031 66.380475 
L 54.027031 32.988877 
L 55.377031 31.872078 
L 56.727031 37.876773 
L 58.077031 33.98114 
L 59.427031 33.745207 
L 60.777031 32.34676 
L 62.127031 31.125664 
L 63.477031 43.421372 
L 64.827031 43.727751 
L 66.177031 33.567801 
L 67.527031 37.775289 
L 68.877031 38.442851 
L 70.227031 52.530536 
L 71.577031 52.869571 
L 72.927031 39.566202 
L 74.277031 36.103461 
L 75.627031 41.722981 
L 76.977031 43.042187 
L 78.327031 55.186137 
L 79.677031 55.862704 
L 81.027031 78.011361 
L 82.377031 56.436426 
L 85.077031 34.05569 
L 86.427031 42.439641 
L 87.777031 38.929256 
L 89.127031 36.325424 
L 91.827031 35.425472 
L 93.177031 33.129696 
L 94.527031 35.103689 
L 95.877031 36.720567 
L 97.227031 35.971827 
L 98.577031 61.357236 
L 99.927031 37.18797 
L 102.627031 30.065047 
L 103.977031 56.421387 
L 105.327031 71.661712 
L 106.677031 65.030632 
L 108.027031 54.596224 
L 110.727031 56.515373 
L 112.077031 47.281367 
L 113.427031 42.708661 
L 114.777031 56.544441 
L 116.127031 50.541162 
L 117.477031 39.739077 
L 118.827031 30.268811 
L 120.177031 34.233306 
L 121.527031 36.108225 
L 122.877031 33.606928 
L 124.227031 54.03023 
L 125.577031 48.933423 
L 126.927031 42.257695 
L 128.277031 43.013836 
L 129.627031 40.989337 
L 130.977031 47.368805 
L 132.327031 43.054022 
L 133.677031 52.780769 
L 135.027031 59.001751 
L 136.377031 46.184223 
L 137.727031 46.851036 
L 139.077031 44.232764 
L 140.427031 54.670137 
L 141.777031 61.237601 
L 143.127031 41.319368 
L 144.477031 36.692964 
L 145.827031 46.211533 
L 147.177031 48.46081 
L 148.527031 61.074756 
L 149.877031 62.738647 
L 151.227031 70.518248 
L 152.577031 67.161397 
L 153.927031 49.646608 
L 155.277031 36.618342 
L 156.627031 54.925985 
L 157.977031 51.653769 
L 159.327031 49.376872 
L 160.677031 48.770194 
L 162.027031 49.818372 
L 163.377031 47.048612 
L 164.727031 51.218435 
L 166.077031 54.774272 
L 167.427031 56.638456 
L 168.777031 71.645662 
L 170.127031 54.272918 
L 171.477031 53.242873 
L 172.827031 42.673629 
L 174.177031 64.444475 
L 175.527031 74.349076 
L 176.877031 74.781417 
L 178.227031 60.912097 
L 179.577031 54.565248 
L 180.927031 64.514183 
L 182.277031 56.339447 
L 183.627031 45.028412 
L 184.977031 54.114467 
L 186.327031 57.260259 
L 187.677031 45.098762 
L 189.027031 44.857964 
L 190.377031 43.651568 
L 191.727031 51.124598 
L 193.077031 65.362417 
L 194.427031 62.580474 
L 195.777031 60.13687 
L 197.127031 53.692229 
L 198.477031 48.868393 
L 199.827031 49.354398 
L 201.177031 51.711282 
L 202.527031 47.468231 
L 203.877031 65.802593 
L 205.227031 66.58599 
L 206.577031 50.226089 
L 207.927031 53.794353 
L 209.277031 55.159762 
L 210.627031 70.843962 
L 211.977031 75.646641 
L 213.327031 55.643056 
L 214.677031 50.404986 
L 216.027031 61.712179 
L 217.377031 61.423993 
L 218.727031 75.246009 
L 220.077031 83.897313 
L 221.427031 91.047606 
L 222.777031 77.767682 
L 224.127031 74.073742 
L 225.477031 58.756237 
L 226.827031 65.818501 
L 228.177031 55.647448 
L 229.527031 52.151261 
L 230.877031 52.130093 
L 232.227031 53.593795 
L 233.577031 52.325044 
L 234.927031 57.839388 
L 236.277031 59.220286 
L 237.627031 52.636591 
L 238.977031 71.760351 
L 240.327031 51.819084 
L 241.677031 51.786656 
L 243.027031 46.520121 
L 244.377031 64.913355 
L 245.727031 77.41004 
L 247.077031 80.159829 
L 248.427031 65.847057 
L 249.777031 62.259378 
L 251.127031 64.267578 
L 252.477031 55.350024 
L 253.827031 51.176474 
L 255.177031 61.150776 
L 256.527031 60.837281 
L 257.877031 52.740367 
L 259.227031 50.291116 
L 260.577031 49.472718 
L 261.927031 51.301691 
L 263.277031 57.419896 
L 264.627031 59.824372 
L 265.977031 59.150024 
L 267.327031 50.101221 
L 268.677031 49.26674 
L 270.027031 47.53591 
L 271.377031 47.682832 
L 272.727031 44.551 
L 274.077031 67.705785 
L 275.427031 65.927439 
L 276.777031 51.369011 
L 278.127031 55.121289 
L 279.477031 56.074179 
L 280.827031 70.013144 
L 282.177031 74.303964 
L 283.527031 60.581396 
L 284.877031 56.353281 
L 286.227031 66.848805 
L 287.577031 69.306577 
L 288.927031 79.404879 
L 290.277031 82.068958 
L 291.627031 87.264529 
L 292.977031 82.265553 
L 294.327031 72.766499 
L 295.677031 61.578802 
L 297.027031 67.68834 
L 298.377031 60.512373 
L 299.727031 59.241949 
L 301.077031 58.557939 
L 302.427031 62.533032 
L 303.777031 58.95948 
L 305.127031 61.884391 
L 306.477031 67.132589 
L 307.827031 63.841271 
L 309.177031 79.38135 
L 310.527031 66.155538 
L 313.227031 57.789214 
L 314.577031 77.099241 
L 315.927031 84.781991 
L 317.277031 88.54082 
L 318.627031 74.686903 
L 319.977031 71.251057 
L 321.327031 74.314052 
L 322.677031 62.645642 
L 324.027031 56.946054 
L 325.377031 72.188431 
L 326.727031 68.69788 
L 328.077031 58.988193 
L 329.427031 56.232455 
L 330.777031 57.807174 
L 332.127031 64.677789 
L 333.477031 75.848654 
L 334.827031 74.570655 
L 336.177031 72.65284 
L 337.527031 65.43936 
L 338.877031 66.022112 
L 340.227031 60.926986 
L 341.577031 61.732223 
L 342.927031 61.059122 
L 344.277031 77.406414 
L 345.627031 78.668776 
L 346.977031 65.864101 
L 348.327031 71.615744 
L 349.677031 71.411617 
L 351.027031 83.753928 
L 352.377031 83.961874 
L 353.727031 68.970281 
L 355.077031 65.489975 
L 356.427031 78.609716 
L 357.777031 79.172333 
L 359.127031 88.364055 
L 360.477031 87.525679 
L 361.827031 94.721032 
L 365.877031 69.318867 
L 367.227031 76.635682 
L 368.577031 75.957367 
L 369.927031 71.68999 
L 371.277031 72.751387 
L 372.627031 72.236954 
L 373.977031 70.94582 
L 375.327031 76.000468 
L 376.677031 78.104648 
L 378.027031 76.04201 
L 379.377031 83.235737 
L 380.727031 75.619236 
L 382.077031 71.676917 
L 383.427031 69.346546 
L 384.777031 82.648223 
L 386.127031 91.562012 
L 387.477031 95.220511 
L 388.827031 78.845918 
L 390.177031 79.532635 
L 391.527031 77.627334 
L 392.877031 85.120073 
L 395.577031 67.364663 
L 396.927031 78.879978 
L 398.277031 76.612347 
L 399.627031 66.161452 
L 400.977031 62.334003 
L 402.327031 62.011037 
L 403.677031 69.699572 
L 405.027031 75.781102 
L 406.377031 79.805126 
L 407.727031 74.492238 
L 409.077031 68.222647 
L 410.427031 70.679361 
L 411.777031 66.874464 
L 413.127031 68.986036 
L 414.477031 67.357978 
L 415.827031 85.439559 
L 417.177031 80.847947 
L 418.527031 75.185888 
L 419.877031 75.325331 
L 421.227031 74.839089 
L 422.577031 85.086481 
L 423.927031 86.70441 
L 425.277031 78.325018 
L 426.627031 74.379125 
L 427.977031 82.479031 
L 429.327031 82.536972 
L 430.677031 92.059844 
L 432.027031 90.716781 
L 433.377031 98.094201 
L 434.727031 86.530068 
L 436.077031 83.966135 
L 437.427031 74.383292 
L 438.777031 79.268337 
L 440.127031 82.708848 
L 441.477031 81.319084 
L 442.827031 76.996854 
L 444.177031 77.321992 
L 445.527031 81.696778 
L 446.877031 78.866661 
L 448.227031 82.262764 
L 449.577031 81.415019 
L 450.927031 87.459549 
L 452.277031 84.140435 
L 453.627031 77.033742 
L 454.977031 72.623251 
L 457.677031 96.439437 
L 459.027031 96.450759 
L 460.377031 88.975268 
L 461.727031 87.41624 
L 463.077031 92.658697 
L 464.427031 78.502158 
L 465.777031 68.642092 
L 467.127031 81.882924 
L 468.477031 86.90675 
L 469.827031 73.383742 
L 471.177031 65.935546 
L 472.527031 64.568166 
L 473.877031 73.586667 
L 475.227031 84.550315 
L 476.577031 83.239105 
L 477.927031 73.032638 
L 479.277031 74.444131 
L 480.627031 77.009857 
L 481.977031 70.96151 
L 483.327031 71.073905 
L 484.677031 76.916968 
L 486.027031 90.637364 
L 487.377031 89.795328 
L 488.727031 86.854489 
L 490.077031 88.072883 
L 491.427031 85.622663 
L 492.777031 93.843738 
L 494.127031 99.531342 
L 495.477031 81.87445 
L 496.827031 76.947229 
L 498.177031 83.580697 
L 499.527031 84.301398 
L 500.877031 91.281175 
L 502.227031 91.199118 
L 503.577031 96.596013 
L 504.927031 85.583707 
L 506.277031 80.992733 
L 507.627031 67.659284 
L 508.977031 71.349425 
L 510.327031 76.98717 
L 511.677031 82.074407 
L 513.027031 76.056422 
L 514.377031 75.112625 
L 515.727031 79.299846 
L 517.077031 77.359697 
L 518.427031 83.296496 
L 519.777031 83.07436 
L 522.477031 86.914642 
L 523.827031 83.341239 
L 525.177031 79.27871 
L 527.877031 102.693738 
L 529.227031 101.532493 
L 530.577031 87.314062 
L 531.927031 87.399778 
L 533.277031 86.877184 
L 534.627031 79.01287 
L 535.977031 74.395984 
L 537.327031 85.163146 
L 538.677031 85.992861 
L 540.027031 74.824783 
L 542.727031 69.13489 
L 546.777031 90.656243 
L 548.127031 79.956499 
L 549.477031 81.642607 
L 550.827031 80.45395 
L 552.177031 74.476297 
L 553.527031 78.062492 
L 554.877031 77.313744 
L 556.227031 85.802561 
L 557.577031 88.904959 
L 558.927031 84.463574 
L 560.277031 85.487197 
L 561.627031 81.965867 
L 562.977031 91.740492 
L 564.327031 94.569062 
L 565.677031 80.741924 
L 567.027031 79.394719 
L 568.377031 85.034386 
L 569.727031 83.710688 
L 571.077031 90.584268 
L 572.427031 90.274133 
L 573.777031 94.024133 
L 575.127031 85.069595 
L 576.477031 77.413993 
L 577.827031 68.872482 
L 579.177031 73.436934 
L 580.527031 79.675187 
L 581.877031 80.722488 
L 584.577031 74.274355 
L 585.927031 77.545243 
L 587.277031 82.132358 
L 588.627031 86.108085 
L 589.977031 87.06556 
L 591.327031 91.329933 
L 592.677031 87.046132 
L 594.027031 81.265944 
L 595.377031 74.315164 
L 596.727031 87.106695 
L 598.077031 98.177515 
L 599.427031 99.341658 
L 600.777031 87.070534 
L 602.127031 87.116381 
L 603.477031 84.481049 
L 604.827031 76.482526 
L 606.177031 72.930153 
L 607.527031 82.877138 
L 608.877031 86.815213 
L 610.227031 79.082803 
L 611.577031 74.71174 
L 612.927031 67.90331 
L 615.627031 91.474912 
L 616.977031 97.248691 
L 618.327031 84.586794 
L 619.677031 90.355883 
L 621.027031 89.651924 
L 622.377031 86.891314 
L 623.727031 89.382377 
L 625.077031 88.014645 
L 626.427031 96.214735 
L 627.777031 98.085347 
L 629.127031 92.16179 
L 630.477031 92.173087 
L 631.827031 93.034342 
L 633.177031 101.237439 
L 634.527031 102.521885 
L 635.877031 90.376293 
L 637.227031 91.179638 
L 638.577031 94.764275 
L 639.927031 93.432856 
L 641.277031 98.107113 
L 642.627031 97.246433 
L 643.977031 103.522776 
L 645.327031 95.789611 
L 646.677031 87.383677 
L 648.027031 83.050783 
L 649.377031 85.626431 
L 650.727031 90.119933 
L 652.077031 90.451566 
L 653.427031 87.954465 
L 654.777031 87.133274 
L 656.127031 89.744717 
L 657.477031 90.036924 
L 658.827031 93.025058 
L 660.177031 98.464726 
L 661.527031 99.260827 
L 662.877031 101.152445 
L 664.227031 90.994384 
L 665.577031 93.625505 
L 666.927031 96.87942 
L 668.277031 104.661553 
L 669.627031 110.943455 
L 670.977031 97.609544 
L 672.327031 101.7158 
L 673.677031 96.885557 
L 675.027031 89.706872 
L 676.377031 88.286461 
L 677.727031 95.734624 
L 679.077031 99.678464 
L 680.427031 90.639126 
L 681.777031 86.225488 
L 683.127031 76.998386 
L 684.477031 87.350224 
L 685.827031 120.897985 
L 687.177031 128.590438 
L 688.527031 114.785467 
L 689.877031 132.711107 
L 691.227031 135.933362 
L 692.577031 130.871974 
L 693.927031 133.391499 
L 695.277031 133.774194 
L 696.627031 138.483351 
L 697.977031 137.225435 
L 699.327031 140.499949 
L 700.677031 144.304557 
L 702.027031 152.634568 
L 703.377031 153.889911 
L 704.727031 154.068823 
L 706.077031 152.939599 
L 707.427031 148.484948 
L 708.777031 151.13657 
L 710.127031 154.203254 
L 711.477031 160.339179 
L 712.827031 160.968951 
L 714.177031 161.346844 
L 716.877031 139.538745 
L 718.227031 142.749967 
L 719.577031 143.447344 
L 720.927031 153.764611 
L 722.277031 153.755562 
L 723.627031 147.336097 
L 724.977031 147.046963 
L 726.327031 151.327989 
L 727.677031 145.751751 
L 729.027031 151.313849 
L 730.377031 149.270349 
L 731.727031 148.782646 
L 733.077031 149.184041 
L 734.427031 143.492742 
L 735.777031 147.145014 
L 737.127031 154.286631 
L 738.477031 157.624017 
L 739.827031 154.205887 
L 741.177031 151.653839 
L 742.527031 151.814227 
L 743.877031 150.255529 
L 745.227031 148.972822 
L 746.577031 147.084499 
L 747.927031 144.456695 
L 749.277031 149.644791 
L 750.627031 144.95987 
L 751.977031 147.337285 
L 753.327031 142.726541 
L 754.677031 132.630514 
L 756.027031 136.351365 
L 757.377031 147.339856 
L 758.727031 146.992066 
L 760.077031 140.496507 
L 761.427031 146.873992 
L 762.777031 145.340494 
L 764.127031 139.424662 
L 765.477031 142.459414 
L 766.827031 140.162429 
L 768.177031 144.720762 
L 769.527031 142.824119 
L 770.877031 144.161879 
L 772.227031 140.902168 
L 773.577031 139.849523 
L 774.927031 142.373991 
L 776.277031 143.138493 
L 777.627031 141.632898 
L 778.977031 136.067375 
L 780.327031 137.431537 
L 781.677031 141.84382 
L 783.027031 148.358817 
L 784.377031 148.481119 
L 785.727031 149.691251 
L 787.077031 138.593733 
L 788.427031 129.882622 
L 789.777031 128.993831 
L 791.127031 128.654886 
L 792.477031 137.410346 
L 793.827031 137.338248 
L 795.177031 133.667346 
L 796.527031 130.44312 
L 797.877031 135.758964 
L 799.227031 129.719859 
L 800.577031 132.546323 
L 801.927031 131.00031 
L 803.277031 133.832761 
L 804.627031 129.771113 
L 805.977031 130.082944 
L 807.327031 122.195697 
L 808.677031 134.653413 
L 810.027031 144.759665 
L 811.377031 142.282828 
L 812.727031 140.647284 
L 815.427031 136.839666 
L 816.777031 133.597657 
L 818.127031 130.973651 
L 819.477031 132.465123 
L 820.827031 139.227699 
L 822.177031 128.548339 
L 823.527031 125.569887 
L 824.877031 116.61321 
L 826.227031 124.563476 
L 827.577031 135.277561 
L 828.927031 132.493718 
L 830.277031 125.567058 
L 831.627031 131.992125 
L 832.977031 130.32176 
L 834.327031 124.120037 
L 835.677031 125.192096 
L 837.027031 124.096172 
L 838.377031 129.475663 
L 839.727031 126.940412 
L 841.077031 128.828919 
L 842.427031 126.815711 
L 843.777031 124.315115 
L 845.127031 129.655201 
L 846.477031 132.855998 
L 849.177031 128.422041 
L 850.527031 129.149236 
L 851.877031 133.193417 
L 853.227031 139.602116 
L 854.577031 140.166619 
L 855.927031 142.327777 
L 857.277031 131.794209 
L 858.627031 124.08328 
L 859.977031 123.39855 
L 861.327031 122.464044 
L 862.677031 133.627171 
L 864.027031 134.702751 
L 865.377031 129.259951 
L 866.727031 124.901316 
L 868.077031 130.596867 
L 869.427031 122.805078 
L 870.777031 126.999639 
L 872.127031 127.516674 
L 873.477031 129.553696 
L 874.827031 162.319968 
L 874.827031 162.319968 
" clip-path="url(#p402e3a3ec1)" style="fill: none; stroke: #ff0000; stroke-width: 1.5; stroke-linecap: round"/>
   </g>
   <g id="line2d_3">
    <path d="M 37.827031 144.209033 
L 39.177031 45.182511 
L 40.527031 57.620273 
L 43.227031 31.360107 
L 44.577031 31.045101 
L 45.927031 37.219398 
L 47.277031 30.347996 
L 49.977031 32.486317 
L 51.327031 34.797299 
L 52.677031 67.37448 
L 54.027031 32.498286 
L 55.377031 31.072228 
L 56.727031 37.802983 
L 58.077031 34.138918 
L 59.427031 33.634809 
L 62.127031 31.04974 
L 63.477031 43.336666 
L 64.827031 43.617173 
L 66.177031 33.697636 
L 67.527031 37.660514 
L 68.877031 38.393278 
L 70.227031 52.4573 
L 71.577031 52.630333 
L 72.927031 39.61698 
L 74.277031 36.030816 
L 75.627031 41.677564 
L 76.977031 43.098362 
L 78.327031 55.193494 
L 79.677031 55.79936 
L 81.027031 78.08675 
L 82.377031 56.506695 
L 85.077031 34.067766 
L 86.427031 42.572966 
L 87.777031 38.955824 
L 89.127031 36.359199 
L 91.827031 35.683755 
L 93.177031 33.067541 
L 94.527031 35.063103 
L 95.877031 36.856558 
L 97.227031 35.9168 
L 98.577031 61.102691 
L 99.927031 37.171853 
L 102.627031 30.271957 
L 103.977031 56.445027 
L 105.327031 71.798395 
L 106.677031 64.961948 
L 108.027031 54.867306 
L 109.377031 56.112337 
L 110.727031 56.380253 
L 112.077031 46.820037 
L 113.427031 42.869335 
L 114.777031 58.179506 
L 116.127031 50.618247 
L 118.827031 29.495625 
L 120.177031 34.061553 
L 121.527031 36.37092 
L 122.877031 32.422123 
L 124.227031 54.684332 
L 125.577031 50.738186 
L 126.927031 44.343103 
L 128.277031 61.642831 
L 129.627031 44.635123 
L 130.977031 46.086652 
L 132.327031 48.516827 
L 133.677031 63.226226 
L 135.027031 53.442407 
L 136.377031 35.360259 
L 137.727031 37.495184 
L 139.077031 36.482203 
L 140.427031 41.846373 
L 141.777031 62.212211 
L 143.127031 42.53068 
L 144.477031 43.182932 
L 145.827031 42.823073 
L 147.177031 44.91153 
L 148.527031 46.579289 
L 149.877031 49.643452 
L 151.227031 51.37354 
L 152.577031 54.113338 
L 153.927031 40.122745 
L 155.277031 37.146756 
L 156.627031 40.852858 
L 157.977031 45.071642 
L 159.327031 37.500651 
L 160.677031 39.021964 
L 162.027031 36.963285 
L 163.377031 40.550152 
L 164.727031 95.23527 
L 166.077031 43.722534 
L 167.427031 38.949943 
L 168.777031 60.913671 
L 170.127031 36.846701 
L 171.477031 36.216316 
L 172.827031 33.42007 
L 174.177031 41.196937 
L 175.527031 74.223932 
L 176.877031 56.220763 
L 179.577031 39.237366 
L 180.927031 37.887305 
L 182.277031 35.742648 
L 183.627031 47.572845 
L 184.977031 33.710019 
L 186.327031 36.52043 
L 187.677031 32.687762 
L 189.027031 34.004483 
L 190.377031 32.020559 
L 193.077031 43.283613 
L 194.427031 37.705574 
L 195.777031 36.029947 
L 197.127031 39.458483 
L 198.477031 50.012422 
L 199.827031 35.783069 
L 201.177031 36.428115 
L 202.527031 35.938833 
L 203.877031 46.461834 
L 205.227031 46.836147 
L 206.577031 41.769713 
L 207.927031 43.381809 
L 209.277031 45.67258 
L 210.627031 45.474822 
L 211.977031 71.261858 
L 213.327031 48.0391 
L 214.677031 44.611434 
L 216.027031 49.175126 
L 217.377031 88.846151 
L 218.727031 75.1002 
L 221.427031 62.171292 
L 222.777031 65.454709 
L 224.127031 52.005333 
L 225.477031 40.206197 
L 226.827031 41.301594 
L 228.177031 46.977871 
L 229.527031 43.401399 
L 230.877031 42.784433 
L 232.227031 43.368473 
L 233.577031 40.048363 
L 234.927031 39.679227 
L 236.277031 39.776181 
L 237.627031 41.674333 
L 238.977031 39.173462 
L 240.327031 64.053997 
L 241.677031 40.657377 
L 243.027031 40.279668 
L 244.377031 45.203468 
L 245.727031 79.160611 
L 247.077031 69.520711 
L 248.427031 47.047946 
L 249.777031 46.874167 
L 251.127031 59.759008 
L 252.477031 42.57135 
L 253.827031 47.873438 
L 255.177031 52.176752 
L 256.527031 50.63589 
L 257.877031 38.752101 
L 259.227031 34.754268 
L 260.577031 37.70516 
L 261.927031 40.983068 
L 263.277031 38.888441 
L 264.627031 40.279254 
L 265.977031 40.785102 
L 267.327031 44.802939 
L 268.677031 40.731511 
L 270.027031 40.078679 
L 271.377031 40.230011 
L 272.727031 43.295872 
L 274.077031 50.883306 
L 275.427031 51.014758 
L 276.777031 45.770196 
L 278.127031 47.040325 
L 279.477031 49.374872 
L 280.827031 51.988311 
L 282.177031 73.416248 
L 283.527031 57.159692 
L 284.877031 55.940131 
L 286.227031 54.905491 
L 287.577031 59.542612 
L 288.927031 61.114991 
L 290.277031 62.291521 
L 291.627031 65.307559 
L 292.977031 70.068058 
L 294.327031 54.7583 
L 295.677031 46.687466 
L 297.027031 50.950523 
L 298.377031 57.669226 
L 299.727031 52.592148 
L 301.077031 48.75538 
L 302.427031 48.229073 
L 303.777031 48.160613 
L 305.127031 47.005081 
L 306.477031 49.176203 
L 307.827031 50.945595 
L 309.177031 48.749582 
L 310.527031 72.744945 
L 311.877031 49.443249 
L 313.227031 48.194408 
L 314.577031 48.63863 
L 315.927031 88.835342 
L 317.277031 75.339208 
L 318.627031 58.198598 
L 319.977031 53.664684 
L 321.327031 59.7851 
L 322.677031 75.013973 
L 324.027031 58.389068 
L 325.377031 51.885435 
L 326.727031 55.559813 
L 328.077031 51.693102 
L 329.427031 60.655073 
L 330.777031 54.996646 
L 332.127031 56.641254 
L 333.477031 56.284791 
L 334.827031 60.016736 
L 336.177031 56.386838 
L 337.527031 55.154439 
L 338.877031 54.189376 
L 340.227031 55.205794 
L 341.577031 57.189097 
L 342.927031 56.109438 
L 344.277031 64.191206 
L 345.627031 66.966455 
L 346.977031 58.805376 
L 349.677031 64.91374 
L 351.027031 65.521222 
L 352.377031 86.560102 
L 353.727031 72.916943 
L 355.077031 70.821777 
L 357.777031 72.451475 
L 359.127031 76.20417 
L 360.477031 78.803734 
L 361.827031 78.007067 
L 363.177031 81.492674 
L 364.527031 82.794278 
L 365.877031 71.651204 
L 367.227031 66.982193 
L 368.577031 75.972782 
L 369.927031 73.075233 
L 371.277031 69.778357 
L 372.627031 67.019384 
L 373.977031 66.917626 
L 375.327031 67.346525 
L 376.677031 68.767861 
L 378.027031 68.363729 
L 379.377031 68.747775 
L 380.727031 87.688051 
L 382.077031 67.09389 
L 383.427031 67.110457 
L 384.777031 62.439167 
L 386.127031 98.601393 
L 387.477031 90.356945 
L 388.827031 78.376783 
L 390.177031 71.245664 
L 391.527031 93.090613 
L 392.877031 76.704758 
L 394.227031 71.788082 
L 395.577031 66.044175 
L 396.927031 69.836959 
L 398.277031 66.87327 
L 399.627031 65.824797 
L 400.977031 69.118899 
L 402.327031 65.526564 
L 403.677031 73.165684 
L 405.027031 68.91911 
L 406.377031 63.830975 
L 407.727031 65.438474 
L 409.077031 72.841153 
L 410.427031 71.037717 
L 411.777031 65.53464 
L 413.127031 68.962638 
L 414.477031 67.567476 
L 415.827031 79.911225 
L 417.177031 77.706888 
L 418.527031 74.084072 
L 419.877031 76.18719 
L 421.227031 76.266376 
L 422.577031 89.789181 
L 423.927031 93.148719 
L 425.277031 81.643467 
L 426.627031 81.380769 
L 427.977031 82.869654 
L 429.327031 87.876243 
L 430.677031 86.952969 
L 432.027031 89.114275 
L 434.727031 97.627178 
L 436.077031 83.576574 
L 437.427031 81.408932 
L 438.777031 85.081239 
L 440.127031 81.081004 
L 441.477031 82.805295 
L 442.827031 83.450175 
L 444.177031 79.35514 
L 445.527031 77.662905 
L 446.877031 79.523908 
L 448.227031 81.605903 
L 449.577031 80.44068 
L 450.927031 98.19809 
L 452.277031 80.844108 
L 453.627031 75.848784 
L 454.977031 74.192497 
L 456.327031 94.558294 
L 457.677031 104.591061 
L 459.027031 97.736349 
L 460.377031 89.731655 
L 461.727031 91.534386 
L 463.077031 86.689566 
L 464.427031 86.188646 
L 465.777031 91.654118 
L 467.127031 85.043344 
L 468.477031 89.752694 
L 469.827031 80.452856 
L 471.177031 80.729014 
L 472.527031 98.660038 
L 473.877031 88.578939 
L 476.577031 82.629776 
L 477.927031 91.968296 
L 479.277031 84.377963 
L 480.627031 83.880688 
L 481.977031 83.882013 
L 483.327031 85.557061 
L 484.677031 83.324934 
L 486.027031 94.815359 
L 487.377031 93.121716 
L 488.727031 87.474596 
L 490.077031 88.363993 
L 491.427031 91.603592 
L 492.777031 100.252296 
L 494.127031 112.254781 
L 495.477031 97.407676 
L 496.827031 96.481917 
L 498.177031 99.029753 
L 499.527031 101.008418 
L 500.877031 103.366489 
L 502.227031 104.792671 
L 503.577031 105.817828 
L 504.927031 109.977015 
L 506.277031 96.960969 
L 507.627031 90.374216 
L 508.977031 98.724604 
L 510.327031 92.761029 
L 511.677031 93.196181 
L 515.727031 88.088663 
L 517.077031 89.47579 
L 518.427031 88.298184 
L 519.777031 87.68362 
L 521.127031 107.729357 
L 522.477031 90.275315 
L 523.827031 85.245907 
L 525.177031 83.858614 
L 526.527031 96.008165 
L 527.877031 113.952069 
L 529.227031 114.542198 
L 530.577031 97.066951 
L 531.927031 97.8818 
L 533.277031 95.762365 
L 534.627031 94.125212 
L 535.977031 93.147145 
L 537.327031 94.549845 
L 538.677031 98.00087 
L 540.027031 93.446413 
L 541.377031 94.375734 
L 542.727031 90.100004 
L 544.077031 100.756405 
L 546.777031 94.388325 
L 548.127031 90.79599 
L 549.477031 91.000044 
L 550.827031 92.077426 
L 552.177031 91.473257 
L 553.527031 93.086969 
L 554.877031 93.038678 
L 556.227031 104.076267 
L 557.577031 101.063583 
L 558.927031 97.018578 
L 560.277031 99.634377 
L 561.627031 98.909276 
L 562.977031 102.08203 
L 564.327031 120.344005 
L 565.677031 105.814266 
L 567.027031 105.704846 
L 568.377031 105.290775 
L 569.727031 107.133389 
L 571.077031 107.032004 
L 572.427031 109.566878 
L 573.777031 113.183109 
L 575.127031 114.03958 
L 576.477031 104.816029 
L 577.827031 101.670651 
L 579.177031 102.809244 
L 580.527031 105.19117 
L 581.877031 101.227671 
L 583.227031 101.547191 
L 584.577031 98.137375 
L 585.927031 98.406658 
L 587.277031 100.296238 
L 588.627031 99.610149 
L 589.977031 102.332884 
L 591.327031 116.460396 
L 592.677031 100.010264 
L 594.027031 97.542111 
L 595.377031 96.61192 
L 596.727031 102.787667 
L 598.077031 127.346279 
L 599.427031 120.53874 
L 600.777031 108.757993 
L 602.127031 109.260362 
L 603.477031 109.260403 
L 604.827031 106.192099 
L 606.177031 107.001647 
L 607.527031 111.318585 
L 608.877031 114.410538 
L 610.227031 107.887357 
L 611.577031 106.477203 
L 612.927031 106.655455 
L 614.277031 111.28682 
L 615.627031 112.42181 
L 616.977031 107.578357 
L 618.327031 108.221207 
L 619.677031 113.103011 
L 621.027031 112.852075 
L 622.377031 107.568251 
L 623.727031 110.029405 
L 625.077031 109.165728 
L 626.427031 116.777099 
L 627.777031 116.897867 
L 629.127031 114.592725 
L 630.477031 115.108347 
L 631.827031 115.020091 
L 633.177031 116.709261 
L 634.527031 135.354163 
L 635.877031 121.129863 
L 637.227031 119.201394 
L 638.577031 120.96126 
L 639.927031 122.482201 
L 641.277031 124.652619 
L 642.627031 125.638224 
L 643.977031 126.40822 
L 645.327031 130.522637 
L 648.027031 115.297491 
L 649.377031 115.361147 
L 650.727031 119.390373 
L 652.077031 117.550119 
L 653.427031 116.658527 
L 654.777031 115.279517 
L 656.127031 114.300953 
L 657.477031 113.517787 
L 660.177031 113.766942 
L 661.527031 113.772119 
L 662.877031 128.159969 
L 664.227031 110.514049 
L 665.577031 108.496537 
L 666.927031 111.233559 
L 668.277031 137.222289 
L 669.627031 132.871265 
L 670.977031 122.256114 
L 672.327031 120.952025 
L 673.677031 121.750846 
L 675.027031 119.972384 
L 676.377031 119.063356 
L 677.727031 118.995642 
L 679.077031 123.976926 
L 680.427031 117.693251 
L 681.777031 120.348395 
L 683.127031 141.494251 
L 684.477031 173.286651 
L 685.827031 179.823126 
L 687.177031 180.370307 
L 688.527031 180.695625 
L 691.227031 180.53191 
L 695.277031 179.396878 
L 696.627031 179.51309 
L 697.977031 179.341257 
L 702.027031 177.509204 
L 703.377031 176.312587 
L 704.727031 176.513949 
L 707.427031 175.377509 
L 708.777031 174.987169 
L 710.127031 174.105185 
L 711.477031 173.913598 
L 716.877031 172.105896 
L 718.227031 170.96664 
L 719.577031 169.119884 
L 720.927031 168.321312 
L 723.627031 167.926208 
L 724.977031 167.547505 
L 726.327031 166.893307 
L 727.677031 165.925014 
L 729.027031 167.516278 
L 730.377031 166.877072 
L 731.727031 167.152361 
L 733.077031 170.907665 
L 734.427031 168.287268 
L 735.777031 167.458421 
L 738.477031 171.123273 
L 739.827031 171.850736 
L 741.177031 169.915475 
L 742.527031 169.353633 
L 743.877031 169.632814 
L 745.227031 169.176085 
L 746.577031 170.972107 
L 747.927031 167.386027 
L 749.277031 169.095325 
L 750.627031 167.004259 
L 751.977031 165.809341 
L 753.327031 165.101344 
L 754.677031 164.137233 
L 756.027031 164.455553 
L 757.377031 164.374378 
L 760.077031 161.572913 
L 761.427031 161.159049 
L 762.777031 160.320262 
L 764.127031 159.271209 
L 765.477031 159.0006 
L 766.827031 157.881389 
L 768.177031 159.498455 
L 769.527031 157.844157 
L 770.877031 155.769119 
L 772.227031 155.339226 
L 773.577031 154.787283 
L 774.927031 157.653977 
L 776.277031 157.581086 
L 777.627031 155.167725 
L 778.977031 155.840726 
L 780.327031 155.756818 
L 781.677031 156.424435 
L 783.027031 156.022623 
L 784.377031 157.118807 
L 785.727031 156.61358 
L 787.077031 157.246035 
L 788.427031 154.950253 
L 789.777031 153.096415 
L 791.127031 153.173489 
L 793.827031 151.092735 
L 795.177031 150.667026 
L 796.527031 149.766986 
L 797.877031 149.694509 
L 799.227031 148.27135 
L 800.577031 147.782647 
L 801.927031 146.806278 
L 803.277031 153.958063 
L 804.627031 147.389573 
L 805.977031 146.511359 
L 807.327031 149.333821 
L 808.677031 160.784156 
L 810.027031 162.516606 
L 811.377031 161.270249 
L 812.727031 159.130976 
L 814.077031 157.963433 
L 815.427031 159.462714 
L 816.777031 154.206804 
L 818.127031 152.12779 
L 819.477031 150.909513 
L 820.827031 151.307309 
L 822.177031 149.268137 
L 823.527031 149.139997 
L 824.877031 149.813122 
L 826.227031 148.901983 
L 827.577031 147.240643 
L 828.927031 147.421588 
L 830.277031 149.308972 
L 831.627031 148.552933 
L 832.977031 147.986577 
L 834.327031 148.72986 
L 835.677031 147.518665 
L 837.027031 147.996268 
L 838.377031 150.706785 
L 839.727031 149.952113 
L 841.077031 147.545171 
L 842.427031 147.852267 
L 843.777031 149.106533 
L 845.127031 153.218383 
L 846.477031 155.539677 
L 847.827031 151.459096 
L 849.177031 151.553979 
L 851.877031 152.744963 
L 853.227031 153.590874 
L 854.577031 153.541879 
L 855.927031 153.347061 
L 857.277031 153.902897 
L 858.627031 150.923512 
L 859.977031 154.884816 
L 861.327031 151.340317 
L 862.677031 149.794858 
L 864.027031 149.57635 
L 866.727031 147.104925 
L 868.077031 147.016462 
L 869.427031 147.804763 
L 870.777031 147.297714 
L 872.127031 156.620455 
L 873.477031 154.860174 
L 874.827031 168.588855 
L 874.827031 168.588855 
" clip-path="url(#p402e3a3ec1)" style="fill: none; stroke: #0000ff; stroke-opacity: 0.125; stroke-width: 1.5; stroke-linecap: round"/>
   </g>
   <g id="line2d_4">
    <path d="M 37.827031 144.155407 
L 39.177031 45.491047 
L 40.527031 57.731258 
L 43.227031 31.383171 
L 44.577031 32.811993 
L 45.927031 37.395022 
L 47.277031 30.475625 
L 48.627031 30.733515 
L 49.977031 32.45804 
L 51.327031 34.870383 
L 52.677031 66.380475 
L 54.027031 32.988877 
L 55.377031 31.872078 
L 56.727031 37.876773 
L 58.077031 33.98114 
L 59.427031 33.745207 
L 60.777031 32.34676 
L 62.127031 31.125664 
L 63.477031 43.421372 
L 64.827031 43.727751 
L 66.177031 33.567801 
L 67.527031 37.775289 
L 68.877031 38.442851 
L 70.227031 52.530536 
L 71.577031 52.869571 
L 72.927031 39.566202 
L 74.277031 36.103461 
L 75.627031 41.722981 
L 76.977031 43.042187 
L 78.327031 55.186137 
L 79.677031 55.862704 
L 81.027031 78.011361 
L 82.377031 56.436426 
L 85.077031 34.05569 
L 86.427031 42.439641 
L 87.777031 38.929256 
L 89.127031 36.325424 
L 91.827031 35.425472 
L 93.177031 33.129696 
L 94.527031 35.103689 
L 95.877031 36.720567 
L 97.227031 35.971827 
L 98.577031 61.357236 
L 99.927031 37.18797 
L 102.627031 30.065047 
L 103.977031 56.421387 
L 105.327031 71.661712 
L 106.677031 65.030632 
L 108.027031 54.596224 
L 110.727031 56.515373 
L 112.077031 47.281367 
L 113.427031 42.708661 
L 114.777031 56.544441 
L 116.127031 50.541162 
L 117.477031 39.739077 
L 118.827031 30.268811 
L 120.177031 34.233306 
L 121.527031 36.108225 
L 122.877031 33.606928 
L 124.227031 54.03023 
L 125.577031 48.933423 
L 126.927031 42.257695 
L 128.277031 43.013836 
L 129.627031 40.989337 
L 130.977031 47.368805 
L 132.327031 43.054022 
L 133.677031 52.780769 
L 135.027031 59.001751 
L 136.377031 46.184223 
L 137.727031 46.851036 
L 139.077031 44.232764 
L 140.427031 54.670137 
L 141.777031 61.237601 
L 143.127031 41.319368 
L 144.477031 36.692964 
L 145.827031 46.211533 
L 147.177031 48.46081 
L 148.527031 61.074756 
L 149.877031 62.738647 
L 151.227031 70.518248 
L 152.577031 67.161397 
L 153.927031 49.646608 
L 155.277031 36.618342 
L 156.627031 54.925985 
L 157.977031 51.653769 
L 159.327031 49.376872 
L 160.677031 48.770194 
L 162.027031 49.818372 
L 163.377031 47.048612 
L 164.727031 51.218435 
L 166.077031 54.774272 
L 167.427031 56.638456 
L 168.777031 71.645662 
L 170.127031 54.272918 
L 171.477031 53.242873 
L 172.827031 42.673629 
L 174.177031 64.444475 
L 175.527031 74.349076 
L 176.877031 74.781417 
L 178.227031 60.912097 
L 179.577031 54.565248 
L 180.927031 64.514183 
L 182.277031 56.339447 
L 183.627031 45.028412 
L 184.977031 54.114467 
L 186.327031 57.260259 
L 187.677031 45.098762 
L 189.027031 44.857964 
L 190.377031 43.651568 
L 191.727031 51.124598 
L 193.077031 65.362417 
L 194.427031 62.580474 
L 195.777031 60.13687 
L 197.127031 53.692229 
L 198.477031 48.868393 
L 199.827031 49.354398 
L 201.177031 51.711282 
L 202.527031 47.468231 
L 203.877031 65.802593 
L 205.227031 66.58599 
L 206.577031 50.226089 
L 207.927031 53.794353 
L 209.277031 55.159762 
L 210.627031 70.843962 
L 211.977031 75.646641 
L 213.327031 55.643056 
L 214.677031 50.404986 
L 216.027031 61.712179 
L 217.377031 61.423993 
L 218.727031 75.246009 
L 220.077031 83.897313 
L 221.427031 91.047606 
L 222.777031 77.767682 
L 224.127031 74.073742 
L 225.477031 58.756237 
L 226.827031 65.818501 
L 228.177031 55.647448 
L 229.527031 52.151261 
L 230.877031 52.130093 
L 232.227031 53.593795 
L 233.577031 52.325044 
L 234.927031 57.839388 
L 236.277031 59.220286 
L 237.627031 52.636591 
L 238.977031 71.760351 
L 240.327031 51.819084 
L 241.677031 51.786656 
L 243.027031 46.520121 
L 244.377031 64.913355 
L 245.727031 77.41004 
L 247.077031 80.159829 
L 248.427031 65.847057 
L 249.777031 62.259378 
L 251.127031 64.267578 
L 252.477031 55.350024 
L 253.827031 51.176474 
L 255.177031 61.150776 
L 256.527031 60.837281 
L 257.877031 52.740367 
L 259.227031 50.291116 
L 260.577031 49.472718 
L 261.927031 51.301691 
L 263.277031 57.419896 
L 264.627031 59.824372 
L 265.977031 59.150024 
L 267.327031 50.101221 
L 268.677031 49.26674 
L 270.027031 47.53591 
L 271.377031 47.682832 
L 272.727031 44.551 
L 274.077031 67.705785 
L 275.427031 65.927439 
L 276.777031 51.369011 
L 278.127031 55.121289 
L 279.477031 56.074179 
L 280.827031 70.013144 
L 282.177031 74.303964 
L 283.527031 60.581396 
L 284.877031 56.353281 
L 286.227031 66.848805 
L 287.577031 69.306577 
L 288.927031 79.404879 
L 290.277031 82.068958 
L 291.627031 87.264529 
L 292.977031 82.265553 
L 294.327031 72.766499 
L 295.677031 61.578802 
L 297.027031 67.68834 
L 298.377031 60.512373 
L 299.727031 59.241949 
L 301.077031 58.557939 
L 302.427031 62.533032 
L 303.777031 58.95948 
L 305.127031 61.884391 
L 306.477031 67.132589 
L 307.827031 63.841271 
L 309.177031 79.38135 
L 310.527031 66.155538 
L 313.227031 57.789214 
L 314.577031 77.099241 
L 315.927031 84.781991 
L 317.277031 88.54082 
L 318.627031 74.686903 
L 319.977031 71.251057 
L 321.327031 74.314052 
L 322.677031 62.645642 
L 324.027031 56.946054 
L 325.377031 72.188431 
L 326.727031 68.69788 
L 328.077031 58.988193 
L 329.427031 56.232455 
L 330.777031 57.807174 
L 332.127031 64.677789 
L 333.477031 75.848654 
L 334.827031 74.570655 
L 336.177031 72.65284 
L 337.527031 65.43936 
L 338.877031 66.022112 
L 340.227031 60.926986 
L 341.577031 61.732223 
L 342.927031 61.059122 
L 344.277031 77.406414 
L 345.627031 78.668776 
L 346.977031 65.864101 
L 348.327031 71.615744 
L 349.677031 71.411617 
L 351.027031 83.753928 
L 352.377031 83.961874 
L 353.727031 68.970281 
L 355.077031 65.489975 
L 356.427031 78.609716 
L 357.777031 79.172333 
L 359.127031 88.364055 
L 360.477031 87.525679 
L 361.827031 94.721032 
L 365.877031 69.318867 
L 367.227031 76.635682 
L 368.577031 75.957367 
L 369.927031 71.68999 
L 371.277031 72.751387 
L 372.627031 72.236954 
L 373.977031 70.94582 
L 375.327031 76.000468 
L 376.677031 78.104648 
L 378.027031 76.04201 
L 379.377031 83.235737 
L 380.727031 75.619236 
L 382.077031 71.676917 
L 383.427031 69.346546 
L 384.777031 82.648223 
L 386.127031 91.562012 
L 387.477031 95.220511 
L 388.827031 78.845918 
L 390.177031 79.532635 
L 391.527031 77.627334 
L 392.877031 85.120073 
L 395.577031 67.364663 
L 396.927031 78.879978 
L 398.277031 76.612347 
L 399.627031 66.161452 
L 400.977031 62.334003 
L 402.327031 62.011037 
L 403.677031 69.699572 
L 405.027031 75.781102 
L 406.377031 79.805126 
L 407.727031 74.492238 
L 409.077031 68.222647 
L 410.427031 70.679361 
L 411.777031 66.874464 
L 413.127031 68.986036 
L 414.477031 67.357978 
L 415.827031 85.439559 
L 417.177031 80.847947 
L 418.527031 75.185888 
L 419.877031 75.325331 
L 421.227031 74.839089 
L 422.577031 85.086481 
L 423.927031 86.70441 
L 425.277031 78.325018 
L 426.627031 74.379125 
L 427.977031 82.479031 
L 429.327031 82.536972 
L 430.677031 92.059844 
L 432.027031 90.716781 
L 433.377031 98.094201 
L 434.727031 86.530068 
L 436.077031 83.966135 
L 437.427031 74.383292 
L 438.777031 79.268337 
L 440.127031 82.708848 
L 441.477031 81.319084 
L 442.827031 76.996854 
L 444.177031 77.321992 
L 445.527031 81.696778 
L 446.877031 78.866661 
L 448.227031 82.262764 
L 449.577031 81.415019 
L 450.927031 87.459549 
L 452.277031 84.140435 
L 453.627031 77.033742 
L 454.977031 72.623251 
L 457.677031 96.439437 
L 459.027031 96.450759 
L 460.377031 88.975268 
L 461.727031 87.41624 
L 463.077031 92.658697 
L 464.427031 78.502158 
L 465.777031 68.642092 
L 467.127031 81.882924 
L 468.477031 86.90675 
L 469.827031 73.383742 
L 471.177031 65.935546 
L 472.527031 64.568166 
L 473.877031 73.586667 
L 475.227031 84.550315 
L 476.577031 83.239105 
L 477.927031 73.032638 
L 479.277031 74.444131 
L 480.627031 77.009857 
L 481.977031 70.96151 
L 483.327031 71.073905 
L 484.677031 76.916968 
L 486.027031 90.637364 
L 487.377031 89.795328 
L 488.727031 86.854489 
L 490.077031 88.072883 
L 491.427031 85.622663 
L 492.777031 93.843738 
L 494.127031 99.531342 
L 495.477031 81.87445 
L 496.827031 76.947229 
L 498.177031 83.580697 
L 499.527031 84.301398 
L 500.877031 91.281175 
L 502.227031 91.199118 
L 503.577031 96.596013 
L 504.927031 85.583707 
L 506.277031 80.992733 
L 507.627031 67.659284 
L 508.977031 71.349425 
L 510.327031 76.98717 
L 511.677031 82.074407 
L 513.027031 76.056422 
L 514.377031 75.112625 
L 515.727031 79.299846 
L 517.077031 77.359697 
L 518.427031 83.296496 
L 519.777031 83.07436 
L 522.477031 86.914642 
L 523.827031 83.341239 
L 525.177031 79.27871 
L 527.877031 102.693738 
L 529.227031 101.532493 
L 530.577031 87.314062 
L 531.927031 87.399778 
L 533.277031 86.877184 
L 534.627031 79.01287 
L 535.977031 74.395984 
L 537.327031 85.163146 
L 538.677031 85.992861 
L 540.027031 74.824783 
L 542.727031 69.13489 
L 546.777031 90.656243 
L 548.127031 79.956499 
L 549.477031 81.642607 
L 550.827031 80.45395 
L 552.177031 74.476297 
L 553.527031 78.062492 
L 554.877031 77.313744 
L 556.227031 85.802561 
L 557.577031 88.904959 
L 558.927031 84.463574 
L 560.277031 85.487197 
L 561.627031 81.965867 
L 562.977031 91.740492 
L 564.327031 94.569062 
L 565.677031 80.741924 
L 567.027031 79.394719 
L 568.377031 85.034386 
L 569.727031 83.710688 
L 571.077031 90.584268 
L 572.427031 90.274133 
L 573.777031 94.024133 
L 575.127031 85.069595 
L 576.477031 77.413993 
L 577.827031 68.872482 
L 579.177031 73.436934 
L 580.527031 79.675187 
L 581.877031 80.722488 
L 584.577031 74.274355 
L 585.927031 77.545243 
L 587.277031 82.132358 
L 588.627031 86.108085 
L 589.977031 87.06556 
L 591.327031 91.329933 
L 592.677031 87.046132 
L 594.027031 81.265944 
L 595.377031 74.315164 
L 596.727031 87.106695 
L 598.077031 98.177515 
L 599.427031 99.341658 
L 600.777031 87.070534 
L 602.127031 87.116381 
L 603.477031 84.481049 
L 604.827031 76.482526 
L 606.177031 72.930153 
L 607.527031 82.877138 
L 608.877031 86.815213 
L 610.227031 79.082803 
L 611.577031 74.71174 
L 612.927031 67.90331 
L 615.627031 91.474912 
L 616.977031 97.248691 
L 618.327031 84.586794 
L 619.677031 90.355883 
L 621.027031 89.651924 
L 622.377031 86.891314 
L 623.727031 89.382377 
L 625.077031 88.014645 
L 626.427031 96.214735 
L 627.777031 98.085347 
L 629.127031 92.16179 
L 630.477031 92.173087 
L 631.827031 93.034342 
L 633.177031 101.237439 
L 634.527031 102.521885 
L 635.877031 90.376293 
L 637.227031 91.179638 
L 638.577031 94.764275 
L 639.927031 93.432856 
L 641.277031 98.107113 
L 642.627031 97.246433 
L 643.977031 103.522776 
L 645.327031 95.789611 
L 646.677031 87.383677 
L 648.027031 83.050783 
L 649.377031 85.626431 
L 650.727031 90.119933 
L 652.077031 90.451566 
L 653.427031 87.954465 
L 654.777031 87.133274 
L 656.127031 89.744717 
L 657.477031 90.036924 
L 658.827031 93.025058 
L 660.177031 98.464726 
L 661.527031 99.260827 
L 662.877031 101.152445 
L 664.227031 90.994384 
L 665.577031 93.625505 
L 666.927031 96.87942 
L 668.277031 104.661553 
L 669.627031 110.943455 
L 670.977031 97.609544 
L 672.327031 101.7158 
L 673.677031 96.885557 
L 675.027031 89.706872 
L 676.377031 88.286461 
L 677.727031 95.734624 
L 679.077031 99.678464 
L 680.427031 90.639126 
L 681.777031 86.225488 
L 683.127031 76.998386 
L 684.477031 87.350224 
L 685.827031 120.897985 
L 687.177031 128.590438 
L 688.527031 114.785467 
L 689.877031 132.711107 
L 691.227031 135.933362 
L 692.577031 130.871974 
L 693.927031 133.391499 
L 695.277031 133.774194 
L 696.627031 138.483351 
L 697.977031 137.225435 
L 699.327031 140.499949 
L 700.677031 144.304557 
L 702.027031 152.634568 
L 703.377031 153.889911 
L 704.727031 154.068823 
L 706.077031 152.939599 
L 707.427031 148.484948 
L 708.777031 151.13657 
L 710.127031 154.203254 
L 711.477031 160.339179 
L 712.827031 160.968951 
L 714.177031 161.346844 
L 716.877031 139.538745 
L 718.227031 142.749967 
L 719.577031 143.447344 
L 720.927031 153.764611 
L 722.277031 153.755562 
L 723.627031 147.336097 
L 724.977031 147.046963 
L 726.327031 151.327989 
L 727.677031 145.751751 
L 729.027031 151.313849 
L 730.377031 149.270349 
L 731.727031 148.782646 
L 733.077031 149.184041 
L 734.427031 143.492742 
L 735.777031 147.145014 
L 737.127031 154.286631 
L 738.477031 157.624017 
L 739.827031 154.205887 
L 741.177031 151.653839 
L 742.527031 151.814227 
L 743.877031 150.255529 
L 745.227031 148.972822 
L 746.577031 147.084499 
L 747.927031 144.456695 
L 749.277031 149.644791 
L 750.627031 144.95987 
L 751.977031 147.337285 
L 753.327031 142.726541 
L 754.677031 132.630514 
L 756.027031 136.351365 
L 757.377031 147.339856 
L 758.727031 146.992066 
L 760.077031 140.496507 
L 761.427031 146.873992 
L 762.777031 145.340494 
L 764.127031 139.424662 
L 765.477031 142.459414 
L 766.827031 140.162429 
L 768.177031 144.720762 
L 769.527031 142.824119 
L 770.877031 144.161879 
L 772.227031 140.902168 
L 773.577031 139.849523 
L 774.927031 142.373991 
L 776.277031 143.138493 
L 777.627031 141.632898 
L 778.977031 136.067375 
L 780.327031 137.431537 
L 781.677031 141.84382 
L 783.027031 148.358817 
L 784.377031 148.481119 
L 785.727031 149.691251 
L 787.077031 138.593733 
L 788.427031 129.882622 
L 789.777031 128.993831 
L 791.127031 128.654886 
L 792.477031 137.410346 
L 793.827031 137.338248 
L 795.177031 133.667346 
L 796.527031 130.44312 
L 797.877031 135.758964 
L 799.227031 129.719859 
L 800.577031 132.546323 
L 801.927031 131.00031 
L 803.277031 133.832761 
L 804.627031 129.771113 
L 805.977031 130.082944 
L 807.327031 122.195697 
L 808.677031 134.653413 
L 810.027031 144.759665 
L 811.377031 142.282828 
L 812.727031 140.647284 
L 815.427031 136.839666 
L 816.777031 133.597657 
L 818.127031 130.973651 
L 819.477031 132.465123 
L 820.827031 139.227699 
L 822.177031 128.548339 
L 823.527031 125.569887 
L 824.877031 116.61321 
L 826.227031 124.563476 
L 827.577031 135.277561 
L 828.927031 132.493718 
L 830.277031 125.567058 
L 831.627031 131.992125 
L 832.977031 130.32176 
L 834.327031 124.120037 
L 835.677031 125.192096 
L 837.027031 124.096172 
L 838.377031 129.475663 
L 839.727031 126.940412 
L 841.077031 128.828919 
L 842.427031 126.815711 
L 843.777031 124.315115 
L 845.127031 129.655201 
L 846.477031 132.855998 
L 849.177031 128.422041 
L 850.527031 129.149236 
L 851.877031 133.193417 
L 853.227031 139.602116 
L 854.577031 140.166619 
L 855.927031 142.327777 
L 857.277031 131.794209 
L 858.627031 124.08328 
L 859.977031 123.39855 
L 861.327031 122.464044 
L 862.677031 133.627171 
L 864.027031 134.702751 
L 865.377031 129.259951 
L 866.727031 124.901316 
L 868.077031 130.596867 
L 869.427031 122.805078 
L 870.777031 126.999639 
L 872.127031 127.516674 
L 873.477031 129.553696 
L 874.827031 162.319968 
L 874.827031 162.319968 
" clip-path="url(#p402e3a3ec1)" style="fill: none; stroke: #ff0000; stroke-opacity: 0.125; stroke-width: 1.5; stroke-linecap: round"/>
   </g>
   <g id="patch_5">
    <path d="M 37.827031 188.255625 
L 37.827031 21.935625 
" style="fill: none; stroke: #262626; stroke-width: 1.25; stroke-linejoin: miter; stroke-linecap: square"/>
   </g>
   <g id="patch_6">
    <path d="M 874.827031 188.255625 
L 874.827031 21.935625 
" style="fill: none; stroke: #262626; stroke-width: 1.25; stroke-linejoin: miter; stroke-linecap: square"/>
   </g>
   <g id="patch_7">
    <path d="M 37.827031 188.255625 
L 874.827031 188.255625 
" style="fill: none; stroke: #262626; stroke-width: 1.25; stroke-linejoin: miter; stroke-linecap: square"/>
   </g>
   <g id="patch_8">
    <path d="M 37.827031 21.935625 
L 874.827031 21.935625 
" style="fill: none; stroke: #262626; stroke-width: 1.25; stroke-linejoin: miter; stroke-linecap: square"/>
   </g>
   <g id="text_13">
    <!-- Daily taxi demand in thousands of trips -->
    <g style="fill: #262626" transform="translate(353.278906 15.935625) scale(0.12 -0.12)">
     <defs>
      <path id="ArialMT-6c" d="M 409 0 
L 409 4581 
L 972 4581 
L 972 0 
L 409 0 
z
" transform="scale(0.015625)"/>
      <path id="ArialMT-79" d="M 397 -1278 
L 334 -750 
Q 519 -800 656 -800 
Q 844 -800 956 -737 
Q 1069 -675 1141 -563 
Q 1194 -478 1313 -144 
Q 1328 -97 1363 -6 
L 103 3319 
L 709 3319 
L 1400 1397 
Q 1534 1031 1641 628 
Q 1738 1016 1872 1384 
L 2581 3319 
L 3144 3319 
L 1881 -56 
Q 1678 -603 1566 -809 
Q 1416 -1088 1222 -1217 
Q 1028 -1347 759 -1347 
Q 597 -1347 397 -1278 
z
" transform="scale(0.015625)"/>
      <path id="ArialMT-78" d="M 47 0 
L 1259 1725 
L 138 3319 
L 841 3319 
L 1350 2541 
Q 1494 2319 1581 2169 
Q 1719 2375 1834 2534 
L 2394 3319 
L 3066 3319 
L 1919 1756 
L 3153 0 
L 2463 0 
L 1781 1031 
L 1600 1309 
L 728 0 
L 47 0 
z
" transform="scale(0.015625)"/>
      <path id="ArialMT-68" d="M 422 0 
L 422 4581 
L 984 4581 
L 984 2938 
Q 1378 3394 1978 3394 
Q 2347 3394 2619 3248 
Q 2891 3103 3008 2847 
Q 3125 2591 3125 2103 
L 3125 0 
L 2563 0 
L 2563 2103 
Q 2563 2525 2380 2717 
Q 2197 2909 1863 2909 
Q 1613 2909 1392 2779 
Q 1172 2650 1078 2428 
Q 984 2206 984 1816 
L 984 0 
L 422 0 
z
" transform="scale(0.015625)"/>
      <path id="ArialMT-6f" d="M 213 1659 
Q 213 2581 725 3025 
Q 1153 3394 1769 3394 
Q 2453 3394 2887 2945 
Q 3322 2497 3322 1706 
Q 3322 1066 3130 698 
Q 2938 331 2570 128 
Q 2203 -75 1769 -75 
Q 1072 -75 642 372 
Q 213 819 213 1659 
z
M 791 1659 
Q 791 1022 1069 705 
Q 1347 388 1769 388 
Q 2188 388 2466 706 
Q 2744 1025 2744 1678 
Q 2744 2294 2464 2611 
Q 2184 2928 1769 2928 
Q 1347 2928 1069 2612 
Q 791 2297 791 1659 
z
" transform="scale(0.015625)"/>
      <path id="ArialMT-75" d="M 2597 0 
L 2597 488 
Q 2209 -75 1544 -75 
Q 1250 -75 995 37 
Q 741 150 617 320 
Q 494 491 444 738 
Q 409 903 409 1263 
L 409 3319 
L 972 3319 
L 972 1478 
Q 972 1038 1006 884 
Q 1059 663 1231 536 
Q 1403 409 1656 409 
Q 1909 409 2131 539 
Q 2353 669 2445 892 
Q 2538 1116 2538 1541 
L 2538 3319 
L 3100 3319 
L 3100 0 
L 2597 0 
z
" transform="scale(0.015625)"/>
      <path id="ArialMT-66" d="M 556 0 
L 556 2881 
L 59 2881 
L 59 3319 
L 556 3319 
L 556 3672 
Q 556 4006 616 4169 
Q 697 4388 901 4523 
Q 1106 4659 1475 4659 
Q 1713 4659 2000 4603 
L 1916 4113 
Q 1741 4144 1584 4144 
Q 1328 4144 1222 4034 
Q 1116 3925 1116 3625 
L 1116 3319 
L 1763 3319 
L 1763 2881 
L 1116 2881 
L 1116 0 
L 556 0 
z
" transform="scale(0.015625)"/>
     </defs>
     <use xlink:href="#ArialMT-44"/>
     <use xlink:href="#ArialMT-61" x="72.216797"/>
     <use xlink:href="#ArialMT-69" x="127.832031"/>
     <use xlink:href="#ArialMT-6c" x="150.048828"/>
     <use xlink:href="#ArialMT-79" x="172.265625"/>
     <use xlink:href="#ArialMT-20" x="222.265625"/>
     <use xlink:href="#ArialMT-74" x="250.048828"/>
     <use xlink:href="#ArialMT-61" x="277.832031"/>
     <use xlink:href="#ArialMT-78" x="333.447266"/>
     <use xlink:href="#ArialMT-69" x="383.447266"/>
     <use xlink:href="#ArialMT-20" x="405.664062"/>
     <use xlink:href="#ArialMT-64" x="433.447266"/>
     <use xlink:href="#ArialMT-65" x="489.0625"/>
     <use xlink:href="#ArialMT-6d" x="544.677734"/>
     <use xlink:href="#ArialMT-61" x="627.978516"/>
     <use xlink:href="#ArialMT-6e" x="683.59375"/>
     <use xlink:href="#ArialMT-64" x="739.208984"/>
     <use xlink:href="#ArialMT-20" x="794.824219"/>
     <use xlink:href="#ArialMT-69" x="822.607422"/>
     <use xlink:href="#ArialMT-6e" x="844.824219"/>
     <use xlink:href="#ArialMT-20" x="900.439453"/>
     <use xlink:href="#ArialMT-74" x="928.222656"/>
     <use xlink:href="#ArialMT-68" x="956.005859"/>
     <use xlink:href="#ArialMT-6f" x="1011.621094"/>
     <use xlink:href="#ArialMT-75" x="1067.236328"/>
     <use xlink:href="#ArialMT-73" x="1122.851562"/>
     <use xlink:href="#ArialMT-61" x="1172.851562"/>
     <use xlink:href="#ArialMT-6e" x="1228.466797"/>
     <use xlink:href="#ArialMT-64" x="1284.082031"/>
     <use xlink:href="#ArialMT-73" x="1339.697266"/>
     <use xlink:href="#ArialMT-20" x="1389.697266"/>
     <use xlink:href="#ArialMT-6f" x="1417.480469"/>
     <use xlink:href="#ArialMT-66" x="1473.095703"/>
     <use xlink:href="#ArialMT-20" x="1500.878906"/>
     <use xlink:href="#ArialMT-74" x="1528.662109"/>
     <use xlink:href="#ArialMT-72" x="1556.445312"/>
     <use xlink:href="#ArialMT-69" x="1589.746094"/>
     <use xlink:href="#ArialMT-70" x="1611.962891"/>
     <use xlink:href="#ArialMT-73" x="1667.578125"/>
    </g>
   </g>
   <g id="legend_1">
    <g id="patch_9">
     <path d="M 740.814375 92.975 
L 867.127031 92.975 
Q 869.327031 92.975 869.327031 90.775 
L 869.327031 29.635625 
Q 869.327031 27.435625 867.127031 27.435625 
L 740.814375 27.435625 
Q 738.614375 27.435625 738.614375 29.635625 
L 738.614375 90.775 
Q 738.614375 92.975 740.814375 92.975 
z
" style="fill: #ffffff; opacity: 0.8; stroke: #cccccc; stroke-linejoin: miter"/>
    </g>
    <g id="line2d_5">
     <path d="M 743.014375 35.859219 
L 754.014375 35.859219 
L 765.014375 35.859219 
" style="fill: none; stroke: #0000ff; stroke-width: 1.5; stroke-linecap: round"/>
    </g>
    <g id="text_14">
     <!-- demand -->
     <g style="fill: #262626" transform="translate(773.814375 39.709219) scale(0.11 -0.11)">
      <use xlink:href="#ArialMT-64"/>
      <use xlink:href="#ArialMT-65" x="55.615234"/>
      <use xlink:href="#ArialMT-6d" x="111.230469"/>
      <use xlink:href="#ArialMT-61" x="194.53125"/>
      <use xlink:href="#ArialMT-6e" x="250.146484"/>
      <use xlink:href="#ArialMT-64" x="305.761719"/>
     </g>
    </g>
    <g id="line2d_6">
     <path d="M 743.014375 51.419062 
L 754.014375 51.419062 
L 765.014375 51.419062 
" style="fill: none; stroke: #ff0000; stroke-width: 1.5; stroke-linecap: round"/>
    </g>
    <g id="text_15">
     <!-- predicted_demand -->
     <g style="fill: #262626" transform="translate(773.814375 55.269062) scale(0.11 -0.11)">
      <defs>
       <path id="ArialMT-63" d="M 2588 1216 
L 3141 1144 
Q 3050 572 2676 248 
Q 2303 -75 1759 -75 
Q 1078 -75 664 370 
Q 250 816 250 1647 
Q 250 2184 428 2587 
Q 606 2991 970 3192 
Q 1334 3394 1763 3394 
Q 2303 3394 2647 3120 
Q 2991 2847 3088 2344 
L 2541 2259 
Q 2463 2594 2264 2762 
Q 2066 2931 1784 2931 
Q 1359 2931 1093 2626 
Q 828 2322 828 1663 
Q 828 994 1084 691 
Q 1341 388 1753 388 
Q 2084 388 2306 591 
Q 2528 794 2588 1216 
z
" transform="scale(0.015625)"/>
       <path id="ArialMT-5f" d="M -97 -1272 
L -97 -866 
L 3631 -866 
L 3631 -1272 
L -97 -1272 
z
" transform="scale(0.015625)"/>
      </defs>
      <use xlink:href="#ArialMT-70"/>
      <use xlink:href="#ArialMT-72" x="55.615234"/>
      <use xlink:href="#ArialMT-65" x="88.916016"/>
      <use xlink:href="#ArialMT-64" x="144.53125"/>
      <use xlink:href="#ArialMT-69" x="200.146484"/>
      <use xlink:href="#ArialMT-63" x="222.363281"/>
      <use xlink:href="#ArialMT-74" x="272.363281"/>
      <use xlink:href="#ArialMT-65" x="300.146484"/>
      <use xlink:href="#ArialMT-64" x="355.761719"/>
      <use xlink:href="#ArialMT-5f" x="411.376953"/>
      <use xlink:href="#ArialMT-64" x="466.992188"/>
      <use xlink:href="#ArialMT-65" x="522.607422"/>
      <use xlink:href="#ArialMT-6d" x="578.222656"/>
      <use xlink:href="#ArialMT-61" x="661.523438"/>
      <use xlink:href="#ArialMT-6e" x="717.138672"/>
      <use xlink:href="#ArialMT-64" x="772.753906"/>
     </g>
    </g>
    <g id="patch_10">
     <path d="M 743.014375 70.828906 
L 765.014375 70.828906 
L 765.014375 63.128906 
L 743.014375 63.128906 
z
" style="fill: #44af69; opacity: 0.25; stroke: #44af69; stroke-linejoin: miter"/>
    </g>
    <g id="text_16">
     <!-- Train -->
     <g style="fill: #262626" transform="translate(773.814375 70.828906) scale(0.11 -0.11)">
      <defs>
       <path id="ArialMT-54" d="M 1659 0 
L 1659 4041 
L 150 4041 
L 150 4581 
L 3781 4581 
L 3781 4041 
L 2266 4041 
L 2266 0 
L 1659 0 
z
" transform="scale(0.015625)"/>
      </defs>
      <use xlink:href="#ArialMT-54"/>
      <use xlink:href="#ArialMT-72" x="57.333984"/>
      <use xlink:href="#ArialMT-61" x="90.634766"/>
      <use xlink:href="#ArialMT-69" x="146.25"/>
      <use xlink:href="#ArialMT-6e" x="168.466797"/>
     </g>
    </g>
    <g id="patch_11">
     <path d="M 743.014375 86.38875 
L 765.014375 86.38875 
L 765.014375 78.68875 
L 743.014375 78.68875 
z
" style="fill: #f2dc5d; opacity: 0.125; stroke: #f2dc5d; stroke-linejoin: miter"/>
    </g>
    <g id="text_17">
     <!-- Test -->
     <g style="fill: #262626" transform="translate(773.814375 86.38875) scale(0.11 -0.11)">
      <use xlink:href="#ArialMT-54"/>
      <use xlink:href="#ArialMT-65" x="49.958984"/>
      <use xlink:href="#ArialMT-73" x="105.574219"/>
      <use xlink:href="#ArialMT-74" x="155.574219"/>
     </g>
    </g>
   </g>
  </g>
 </g>
 <defs>
  <clipPath id="p402e3a3ec1">
   <rect x="37.827031" y="21.935625" width="837" height="166.32"/>
  </clipPath>
 </defs>
</svg>
