<?xml version="1.0" encoding="utf-8" standalone="no"?>
<!DOCTYPE svg PUBLIC "-//W3C//DTD SVG 1.1//EN"
  "http://www.w3.org/Graphics/SVG/1.1/DTD/svg11.dtd">
<svg xmlns:xlink="http://www.w3.org/1999/xlink" width="895.675097pt" height="285.570469pt" viewBox="0 0 895.675097 285.570469" xmlns="http://www.w3.org/2000/svg" version="1.1">
 <metadata>
  <rdf:RDF xmlns:dc="http://purl.org/dc/elements/1.1/" xmlns:cc="http://creativecommons.org/ns#" xmlns:rdf="http://www.w3.org/1999/02/22-rdf-syntax-ns#">
   <cc:Work>
    <dc:type rdf:resource="http://purl.org/dc/dcmitype/StillImage"/>
    <dc:date>2023-08-13T00:18:53.488475</dc:date>
    <dc:format>image/svg+xml</dc:format>
    <dc:creator>
     <cc:Agent>
      <dc:title>Matplotlib v3.7.1, https://matplotlib.org/</dc:title>
     </cc:Agent>
    </dc:creator>
   </cc:Work>
  </rdf:RDF>
 </metadata>
 <defs>
  <style type="text/css">*{stroke-linejoin: round; stroke-linecap: butt}</style>
 </defs>
 <g id="figure_1">
  <g id="patch_1">
   <path d="M 0 285.570469 
L 895.675097 285.570469 
L 895.675097 0 
L 0 0 
z
" style="fill: #ffffff"/>
  </g>
  <g id="axes_1">
   <g id="patch_2">
    <path d="M 50.061094 243.695625 
L 582.697457 243.695625 
L 582.697457 21.935625 
L 50.061094 21.935625 
z
" style="fill: #ffffff"/>
   </g>
   <g id="matplotlib.axis_1">
    <g id="xtick_1">
     <g id="text_1">
      <!-- 2011-01 -->
      <g style="fill: #262626" transform="translate(39.596121 261.069219) scale(0.11 -0.11)">
       <defs>
        <path id="ArialMT-32" d="M 3222 541 
L 3222 0 
L 194 0 
Q 188 203 259 391 
Q 375 700 629 1000 
Q 884 1300 1366 1694 
Q 2113 2306 2375 2664 
Q 2638 3022 2638 3341 
Q 2638 3675 2398 3904 
Q 2159 4134 1775 4134 
Q 1369 4134 1125 3890 
Q 881 3647 878 3216 
L 300 3275 
Q 359 3922 746 4261 
Q 1134 4600 1788 4600 
Q 2447 4600 2831 4234 
Q 3216 3869 3216 3328 
Q 3216 3053 3103 2787 
Q 2991 2522 2730 2228 
Q 2469 1934 1863 1422 
Q 1356 997 1212 845 
Q 1069 694 975 541 
L 3222 541 
z
" transform="scale(0.015625)"/>
        <path id="ArialMT-30" d="M 266 2259 
Q 266 3072 433 3567 
Q 600 4063 929 4331 
Q 1259 4600 1759 4600 
Q 2128 4600 2406 4451 
Q 2684 4303 2865 4023 
Q 3047 3744 3150 3342 
Q 3253 2941 3253 2259 
Q 3253 1453 3087 958 
Q 2922 463 2592 192 
Q 2263 -78 1759 -78 
Q 1097 -78 719 397 
Q 266 969 266 2259 
z
M 844 2259 
Q 844 1131 1108 757 
Q 1372 384 1759 384 
Q 2147 384 2411 759 
Q 2675 1134 2675 2259 
Q 2675 3391 2411 3762 
Q 2147 4134 1753 4134 
Q 1366 4134 1134 3806 
Q 844 3388 844 2259 
z
" transform="scale(0.015625)"/>
        <path id="ArialMT-31" d="M 2384 0 
L 1822 0 
L 1822 3584 
Q 1619 3391 1289 3197 
Q 959 3003 697 2906 
L 697 3450 
Q 1169 3672 1522 3987 
Q 1875 4303 2022 4600 
L 2384 4600 
L 2384 0 
z
" transform="scale(0.015625)"/>
        <path id="ArialMT-2d" d="M 203 1375 
L 203 1941 
L 1931 1941 
L 1931 1375 
L 203 1375 
z
" transform="scale(0.015625)"/>
       </defs>
       <use xlink:href="#ArialMT-32"/>
       <use xlink:href="#ArialMT-30" x="55.615234"/>
       <use xlink:href="#ArialMT-31" x="111.230469"/>
       <use xlink:href="#ArialMT-31" x="159.470703"/>
       <use xlink:href="#ArialMT-2d" x="215.085938"/>
       <use xlink:href="#ArialMT-30" x="248.386719"/>
       <use xlink:href="#ArialMT-31" x="304.001953"/>
      </g>
     </g>
    </g>
    <g id="xtick_2">
     <g id="text_2">
      <!-- 2011-03 -->
      <g style="fill: #262626" transform="translate(102.384424 261.069219) scale(0.11 -0.11)">
       <defs>
        <path id="ArialMT-33" d="M 269 1209 
L 831 1284 
Q 928 806 1161 595 
Q 1394 384 1728 384 
Q 2125 384 2398 659 
Q 2672 934 2672 1341 
Q 2672 1728 2419 1979 
Q 2166 2231 1775 2231 
Q 1616 2231 1378 2169 
L 1441 2663 
Q 1497 2656 1531 2656 
Q 1891 2656 2178 2843 
Q 2466 3031 2466 3422 
Q 2466 3731 2256 3934 
Q 2047 4138 1716 4138 
Q 1388 4138 1169 3931 
Q 950 3725 888 3313 
L 325 3413 
Q 428 3978 793 4289 
Q 1159 4600 1703 4600 
Q 2078 4600 2393 4439 
Q 2709 4278 2876 4000 
Q 3044 3722 3044 3409 
Q 3044 3113 2884 2869 
Q 2725 2625 2413 2481 
Q 2819 2388 3044 2092 
Q 3269 1797 3269 1353 
Q 3269 753 2831 336 
Q 2394 -81 1725 -81 
Q 1122 -81 723 278 
Q 325 638 269 1209 
z
" transform="scale(0.015625)"/>
       </defs>
       <use xlink:href="#ArialMT-32"/>
       <use xlink:href="#ArialMT-30" x="55.615234"/>
       <use xlink:href="#ArialMT-31" x="111.230469"/>
       <use xlink:href="#ArialMT-31" x="159.470703"/>
       <use xlink:href="#ArialMT-2d" x="215.085938"/>
       <use xlink:href="#ArialMT-30" x="248.386719"/>
       <use xlink:href="#ArialMT-33" x="304.001953"/>
      </g>
     </g>
    </g>
    <g id="xtick_3">
     <g id="text_3">
      <!-- 2011-05 -->
      <g style="fill: #262626" transform="translate(167.301144 261.069219) scale(0.11 -0.11)">
       <defs>
        <path id="ArialMT-35" d="M 266 1200 
L 856 1250 
Q 922 819 1161 601 
Q 1400 384 1738 384 
Q 2144 384 2425 690 
Q 2706 997 2706 1503 
Q 2706 1984 2436 2262 
Q 2166 2541 1728 2541 
Q 1456 2541 1237 2417 
Q 1019 2294 894 2097 
L 366 2166 
L 809 4519 
L 3088 4519 
L 3088 3981 
L 1259 3981 
L 1013 2750 
Q 1425 3038 1878 3038 
Q 2478 3038 2890 2622 
Q 3303 2206 3303 1553 
Q 3303 931 2941 478 
Q 2500 -78 1738 -78 
Q 1113 -78 717 272 
Q 322 622 266 1200 
z
" transform="scale(0.015625)"/>
       </defs>
       <use xlink:href="#ArialMT-32"/>
       <use xlink:href="#ArialMT-30" x="55.615234"/>
       <use xlink:href="#ArialMT-31" x="111.230469"/>
       <use xlink:href="#ArialMT-31" x="159.470703"/>
       <use xlink:href="#ArialMT-2d" x="215.085938"/>
       <use xlink:href="#ArialMT-30" x="248.386719"/>
       <use xlink:href="#ArialMT-35" x="304.001953"/>
      </g>
     </g>
    </g>
    <g id="xtick_4">
     <g id="text_4">
      <!-- 2011-07 -->
      <g style="fill: #262626" transform="translate(232.217863 261.069219) scale(0.11 -0.11)">
       <defs>
        <path id="ArialMT-37" d="M 303 3981 
L 303 4522 
L 3269 4522 
L 3269 4084 
Q 2831 3619 2401 2847 
Q 1972 2075 1738 1259 
Q 1569 684 1522 0 
L 944 0 
Q 953 541 1156 1306 
Q 1359 2072 1739 2783 
Q 2119 3494 2547 3981 
L 303 3981 
z
" transform="scale(0.015625)"/>
       </defs>
       <use xlink:href="#ArialMT-32"/>
       <use xlink:href="#ArialMT-30" x="55.615234"/>
       <use xlink:href="#ArialMT-31" x="111.230469"/>
       <use xlink:href="#ArialMT-31" x="159.470703"/>
       <use xlink:href="#ArialMT-2d" x="215.085938"/>
       <use xlink:href="#ArialMT-30" x="248.386719"/>
       <use xlink:href="#ArialMT-37" x="304.001953"/>
      </g>
     </g>
    </g>
    <g id="xtick_5">
     <g id="text_5">
      <!-- 2011-09 -->
      <g style="fill: #262626" transform="translate(298.198791 261.069219) scale(0.11 -0.11)">
       <defs>
        <path id="ArialMT-39" d="M 350 1059 
L 891 1109 
Q 959 728 1153 556 
Q 1347 384 1650 384 
Q 1909 384 2104 503 
Q 2300 622 2425 820 
Q 2550 1019 2634 1356 
Q 2719 1694 2719 2044 
Q 2719 2081 2716 2156 
Q 2547 1888 2255 1720 
Q 1963 1553 1622 1553 
Q 1053 1553 659 1965 
Q 266 2378 266 3053 
Q 266 3750 677 4175 
Q 1088 4600 1706 4600 
Q 2153 4600 2523 4359 
Q 2894 4119 3086 3673 
Q 3278 3228 3278 2384 
Q 3278 1506 3087 986 
Q 2897 466 2520 194 
Q 2144 -78 1638 -78 
Q 1100 -78 759 220 
Q 419 519 350 1059 
z
M 2653 3081 
Q 2653 3566 2395 3850 
Q 2138 4134 1775 4134 
Q 1400 4134 1122 3828 
Q 844 3522 844 3034 
Q 844 2597 1108 2323 
Q 1372 2050 1759 2050 
Q 2150 2050 2401 2323 
Q 2653 2597 2653 3081 
z
" transform="scale(0.015625)"/>
       </defs>
       <use xlink:href="#ArialMT-32"/>
       <use xlink:href="#ArialMT-30" x="55.615234"/>
       <use xlink:href="#ArialMT-31" x="111.230469"/>
       <use xlink:href="#ArialMT-31" x="159.470703"/>
       <use xlink:href="#ArialMT-2d" x="215.085938"/>
       <use xlink:href="#ArialMT-30" x="248.386719"/>
       <use xlink:href="#ArialMT-39" x="304.001953"/>
      </g>
     </g>
    </g>
    <g id="xtick_6">
     <g id="text_6">
      <!-- 2011-11 -->
      <g style="fill: #262626" transform="translate(363.521136 261.069219) scale(0.11 -0.11)">
       <use xlink:href="#ArialMT-32"/>
       <use xlink:href="#ArialMT-30" x="55.615234"/>
       <use xlink:href="#ArialMT-31" x="111.230469"/>
       <use xlink:href="#ArialMT-31" x="159.470703"/>
       <use xlink:href="#ArialMT-2d" x="215.085938"/>
       <use xlink:href="#ArialMT-31" x="248.386719"/>
       <use xlink:href="#ArialMT-31" x="296.626953"/>
      </g>
     </g>
    </g>
    <g id="xtick_7">
     <g id="text_7">
      <!-- 2012-01 -->
      <g style="fill: #262626" transform="translate(427.626606 261.069219) scale(0.11 -0.11)">
       <use xlink:href="#ArialMT-32"/>
       <use xlink:href="#ArialMT-30" x="55.615234"/>
       <use xlink:href="#ArialMT-31" x="111.230469"/>
       <use xlink:href="#ArialMT-32" x="166.845703"/>
       <use xlink:href="#ArialMT-2d" x="222.460938"/>
       <use xlink:href="#ArialMT-30" x="255.761719"/>
       <use xlink:href="#ArialMT-31" x="311.376953"/>
      </g>
     </g>
    </g>
    <g id="xtick_8">
     <g id="text_8">
      <!-- 2012-03 -->
      <g style="fill: #262626" transform="translate(491.479117 261.069219) scale(0.11 -0.11)">
       <use xlink:href="#ArialMT-32"/>
       <use xlink:href="#ArialMT-30" x="55.615234"/>
       <use xlink:href="#ArialMT-31" x="111.230469"/>
       <use xlink:href="#ArialMT-32" x="166.845703"/>
       <use xlink:href="#ArialMT-2d" x="222.460938"/>
       <use xlink:href="#ArialMT-30" x="255.761719"/>
       <use xlink:href="#ArialMT-33" x="311.376953"/>
      </g>
     </g>
    </g>
    <g id="xtick_9">
     <g id="text_9">
      <!-- 2012-05 -->
      <g style="fill: #262626" transform="translate(556.395837 261.069219) scale(0.11 -0.11)">
       <use xlink:href="#ArialMT-32"/>
       <use xlink:href="#ArialMT-30" x="55.615234"/>
       <use xlink:href="#ArialMT-31" x="111.230469"/>
       <use xlink:href="#ArialMT-32" x="166.845703"/>
       <use xlink:href="#ArialMT-2d" x="222.460938"/>
       <use xlink:href="#ArialMT-30" x="255.761719"/>
       <use xlink:href="#ArialMT-35" x="311.376953"/>
      </g>
     </g>
    </g>
    <g id="text_10">
     <!-- Day -->
     <g style="fill: #262626" transform="translate(305.709588 275.844844) scale(0.12 -0.12)">
      <defs>
       <path id="ArialMT-44" d="M 494 0 
L 494 4581 
L 2072 4581 
Q 2606 4581 2888 4516 
Q 3281 4425 3559 4188 
Q 3922 3881 4101 3404 
Q 4281 2928 4281 2316 
Q 4281 1794 4159 1391 
Q 4038 988 3847 723 
Q 3656 459 3429 307 
Q 3203 156 2883 78 
Q 2563 0 2147 0 
L 494 0 
z
M 1100 541 
L 2078 541 
Q 2531 541 2789 625 
Q 3047 709 3200 863 
Q 3416 1078 3536 1442 
Q 3656 1806 3656 2325 
Q 3656 3044 3420 3430 
Q 3184 3816 2847 3947 
Q 2603 4041 2063 4041 
L 1100 4041 
L 1100 541 
z
" transform="scale(0.015625)"/>
       <path id="ArialMT-61" d="M 2588 409 
Q 2275 144 1986 34 
Q 1697 -75 1366 -75 
Q 819 -75 525 192 
Q 231 459 231 875 
Q 231 1119 342 1320 
Q 453 1522 633 1644 
Q 813 1766 1038 1828 
Q 1203 1872 1538 1913 
Q 2219 1994 2541 2106 
Q 2544 2222 2544 2253 
Q 2544 2597 2384 2738 
Q 2169 2928 1744 2928 
Q 1347 2928 1158 2789 
Q 969 2650 878 2297 
L 328 2372 
Q 403 2725 575 2942 
Q 747 3159 1072 3276 
Q 1397 3394 1825 3394 
Q 2250 3394 2515 3294 
Q 2781 3194 2906 3042 
Q 3031 2891 3081 2659 
Q 3109 2516 3109 2141 
L 3109 1391 
Q 3109 606 3145 398 
Q 3181 191 3288 0 
L 2700 0 
Q 2613 175 2588 409 
z
M 2541 1666 
Q 2234 1541 1622 1453 
Q 1275 1403 1131 1340 
Q 988 1278 909 1158 
Q 831 1038 831 891 
Q 831 666 1001 516 
Q 1172 366 1500 366 
Q 1825 366 2078 508 
Q 2331 650 2450 897 
Q 2541 1088 2541 1459 
L 2541 1666 
z
" transform="scale(0.015625)"/>
       <path id="ArialMT-79" d="M 397 -1278 
L 334 -750 
Q 519 -800 656 -800 
Q 844 -800 956 -737 
Q 1069 -675 1141 -563 
Q 1194 -478 1313 -144 
Q 1328 -97 1363 -6 
L 103 3319 
L 709 3319 
L 1400 1397 
Q 1534 1031 1641 628 
Q 1738 1016 1872 1384 
L 2581 3319 
L 3144 3319 
L 1881 -56 
Q 1678 -603 1566 -809 
Q 1416 -1088 1222 -1217 
Q 1028 -1347 759 -1347 
Q 597 -1347 397 -1278 
z
" transform="scale(0.015625)"/>
      </defs>
      <use xlink:href="#ArialMT-44"/>
      <use xlink:href="#ArialMT-61" x="72.216797"/>
      <use xlink:href="#ArialMT-79" x="127.832031"/>
     </g>
    </g>
   </g>
   <g id="matplotlib.axis_2">
    <g id="ytick_1">
     <g id="text_11">
      <!-- 100 -->
      <g style="fill: #262626" transform="translate(22.21 212.177768) scale(0.11 -0.11)">
       <use xlink:href="#ArialMT-31"/>
       <use xlink:href="#ArialMT-30" x="55.615234"/>
       <use xlink:href="#ArialMT-30" x="111.230469"/>
      </g>
     </g>
    </g>
    <g id="ytick_2">
     <g id="text_12">
      <!-- 200 -->
      <g style="fill: #262626" transform="translate(22.21 176.42472) scale(0.11 -0.11)">
       <use xlink:href="#ArialMT-32"/>
       <use xlink:href="#ArialMT-30" x="55.615234"/>
       <use xlink:href="#ArialMT-30" x="111.230469"/>
      </g>
     </g>
    </g>
    <g id="ytick_3">
     <g id="text_13">
      <!-- 300 -->
      <g style="fill: #262626" transform="translate(22.21 140.671671) scale(0.11 -0.11)">
       <use xlink:href="#ArialMT-33"/>
       <use xlink:href="#ArialMT-30" x="55.615234"/>
       <use xlink:href="#ArialMT-30" x="111.230469"/>
      </g>
     </g>
    </g>
    <g id="ytick_4">
     <g id="text_14">
      <!-- 400 -->
      <g style="fill: #262626" transform="translate(22.21 104.918622) scale(0.11 -0.11)">
       <defs>
        <path id="ArialMT-34" d="M 2069 0 
L 2069 1097 
L 81 1097 
L 81 1613 
L 2172 4581 
L 2631 4581 
L 2631 1613 
L 3250 1613 
L 3250 1097 
L 2631 1097 
L 2631 0 
L 2069 0 
z
M 2069 1613 
L 2069 3678 
L 634 1613 
L 2069 1613 
z
" transform="scale(0.015625)"/>
       </defs>
       <use xlink:href="#ArialMT-34"/>
       <use xlink:href="#ArialMT-30" x="55.615234"/>
       <use xlink:href="#ArialMT-30" x="111.230469"/>
      </g>
     </g>
    </g>
    <g id="ytick_5">
     <g id="text_15">
      <!-- 500 -->
      <g style="fill: #262626" transform="translate(22.21 69.165574) scale(0.11 -0.11)">
       <use xlink:href="#ArialMT-35"/>
       <use xlink:href="#ArialMT-30" x="55.615234"/>
       <use xlink:href="#ArialMT-30" x="111.230469"/>
      </g>
     </g>
    </g>
    <g id="ytick_6">
     <g id="text_16">
      <!-- 600 -->
      <g style="fill: #262626" transform="translate(22.21 33.412525) scale(0.11 -0.11)">
       <defs>
        <path id="ArialMT-36" d="M 3184 3459 
L 2625 3416 
Q 2550 3747 2413 3897 
Q 2184 4138 1850 4138 
Q 1581 4138 1378 3988 
Q 1113 3794 959 3422 
Q 806 3050 800 2363 
Q 1003 2672 1297 2822 
Q 1591 2972 1913 2972 
Q 2475 2972 2870 2558 
Q 3266 2144 3266 1488 
Q 3266 1056 3080 686 
Q 2894 316 2569 119 
Q 2244 -78 1831 -78 
Q 1128 -78 684 439 
Q 241 956 241 2144 
Q 241 3472 731 4075 
Q 1159 4600 1884 4600 
Q 2425 4600 2770 4297 
Q 3116 3994 3184 3459 
z
M 888 1484 
Q 888 1194 1011 928 
Q 1134 663 1356 523 
Q 1578 384 1822 384 
Q 2178 384 2434 671 
Q 2691 959 2691 1453 
Q 2691 1928 2437 2201 
Q 2184 2475 1800 2475 
Q 1419 2475 1153 2201 
Q 888 1928 888 1484 
z
" transform="scale(0.015625)"/>
       </defs>
       <use xlink:href="#ArialMT-36"/>
       <use xlink:href="#ArialMT-30" x="55.615234"/>
       <use xlink:href="#ArialMT-30" x="111.230469"/>
      </g>
     </g>
    </g>
    <g id="text_17">
     <!-- Demand [1e3 trips] -->
     <g style="fill: #262626" transform="translate(15.825 183.504375) rotate(-90) scale(0.12 -0.12)">
      <defs>
       <path id="ArialMT-65" d="M 2694 1069 
L 3275 997 
Q 3138 488 2766 206 
Q 2394 -75 1816 -75 
Q 1088 -75 661 373 
Q 234 822 234 1631 
Q 234 2469 665 2931 
Q 1097 3394 1784 3394 
Q 2450 3394 2872 2941 
Q 3294 2488 3294 1666 
Q 3294 1616 3291 1516 
L 816 1516 
Q 847 969 1125 678 
Q 1403 388 1819 388 
Q 2128 388 2347 550 
Q 2566 713 2694 1069 
z
M 847 1978 
L 2700 1978 
Q 2663 2397 2488 2606 
Q 2219 2931 1791 2931 
Q 1403 2931 1139 2672 
Q 875 2413 847 1978 
z
" transform="scale(0.015625)"/>
       <path id="ArialMT-6d" d="M 422 0 
L 422 3319 
L 925 3319 
L 925 2853 
Q 1081 3097 1340 3245 
Q 1600 3394 1931 3394 
Q 2300 3394 2536 3241 
Q 2772 3088 2869 2813 
Q 3263 3394 3894 3394 
Q 4388 3394 4653 3120 
Q 4919 2847 4919 2278 
L 4919 0 
L 4359 0 
L 4359 2091 
Q 4359 2428 4304 2576 
Q 4250 2725 4106 2815 
Q 3963 2906 3769 2906 
Q 3419 2906 3187 2673 
Q 2956 2441 2956 1928 
L 2956 0 
L 2394 0 
L 2394 2156 
Q 2394 2531 2256 2718 
Q 2119 2906 1806 2906 
Q 1569 2906 1367 2781 
Q 1166 2656 1075 2415 
Q 984 2175 984 1722 
L 984 0 
L 422 0 
z
" transform="scale(0.015625)"/>
       <path id="ArialMT-6e" d="M 422 0 
L 422 3319 
L 928 3319 
L 928 2847 
Q 1294 3394 1984 3394 
Q 2284 3394 2536 3286 
Q 2788 3178 2913 3003 
Q 3038 2828 3088 2588 
Q 3119 2431 3119 2041 
L 3119 0 
L 2556 0 
L 2556 2019 
Q 2556 2363 2490 2533 
Q 2425 2703 2258 2804 
Q 2091 2906 1866 2906 
Q 1506 2906 1245 2678 
Q 984 2450 984 1813 
L 984 0 
L 422 0 
z
" transform="scale(0.015625)"/>
       <path id="ArialMT-64" d="M 2575 0 
L 2575 419 
Q 2259 -75 1647 -75 
Q 1250 -75 917 144 
Q 584 363 401 755 
Q 219 1147 219 1656 
Q 219 2153 384 2558 
Q 550 2963 881 3178 
Q 1213 3394 1622 3394 
Q 1922 3394 2156 3267 
Q 2391 3141 2538 2938 
L 2538 4581 
L 3097 4581 
L 3097 0 
L 2575 0 
z
M 797 1656 
Q 797 1019 1065 703 
Q 1334 388 1700 388 
Q 2069 388 2326 689 
Q 2584 991 2584 1609 
Q 2584 2291 2321 2609 
Q 2059 2928 1675 2928 
Q 1300 2928 1048 2622 
Q 797 2316 797 1656 
z
" transform="scale(0.015625)"/>
       <path id="ArialMT-20" transform="scale(0.015625)"/>
       <path id="ArialMT-5b" d="M 434 -1272 
L 434 4581 
L 1675 4581 
L 1675 4116 
L 997 4116 
L 997 -806 
L 1675 -806 
L 1675 -1272 
L 434 -1272 
z
" transform="scale(0.015625)"/>
       <path id="ArialMT-74" d="M 1650 503 
L 1731 6 
Q 1494 -44 1306 -44 
Q 1000 -44 831 53 
Q 663 150 594 308 
Q 525 466 525 972 
L 525 2881 
L 113 2881 
L 113 3319 
L 525 3319 
L 525 4141 
L 1084 4478 
L 1084 3319 
L 1650 3319 
L 1650 2881 
L 1084 2881 
L 1084 941 
Q 1084 700 1114 631 
Q 1144 563 1211 522 
Q 1278 481 1403 481 
Q 1497 481 1650 503 
z
" transform="scale(0.015625)"/>
       <path id="ArialMT-72" d="M 416 0 
L 416 3319 
L 922 3319 
L 922 2816 
Q 1116 3169 1280 3281 
Q 1444 3394 1641 3394 
Q 1925 3394 2219 3213 
L 2025 2691 
Q 1819 2813 1613 2813 
Q 1428 2813 1281 2702 
Q 1134 2591 1072 2394 
Q 978 2094 978 1738 
L 978 0 
L 416 0 
z
" transform="scale(0.015625)"/>
       <path id="ArialMT-69" d="M 425 3934 
L 425 4581 
L 988 4581 
L 988 3934 
L 425 3934 
z
M 425 0 
L 425 3319 
L 988 3319 
L 988 0 
L 425 0 
z
" transform="scale(0.015625)"/>
       <path id="ArialMT-70" d="M 422 -1272 
L 422 3319 
L 934 3319 
L 934 2888 
Q 1116 3141 1344 3267 
Q 1572 3394 1897 3394 
Q 2322 3394 2647 3175 
Q 2972 2956 3137 2557 
Q 3303 2159 3303 1684 
Q 3303 1175 3120 767 
Q 2938 359 2589 142 
Q 2241 -75 1856 -75 
Q 1575 -75 1351 44 
Q 1128 163 984 344 
L 984 -1272 
L 422 -1272 
z
M 931 1641 
Q 931 1000 1190 694 
Q 1450 388 1819 388 
Q 2194 388 2461 705 
Q 2728 1022 2728 1688 
Q 2728 2322 2467 2637 
Q 2206 2953 1844 2953 
Q 1484 2953 1207 2617 
Q 931 2281 931 1641 
z
" transform="scale(0.015625)"/>
       <path id="ArialMT-73" d="M 197 991 
L 753 1078 
Q 800 744 1014 566 
Q 1228 388 1613 388 
Q 2000 388 2187 545 
Q 2375 703 2375 916 
Q 2375 1106 2209 1216 
Q 2094 1291 1634 1406 
Q 1016 1563 777 1677 
Q 538 1791 414 1992 
Q 291 2194 291 2438 
Q 291 2659 392 2848 
Q 494 3038 669 3163 
Q 800 3259 1026 3326 
Q 1253 3394 1513 3394 
Q 1903 3394 2198 3281 
Q 2494 3169 2634 2976 
Q 2775 2784 2828 2463 
L 2278 2388 
Q 2241 2644 2061 2787 
Q 1881 2931 1553 2931 
Q 1166 2931 1000 2803 
Q 834 2675 834 2503 
Q 834 2394 903 2306 
Q 972 2216 1119 2156 
Q 1203 2125 1616 2013 
Q 2213 1853 2448 1751 
Q 2684 1650 2818 1456 
Q 2953 1263 2953 975 
Q 2953 694 2789 445 
Q 2625 197 2315 61 
Q 2006 -75 1616 -75 
Q 969 -75 630 194 
Q 291 463 197 991 
z
" transform="scale(0.015625)"/>
       <path id="ArialMT-5d" d="M 1363 -1272 
L 122 -1272 
L 122 -806 
L 800 -806 
L 800 4116 
L 122 4116 
L 122 4581 
L 1363 4581 
L 1363 -1272 
z
" transform="scale(0.015625)"/>
      </defs>
      <use xlink:href="#ArialMT-44"/>
      <use xlink:href="#ArialMT-65" x="72.216797"/>
      <use xlink:href="#ArialMT-6d" x="127.832031"/>
      <use xlink:href="#ArialMT-61" x="211.132812"/>
      <use xlink:href="#ArialMT-6e" x="266.748047"/>
      <use xlink:href="#ArialMT-64" x="322.363281"/>
      <use xlink:href="#ArialMT-20" x="377.978516"/>
      <use xlink:href="#ArialMT-5b" x="405.761719"/>
      <use xlink:href="#ArialMT-31" x="433.544922"/>
      <use xlink:href="#ArialMT-65" x="489.160156"/>
      <use xlink:href="#ArialMT-33" x="544.775391"/>
      <use xlink:href="#ArialMT-20" x="600.390625"/>
      <use xlink:href="#ArialMT-74" x="628.173828"/>
      <use xlink:href="#ArialMT-72" x="655.957031"/>
      <use xlink:href="#ArialMT-69" x="689.257812"/>
      <use xlink:href="#ArialMT-70" x="711.474609"/>
      <use xlink:href="#ArialMT-73" x="767.089844"/>
      <use xlink:href="#ArialMT-5d" x="817.089844"/>
     </g>
    </g>
   </g>
   <g id="line2d_1">
    <path d="M 74.271838 70.411896 
L 75.336046 84.285509 
L 76.400255 105.847458 
L 77.464463 85.887961 
L 78.528672 73.367959 
L 79.59288 64.526587 
L 80.657089 63.58807 
L 81.721297 50.435953 
L 82.785506 76.139177 
L 83.849714 85.584775 
L 84.913923 82.611552 
L 85.978131 97.184852 
L 87.04234 131.137734 
L 88.106548 82.749201 
L 89.170757 62.362455 
L 90.234965 85.535078 
L 91.299174 92.12508 
L 92.363382 82.905799 
L 93.427591 84.917623 
L 94.491799 66.101866 
L 95.556008 56.824308 
L 96.620216 49.667978 
L 97.684425 82.74205 
L 98.748633 85.75925 
L 99.812842 66.937415 
L 100.877051 57.100321 
L 101.941259 50.450612 
L 104.069676 32.015625 
L 105.133885 67.356441 
L 106.198093 65.432212 
L 107.262302 52.916857 
L 108.32651 58.758548 
L 109.390719 58.049207 
L 110.454927 52.048416 
L 111.519136 38.84982 
L 112.583344 71.692928 
L 113.647553 94.992832 
L 114.711761 70.666458 
L 116.840178 55.651608 
L 117.904387 41.662513 
L 118.968595 46.311839 
L 120.032804 78.826019 
L 121.097012 81.471029 
L 122.161221 65.59167 
L 123.225429 53.893273 
L 124.289638 45.329345 
L 125.353846 38.034293 
L 126.418055 42.936036 
L 127.482263 64.474388 
L 128.546472 72.661121 
L 129.610681 61.221933 
L 130.674889 51.679444 
L 131.739098 50.425942 
L 132.803306 44.714035 
L 133.867515 41.97857 
L 134.931723 78.0441 
L 135.995932 79.588989 
L 137.06014 62.663853 
L 138.124349 58.037051 
L 139.188557 60.163643 
L 140.252766 38.700015 
L 141.316974 40.561319 
L 142.381183 70.474822 
L 143.445391 80.960118 
L 144.5096 71.029709 
L 145.573808 57.26264 
L 146.638017 54.781379 
L 147.702225 44.59891 
L 148.766434 44.171304 
L 149.830642 77.335832 
L 150.894851 85.544017 
L 151.959059 68.506617 
L 153.023268 63.494397 
L 154.087476 50.745575 
L 155.151685 140.798923 
L 156.215893 144.321671 
L 157.280102 157.960387 
L 158.344311 79.981557 
L 159.408519 56.126408 
L 160.472728 59.591951 
L 162.601145 42.057941 
L 163.665353 47.929307 
L 164.729562 74.205295 
L 165.79377 76.763426 
L 166.857979 56.521122 
L 167.922187 53.847867 
L 168.986396 53.494626 
L 170.050604 39.49266 
L 171.114813 37.941693 
L 172.179021 79.920777 
L 173.24323 80.734517 
L 174.307438 66.569159 
L 175.371647 58.98558 
L 176.435855 52.97871 
L 177.500064 50.128477 
L 178.564272 60.320241 
L 179.628481 86.370627 
L 180.692689 81.558982 
L 181.756898 64.016034 
L 182.821106 60.533329 
L 183.885315 50.602205 
L 184.949524 42.906004 
L 186.013732 50.278997 
L 187.077941 74.56068 
L 188.142149 72.65254 
L 189.206358 64.057865 
L 190.270566 51.101317 
L 191.334775 50.434166 
L 192.398983 43.372223 
L 193.463192 54.861108 
L 194.5274 83.625151 
L 195.591609 79.295456 
L 196.655817 61.901956 
L 197.720026 57.75925 
L 198.784234 51.009075 
L 199.848443 42.812688 
L 200.912651 44.581391 
L 201.97686 71.85632 
L 203.041068 67.397557 
L 204.105277 53.497844 
L 205.169485 58.37027 
L 206.233694 50.984047 
L 207.297902 45.751946 
L 208.362111 51.052336 
L 209.426319 70.734031 
L 210.490528 74.344374 
L 211.554736 61.609496 
L 212.618945 58.638775 
L 213.683154 58.063866 
L 214.747362 62.359237 
L 215.811571 85.506476 
L 216.875779 103.336164 
L 217.939988 118.359952 
L 219.004196 78.587546 
L 220.068405 59.879763 
L 221.132613 56.081002 
L 222.196822 51.68588 
L 223.26103 57.617668 
L 224.325239 84.068131 
L 225.389447 73.44018 
L 226.453656 57.477159 
L 227.517864 49.794543 
L 228.582073 48.913588 
L 229.646281 50.097014 
L 230.71049 52.106336 
L 231.774698 88.817923 
L 233.903115 65.681411 
L 234.967324 60.24802 
L 236.031532 52.13315 
L 237.095741 54.838584 
L 238.159949 58.974854 
L 239.224158 85.608372 
L 240.288366 80.59937 
L 241.352575 66.596331 
L 242.416784 58.355253 
L 243.480992 56.775684 
L 244.545201 51.466714 
L 245.609409 60.669191 
L 246.673618 86.72065 
L 247.737826 80.661223 
L 248.802035 68.752597 
L 249.866243 63.701764 
L 250.930452 62.73965 
L 251.99466 73.618587 
L 253.058869 107.566822 
L 254.123077 125.554181 
L 255.187286 133.059461 
L 256.251494 92.136164 
L 257.315703 75.748396 
L 258.379911 63.160821 
L 259.44412 58.226542 
L 260.508328 72.702237 
L 261.572537 89.054966 
L 262.636745 82.614412 
L 263.700954 64.347822 
L 264.765162 62.44576 
L 266.893579 54.76243 
L 267.957788 65.458312 
L 269.021996 83.329115 
L 270.086205 76.150976 
L 271.150414 67.061836 
L 272.214622 62.077861 
L 273.278831 47.517789 
L 274.343039 45.886735 
L 275.407248 59.509004 
L 276.471456 82.584379 
L 277.535665 83.013416 
L 278.599873 71.12946 
L 279.664082 65.944553 
L 280.72829 58.648071 
L 281.792499 56.1711 
L 282.856707 69.54703 
L 283.920916 85.082087 
L 284.985124 81.984801 
L 286.049333 68.862359 
L 287.113541 60.208334 
L 288.17775 64.715363 
L 289.241958 60.288778 
L 290.306167 71.534542 
L 291.370375 94.20698 
L 292.434584 89.845466 
L 293.498792 77.283275 
L 294.563001 69.824474 
L 295.627209 64.997097 
L 296.691418 63.496542 
L 297.755626 76.159199 
L 298.819835 164.609739 
L 299.884044 90.935576 
L 300.948252 75.465232 
L 303.076669 63.698547 
L 304.140878 66.608487 
L 305.205086 83.103871 
L 306.269295 162.364447 
L 307.333503 99.574586 
L 308.397712 85.318773 
L 309.46192 76.853523 
L 310.526129 69.405806 
L 311.590337 69.594582 
L 312.654546 169.485382 
L 313.718754 233.615625 
L 314.782963 124.304612 
L 315.847171 95.807287 
L 316.91138 78.664415 
L 317.975588 72.322897 
L 319.039797 70.513435 
L 320.104005 80.668016 
L 321.168214 95.271706 
L 322.232422 116.269472 
L 323.296631 77.511737 
L 324.360839 65.534108 
L 325.425048 57.152163 
L 326.489256 64.201592 
L 327.553465 55.523612 
L 328.617674 80.664441 
L 329.681882 78.284718 
L 330.746091 62.230526 
L 331.810299 55.581889 
L 332.874508 56.122118 
L 333.938716 51.064134 
L 335.002925 46.824538 
L 336.067133 73.73407 
L 337.131342 84.225087 
L 338.19555 81.897206 
L 339.259759 78.208921 
L 340.323967 64.81869 
L 341.388176 61.898023 
L 342.452384 50.228228 
L 343.516593 75.989372 
L 344.580801 80.165686 
L 345.64501 67.87629 
L 346.709218 65.529103 
L 347.773427 67.184826 
L 348.837635 52.815676 
L 349.901844 51.740224 
L 350.966052 80.727724 
L 352.030261 78.523191 
L 353.094469 69.589934 
L 355.222887 54.199319 
L 356.287095 51.178186 
L 357.351304 53.56363 
L 359.479721 94.368227 
L 360.543929 71.936406 
L 361.608138 59.389232 
L 362.672346 52.435979 
L 364.800763 44.036157 
L 365.864972 70.18558 
L 366.92918 79.415944 
L 367.993389 67.035736 
L 369.057597 66.677491 
L 370.121806 57.917994 
L 371.186014 46.541731 
L 372.250223 46.694039 
L 373.314431 73.509541 
L 374.37864 77.194607 
L 375.442848 66.943493 
L 376.507057 61.441814 
L 377.571265 57.421741 
L 378.635474 48.624704 
L 379.699682 33.795769 
L 380.763891 69.785146 
L 381.828099 81.555407 
L 382.892308 59.11 
L 383.956517 64.186933 
L 386.084934 45.069063 
L 387.149142 42.152687 
L 388.213351 85.835047 
L 389.277559 79.596497 
L 390.341768 67.196982 
L 391.405976 60.238366 
L 392.470185 55.097436 
L 393.534393 53.317649 
L 394.598602 53.742753 
L 395.66281 78.727341 
L 396.727019 79.394135 
L 397.791227 68.158739 
L 398.855436 65.856243 
L 399.919644 54.282981 
L 400.983853 48.502428 
L 402.048061 45.564243 
L 403.11227 78.04553 
L 404.176478 80.599728 
L 405.240687 76.541757 
L 406.304895 74.963975 
L 407.369104 126.69077 
L 408.433312 112.435672 
L 409.497521 88.589104 
L 410.561729 97.407593 
L 411.625938 89.7711 
L 412.690147 74.057992 
L 413.754355 66.723612 
L 415.882772 46.247841 
L 416.946981 43.625355 
L 418.011189 73.465207 
L 419.075398 76.955777 
L 421.203815 63.383205 
L 422.268023 55.452463 
L 423.332232 46.019737 
L 424.39644 40.616378 
L 425.460649 69.276022 
L 426.524857 73.434459 
L 427.589066 61.234446 
L 428.653274 61.822942 
L 430.781691 39.96174 
L 431.8459 41.754755 
L 432.910108 62.146507 
L 433.974317 74.29146 
L 435.038525 66.156926 
L 436.102734 63.806521 
L 437.166942 66.717176 
L 438.231151 74.459142 
L 439.295359 110.504293 
L 440.359568 161.084488 
L 441.423777 140.820733 
L 442.487985 109.000877 
L 443.552194 95.482649 
L 444.616402 80.54288 
L 445.680611 77.670123 
L 446.744819 73.541718 
L 447.809028 172.503297 
L 448.873236 136.59794 
L 449.937445 105.55321 
L 451.001653 95.247394 
L 452.065862 91.505838 
L 453.13007 83.306949 
L 454.194279 80.018741 
L 455.258487 98.314648 
L 456.322696 106.123829 
L 457.386904 96.133712 
L 458.451113 89.361012 
L 459.515321 84.567959 
L 460.57953 70.168418 
L 461.643738 72.91032 
L 462.707947 84.134632 
L 463.772155 112.183613 
L 464.836364 91.307408 
L 465.900572 83.680568 
L 466.964781 82.112797 
L 468.028989 65.807619 
L 469.093198 80.344451 
L 470.157407 98.711507 
L 471.221615 105.126319 
L 472.285824 97.704701 
L 473.350032 87.84401 
L 474.414241 79.762034 
L 475.478449 76.451659 
L 476.542658 71.876341 
L 477.606866 97.695763 
L 478.671075 102.102326 
L 479.735283 95.8981 
L 480.799492 77.849603 
L 481.8637 66.970666 
L 482.927909 51.053408 
L 483.992117 56.195412 
L 485.056326 83.860048 
L 486.120534 90.871221 
L 487.184743 81.733457 
L 489.31316 69.558471 
L 490.377368 62.685663 
L 491.441577 44.431229 
L 492.505785 74.824895 
L 493.569994 93.549482 
L 494.634202 84.886518 
L 495.698411 85.274439 
L 496.762619 86.023465 
L 497.826828 87.385299 
L 498.891037 88.283058 
L 499.955245 106.591121 
L 501.019454 107.811015 
L 502.083662 90.053549 
L 503.147871 82.979093 
L 506.340496 56.634817 
L 507.404705 90.70783 
L 508.468913 102.984711 
L 509.533122 86.942318 
L 510.59733 74.346162 
L 512.725747 37.190521 
L 513.789956 44.610351 
L 514.854164 70.235991 
L 515.918373 71.365788 
L 516.982581 59.821843 
L 518.04679 55.782822 
L 519.110998 48.220337 
L 520.175207 35.200149 
L 521.239415 35.184418 
L 522.303624 78.796344 
L 523.367832 82.564715 
L 524.432041 67.93278 
L 525.49625 60.06997 
L 526.560458 46.706553 
L 527.624667 42.592449 
L 528.688875 44.093362 
L 529.753084 79.828534 
L 530.817292 87.978084 
L 531.881501 73.494882 
L 532.945709 62.62238 
L 534.009918 54.460316 
L 535.074126 43.436221 
L 536.138335 45.991134 
L 537.202543 75.741603 
L 538.266752 73.842044 
L 539.33096 65.626708 
L 540.395169 60.999191 
L 542.523586 42.715082 
L 543.587794 35.92093 
L 544.652003 78.492801 
L 545.716211 88.362072 
L 546.78042 83.372019 
L 547.844628 86.16326 
L 548.908837 79.258273 
L 549.973045 68.787278 
L 551.037254 82.630143 
L 552.101462 113.247266 
L 553.165671 110.883275 
L 554.22988 83.136764 
L 555.294088 82.408117 
L 556.358297 76.955419 
L 558.486714 58.988797 
L 558.486714 58.988797 
" clip-path="url(#pb93acf10be)" style="fill: none; stroke: #2e1e3b; stroke-width: 1.5; stroke-linecap: round"/>
   </g>
   <g id="patch_3">
    <path d="M 50.061094 243.695625 
L 50.061094 21.935625 
" style="fill: none; stroke: #262626; stroke-width: 1.25; stroke-linejoin: miter; stroke-linecap: square"/>
   </g>
   <g id="patch_4">
    <path d="M 582.697457 243.695625 
L 582.697457 21.935625 
" style="fill: none; stroke: #262626; stroke-width: 1.25; stroke-linejoin: miter; stroke-linecap: square"/>
   </g>
   <g id="patch_5">
    <path d="M 50.061094 243.695625 
L 582.697457 243.695625 
" style="fill: none; stroke: #262626; stroke-width: 1.25; stroke-linejoin: miter; stroke-linecap: square"/>
   </g>
   <g id="patch_6">
    <path d="M 50.061094 21.935625 
L 582.697457 21.935625 
" style="fill: none; stroke: #262626; stroke-width: 1.25; stroke-linejoin: miter; stroke-linecap: square"/>
   </g>
   <g id="text_18">
    <!-- Demand in thousands of trips per day -->
    <g style="fill: #262626" transform="translate(216.663026 15.935625) scale(0.12 -0.12)">
     <defs>
      <path id="ArialMT-68" d="M 422 0 
L 422 4581 
L 984 4581 
L 984 2938 
Q 1378 3394 1978 3394 
Q 2347 3394 2619 3248 
Q 2891 3103 3008 2847 
Q 3125 2591 3125 2103 
L 3125 0 
L 2563 0 
L 2563 2103 
Q 2563 2525 2380 2717 
Q 2197 2909 1863 2909 
Q 1613 2909 1392 2779 
Q 1172 2650 1078 2428 
Q 984 2206 984 1816 
L 984 0 
L 422 0 
z
" transform="scale(0.015625)"/>
      <path id="ArialMT-6f" d="M 213 1659 
Q 213 2581 725 3025 
Q 1153 3394 1769 3394 
Q 2453 3394 2887 2945 
Q 3322 2497 3322 1706 
Q 3322 1066 3130 698 
Q 2938 331 2570 128 
Q 2203 -75 1769 -75 
Q 1072 -75 642 372 
Q 213 819 213 1659 
z
M 791 1659 
Q 791 1022 1069 705 
Q 1347 388 1769 388 
Q 2188 388 2466 706 
Q 2744 1025 2744 1678 
Q 2744 2294 2464 2611 
Q 2184 2928 1769 2928 
Q 1347 2928 1069 2612 
Q 791 2297 791 1659 
z
" transform="scale(0.015625)"/>
      <path id="ArialMT-75" d="M 2597 0 
L 2597 488 
Q 2209 -75 1544 -75 
Q 1250 -75 995 37 
Q 741 150 617 320 
Q 494 491 444 738 
Q 409 903 409 1263 
L 409 3319 
L 972 3319 
L 972 1478 
Q 972 1038 1006 884 
Q 1059 663 1231 536 
Q 1403 409 1656 409 
Q 1909 409 2131 539 
Q 2353 669 2445 892 
Q 2538 1116 2538 1541 
L 2538 3319 
L 3100 3319 
L 3100 0 
L 2597 0 
z
" transform="scale(0.015625)"/>
      <path id="ArialMT-66" d="M 556 0 
L 556 2881 
L 59 2881 
L 59 3319 
L 556 3319 
L 556 3672 
Q 556 4006 616 4169 
Q 697 4388 901 4523 
Q 1106 4659 1475 4659 
Q 1713 4659 2000 4603 
L 1916 4113 
Q 1741 4144 1584 4144 
Q 1328 4144 1222 4034 
Q 1116 3925 1116 3625 
L 1116 3319 
L 1763 3319 
L 1763 2881 
L 1116 2881 
L 1116 0 
L 556 0 
z
" transform="scale(0.015625)"/>
     </defs>
     <use xlink:href="#ArialMT-44"/>
     <use xlink:href="#ArialMT-65" x="72.216797"/>
     <use xlink:href="#ArialMT-6d" x="127.832031"/>
     <use xlink:href="#ArialMT-61" x="211.132812"/>
     <use xlink:href="#ArialMT-6e" x="266.748047"/>
     <use xlink:href="#ArialMT-64" x="322.363281"/>
     <use xlink:href="#ArialMT-20" x="377.978516"/>
     <use xlink:href="#ArialMT-69" x="405.761719"/>
     <use xlink:href="#ArialMT-6e" x="427.978516"/>
     <use xlink:href="#ArialMT-20" x="483.59375"/>
     <use xlink:href="#ArialMT-74" x="511.376953"/>
     <use xlink:href="#ArialMT-68" x="539.160156"/>
     <use xlink:href="#ArialMT-6f" x="594.775391"/>
     <use xlink:href="#ArialMT-75" x="650.390625"/>
     <use xlink:href="#ArialMT-73" x="706.005859"/>
     <use xlink:href="#ArialMT-61" x="756.005859"/>
     <use xlink:href="#ArialMT-6e" x="811.621094"/>
     <use xlink:href="#ArialMT-64" x="867.236328"/>
     <use xlink:href="#ArialMT-73" x="922.851562"/>
     <use xlink:href="#ArialMT-20" x="972.851562"/>
     <use xlink:href="#ArialMT-6f" x="1000.634766"/>
     <use xlink:href="#ArialMT-66" x="1056.25"/>
     <use xlink:href="#ArialMT-20" x="1084.033203"/>
     <use xlink:href="#ArialMT-74" x="1111.816406"/>
     <use xlink:href="#ArialMT-72" x="1139.599609"/>
     <use xlink:href="#ArialMT-69" x="1172.900391"/>
     <use xlink:href="#ArialMT-70" x="1195.117188"/>
     <use xlink:href="#ArialMT-73" x="1250.732422"/>
     <use xlink:href="#ArialMT-20" x="1300.732422"/>
     <use xlink:href="#ArialMT-70" x="1328.515625"/>
     <use xlink:href="#ArialMT-65" x="1384.130859"/>
     <use xlink:href="#ArialMT-72" x="1439.746094"/>
     <use xlink:href="#ArialMT-20" x="1473.046875"/>
     <use xlink:href="#ArialMT-64" x="1500.830078"/>
     <use xlink:href="#ArialMT-61" x="1556.445312"/>
     <use xlink:href="#ArialMT-79" x="1612.060547"/>
    </g>
   </g>
  </g>
  <g id="axes_2">
   <g id="patch_7">
    <path d="M 658.788366 243.695625 
L 887.061094 243.695625 
L 887.061094 21.935625 
L 658.788366 21.935625 
z
" style="fill: #ffffff"/>
   </g>
   <g id="matplotlib.axis_3">
    <g id="xtick_10">
     <g id="text_19">
      <!-- 200 -->
      <g style="fill: #262626" transform="translate(722.911775 261.069219) scale(0.11 -0.11)">
       <use xlink:href="#ArialMT-32"/>
       <use xlink:href="#ArialMT-30" x="55.615234"/>
       <use xlink:href="#ArialMT-30" x="111.230469"/>
      </g>
     </g>
    </g>
    <g id="xtick_11">
     <g id="text_20">
      <!-- 400 -->
      <g style="fill: #262626" transform="translate(796.517889 261.069219) scale(0.11 -0.11)">
       <use xlink:href="#ArialMT-34"/>
       <use xlink:href="#ArialMT-30" x="55.615234"/>
       <use xlink:href="#ArialMT-30" x="111.230469"/>
      </g>
     </g>
    </g>
    <g id="xtick_12">
     <g id="text_21">
      <!-- 600 -->
      <g style="fill: #262626" transform="translate(870.124003 261.069219) scale(0.11 -0.11)">
       <use xlink:href="#ArialMT-36"/>
       <use xlink:href="#ArialMT-30" x="55.615234"/>
       <use xlink:href="#ArialMT-30" x="111.230469"/>
      </g>
     </g>
    </g>
    <g id="text_22">
     <!-- Demand [1e3 trips] -->
     <g style="fill: #262626" transform="translate(722.23598 275.880469) scale(0.12 -0.12)">
      <use xlink:href="#ArialMT-44"/>
      <use xlink:href="#ArialMT-65" x="72.216797"/>
      <use xlink:href="#ArialMT-6d" x="127.832031"/>
      <use xlink:href="#ArialMT-61" x="211.132812"/>
      <use xlink:href="#ArialMT-6e" x="266.748047"/>
      <use xlink:href="#ArialMT-64" x="322.363281"/>
      <use xlink:href="#ArialMT-20" x="377.978516"/>
      <use xlink:href="#ArialMT-5b" x="405.761719"/>
      <use xlink:href="#ArialMT-31" x="433.544922"/>
      <use xlink:href="#ArialMT-65" x="489.160156"/>
      <use xlink:href="#ArialMT-33" x="544.775391"/>
      <use xlink:href="#ArialMT-20" x="600.390625"/>
      <use xlink:href="#ArialMT-74" x="628.173828"/>
      <use xlink:href="#ArialMT-72" x="655.957031"/>
      <use xlink:href="#ArialMT-69" x="689.257812"/>
      <use xlink:href="#ArialMT-70" x="711.474609"/>
      <use xlink:href="#ArialMT-73" x="767.089844"/>
      <use xlink:href="#ArialMT-5d" x="817.089844"/>
     </g>
    </g>
   </g>
   <g id="matplotlib.axis_4">
    <g id="ytick_7">
     <g id="text_23">
      <!-- 0 -->
      <g style="fill: #262626" transform="translate(643.171335 247.632422) scale(0.11 -0.11)">
       <use xlink:href="#ArialMT-30"/>
      </g>
     </g>
    </g>
    <g id="ytick_8">
     <g id="text_24">
      <!-- 10 -->
      <g style="fill: #262626" transform="translate(637.054304 214.108612) scale(0.11 -0.11)">
       <use xlink:href="#ArialMT-31"/>
       <use xlink:href="#ArialMT-30" x="55.615234"/>
      </g>
     </g>
    </g>
    <g id="ytick_9">
     <g id="text_25">
      <!-- 20 -->
      <g style="fill: #262626" transform="translate(637.054304 180.584803) scale(0.11 -0.11)">
       <use xlink:href="#ArialMT-32"/>
       <use xlink:href="#ArialMT-30" x="55.615234"/>
      </g>
     </g>
    </g>
    <g id="ytick_10">
     <g id="text_26">
      <!-- 30 -->
      <g style="fill: #262626" transform="translate(637.054304 147.060993) scale(0.11 -0.11)">
       <use xlink:href="#ArialMT-33"/>
       <use xlink:href="#ArialMT-30" x="55.615234"/>
      </g>
     </g>
    </g>
    <g id="ytick_11">
     <g id="text_27">
      <!-- 40 -->
      <g style="fill: #262626" transform="translate(637.054304 113.537184) scale(0.11 -0.11)">
       <use xlink:href="#ArialMT-34"/>
       <use xlink:href="#ArialMT-30" x="55.615234"/>
      </g>
     </g>
    </g>
    <g id="ytick_12">
     <g id="text_28">
      <!-- 50 -->
      <g style="fill: #262626" transform="translate(637.054304 80.013374) scale(0.11 -0.11)">
       <use xlink:href="#ArialMT-35"/>
       <use xlink:href="#ArialMT-30" x="55.615234"/>
      </g>
     </g>
    </g>
    <g id="ytick_13">
     <g id="text_29">
      <!-- 60 -->
      <g style="fill: #262626" transform="translate(637.054304 46.489565) scale(0.11 -0.11)">
       <use xlink:href="#ArialMT-36"/>
       <use xlink:href="#ArialMT-30" x="55.615234"/>
      </g>
     </g>
    </g>
    <g id="text_30">
     <!-- Count -->
     <g style="fill: #262626" transform="translate(630.669304 148.825312) rotate(-90) scale(0.12 -0.12)">
      <defs>
       <path id="ArialMT-43" d="M 3763 1606 
L 4369 1453 
Q 4178 706 3683 314 
Q 3188 -78 2472 -78 
Q 1731 -78 1267 223 
Q 803 525 561 1097 
Q 319 1669 319 2325 
Q 319 3041 592 3573 
Q 866 4106 1370 4382 
Q 1875 4659 2481 4659 
Q 3169 4659 3637 4309 
Q 4106 3959 4291 3325 
L 3694 3184 
Q 3534 3684 3231 3912 
Q 2928 4141 2469 4141 
Q 1941 4141 1586 3887 
Q 1231 3634 1087 3207 
Q 944 2781 944 2328 
Q 944 1744 1114 1308 
Q 1284 872 1643 656 
Q 2003 441 2422 441 
Q 2931 441 3284 734 
Q 3638 1028 3763 1606 
z
" transform="scale(0.015625)"/>
      </defs>
      <use xlink:href="#ArialMT-43"/>
      <use xlink:href="#ArialMT-6f" x="72.216797"/>
      <use xlink:href="#ArialMT-75" x="127.832031"/>
      <use xlink:href="#ArialMT-6e" x="183.447266"/>
      <use xlink:href="#ArialMT-74" x="239.0625"/>
     </g>
    </g>
   </g>
   <g id="patch_8">
    <path d="M 669.1644 243.695625 
L 675.858614 243.695625 
L 675.858614 240.343244 
L 669.1644 240.343244 
z
" clip-path="url(#pa523e3de61)" style="fill: #2e1e3b; fill-opacity: 0.75; stroke: #ffffff; stroke-width: 0.669421; stroke-linejoin: miter"/>
   </g>
   <g id="patch_9">
    <path d="M 675.858614 243.695625 
L 682.552829 243.695625 
L 682.552829 243.695625 
L 675.858614 243.695625 
z
" clip-path="url(#pa523e3de61)" style="fill: #2e1e3b; fill-opacity: 0.75; stroke: #ffffff; stroke-width: 0.669421; stroke-linejoin: miter"/>
   </g>
   <g id="patch_10">
    <path d="M 682.552829 243.695625 
L 689.247044 243.695625 
L 689.247044 243.695625 
L 682.552829 243.695625 
z
" clip-path="url(#pa523e3de61)" style="fill: #2e1e3b; fill-opacity: 0.75; stroke: #ffffff; stroke-width: 0.669421; stroke-linejoin: miter"/>
   </g>
   <g id="patch_11">
    <path d="M 689.247044 243.695625 
L 695.941259 243.695625 
L 695.941259 243.695625 
L 689.247044 243.695625 
z
" clip-path="url(#pa523e3de61)" style="fill: #2e1e3b; fill-opacity: 0.75; stroke: #ffffff; stroke-width: 0.669421; stroke-linejoin: miter"/>
   </g>
   <g id="patch_12">
    <path d="M 695.941259 243.695625 
L 702.635474 243.695625 
L 702.635474 243.695625 
L 695.941259 243.695625 
z
" clip-path="url(#pa523e3de61)" style="fill: #2e1e3b; fill-opacity: 0.75; stroke: #ffffff; stroke-width: 0.669421; stroke-linejoin: miter"/>
   </g>
   <g id="patch_13">
    <path d="M 702.635474 243.695625 
L 709.329689 243.695625 
L 709.329689 243.695625 
L 702.635474 243.695625 
z
" clip-path="url(#pa523e3de61)" style="fill: #2e1e3b; fill-opacity: 0.75; stroke: #ffffff; stroke-width: 0.669421; stroke-linejoin: miter"/>
   </g>
   <g id="patch_14">
    <path d="M 709.329689 243.695625 
L 716.023904 243.695625 
L 716.023904 243.695625 
L 709.329689 243.695625 
z
" clip-path="url(#pa523e3de61)" style="fill: #2e1e3b; fill-opacity: 0.75; stroke: #ffffff; stroke-width: 0.669421; stroke-linejoin: miter"/>
   </g>
   <g id="patch_15">
    <path d="M 716.023904 243.695625 
L 722.718119 243.695625 
L 722.718119 243.695625 
L 716.023904 243.695625 
z
" clip-path="url(#pa523e3de61)" style="fill: #2e1e3b; fill-opacity: 0.75; stroke: #ffffff; stroke-width: 0.669421; stroke-linejoin: miter"/>
   </g>
   <g id="patch_16">
    <path d="M 722.718119 243.695625 
L 729.412333 243.695625 
L 729.412333 243.695625 
L 722.718119 243.695625 
z
" clip-path="url(#pa523e3de61)" style="fill: #2e1e3b; fill-opacity: 0.75; stroke: #ffffff; stroke-width: 0.669421; stroke-linejoin: miter"/>
   </g>
   <g id="patch_17">
    <path d="M 729.412333 243.695625 
L 736.106548 243.695625 
L 736.106548 236.990863 
L 729.412333 236.990863 
z
" clip-path="url(#pa523e3de61)" style="fill: #2e1e3b; fill-opacity: 0.75; stroke: #ffffff; stroke-width: 0.669421; stroke-linejoin: miter"/>
   </g>
   <g id="patch_18">
    <path d="M 736.106548 243.695625 
L 742.800763 243.695625 
L 742.800763 236.990863 
L 736.106548 236.990863 
z
" clip-path="url(#pa523e3de61)" style="fill: #2e1e3b; fill-opacity: 0.75; stroke: #ffffff; stroke-width: 0.669421; stroke-linejoin: miter"/>
   </g>
   <g id="patch_19">
    <path d="M 742.800763 243.695625 
L 749.494978 243.695625 
L 749.494978 236.990863 
L 742.800763 236.990863 
z
" clip-path="url(#pa523e3de61)" style="fill: #2e1e3b; fill-opacity: 0.75; stroke: #ffffff; stroke-width: 0.669421; stroke-linejoin: miter"/>
   </g>
   <g id="patch_20">
    <path d="M 749.494978 243.695625 
L 756.189193 243.695625 
L 756.189193 243.695625 
L 749.494978 243.695625 
z
" clip-path="url(#pa523e3de61)" style="fill: #2e1e3b; fill-opacity: 0.75; stroke: #ffffff; stroke-width: 0.669421; stroke-linejoin: miter"/>
   </g>
   <g id="patch_21">
    <path d="M 756.189193 243.695625 
L 762.883408 243.695625 
L 762.883408 240.343244 
L 756.189193 240.343244 
z
" clip-path="url(#pa523e3de61)" style="fill: #2e1e3b; fill-opacity: 0.75; stroke: #ffffff; stroke-width: 0.669421; stroke-linejoin: miter"/>
   </g>
   <g id="patch_22">
    <path d="M 762.883408 243.695625 
L 769.577623 243.695625 
L 769.577623 233.638482 
L 762.883408 233.638482 
z
" clip-path="url(#pa523e3de61)" style="fill: #2e1e3b; fill-opacity: 0.75; stroke: #ffffff; stroke-width: 0.669421; stroke-linejoin: miter"/>
   </g>
   <g id="patch_23">
    <path d="M 769.577623 243.695625 
L 776.271838 243.695625 
L 776.271838 236.990863 
L 769.577623 236.990863 
z
" clip-path="url(#pa523e3de61)" style="fill: #2e1e3b; fill-opacity: 0.75; stroke: #ffffff; stroke-width: 0.669421; stroke-linejoin: miter"/>
   </g>
   <g id="patch_24">
    <path d="M 776.271838 243.695625 
L 782.966052 243.695625 
L 782.966052 233.638482 
L 776.271838 233.638482 
z
" clip-path="url(#pa523e3de61)" style="fill: #2e1e3b; fill-opacity: 0.75; stroke: #ffffff; stroke-width: 0.669421; stroke-linejoin: miter"/>
   </g>
   <g id="patch_25">
    <path d="M 782.966052 243.695625 
L 789.660267 243.695625 
L 789.660267 240.343244 
L 782.966052 240.343244 
z
" clip-path="url(#pa523e3de61)" style="fill: #2e1e3b; fill-opacity: 0.75; stroke: #ffffff; stroke-width: 0.669421; stroke-linejoin: miter"/>
   </g>
   <g id="patch_26">
    <path d="M 789.660267 243.695625 
L 796.354482 243.695625 
L 796.354482 223.581339 
L 789.660267 223.581339 
z
" clip-path="url(#pa523e3de61)" style="fill: #2e1e3b; fill-opacity: 0.75; stroke: #ffffff; stroke-width: 0.669421; stroke-linejoin: miter"/>
   </g>
   <g id="patch_27">
    <path d="M 796.354482 243.695625 
L 803.048697 243.695625 
L 803.048697 216.876577 
L 796.354482 216.876577 
z
" clip-path="url(#pa523e3de61)" style="fill: #2e1e3b; fill-opacity: 0.75; stroke: #ffffff; stroke-width: 0.669421; stroke-linejoin: miter"/>
   </g>
   <g id="patch_28">
    <path d="M 803.048697 243.695625 
L 809.742912 243.695625 
L 809.742912 210.171815 
L 803.048697 210.171815 
z
" clip-path="url(#pa523e3de61)" style="fill: #2e1e3b; fill-opacity: 0.75; stroke: #ffffff; stroke-width: 0.669421; stroke-linejoin: miter"/>
   </g>
   <g id="patch_29">
    <path d="M 809.742912 243.695625 
L 816.437127 243.695625 
L 816.437127 186.705149 
L 809.742912 186.705149 
z
" clip-path="url(#pa523e3de61)" style="fill: #2e1e3b; fill-opacity: 0.75; stroke: #ffffff; stroke-width: 0.669421; stroke-linejoin: miter"/>
   </g>
   <g id="patch_30">
    <path d="M 816.437127 243.695625 
L 823.131342 243.695625 
L 823.131342 126.362292 
L 816.437127 126.362292 
z
" clip-path="url(#pa523e3de61)" style="fill: #2e1e3b; fill-opacity: 0.75; stroke: #ffffff; stroke-width: 0.669421; stroke-linejoin: miter"/>
   </g>
   <g id="patch_31">
    <path d="M 823.131342 243.695625 
L 829.825557 243.695625 
L 829.825557 39.200387 
L 823.131342 39.200387 
z
" clip-path="url(#pa523e3de61)" style="fill: #2e1e3b; fill-opacity: 0.75; stroke: #ffffff; stroke-width: 0.669421; stroke-linejoin: miter"/>
   </g>
   <g id="patch_32">
    <path d="M 829.825557 243.695625 
L 836.519771 243.695625 
L 836.519771 69.371815 
L 829.825557 69.371815 
z
" clip-path="url(#pa523e3de61)" style="fill: #2e1e3b; fill-opacity: 0.75; stroke: #ffffff; stroke-width: 0.669421; stroke-linejoin: miter"/>
   </g>
   <g id="patch_33">
    <path d="M 836.519771 243.695625 
L 843.213986 243.695625 
L 843.213986 49.25753 
L 836.519771 49.25753 
z
" clip-path="url(#pa523e3de61)" style="fill: #2e1e3b; fill-opacity: 0.75; stroke: #ffffff; stroke-width: 0.669421; stroke-linejoin: miter"/>
   </g>
   <g id="patch_34">
    <path d="M 843.213986 243.695625 
L 849.908201 243.695625 
L 849.908201 32.495625 
L 843.213986 32.495625 
z
" clip-path="url(#pa523e3de61)" style="fill: #2e1e3b; fill-opacity: 0.75; stroke: #ffffff; stroke-width: 0.669421; stroke-linejoin: miter"/>
   </g>
   <g id="patch_35">
    <path d="M 849.908201 243.695625 
L 856.602416 243.695625 
L 856.602416 72.724196 
L 849.908201 72.724196 
z
" clip-path="url(#pa523e3de61)" style="fill: #2e1e3b; fill-opacity: 0.75; stroke: #ffffff; stroke-width: 0.669421; stroke-linejoin: miter"/>
   </g>
   <g id="patch_36">
    <path d="M 856.602416 243.695625 
L 863.296631 243.695625 
L 863.296631 102.895625 
L 856.602416 102.895625 
z
" clip-path="url(#pa523e3de61)" style="fill: #2e1e3b; fill-opacity: 0.75; stroke: #ffffff; stroke-width: 0.669421; stroke-linejoin: miter"/>
   </g>
   <g id="patch_37">
    <path d="M 863.296631 243.695625 
L 869.990846 243.695625 
L 869.990846 149.828958 
L 863.296631 149.828958 
z
" clip-path="url(#pa523e3de61)" style="fill: #2e1e3b; fill-opacity: 0.75; stroke: #ffffff; stroke-width: 0.669421; stroke-linejoin: miter"/>
   </g>
   <g id="patch_38">
    <path d="M 869.990846 243.695625 
L 876.685061 243.695625 
L 876.685061 216.876577 
L 869.990846 216.876577 
z
" clip-path="url(#pa523e3de61)" style="fill: #2e1e3b; fill-opacity: 0.75; stroke: #ffffff; stroke-width: 0.669421; stroke-linejoin: miter"/>
   </g>
   <g id="line2d_2">
    <path d="M 838.995786 243.695625 
L 838.995786 21.935625 
" clip-path="url(#pa523e3de61)" style="fill: none; stroke-dasharray: 5.55,2.4; stroke-dashoffset: 0; stroke: #ff0000; stroke-width: 1.5"/>
   </g>
   <g id="patch_39">
    <path d="M 658.788366 243.695625 
L 658.788366 21.935625 
" style="fill: none; stroke: #262626; stroke-width: 1.25; stroke-linejoin: miter; stroke-linecap: square"/>
   </g>
   <g id="patch_40">
    <path d="M 887.061094 243.695625 
L 887.061094 21.935625 
" style="fill: none; stroke: #262626; stroke-width: 1.25; stroke-linejoin: miter; stroke-linecap: square"/>
   </g>
   <g id="patch_41">
    <path d="M 658.788366 243.695625 
L 887.061094 243.695625 
" style="fill: none; stroke: #262626; stroke-width: 1.25; stroke-linejoin: miter; stroke-linecap: square"/>
   </g>
   <g id="patch_42">
    <path d="M 658.788366 21.935625 
L 887.061094 21.935625 
" style="fill: none; stroke: #262626; stroke-width: 1.25; stroke-linejoin: miter; stroke-linecap: square"/>
   </g>
   <g id="text_31">
    <!-- Distribution of daily taxi demand -->
    <g style="fill: #262626" transform="translate(687.886918 15.935625) scale(0.12 -0.12)">
     <defs>
      <path id="ArialMT-62" d="M 941 0 
L 419 0 
L 419 4581 
L 981 4581 
L 981 2947 
Q 1338 3394 1891 3394 
Q 2197 3394 2470 3270 
Q 2744 3147 2920 2923 
Q 3097 2700 3197 2384 
Q 3297 2069 3297 1709 
Q 3297 856 2875 390 
Q 2453 -75 1863 -75 
Q 1275 -75 941 416 
L 941 0 
z
M 934 1684 
Q 934 1088 1097 822 
Q 1363 388 1816 388 
Q 2184 388 2453 708 
Q 2722 1028 2722 1663 
Q 2722 2313 2464 2622 
Q 2206 2931 1841 2931 
Q 1472 2931 1203 2611 
Q 934 2291 934 1684 
z
" transform="scale(0.015625)"/>
      <path id="ArialMT-6c" d="M 409 0 
L 409 4581 
L 972 4581 
L 972 0 
L 409 0 
z
" transform="scale(0.015625)"/>
      <path id="ArialMT-78" d="M 47 0 
L 1259 1725 
L 138 3319 
L 841 3319 
L 1350 2541 
Q 1494 2319 1581 2169 
Q 1719 2375 1834 2534 
L 2394 3319 
L 3066 3319 
L 1919 1756 
L 3153 0 
L 2463 0 
L 1781 1031 
L 1600 1309 
L 728 0 
L 47 0 
z
" transform="scale(0.015625)"/>
     </defs>
     <use xlink:href="#ArialMT-44"/>
     <use xlink:href="#ArialMT-69" x="72.216797"/>
     <use xlink:href="#ArialMT-73" x="94.433594"/>
     <use xlink:href="#ArialMT-74" x="144.433594"/>
     <use xlink:href="#ArialMT-72" x="172.216797"/>
     <use xlink:href="#ArialMT-69" x="205.517578"/>
     <use xlink:href="#ArialMT-62" x="227.734375"/>
     <use xlink:href="#ArialMT-75" x="283.349609"/>
     <use xlink:href="#ArialMT-74" x="338.964844"/>
     <use xlink:href="#ArialMT-69" x="366.748047"/>
     <use xlink:href="#ArialMT-6f" x="388.964844"/>
     <use xlink:href="#ArialMT-6e" x="444.580078"/>
     <use xlink:href="#ArialMT-20" x="500.195312"/>
     <use xlink:href="#ArialMT-6f" x="527.978516"/>
     <use xlink:href="#ArialMT-66" x="583.59375"/>
     <use xlink:href="#ArialMT-20" x="611.376953"/>
     <use xlink:href="#ArialMT-64" x="639.160156"/>
     <use xlink:href="#ArialMT-61" x="694.775391"/>
     <use xlink:href="#ArialMT-69" x="750.390625"/>
     <use xlink:href="#ArialMT-6c" x="772.607422"/>
     <use xlink:href="#ArialMT-79" x="794.824219"/>
     <use xlink:href="#ArialMT-20" x="844.824219"/>
     <use xlink:href="#ArialMT-74" x="872.607422"/>
     <use xlink:href="#ArialMT-61" x="900.390625"/>
     <use xlink:href="#ArialMT-78" x="956.005859"/>
     <use xlink:href="#ArialMT-69" x="1006.005859"/>
     <use xlink:href="#ArialMT-20" x="1028.222656"/>
     <use xlink:href="#ArialMT-64" x="1056.005859"/>
     <use xlink:href="#ArialMT-65" x="1111.621094"/>
     <use xlink:href="#ArialMT-6d" x="1167.236328"/>
     <use xlink:href="#ArialMT-61" x="1250.537109"/>
     <use xlink:href="#ArialMT-6e" x="1306.152344"/>
     <use xlink:href="#ArialMT-64" x="1361.767578"/>
    </g>
   </g>
  </g>
 </g>
 <defs>
  <clipPath id="pb93acf10be">
   <rect x="50.061094" y="21.935625" width="532.636364" height="221.76"/>
  </clipPath>
  <clipPath id="pa523e3de61">
   <rect x="658.788366" y="21.935625" width="228.272727" height="221.76"/>
  </clipPath>
 </defs>
</svg>
