<?xml version="1.0" encoding="utf-8" standalone="no"?>
<!DOCTYPE svg PUBLIC "-//W3C//DTD SVG 1.1//EN"
  "http://www.w3.org/Graphics/SVG/1.1/DTD/svg11.dtd">
<svg xmlns:xlink="http://www.w3.org/1999/xlink" width="576pt" height="432pt" viewBox="0 0 576 432" xmlns="http://www.w3.org/2000/svg" version="1.1">
 <metadata>
  <rdf:RDF xmlns:dc="http://purl.org/dc/elements/1.1/" xmlns:cc="http://creativecommons.org/ns#" xmlns:rdf="http://www.w3.org/1999/02/22-rdf-syntax-ns#">
   <cc:Work>
    <dc:type rdf:resource="http://purl.org/dc/dcmitype/StillImage"/>
    <dc:date>2023-09-02T00:25:23.932994</dc:date>
    <dc:format>image/svg+xml</dc:format>
    <dc:creator>
     <cc:Agent>
      <dc:title>Matplotlib v3.7.1, https://matplotlib.org/</dc:title>
     </cc:Agent>
    </dc:creator>
   </cc:Work>
  </rdf:RDF>
 </metadata>
 <defs>
  <style type="text/css">*{stroke-linejoin: round; stroke-linecap: butt}</style>
 </defs>
 <g id="figure_1">
  <g id="patch_1">
   <path d="M 0 432 
L 576 432 
L 576 0 
L 0 0 
z
" style="fill: #ffffff"/>
  </g>
  <g id="axes_1">
   <g id="patch_2">
    <path d="M 72 384.48 
L 518.4 384.48 
L 518.4 51.84 
L 72 51.84 
z
" style="fill: #ffffff"/>
   </g>
   <g id="matplotlib.axis_1">
    <g id="xtick_1">
     <g id="line2d_1">
      <defs>
       <path id="mf83a9aa534" d="M 0 0 
L 0 3.5 
" style="stroke: #000000; stroke-width: 0.8"/>
      </defs>
      <g>
       <use xlink:href="#mf83a9aa534" x="72" y="384.48" style="stroke: #000000; stroke-width: 0.8"/>
      </g>
     </g>
     <g id="text_1">
      <!-- 0 -->
      <g transform="translate(68.81875 399.078438) scale(0.1 -0.1)">
       <defs>
        <path id="DejaVuSans-30" d="M 2034 4250 
Q 1547 4250 1301 3770 
Q 1056 3291 1056 2328 
Q 1056 1369 1301 889 
Q 1547 409 2034 409 
Q 2525 409 2770 889 
Q 3016 1369 3016 2328 
Q 3016 3291 2770 3770 
Q 2525 4250 2034 4250 
z
M 2034 4750 
Q 2819 4750 3233 4129 
Q 3647 3509 3647 2328 
Q 3647 1150 3233 529 
Q 2819 -91 2034 -91 
Q 1250 -91 836 529 
Q 422 1150 422 2328 
Q 422 3509 836 4129 
Q 1250 4750 2034 4750 
z
" transform="scale(0.015625)"/>
       </defs>
       <use xlink:href="#DejaVuSans-30"/>
      </g>
     </g>
    </g>
    <g id="xtick_2">
     <g id="line2d_2">
      <g>
       <use xlink:href="#mf83a9aa534" x="121.6" y="384.48" style="stroke: #000000; stroke-width: 0.8"/>
      </g>
     </g>
     <g id="text_2">
      <!-- 10 -->
      <g transform="translate(115.2375 399.078438) scale(0.1 -0.1)">
       <defs>
        <path id="DejaVuSans-31" d="M 794 531 
L 1825 531 
L 1825 4091 
L 703 3866 
L 703 4441 
L 1819 4666 
L 2450 4666 
L 2450 531 
L 3481 531 
L 3481 0 
L 794 0 
L 794 531 
z
" transform="scale(0.015625)"/>
       </defs>
       <use xlink:href="#DejaVuSans-31"/>
       <use xlink:href="#DejaVuSans-30" x="63.623047"/>
      </g>
     </g>
    </g>
    <g id="xtick_3">
     <g id="line2d_3">
      <g>
       <use xlink:href="#mf83a9aa534" x="171.2" y="384.48" style="stroke: #000000; stroke-width: 0.8"/>
      </g>
     </g>
     <g id="text_3">
      <!-- 20 -->
      <g transform="translate(164.8375 399.078438) scale(0.1 -0.1)">
       <defs>
        <path id="DejaVuSans-32" d="M 1228 531 
L 3431 531 
L 3431 0 
L 469 0 
L 469 531 
Q 828 903 1448 1529 
Q 2069 2156 2228 2338 
Q 2531 2678 2651 2914 
Q 2772 3150 2772 3378 
Q 2772 3750 2511 3984 
Q 2250 4219 1831 4219 
Q 1534 4219 1204 4116 
Q 875 4013 500 3803 
L 500 4441 
Q 881 4594 1212 4672 
Q 1544 4750 1819 4750 
Q 2544 4750 2975 4387 
Q 3406 4025 3406 3419 
Q 3406 3131 3298 2873 
Q 3191 2616 2906 2266 
Q 2828 2175 2409 1742 
Q 1991 1309 1228 531 
z
" transform="scale(0.015625)"/>
       </defs>
       <use xlink:href="#DejaVuSans-32"/>
       <use xlink:href="#DejaVuSans-30" x="63.623047"/>
      </g>
     </g>
    </g>
    <g id="xtick_4">
     <g id="line2d_4">
      <g>
       <use xlink:href="#mf83a9aa534" x="220.8" y="384.48" style="stroke: #000000; stroke-width: 0.8"/>
      </g>
     </g>
     <g id="text_4">
      <!-- 30 -->
      <g transform="translate(214.4375 399.078438) scale(0.1 -0.1)">
       <defs>
        <path id="DejaVuSans-33" d="M 2597 2516 
Q 3050 2419 3304 2112 
Q 3559 1806 3559 1356 
Q 3559 666 3084 287 
Q 2609 -91 1734 -91 
Q 1441 -91 1130 -33 
Q 819 25 488 141 
L 488 750 
Q 750 597 1062 519 
Q 1375 441 1716 441 
Q 2309 441 2620 675 
Q 2931 909 2931 1356 
Q 2931 1769 2642 2001 
Q 2353 2234 1838 2234 
L 1294 2234 
L 1294 2753 
L 1863 2753 
Q 2328 2753 2575 2939 
Q 2822 3125 2822 3475 
Q 2822 3834 2567 4026 
Q 2313 4219 1838 4219 
Q 1578 4219 1281 4162 
Q 984 4106 628 3988 
L 628 4550 
Q 988 4650 1302 4700 
Q 1616 4750 1894 4750 
Q 2613 4750 3031 4423 
Q 3450 4097 3450 3541 
Q 3450 3153 3228 2886 
Q 3006 2619 2597 2516 
z
" transform="scale(0.015625)"/>
       </defs>
       <use xlink:href="#DejaVuSans-33"/>
       <use xlink:href="#DejaVuSans-30" x="63.623047"/>
      </g>
     </g>
    </g>
    <g id="xtick_5">
     <g id="line2d_5">
      <g>
       <use xlink:href="#mf83a9aa534" x="270.4" y="384.48" style="stroke: #000000; stroke-width: 0.8"/>
      </g>
     </g>
     <g id="text_5">
      <!-- 40 -->
      <g transform="translate(264.0375 399.078438) scale(0.1 -0.1)">
       <defs>
        <path id="DejaVuSans-34" d="M 2419 4116 
L 825 1625 
L 2419 1625 
L 2419 4116 
z
M 2253 4666 
L 3047 4666 
L 3047 1625 
L 3713 1625 
L 3713 1100 
L 3047 1100 
L 3047 0 
L 2419 0 
L 2419 1100 
L 313 1100 
L 313 1709 
L 2253 4666 
z
" transform="scale(0.015625)"/>
       </defs>
       <use xlink:href="#DejaVuSans-34"/>
       <use xlink:href="#DejaVuSans-30" x="63.623047"/>
      </g>
     </g>
    </g>
    <g id="xtick_6">
     <g id="line2d_6">
      <g>
       <use xlink:href="#mf83a9aa534" x="320" y="384.48" style="stroke: #000000; stroke-width: 0.8"/>
      </g>
     </g>
     <g id="text_6">
      <!-- 50 -->
      <g transform="translate(313.6375 399.078438) scale(0.1 -0.1)">
       <defs>
        <path id="DejaVuSans-35" d="M 691 4666 
L 3169 4666 
L 3169 4134 
L 1269 4134 
L 1269 2991 
Q 1406 3038 1543 3061 
Q 1681 3084 1819 3084 
Q 2600 3084 3056 2656 
Q 3513 2228 3513 1497 
Q 3513 744 3044 326 
Q 2575 -91 1722 -91 
Q 1428 -91 1123 -41 
Q 819 9 494 109 
L 494 744 
Q 775 591 1075 516 
Q 1375 441 1709 441 
Q 2250 441 2565 725 
Q 2881 1009 2881 1497 
Q 2881 1984 2565 2268 
Q 2250 2553 1709 2553 
Q 1456 2553 1204 2497 
Q 953 2441 691 2322 
L 691 4666 
z
" transform="scale(0.015625)"/>
       </defs>
       <use xlink:href="#DejaVuSans-35"/>
       <use xlink:href="#DejaVuSans-30" x="63.623047"/>
      </g>
     </g>
    </g>
    <g id="xtick_7">
     <g id="line2d_7">
      <g>
       <use xlink:href="#mf83a9aa534" x="369.6" y="384.48" style="stroke: #000000; stroke-width: 0.8"/>
      </g>
     </g>
     <g id="text_7">
      <!-- 60 -->
      <g transform="translate(363.2375 399.078438) scale(0.1 -0.1)">
       <defs>
        <path id="DejaVuSans-36" d="M 2113 2584 
Q 1688 2584 1439 2293 
Q 1191 2003 1191 1497 
Q 1191 994 1439 701 
Q 1688 409 2113 409 
Q 2538 409 2786 701 
Q 3034 994 3034 1497 
Q 3034 2003 2786 2293 
Q 2538 2584 2113 2584 
z
M 3366 4563 
L 3366 3988 
Q 3128 4100 2886 4159 
Q 2644 4219 2406 4219 
Q 1781 4219 1451 3797 
Q 1122 3375 1075 2522 
Q 1259 2794 1537 2939 
Q 1816 3084 2150 3084 
Q 2853 3084 3261 2657 
Q 3669 2231 3669 1497 
Q 3669 778 3244 343 
Q 2819 -91 2113 -91 
Q 1303 -91 875 529 
Q 447 1150 447 2328 
Q 447 3434 972 4092 
Q 1497 4750 2381 4750 
Q 2619 4750 2861 4703 
Q 3103 4656 3366 4563 
z
" transform="scale(0.015625)"/>
       </defs>
       <use xlink:href="#DejaVuSans-36"/>
       <use xlink:href="#DejaVuSans-30" x="63.623047"/>
      </g>
     </g>
    </g>
    <g id="xtick_8">
     <g id="line2d_8">
      <g>
       <use xlink:href="#mf83a9aa534" x="419.2" y="384.48" style="stroke: #000000; stroke-width: 0.8"/>
      </g>
     </g>
     <g id="text_8">
      <!-- 70 -->
      <g transform="translate(412.8375 399.078438) scale(0.1 -0.1)">
       <defs>
        <path id="DejaVuSans-37" d="M 525 4666 
L 3525 4666 
L 3525 4397 
L 1831 0 
L 1172 0 
L 2766 4134 
L 525 4134 
L 525 4666 
z
" transform="scale(0.015625)"/>
       </defs>
       <use xlink:href="#DejaVuSans-37"/>
       <use xlink:href="#DejaVuSans-30" x="63.623047"/>
      </g>
     </g>
    </g>
    <g id="xtick_9">
     <g id="line2d_9">
      <g>
       <use xlink:href="#mf83a9aa534" x="468.8" y="384.48" style="stroke: #000000; stroke-width: 0.8"/>
      </g>
     </g>
     <g id="text_9">
      <!-- 80 -->
      <g transform="translate(462.4375 399.078438) scale(0.1 -0.1)">
       <defs>
        <path id="DejaVuSans-38" d="M 2034 2216 
Q 1584 2216 1326 1975 
Q 1069 1734 1069 1313 
Q 1069 891 1326 650 
Q 1584 409 2034 409 
Q 2484 409 2743 651 
Q 3003 894 3003 1313 
Q 3003 1734 2745 1975 
Q 2488 2216 2034 2216 
z
M 1403 2484 
Q 997 2584 770 2862 
Q 544 3141 544 3541 
Q 544 4100 942 4425 
Q 1341 4750 2034 4750 
Q 2731 4750 3128 4425 
Q 3525 4100 3525 3541 
Q 3525 3141 3298 2862 
Q 3072 2584 2669 2484 
Q 3125 2378 3379 2068 
Q 3634 1759 3634 1313 
Q 3634 634 3220 271 
Q 2806 -91 2034 -91 
Q 1263 -91 848 271 
Q 434 634 434 1313 
Q 434 1759 690 2068 
Q 947 2378 1403 2484 
z
M 1172 3481 
Q 1172 3119 1398 2916 
Q 1625 2713 2034 2713 
Q 2441 2713 2670 2916 
Q 2900 3119 2900 3481 
Q 2900 3844 2670 4047 
Q 2441 4250 2034 4250 
Q 1625 4250 1398 4047 
Q 1172 3844 1172 3481 
z
" transform="scale(0.015625)"/>
       </defs>
       <use xlink:href="#DejaVuSans-38"/>
       <use xlink:href="#DejaVuSans-30" x="63.623047"/>
      </g>
     </g>
    </g>
    <g id="xtick_10">
     <g id="line2d_10">
      <g>
       <use xlink:href="#mf83a9aa534" x="518.4" y="384.48" style="stroke: #000000; stroke-width: 0.8"/>
      </g>
     </g>
     <g id="text_10">
      <!-- 90 -->
      <g transform="translate(512.0375 399.078438) scale(0.1 -0.1)">
       <defs>
        <path id="DejaVuSans-39" d="M 703 97 
L 703 672 
Q 941 559 1184 500 
Q 1428 441 1663 441 
Q 2288 441 2617 861 
Q 2947 1281 2994 2138 
Q 2813 1869 2534 1725 
Q 2256 1581 1919 1581 
Q 1219 1581 811 2004 
Q 403 2428 403 3163 
Q 403 3881 828 4315 
Q 1253 4750 1959 4750 
Q 2769 4750 3195 4129 
Q 3622 3509 3622 2328 
Q 3622 1225 3098 567 
Q 2575 -91 1691 -91 
Q 1453 -91 1209 -44 
Q 966 3 703 97 
z
M 1959 2075 
Q 2384 2075 2632 2365 
Q 2881 2656 2881 3163 
Q 2881 3666 2632 3958 
Q 2384 4250 1959 4250 
Q 1534 4250 1286 3958 
Q 1038 3666 1038 3163 
Q 1038 2656 1286 2365 
Q 1534 2075 1959 2075 
z
" transform="scale(0.015625)"/>
       </defs>
       <use xlink:href="#DejaVuSans-39"/>
       <use xlink:href="#DejaVuSans-30" x="63.623047"/>
      </g>
     </g>
    </g>
    <g id="text_11">
     <!-- Model Age [days] -->
     <g transform="translate(251.633594 412.756563) scale(0.1 -0.1)">
      <defs>
       <path id="DejaVuSans-4d" d="M 628 4666 
L 1569 4666 
L 2759 1491 
L 3956 4666 
L 4897 4666 
L 4897 0 
L 4281 0 
L 4281 4097 
L 3078 897 
L 2444 897 
L 1241 4097 
L 1241 0 
L 628 0 
L 628 4666 
z
" transform="scale(0.015625)"/>
       <path id="DejaVuSans-6f" d="M 1959 3097 
Q 1497 3097 1228 2736 
Q 959 2375 959 1747 
Q 959 1119 1226 758 
Q 1494 397 1959 397 
Q 2419 397 2687 759 
Q 2956 1122 2956 1747 
Q 2956 2369 2687 2733 
Q 2419 3097 1959 3097 
z
M 1959 3584 
Q 2709 3584 3137 3096 
Q 3566 2609 3566 1747 
Q 3566 888 3137 398 
Q 2709 -91 1959 -91 
Q 1206 -91 779 398 
Q 353 888 353 1747 
Q 353 2609 779 3096 
Q 1206 3584 1959 3584 
z
" transform="scale(0.015625)"/>
       <path id="DejaVuSans-64" d="M 2906 2969 
L 2906 4863 
L 3481 4863 
L 3481 0 
L 2906 0 
L 2906 525 
Q 2725 213 2448 61 
Q 2172 -91 1784 -91 
Q 1150 -91 751 415 
Q 353 922 353 1747 
Q 353 2572 751 3078 
Q 1150 3584 1784 3584 
Q 2172 3584 2448 3432 
Q 2725 3281 2906 2969 
z
M 947 1747 
Q 947 1113 1208 752 
Q 1469 391 1925 391 
Q 2381 391 2643 752 
Q 2906 1113 2906 1747 
Q 2906 2381 2643 2742 
Q 2381 3103 1925 3103 
Q 1469 3103 1208 2742 
Q 947 2381 947 1747 
z
" transform="scale(0.015625)"/>
       <path id="DejaVuSans-65" d="M 3597 1894 
L 3597 1613 
L 953 1613 
Q 991 1019 1311 708 
Q 1631 397 2203 397 
Q 2534 397 2845 478 
Q 3156 559 3463 722 
L 3463 178 
Q 3153 47 2828 -22 
Q 2503 -91 2169 -91 
Q 1331 -91 842 396 
Q 353 884 353 1716 
Q 353 2575 817 3079 
Q 1281 3584 2069 3584 
Q 2775 3584 3186 3129 
Q 3597 2675 3597 1894 
z
M 3022 2063 
Q 3016 2534 2758 2815 
Q 2500 3097 2075 3097 
Q 1594 3097 1305 2825 
Q 1016 2553 972 2059 
L 3022 2063 
z
" transform="scale(0.015625)"/>
       <path id="DejaVuSans-6c" d="M 603 4863 
L 1178 4863 
L 1178 0 
L 603 0 
L 603 4863 
z
" transform="scale(0.015625)"/>
       <path id="DejaVuSans-20" transform="scale(0.015625)"/>
       <path id="DejaVuSans-41" d="M 2188 4044 
L 1331 1722 
L 3047 1722 
L 2188 4044 
z
M 1831 4666 
L 2547 4666 
L 4325 0 
L 3669 0 
L 3244 1197 
L 1141 1197 
L 716 0 
L 50 0 
L 1831 4666 
z
" transform="scale(0.015625)"/>
       <path id="DejaVuSans-67" d="M 2906 1791 
Q 2906 2416 2648 2759 
Q 2391 3103 1925 3103 
Q 1463 3103 1205 2759 
Q 947 2416 947 1791 
Q 947 1169 1205 825 
Q 1463 481 1925 481 
Q 2391 481 2648 825 
Q 2906 1169 2906 1791 
z
M 3481 434 
Q 3481 -459 3084 -895 
Q 2688 -1331 1869 -1331 
Q 1566 -1331 1297 -1286 
Q 1028 -1241 775 -1147 
L 775 -588 
Q 1028 -725 1275 -790 
Q 1522 -856 1778 -856 
Q 2344 -856 2625 -561 
Q 2906 -266 2906 331 
L 2906 616 
Q 2728 306 2450 153 
Q 2172 0 1784 0 
Q 1141 0 747 490 
Q 353 981 353 1791 
Q 353 2603 747 3093 
Q 1141 3584 1784 3584 
Q 2172 3584 2450 3431 
Q 2728 3278 2906 2969 
L 2906 3500 
L 3481 3500 
L 3481 434 
z
" transform="scale(0.015625)"/>
       <path id="DejaVuSans-5b" d="M 550 4863 
L 1875 4863 
L 1875 4416 
L 1125 4416 
L 1125 -397 
L 1875 -397 
L 1875 -844 
L 550 -844 
L 550 4863 
z
" transform="scale(0.015625)"/>
       <path id="DejaVuSans-61" d="M 2194 1759 
Q 1497 1759 1228 1600 
Q 959 1441 959 1056 
Q 959 750 1161 570 
Q 1363 391 1709 391 
Q 2188 391 2477 730 
Q 2766 1069 2766 1631 
L 2766 1759 
L 2194 1759 
z
M 3341 1997 
L 3341 0 
L 2766 0 
L 2766 531 
Q 2569 213 2275 61 
Q 1981 -91 1556 -91 
Q 1019 -91 701 211 
Q 384 513 384 1019 
Q 384 1609 779 1909 
Q 1175 2209 1959 2209 
L 2766 2209 
L 2766 2266 
Q 2766 2663 2505 2880 
Q 2244 3097 1772 3097 
Q 1472 3097 1187 3025 
Q 903 2953 641 2809 
L 641 3341 
Q 956 3463 1253 3523 
Q 1550 3584 1831 3584 
Q 2591 3584 2966 3190 
Q 3341 2797 3341 1997 
z
" transform="scale(0.015625)"/>
       <path id="DejaVuSans-79" d="M 2059 -325 
Q 1816 -950 1584 -1140 
Q 1353 -1331 966 -1331 
L 506 -1331 
L 506 -850 
L 844 -850 
Q 1081 -850 1212 -737 
Q 1344 -625 1503 -206 
L 1606 56 
L 191 3500 
L 800 3500 
L 1894 763 
L 2988 3500 
L 3597 3500 
L 2059 -325 
z
" transform="scale(0.015625)"/>
       <path id="DejaVuSans-73" d="M 2834 3397 
L 2834 2853 
Q 2591 2978 2328 3040 
Q 2066 3103 1784 3103 
Q 1356 3103 1142 2972 
Q 928 2841 928 2578 
Q 928 2378 1081 2264 
Q 1234 2150 1697 2047 
L 1894 2003 
Q 2506 1872 2764 1633 
Q 3022 1394 3022 966 
Q 3022 478 2636 193 
Q 2250 -91 1575 -91 
Q 1294 -91 989 -36 
Q 684 19 347 128 
L 347 722 
Q 666 556 975 473 
Q 1284 391 1588 391 
Q 1994 391 2212 530 
Q 2431 669 2431 922 
Q 2431 1156 2273 1281 
Q 2116 1406 1581 1522 
L 1381 1569 
Q 847 1681 609 1914 
Q 372 2147 372 2553 
Q 372 3047 722 3315 
Q 1072 3584 1716 3584 
Q 2034 3584 2315 3537 
Q 2597 3491 2834 3397 
z
" transform="scale(0.015625)"/>
       <path id="DejaVuSans-5d" d="M 1947 4863 
L 1947 -844 
L 622 -844 
L 622 -397 
L 1369 -397 
L 1369 4416 
L 622 4416 
L 622 4863 
L 1947 4863 
z
" transform="scale(0.015625)"/>
      </defs>
      <use xlink:href="#DejaVuSans-4d"/>
      <use xlink:href="#DejaVuSans-6f" x="86.279297"/>
      <use xlink:href="#DejaVuSans-64" x="147.460938"/>
      <use xlink:href="#DejaVuSans-65" x="210.9375"/>
      <use xlink:href="#DejaVuSans-6c" x="272.460938"/>
      <use xlink:href="#DejaVuSans-20" x="300.244141"/>
      <use xlink:href="#DejaVuSans-41" x="332.03125"/>
      <use xlink:href="#DejaVuSans-67" x="400.439453"/>
      <use xlink:href="#DejaVuSans-65" x="463.916016"/>
      <use xlink:href="#DejaVuSans-20" x="525.439453"/>
      <use xlink:href="#DejaVuSans-5b" x="557.226562"/>
      <use xlink:href="#DejaVuSans-64" x="596.240234"/>
      <use xlink:href="#DejaVuSans-61" x="659.716797"/>
      <use xlink:href="#DejaVuSans-79" x="720.996094"/>
      <use xlink:href="#DejaVuSans-73" x="780.175781"/>
      <use xlink:href="#DejaVuSans-5d" x="832.275391"/>
     </g>
    </g>
   </g>
   <g id="matplotlib.axis_2">
    <g id="ytick_1">
     <g id="line2d_11">
      <defs>
       <path id="m994f15b166" d="M 0 0 
L -3.5 0 
" style="stroke: #000000; stroke-width: 0.8"/>
      </defs>
      <g>
       <use xlink:href="#m994f15b166" x="72" y="365.51756" style="stroke: #000000; stroke-width: 0.8"/>
      </g>
     </g>
     <g id="text_12">
      <!-- 0.06 -->
      <g transform="translate(42.734375 369.316779) scale(0.1 -0.1)">
       <defs>
        <path id="DejaVuSans-2e" d="M 684 794 
L 1344 794 
L 1344 0 
L 684 0 
L 684 794 
z
" transform="scale(0.015625)"/>
       </defs>
       <use xlink:href="#DejaVuSans-30"/>
       <use xlink:href="#DejaVuSans-2e" x="63.623047"/>
       <use xlink:href="#DejaVuSans-30" x="95.410156"/>
       <use xlink:href="#DejaVuSans-36" x="159.033203"/>
      </g>
     </g>
    </g>
    <g id="ytick_2">
     <g id="line2d_12">
      <g>
       <use xlink:href="#m994f15b166" x="72" y="315.204085" style="stroke: #000000; stroke-width: 0.8"/>
      </g>
     </g>
     <g id="text_13">
      <!-- 0.08 -->
      <g transform="translate(42.734375 319.003303) scale(0.1 -0.1)">
       <use xlink:href="#DejaVuSans-30"/>
       <use xlink:href="#DejaVuSans-2e" x="63.623047"/>
       <use xlink:href="#DejaVuSans-30" x="95.410156"/>
       <use xlink:href="#DejaVuSans-38" x="159.033203"/>
      </g>
     </g>
    </g>
    <g id="ytick_3">
     <g id="line2d_13">
      <g>
       <use xlink:href="#m994f15b166" x="72" y="264.890609" style="stroke: #000000; stroke-width: 0.8"/>
      </g>
     </g>
     <g id="text_14">
      <!-- 0.10 -->
      <g transform="translate(42.734375 268.689828) scale(0.1 -0.1)">
       <use xlink:href="#DejaVuSans-30"/>
       <use xlink:href="#DejaVuSans-2e" x="63.623047"/>
       <use xlink:href="#DejaVuSans-31" x="95.410156"/>
       <use xlink:href="#DejaVuSans-30" x="159.033203"/>
      </g>
     </g>
    </g>
    <g id="ytick_4">
     <g id="line2d_14">
      <g>
       <use xlink:href="#m994f15b166" x="72" y="214.577134" style="stroke: #000000; stroke-width: 0.8"/>
      </g>
     </g>
     <g id="text_15">
      <!-- 0.12 -->
      <g transform="translate(42.734375 218.376353) scale(0.1 -0.1)">
       <use xlink:href="#DejaVuSans-30"/>
       <use xlink:href="#DejaVuSans-2e" x="63.623047"/>
       <use xlink:href="#DejaVuSans-31" x="95.410156"/>
       <use xlink:href="#DejaVuSans-32" x="159.033203"/>
      </g>
     </g>
    </g>
    <g id="ytick_5">
     <g id="line2d_15">
      <g>
       <use xlink:href="#m994f15b166" x="72" y="164.263659" style="stroke: #000000; stroke-width: 0.8"/>
      </g>
     </g>
     <g id="text_16">
      <!-- 0.14 -->
      <g transform="translate(42.734375 168.062878) scale(0.1 -0.1)">
       <use xlink:href="#DejaVuSans-30"/>
       <use xlink:href="#DejaVuSans-2e" x="63.623047"/>
       <use xlink:href="#DejaVuSans-31" x="95.410156"/>
       <use xlink:href="#DejaVuSans-34" x="159.033203"/>
      </g>
     </g>
    </g>
    <g id="ytick_6">
     <g id="line2d_16">
      <g>
       <use xlink:href="#m994f15b166" x="72" y="113.950184" style="stroke: #000000; stroke-width: 0.8"/>
      </g>
     </g>
     <g id="text_17">
      <!-- 0.16 -->
      <g transform="translate(42.734375 117.749402) scale(0.1 -0.1)">
       <use xlink:href="#DejaVuSans-30"/>
       <use xlink:href="#DejaVuSans-2e" x="63.623047"/>
       <use xlink:href="#DejaVuSans-31" x="95.410156"/>
       <use xlink:href="#DejaVuSans-36" x="159.033203"/>
      </g>
     </g>
    </g>
    <g id="ytick_7">
     <g id="line2d_17">
      <g>
       <use xlink:href="#m994f15b166" x="72" y="63.636709" style="stroke: #000000; stroke-width: 0.8"/>
      </g>
     </g>
     <g id="text_18">
      <!-- 0.18 -->
      <g transform="translate(42.734375 67.435927) scale(0.1 -0.1)">
       <use xlink:href="#DejaVuSans-30"/>
       <use xlink:href="#DejaVuSans-2e" x="63.623047"/>
       <use xlink:href="#DejaVuSans-31" x="95.410156"/>
       <use xlink:href="#DejaVuSans-38" x="159.033203"/>
      </g>
     </g>
    </g>
    <g id="text_19">
     <!-- MAPE -->
     <g transform="translate(36.654688 232.068594) rotate(-90) scale(0.1 -0.1)">
      <defs>
       <path id="DejaVuSans-50" d="M 1259 4147 
L 1259 2394 
L 2053 2394 
Q 2494 2394 2734 2622 
Q 2975 2850 2975 3272 
Q 2975 3691 2734 3919 
Q 2494 4147 2053 4147 
L 1259 4147 
z
M 628 4666 
L 2053 4666 
Q 2838 4666 3239 4311 
Q 3641 3956 3641 3272 
Q 3641 2581 3239 2228 
Q 2838 1875 2053 1875 
L 1259 1875 
L 1259 0 
L 628 0 
L 628 4666 
z
" transform="scale(0.015625)"/>
       <path id="DejaVuSans-45" d="M 628 4666 
L 3578 4666 
L 3578 4134 
L 1259 4134 
L 1259 2753 
L 3481 2753 
L 3481 2222 
L 1259 2222 
L 1259 531 
L 3634 531 
L 3634 0 
L 628 0 
L 628 4666 
z
" transform="scale(0.015625)"/>
      </defs>
      <use xlink:href="#DejaVuSans-4d"/>
      <use xlink:href="#DejaVuSans-41" x="86.279297"/>
      <use xlink:href="#DejaVuSans-50" x="154.6875"/>
      <use xlink:href="#DejaVuSans-45" x="214.990234"/>
     </g>
    </g>
   </g>
   <g id="line2d_18">
    <path d="M 72 369.36 
L 76.96 302.866292 
L 81.92 297.687508 
L 86.88 296.322463 
L 91.84 289.178197 
L 96.8 286.781092 
L 101.76 289.159796 
L 106.72 278.434015 
L 111.68 266.637869 
L 116.64 266.145655 
L 121.6 266.788091 
L 126.56 267.81103 
L 131.52 268.048478 
L 136.48 269.061049 
L 141.44 273.164542 
L 146.4 263.790302 
L 151.36 255.987759 
L 156.32 265.037438 
L 161.28 261.573554 
L 166.24 246.357386 
L 171.2 255.143249 
L 176.16 260.142095 
L 181.12 252.270203 
L 186.08 246.790096 
L 191.04 253.420651 
L 196 259.040426 
L 200.96 256.506864 
L 205.92 250.868853 
L 210.88 257.849581 
L 215.84 259.698012 
L 220.8 260.139463 
L 225.76 251.713468 
L 230.72 263.048028 
L 235.68 253.179882 
L 240.64 253.688165 
L 245.6 252.067039 
L 250.56 246.912252 
L 255.52 239.618896 
L 265.44 242.409383 
L 270.4 241.740098 
L 275.36 238.663528 
L 280.32 243.187458 
L 285.28 235.425911 
L 290.24 242.820052 
L 295.2 241.039107 
L 300.16 232.418084 
L 305.12 247.121855 
L 310.08 241.193099 
L 315.04 237.143225 
L 320 236.399935 
L 324.96 231.213877 
L 329.92 240.007965 
L 334.88 240.785234 
L 339.84 236.201069 
L 344.8 243.549124 
L 349.76 237.161028 
L 354.72 233.31619 
L 359.68 235.666385 
L 364.64 233.866859 
L 369.6 236.059908 
L 374.56 232.952384 
L 379.52 236.942488 
L 384.48 242.925569 
L 389.44 228.03523 
L 394.4 232.49913 
L 399.36 241.162769 
L 404.32 244.196686 
L 409.28 243.212025 
L 414.24 238.227664 
L 419.2 238.469126 
L 424.16 243.735088 
L 429.12 243.275258 
L 434.08 239.598467 
L 439.04 239.19443 
L 444 233.000373 
L 448.96 239.711038 
L 453.92 229.727765 
L 458.88 222.029026 
L 463.84 222.60448 
L 468.8 229.047161 
L 473.76 231.173226 
L 478.72 230.686019 
L 483.68 226.862355 
L 488.64 230.672357 
L 493.6 228.909556 
L 498.56 224.178166 
L 503.52 233.415448 
L 508.48 233.062841 
L 513.44 226.590233 
L 518.4 225.70846 
L 523.36 231.224627 
L 528.32 226.767331 
L 533.28 223.176474 
L 538.24 237.335231 
L 543.2 246.001841 
L 548.16 244.425102 
L 553.12 241.329376 
L 558.08 234.467844 
L 563.04 235.200128 
L 568 227.727074 
L 572.96 232.751408 
L 577 240.82245 
L 577 240.82245 
" clip-path="url(#p30e0aab9ad)" style="fill: none; stroke: #edd1cb; stroke-width: 2; stroke-linecap: square"/>
   </g>
   <g id="line2d_19">
    <path d="M 72 347.371246 
L 76.96 288.729754 
L 81.92 285.254022 
L 86.88 285.00196 
L 91.84 284.63605 
L 96.8 276.899423 
L 101.76 277.873997 
L 106.72 275.288557 
L 111.68 269.63104 
L 116.64 254.323801 
L 121.6 261.220543 
L 126.56 262.227757 
L 131.52 264.563495 
L 136.48 269.917464 
L 141.44 273.536826 
L 146.4 259.449367 
L 151.36 251.057426 
L 156.32 260.298497 
L 161.28 261.340103 
L 166.24 269.618787 
L 171.2 266.138775 
L 176.16 256.034798 
L 181.12 268.167562 
L 186.08 259.328044 
L 191.04 254.181969 
L 196 253.806117 
L 200.96 246.441231 
L 205.92 246.841691 
L 210.88 245.3631 
L 215.84 257.300778 
L 220.8 252.37945 
L 225.76 242.669077 
L 230.72 253.589138 
L 235.68 253.796715 
L 240.64 250.333585 
L 245.6 252.790892 
L 250.56 245.612845 
L 255.52 243.264141 
L 260.48 239.095805 
L 265.44 240.015293 
L 270.4 243.64033 
L 275.36 251.940548 
L 280.32 241.037722 
L 285.28 241.545221 
L 290.24 242.748247 
L 295.2 236.598913 
L 300.16 233.07056 
L 305.12 238.282281 
L 310.08 231.522295 
L 315.04 238.462939 
L 320 238.12315 
L 324.96 233.981736 
L 329.92 230.98247 
L 334.88 238.415955 
L 339.84 230.750492 
L 344.8 232.638731 
L 349.76 228.603905 
L 354.72 227.379964 
L 359.68 219.965853 
L 364.64 231.290468 
L 369.6 230.687158 
L 374.56 220.447837 
L 379.52 242.036676 
L 384.48 234.060982 
L 389.44 236.152623 
L 394.4 237.548723 
L 399.36 231.154056 
L 404.32 226.085115 
L 409.28 235.724452 
L 414.24 230.154323 
L 419.2 227.772622 
L 424.16 230.484874 
L 429.12 236.679952 
L 434.08 233.928789 
L 439.04 241.926556 
L 444 228.241198 
L 448.96 231.876704 
L 453.92 233.424907 
L 458.88 242.067468 
L 463.84 235.315385 
L 468.8 235.037291 
L 473.76 231.840672 
L 478.72 233.827777 
L 483.68 228.327077 
L 488.64 241.654875 
L 493.6 244.876427 
L 498.56 230.682573 
L 503.52 227.868624 
L 508.48 230.666886 
L 513.44 235.74866 
L 518.4 236.337291 
L 523.36 244.922819 
L 528.32 232.176773 
L 533.28 237.058028 
L 538.24 240.944203 
L 543.2 237.254025 
L 548.16 236.344111 
L 553.12 242.868414 
L 558.08 224.279878 
L 563.04 234.168028 
L 568 221.055853 
L 572.96 219.65395 
L 577 232.122893 
L 577 232.122893 
" clip-path="url(#p30e0aab9ad)" style="fill: none; stroke: #a9678f; stroke-width: 2; stroke-linecap: square"/>
   </g>
   <g id="line2d_20">
    <path d="M 72 354.272323 
L 76.96 297.232774 
L 81.92 282.657123 
L 86.88 279.040318 
L 91.84 274.450988 
L 96.8 265.267612 
L 101.76 259.393942 
L 106.72 260.965227 
L 111.68 252.329076 
L 116.64 232.323222 
L 121.6 244.969593 
L 126.56 238.909506 
L 131.52 236.481942 
L 136.48 241.269127 
L 141.44 241.155536 
L 146.4 237.206791 
L 151.36 237.791862 
L 156.32 241.477728 
L 161.28 264.207968 
L 166.24 246.142506 
L 171.2 243.294161 
L 176.16 243.425644 
L 181.12 246.007478 
L 186.08 248.192856 
L 191.04 239.431454 
L 196 255.185006 
L 200.96 255.99684 
L 205.92 255.729957 
L 210.88 253.234687 
L 215.84 256.999597 
L 220.8 259.704925 
L 225.76 253.714405 
L 230.72 254.879229 
L 235.68 257.343913 
L 240.64 243.652917 
L 245.6 237.561058 
L 250.56 245.901146 
L 255.52 245.732772 
L 260.48 251.895164 
L 265.44 248.11451 
L 270.4 252.462824 
L 275.36 250.134418 
L 280.32 256.3371 
L 285.28 248.268359 
L 290.24 244.661935 
L 295.2 253.801949 
L 300.16 243.527173 
L 305.12 247.651032 
L 310.08 238.942052 
L 315.04 240.645134 
L 320 251.917295 
L 324.96 256.204987 
L 329.92 255.804822 
L 334.88 250.080811 
L 339.84 251.223559 
L 344.8 244.588486 
L 349.76 248.442534 
L 354.72 250.075733 
L 359.68 256.35944 
L 364.64 247.841812 
L 369.6 254.145412 
L 374.56 246.376843 
L 379.52 269.604187 
L 384.48 257.828867 
L 389.44 257.839398 
L 394.4 247.920018 
L 399.36 252.41478 
L 404.32 250.036775 
L 409.28 258.276929 
L 414.24 248.049127 
L 419.2 244.787519 
L 424.16 250.079124 
L 429.12 246.913502 
L 434.08 261.594079 
L 439.04 268.086613 
L 444 250.054668 
L 448.96 251.624482 
L 453.92 255.510002 
L 458.88 248.394476 
L 463.84 245.73186 
L 468.8 250.438175 
L 473.76 247.728125 
L 478.72 252.827273 
L 483.68 235.323856 
L 488.64 245.831538 
L 493.6 246.239088 
L 498.56 260.363527 
L 503.52 256.561509 
L 508.48 263.80823 
L 513.44 257.506341 
L 518.4 253.266334 
L 523.36 264.298491 
L 528.32 269.412451 
L 533.28 275.173192 
L 538.24 264.223287 
L 543.2 269.582436 
L 553.12 253.639114 
L 563.04 269.33803 
L 568 270.063911 
L 572.96 271.003165 
L 577 274.311877 
L 577 274.311877 
" clip-path="url(#p30e0aab9ad)" style="fill: none; stroke: #2d1e3e; stroke-width: 2; stroke-linecap: square"/>
   </g>
   <g id="line2d_21"/>
   <g id="line2d_22"/>
   <g id="line2d_23"/>
   <g id="patch_3">
    <path d="M 72 384.48 
L 72 51.84 
" style="fill: none; stroke: #000000; stroke-width: 0.8; stroke-linejoin: miter; stroke-linecap: square"/>
   </g>
   <g id="patch_4">
    <path d="M 518.4 384.48 
L 518.4 51.84 
" style="fill: none; stroke: #000000; stroke-width: 0.8; stroke-linejoin: miter; stroke-linecap: square"/>
   </g>
   <g id="patch_5">
    <path d="M 72 384.48 
L 518.4 384.48 
" style="fill: none; stroke: #000000; stroke-width: 0.8; stroke-linejoin: miter; stroke-linecap: square"/>
   </g>
   <g id="patch_6">
    <path d="M 72 51.84 
L 518.4 51.84 
" style="fill: none; stroke: #000000; stroke-width: 0.8; stroke-linejoin: miter; stroke-linecap: square"/>
   </g>
   <g id="text_20">
    <!-- Median MAPE througth time: NYC Taxi Trip Demand - LGBMRegressor -->
    <g transform="translate(89.010937 45.84) scale(0.12 -0.12)">
     <defs>
      <path id="DejaVuSans-69" d="M 603 3500 
L 1178 3500 
L 1178 0 
L 603 0 
L 603 3500 
z
M 603 4863 
L 1178 4863 
L 1178 4134 
L 603 4134 
L 603 4863 
z
" transform="scale(0.015625)"/>
      <path id="DejaVuSans-6e" d="M 3513 2113 
L 3513 0 
L 2938 0 
L 2938 2094 
Q 2938 2591 2744 2837 
Q 2550 3084 2163 3084 
Q 1697 3084 1428 2787 
Q 1159 2491 1159 1978 
L 1159 0 
L 581 0 
L 581 3500 
L 1159 3500 
L 1159 2956 
Q 1366 3272 1645 3428 
Q 1925 3584 2291 3584 
Q 2894 3584 3203 3211 
Q 3513 2838 3513 2113 
z
" transform="scale(0.015625)"/>
      <path id="DejaVuSans-74" d="M 1172 4494 
L 1172 3500 
L 2356 3500 
L 2356 3053 
L 1172 3053 
L 1172 1153 
Q 1172 725 1289 603 
Q 1406 481 1766 481 
L 2356 481 
L 2356 0 
L 1766 0 
Q 1100 0 847 248 
Q 594 497 594 1153 
L 594 3053 
L 172 3053 
L 172 3500 
L 594 3500 
L 594 4494 
L 1172 4494 
z
" transform="scale(0.015625)"/>
      <path id="DejaVuSans-68" d="M 3513 2113 
L 3513 0 
L 2938 0 
L 2938 2094 
Q 2938 2591 2744 2837 
Q 2550 3084 2163 3084 
Q 1697 3084 1428 2787 
Q 1159 2491 1159 1978 
L 1159 0 
L 581 0 
L 581 4863 
L 1159 4863 
L 1159 2956 
Q 1366 3272 1645 3428 
Q 1925 3584 2291 3584 
Q 2894 3584 3203 3211 
Q 3513 2838 3513 2113 
z
" transform="scale(0.015625)"/>
      <path id="DejaVuSans-72" d="M 2631 2963 
Q 2534 3019 2420 3045 
Q 2306 3072 2169 3072 
Q 1681 3072 1420 2755 
Q 1159 2438 1159 1844 
L 1159 0 
L 581 0 
L 581 3500 
L 1159 3500 
L 1159 2956 
Q 1341 3275 1631 3429 
Q 1922 3584 2338 3584 
Q 2397 3584 2469 3576 
Q 2541 3569 2628 3553 
L 2631 2963 
z
" transform="scale(0.015625)"/>
      <path id="DejaVuSans-75" d="M 544 1381 
L 544 3500 
L 1119 3500 
L 1119 1403 
Q 1119 906 1312 657 
Q 1506 409 1894 409 
Q 2359 409 2629 706 
Q 2900 1003 2900 1516 
L 2900 3500 
L 3475 3500 
L 3475 0 
L 2900 0 
L 2900 538 
Q 2691 219 2414 64 
Q 2138 -91 1772 -91 
Q 1169 -91 856 284 
Q 544 659 544 1381 
z
M 1991 3584 
L 1991 3584 
z
" transform="scale(0.015625)"/>
      <path id="DejaVuSans-6d" d="M 3328 2828 
Q 3544 3216 3844 3400 
Q 4144 3584 4550 3584 
Q 5097 3584 5394 3201 
Q 5691 2819 5691 2113 
L 5691 0 
L 5113 0 
L 5113 2094 
Q 5113 2597 4934 2840 
Q 4756 3084 4391 3084 
Q 3944 3084 3684 2787 
Q 3425 2491 3425 1978 
L 3425 0 
L 2847 0 
L 2847 2094 
Q 2847 2600 2669 2842 
Q 2491 3084 2119 3084 
Q 1678 3084 1418 2786 
Q 1159 2488 1159 1978 
L 1159 0 
L 581 0 
L 581 3500 
L 1159 3500 
L 1159 2956 
Q 1356 3278 1631 3431 
Q 1906 3584 2284 3584 
Q 2666 3584 2933 3390 
Q 3200 3197 3328 2828 
z
" transform="scale(0.015625)"/>
      <path id="DejaVuSans-3a" d="M 750 794 
L 1409 794 
L 1409 0 
L 750 0 
L 750 794 
z
M 750 3309 
L 1409 3309 
L 1409 2516 
L 750 2516 
L 750 3309 
z
" transform="scale(0.015625)"/>
      <path id="DejaVuSans-4e" d="M 628 4666 
L 1478 4666 
L 3547 763 
L 3547 4666 
L 4159 4666 
L 4159 0 
L 3309 0 
L 1241 3903 
L 1241 0 
L 628 0 
L 628 4666 
z
" transform="scale(0.015625)"/>
      <path id="DejaVuSans-59" d="M -13 4666 
L 666 4666 
L 1959 2747 
L 3244 4666 
L 3922 4666 
L 2272 2222 
L 2272 0 
L 1638 0 
L 1638 2222 
L -13 4666 
z
" transform="scale(0.015625)"/>
      <path id="DejaVuSans-43" d="M 4122 4306 
L 4122 3641 
Q 3803 3938 3442 4084 
Q 3081 4231 2675 4231 
Q 1875 4231 1450 3742 
Q 1025 3253 1025 2328 
Q 1025 1406 1450 917 
Q 1875 428 2675 428 
Q 3081 428 3442 575 
Q 3803 722 4122 1019 
L 4122 359 
Q 3791 134 3420 21 
Q 3050 -91 2638 -91 
Q 1578 -91 968 557 
Q 359 1206 359 2328 
Q 359 3453 968 4101 
Q 1578 4750 2638 4750 
Q 3056 4750 3426 4639 
Q 3797 4528 4122 4306 
z
" transform="scale(0.015625)"/>
      <path id="DejaVuSans-54" d="M -19 4666 
L 3928 4666 
L 3928 4134 
L 2272 4134 
L 2272 0 
L 1638 0 
L 1638 4134 
L -19 4134 
L -19 4666 
z
" transform="scale(0.015625)"/>
      <path id="DejaVuSans-78" d="M 3513 3500 
L 2247 1797 
L 3578 0 
L 2900 0 
L 1881 1375 
L 863 0 
L 184 0 
L 1544 1831 
L 300 3500 
L 978 3500 
L 1906 2253 
L 2834 3500 
L 3513 3500 
z
" transform="scale(0.015625)"/>
      <path id="DejaVuSans-70" d="M 1159 525 
L 1159 -1331 
L 581 -1331 
L 581 3500 
L 1159 3500 
L 1159 2969 
Q 1341 3281 1617 3432 
Q 1894 3584 2278 3584 
Q 2916 3584 3314 3078 
Q 3713 2572 3713 1747 
Q 3713 922 3314 415 
Q 2916 -91 2278 -91 
Q 1894 -91 1617 61 
Q 1341 213 1159 525 
z
M 3116 1747 
Q 3116 2381 2855 2742 
Q 2594 3103 2138 3103 
Q 1681 3103 1420 2742 
Q 1159 2381 1159 1747 
Q 1159 1113 1420 752 
Q 1681 391 2138 391 
Q 2594 391 2855 752 
Q 3116 1113 3116 1747 
z
" transform="scale(0.015625)"/>
      <path id="DejaVuSans-44" d="M 1259 4147 
L 1259 519 
L 2022 519 
Q 2988 519 3436 956 
Q 3884 1394 3884 2338 
Q 3884 3275 3436 3711 
Q 2988 4147 2022 4147 
L 1259 4147 
z
M 628 4666 
L 1925 4666 
Q 3281 4666 3915 4102 
Q 4550 3538 4550 2338 
Q 4550 1131 3912 565 
Q 3275 0 1925 0 
L 628 0 
L 628 4666 
z
" transform="scale(0.015625)"/>
      <path id="DejaVuSans-2d" d="M 313 2009 
L 1997 2009 
L 1997 1497 
L 313 1497 
L 313 2009 
z
" transform="scale(0.015625)"/>
      <path id="DejaVuSans-4c" d="M 628 4666 
L 1259 4666 
L 1259 531 
L 3531 531 
L 3531 0 
L 628 0 
L 628 4666 
z
" transform="scale(0.015625)"/>
      <path id="DejaVuSans-47" d="M 3809 666 
L 3809 1919 
L 2778 1919 
L 2778 2438 
L 4434 2438 
L 4434 434 
Q 4069 175 3628 42 
Q 3188 -91 2688 -91 
Q 1594 -91 976 548 
Q 359 1188 359 2328 
Q 359 3472 976 4111 
Q 1594 4750 2688 4750 
Q 3144 4750 3555 4637 
Q 3966 4525 4313 4306 
L 4313 3634 
Q 3963 3931 3569 4081 
Q 3175 4231 2741 4231 
Q 1884 4231 1454 3753 
Q 1025 3275 1025 2328 
Q 1025 1384 1454 906 
Q 1884 428 2741 428 
Q 3075 428 3337 486 
Q 3600 544 3809 666 
z
" transform="scale(0.015625)"/>
      <path id="DejaVuSans-42" d="M 1259 2228 
L 1259 519 
L 2272 519 
Q 2781 519 3026 730 
Q 3272 941 3272 1375 
Q 3272 1813 3026 2020 
Q 2781 2228 2272 2228 
L 1259 2228 
z
M 1259 4147 
L 1259 2741 
L 2194 2741 
Q 2656 2741 2882 2914 
Q 3109 3088 3109 3444 
Q 3109 3797 2882 3972 
Q 2656 4147 2194 4147 
L 1259 4147 
z
M 628 4666 
L 2241 4666 
Q 2963 4666 3353 4366 
Q 3744 4066 3744 3513 
Q 3744 3084 3544 2831 
Q 3344 2578 2956 2516 
Q 3422 2416 3680 2098 
Q 3938 1781 3938 1306 
Q 3938 681 3513 340 
Q 3088 0 2303 0 
L 628 0 
L 628 4666 
z
" transform="scale(0.015625)"/>
      <path id="DejaVuSans-52" d="M 2841 2188 
Q 3044 2119 3236 1894 
Q 3428 1669 3622 1275 
L 4263 0 
L 3584 0 
L 2988 1197 
Q 2756 1666 2539 1819 
Q 2322 1972 1947 1972 
L 1259 1972 
L 1259 0 
L 628 0 
L 628 4666 
L 2053 4666 
Q 2853 4666 3247 4331 
Q 3641 3997 3641 3322 
Q 3641 2881 3436 2590 
Q 3231 2300 2841 2188 
z
M 1259 4147 
L 1259 2491 
L 2053 2491 
Q 2509 2491 2742 2702 
Q 2975 2913 2975 3322 
Q 2975 3731 2742 3939 
Q 2509 4147 2053 4147 
L 1259 4147 
z
" transform="scale(0.015625)"/>
     </defs>
     <use xlink:href="#DejaVuSans-4d"/>
     <use xlink:href="#DejaVuSans-65" x="86.279297"/>
     <use xlink:href="#DejaVuSans-64" x="147.802734"/>
     <use xlink:href="#DejaVuSans-69" x="211.279297"/>
     <use xlink:href="#DejaVuSans-61" x="239.0625"/>
     <use xlink:href="#DejaVuSans-6e" x="300.341797"/>
     <use xlink:href="#DejaVuSans-20" x="363.720703"/>
     <use xlink:href="#DejaVuSans-4d" x="395.507812"/>
     <use xlink:href="#DejaVuSans-41" x="481.787109"/>
     <use xlink:href="#DejaVuSans-50" x="550.195312"/>
     <use xlink:href="#DejaVuSans-45" x="610.498047"/>
     <use xlink:href="#DejaVuSans-20" x="673.681641"/>
     <use xlink:href="#DejaVuSans-74" x="705.46875"/>
     <use xlink:href="#DejaVuSans-68" x="744.677734"/>
     <use xlink:href="#DejaVuSans-72" x="808.056641"/>
     <use xlink:href="#DejaVuSans-6f" x="846.919922"/>
     <use xlink:href="#DejaVuSans-75" x="908.101562"/>
     <use xlink:href="#DejaVuSans-67" x="971.480469"/>
     <use xlink:href="#DejaVuSans-74" x="1034.957031"/>
     <use xlink:href="#DejaVuSans-68" x="1074.166016"/>
     <use xlink:href="#DejaVuSans-20" x="1137.544922"/>
     <use xlink:href="#DejaVuSans-74" x="1169.332031"/>
     <use xlink:href="#DejaVuSans-69" x="1208.541016"/>
     <use xlink:href="#DejaVuSans-6d" x="1236.324219"/>
     <use xlink:href="#DejaVuSans-65" x="1333.736328"/>
     <use xlink:href="#DejaVuSans-3a" x="1395.259766"/>
     <use xlink:href="#DejaVuSans-20" x="1428.951172"/>
     <use xlink:href="#DejaVuSans-4e" x="1460.738281"/>
     <use xlink:href="#DejaVuSans-59" x="1535.542969"/>
     <use xlink:href="#DejaVuSans-43" x="1591.126953"/>
     <use xlink:href="#DejaVuSans-20" x="1660.951172"/>
     <use xlink:href="#DejaVuSans-54" x="1692.738281"/>
     <use xlink:href="#DejaVuSans-61" x="1737.322266"/>
     <use xlink:href="#DejaVuSans-78" x="1798.601562"/>
     <use xlink:href="#DejaVuSans-69" x="1857.78125"/>
     <use xlink:href="#DejaVuSans-20" x="1885.564453"/>
     <use xlink:href="#DejaVuSans-54" x="1917.351562"/>
     <use xlink:href="#DejaVuSans-72" x="1963.685547"/>
     <use xlink:href="#DejaVuSans-69" x="2004.798828"/>
     <use xlink:href="#DejaVuSans-70" x="2032.582031"/>
     <use xlink:href="#DejaVuSans-20" x="2096.058594"/>
     <use xlink:href="#DejaVuSans-44" x="2127.845703"/>
     <use xlink:href="#DejaVuSans-65" x="2204.847656"/>
     <use xlink:href="#DejaVuSans-6d" x="2266.371094"/>
     <use xlink:href="#DejaVuSans-61" x="2363.783203"/>
     <use xlink:href="#DejaVuSans-6e" x="2425.0625"/>
     <use xlink:href="#DejaVuSans-64" x="2488.441406"/>
     <use xlink:href="#DejaVuSans-20" x="2551.917969"/>
     <use xlink:href="#DejaVuSans-2d" x="2583.705078"/>
     <use xlink:href="#DejaVuSans-20" x="2619.789062"/>
     <use xlink:href="#DejaVuSans-4c" x="2651.576172"/>
     <use xlink:href="#DejaVuSans-47" x="2707.289062"/>
     <use xlink:href="#DejaVuSans-42" x="2784.779297"/>
     <use xlink:href="#DejaVuSans-4d" x="2853.382812"/>
     <use xlink:href="#DejaVuSans-52" x="2939.662109"/>
     <use xlink:href="#DejaVuSans-65" x="3004.644531"/>
     <use xlink:href="#DejaVuSans-67" x="3066.167969"/>
     <use xlink:href="#DejaVuSans-72" x="3129.644531"/>
     <use xlink:href="#DejaVuSans-65" x="3168.507812"/>
     <use xlink:href="#DejaVuSans-73" x="3230.03125"/>
     <use xlink:href="#DejaVuSans-73" x="3282.130859"/>
     <use xlink:href="#DejaVuSans-6f" x="3334.230469"/>
     <use xlink:href="#DejaVuSans-72" x="3395.412109"/>
    </g>
   </g>
   <g id="legend_1">
    <g id="patch_7">
     <path d="M 79 118.5525 
L 237.035937 118.5525 
Q 239.035937 118.5525 239.035937 116.5525 
L 239.035937 58.84 
Q 239.035937 56.84 237.035937 56.84 
L 79 56.84 
Q 77 56.84 77 58.84 
L 77 116.5525 
Q 77 118.5525 79 118.5525 
z
" style="fill: #ffffff; opacity: 0.8; stroke: #cccccc; stroke-linejoin: miter"/>
    </g>
    <g id="text_21">
     <!-- Retraining instances -->
     <g transform="translate(106.947656 68.438438) scale(0.1 -0.1)">
      <defs>
       <path id="DejaVuSans-63" d="M 3122 3366 
L 3122 2828 
Q 2878 2963 2633 3030 
Q 2388 3097 2138 3097 
Q 1578 3097 1268 2742 
Q 959 2388 959 1747 
Q 959 1106 1268 751 
Q 1578 397 2138 397 
Q 2388 397 2633 464 
Q 2878 531 3122 666 
L 3122 134 
Q 2881 22 2623 -34 
Q 2366 -91 2075 -91 
Q 1284 -91 818 406 
Q 353 903 353 1747 
Q 353 2603 823 3093 
Q 1294 3584 2113 3584 
Q 2378 3584 2631 3529 
Q 2884 3475 3122 3366 
z
" transform="scale(0.015625)"/>
      </defs>
      <use xlink:href="#DejaVuSans-52"/>
      <use xlink:href="#DejaVuSans-65" x="64.982422"/>
      <use xlink:href="#DejaVuSans-74" x="126.505859"/>
      <use xlink:href="#DejaVuSans-72" x="165.714844"/>
      <use xlink:href="#DejaVuSans-61" x="206.828125"/>
      <use xlink:href="#DejaVuSans-69" x="268.107422"/>
      <use xlink:href="#DejaVuSans-6e" x="295.890625"/>
      <use xlink:href="#DejaVuSans-69" x="359.269531"/>
      <use xlink:href="#DejaVuSans-6e" x="387.052734"/>
      <use xlink:href="#DejaVuSans-67" x="450.431641"/>
      <use xlink:href="#DejaVuSans-20" x="513.908203"/>
      <use xlink:href="#DejaVuSans-69" x="545.695312"/>
      <use xlink:href="#DejaVuSans-6e" x="573.478516"/>
      <use xlink:href="#DejaVuSans-73" x="636.857422"/>
      <use xlink:href="#DejaVuSans-74" x="688.957031"/>
      <use xlink:href="#DejaVuSans-61" x="728.166016"/>
      <use xlink:href="#DejaVuSans-6e" x="789.445312"/>
      <use xlink:href="#DejaVuSans-63" x="852.824219"/>
      <use xlink:href="#DejaVuSans-65" x="907.804688"/>
      <use xlink:href="#DejaVuSans-73" x="969.328125"/>
     </g>
    </g>
    <g id="line2d_24">
     <path d="M 81 79.616563 
L 91 79.616563 
L 101 79.616563 
" style="fill: none; stroke: #edd1cb; stroke-width: 2; stroke-linecap: square"/>
    </g>
    <g id="text_22">
     <!-- no retraining update -->
     <g transform="translate(109 83.116563) scale(0.1 -0.1)">
      <use xlink:href="#DejaVuSans-6e"/>
      <use xlink:href="#DejaVuSans-6f" x="63.378906"/>
      <use xlink:href="#DejaVuSans-20" x="124.560547"/>
      <use xlink:href="#DejaVuSans-72" x="156.347656"/>
      <use xlink:href="#DejaVuSans-65" x="195.210938"/>
      <use xlink:href="#DejaVuSans-74" x="256.734375"/>
      <use xlink:href="#DejaVuSans-72" x="295.943359"/>
      <use xlink:href="#DejaVuSans-61" x="337.056641"/>
      <use xlink:href="#DejaVuSans-69" x="398.335938"/>
      <use xlink:href="#DejaVuSans-6e" x="426.119141"/>
      <use xlink:href="#DejaVuSans-69" x="489.498047"/>
      <use xlink:href="#DejaVuSans-6e" x="517.28125"/>
      <use xlink:href="#DejaVuSans-67" x="580.660156"/>
      <use xlink:href="#DejaVuSans-20" x="644.136719"/>
      <use xlink:href="#DejaVuSans-75" x="675.923828"/>
      <use xlink:href="#DejaVuSans-70" x="739.302734"/>
      <use xlink:href="#DejaVuSans-64" x="802.779297"/>
      <use xlink:href="#DejaVuSans-61" x="866.255859"/>
      <use xlink:href="#DejaVuSans-74" x="927.535156"/>
      <use xlink:href="#DejaVuSans-65" x="966.744141"/>
     </g>
    </g>
    <g id="line2d_25">
     <path d="M 81 94.294688 
L 91 94.294688 
L 101 94.294688 
" style="fill: none; stroke: #a9678f; stroke-width: 2; stroke-linecap: square"/>
    </g>
    <g id="text_23">
     <!-- first retraining update -->
     <g transform="translate(109 97.794688) scale(0.1 -0.1)">
      <defs>
       <path id="DejaVuSans-66" d="M 2375 4863 
L 2375 4384 
L 1825 4384 
Q 1516 4384 1395 4259 
Q 1275 4134 1275 3809 
L 1275 3500 
L 2222 3500 
L 2222 3053 
L 1275 3053 
L 1275 0 
L 697 0 
L 697 3053 
L 147 3053 
L 147 3500 
L 697 3500 
L 697 3744 
Q 697 4328 969 4595 
Q 1241 4863 1831 4863 
L 2375 4863 
z
" transform="scale(0.015625)"/>
      </defs>
      <use xlink:href="#DejaVuSans-66"/>
      <use xlink:href="#DejaVuSans-69" x="35.205078"/>
      <use xlink:href="#DejaVuSans-72" x="62.988281"/>
      <use xlink:href="#DejaVuSans-73" x="104.101562"/>
      <use xlink:href="#DejaVuSans-74" x="156.201172"/>
      <use xlink:href="#DejaVuSans-20" x="195.410156"/>
      <use xlink:href="#DejaVuSans-72" x="227.197266"/>
      <use xlink:href="#DejaVuSans-65" x="266.060547"/>
      <use xlink:href="#DejaVuSans-74" x="327.583984"/>
      <use xlink:href="#DejaVuSans-72" x="366.792969"/>
      <use xlink:href="#DejaVuSans-61" x="407.90625"/>
      <use xlink:href="#DejaVuSans-69" x="469.185547"/>
      <use xlink:href="#DejaVuSans-6e" x="496.96875"/>
      <use xlink:href="#DejaVuSans-69" x="560.347656"/>
      <use xlink:href="#DejaVuSans-6e" x="588.130859"/>
      <use xlink:href="#DejaVuSans-67" x="651.509766"/>
      <use xlink:href="#DejaVuSans-20" x="714.986328"/>
      <use xlink:href="#DejaVuSans-75" x="746.773438"/>
      <use xlink:href="#DejaVuSans-70" x="810.152344"/>
      <use xlink:href="#DejaVuSans-64" x="873.628906"/>
      <use xlink:href="#DejaVuSans-61" x="937.105469"/>
      <use xlink:href="#DejaVuSans-74" x="998.384766"/>
      <use xlink:href="#DejaVuSans-65" x="1037.59375"/>
     </g>
    </g>
    <g id="line2d_26">
     <path d="M 81 108.972813 
L 91 108.972813 
L 101 108.972813 
" style="fill: none; stroke: #2d1e3e; stroke-width: 2; stroke-linecap: square"/>
    </g>
    <g id="text_24">
     <!-- second retraining update -->
     <g transform="translate(109 112.472813) scale(0.1 -0.1)">
      <use xlink:href="#DejaVuSans-73"/>
      <use xlink:href="#DejaVuSans-65" x="52.099609"/>
      <use xlink:href="#DejaVuSans-63" x="113.623047"/>
      <use xlink:href="#DejaVuSans-6f" x="168.603516"/>
      <use xlink:href="#DejaVuSans-6e" x="229.785156"/>
      <use xlink:href="#DejaVuSans-64" x="293.164062"/>
      <use xlink:href="#DejaVuSans-20" x="356.640625"/>
      <use xlink:href="#DejaVuSans-72" x="388.427734"/>
      <use xlink:href="#DejaVuSans-65" x="427.291016"/>
      <use xlink:href="#DejaVuSans-74" x="488.814453"/>
      <use xlink:href="#DejaVuSans-72" x="528.023438"/>
      <use xlink:href="#DejaVuSans-61" x="569.136719"/>
      <use xlink:href="#DejaVuSans-69" x="630.416016"/>
      <use xlink:href="#DejaVuSans-6e" x="658.199219"/>
      <use xlink:href="#DejaVuSans-69" x="721.578125"/>
      <use xlink:href="#DejaVuSans-6e" x="749.361328"/>
      <use xlink:href="#DejaVuSans-67" x="812.740234"/>
      <use xlink:href="#DejaVuSans-20" x="876.216797"/>
      <use xlink:href="#DejaVuSans-75" x="908.003906"/>
      <use xlink:href="#DejaVuSans-70" x="971.382812"/>
      <use xlink:href="#DejaVuSans-64" x="1034.859375"/>
      <use xlink:href="#DejaVuSans-61" x="1098.335938"/>
      <use xlink:href="#DejaVuSans-74" x="1159.615234"/>
      <use xlink:href="#DejaVuSans-65" x="1198.824219"/>
     </g>
    </g>
   </g>
  </g>
 </g>
 <defs>
  <clipPath id="p30e0aab9ad">
   <rect x="72" y="51.84" width="446.4" height="332.64"/>
  </clipPath>
 </defs>
</svg>
